<?xml version="1.0" encoding="utf-8"?>
<!-- Generator: Adobe Illustrator 21.0.0, SVG Export Plug-In . SVG Version: 6.00 Build 0)  -->
<svg version="1.1" id="Layer_1" xmlns="http://www.w3.org/2000/svg" xmlns:xlink="http://www.w3.org/1999/xlink" x="0px" y="0px"
	 viewBox="0 0 69 69" style="enable-background:new 0 0 69 69;" xml:space="preserve">
<style type="text/css">
	.st0{fill:url(#SVGID_1_);}
</style>
<linearGradient id="SVGID_1_" gradientUnits="userSpaceOnUse" x1="9.6823" y1="53.4394" x2="55.1177" y2="8.004">
	<stop  offset="0" style="stop-color:#2751AF"/>
	<stop  offset="1" style="stop-color:#32C0F9"/>
</linearGradient>
<path class="st0" d="M12.8,46h0.6h30.2h10.8c0.4,0,0.8-0.2,0.9-0.6l10.4-25.9c0.1-0.3,0.1-0.7-0.1-0.9c-0.2-0.3-0.5-0.4-0.8-0.4
	H14.4v-0.6c0-5.6-4.6-10.2-10.2-10.2c-0.6,0-1,0.4-1,1s0.4,1,1,1c4.5,0,8.2,3.7,8.2,8.2v1.6V44C9.9,44.2,8,46.3,8,48.8
	c0,2.6,2.2,4.8,4.8,4.8h0.3c0,0.3-0.1,0.5-0.1,0.8c0,3.1,2.6,5.7,5.7,5.7s5.7-2.6,5.7-5.7c0-0.3,0-0.6-0.1-0.9h22.8
	c0,0.3-0.1,0.6-0.1,0.9c0,3.1,2.6,5.7,5.7,5.7s5.7-2.6,5.7-5.7c0-3.1-2.6-5.7-5.7-5.7c-2.1,0-3.9,1.1-4.9,2.8H23.6
	c-1-1.7-2.8-2.8-4.9-2.8c-2.1,0-4,1.2-5,2.9h-0.9c-1.5,0-2.8-1.3-2.8-2.8S11.3,46,12.8,46z M63.3,20.1L53.7,44H43.6H14.4V20.1H63.3z
	 M52.7,50.7c2,0,3.7,1.7,3.7,3.7s-1.7,3.7-3.7,3.7S49,56.4,49,54.4S50.7,50.7,52.7,50.7z M18.7,50.7c2,0,3.7,1.7,3.7,3.7
	s-1.7,3.7-3.7,3.7c-2,0-3.7-1.7-3.7-3.7c0-0.4,0.1-0.7,0.2-1.1c0.2-0.2,0.3-0.4,0.3-0.7c0,0,0,0,0,0C16.1,51.5,17.3,50.7,18.7,50.7z
	"/>
</svg>
