<?xml version="1.0" encoding="utf-8"?>
<!-- Generator: Adobe Illustrator 21.0.0, SVG Export Plug-In . SVG Version: 6.00 Build 0)  -->
<svg version="1.1" baseProfile="basic" id="Layer_1"
	 xmlns="http://www.w3.org/2000/svg" xmlns:xlink="http://www.w3.org/1999/xlink" x="0px" y="0px" viewBox="0 0 69 69"
	 xml:space="preserve">
<style type="text/css">
	.st0{fill:url(#SVGID_1_);}
	.st1{fill:url(#SVGID_2_);}
</style>
<g>
	<linearGradient id="SVGID_1_" gradientUnits="userSpaceOnUse" x1="8.8501" y1="59.3501" x2="59.8893" y2="8.3109">
		<stop  offset="0" style="stop-color:#2751AF"/>
		<stop  offset="1" style="stop-color:#32C0F9"/>
	</linearGradient>
	<path class="st0" d="M34.5,7.2C19.9,7.2,8,19.1,8,33.7s11.9,26.5,26.5,26.5S61,48.3,61,33.7S49.1,7.2,34.5,7.2z M34.5,58.2
		C21,58.2,10,47.2,10,33.7C10,20.2,21,9.2,34.5,9.2C48,9.2,59,20.2,59,33.7C59,47.2,48,58.2,34.5,58.2z"/>
	<linearGradient id="SVGID_2_" gradientUnits="userSpaceOnUse" x1="8.8502" y1="59.3502" x2="59.8894" y2="8.311">
		<stop  offset="0" style="stop-color:#2751AF"/>
		<stop  offset="1" style="stop-color:#32C0F9"/>
	</linearGradient>
	<path class="st1" d="M40,32.7h-4.5v-4.5c0-0.6-0.4-1-1-1c-0.6,0-1,0.4-1,1v4.5H29c-0.6,0-1,0.4-1,1s0.4,1,1,1h4.5v4.5
		c0,0.6,0.4,1,1,1c0.6,0,1-0.4,1-1v-4.5H40c0.6,0,1-0.4,1-1S40.6,32.7,40,32.7z"/>
</g>
</svg>
