<?xml version="1.0" encoding="UTF-8" standalone="no"?>
<svg width="137px" height="16px" viewBox="0 0 137 16" version="1.1" xmlns="http://www.w3.org/2000/svg" xmlns:xlink="http://www.w3.org/1999/xlink">
    <!-- Generator: Sketch 3.8.2 (29753) - http://www.bohemiancoding.com/sketch -->
    <title>Group</title>
    <desc>Created with Sketch.</desc>
    <defs></defs>
    <g id="Page-1" stroke="none" stroke-width="1" fill="none" fill-rule="evenodd">
        <g id="Group" fill="#FFFFFF">
            <path d="M132,3 L127,8 L132,13 L137,7.997 L132,3 Z M117.753,7.79 L124,15.637 L121.453,15.637 L116.478,9.389 L111.508,15.636 L108.96,15.636 L115.205,7.786 L109.3,0.365 L111.847,0.365 L116.481,6.188 L121.116,0.365 L123.663,0.365 L117.753,7.79 L117.753,7.79 Z M26.106,6.985 L26.106,2.392 L31.993,2.392 C33.223,2.392 34.227,3.422 34.227,4.69 C34.227,5.957 33.224,6.985 31.993,6.985 L26.106,6.985 L26.106,6.985 Z M31.993,9.015 C34.313,9.015 36.198,7.075 36.198,4.69 C36.198,2.304 34.312,0.365 31.993,0.365 L24.136,0.365 L24.136,15.637 L26.106,15.637 L26.106,9.014 L28.606,9.014 L33.74,15.637 L36.26,15.637 L31.127,9.014 L31.993,9.014 L31.993,9.015 Z M68.64,0.364 L70.61,0.364 L70.61,15.636 L68.64,15.636 L68.64,9.305 L59.62,9.305 L59.62,15.637 L57.65,15.637 L57.65,0.365 L59.62,0.365 L59.62,7.28 L68.64,7.28 L68.64,0.364 L68.64,0.364 Z M41.002,8 C41.002,11.294 43.609,13.976 46.812,13.976 C48.729,13.976 50.522,13.002 51.608,11.371 L52.166,10.538 L53.791,11.683 L53.235,12.52 C51.78,14.7 49.378,16 46.81,16 C42.52,16 39.032,12.41 39.032,8 C39.032,3.59 42.522,0 46.812,0 C49.378,0 51.78,1.302 53.234,3.483 L53.791,4.319 L52.167,5.466 L51.609,4.628 C50.522,3 48.728,2.026 46.81,2.026 C43.61,2.026 41.002,4.706 41.002,8 L41.002,8 Z M99.888,13.975 C96.688,13.975 94.081,11.295 94.081,8.001 C94.081,4.708 96.688,2.028 99.889,2.028 C103.095,2.028 105.699,4.708 105.699,8.002 C105.699,11.296 103.095,13.977 99.889,13.977 L99.888,13.975 Z M99.888,0 C95.6,0 92.108,3.59 92.108,8 C92.108,12.41 95.6,16 99.888,16 C104.18,16 107.67,12.41 107.67,8 C107.67,3.59 104.18,0 99.888,0 L99.888,0 Z M17.375,0.365 L19.345,0.365 L19.345,15.637 L17.375,15.637 L17.375,0.365 L17.375,0.365 Z M84.33,13.61 L77.445,13.61 L77.445,9.014 L84.33,9.014 C85.56,9.014 86.564,10.044 86.564,11.312 C86.564,12.579 85.561,13.61 84.33,13.61 L84.33,13.61 Z M77.445,2.392 L84.103,2.392 C85.333,2.392 86.338,3.422 86.338,4.69 C86.338,5.957 85.334,6.986 84.103,6.986 L77.445,6.986 L77.445,2.392 L77.445,2.392 Z M86.908,7.902 C87.8028669,7.07391034 88.3105124,5.90922635 88.308,4.69 C88.308,2.304 86.422,0.365 84.103,0.365 L75.475,0.365 L75.475,15.637 L84.33,15.637 C86.648,15.637 88.535,13.697 88.535,11.312 C88.5389141,9.98717741 87.9402475,8.73244283 86.908,7.902 L86.908,7.902 Z M8.855,13.61 L1.97,13.61 L1.97,9.014 L8.856,9.014 C10.088,9.014 11.091,10.044 11.091,11.312 C11.091,12.579 10.088,13.61 8.856,13.61 L8.855,13.61 Z M1.97,2.392 L8.63,2.392 C9.863,2.392 10.866,3.422 10.866,4.69 C10.866,5.957 9.863,6.985 8.63,6.985 L1.97,6.985 L1.97,2.392 L1.97,2.392 Z M11.434,7.902 C12.3292753,7.0742005 12.837003,5.90932804 12.834,4.69 C12.834,2.304 10.949,0.365 8.628,0.365 L0,0.365 L0,15.637 L8.855,15.637 C11.175,15.637 13.062,13.697 13.062,11.312 C13.0656708,9.98700913 12.4666219,8.73224467 11.434,7.902 L11.434,7.902 Z" id="Shape"></path>
        </g>
    </g>
</svg>