<?xml version="1.0" encoding="UTF-8" standalone="no"?>
<svg width="129px" height="25px" viewBox="0 0 129 25" version="1.1" xmlns="http://www.w3.org/2000/svg" xmlns:xlink="http://www.w3.org/1999/xlink">
    <!-- Generator: Sketch 3.8.2 (29753) - http://www.bohemiancoding.com/sketch -->
    <title>mono-white_periscope</title>
    <desc>Created with Sketch.</desc>
    <defs></defs>
    <g id="Page-1" stroke="none" stroke-width="1" fill="none" fill-rule="evenodd">
        <g id="mono-white_periscope" fill="#FFFFFF">
            <g id="Page-1">
                <path d="M18.098,9.094 C18.098,15.774 10.918,23.118 9.12,23.118 C7.32,23.118 0.142,15.775 0.142,9.094 C0.142,4.131 4.162,0.108 9.12,0.108 C14.078,0.108 18.098,4.131 18.098,9.094 L18.098,9.094 L18.098,9.094 Z M9.12,3.67 C8.69767758,3.6705802 8.27685384,3.7202468 7.866,3.818 C8.78774261,4.26678863 9.27732402,5.29274983 9.0463806,6.29159207 C8.81543718,7.29043431 7.92519209,7.99736429 6.9,7.996 C5.73741051,7.99439533 4.77675433,7.08849611 4.707,5.928 C3.5057271,7.58648809 3.33554894,9.77839933 4.26644222,11.602427 C5.1973355,13.4264547 7.07216231,14.5746968 9.12,14.575 C12.1295614,14.5733436 14.5681049,12.1325616 14.567,9.123 C14.5681049,6.11343837 12.1295614,3.67265644 9.12,3.671 L9.12,3.67 L9.12,3.67 Z M28.926,3.943 L34.566,3.943 C37.466,3.943 39.601,5.848 39.601,8.868 C39.601,11.911 37.469,13.862 34.568,13.862 L30.53,13.862 L30.53,20.272 L28.93,20.272 L28.93,3.942 L28.926,3.943 L28.926,3.943 Z M34.356,12.423 C36.538,12.423 37.954,11.098 37.954,8.868 C37.954,6.661 36.538,5.383 34.38,5.383 L30.527,5.383 L30.527,12.423 L34.357,12.423 L34.356,12.423 L34.356,12.423 Z M46.936,8.31 C50.161,8.31 51.809,10.796 51.809,13.7 C51.809,13.955 51.782,14.234 51.759,14.49 L42.8,14.49 C42.87,17.462 44.912,19.11 47.325,19.11 C48.601,19.11 49.925,18.577 50.875,17.718 L51.595,18.926 C50.505,19.924 48.81,20.551 47.278,20.551 C43.798,20.551 41.152,18.046 41.152,14.445 C41.152,10.613 43.774,8.313 46.932,8.313 L46.936,8.31 L46.936,8.31 Z M50.206,13.235 C50.114,10.795 48.629,9.611 46.886,9.611 C44.939,9.611 43.246,10.891 42.873,13.238 L50.207,13.238 L50.206,13.235 L50.206,13.235 Z M54.78,8.59 L56.334,8.59 L56.334,10.75 C56.334,11.26 56.241,11.678 56.241,11.678 L56.291,11.678 C56.871,9.913 58.217,8.473 60.027,8.473 C60.237,8.473 60.467,8.496 60.653,8.543 L60.653,10.1 C60.583,10.074 60.306,10.05 60.073,10.05 C57.453,10.05 56.361,13 56.361,15.324 L56.361,20.272 L54.783,20.272 L54.783,8.59 L54.78,8.59 L54.78,8.59 Z M62.994,3.943 L64.712,3.943 L64.712,5.918 L62.994,5.918 L62.994,3.943 L62.994,3.943 L62.994,3.943 Z M63.064,8.589 L64.642,8.589 L64.642,20.269 L63.064,20.269 L63.064,8.59 L63.064,8.589 L63.064,8.589 Z M68.216,17.739 C69.096,18.645 70.466,19.156 71.743,19.156 C73.043,19.156 74.087,18.506 74.087,17.274 C74.087,14.674 67.867,15.394 67.867,11.56 C67.867,9.424 69.701,8.31 71.837,8.31 C73.112,8.31 74.482,8.68 75.433,9.586 L74.691,10.771 C74.021,10.099 72.811,9.704 71.771,9.704 C70.541,9.704 69.426,10.238 69.426,11.516 C69.426,14.186 75.668,13.396 75.668,17.253 C75.668,19.181 74.021,20.551 71.723,20.551 C70.169,20.551 68.498,20.019 67.383,18.858 L68.22,17.743 L68.216,17.739 L68.216,17.739 Z M83.904,8.309 C85.434,8.309 87.13,8.842 88.174,9.981 L87.362,11.165 C86.549,10.329 85.25,9.725 83.95,9.725 C81.398,9.725 79.402,11.653 79.402,14.44 C79.402,17.18 81.398,19.11 83.997,19.11 C85.343,19.11 86.805,18.53 87.733,17.508 L88.453,18.69 C87.433,19.828 85.691,20.548 83.903,20.548 C80.446,20.548 77.777,18.064 77.777,14.44 C77.777,10.84 80.469,8.308 83.904,8.308 L83.904,8.309 L83.904,8.309 Z M96.227,8.309 C99.639,8.309 102.401,10.909 102.401,14.371 C102.401,17.901 99.641,20.551 96.231,20.551 C92.821,20.551 90.081,17.901 90.081,14.371 C90.081,10.911 92.821,8.308 96.231,8.308 L96.227,8.309 L96.227,8.309 Z M96.227,19.109 C98.734,19.109 100.777,17.112 100.777,14.371 C100.777,11.723 98.734,9.725 96.227,9.725 C93.721,9.725 91.701,11.723 91.701,14.371 C91.701,17.111 93.721,19.109 96.231,19.109 L96.227,19.109 L96.227,19.109 Z M105.347,8.589 L106.857,8.589 L106.857,9.819 C106.857,10.329 106.787,10.724 106.787,10.724 L106.833,10.724 C107.553,9.214 109.083,8.308 110.893,8.308 C114.051,8.308 115.977,10.818 115.977,14.418 C115.977,18.133 113.795,20.548 110.755,20.548 C109.107,20.548 107.668,19.688 106.903,18.226 L106.856,18.226 C106.856,18.226 106.926,18.642 106.926,19.246 L106.926,24.916 L105.348,24.916 L105.348,8.59 L105.347,8.589 L105.347,8.589 Z M110.593,19.133 C112.658,19.133 114.375,17.413 114.375,14.441 C114.375,11.583 112.845,9.749 110.662,9.749 C108.712,9.749 106.879,11.144 106.879,14.466 C106.879,16.812 108.199,19.136 110.589,19.136 L110.593,19.133 L110.593,19.133 Z M124.006,8.308 C127.232,8.308 128.88,10.793 128.88,13.698 C128.88,13.952 128.857,14.231 128.833,14.488 L119.875,14.488 C119.945,17.458 121.987,19.108 124.401,19.108 C125.681,19.108 127.001,18.574 127.955,17.715 L128.675,18.923 C127.585,19.921 125.889,20.548 124.357,20.548 C120.877,20.548 118.23,18.042 118.23,14.441 C118.23,10.609 120.852,8.309 124.01,8.309 L124.006,8.308 L124.006,8.308 Z M127.279,13.232 C127.183,10.792 125.699,9.608 123.959,9.608 C122.009,9.608 120.313,10.888 119.942,13.234 L127.276,13.234 L127.279,13.232 L127.279,13.232 Z" id="Shape"></path>
            </g>
        </g>
    </g>
</svg>