<?xml version="1.0" encoding="UTF-8"?>
<svg width="175px" height="38px" viewBox="0 0 175 38" version="1.1" xmlns="http://www.w3.org/2000/svg" xmlns:xlink="http://www.w3.org/1999/xlink">
    <!-- Generator: Sketch 41.2 (35397) - http://www.bohemiancoding.com/sketch -->
    <title>arcteryx</title>
    <desc>Created with Sketch.</desc>
    <defs></defs>
    <g id="Page-1" stroke="none" stroke-width="1" fill="none" fill-rule="evenodd">
        <g id="White" transform="translate(-24.000000, -104.000000)" fill="#FFFFFF">
            <g id="arcteryx" transform="translate(24.000000, 104.000000)">
                <path d="M160.969874,11.1629446 C159.869793,12.520826 155.800044,18.8813297 155.800044,18.8813297 L155.787918,24.4086888 C155.787918,25.1454676 155.854622,26.0581048 155.991063,26.4128498 C156.109287,26.7281789 156.327615,26.8979715 156.303359,26.9889324 L156.151759,27.0344117 C155.58174,27.0344117 155.366468,26.9889324 154.635752,26.9798361 C153.826205,26.9798361 153.692796,27.0495714 153.09549,27.0495714 L152.94389,27.0010593 C152.919634,26.9101007 152.992402,26.9737726 153.204643,26.522001 C153.432044,26.0338487 153.474491,24.2297999 153.474491,23.4899881 L153.477524,18.8813297 C153.477524,18.8813297 148.332199,11.2709779 147.871331,10.8677185 C147.422594,10.4674943 147.249769,10.4462688 147.249769,10.4462688 C147.249769,10.4462688 148.69907,10.4887175 149.429786,10.4887175 C150.160476,10.4887175 151.173193,10.394726 151.161067,10.4462688 C151.024624,10.8252698 151.064042,11.2861377 151.364212,11.7985461 C151.661348,12.3139896 154.605433,16.7376956 154.796426,16.9256809 C154.984434,16.7376956 157.846654,12.2472848 158.146824,11.7348741 C158.440929,11.2194329 158.504601,10.7797905 158.371192,10.40382 C158.356032,10.3492444 159.138292,10.4432382 159.869008,10.4432382 C159.962453,10.4432382 160.067254,10.4432878 160.178977,10.4433742 C160.177357,10.4270546 160.181304,10.4189821 160.181304,10.4189821 C160.181304,10.4189821 160.64969,10.4333091 161.181811,10.4446877 C161.647582,10.4454666 162.024769,10.4462688 162.024769,10.4462688 C162.024769,10.4462688 162.022493,10.4503262 162.017741,10.4576978 C162.081573,10.4581516 162.14283,10.458398 162.2006,10.458398 C162.931315,10.458398 163.944032,10.3644042 163.928873,10.4189821 C163.795463,10.7979831 163.837912,11.2588488 164.135048,11.77429 C164.432187,12.2867006 167.264085,16.5648725 167.452071,16.7498248 C167.643089,16.5648725 170.402219,12.3564383 170.702388,11.8409948 C170.996494,11.3285841 171.084422,10.7979831 170.947982,10.4189821 C170.935855,10.3644042 171.887906,10.458398 172.615588,10.458398 C173.349337,10.458398 174.613686,10.4189821 174.613686,10.4189821 C174.613686,10.4189821 174.295324,10.5887747 173.855682,10.9738392 C173.397849,11.3801292 168.586043,18.5811604 168.586043,18.5811604 C168.586043,18.5811604 173.713178,26.1824158 174.174044,26.5917387 C174.622782,26.9889324 174.795582,27.007125 174.795582,27.007125 C174.795582,27.007125 173.349337,26.9677069 172.615588,26.9677069 C171.887906,26.9677069 170.844894,27.0617006 170.857021,27.007125 C170.993464,26.6281217 170.954045,26.1702889 170.656909,25.6548454 C170.35674,25.1394042 167.482392,20.7733066 167.294407,20.5853214 C167.103389,20.7733066 164.250265,25.1394042 163.953129,25.6548454 C163.652959,26.1702889 163.613544,26.6281217 163.749984,27.007125 C163.762111,27.0617006 162.931315,26.9677069 162.2006,26.9677069 C161.469909,26.9677069 160.020608,27.007125 160.020608,27.007125 C160.020608,27.007125 160.193433,26.9889324 160.64217,26.5917387 C161.103035,26.1824158 166.166473,18.6963774 166.166473,18.6963774 C166.166473,18.6963774 162.249924,12.664323 160.969874,11.1629446 Z M5.44560178,24.4764519 L5.88915168,24.2285964 C6.4318224,24.051186 6.66402283,23.393719 7.29279044,23.4511173 C7.86416012,22.8066951 8.71469219,22.6605915 9.3747677,22.1492281 L9.5860962,21.8126674 C10.0035353,21.4969806 9.30693381,21.2491251 9.30693381,21.2491251 C9.10343234,20.97779 8.79557099,21.2256454 8.79557099,21.2256454 L8.32073416,21.4761087 C8.23202833,21.7839702 7.91112208,21.8126674 7.6763125,21.9431185 C7.33975239,22.2666325 6.89883241,22.514488 6.48922032,22.7492967 C6.19440389,23.1928269 5.6726051,23.2737049 5.33082691,23.6102656 C5.33082691,23.6102656 4.91338799,23.8842085 4.78032924,24.2233789 C4.78032924,24.2233789 3.9689321,24.9669414 5.04905558,24.5625474 L5.44560178,24.4764519 Z M4.44116003,25.6844144 L4.38376214,25.7652944 L4.34201825,25.7939936 C3.79412951,26.1931701 3.45496029,26.7175762 3.11579106,27.2393766 C2.75053191,27.7977014 2.38266376,28.3534164 1.74867821,28.7525929 C1.2790593,28.7525929 1.01555091,29.2352552 0.621592717,29.4231046 L0.415482303,29.1752491 C0.415482303,29.1752491 0.159800794,28.6951946 0.271987696,28.2621014 C0.535496032,28.2281848 0.762478579,28.0716443 0.942499073,27.9177135 C1.19818048,27.7011669 1.44864391,27.4741854 1.69910733,27.2393766 C2.47136955,26.5192938 3.22536882,25.7365953 3.98719507,25.0608661 C3.98719507,25.0608661 4.57682771,24.7817037 4.44116003,25.6844144 Z M4.27940239,23.9781332 C3.40278042,24.3303483 2.3617918,24.3303483 1.67562638,25.0321669 C1.35211112,25.2095794 0.796395425,24.9017178 0.590284813,25.3113293 L0.618983774,25.6922416 L0.298077516,25.6609347 L0.371129291,26.2923103 C1.14860959,26.3940622 1.55822165,25.3974268 2.30439394,25.3113293 L2.4061447,25.4130793 L2.4061447,25.6322356 L1.99653263,25.6322356 C1.60257454,26.0418471 1.11991066,26.3653631 0.618983774,26.5688649 L0.381565457,26.8949887 L0.269378555,27.7690022 C0.702471715,27.8759696 1.01294191,27.5315837 1.33123918,27.2393766 L1.57126662,27.0384825 C2.34874684,26.1879506 3.3584275,25.5304856 3.95849613,24.6095107 C3.95849613,24.6095107 4.18547862,24.7477871 4.27940239,23.9781332 Z M22.5971492,23.8189849 C22.6702008,24.9565064 22.1484022,25.8331277 21.3787491,26.6862693 C20.5882239,26.8923789 19.8133526,27.4767951 18.9914987,26.9941309 C18.4775477,26.7175762 17.8644342,27.0254378 17.48613,26.4384138 L16.9878121,26.1905603 C17.0869539,25.9400971 17.4182961,25.9374874 17.6061437,25.7600769 C18.5427727,25.8774813 19.7298648,26.6262613 20.549089,25.7913838 C20.9013032,25.6296258 21.42832,25.5852742 21.4726728,25.0869555 C21.4883267,24.7660493 21.5457246,24.4294886 21.824887,24.2390334 C22.1118764,24.2259867 22.1510113,23.878991 22.2423261,23.62592 C22.2423261,23.62592 22.2162361,22.736252 22.5527964,22.8719206 C22.5527964,22.8719206 22.8632657,23.2006521 22.5527964,23.4119812 L22.5971492,23.8189849 Z M15.6624432,19.3028157 C15.3754539,19.5715431 15.0623745,19.8220063 14.9214889,19.9681098 C13.7526597,20.3777213 12.4351176,20.6281846 11.2349803,20.1142134 C11.0732227,19.8376607 11.5376238,19.7176466 11.2558524,19.4541367 L11.5741496,19.3054254 C11.7332982,19.7463458 12.2290072,19.5297992 12.5655673,19.5871955 C13.0482311,19.764608 13.4604522,19.4123928 13.8987632,19.4854456 C14.2066246,19.339342 14.3657732,19.339342 14.6762435,19.1932385 L14.851046,19.1593218 C14.851046,19.1593218 15.8659448,18.5044646 15.6624432,19.3028157 Z M40.6200793,17.7582924 C40.0800187,17.2625834 39.6234439,17.9539671 39.6234439,17.9539671 L39.2373121,18.4314118 C38.5067943,18.783627 38.1832803,19.7489535 37.4371061,20.0411606 C36.9857508,20.4951257 36.4274062,20.7899425 35.931717,21.301306 C34.9507361,21.5935131 33.7036374,21.6822183 32.7383089,22.1779273 C31.9921367,22.4727441 31.1859584,22.6031932 30.4554387,22.8823556 C29.563163,23.4824242 28.522174,23.6859261 27.6455527,24.2886045 C27.4968394,24.4190536 27.1446044,24.4921044 27.2489859,24.7843115 L27.8203554,24.930417 C27.9951581,25.0478214 28.3917249,25.0034678 28.3760704,25.3113293 C28.1856152,25.4887398 27.7760018,25.4730873 27.8203554,25.8383452 C28.1282169,26.073156 28.5665276,26.2192595 28.9317874,26.3940622 C29.4196692,26.7462754 29.9414676,27.0123931 30.4789204,27.2419844 C31.3972856,27.6307239 32.3625923,27.912496 33.265305,28.327327 C33.9827998,28.5464813 34.8046325,28.5908349 35.4307906,28.9717473 C36.2813225,29.206558 37.2049071,29.4831107 38.1102276,29.6735678 C38.6685523,29.8927222 38.1415364,30.3779961 38.2432864,30.7876076 C38.2276319,31.0641603 37.9954309,31.2833166 38.1102276,31.562479 C37.6719169,32.2355984 37.6432177,33.0261242 37.7162685,33.81665 L37.6588722,34.2706151 C37.48144,34.7115355 37.3353562,35.1498461 37.3040493,35.6481629 L37.1292466,35.7786139 C37.0561938,36.4517334 36.9857508,36.9787512 36.9127,37.638826 C37.3640554,37.8214559 37.8780265,37.7353584 38.2432864,37.5344663 C38.0084776,37.0361476 38.3893899,36.6134914 38.3606908,36.102128 C38.519839,35.7942664 38.4050444,35.5020593 38.4937496,35.1498461 C38.8877086,33.9210097 38.9007533,32.6165127 39.0181577,31.3146235 C38.9607396,31.1085139 38.7990014,30.9467559 39.0912085,30.7876076 L39.2373121,30.9337112 C39.1225174,31.3876763 39.3129746,31.8833852 39.1929604,32.3086512 C39.4877773,33.2009269 39.2242674,34.1975623 39.3703709,35.1498461 C39.9834843,35.4864049 39.1799157,36.1438718 39.7956368,36.4804325 L40.0226204,37.0491923 C40.2783011,37.1065906 40.5939899,36.9917959 40.9514225,36.6291458 C41.0401277,35.7629595 40.541809,35.1498461 40.5261566,34.3436659 C40.3356994,33.7879509 40.4400373,33.260933 40.1165431,32.7626163 C40.1034984,32.279952 39.9130432,31.7972878 39.8686896,31.3146235 C39.6182264,31.1085139 39.7356308,30.683248 39.7643082,30.4066953 C39.6782325,29.8927222 39.7069316,29.1622044 39.0625113,28.9273956 C37.964124,28.8099893 36.9257447,28.3716786 35.8560565,28.0925162 C35.214244,27.9620671 34.5828684,27.5968073 33.8967023,27.4924476 C33.6592838,27.3906976 33.416626,27.3124274 33.1714021,27.2419844 C32.5635062,27.0619642 31.9451754,26.9289053 31.3920681,26.6132165 L30.9485399,26.4749402 L30.846788,26.4175419 L29.0413646,25.7105058 C28.7935091,25.3269838 29.2344295,25.324374 29.2344295,25.324374 L30.5728431,25.8800891 L31.0268082,26.0705462 C31.251182,26.1488165 31.4781655,26.214042 31.7129743,26.2636111 C32.4982807,26.7332307 33.3722942,26.9810861 34.243698,27.2419844 C34.5176429,27.3202546 34.7863683,27.4037423 35.052486,27.4924476 L35.5064511,27.66986 C36.0465137,27.902061 36.6909339,27.8890144 37.1892526,28.2255751 C37.5388581,28.0481646 37.7319032,28.4603858 38.0371748,28.4734305 C38.5511479,28.7369385 39.268621,28.489083 39.6912772,28.9717473 C40.1165431,29.5874703 39.9991387,30.4353925 40.320045,31.1085139 C40.0434923,31.6511842 40.8470628,31.8703405 40.5705082,32.4104011 C40.703567,32.705218 40.8470628,33.1304839 41.199276,33.2165814 L41.7576008,33.0130795 C41.8019544,32.6452119 41.5645359,32.3973564 41.4784384,32.0894949 C41.5645359,31.5050807 41.0688051,31.0067639 41.0975261,30.4353925 C41.0401277,30.0544802 40.9801217,29.5561615 40.5992074,29.2796088 C40.4087522,28.8986965 39.9991387,28.4969102 40.2496019,28.0272927 L39.7225861,27.9542399 C39.2973201,27.6620328 38.7703023,27.6463784 38.2719855,27.5602829 C37.8623741,27.3150371 37.4136265,27.1324072 36.9544439,26.9993483 C36.4796068,26.8636798 35.9891154,26.7775843 35.5064511,26.7254035 L35.5064511,26.6523527 C35.052486,26.8428078 34.6141754,26.2557859 34.1289034,26.154034 C33.8366963,25.890526 33.2522801,26.1383795 32.9287661,25.8018208 C32.5922054,25.8331277 32.302606,25.7626847 32.0364686,25.5852742 C31.6868631,25.5409206 31.1129057,25.6270181 30.938103,25.2174046 C30.5858898,25.0634738 30.2075852,25.0608661 29.8449351,25.02173 L29.5735999,24.8938906 L29.3335717,24.7973581 C29.0857182,24.8077931 28.7648119,24.6669071 28.8274277,24.5625474 L29.5318561,24.3173017 L29.7770998,24.2312062 L29.7979718,24.2233789 C30.9798468,23.7720236 32.2008561,23.4354629 33.3253328,22.8823556 C34.1862997,22.9240995 34.9507361,22.5457949 35.8299671,22.5301424 C36.7639867,21.857021 37.48144,20.7586337 38.5354717,20.2890161 C38.9738041,19.9394107 39.2973201,18.9584297 39.9704396,19.2662893 C40.2339495,19.1932385 40.380053,19.3680412 40.643561,19.3106429 C40.8314084,19.0732244 41.1314427,18.8279786 41.0662172,18.5253365 C41.107961,18.2540014 40.6200793,17.7582924 40.6200793,17.7582924 Z M39.3338465,4.53851806 L39.4408139,4.79420075 C39.4173343,5.79605366 39.4642956,6.98314624 39.824336,7.91977559 C40.1452423,9.23731727 40.4244047,10.5105053 40.703567,11.8593559 C40.8209714,12.4594246 39.7799844,12.4881237 40.0747992,13.0881924 C40.1608967,13.6439074 39.824336,13.8187101 39.5164745,14.2152769 L39.9887037,14.6040184 C39.9887037,14.6040184 40.2600389,15.144079 40.8470628,14.9197052 C40.8470628,14.9197052 41.4288673,14.7527297 41.361034,14.2518033 C41.4079954,13.8161024 41.4210401,13.3230011 41.6975947,13.0438388 C41.5645359,12.6785809 41.8149991,12.2976666 41.522792,11.989805 C41.6114972,11.1992812 41.2462374,10.5261598 41.0244733,9.8243412 C41.0688051,9.3260225 40.805319,8.92945572 40.8470628,8.47549063 C40.5548557,7.24665418 40.2783011,6.1352241 40.1452423,4.83072714 L40.2939555,4.61157082 C40.6722601,4.50982088 40.7766198,5.03683676 41.1262252,5.10988952 C41.3036357,5.70995817 41.916749,5.95781166 42.180259,6.48743727 C43.1455855,7.31970694 43.9517657,8.25633629 44.7422896,9.22427256 C45.7832786,10.2052535 46.7929587,11.0818768 47.6278381,12.1672175 C47.9174157,12.4594246 48.3296567,12.1802622 48.650563,12.415071 C49.1332272,12.151563 50.1455171,12.3263657 50.0568119,11.4627891 L50.4820778,11.2879864 C50.8916893,11.5201875 51.3743535,11.272332 51.7709203,11.1549276 C52.824954,11.0975293 53.9076869,10.8757652 54.9304118,10.6592186 L55.180875,10.2339527 L54.7556091,9.9547903 C53.7172298,10.2052535 52.6475416,10.614865 51.5648087,10.5548589 L51.4630588,10.4818082 C51.5648087,10.1739466 52.0187738,10.3800562 52.2379301,10.1739466 C52.8823524,10.1165483 53.7746281,10.0121886 54.4477475,9.70693681 C54.9304118,9.23731727 55.6191857,10.0878491 55.9270472,9.25297171 C56.0888052,8.88771185 57.1428389,8.94511017 56.6288678,8.41809231 C56.3079615,8.37374068 55.9844455,8.28764321 55.7809437,8.65290307 C55.1365214,8.51984423 54.7999627,9.17991895 54.199894,9.15121979 L54.0981421,9.00511624 C54.857359,8.56419586 55.7522445,8.4050476 56.4827642,7.89107643 L56.3079615,7.64322096 C55.180875,7.90673088 54.1711949,8.47549063 53.1171611,8.90075656 C52.8092798,9.09121372 52.5301372,9.47212605 52.1205257,9.47212605 C51.5361115,9.85304036 50.8186365,9.94174559 50.3072751,10.4818082 C49.9837591,10.5548589 49.7202511,10.4087554 49.4567432,10.5835581 C49.1932333,10.4087554 48.8566746,10.1452475 48.6818719,9.85304036 C47.6278381,8.6972547 46.1902823,7.68496483 45.0945047,6.44047591 C44.0535157,5.72561063 42.9994819,4.96378597 42.180259,4.02715662 L41.5514912,3.50013877 C41.3688612,3.46883185 41.0505647,3.51840295 40.8966339,3.76625644 L40.8574978,3.81582753 L40.7714023,3.84713643 L40.5809452,3.8393092 L40.3774433,3.79756533 L40.1660944,3.67233372 L39.6756247,3.70103288 C39.6756247,3.70103288 39.2242674,3.5210107 39.3599359,4.01671967 L39.3338465,4.53851806 Z M29.229212,8.01109055 C29.7510104,7.88063947 30.4371765,7.30926999 30.8337433,7.91977559 L30.9798468,7.84672283 L31.1859584,8.19632824 L31.3607394,8.0945783 C31.3607394,7.74236315 31.6242691,7.61191404 31.8590779,7.36405857 C32.2843438,7.1736034 32.707,6.98053651 33.1479204,6.86574185 L32.798315,6.48482754 L32.6652364,6.65963025 C32.151285,6.6752847 32.0208359,7.3040525 31.5068647,7.21534727 L31.4625111,6.93879264 C31.9034315,6.65963025 32.1225858,6.16392128 32.2686894,5.70734843 C32.1095411,5.43079578 31.6973199,5.70734843 31.4625111,5.66560456 C31.2146556,5.29773694 30.7606905,5.25599307 30.3067057,5.28469223 C29.8684148,4.80202798 29.5031351,4.18630489 28.8013363,4.12629881 C28.5795723,3.89409779 28.3734626,3.65928703 28.4047696,3.3227283 C28.5665276,2.94181399 28.8874338,3.39577909 29.1509418,3.38012662 C30.4815084,3.83408974 31.5668708,5.03422702 33.0435607,5.18033057 C33.3253328,5.69430372 33.9827998,5.62125096 34.4941612,5.73865535 C34.8463764,6.13261437 35.3733725,5.9291125 35.9004101,5.98651082 C36.5291779,6.27871792 37.3484009,6.13261437 38.0084776,6.36742315 C38.1832803,6.54222586 38.1676259,7.02749985 38.5328838,6.89444101 C38.6659426,7.4345016 39.0755561,7.78671675 39.2660112,8.26938101 C39.7930291,8.66594778 39.5582183,9.41211998 39.6182264,9.9547903 C39.7643082,10.3043957 39.5582183,10.6566109 39.8660799,10.9331635 C39.894779,11.5201875 39.5295212,12.1489553 38.9894586,12.4124632 C38.7389954,13.0438388 37.9484696,12.80903 37.4371061,13.0125318 C37.0561938,13.3803995 36.6178832,13.4534522 36.2813225,13.8630637 C36.0021601,14.3613804 35.6655994,14.8857886 35.7543066,15.5015117 C35.7882232,15.8772065 35.7177802,16.2189847 35.629075,16.5477182 C35.5064511,17.004293 35.3499126,17.4373862 35.4020914,17.9017862 C35.224681,18.4157574 35.4020914,19.2062832 34.6976631,19.3680412 L34.3767568,19.015826 C34.0245437,18.854068 34.4341552,18.460111 34.0975945,18.2540014 L34.2463077,17.1999676 L34.4706598,16.5477182 C34.721123,15.6345705 34.7811508,14.6509798 35.4751442,13.920462 L35.0498783,13.688261 L33.6749383,14.739685 C33.2261907,15.2458309 33.1609651,15.9059057 33.0435607,16.5477182 C32.949638,17.0799535 32.8191869,17.6017519 32.4174027,18.0061459 C32.3260877,18.7079645 32.7513536,19.3810859 32.4434921,20.0098537 C32.1956386,20.0855142 31.887777,20.3177153 31.6399216,20.0698598 C31.1129057,19.0445252 31.5381716,17.7869896 31.960808,16.8477525 L32.1695492,16.5477182 C32.5426343,15.8589443 32.5061079,14.9249247 33.3670767,14.5935815 L33.2209732,14.2726752 L32.6652364,14.5935815 L31.960808,14.7996931 C31.6190496,15.3710625 31.180739,15.8980784 31.0502899,16.5477182 C30.2571563,17.560008 30.5702354,19.0888788 30.2049755,20.2890161 L29.8527623,20.6699284 L29.3570534,20.5681785 C29.1352873,19.7906974 29.4875025,19.0888788 29.4561936,18.3113977 C29.5605532,17.7713371 29.633606,17.1999676 30.027565,16.7747017 L30.0353903,16.5477182 C30.1267052,15.9476495 30.8128714,15.5980441 31.1129057,15.0475466 L31.008546,14.8440447 L30.6302414,15.224959 C30.1501869,15.5536925 29.7744921,16.0520092 29.4431489,16.5477182 L29.0048382,17.2286648 C28.4621679,17.8287335 28.3734626,18.621869 28.1699608,19.3680412 C27.8177456,19.8794046 28.2742987,20.654274 27.7760018,21.0221436 C27.5255385,21.1238935 27.2907298,21.1238935 27.0428743,21.0221436 C26.8080655,20.7273267 27.0272218,20.3464144 27.0715734,20.0411606 C27.217677,19.4984903 27.1733254,18.7810173 27.2489859,18.2540014 C27.5829369,17.6826299 28.0108125,17.085171 28.490867,16.5477182 C28.7256758,16.2894277 28.9709216,16.044182 29.2239945,15.8250276 L29.2239945,15.4441133 L28.652625,15.7937188 C28.4647776,16.0467917 28.2612757,16.2972549 28.0551641,16.5477182 C26.9463418,17.8991765 25.7175054,19.2767262 25.9888405,21.2412979 C25.7983854,21.4891534 25.4905021,21.4734989 25.2139712,21.5178525 C24.8748007,21.4447998 24.8487113,21.0638874 24.8304471,20.7716803 C25.1096095,19.9524554 24.9217621,18.9140761 25.6679343,18.3113977 C25.6079282,17.5965344 26.398454,17.3747703 26.6463075,16.8060086 L26.9802585,16.5477182 L27.1733254,16.5268462 C27.1446044,16.20594 27.379435,15.9998304 27.4237886,15.7232757 L27.1733254,15.5458653 C26.7271875,15.8328549 26.328011,16.1720233 25.9705783,16.5477182 C25.0261218,17.5521808 24.4051812,18.8253709 24.0868847,20.1142134 C23.8964275,20.5968776 23.9251267,21.1812918 23.5285599,21.5909033 C23.2676617,21.6509114 22.9441457,21.6509114 22.7536885,21.4447998 C22.5919313,20.3464144 23.1346028,19.4697911 23.4555091,18.5331618 C23.6328998,18.2826986 23.3824346,17.8600424 23.6616187,17.6539327 C24.0268786,17.2886729 24.2773418,16.923413 24.5825936,16.5555454 C24.9061096,16.2581208 25.5531396,16.3337813 25.6418449,15.8250276 C25.6209729,15.3345362 24.8043577,15.5928266 24.8043577,15.5928266 L24.2199435,15.6841416 L23.8598813,15.6841416 C23.6564012,15.8850337 22.9806503,16.0128751 22.6493289,16.0624462 C22.5501873,16.1485417 22.4719176,16.2555111 22.2318901,16.5477182 C21.9996897,16.9599394 21.8014061,17.47913 21.9788176,17.9617923 C21.890112,18.5618609 21.861413,19.1619296 21.8770668,19.7906974 C21.9866446,20.2681442 22.0623055,20.7873328 22.0570874,21.3065235 L22.0779386,21.857021 L22.4849625,22.0605229 C22.4849625,22.0605229 22.263198,22.2327158 22.1379662,22.584931 C21.8927209,22.9397539 21.8561949,23.3989365 21.6996554,23.8033305 C21.4518009,24.0224868 21.3056972,24.3433931 21.1726385,24.6382079 C21.1882926,25.3687276 20.2803626,25.3843801 19.7976987,25.6922416 C18.9914987,25.5148312 18.2740462,25.4574329 17.483521,25.2382766 C17.0739089,24.8417098 16.5025393,24.8704089 16.0042214,24.6825615 C15.0232396,24.5651571 14.3370743,23.7589769 13.5178501,23.231961 C12.7534149,22.8223495 11.9654986,22.4414352 11.2610703,21.8700657 C10.9949528,21.7030902 10.6635898,21.6665638 10.3974933,21.5100253 L10.2566077,21.5674236 C9.78959767,20.5994854 8.85296891,20.8395136 8.85296891,20.8395136 L8.62598637,20.9490908 C8.05459591,21.4891534 7.29539938,21.5909033 6.62227896,21.8987649 C6.46052136,21.9587709 6.15266001,22.0761773 6.03525543,21.8257141 C6.12135211,21.2125988 6.57792615,20.7429812 6.79708167,20.1872642 C8.33377907,19.5428439 9.90178437,20.3046705 11.1880185,20.9490908 C11.7593882,21.371749 12.3020589,21.857021 12.9882243,22.0031246 C13.8961543,22.6475468 14.7597313,23.3624101 15.7563671,23.8763832 C16.3407817,23.8607288 16.8390996,24.1242367 17.3087183,24.3303483 C17.7470294,24.4764519 18.347098,24.4320983 18.788018,24.6825615 C19.0202184,24.6512546 19.4011315,24.7973581 19.5602802,24.5051491 C19.9281484,23.7746313 20.9091302,23.4954689 20.8960851,22.5718863 C21.6709564,21.5178525 20.7630264,20.390766 20.8491023,19.2349824 C21.0839327,18.9714744 21.1126317,18.5331618 20.9952269,18.2122555 C21.2065554,17.6434958 21.2665622,17.0929982 21.4518009,16.5477182 C21.5065897,16.3755252 21.9996897,15.952867 21.8770668,15.710231 C21.3709221,15.4441133 21.1126317,16.5268462 20.6743206,16.3807427 C20.2647085,16.1902855 20.9091302,15.8980784 20.5438709,15.6476152 C20.5438709,15.6476152 19.8707297,16.276383 19.5785432,16.5477182 L19.4454846,16.6729498 L19.1663222,16.7329578 C18.6549594,17.2730184 17.880088,17.2730184 17.483521,18.0061459 C17.2017497,18.0348451 16.9356114,18.1183328 16.6825599,18.2305197 C16.3538266,18.5201171 15.5241664,18.5462085 15.5241664,18.5462085 C15.0519385,18.5462085 14.7388593,18.8149339 14.7388593,18.8149339 C14.4727418,18.9166858 14.2066246,19.015826 13.8961543,19.015826 C13.2830407,19.3967404 12.6073112,19.1906287 11.9367997,19.1906287 C11.5532776,19.1332304 11.803741,18.6349137 11.438482,18.5331618 C11.1828005,17.883524 10.9375551,17.2338843 10.7810154,16.5477182 C10.7131815,16.2476838 10.6583927,15.9372145 10.6323027,15.618916 C9.94352844,14.7266403 10.4288012,13.4534522 9.65132095,12.6316175 C9.29910679,12.5011684 9.16865709,12.0915569 9.07995126,11.7549962 C8.61033251,11.4627891 8.73034624,10.9044644 8.32073416,10.6279117 C8.07027073,9.92348339 7.55890791,9.44081914 7.26409148,8.76769773 L7.04493596,8.69464694 C6.47356627,9.00250849 6.73707481,9.77737984 6.62227896,10.3487493 C6.34311658,10.6409564 6.57792615,11.0662224 6.5622721,11.4314802 C6.47356627,12.6029204 6.18135898,13.688261 5.99090241,14.7996931 C5.74043899,15.316274 5.95176749,16.033747 5.68304107,16.5477182 L5.43518678,16.8477525 L4.83511814,16.6729498 L4.85077199,16.5477182 C4.99165765,15.467595 5.12732543,14.4213885 5.11428052,13.364745 C5.45084063,12.9681782 5.317782,12.383764 5.50823856,11.9297989 C5.58129033,11.4758338 5.8160999,10.9201188 5.56824542,10.5261598 C5.14297948,10.78706 5.06992751,11.3897364 4.98122169,11.8854453 C4.71769252,12.647272 4.67336048,13.5839013 4.13329872,14.2726752 C4.01589399,14.5518376 3.9271882,14.9457966 3.574974,14.9744958 C3.00621332,14.7553395 3.65063484,14.1552708 3.63498087,13.7169602 C4.22200452,13.2629951 3.95849613,12.4281176 4.02893896,11.8123946 C4.16199766,11.0505679 4.84816305,10.5992126 5.04122855,9.85304036 C4.76206628,9.55822353 4.43855102,9.9547903 4.10199079,9.92348339 C3.51757614,11.0818768 2.28873997,10.4948529 1.46951586,11.110574 C1.11730166,11.6088927 0.506797071,11.6010655 0.193717838,11.7106426 C-0.0645726127,11.4575716 -0.0645726127,11.2566775 0.193717838,10.8314116 C0.488534077,10.8914197 0.926845102,10.8627205 1.17469953,10.5835581 C1.90782685,10.4661537 2.44788861,9.88173952 3.07665615,9.52952437 C3.574974,9.11991288 4.22200452,9.07555927 4.73336734,8.69464694 C4.86642604,8.66594778 5.17167825,8.78335217 5.21603126,8.51984423 C4.63161659,7.8023712 5.78740094,8.19632824 5.91785064,7.71366399 C6.13700616,7.04054456 6.89883241,7.21534727 7.36584221,6.93879264 L8.07027073,6.96749179 C8.73034624,7.20230255 8.86079594,7.90412114 8.97820053,8.47549063 C8.91819366,8.63724862 8.86079594,8.94511017 8.59728741,8.86944965 C8.42248489,8.53288895 8.24768219,8.18328353 8.07027073,7.84672283 L7.61630564,8.02152553 C7.49890105,8.43113702 7.98417385,8.31373263 8.10157864,8.62159418 C8.11462355,9.20600838 8.70164728,9.32341474 9.07995126,9.60257713 L9.57826917,10.5548589 C9.95918229,11.4184355 10.4418462,12.2820141 10.7340534,13.1586354 C11.3784751,14.4474779 11.9211458,15.8380724 12.1403013,17.2599737 C12.0359415,17.8287335 12.6073112,18.1966031 12.9464596,18.5331618 C13.6769987,18.6792673 14.4231711,18.3427066 14.8484371,17.9617923 C15.5059036,17.7869896 16.2233769,17.640886 16.8104006,17.4060773 C17.439168,16.8790614 18.1122886,16.6155515 18.6836583,15.9998304 C18.6993122,15.639788 18.824544,15.3788898 18.7671461,14.8962255 C18.6236515,14.0717831 18.1279425,14.7266403 17.908787,14.2726752 C17.5722269,13.8761084 18.3914508,13.8187101 18.1122886,13.3934442 C17.5722269,12.545522 16.4581655,12.7490239 15.6963602,12.2820141 C15.1119454,11.7836954 14.934534,11.1236207 14.5275308,10.5548589 C14.2353235,10.2600421 13.7944035,10.3043957 13.4134904,10.231343 C12.8707987,10.0278431 12.6229652,9.33906721 12.0072425,9.35211193 C11.3210772,8.54854339 10.3818393,8.37374068 9.68001991,7.5962596 C9.5052174,7.5101641 9.07995126,7.53886128 9.19735605,7.18664811 C8.65729427,6.7196383 7.9372119,6.29437236 7.39715031,5.78039922 C7.13364178,5.67864927 6.91187732,5.79605366 6.69533074,5.60559849 C6.62227896,5.02118231 5.88915168,5.1385867 5.46388574,4.93247708 C4.99687574,4.18630489 3.9271882,4.50721114 3.67933376,3.63058985 C2.6696531,3.64363456 1.90782685,3.01486676 0.999896936,2.75135882 C0.663336786,2.63395245 0.321558592,2.45393225 0.0789219943,2.16433488 C0.0789219943,2.16433488 0.0215242702,1.87995501 0.308513484,1.56426624 C0.965980011,1.96083302 1.57126662,2.15129017 2.22873311,2.50350334 C2.68269806,2.51654806 3.03491226,2.73570437 3.42887036,2.85310876 C4.57160972,2.9861676 5.317782,4.0689005 6.34311658,4.47851199 C6.95883927,4.28805483 7.1910397,4.96117624 7.6763125,5.18033057 C8.05459591,5.28469223 8.33377907,5.78039922 8.73034624,5.91345806 C9.18429017,6.33872399 9.79742469,6.49787423 10.2826975,6.89444101 C10.7210085,7.36405857 11.0993127,8.22763713 11.8637479,8.12327746 C12.4481625,8.31373263 12.6229652,8.92945572 13.0925842,9.25036198 C13.6613449,9.07555927 14.0579119,9.52952437 14.4988319,9.77737984 C14.5614477,10.0461053 14.8171292,10.2130808 15.0493296,10.3904932 C15.336319,10.6096475 15.5920003,10.8392388 15.4041319,11.2853767 C15.6963602,11.5932382 15.5659105,10.8914197 15.9311696,10.9331635 L16.0042214,11.1549276 L16.575591,11.1549276 C17.026947,11.4627891 17.2930645,11.989805 17.6322337,12.4124632 C17.8331262,12.6759711 18.0835897,12.1933069 18.2583922,12.5611765 C18.8297619,12.6029204 19.0489174,13.2473406 19.6202663,13.2916942 C20.1499129,13.1586354 20.7030196,13.3517003 21.1726385,13.5395477 C21.5665966,13.5682469 21.5535516,14.0091673 21.7283542,14.243976 C22.2266721,13.9361145 22.8450035,13.9517689 23.4580971,13.9648137 L23.729452,14.1761427 C24.2199435,14.4239962 24.9400263,14.4239962 24.9400263,14.4239962 C25.2113614,14.4683498 26.1114644,14.4239962 26.1114644,14.4239962 C26.4715048,14.3326833 27.2385489,14.3770349 27.2385489,14.3770349 C28.0525564,14.2805024 28.3004099,14.5127035 28.3760704,14.64837 L28.6239259,14.8727438 C28.8013363,14.6979411 28.8013363,14.3013744 29.1509418,14.345728 L29.2239945,14.4474779 L29.4301041,14.345728 C29.957122,14.3300735 30.1606219,13.7743585 30.6563111,13.688261 C30.8780969,13.6126005 31.0398529,13.2473406 31.2877084,13.364745 C31.7729804,12.9394791 32.3704413,13.3073487 32.9418108,13.1899423 C33.8940728,12.9107799 34.9637808,12.9551335 35.7229977,12.2089613 C35.9865056,12.1046017 36.3543752,12.2663596 36.5291779,11.9584981 C36.9100903,11.8567462 37.3614456,11.7549962 37.7162685,11.504533 C38.2563311,11.2279804 38.125882,10.5679037 38.2432864,10.0565422 L38.2850303,10.0565422 L38.2850303,9.64692876 C37.964124,9.22166282 38.2119775,8.53288895 37.7893213,8.19632824 C37.0692385,8.24068185 37.1005474,7.1736034 36.3543752,7.28839805 C35.8560565,7.3484061 35.3420854,7.1422945 34.8463764,7.21534727 C33.9541006,7.84672283 32.5635062,8.16762908 32.3104332,9.42777442 C32.0782342,9.58953044 31.7416735,9.77737984 31.919084,10.129593 L31.4625111,10.3487493 C31.0972512,10.1739466 31.2590092,9.69128236 31.2146556,9.39646553 C31.3764136,9.1773112 31.3607394,8.85640494 31.3607394,8.62159418 L31.1546496,8.65029334 C30.8780969,8.94511017 30.5702354,8.73899857 30.3797782,8.47549063 C29.8684148,8.79900662 29.5162016,9.26601643 28.976139,9.39646553 C28.5665276,9.26601643 28.1256072,9.11991288 27.8177456,8.82770578 C27.541193,8.94511017 27.2333314,8.62159418 26.9985227,8.82770578 C26.6776164,8.49114507 26.4428056,8.05022469 26.1923424,7.6406132 L26.2393057,7.5962596 L26.0175397,7.31970694 L26.1662312,7.33014192 C25.7018529,6.79268909 25.4774791,6.13261437 25.4905021,5.45949296 C25.0965648,4.88812347 25.125264,4.15760573 24.7887033,3.55753708 C23.9668705,2.70700521 23.7346715,1.55122153 23.3094056,0.510232501 C23.4424624,0.262377029 23.6328998,-0.074181697 23.982525,0.0145235348 C24.5538945,0.439789471 25.287022,0.452834183 25.8870906,0.818094046 C25.9444889,0.951152883 26.1636432,1.21466082 25.8870906,1.31641077 C25.5061783,1.15465277 24.963506,1.50686792 24.6843436,0.99550451 L24.306041,1.17030722 L24.6843436,1.66862592 C24.8487113,2.26869456 25.3444203,2.76701128 25.4905021,3.35142746 C25.8714361,3.54188264 25.6079282,4.05324605 25.9888405,4.25935567 C25.8583914,4.59591638 26.2079969,4.83072714 26.0905707,5.20902973 C26.4428056,5.43079578 26.3854093,5.8847589 26.6463075,6.16392128 C26.9411243,7.0118454 27.4081341,7.90412114 28.2742987,8.37374068 L28.7256758,8.19372049 L28.6917592,8.17023882 C28.6917592,8.17023882 28.9683118,8.04239747 29.229212,8.01109055 Z M28.0316845,6.87095934 L27.9221053,6.79268909 L27.9534142,6.51613643 C28.3030196,5.94476695 28.5978345,6.70659359 29.0517996,6.61788638 C29.0517996,6.10652494 28.7282856,5.53515546 28.2012677,5.31599914 C28.1412616,4.96378597 27.6168535,4.89073321 27.5281483,4.50982088 C27.1915876,4.52547335 27.1185368,3.98280302 26.7663216,4.05585578 L26.2393057,4.48112172 C26.6932689,5.34991579 26.9098154,6.36220566 27.5046666,7.1422945 C27.5046666,7.1422945 28.329109,7.56234295 28.0316845,6.87095934 Z M48.2983498,11.33234 L47.9774435,11.0531776 C47.3043221,10.5418142 46.7329526,9.76433315 46.0885304,9.17991895 C45.7676241,8.92945572 45.5458601,8.50679952 45.1675555,8.30068792 C44.1135217,7.43711134 43.2055935,6.25262849 42.180259,5.43079578 C41.9637124,5.09423508 41.593235,4.64026998 41.269719,4.40806896 L41.4027779,4.08455494 L41.7236841,4.33240844 C42.5116002,5.4803649 43.62564,5.92128528 44.6822835,7.36405857 L44.8883931,7.59886933 C46.0754857,8.77030746 47.3930274,9.88173952 48.5775122,11.0531776 L48.2983498,11.33234 Z M104.537802,9 L104.537802,14.1938373 L107.675936,9 L104.537802,9 Z M125.752796,17.5381487 L129.457916,17.5290524 C130.194697,17.5290524 131.762246,17.5654354 132.126087,17.4775074 C132.456578,17.3956428 132.629402,17.153082 132.71733,17.177338 L132.765842,17.3319709 C132.765842,17.8989571 132.765842,17.7170353 132.762811,18.4507836 C132.762811,19.2572979 132.808291,18.9419688 132.808291,19.5392769 L132.759778,19.687844 C132.67185,19.7151329 132.753715,19.5908196 132.28072,19.4301233 C131.838047,19.281554 130.20076,19.3209721 129.460949,19.3209721 L125.752796,19.3209721 L125.758862,25.1424371 L131.022437,25.1424371 C131.762246,25.1424371 132.614242,25.0332835 132.965956,24.8968433 C133.284318,24.7785935 133.560231,24.4784265 133.64816,24.5026825 L133.696672,24.6573131 C133.654223,25.2485577 133.584488,25.788255 133.493527,26.5007778 L133.448045,27.0344117 L130.60705,27.0344117 L124.630953,27.0344117 C123.821405,27.0344117 123.76986,27.1041494 123.172555,27.1041494 L123.020952,27.0556372 C122.996696,26.9677069 123.069464,27.0283482 123.281706,26.5765789 C123.509107,26.0884244 123.521236,25.1697237 123.521236,24.429912 C123.521236,23.0473152 123.518203,20.6944726 123.509107,18.4295604 C123.518203,16.1676788 123.521236,14.4060786 123.521236,13.0265124 C123.521236,12.2897335 123.509107,11.3680023 123.281706,10.8798477 C123.069464,10.4280761 122.996696,10.4887175 123.020952,10.4007895 L123.172555,10.3522773 C123.76986,10.3522773 123.821405,10.4189821 124.630953,10.4189821 L130.06432,10.4189821 C131.58639,10.4189821 132.326202,10.4341419 133.22974,10.4220127 L133.220644,10.9556465 C133.22671,11.6712022 133.22671,12.0229166 133.22671,12.6050626 L133.181228,12.7596954 C133.0933,12.7839515 132.920475,12.5626139 132.605146,12.4443663 C132.250401,12.3109567 131.407501,12.2018055 130.670722,12.2018055 L125.758862,12.2018055 L125.752796,17.5381487 Z M67.3956433,10.3522773 C67.3956433,10.3522773 71.5464692,19.9758864 73.3990047,24.1721914 C73.9053751,25.3031333 74.5026818,26.39769 74.6512262,26.5765789 C75.0393481,27.0344117 75.0999883,27.0222848 75.0999883,27.0222848 C75.0999883,27.0222848 73.650686,26.9798361 72.923003,26.9798361 C72.1892559,26.9798361 71.7708381,27.0768604 71.7829661,27.0222848 C71.9466948,26.6038656 71.9194067,26.1824158 71.6889737,25.6305893 C71.6434935,25.5184052 71.3221003,24.7634337 71.1795955,24.4117216 C69.9152462,21.48886 67.1076022,14.9548723 67.1076022,14.9548723 C66.9226494,14.4940066 67.077282,14.4940066 66.855945,14.9548723 C66.855945,14.9548723 64.0483008,21.48886 62.7839515,24.4117216 C62.638415,24.7634337 62.32003,25.5184052 62.2745737,25.6305893 C62.0441398,26.1824158 62.0168531,26.6038656 62.1775494,27.0222848 C62.1927092,27.0768604 61.9076996,26.9798361 61.1769842,26.9798361 C60.4462688,26.9798361 59,27.0222848 59,27.0222848 C59,27.0222848 59.0576085,27.0344117 59.4457058,26.5765789 C59.5942729,26.39769 60.191581,25.3031333 60.6979259,24.1721914 C62.550487,19.9758864 66.7013124,10.3522773 66.7013124,10.3522773 C66.9135533,9.85502641 67.1470183,9.82167401 67.3956433,10.3522773 Z M114.134124,12.3109567 C114.134124,13.690523 114.131091,21.4069954 114.128059,24.3571437 C114.128059,25.0939249 114.121995,26.0065598 113.894594,26.4947144 C113.682353,26.9464837 113.609585,26.8858446 113.633841,26.9737726 L113.785443,27.0222848 C114.379716,27.0222848 114.500996,26.9525471 115.310543,26.9525471 C116.041259,26.9586128 116.177699,27.007125 116.744687,27.007125 L116.899318,26.9616434 C116.923574,26.8706825 116.705269,26.7039228 116.583989,26.3855608 C116.450582,26.0338487 116.383877,25.0757323 116.383877,24.3359205 C116.377813,21.2978442 116.383877,13.1993378 116.383877,12.3109567 L118.800391,12.3109567 C119.53717,12.3109567 120.843968,12.3988847 121.195683,12.5353272 C121.514042,12.6535748 121.683835,12.8718795 121.768732,12.8476235 L121.820277,12.6960235 C121.820277,12.1260044 121.826341,11.1466647 121.820277,10.4159492 L108.245954,10.4159492 C108.23989,11.1466647 108.067065,12.2199958 108.067065,12.7869844 L108.115578,12.9385844 C108.200474,12.9628404 108.370267,12.7445357 108.688628,12.6232552 C109.040342,12.4928785 110.48358,12.3594689 111.220359,12.3594689 L114.134124,12.3109567 Z M140.77642,19.5059245 C140.77642,19.5059245 144.945438,25.4153174 145.272897,25.9095355 C145.688283,26.5310973 146.516023,27.3315504 147.877396,27.3467102 C148.608112,27.3497408 149.199329,27.2618128 149.199329,27.2618128 C149.199329,27.2618128 149.096264,27.2496859 148.653591,26.8433959 C147.807659,26.0611354 143.614384,20.0698779 143.614384,20.0698779 C145.39721,19.2997466 147.425625,18.0899729 147.334666,15.3096172 C147.20429,11.3012975 144.46638,10.2825396 140.273108,10.4007895 C139.763728,10.4129164 138.623692,10.4250456 138.00213,10.4220127 C137.192583,10.4220127 136.922733,10.3553079 136.328458,10.3553079 L136.176858,10.40382 L136.367874,10.6645735 C136.719588,11.1375683 136.719588,13.3842902 136.719588,14.1210691 C136.719588,15.7250035 136.734748,23.2231712 136.734748,24.3813998 C136.734748,25.1212115 136.719588,26.0368793 136.489154,26.522001 C136.279946,26.9737726 136.204145,26.9131312 136.228401,27.0010593 L136.383034,27.0495714 C136.977309,27.0495714 137.192583,26.9828689 138.00213,26.9828689 C138.732846,26.9889324 138.814708,27.0344117 139.384727,27.0344117 L139.533296,26.9889324 C139.560583,26.9010044 139.339248,26.7312118 139.220998,26.4158827 C139.084558,26.0611354 139.020886,25.1060518 139.020886,24.3692729 C139.020886,24.3692729 139.036045,13.4328024 139.036045,12.3382457 C139.036045,11.5772107 139.415047,11.5135388 140.3671,11.5014096 C143.578001,11.4650266 145.000016,13.1447599 145.018207,15.4763792 C145.039432,18.0808789 143.626514,19.3088429 140.77642,19.5059245 Z M79.8996648,19.5059245 C79.8996648,19.5059245 84.0686827,25.4153174 84.3961401,25.9095355 C84.8084937,26.5310973 85.6392654,27.3315504 86.9976072,27.3467102 C87.7283223,27.3497408 88.3195649,27.2618128 88.3195649,27.2618128 C88.3195649,27.2618128 88.2195084,27.2496859 87.7768345,26.8433959 C86.9339349,26.0611354 82.7376291,20.0698779 82.7376291,20.0698779 C84.5204527,19.2997466 86.5458373,18.0899729 86.4548769,15.3096172 C86.3275324,11.3012975 83.5896247,10.2825396 79.3933188,10.4007895 C78.8869725,10.4129164 77.7469356,10.4250456 77.125373,10.4220127 C76.3158254,10.4220127 76.0459763,10.3553079 75.4486698,10.3553079 L75.2970692,10.40382 L75.4880859,10.6645735 C75.8397994,11.1375683 75.8428316,13.3842902 75.8428316,14.1210691 C75.8428316,15.7250035 75.8579916,23.2231712 75.8549596,24.3813998 C75.8549596,25.1212115 75.8397994,26.0368793 75.6123985,26.522001 C75.4001577,26.9737726 75.3273892,26.9131312 75.3516455,27.0010593 L75.5032461,27.0495714 C76.1005526,27.0495714 76.3158254,26.9828689 77.125373,26.9828689 C77.853056,26.9889324 77.9349204,27.0344117 78.5049388,27.0344117 L78.6565395,26.9889324 C78.6807956,26.9010044 78.4624908,26.7312118 78.3412101,26.4158827 C78.2078017,26.0611354 78.1441293,25.1060518 78.1441293,24.3692729 C78.1441293,24.3692729 78.1562573,13.4328024 78.1562573,12.3382457 C78.1562573,11.5772107 78.538291,11.5135388 79.4903188,11.5014096 C82.7012449,11.4650266 84.123259,13.1447599 84.1414509,15.4763792 C84.1596431,18.0808789 82.7497571,19.3088429 79.8996648,19.5059245 Z M103.415957,23.5415332 C101.969687,25.3425492 99.5046606,25.9125683 97.3337395,25.9095355 C93.3557383,25.9065026 90.5692942,22.3469193 90.5238383,18.7539858 C90.4692621,14.2484129 93.3678664,11.5135388 97.6308766,11.5135388 C99.2044913,11.5135388 101.896919,12.523198 102.888387,14.1544215 C102.991476,14.3363409 103.127916,14.6243834 103.176428,14.9579051 L103.334093,14.970032 L103.315901,14.6971516 C103.273453,14.0392045 103.04302,13.2084342 102.945995,12.462559 C102.839875,11.649979 102.955091,10.8950075 102.955091,10.8950075 L102.403265,10.8768148 C101.860535,10.8131429 99.8836624,10.1824847 97.736997,10.1551957 C92.0913891,10.0824275 88.3862691,13.24785 88.2619566,18.7539858 C88.1467401,23.872022 91.9125001,27.3770297 97.6035886,27.3770297 C99.1499152,27.3770297 101.290516,27.1041494 102.758011,26.7645642 C102.758011,26.7645642 103.07334,25.9307587 103.318933,25.2879736 C103.64639,24.4238485 103.807063,23.7901575 103.807063,23.7901575 L103.415957,23.5415332 Z" id="Combined-Shape"></path>
            </g>
        </g>
    </g>
</svg>