<?xml version="1.0" encoding="UTF-8"?>
<svg width="142px" height="39px" viewBox="0 0 142 39" version="1.1" xmlns="http://www.w3.org/2000/svg" xmlns:xlink="http://www.w3.org/1999/xlink">
    <!-- Generator: Sketch 41.2 (35397) - http://www.bohemiancoding.com/sketch -->
    <title>jadopado</title>
    <desc>Created with Sketch.</desc>
    <defs></defs>
    <g id="Page-1" stroke="none" stroke-width="1" fill="none" fill-rule="evenodd">
        <g id="White" transform="translate(-24.000000, -35.000000)">
            <g id="jadopado" transform="translate(24.000000, 35.000000)">
                <path d="M26.4230996,32.6101695 C26.4230996,36.2090404 23.1493659,39 19.3609064,39 C17.6309457,39 16.0117117,38.41601 14.7696056,37.4223101 C13.5275048,38.4160043 11.9082751,39 10.1783051,39 C6.38984569,39 3.20837878,36.2090404 3.20837878,32.6101695 C2.45673913,32.4130353 1.44922487,31.7024256 0.826319504,30.9364295 C0.221935448,30.1932093 -0.0364376245,29.2793445 0.00794886784,28.3214842 C0.0425812,27.5741186 0.259482651,26.8133525 0.623046213,26.0563618 C1.2276044,24.7975861 2.24771822,23.5378883 3.52563899,22.4563825 C1.76219106,20.0721523 0.774436258,17.1646291 0.774436258,14.1016949 C0.774436258,6.31354387 7.1145857,0 14.9355564,0 C22.7565271,0 29.0966765,6.31354387 29.0966765,14.1016949 C29.0966765,17.2353955 28.0625753,20.2052471 26.2244346,22.6177205 C27.4742318,23.6876881 28.4718651,24.9275564 29.0669135,26.1665312 C29.430477,26.923522 29.6473785,27.6842881 29.6820108,28.4316537 C29.7263973,29.389514 29.4680242,30.3033788 28.8636402,31.046599 C28.2084712,31.8522702 27.0556783,32.4682079 26.4230996,32.6101695 Z M25.1543823,8.15254237 C23.0998122,4.65946035 19.2912471,2.31355932 14.9324585,2.31355932 C10.5736699,2.31355932 6.76510485,4.65946035 4.71053472,8.15254237 L25.1543823,8.15254237 L25.1543823,8.15254237 Z M26.7697636,13.9915254 C26.7501944,11.8629817 26.1641054,9.86922542 25.1543823,8.15254237 L4.71053472,8.15254237 C3.7008116,9.86922542 3.11472267,11.8629817 3.0951534,13.9915254 L26.7697636,13.9915254 L26.7697636,13.9915254 Z M25.4588343,19.5 C26.2969927,17.8826017 26.7702699,16.0471863 26.7702699,14.1016949 C26.7702699,14.0649322 26.7701009,14.0282088 26.7697636,13.9915254 L3.0951534,13.9915254 C3.09481614,14.0282088 3.09464715,14.0649322 3.09464715,14.1016949 C3.09464715,16.0471863 3.56792434,17.8826017 4.40608266,19.5 L9.81093737,19.5 C8.19184406,18.1941084 7.09003733,16.2772431 6.85929257,14.1016949 C9.10420611,15.8206012 11.9152334,16.8425759 14.9659615,16.8425759 C17.9423607,16.8425759 20.6905971,15.869794 22.9075396,14.226089 C22.6486851,16.3502566 21.5582334,18.2190551 19.9700699,19.5 L25.4588343,19.5 L25.4588343,19.5 Z M25.3906834,25.0084746 C25.1018009,24.7158201 24.7852106,24.4289103 24.4436778,24.1535031 C23.8696294,23.6905985 23.2783117,23.3030858 22.6993109,22.9980708 C23.8270224,22.0209542 24.7671684,20.8347108 25.4588343,19.5 L19.9700699,19.5 C18.5825574,20.6191084 16.815152,21.2895204 14.8905036,21.2895204 C12.9658553,21.2895204 11.1984498,20.6191084 9.81093737,19.5 L4.40608266,19.5 C5.06768316,20.7766938 5.95663155,21.9175468 7.01961612,22.869471 C6.42941089,23.1772509 5.8257606,23.571054 5.24008612,24.0433336 C4.85579745,24.3532186 4.50308715,24.6776663 4.18589459,25.0084746 L25.3906834,25.0084746 Z M25.3906834,25.0084746 C27.085991,26.725918 27.8270603,28.6412052 27.0549923,29.5906289 C26.229757,30.6054331 23.9611984,30.1658214 21.7870722,28.6411204 C21.7363637,28.7794669 21.681617,28.9158785 21.6229743,29.0502139 C22.5368745,29.4986875 23.2603473,30.2101406 23.6602772,31.0677966 L5.87273856,31.0677966 C6.28595051,30.181657 7.04455251,29.4515928 8.00172101,29.0064057 C7.9410656,28.8649516 7.88471838,28.7212276 7.83284355,28.5753972 C5.67830735,30.064116 3.44593184,30.4853336 2.62877165,29.4804594 C1.87317353,28.551289 2.5668442,26.6970237 4.18589459,25.0084746 L25.3906834,25.0084746 Z M5.87273856,31.0677966 C5.65088091,31.5435738 5.52858967,32.0643433 5.52858967,32.6101695 C5.52858967,34.8614319 7.60895121,36.6864407 10.1752072,36.6864407 C12.3968161,36.6864407 14.2542777,35.3187112 14.7131205,33.4907478 C14.748717,33.4912574 14.7843743,33.4915171 14.8200905,33.4915252 C15.2792648,35.3190989 17.1365146,36.6864407 19.3578086,36.6864407 C21.9240646,36.6864407 24.0044261,34.8614319 24.0044261,32.6101695 C24.0044261,32.0643433 23.8821349,31.5435738 23.6602772,31.0677966 L5.87273856,31.0677966 L5.87273856,31.0677966 Z" id="Combined-Shape" fill="#FFFFFF"></path>
                <path d="M12.7451378,19.2516004 C12.9284418,19.2516004 13.0699624,19.3072231 13.1402969,19.0959214 C13.2106314,18.8846198 12.8132575,18.6448075 12.8132575,18.6448075 C12.8132575,18.6448075 11.3952764,18.1457506 11.3952764,18.3282854 C11.3952764,18.5108202 12.5618338,19.2516004 12.7451378,19.2516004 Z" id="Oval" fill="#000000"></path>
                <path d="M17.7236566,19.2516004 C17.9069606,19.2516004 18.0484812,19.3072231 18.1188157,19.0959214 C18.1891502,18.8846198 17.7917763,18.6448075 17.7917763,18.6448075 C17.7917763,18.6448075 16.3737952,18.1457506 16.3737952,18.3282854 C16.3737952,18.5108202 17.5403526,19.2516004 17.7236566,19.2516004 Z" id="Oval-Copy" fill="#000000" transform="translate(17.250478, 18.788136) scale(-1, 1) translate(-17.250478, -18.788136) "></path>
                <path d="M40.8143713,23.7118323 C41.1800934,26.4467702 43.3927126,27.6866087 45.623618,27.6866087 C48.0922427,27.6866087 50.5608674,26.1003447 50.5608674,23.2924752 L50.5608674,14.5953727 L44.3801625,14.5953727 L44.3801625,17.5491056 L47.3242261,17.5491056 L47.3242261,23.2924752 C47.3242261,24.0400248 46.5562095,24.5323137 45.7516207,24.5323137 C44.9470319,24.5323137 44.0875848,24.1129565 43.9047237,23.0736801 L40.8143713,23.7118323 Z M59.8698515,14.5953727 L56.8892157,14.5953727 L52.3725467,27.5042795 L55.8834797,27.5042795 L56.6880685,24.915205 L60.1441431,24.915205 L60.9853041,27.5042795 L64.4962371,27.5042795 L59.8698515,14.5953727 Z M57.4195128,22.0161708 L58.3703905,18.2419565 L58.4618211,18.2419565 L59.3578404,22.0161708 L57.4195128,22.0161708 Z M66.7102108,14.5953727 L66.7102108,27.5042795 L71.5560297,27.5042795 C74.1526572,27.5225124 76.5847097,26.2279752 76.5847097,23.2560093 L76.5847097,18.9165745 C76.5847097,15.9081429 74.1526572,14.5953727 71.5560297,14.5953727 L66.7102108,14.5953727 Z M70.0017104,24.4411491 L70.0017104,17.6402702 L71.6657464,17.6402702 C72.7629129,17.6402702 73.2932101,18.1690248 73.2932101,19.0077391 L73.2932101,23.0372143 C73.2932101,23.8759286 72.781199,24.4411491 71.6657464,24.4411491 L70.0017104,24.4411491 Z M79.3838389,23.2560093 C79.3838389,26.2097422 82.071897,27.6866087 84.759955,27.6866087 C87.448013,27.6866087 90.117785,26.2097422 90.117785,23.2560093 L90.117785,18.8436429 C90.117785,15.8899099 87.4297269,14.4130435 84.7416689,14.4130435 C82.0536109,14.4130435 79.3838389,15.871677 79.3838389,18.8436429 L79.3838389,23.2560093 Z M82.6570525,18.8436429 C82.6570525,17.8955311 83.6810746,17.3850093 84.7050967,17.3850093 C85.765691,17.3850093 86.8445714,17.8408323 86.8445714,18.8436429 L86.8445714,23.2560093 C86.8445714,24.1858882 85.8022632,24.6599441 84.759955,24.6599441 C83.7176468,24.6599441 82.6570525,24.2041211 82.6570525,23.2560093 L82.6570525,18.8436429 Z M93.2094919,27.5042795 L96.4827055,27.5042795 L96.4827055,23.7300652 L98.4027469,23.7300652 C101.529672,23.7300652 103.120563,21.4509503 103.120563,19.1536025 C103.120563,16.8744876 101.547958,14.5953727 98.3844608,14.5953727 L93.2094919,14.5953727 L93.2094919,27.5042795 Z M96.4827055,20.8310311 L96.4827055,17.6402702 L98.3844608,17.6402702 C100.359361,17.6220373 100.359361,20.849264 98.3844608,20.8310311 L96.4827055,20.8310311 Z M111.112947,14.5953727 L108.132311,14.5953727 L103.615643,27.5042795 L107.126575,27.5042795 L107.931164,24.915205 L111.387239,24.915205 L112.2284,27.5042795 L115.739333,27.5042795 L111.112947,14.5953727 Z M108.662609,22.0161708 L109.613486,18.2419565 L109.704917,18.2419565 L110.600936,22.0161708 L108.662609,22.0161708 Z M117.953307,14.5953727 L117.953307,27.5042795 L122.799126,27.5042795 C125.395753,27.5225124 127.827806,26.2279752 127.827806,23.2560093 L127.827806,18.9165745 C127.827806,15.9081429 125.395753,14.5953727 122.799126,14.5953727 L117.953307,14.5953727 Z M121.244806,24.4411491 L121.244806,17.6402702 L122.908842,17.6402702 C124.006009,17.6402702 124.536306,18.1690248 124.536306,19.0077391 L124.536306,23.0372143 C124.536306,23.8759286 124.024295,24.4411491 122.908842,24.4411491 L121.244806,24.4411491 Z M130.626935,23.2560093 C130.626935,26.2097422 133.314993,27.6866087 136.003051,27.6866087 C138.691109,27.6866087 141.360881,26.2097422 141.360881,23.2560093 L141.360881,18.8436429 C141.360881,15.8899099 138.672823,14.4130435 135.984765,14.4130435 C133.296707,14.4130435 130.626935,15.871677 130.626935,18.8436429 L130.626935,23.2560093 Z M133.900148,18.8436429 C133.900148,17.8955311 134.92417,17.3850093 135.948192,17.3850093 C137.008787,17.3850093 138.087667,17.8408323 138.087667,18.8436429 L138.087667,23.2560093 C138.087667,24.1858882 137.045359,24.6599441 136.003051,24.6599441 C134.960743,24.6599441 133.900148,24.2041211 133.900148,23.2560093 L133.900148,18.8436429 Z" id="JADOPADO" fill="#FFFFFF"></path>
            </g>
        </g>
    </g>
</svg>