<?xml version="1.0" encoding="UTF-8"?>
<svg width="167px" height="37px" viewBox="0 0 167 37" version="1.1" xmlns="http://www.w3.org/2000/svg" xmlns:xlink="http://www.w3.org/1999/xlink">
    <!-- Generator: Sketch 41.2 (35397) - http://www.bohemiancoding.com/sketch -->
    <title>mono-white_quicksilver</title>
    <desc>Created with Sketch.</desc>
    <defs></defs>
    <g id="Page-1" stroke="none" stroke-width="1" fill="none" fill-rule="evenodd">
        <g id="mono-white_quicksilver" fill="#FFFFFF">
            <g id="Group">
                <path d="M16.2510483,27.2291179 L13.2867983,27.2291179 C12.6482221,27.2291179 12.0092483,27.2470337 11.3722626,27.2166547 C11.201684,27.2084758 10.9662936,27.0947495 10.8831912,26.9580442 C9.82075311,25.2170968 8.78058167,23.4636863 7.73643404,21.7122232 C7.70541977,21.6604232 7.69508167,21.5973284 7.66088644,21.4987916 C8.38654119,21.1062021 9.10185785,20.7046547 9.83228404,20.3311495 C10.1074364,20.1909389 10.2179745,20.0265811 10.2044555,19.7142232 C10.1555483,18.5765705 10.2322888,17.4256758 10.0823864,16.3028232 C9.89471023,14.8976021 8.95275071,14.1451389 7.64458404,14.1311179 C6.09227929,14.1143705 5.142765,14.7671284 4.88550548,16.2284337 C4.61154596,17.7863284 4.60120785,19.3746021 4.91930311,20.9336653 C5.15707929,22.0985811 5.92726737,22.6874653 7.12290785,22.7941811 C7.27002689,22.8074232 7.46843881,22.8970021 7.539215,23.0122863 C8.24657929,24.1592863 8.93247215,25.3191389 9.67920071,26.5674021 C9.27482215,26.6686653 8.92412215,26.8014758 8.56348167,26.8392547 C6.77061737,27.0265916 5.02467215,26.8435389 3.40318167,26.0244758 C1.70534833,25.1672442 0.700167381,23.7534547 0.331972144,21.9498021 C-0.151135,19.5821916 -0.075985,17.1826442 0.357817381,14.8271074 C0.774919763,12.5611495 2.26440071,11.0889389 4.50776737,10.4248863 C6.65491023,9.78965473 8.82392215,9.83405473 10.9448221,10.5545811 C13.3293436,11.3646863 14.566734,13.1212126 14.7456626,15.5137495 C14.8828412,17.3454442 14.8013293,19.1946653 14.7707126,21.0353179 C14.7583864,21.7897284 14.5305507,22.5168758 14.0800483,23.1466547 C13.9233864,23.3651495 13.948834,23.5147074 14.082434,23.7269705 C14.7925817,24.8529389 15.4856317,25.9890337 16.2510483,27.2291179 L16.2510483,27.2291179 Z M44.0894315,26.8900421 L38.0945289,26.8900421 L38.0945289,23.3294737 C38.1680885,23.3177895 38.2444315,23.3014316 38.3219671,23.2940316 C39.0468267,23.2243158 39.2897719,22.9625895 39.2905671,22.2350526 C39.2921577,20.9221368 39.2897719,19.6096105 39.2913623,18.2966947 C39.2945433,15.8430105 39.2997123,13.3893263 39.3036885,10.9360316 C39.3040863,10.7985474 39.3036885,10.6610632 39.3036885,10.4998211 L44.0544411,10.4998211 L44.0544411,16.2726 C44.8150863,15.2615263 45.5069433,14.3213368 46.2210671,13.3975053 C46.92366,12.4888632 47.64176,11.5919053 48.3701981,10.7035158 C48.4743744,10.5765474 48.6751719,10.4526947 48.8322315,10.4511368 C50.5710196,10.4347789 52.3102052,10.4425684 54.0493911,10.4460737 C54.0931289,10.4460737 54.1368671,10.4690526 54.2418385,10.4982632 C53.6501815,11.1821789 53.0819837,11.8442842 52.5082196,12.5021053 C51.5038337,13.6537789 50.5066052,14.8120737 49.4811456,15.9458316 C49.2441648,16.2075579 49.3149411,16.3906105 49.4485411,16.6410421 C51.1921004,19.9161263 52.9292981,23.1947158 54.6664956,26.4733053 C54.7293196,26.5917053 54.7746481,26.7194526 54.8537744,26.9009474 L51.7944933,26.9009474 C51.0922981,26.9009474 50.3901029,26.8892632 49.6883052,26.9067895 C49.4151411,26.9138 49.2763719,26.8308421 49.1527123,26.5808 C48.1141315,24.4764737 47.0564648,22.3811053 46.0035696,20.2834 C45.9558552,20.1883684 45.9001885,20.0976211 45.8127123,19.9418316 C45.2393456,20.6234105 44.6894385,21.2613684 44.1641837,21.9184105 C44.0814789,22.0220105 44.09301,22.2120737 44.0922148,22.3624105 C44.0874433,23.7064842 44.0894315,25.0505579 44.0894315,26.3946316 L44.0894315,26.8900421 L44.0894315,26.8900421 Z M111.050666,26.9009474 L111.050666,10.5033263 C111.204942,10.4928105 111.342916,10.4748947 111.480492,10.4745053 C114.002192,10.4729474 116.523495,10.4713895 119.045195,10.4745053 C120.088945,10.4756737 121.106849,10.6341895 122.079823,11.0135368 C123.908871,11.7274421 124.850433,13.0847579 125.030554,14.9752632 C125.202325,16.7722947 124.939897,18.4478105 123.483418,19.7299579 C123.085004,20.0808737 122.612235,20.3511684 122.11203,20.7016947 C123.191168,22.7222842 124.290585,24.7810421 125.422606,26.9001684 C123.690975,26.9001684 122.036483,26.9079579 120.382785,26.8849789 C120.257933,26.8830316 120.092125,26.6855684 120.020156,26.5426316 C119.248378,25.0038211 118.469442,23.4677368 117.74498,21.9078947 C117.536628,21.4596105 117.280561,21.2898 116.810178,21.3630211 C116.702025,21.3797684 116.589102,21.3657474 116.443175,21.3657474 L116.443175,17.7198842 C117.230064,17.7198842 118.008602,17.7572737 118.781573,17.7105368 C119.863495,17.6451053 120.416583,17.0496 120.430897,16.0295684 C120.446404,14.9332 119.92274,14.2960211 118.811792,14.2290316 C117.766849,14.1659368 116.715147,14.2154 115.627659,14.2154 L115.627659,14.8027263 C115.627659,18.4602737 115.628056,22.1182105 115.627261,25.7761474 C115.627261,26.6287053 115.351314,26.9005579 114.492456,26.9009474 C113.361628,26.9013368 112.230799,26.9009474 111.050666,26.9009474 L111.050666,26.9009474 Z M15.6566476,10.4912137 L20.4312571,10.4912137 L20.4312571,10.98974 C20.4312571,13.9606453 20.4097857,16.93194 20.4483548,19.9024558 C20.4567048,20.5415821 20.594281,21.2118663 20.8284786,21.8089295 C21.2284833,22.8305189 22.1350548,23.1674137 23.1867571,23.1327505 C24.218181,23.0988663 25.0058643,22.6466874 25.3386714,21.6527505 C25.4997071,21.1717505 25.5995095,20.6494663 25.606269,20.1447084 C25.64285,17.2840242 25.64285,14.42334 25.6551762,11.5622663 C25.6591524,10.7019189 25.8885786,10.4740768 26.7557857,10.4736874 C27.9506311,10.4729084 29.1450785,10.4732979 30.3653715,10.4732979 C30.3808785,10.6088347 30.4035429,10.7128242 30.4035429,10.8168137 C30.4011571,14.05334 30.4293881,17.2902558 30.3792881,20.5263926 C30.3526477,22.2330663 29.86795,23.8221189 28.6560071,25.1245189 C27.7060952,26.1453295 26.4917667,26.7011084 25.1378738,26.9698453 C23.5704595,27.2810347 21.9931048,27.2736347 20.4435833,26.8752032 C17.805381,26.1971295 16.312719,24.4674768 15.8479024,21.8731926 C15.7190738,21.1546137 15.6701667,20.4146137 15.6649976,19.6835716 C15.644719,16.8069189 15.6566476,13.9294874 15.6566476,11.0524453 L15.6566476,10.4912137 L15.6566476,10.4912137 Z M101.783836,16.4787095 L106.695624,16.4787095 L106.695624,20.2382989 L101.779462,20.2382989 L101.779462,23.0444568 L110.151729,23.0444568 L110.151729,26.8648042 L97.1786121,26.8648042 L97.1786121,10.5053516 L109.967631,10.5053516 L109.967631,14.2929832 L101.783836,14.2929832 L101.783836,16.4787095 L101.783836,16.4787095 Z M66.5986061,12.1372074 C65.8570465,13.3114705 65.1134987,14.4880705 64.3524561,15.6931021 C63.9297869,15.4594179 63.5409154,15.2214495 63.1321631,15.0224284 C61.7663417,14.3568179 60.3416727,13.9685126 58.7993083,14.2329653 C58.2255439,14.3315021 57.9356798,14.6037442 57.8990987,15.0520284 C57.8581439,15.5509442 58.1877702,15.8087758 58.6020894,15.9334074 C59.6943487,16.2621232 60.8060917,16.5300811 61.8951702,16.8689232 C62.6502487,17.1041653 63.4069179,17.3635547 64.1166679,17.7043442 C66.2220606,18.7158074 66.9167013,20.3597758 66.6435369,22.5821126 C66.3377679,25.0712389 64.7401346,26.5415021 62.0494465,26.9925126 C60.0446513,27.3290179 58.0478083,27.1981547 56.0561346,26.8893021 C55.9284987,26.8698284 55.7778013,26.7409126 55.7125917,26.6232916 C55.1304773,25.5678179 54.5594965,24.5061126 54.0028298,23.4373968 C53.9443798,23.3256179 53.9646583,23.1452916 54.0099869,23.0175442 C54.0716179,22.8442284 54.1901083,22.6896074 54.2883202,22.5291442 C54.6282846,21.9721968 55.0851487,21.8405547 55.6605035,22.1704389 C57.1094273,23.0019653 58.6843965,23.2925126 60.3392869,23.2270811 C60.6848179,23.2134495 61.0355179,23.1421758 61.3687227,23.0459758 C61.7214106,22.9443232 61.9810561,22.7250495 62.0160465,22.3215547 C62.0506394,21.9227337 61.8657465,21.6236179 61.5130583,21.5021021 C60.5862083,21.1823442 59.6406702,20.9163337 58.7058679,20.6179968 C57.7412439,20.3099232 56.7499798,20.0579337 55.8243227,19.6606705 C53.6660465,18.7345021 52.9646465,17.0032916 53.2481487,14.7404495 C53.5435798,12.3841337 55.1010535,11.0408389 57.3344798,10.5134916 C60.3909773,9.79140737 63.3421061,10.1610179 66.0824965,11.7590284 C66.2192773,11.8388705 66.3516846,11.9257232 66.4828987,12.0141337 C66.5206727,12.0394495 66.5473131,12.0815126 66.5986061,12.1372074 L66.5986061,12.1372074 Z M89.5073877,21.4947411 C89.7869137,20.3286568 90.04974,19.1434884 90.3574971,17.9696147 C90.9503471,15.7067726 91.5646685,13.4489937 92.17899,11.1916042 C92.3245185,10.6572463 92.5857544,10.4753621 93.13924,10.4741937 C94.1599281,10.4718568 95.1806163,10.4734147 96.2796352,10.4734147 C96.2796352,10.8192674 96.2565733,11.1413621 96.2832137,11.4599516 C96.4414663,13.3453937 96.0510044,15.1151621 95.3742567,16.8888253 C94.1615185,20.0677095 93.0923211,23.2995621 91.9777948,26.5142779 C91.8716304,26.8200147 91.7284877,26.9142674 91.40244,26.9092042 C90.0938756,26.8889516 88.7849137,26.8940147 87.4759519,26.9064779 C87.2000044,26.9088147 87.0556685,26.8429937 86.9582519,26.56452 C85.1256256,21.3194779 83.2810711,16.0783305 81.4400948,10.8360147 C81.4051044,10.73592 81.3820423,10.6319305 81.3371115,10.4734147 L83.61189,10.4734147 C84.4262137,10.4734147 85.2409352,10.4948358 86.0536685,10.4640674 C86.4361781,10.4492674 86.6075519,10.5536463 86.7061615,10.9302674 C87.6298304,14.4596779 88.5733804,17.9840253 89.5073877,21.4947411 L89.5073877,21.4947411 Z M79.0497681,22.9174495 L79.6426181,22.9174495 C81.2072489,22.9174495 82.7714823,22.9283547 84.3357156,22.9088811 C84.6864156,22.9045968 84.8359204,23.0214389 84.9424823,23.3400284 C85.3321489,24.5065021 85.75283,25.6632389 86.1774871,26.86866 L74.3121371,26.86866 L74.3121371,26.2743232 C74.3121371,22.6000284 74.3125348,18.9253442 74.3121371,15.2510495 C74.3121371,14.3030705 74.1216777,14.0993758 73.1427396,14.0226495 L73.1427396,10.4733758 L73.6628252,10.4733758 C74.9236752,10.4733758 76.1861156,10.5084284 77.4457729,10.4644179 C78.9443989,10.4122284 79.0664681,10.7226389 79.0573229,12.0725547 C79.0346585,15.4968074 79.0497681,18.92106 79.0497681,22.3453126 L79.0497681,22.9174495 L79.0497681,22.9174495 Z M31.2759985,14.0355021 L31.2759985,10.5123232 L37.1699056,10.5123232 L37.1699056,26.8698284 C37.0541985,26.8799547 36.9321296,26.8994284 36.8096629,26.8994284 C35.6609415,26.9017653 34.5118223,26.9041021 33.3631011,26.8994284 C32.7750223,26.8970916 32.4545415,26.5894074 32.4203463,26.01026 C32.4127915,25.8856284 32.4183581,25.7602179 32.4183581,25.6351968 C32.4183581,22.1649863 32.4187556,18.6951653 32.4183581,15.2249547 C32.4183581,14.3424074 32.2064271,14.1133968 31.2759985,14.0355021 L31.2759985,14.0355021 Z M72.2583552,26.8821747 L67.5394123,26.8821747 C67.5294719,26.7010695 67.5131696,26.5359326 67.5127719,26.3704063 C67.5115789,21.4930274 67.5111815,16.6156484 67.5139648,11.7382695 C67.5139648,11.5201642 67.5171456,11.2969958 67.5628719,11.0855116 C67.6404077,10.7310905 67.8746052,10.48728 68.2543315,10.4829958 C69.5760171,10.4689747 70.8981004,10.4775432 72.2583552,10.4775432 L72.2583552,26.8821747 L72.2583552,26.8821747 Z" id="Shape"></path>
                <path d="M129.893382,3.14665239 C129.895725,1.64479707 131.083873,0.426587339 132.552079,0.425701858 L164.152853,0.406643289 C165.618867,0.405759128 166.80778,1.60959108 166.808376,3.12617429 L166.820474,33.8872142 C166.821065,35.390054 165.633024,36.6082995 164.162006,36.6082417 L132.500698,36.6069988 C131.031876,36.606941 129.843039,35.4031346 129.845404,33.8875446 L129.893382,3.14665239 Z M132.166941,18.5629779 C132.148651,18.6494411 132.131155,18.6950095 132.131155,18.7405779 C132.129167,20.8826832 132.121613,23.0247884 132.132746,25.1665042 C132.135529,25.7059253 132.371715,26.1596621 132.793191,26.5191463 C133.251248,26.9097884 133.799963,26.9417253 134.366967,26.9417253 C144.199689,26.9397779 154.032808,26.9405568 163.865927,26.9393884 C164.029746,26.9393884 164.193167,26.9253674 164.356986,26.9175779 C164.373289,26.8797989 164.389989,26.84202 164.406291,26.8042411 C163.848829,26.2729989 163.269498,25.7623989 162.742653,25.2038937 C162.412629,24.8541463 162.068291,24.7252305 161.57922,24.7267884 C156.646755,24.7427568 151.713098,24.7988411 146.782225,24.7088726 C143.114586,24.6418832 140.790503,22.3124411 140.516544,19.1152516 C140.097453,14.2164516 144.674446,11.8683147 147.680446,12.3337358 C148.438308,12.4509674 149.187422,12.6250621 149.949658,12.7750095 C149.185434,12.0225463 148.428765,11.2646305 147.65301,10.5261884 C147.526965,10.4062305 147.323384,10.3353463 147.14366,10.3026305 C146.046232,10.1016621 144.962322,10.1538516 143.880798,10.45102 C141.984553,10.9721358 140.609189,12.2184516 139.292672,13.5508411 C138.41632,14.4380621 137.576151,15.3599463 136.683496,16.23042 C135.765394,17.12582 134.80077,17.9783779 133.494591,18.3063147 C133.065163,18.4138095 132.624203,18.4757358 132.166941,18.5629779 Z M160.947005,23.5322726 C160.76927,23.3316937 160.686167,23.2253674 160.589944,23.1315042 C157.732653,20.3401463 154.876158,17.5472305 152.013301,14.7605463 C151.139732,13.9099358 149.897172,13.9457674 149.036327,14.8103989 C147.132527,16.7227147 145.223955,18.6311358 143.312203,20.5360516 C142.450563,21.3944516 142.455334,21.6331989 143.455744,22.3930621 C143.755151,22.6201253 144.091934,22.8113568 144.434682,22.9706516 C145.297913,23.3710305 146.220389,23.5307147 147.171096,23.5314937 C151.574329,23.5330516 155.977165,23.5322726 160.380001,23.5322726 L160.947005,23.5322726 Z M154.067202,18.88332 C153.932011,18.9043516 153.882707,18.9246042 153.838571,18.9168147 C152.692633,18.7123411 151.810316,19.1310253 151.10335,19.9995516 C151.01985,20.1019832 150.846488,20.1343095 150.714876,20.1993516 C150.681873,20.0700463 150.623423,19.94152 150.62064,19.8118253 C150.609904,19.2657832 150.624616,18.7197411 150.609507,18.1740884 C150.605928,18.0502358 150.550261,17.8597832 150.464773,17.8239516 C150.36855,17.7838358 150.197176,17.8613411 150.084252,17.92872 C149.936338,18.0167411 149.789616,18.1269621 149.68385,18.2593832 C148.959388,19.1629621 147.970509,18.9047411 146.8866,18.9012358 C147.126364,18.6488568 147.27229,18.4786568 147.435711,18.3259832 C148.276676,17.5408042 149.122014,16.75952 149.966557,15.9774568 C150.448073,15.5315095 150.677897,15.5170989 151.141521,15.9564253 C152.045707,16.8132674 152.937566,17.6825726 153.830221,18.5507095 C153.917697,18.6356147 153.974159,18.7508989 154.067202,18.88332 Z" id="Shape"></path>
            </g>
        </g>
    </g>
</svg>