<?xml version="1.0" encoding="UTF-8"?>
<svg width="563px" height="500px" viewBox="0 0 563 500" version="1.1" xmlns="http://www.w3.org/2000/svg" xmlns:xlink="http://www.w3.org/1999/xlink">
    <!-- Generator: Sketch 40.3 (33839) - http://www.bohemiancoding.com/sketch -->
    <title>react-logo-bg</title>
    <desc>Created with Sketch.</desc>
    <defs></defs>
    <g id="Page-1" stroke="none" stroke-width="1" fill="none" fill-rule="evenodd">
        <g id="react-logo-bg" transform="translate(12.000000, 12.000000)">
            <g id="Group">
                <circle id="Oval" fill="#FFFFFF" cx="269.529" cy="237.628" r="50.167"></circle>
                <path d="M269.53,135.628 C336.885,135.628 399.457,145.293 446.636,161.535 C503.48,181.105 538.43,210.768 538.43,237.628 C538.43,265.618 501.39,297.131 440.347,317.356 C394.197,332.646 333.467,340.628 269.529,340.628 C203.974,340.628 141.899,333.136 95.239,317.188 C36.192,297.004 0.627,265.083 0.627,237.627 C0.627,210.985 33.997,181.551 90.042,162.011 C137.397,145.501 201.514,135.627 269.528,135.627 L269.53,135.628 Z" id="Shape" stroke="#FFFFFF" stroke-width="24"></path>
                <path d="M180.736,186.922 C214.386,128.574 254.016,79.198 291.656,46.442 C337.006,6.976 380.163,-8.48 403.43,4.937 C427.68,18.92 436.474,66.75 423.5,129.733 C413.69,177.351 390.266,233.945 358.324,289.333 C325.574,346.123 288.074,396.153 250.947,428.606 C203.967,469.674 158.547,484.536 134.762,470.819 C111.682,457.509 102.856,413.897 113.928,355.585 C123.283,306.315 146.76,245.84 180.738,186.921 L180.736,186.922 Z" id="Shape" stroke="#FFFFFF" stroke-width="24"></path>
                <path d="M180.82,289.482 C147.075,231.19 124.09,172.195 114.51,123.227 C102.965,64.227 111.127,19.117 134.373,5.661 C158.597,-8.362 204.428,7.906 252.513,50.601 C288.87,82.88 326.2,131.44 358.236,186.775 C391.08,243.508 415.696,300.985 425.272,349.357 C437.389,410.57 427.582,457.341 403.819,471.097 C380.761,484.445 338.569,470.313 293.579,431.597 C255.566,398.887 214.897,348.345 180.819,289.483 L180.82,289.482 Z" id="Shape" stroke="#FFFFFF" stroke-width="24"></path>
            </g>
        </g>
    </g>
</svg>