<?xml version="1.0" encoding="UTF-8"?>
<svg width="93px" height="83px" viewBox="0 0 93 83" version="1.1" xmlns="http://www.w3.org/2000/svg" xmlns:xlink="http://www.w3.org/1999/xlink">
    <!-- Generator: Sketch 41.2 (35397) - http://www.bohemiancoding.com/sketch -->
    <title>react-logo</title>
    <desc>Created with Sketch.</desc>
    <defs></defs>
    <g id="Page-1" stroke="none" stroke-width="1" fill="none" fill-rule="evenodd">
        <g id="react-logo" transform="translate(1.000000, 1.000000)" stroke="#00D8FF" stroke-width="2">
            <ellipse id="Oval" cx="45.5" cy="40.347" rx="4.5" ry="4.52612482"></ellipse>
            <path d="M45.5048961,23.0311698 C56.8766883,23.0311698 67.4407922,24.6723962 75.4060779,27.4304717 C85.0031169,30.7535094 90.9037662,35.7907925 90.9037662,40.3519245 C90.9037662,45.1051132 84.6500909,50.4562075 74.3442987,53.8906415 C66.5525714,56.4872264 56.2997922,57.8424906 45.5048961,57.8424906 C34.4373377,57.8424906 23.956974,56.5702642 16.0793117,53.8619434 C6.11050649,50.4348113 0.106025974,45.0142642 0.106025974,40.3519245 C0.106025974,35.8278113 5.73992208,30.8295849 15.2020649,27.5114717 C23.1970649,24.7080566 34.022013,23.0311698 45.5048961,23.0311698 Z" id="Shape"></path>
            <path d="M30.5138701,31.7414717 C36.1948701,21.8333208 42.885987,13.448717 49.2406234,7.88637736 C56.8971169,1.18460377 64.1833636,-1.44016981 68.1117273,0.838358491 C72.2055455,3.21283019 73.6902468,11.3350755 71.4996623,22.0301321 C69.8434286,30.1162075 65.8887273,39.7265094 60.4959221,49.1321887 C54.9668701,58.775434 48.6355325,67.2712642 42.3673377,72.7821509 C34.4354805,79.7559623 26.7673377,82.2795283 22.7516883,79.9503962 C18.8552338,77.6902075 17.364961,70.284566 19.2342597,60.3825283 C20.8136753,52.0159245 24.7773247,41.7465849 30.5138701,31.7414717 Z" id="Shape"></path>
            <path d="M30.5282208,49.1573208 C24.8308442,39.2586792 20.9502597,29.2406604 19.3326883,20.9253396 C17.3837013,10.9066415 18.7617013,3.24645283 22.6863506,0.961301887 C26.7761169,-1.42013208 34.5138182,1.34235849 42.6320649,8.59262264 C48.7700909,14.0741321 55.0728961,22.3196604 60.4814026,31.7163396 C66.0264935,41.3502453 70.1826104,51.1103208 71.7991688,59.3246038 C73.8448961,69.7192642 72.189,77.6615094 68.1772338,79.997434 C64.2844935,82.2640755 57.1611688,79.8643019 49.5654545,73.2900566 C43.1476753,67.7353585 36.2814805,59.1527547 30.5282208,49.1573208 Z" id="Shape"></path>
        </g>
    </g>
</svg>