<svg width="64" height="69" viewBox="0 0 64 69" xmlns="http://www.w3.org/2000/svg"><title>icon-widget-toggle</title><desc>Created with Sketch.</desc><defs><linearGradient x1="42.966%" y1="14.059%" x2="85.153%" y2="110.153%" id="a"><stop stop-color="#2CA5C3" offset="0%"/><stop stop-color="#136B90" offset="100%"/></linearGradient><linearGradient x1="10.934%" y1="-27.347%" x2="73.434%" y2="79.684%" id="b"><stop stop-color="#51C8E5" offset="0%"/><stop stop-color="#2897C5" offset="100%"/></linearGradient></defs><g fill="none" fill-rule="evenodd"><g><rect fill="url(#a)" y="5" width="64" height="64" rx="4"/><rect fill="url(#b)" width="64" height="64" rx="4"/></g><g fill="#fff"><path d="M18.11 32.165c0 3.707 2.892 6.71 6.462 6.71h14.63c3.57 0 6.463-3.003 6.463-6.71s-2.893-6.71-6.463-6.71h-14.63c-3.57 0-6.463 3.003-6.463 6.71zm-1.723 0c0-4.694 3.663-8.5 8.185-8.5h14.63c4.52 0 8.185 3.805 8.185 8.5 0 4.694-3.663 8.5-8.185 8.5h-14.63c-4.52 0-8.185-3.805-8.185-8.5zM24.887 36.665c-2.485 0-4.5-2.015-4.5-4.5s2.015-4.5 4.5-4.5 4.5 2.015 4.5 4.5-2.015 4.5-4.5 4.5z"/></g></g></svg>