<svg width="65" height="70" viewBox="0 0 65 70" xmlns="http://www.w3.org/2000/svg"><title>icon-widget-hierarchical</title><desc>Created with Sketch.</desc><defs><linearGradient x1="42.966%" y1="14.059%" x2="85.153%" y2="110.153%" id="a"><stop stop-color="#2CA5C3" offset="0%"/><stop stop-color="#136B90" offset="100%"/></linearGradient><linearGradient x1="10.934%" y1="-27.347%" x2="73.434%" y2="79.684%" id="b"><stop stop-color="#51C8E5" offset="0%"/><stop stop-color="#2897C5" offset="100%"/></linearGradient></defs><g fill="none" fill-rule="evenodd"><g transform="translate(.613 .335)"><rect fill="url(#a)" y="5" width="64" height="64" rx="4"/><rect fill="url(#b)" width="64" height="64" rx="4"/></g><path d="M12.387 22.165c0-.83.68-1.5 1.498-1.5h25.617c.827 0 1.498.665 1.498 1.5 0 .828-.68 1.5-1.498 1.5H13.885c-.827 0-1.498-.666-1.498-1.5zm7 11c0-.83.68-1.5 1.498-1.5h25.617c.827 0 1.498.665 1.498 1.5 0 .828-.68 1.5-1.498 1.5H20.885c-.827 0-1.498-.666-1.498-1.5zm7 11c0-.83.68-1.5 1.498-1.5h25.617c.827 0 1.498.665 1.498 1.5 0 .828-.68 1.5-1.498 1.5H27.885c-.827 0-1.498-.666-1.498-1.5z" fill="#fff"/></g></svg>