<?xml version="1.0" encoding="utf-8"?>
<!-- Generator: Adobe Illustrator 21.0.0, SVG Export Plug-In . SVG Version: 6.00 Build 0)  -->
<svg version="1.0" id="Layer_1" xmlns="http://www.w3.org/2000/svg" xmlns:xlink="http://www.w3.org/1999/xlink" x="0px" y="0px"
	 viewBox="0 0 125.7 126" style="enable-background:new 0 0 125.7 126;" xml:space="preserve">
<style type="text/css">
	.st0{fill:#8FC348;}
	.st1{fill:#FFFFFF;}
</style>
<g>
	<path class="st0" d="M117.6,124.2H7.2c-3.4,0-6.2-2.8-6.2-6.2V7.6c0-3.4,2.8-6.2,6.2-6.2h110.5c3.4,0,6.2,2.8,6.2,6.2V118
		C123.9,121.4,121.1,124.2,117.6,124.2z"/>
	<g>
		<path class="st1" d="M75,53.3c3-2.5,5.1-5.9,6.1-9.7c0.5-1.7,0.7-3.4,0.7-5h-6.9c0,3.1-1.2,6.3-3.6,8.7c-4.8,4.8-12.6,4.8-17.4,0
			c-2.4-2.4-3.6-5.6-3.6-8.7H43c0,8.5,5.7,16.3,14.4,18.7c3.8,1,7.8,0.9,11.5-0.4l6.7,11.5c0.4,0.8,1.2,1.4,2.1,1.6l0,0
			c1.9,0.5,3.8-0.6,4.3-2.5c0.2-0.9,0.1-1.9-0.4-2.7L75,53.3z"/>
		<path class="st1" d="M105.5,76.1c-7.5-7.5-19.8-7.5-27.4,0.1c-2.8,2.8-4.6,6.3-5.4,10.2l-13.3,0c-0.9,0-1.8,0.4-2.5,1l0,0
			c-1.4,1.4-1.4,3.6,0,5c0.7,0.7,1.6,1,2.5,1l13.3,0c0.7,3.8,2.6,7.4,5.3,10.2c7.5,7.6,19.8,7.5,27.4-0.1
			C113,95.9,113.1,83.6,105.5,76.1z M100.5,98.5c-4.8,4.8-12.6,4.8-17.4,0c-4.8-4.8-4.8-12.6,0-17.4l0,0c4.8-4.8,12.6-4.8,17.4,0
			C105.3,85.8,105.3,93.7,100.5,98.5z"/>
		<path class="st1" d="M38.1,108.5c10.3-2.8,16.4-13.4,13.6-23.7c-1-3.8-3.2-7.2-6.1-9.7l6.6-11.6c0.4-0.8,0.6-1.8,0.3-2.7l0,0
			c-0.5-1.9-2.4-3-4.3-2.5c-0.9,0.2-1.7,0.8-2.1,1.6l-6.6,11.5c-3.7-1.3-7.7-1.5-11.5-0.5c-10.3,2.8-16.4,13.4-13.6,23.7
			C17.2,105.1,27.8,111.2,38.1,108.5z M21.2,92.9c-1.8-6.6,2.1-13.3,8.7-15.1C36.4,76,43.2,80,45,86.5l0,0
			c1.8,6.6-2.1,13.3-8.7,15.1C29.7,103.4,23,99.5,21.2,92.9z"/>
		<path class="st1" d="M74.3,23.3l3.5-5.3c0.4-0.5,0.2-1.3-0.3-1.6c-0.5-0.4-1.3-0.2-1.6,0.3L72.3,22c-1.5-0.9-3.2-1.6-4.9-2.1
			c-5.2-1.4-10.5-0.5-14.8,2l-3.4-5.2c-0.4-0.5-1.1-0.7-1.6-0.3c-0.5,0.4-0.7,1.1-0.3,1.6l3.4,5.2c-3.3,2.5-5.8,6.1-7,10.4
			c0,0.2-0.1,0.3-0.1,0.5h37.7C80.2,29.8,77.8,26,74.3,23.3z M53.8,29.8c-1.2,0-2.3-1-2.3-2.3c0-1.2,1-2.3,2.3-2.3s2.3,1,2.3,2.3
			C56.1,28.8,55.1,29.8,53.8,29.8z M71.1,29.8c-1.2,0-2.3-1-2.3-2.3c0-1.2,1-2.3,2.3-2.3c1.2,0,2.3,1,2.3,2.3
			C73.4,28.8,72.4,29.8,71.1,29.8z"/>
	</g>
</g>
</svg>
