<?xml version="1.0" encoding="utf-8"?>
<!-- Generator: Adobe Illustrator 21.0.0, SVG Export Plug-In . SVG Version: 6.00 Build 0)  -->
<svg version="1.0" id="Layer_1" xmlns="http://www.w3.org/2000/svg" xmlns:xlink="http://www.w3.org/1999/xlink" x="0px" y="0px"
	 viewBox="0 0 595 126" style="enable-background:new 0 0 595 126;" xml:space="preserve">
<style type="text/css">
	.st0{fill:#8FC348;}
	.st1{fill:#FFFFFF;}
	.st2{fill:#B3B3B7;}
	.st3{fill:#212121;}
</style>
<g>
	<path class="st0" d="M117.6,124.2H7.2c-3.4,0-6.2-2.8-6.2-6.2V7.6c0-3.4,2.8-6.2,6.2-6.2h110.5c3.4,0,6.2,2.8,6.2,6.2V118
		C123.9,121.4,121.1,124.2,117.6,124.2z"/>
	<g>
		<path class="st1" d="M75,53.3c3-2.5,5.1-5.9,6.1-9.7c0.5-1.7,0.7-3.4,0.7-5h-6.9c0,3.1-1.2,6.3-3.6,8.7c-4.8,4.8-12.6,4.8-17.4,0
			c-2.4-2.4-3.6-5.6-3.6-8.7H43c0,8.5,5.7,16.3,14.4,18.7c3.8,1,7.8,0.9,11.5-0.4l6.7,11.5c0.4,0.8,1.2,1.4,2.1,1.6l0,0
			c1.9,0.5,3.8-0.6,4.3-2.5c0.2-0.9,0.1-1.9-0.4-2.7L75,53.3z"/>
		<path class="st1" d="M105.5,76.1c-7.5-7.5-19.8-7.5-27.4,0.1c-2.8,2.8-4.6,6.3-5.4,10.2l-13.3,0c-0.9,0-1.8,0.4-2.5,1l0,0
			c-1.4,1.4-1.4,3.6,0,5c0.7,0.7,1.6,1,2.5,1l13.3,0c0.7,3.8,2.6,7.4,5.3,10.2c7.5,7.6,19.8,7.5,27.4-0.1
			C113,95.9,113.1,83.6,105.5,76.1z M100.5,98.5c-4.8,4.8-12.6,4.8-17.4,0c-4.8-4.8-4.8-12.6,0-17.4l0,0c4.8-4.8,12.6-4.8,17.4,0
			C105.3,85.8,105.3,93.7,100.5,98.5z"/>
		<path class="st1" d="M38.1,108.5c10.3-2.8,16.4-13.4,13.6-23.7c-1-3.8-3.2-7.2-6.1-9.7l6.6-11.6c0.4-0.8,0.6-1.8,0.3-2.7l0,0
			c-0.5-1.9-2.4-3-4.3-2.5c-0.9,0.2-1.7,0.8-2.1,1.6l-6.6,11.5c-3.7-1.3-7.7-1.5-11.5-0.5c-10.3,2.8-16.4,13.4-13.6,23.7
			C17.2,105.1,27.8,111.2,38.1,108.5z M21.2,92.9c-1.8-6.6,2.1-13.3,8.7-15.1C36.4,76,43.2,80,45,86.5l0,0
			c1.8,6.6-2.1,13.3-8.7,15.1C29.7,103.4,23,99.5,21.2,92.9z"/>
		<path class="st1" d="M74.3,23.3l3.5-5.3c0.4-0.5,0.2-1.3-0.3-1.6c-0.5-0.4-1.3-0.2-1.6,0.3L72.3,22c-1.5-0.9-3.2-1.6-4.9-2.1
			c-5.2-1.4-10.5-0.5-14.8,2l-3.4-5.2c-0.4-0.5-1.1-0.7-1.6-0.3c-0.5,0.4-0.7,1.1-0.3,1.6l3.4,5.2c-3.3,2.5-5.8,6.1-7,10.4
			c0,0.2-0.1,0.3-0.1,0.5h37.7C80.2,29.8,77.8,26,74.3,23.3z M53.8,29.8c-1.2,0-2.3-1-2.3-2.3c0-1.2,1-2.3,2.3-2.3s2.3,1,2.3,2.3
			C56.1,28.8,55.1,29.8,53.8,29.8z M71.1,29.8c-1.2,0-2.3-1-2.3-2.3c0-1.2,1-2.3,2.3-2.3c1.2,0,2.3,1,2.3,2.3
			C73.4,28.8,72.4,29.8,71.1,29.8z"/>
	</g>
</g>
<g>
	<g>
		<path class="st2" d="M162.2,70.7v-46h10.6v46H162.2z"/>
		<path class="st2" d="M213.6,70.7h-10.4V51.5c0-2.2-0.4-3.9-1.3-4.9c-0.8-1-2-1.5-3.3-1.5c-0.7,0-1.5,0.2-2.2,0.5
			c-0.7,0.3-1.4,0.7-2.1,1.3c-0.7,0.5-1.3,1.2-1.8,1.9c-0.5,0.7-1,1.5-1.3,2.4v19.5h-10.4v-34h9.3v5.7c1.3-2,3-3.6,5.3-4.7
			c2.3-1.1,4.9-1.7,7.9-1.7c2.2,0,4,0.4,5.3,1.2c1.3,0.8,2.4,1.8,3.1,3.1c0.7,1.3,1.2,2.7,1.5,4.2c0.2,1.5,0.4,3,0.4,4.4V70.7z"/>
		<path class="st2" d="M233.9,71.3c-2.9,0-5.7-0.5-8.6-1.4c-2.8-0.9-5.2-2.3-7.1-4.1l3.7-6.4c2.1,1.4,4.1,2.5,6.1,3.3
			c2,0.8,3.9,1.2,5.7,1.2c1.3,0,2.4-0.2,3.1-0.7c0.7-0.5,1.1-1.2,1.1-2.1c0-0.9-0.5-1.6-1.4-2.2c-0.9-0.5-2.6-1.1-4.9-1.7
			c-2.3-0.6-4.2-1.3-5.8-1.9c-1.6-0.6-2.9-1.3-3.9-2c-1-0.7-1.7-1.6-2.1-2.5c-0.4-1-0.6-2.1-0.6-3.4c0-1.7,0.3-3.3,1-4.7
			c0.7-1.4,1.6-2.6,2.9-3.6c1.2-1,2.6-1.8,4.3-2.3c1.7-0.6,3.5-0.8,5.4-0.8c2.5,0,4.9,0.3,7.2,1c2.2,0.7,4.4,1.9,6.5,3.8l-4,6.2
			c-1.9-1.3-3.7-2.3-5.2-2.9c-1.5-0.6-3-0.9-4.4-0.9c-1.1,0-2.1,0.2-2.9,0.7c-0.8,0.5-1.2,1.2-1.2,2.2c0,1,0.4,1.7,1.3,2.1
			c0.8,0.5,2.4,1,4.7,1.6c2.4,0.6,4.5,1.3,6.1,1.9c1.7,0.6,3,1.4,4.1,2.2c1,0.8,1.8,1.7,2.3,2.8c0.5,1,0.7,2.3,0.7,3.7
			c0,3.4-1.3,6.1-3.8,8C241.5,70.3,238.2,71.3,233.9,71.3z"/>
		<path class="st2" d="M274.8,68.9c-1.4,0.6-3.1,1.2-4.9,1.7c-1.8,0.5-3.7,0.8-5.5,0.8c-1.3,0-2.5-0.2-3.7-0.5
			c-1.1-0.3-2.2-0.8-3-1.6c-0.9-0.7-1.5-1.7-2-2.8c-0.5-1.2-0.7-2.6-0.7-4.2V44.5h-4.3v-7.8h4.3V25.8h10.4v10.8h6.9v7.8h-6.9v14.2
			c0,1.1,0.3,1.9,0.8,2.4c0.6,0.5,1.3,0.7,2.1,0.7c0.8,0,1.6-0.1,2.4-0.4c0.8-0.3,1.5-0.5,2.1-0.8L274.8,68.9z"/>
		<path class="st2" d="M288.5,71.3c-1.7,0-3.3-0.3-4.7-0.8c-1.4-0.5-2.7-1.3-3.7-2.3c-1-1-1.9-2.1-2.5-3.4c-0.6-1.3-0.9-2.8-0.9-4.3
			c0-1.7,0.4-3.2,1.1-4.6c0.7-1.4,1.7-2.6,3-3.6c1.3-1,2.8-1.8,4.6-2.3c1.8-0.6,3.7-0.8,5.9-0.8c1.4,0,2.8,0.1,4.1,0.4
			c1.3,0.2,2.5,0.6,3.5,1.1V49c0-3.9-2.3-5.9-6.8-5.9c-1.9,0-3.6,0.3-5.3,0.9c-1.7,0.6-3.5,1.6-5.3,2.8l-3-6.5
			c2.2-1.5,4.6-2.6,7-3.3c2.4-0.7,5-1.1,7.7-1.1c5.1,0,9.1,1.2,11.9,3.6c2.8,2.4,4.2,6,4.2,10.6V59c0,1,0.2,1.8,0.5,2.2
			c0.3,0.4,0.9,0.7,1.7,0.7v8.8c-0.9,0.2-1.7,0.4-2.5,0.4c-0.7,0.1-1.4,0.1-2,0.1c-1.9,0-3.4-0.4-4.4-1.1c-1-0.8-1.6-1.8-1.9-3.2
			l-0.2-1.6c-1.5,1.9-3.3,3.4-5.4,4.5C293.1,70.8,290.9,71.3,288.5,71.3z M291.6,63.9c1.1,0,2.2-0.2,3.3-0.6
			c1.1-0.4,1.9-0.9,2.6-1.6c1-0.8,1.5-1.6,1.5-2.5V56c-0.9-0.3-1.9-0.6-3-0.8c-1.1-0.2-2-0.3-3-0.3c-1.9,0-3.5,0.4-4.7,1.3
			c-1.2,0.9-1.8,2-1.8,3.4c0,1.3,0.5,2.3,1.4,3.1C288.9,63.5,290.1,63.9,291.6,63.9z"/>
		<path class="st2" d="M349.7,70.7h-10.4V51.5c0-2.2-0.4-3.9-1.3-4.9c-0.8-1-2-1.5-3.3-1.5c-0.7,0-1.5,0.2-2.2,0.5
			c-0.7,0.3-1.4,0.7-2.1,1.3c-0.7,0.5-1.3,1.2-1.8,1.9c-0.5,0.7-1,1.5-1.3,2.4v19.5h-10.4v-34h9.3v5.7c1.3-2,3-3.6,5.3-4.7
			c2.3-1.1,4.9-1.7,7.9-1.7c2.2,0,4,0.4,5.3,1.2c1.3,0.8,2.4,1.8,3.1,3.1c0.7,1.3,1.2,2.7,1.5,4.2c0.2,1.5,0.4,3,0.4,4.4V70.7z"/>
		<path class="st2" d="M378.3,68.9c-1.4,0.6-3.1,1.2-4.9,1.7c-1.8,0.5-3.7,0.8-5.5,0.8c-1.3,0-2.5-0.2-3.7-0.5
			c-1.1-0.3-2.2-0.8-3-1.6c-0.9-0.7-1.5-1.7-2-2.8c-0.5-1.2-0.7-2.6-0.7-4.2V44.5H354v-7.8h4.3V25.8h10.4v10.8h6.9v7.8h-6.9v14.2
			c0,1.1,0.3,1.9,0.8,2.4c0.6,0.5,1.3,0.7,2.1,0.7c0.8,0,1.6-0.1,2.4-0.4c0.8-0.3,1.5-0.5,2.1-0.8L378.3,68.9z"/>
		<path class="st0" d="M410.7,38.1c-0.1-0.2-0.6-0.5-1.4-1c-0.8-0.5-1.7-1-2.9-1.5c-1.2-0.5-2.4-1-3.8-1.4c-1.4-0.4-2.8-0.6-4.1-0.6
			c-3.8,0-5.7,1.3-5.7,3.8c0,0.8,0.2,1.4,0.6,1.9c0.4,0.5,1,1,1.8,1.4c0.8,0.4,1.8,0.8,3,1.1c1.2,0.3,2.6,0.7,4.2,1.2
			c2.2,0.6,4.2,1.3,6,2c1.8,0.7,3.3,1.6,4.5,2.7c1.2,1.1,2.2,2.3,2.9,3.9c0.7,1.5,1,3.3,1,5.4c0,2.6-0.5,4.8-1.5,6.6
			c-1,1.8-2.3,3.2-3.9,4.3c-1.6,1.1-3.4,1.9-5.5,2.4c-2.1,0.5-4.2,0.7-6.4,0.7c-1.7,0-3.4-0.1-5.2-0.4c-1.8-0.3-3.5-0.6-5.2-1.1
			c-1.7-0.5-3.3-1.1-4.9-1.8c-1.6-0.7-3-1.5-4.4-2.4l4.7-9.3c0.2,0.2,0.7,0.6,1.7,1.2c1,0.6,2.1,1.2,3.5,1.8c1.4,0.6,3,1.1,4.7,1.6
			c1.7,0.5,3.5,0.7,5.3,0.7c3.8,0,5.6-1.1,5.6-3.4c0-0.9-0.3-1.6-0.8-2.1c-0.6-0.6-1.3-1.1-2.3-1.5c-1-0.5-2.2-0.9-3.5-1.3
			c-1.4-0.4-2.8-0.8-4.4-1.3c-2.1-0.6-4-1.4-5.5-2.1c-1.6-0.8-2.8-1.6-3.9-2.6c-1-1-1.8-2.1-2.3-3.4c-0.5-1.3-0.7-2.8-0.7-4.5
			c0-2.4,0.5-4.6,1.4-6.4c0.9-1.9,2.1-3.4,3.7-4.7c1.6-1.3,3.4-2.2,5.4-2.9c2.1-0.6,4.2-1,6.5-1c1.6,0,3.2,0.2,4.7,0.5
			c1.6,0.3,3,0.7,4.5,1.2c1.4,0.5,2.8,1,4,1.6c1.2,0.6,2.4,1.2,3.4,1.8L410.7,38.1z"/>
		<path class="st0" d="M438.4,71.3c-2.9,0-5.4-0.5-7.7-1.4c-2.3-0.9-4.2-2.2-5.8-3.8c-1.6-1.6-2.8-3.4-3.6-5.5
			c-0.8-2.1-1.2-4.3-1.2-6.6c0-2.5,0.4-4.8,1.2-7c0.8-2.2,2-4.1,3.6-5.7c1.6-1.6,3.5-2.9,5.7-3.9c2.3-1,4.9-1.4,7.7-1.4
			c2.9,0,5.5,0.5,7.7,1.4c2.2,1,4.1,2.2,5.7,3.9c1.6,1.6,2.7,3.5,3.5,5.6c0.8,2.1,1.2,4.3,1.2,6.7c0,0.6,0,1.2-0.1,1.8
			c0,0.6-0.1,1.1-0.2,1.5h-25.2c0.2,2.3,1,4,2.5,5.2c1.5,1.2,3.2,1.8,5.1,1.8c1.5,0,3-0.4,4.4-1.1c1.4-0.7,2.3-1.7,2.8-3l8.8,2.5
			c-1.3,2.7-3.4,4.9-6.2,6.5C445.7,70.5,442.3,71.3,438.4,71.3z M445.6,50.4c-0.2-2.2-1-3.9-2.3-5.1c-1.3-1.3-3-1.9-5-1.9
			c-2,0-3.7,0.6-5,1.9c-1.3,1.3-2.1,3-2.3,5.1H445.6z"/>
		<path class="st0" d="M471,71.3c-1.7,0-3.3-0.3-4.7-0.8c-1.4-0.5-2.7-1.3-3.7-2.3c-1-1-1.9-2.1-2.5-3.4c-0.6-1.3-0.9-2.8-0.9-4.3
			c0-1.7,0.4-3.2,1.1-4.6c0.7-1.4,1.7-2.6,3-3.6c1.3-1,2.8-1.8,4.6-2.3c1.8-0.6,3.7-0.8,5.9-0.8c1.4,0,2.8,0.1,4.1,0.4
			c1.3,0.2,2.5,0.6,3.5,1.1V49c0-3.9-2.3-5.9-6.8-5.9c-1.9,0-3.6,0.3-5.3,0.9c-1.7,0.6-3.5,1.6-5.3,2.8l-3-6.5
			c2.2-1.5,4.6-2.6,7-3.3c2.4-0.7,5-1.1,7.7-1.1c5.1,0,9.1,1.2,11.9,3.6c2.8,2.4,4.2,6,4.2,10.6V59c0,1,0.2,1.8,0.5,2.2
			c0.3,0.4,0.9,0.7,1.7,0.7v8.8c-0.9,0.2-1.7,0.4-2.5,0.4c-0.7,0.1-1.4,0.1-2,0.1c-1.9,0-3.4-0.4-4.4-1.1c-1-0.8-1.6-1.8-1.9-3.2
			l-0.2-1.6c-1.5,1.9-3.3,3.4-5.4,4.5C475.5,70.8,473.3,71.3,471,71.3z M474,63.9c1.1,0,2.2-0.2,3.3-0.6c1.1-0.4,1.9-0.9,2.6-1.6
			c1-0.8,1.5-1.6,1.5-2.5V56c-0.9-0.3-1.9-0.6-3-0.8c-1.1-0.2-2-0.3-3-0.3c-1.9,0-3.5,0.4-4.7,1.3c-1.2,0.9-1.8,2-1.8,3.4
			c0,1.3,0.5,2.3,1.4,3.1C471.3,63.5,472.5,63.9,474,63.9z"/>
		<path class="st0" d="M520.9,45.5c-2.5,0-4.8,0.5-6.8,1.2c-2,0.8-3.5,1.9-4.4,3.5v20.4h-10.4v-34h9.5v6.9c1.2-2.3,2.7-4.1,4.5-5.4
			c1.8-1.3,3.8-2,5.9-2c0.5,0,0.8,0,1,0c0.2,0,0.4,0,0.6,0.1V45.5z"/>
		<path class="st0" d="M521.5,53.6c0-2.3,0.4-4.6,1.2-6.7c0.8-2.1,2-4,3.6-5.6c1.6-1.6,3.5-2.9,5.7-3.9c2.3-1,4.9-1.4,7.7-1.4
			c3.9,0,7.2,0.8,9.9,2.5c2.7,1.7,4.7,3.8,6,6.5l-10.1,3c-1.3-2.2-3.3-3.2-5.9-3.2c-2.2,0-4,0.8-5.4,2.4c-1.4,1.6-2.2,3.7-2.2,6.4
			c0,1.3,0.2,2.6,0.6,3.7c0.4,1.1,0.9,2,1.6,2.8c0.7,0.8,1.5,1.4,2.4,1.8c0.9,0.4,1.9,0.6,3,0.6c1.3,0,2.5-0.3,3.6-0.9
			c1.1-0.6,1.9-1.4,2.4-2.4l10.1,3.1c-1.3,2.6-3.3,4.8-6,6.5c-2.7,1.7-6.1,2.5-10,2.5c-2.9,0-5.4-0.5-7.7-1.5
			c-2.3-1-4.2-2.3-5.8-3.9c-1.6-1.6-2.8-3.5-3.6-5.6C521.9,58.2,521.5,56,521.5,53.6z"/>
		<path class="st0" d="M593.3,70.7h-10.4V51.5c0-2.2-0.4-3.8-1.3-4.9c-0.9-1-2.1-1.6-3.6-1.6c-0.6,0-1.3,0.1-2,0.4
			c-0.7,0.3-1.4,0.7-2.1,1.2c-0.7,0.5-1.3,1.2-1.8,1.9c-0.6,0.7-1,1.6-1.3,2.5v19.5h-10.4V23.3h10.4v19c1.3-2,2.9-3.6,5-4.7
			c2.1-1.1,4.3-1.7,6.8-1.7c2.3,0,4.1,0.4,5.5,1.2c1.4,0.8,2.5,1.8,3.2,3c0.8,1.2,1.3,2.6,1.5,4.1c0.3,1.5,0.4,3,0.4,4.5V70.7z"/>
	</g>
	<g>
		<path class="st3" d="M437.6,95.6h-10.3l-2.3,6.4h-2l8.6-22.7h1.8l8.6,22.7h-2L437.6,95.6z M427.9,93.9h9.1l-4.6-12.4L427.9,93.9z"
			/>
		<path class="st3" d="M468.6,101.9h-1.9l-13.1-19.4v19.4h-1.9V79.2h1.9l13.1,19.5V79.2h1.9V101.9z"/>
		<path class="st3" d="M480.8,101.9V79.2h6.3c1.9,0,3.5,0.4,5,1.3c1.5,0.8,2.6,2.1,3.5,3.6c0.8,1.6,1.2,3.4,1.2,5.4v2.1
			c0,2-0.4,3.8-1.2,5.4c-0.8,1.6-2,2.8-3.5,3.6c-1.5,0.9-3.2,1.3-5.1,1.3H480.8z M482.7,80.8v19.5h4.3c2.4,0,4.3-0.8,5.8-2.4
			c1.4-1.6,2.2-3.7,2.2-6.4v-2c0-2.6-0.7-4.7-2.1-6.3c-1.4-1.6-3.3-2.4-5.6-2.4H482.7z"/>
		<path class="st3" d="M516.6,92.5H510v9.5H508V79.2h7.4c2.4,0,4.3,0.6,5.7,1.8c1.4,1.2,2,2.8,2,4.9c0,1.5-0.4,2.7-1.3,3.8
			c-0.9,1.1-2,1.9-3.4,2.3l5.7,9.7v0.2h-2L516.6,92.5z M510,90.8h5.9c1.6,0,2.9-0.5,3.9-1.4s1.5-2.1,1.5-3.6c0-1.6-0.5-2.8-1.5-3.7
			c-1-0.9-2.4-1.3-4.3-1.3H510V90.8z"/>
		<path class="st3" d="M551.5,91.8c0,2.1-0.4,3.9-1.1,5.5c-0.7,1.6-1.8,2.8-3.1,3.7c-1.3,0.9-2.9,1.3-4.6,1.3
			c-2.7,0-4.8-0.9-6.4-2.8c-1.6-1.9-2.4-4.5-2.4-7.7v-2.3c0-2.1,0.4-3.9,1.1-5.5c0.7-1.6,1.8-2.8,3.1-3.7c1.3-0.9,2.9-1.3,4.6-1.3
			s3.3,0.4,4.6,1.3s2.4,2,3.1,3.6c0.7,1.5,1.1,3.3,1.1,5.4V91.8z M549.6,89.3c0-2.7-0.6-4.9-1.9-6.4c-1.2-1.5-2.9-2.3-5.1-2.3
			c-2.1,0-3.8,0.8-5,2.3c-1.3,1.6-1.9,3.7-1.9,6.5v2.4c0,2.7,0.6,4.8,1.9,6.4c1.2,1.6,2.9,2.4,5.1,2.4c2.2,0,3.9-0.8,5.1-2.3
			c1.2-1.6,1.8-3.7,1.8-6.5V89.3z"/>
		<path class="st3" d="M565.1,101.9h-1.9V79.2h1.9V101.9z"/>
		<path class="st3" d="M577.6,101.9V79.2h6.3c1.9,0,3.5,0.4,5,1.3c1.5,0.8,2.6,2.1,3.5,3.6c0.8,1.6,1.2,3.4,1.2,5.4v2.1
			c0,2-0.4,3.8-1.2,5.4c-0.8,1.6-2,2.8-3.5,3.6c-1.5,0.9-3.2,1.3-5.1,1.3H577.6z M579.6,80.8v19.5h4.3c2.4,0,4.3-0.8,5.8-2.4
			c1.4-1.6,2.2-3.7,2.2-6.4v-2c0-2.6-0.7-4.7-2.1-6.3c-1.4-1.6-3.3-2.4-5.6-2.4H579.6z"/>
	</g>
</g>
</svg>
