<?xml version="1.0" encoding="UTF-8"?>
<svg width="90px" height="95px" viewBox="0 0 90 95" version="1.1" xmlns="http://www.w3.org/2000/svg" xmlns:xlink="http://www.w3.org/1999/xlink">
    <!-- Generator: Sketch 42 (36781) - http://www.bohemiancoding.com/sketch -->
    <title>icon-custom</title>
    <desc>Created with Sketch.</desc>
    <defs>
        <linearGradient x1="42.966%" y1="14.059%" x2="85.153%" y2="110.153%" id="linearGradient-1">
            <stop stop-color="#2CA5C3" offset="0%"></stop>
            <stop stop-color="#136B90" offset="100%"></stop>
        </linearGradient>
        <linearGradient x1="10.934%" y1="-27.347%" x2="72.3528058%" y2="77.8324593%" id="linearGradient-2">
            <stop stop-color="#2EDE98" offset="0%"></stop>
            <stop stop-color="#1CC7D0" offset="100%"></stop>
        </linearGradient>
    </defs>
    <g id="Page-1" stroke="none" stroke-width="1" fill="none" fill-rule="evenodd">
        <g id="icon-custom" fill-rule="nonzero">
            <g transform="translate(13.000000, 13.000000)">
                <g id="icon-search">
                    <g id="icon-widget-stats">
                        <g id="Group">
                            <g id="Rectangle-path">
                                <rect fill="url(#linearGradient-1)" x="0" y="5" width="64" height="64" rx="4"></rect>
                                <rect fill="url(#linearGradient-2)" x="0" y="0" width="64" height="64" rx="4"></rect>
                            </g>
                        </g>
                    </g>
                </g>
                <g id="Group-2" transform="translate(17.000000, 18.000000)" fill="#FFFFFF">
                    <path d="M0.625,29.985 C0.4625,29.985 0.3025,29.92125 0.1825,29.8025 C0.005,29.625 -0.04875,29.36 0.045,29.12875 L2.545,22.87875 C2.575,22.8 2.62375,22.72875 2.6825,22.66875 L24.42,0.94125 C25.6525,-0.29125 27.80125,-0.29125 29.03375,0.94125 C29.6625,1.56875 30.0025,2.3925 30,3.2675 C29.9975,4.14125 29.65375,4.96 29.0325,5.57375 C11.25375,23.14375 7.81875,26.68 7.42125,27.16125 C7.3525,27.28625 7.24125,27.385 7.10625,27.44 L0.85625,29.94 C0.7825,29.97 0.7025,29.985 0.625,29.985 Z M3.6575,23.46125 L1.74625,28.2375 L6.56,26.3125 C7.53125,25.14625 11.54875,21.095 28.1525,4.68375 C28.53625,4.30625 28.74875,3.80125 28.75,3.26375 C28.75125,2.72375 28.5425,2.215 28.15875,1.8325 C27.38,1.055 26.065,1.06375 25.30375,1.82375 L3.6575,23.46125 Z" id="Shape"></path>
                    <path d="M7.5,26.86 C7.34,26.86 7.18,26.79875 7.0575,26.6775 L3.3075,22.9275 C3.06375,22.68375 3.06375,22.2875 3.3075,22.04375 C3.55125,21.8 3.9475,21.8 4.19125,22.04375 L7.94125,25.79375 C8.185,26.0375 8.185,26.43375 7.94125,26.6775 C7.82,26.79875 7.66,26.86 7.5,26.86 Z" id="Shape"></path>
                    <path d="M25,9.36 C24.84,9.36 24.68,9.29875 24.5575,9.1775 L20.8075,5.4275 C20.56375,5.18375 20.56375,4.7875 20.8075,4.54375 C21.05125,4.3 21.4475,4.3 21.69125,4.54375 L25.44125,8.29375 C25.685,8.5375 25.685,8.93375 25.44125,9.1775 C25.32,9.29875 25.16,9.36 25,9.36 Z" id="Shape"></path>
                </g>
            </g>
        </g>
    </g>
</svg>