<?xml version="1.0" encoding="UTF-8"?>
<svg width="90px" height="95px" viewBox="0 0 90 95" version="1.1" xmlns="http://www.w3.org/2000/svg" xmlns:xlink="http://www.w3.org/1999/xlink">
    <!-- Generator: Sketch 42 (36781) - http://www.bohemiancoding.com/sketch -->
    <title>icon-stats</title>
    <desc>Created with Sketch.</desc>
    <defs>
        <linearGradient x1="42.966%" y1="14.059%" x2="85.153%" y2="110.153%" id="linearGradient-1">
            <stop stop-color="#2CA5C3" offset="0%"></stop>
            <stop stop-color="#136B90" offset="100%"></stop>
        </linearGradient>
        <linearGradient x1="10.934%" y1="-27.347%" x2="72.3528058%" y2="77.8324593%" id="linearGradient-2">
            <stop stop-color="#2EDE98" offset="0%"></stop>
            <stop stop-color="#1CC7D0" offset="100%"></stop>
        </linearGradient>
    </defs>
    <g id="Page-1" stroke="none" stroke-width="1" fill="none" fill-rule="evenodd">
        <g id="icon-stats" fill-rule="nonzero">
            <g transform="translate(13.000000, 13.000000)" id="icon-widget-stats">
                <g>
                    <g id="Group">
                        <g id="Rectangle-path">
                            <rect fill="url(#linearGradient-1)" x="0" y="5" width="64" height="64" rx="4"></rect>
                            <rect fill="url(#linearGradient-2)" x="0" y="0" width="64" height="64" rx="4"></rect>
                        </g>
                        <path d="M34.56,21.378 C35.13,21.378 35.57,21.538 35.878,21.86 C36.188,22.18 36.341,22.59 36.341,23.09 C36.341,23.684 36.111,24.207 35.649,24.66 C35.186,25.11 34.622,25.337 33.957,25.337 C33.387,25.337 32.947,25.182 32.637,24.873 C32.33,24.563 32.187,24.136 32.211,23.589 C32.211,23.039 32.418,22.535 32.833,22.072 C33.249,21.608 33.825,21.376 34.561,21.376 L34.56,21.378 Z M30.89,39.208 C29.703,39.208 29.383,38.151 29.93,36.035 L30.998,31.505 C31.164,30.84 31.164,30.507 30.998,30.507 C30.855,30.507 30.535,30.614 30.036,30.827 C29.536,31.042 29.11,31.267 28.753,31.507 L28.29,30.721 C29.36,29.796 30.48,29.047 31.657,28.477 C32.832,27.907 33.729,27.621 34.347,27.621 C35.273,27.621 35.487,28.583 34.987,30.508 L33.74,35.25 C33.55,36.01 33.587,36.39 33.85,36.39 C34.37,36.39 35.072,36.035 35.95,35.32 L36.485,36.035 C35.487,37.057 34.448,37.841 33.368,38.388 C32.288,38.935 31.462,39.208 30.892,39.208 L30.89,39.208 Z" id="Shape" fill="#FFFFFF"></path>
                    </g>
                </g>
            </g>
        </g>
    </g>
</svg>