<svg width="46" height="46" viewBox="0 0 46 46" xmlns="http://www.w3.org/2000/svg"><g fill="none" fill-rule="evenodd"><path fill="#1D3657" d="M22.627 0l22.628 22.627-22.628 22.628L0 22.627z"/><path fill="#46AEDA" d="M19.092 6.364l3.535-3.536L26.87 7.07l-1.414 1.415-2.83-2.828-2.12 2.12z"/><path fill="#FE336F" d="M26.163 38.89l-3.536 3.536-12.02-12.02 1.414-1.415L22.628 39.6l2.122-2.12z"/><path fill="#F5A623" d="M27.577 37.477l14.85-14.85L28.283 8.485 26.87 9.9l12.728 12.727-13.435 13.435z"/><path fill="#50E3C2" d="M9.192 16.263l-6.364 6.364 6.364 6.364 1.415-1.413-4.95-4.95 4.95-4.95z"/><path fill="#BD0FE1" d="M10.607 14.85l7.07-7.072 1.415 1.414-7.07 7.07z"/><g fill="#FFF"><path d="M16.05 23.647c0 3.787 2.968 6.86 6.63 6.86 3.664 0 6.632-3.073 6.632-6.86 0-3.788-2.968-6.86-6.63-6.86-3.664 0-6.633 3.072-6.633 6.86zm6.63-5.095c2.716 0 4.926 2.286 4.926 5.095 0 2.81-2.21 5.094-4.925 5.094s-4.925-2.284-4.925-5.093c0-2.81 2.21-5.095 4.926-5.095z"/><path d="M23.96 19.69l-.97 3.55 3.12-1.767a3.597 3.597 0 0 0-2.15-1.782zM24.95 15.952v-.61c0-.675-.527-1.222-1.177-1.223h-2.058c-.65 0-1.176.546-1.176 1.22v.602a7.355 7.355 0 0 1 4.402.09c.002-.028.008-.053.008-.08zM17.756 17.227a1.146 1.146 0 0 0-1.664 0l-.208.216c-.46.477-.46 1.25 0 1.728l.22.23a7.905 7.905 0 0 1 1.77-2.05l-.118-.123z"/></g></g></svg>