<?xml version="1.0" encoding="UTF-8"?>
<svg width="460px" height="883px" viewBox="0 0 460 883" version="1.1" xmlns="http://www.w3.org/2000/svg" xmlns:xlink="http://www.w3.org/1999/xlink">
    <!-- Generator: Sketch 42 (36781) - http://www.bohemiancoding.com/sketch -->
    <title>Nexus 5</title>
    <desc>Created with Sketch.</desc>
    <defs>
        <path d="M208,7.00022539e-06 C298.372011,-0.00808307185 352.90059,6.99828436 372.941253,9.25701342 C404.530948,12.8174026 415.107304,27.0589593 415.118157,42.0780796 C415.143162,76.679249 415.2891,733.446291 415.118157,783.641659 C415.027219,810.344578 404.588256,821.025751 376.508531,826.366329 C356.605901,830.151682 270.199513,836.999873 208.26071,837 C146.321908,837.000138 59.3940994,830.151682 39.4914691,826.366329 C11.4117444,821.025751 0.972781052,810.344578 0.881842706,783.641659 C0.710899893,733.446291 0.856837747,76.679249 0.881842706,42.0780796 C0.892696208,27.0589593 11.4690523,12.8174026 43.0587472,9.25701342 C63.0994096,6.99828436 117.627989,0.00808470401 208,7.00022539e-06 Z" id="path-1"></path>
        <filter x="-50%" y="-50%" width="200%" height="200%" filterUnits="objectBoundingBox" id="filter-2">
            <feOffset dx="0" dy="1" in="SourceAlpha" result="shadowOffsetOuter1"></feOffset>
            <feGaussianBlur stdDeviation="11.5" in="shadowOffsetOuter1" result="shadowBlurOuter1"></feGaussianBlur>
            <feComposite in="shadowBlurOuter1" in2="SourceAlpha" operator="out" result="shadowBlurOuter1"></feComposite>
            <feColorMatrix values="0 0 0 0 0.0941176471   0 0 0 0 0.137254902   0 0 0 0 0.349019608  0 0 0 1 0" type="matrix" in="shadowBlurOuter1"></feColorMatrix>
        </filter>
        <mask id="mask-3" maskContentUnits="userSpaceOnUse" maskUnits="objectBoundingBox" x="0" y="0" width="414.4" height="837" fill="white">
            <use xlink:href="#path-1"></use>
        </mask>
        <path d="M68.7,48.9882943 C71.4061954,48.9882943 73.6,46.7950138 73.6,44.0894649 C73.6,41.383916 71.4061954,39.1906355 68.7,39.1906355 C65.9938046,39.1906355 63.8,41.383916 63.8,44.0894649 C63.8,46.7950138 65.9938046,48.9882943 68.7,48.9882943 Z" id="path-4"></path>
        <mask id="mask-5" maskContentUnits="userSpaceOnUse" maskUnits="objectBoundingBox" x="0" y="0" width="9.8" height="9.79765886" fill="white">
            <use xlink:href="#path-4"></use>
        </mask>
        <path d="M208.7,53.187291 C214.49899,53.187291 219.2,48.4874042 219.2,42.6897993 C219.2,36.8921945 214.49899,32.1923077 208.7,32.1923077 C202.90101,32.1923077 198.2,36.8921945 198.2,42.6897993 C198.2,48.4874042 202.90101,53.187291 208.7,53.187291 Z" id="path-6"></path>
        <mask id="mask-7" maskContentUnits="userSpaceOnUse" maskUnits="objectBoundingBox" x="0" y="0" width="21" height="20.9949833" fill="white">
            <use xlink:href="#path-6"></use>
        </mask>
        <polygon id="path-8" points="0.101171875 0 30.9011719 0 15.5011719 18.1956522"></polygon>
        <path d="M23.8,18.1956522 C23.8,15.1035963 21.2927947,12.59699 18.2,12.59699 C15.1072053,12.59699 12.6,15.1035963 12.6,18.1956522 C12.6,21.287708 15.1072053,23.7943144 18.2,23.7943144 C21.2927947,23.7943144 23.8,21.287708 23.8,18.1956522 Z M15.4,18.1956522 C15.4,16.6496242 16.6536026,15.3963211 18.2,15.3963211 C19.7463974,15.3963211 21,16.6496242 21,18.1956522 C21,19.7416802 19.7463974,20.9949833 18.2,20.9949833 C16.6536026,20.9949833 15.4,19.7416802 15.4,18.1956522 Z" id="path-10"></path>
        <polygon id="path-12" points="17.1472656 0.00683430445 17.1472656 16.8014541 0.4921875 16.7098744"></polygon>
    </defs>
    <g id="Community" stroke="none" stroke-width="1" fill="none" fill-rule="evenodd">
        <g id="Community-Instantsearch-React" transform="translate(-490.000000, -395.000000)">
            <g id="Group-3" transform="translate(-55.000000, 417.000000)">
                <g id="Nexus-5" transform="translate(567.000000, 0.000000)">
                    <g id="Shell">
                        <use fill="black" fill-opacity="1" filter="url(#filter-2)" xlink:href="#path-1"></use>
                        <use stroke="#394A9B" mask="url(#mask-3)" stroke-width="4" fill="#0F1A44" fill-rule="evenodd" xlink:href="#path-1"></use>
                    </g>
                    <rect id="Screen" x="21.1" y="72.7826087" width="373.8" height="433.896321"></rect>
                    <rect id="Keyboard_background" x="19" y="71.3829431" width="378" height="28.6931438"></rect>
                    <path d="M19.5,66.5 L395.884112,66.5" id="Line" stroke="#394A9B" stroke-linecap="square"></path>
                    <use id="Camera" stroke="#394A9B" mask="url(#mask-5)" stroke-width="2.8" xlink:href="#path-4"></use>
                    <use id="Speaker" stroke="#394A9B" mask="url(#mask-7)" stroke-width="2.8" xlink:href="#path-6"></use>
                    <g id="Status_bar" transform="translate(295.500000, 72.482441)">
                        <g id="Wifi_icon" transform="translate(0.000000, 0.399666)">
                            <mask id="mask-9" fill="white">
                                <use xlink:href="#path-8"></use>
                            </mask>
                            <g id="Wifi_triangle_mask"></g>
                            <g id="Wifi_levels" mask="url(#mask-9)">
                                <g transform="translate(-2.800000, 1.399666)">
                                    <path d="M36.4,18.1956522 C36.4,8.14647051 28.2515829,0 18.2,0 C8.14841709,0 0,8.14647051 0,18.1956522 C0,28.2448338 8.14841709,36.3913043 18.2,36.3913043 C28.2515829,36.3913043 36.4,28.2448338 36.4,18.1956522 Z M2.8,18.1956522 C2.8,9.69249838 9.69481439,2.7993311 18.2,2.7993311 C26.7051856,2.7993311 33.6,9.69249838 33.6,18.1956522 C33.6,26.698806 26.7051856,33.5919732 18.2,33.5919732 C9.69481439,33.5919732 2.8,26.698806 2.8,18.1956522 Z" id="Wifi_level_4" stroke="#394A9B" stroke-width="1" fill="none"></path>
                                    <path d="M32.2,18.1956522 C32.2,10.4655124 25.9319868,4.19899666 18.2,4.19899666 C10.4680132,4.19899666 4.2,10.4655124 4.2,18.1956522 C4.2,25.9257919 10.4680132,32.1923077 18.2,32.1923077 C25.9319868,32.1923077 32.2,25.9257919 32.2,18.1956522 Z M7,18.1956522 C7,12.0115403 12.0144105,6.99832776 18.2,6.99832776 C24.3855895,6.99832776 29.4,12.0115403 29.4,18.1956522 C29.4,24.379764 24.3855895,29.3929766 18.2,29.3929766 C12.0144105,29.3929766 7,24.379764 7,18.1956522 Z" id="Wifi_level_3" stroke="#394A9B" stroke-width="1" fill="none"></path>
                                    <path d="M28,18.1956522 C28,12.7845544 23.6123908,8.39799331 18.2,8.39799331 C12.7876092,8.39799331 8.4,12.7845544 8.4,18.1956522 C8.4,23.60675 12.7876092,27.993311 18.2,27.993311 C23.6123908,27.993311 28,23.60675 28,18.1956522 Z M11.2,18.1956522 C11.2,14.3305822 14.3340065,11.1973244 18.2,11.1973244 C22.0659935,11.1973244 25.2,14.3305822 25.2,18.1956522 C25.2,22.0607221 22.0659935,25.1939799 18.2,25.1939799 C14.3340065,25.1939799 11.2,22.0607221 11.2,18.1956522 Z" id="Wifi_level_2" stroke="#394A9B" stroke-width="1" fill="none"></path>
                                    <mask id="mask-11" fill="white">
                                        <use xlink:href="#path-10"></use>
                                    </mask>
                                    <use id="Wifi_level_1" stroke="#394A9B" stroke-width="1" fill="none" xlink:href="#path-10"></use>
                                </g>
                            </g>
                        </g>
                        <g id="Network_icon" transform="translate(23.800000, 1.799331)">
                            <mask id="mask-13" fill="white">
                                <use xlink:href="#path-12"></use>
                            </mask>
                            <g id="Network_triangle_mask"></g>
                            <g id="Network_levels" mask="url(#mask-13)" fill="#394A9B">
                                <g transform="translate(1.400000, 0.000000)">
                                    <rect id="Network_level_4" x="12.6" y="0" width="2.8" height="16.7959866"></rect>
                                    <rect id="Network_level_3" x="8.4" y="0" width="2.8" height="16.7959866"></rect>
                                    <rect id="Network_level_2" x="4.2" y="0" width="2.8" height="16.7959866"></rect>
                                    <rect id="Network_level_1" x="0" y="0" width="2.8" height="16.7959866"></rect>
                                </g>
                            </g>
                        </g>
                        <path d="M46.9006102,3.19899666 L56.6993898,3.19899666 C57.0768845,3.19899666 57.4,3.51309377 57.4,3.90055219 L57.4,17.8937622 C57.4,18.2737437 57.0863261,18.5953177 56.6993898,18.5953177 L46.9006102,18.5953177 C46.5231155,18.5953177 46.2,18.2812206 46.2,17.8937622 L46.2,3.90055219 C46.2,3.5205707 46.5136739,3.19899666 46.9006102,3.19899666 Z M49.3503051,1.7993311 L54.2496949,1.7993311 C54.4384422,1.7993311 54.6,1.95746177 54.6,2.15252582 L54.6,3.19899666 L49,3.19899666 L49,2.15252582 C49,1.94911984 49.1568369,1.7993311 49.3503051,1.7993311 Z" id="Battery_icon" fill="#394A9B"></path>
                        <path d="M68.6907031,17 L68.6907031,14.3428711 L62.4433399,14.3428711 L62.4433399,12.8854492 C62.7277163,12.3759415 63.0654082,11.7983105 63.4564258,11.1525391 C63.8474434,10.5067676 64.279926,9.81064826 64.7538867,9.06416016 C65.2278474,8.31767205 65.7329042,7.53268641 66.2690723,6.70917969 C66.8052403,5.88567297 67.3606547,5.04144313 67.935332,4.17646484 L70.2547656,4.17646484 L70.2547656,12.9121094 L72.076543,12.9121094 L72.076543,14.3428711 L70.2547656,14.3428711 L70.2547656,17 L68.6907031,17 Z M64.0784961,12.8143555 L64.0784961,12.9209961 L68.6995899,12.9209961 L68.6995899,5.66054688 L68.5929492,5.66054688 C68.2671012,6.14043209 67.9205227,6.66029994 67.5532031,7.22016602 C67.1858836,7.7800321 66.8067207,8.36654967 66.4157031,8.97973633 C66.0246856,9.59292299 65.6336738,10.2223926 65.2426563,10.8681641 C64.8516387,11.5139355 64.4635892,12.1626595 64.0784961,12.8143555 Z M75.1135156,15.5336914 C75.4334391,15.5336914 75.7059624,15.4196463 75.9310938,15.1915527 C76.1562251,14.9634591 76.2687891,14.6924169 76.2687891,14.378418 C76.2687891,14.0584945 76.1562251,13.7859712 75.9310938,13.5608398 C75.7059624,13.3357085 75.4334391,13.2231445 75.1135156,13.2231445 C74.7995167,13.2231445 74.5284745,13.3357085 74.3003809,13.5608398 C74.0722873,13.7859712 73.9582422,14.0584945 73.9582422,14.378418 C73.9582422,14.6924169 74.0722873,14.9634591 74.3003809,15.1915527 C74.5284745,15.4196463 74.7995167,15.5336914 75.1135156,15.5336914 Z M75.1135156,8.69980469 C75.4334391,8.69980469 75.7059624,8.5857596 75.9310938,8.35766602 C76.1562251,8.12957243 76.2687891,7.85853022 76.2687891,7.54453125 C76.2687891,7.22460778 76.1562251,6.95208446 75.9310938,6.72695313 C75.7059624,6.50182179 75.4334391,6.38925781 75.1135156,6.38925781 C74.7995167,6.38925781 74.5284745,6.50182179 74.3003809,6.72695313 C74.0722873,6.95208446 73.9582422,7.22460778 73.9582422,7.54453125 C73.9582422,7.85853022 74.0722873,8.12957243 74.3003809,8.35766602 C74.5284745,8.5857596 74.7995167,8.69980469 75.1135156,8.69980469 Z M84.3978516,17 L84.3978516,14.3428711 L78.1504883,14.3428711 L78.1504883,12.8854492 C78.4348647,12.3759415 78.7725566,11.7983105 79.1635742,11.1525391 C79.5545918,10.5067676 79.9870745,9.81064826 80.4610352,9.06416016 C80.9349959,8.31767205 81.4400527,7.53268641 81.9762207,6.70917969 C82.5123887,5.88567297 83.0678031,5.04144313 83.6424805,4.17646484 L85.9619141,4.17646484 L85.9619141,12.9121094 L87.7836914,12.9121094 L87.7836914,14.3428711 L85.9619141,14.3428711 L85.9619141,17 L84.3978516,17 Z M79.7856445,12.8143555 L79.7856445,12.9209961 L84.4067383,12.9209961 L84.4067383,5.66054688 L84.3000977,5.66054688 C83.9742497,6.14043209 83.6276711,6.66029994 83.2603516,7.22016602 C82.893032,7.7800321 82.5138691,8.36654967 82.1228516,8.97973633 C81.731834,9.59292299 81.3408223,10.2223926 80.9498047,10.8681641 C80.5587871,11.5139355 80.1707376,12.1626595 79.7856445,12.8143555 Z M93.8599219,17.3021484 C92.4143417,17.3021484 91.2946264,16.7156309 90.5007422,15.5425781 C89.706858,14.3695254 89.3099219,12.7166122 89.3099219,10.5837891 C89.3099219,8.46873942 89.7098202,6.82175069 90.5096289,5.64277344 C91.3094376,4.46379619 92.4261907,3.87431641 93.8599219,3.87431641 C95.2877285,3.87431641 96.4000383,4.46527729 97.1968848,5.6472168 C97.9937312,6.8291563 98.3921484,8.48355056 98.3921484,10.6104492 C98.3921484,12.7373479 97.9966934,14.3843366 97.2057715,15.5514648 C96.4148496,16.7185931 95.2995775,17.3021484 93.8599219,17.3021484 Z M93.8599219,15.9069336 C94.8078433,15.9069336 95.5321036,15.4492722 96.0327246,14.5339355 C96.5333456,13.6185989 96.7836523,12.3018966 96.7836523,10.5837891 C96.7836523,8.88345504 96.5303834,7.57415824 96.0238379,6.65585938 C95.5172924,5.73756051 94.7959943,5.27841797 93.8599219,5.27841797 C92.9238495,5.27841797 92.1995891,5.73904162 91.6871191,6.66030273 C91.1746491,7.58156385 90.918418,8.88937955 90.918418,10.5837891 C90.918418,12.2959721 91.1716869,13.6111933 91.6782324,14.5294922 C92.1847779,15.447791 92.9120005,15.9069336 93.8599219,15.9069336 Z" id="Time-(4:40)" fill="#394A9B"></path>
                    </g>
                </g>
            </g>
        </g>
    </g>
</svg>