<?xml version="1.0" encoding="UTF-8"?>
<svg width="80px" height="80px" viewBox="0 0 80 80" version="1.1" xmlns="http://www.w3.org/2000/svg" xmlns:xlink="http://www.w3.org/1999/xlink">
    <!-- Generator: Sketch 42 (36781) - http://www.bohemiancoding.com/sketch -->
    <title>offline-icon</title>
    <desc>Created with Sketch.</desc>
    <defs></defs>
    <g id="Page-1" stroke="none" stroke-width="1" fill="none" fill-rule="evenodd">
        <g id="offline-icon" fill-rule="nonzero">
            <g id="wifi-error.2" transform="translate(7.000000, 14.000000)">
                <g id="Layer_1">
                    <g id="Group">
                        <g id="Shape" fill="#182359">
                            <path d="M55.9173287,15.3728398 C55.545276,15.3728398 55.175959,15.2219282 54.9051266,14.9228488 C47.8881037,7.17971074 38.5731083,2.91577148 28.6699415,2.91577148 C18.7667747,2.91577148 9.45177939,7.17971074 2.43475648,14.9228488 C1.92865542,15.4880814 1.06418008,15.5237515 0.503365386,15.0161396 C-0.0574493103,14.5085278 -0.0984845319,13.6387281 0.410352216,13.0789832 C7.94989027,4.75414941 17.9871055,0.171923828 28.6699415,0.171923828 C39.3527776,0.171923828 49.3899928,4.75414941 56.9295308,13.0789832 C57.4383676,13.641472 57.3945967,14.5085278 56.8365177,15.0188835 C56.5766279,15.2548544 56.2456105,15.3728398 55.9173287,15.3728398 Z"></path>
                            <path d="M48.8866274,23.132441 C48.5145747,23.132441 48.1452577,22.9815294 47.8744253,22.68245 C42.7368155,17.0136607 35.9167617,13.8911621 28.6699415,13.8911621 C21.4231214,13.8911621 14.6030675,17.0136607 9.46545779,22.6851938 C8.95935673,23.2476826 8.09488139,23.2888403 7.53133101,22.7784847 C6.973252,22.268129 6.93221678,21.4010731 7.43831784,20.8385844 C13.1039141,14.5880994 20.6434522,11.1473145 28.6699415,11.1473145 C36.6964309,11.1473145 44.2359689,14.5880994 49.8988295,20.8385844 C50.4076663,21.4010731 50.3638954,22.268129 49.8058164,22.7784847 C49.5431909,23.0144556 49.2149092,23.132441 48.8866274,23.132441 Z"></path>
                            <path d="M15.4866926,30.894786 C15.1584109,30.894786 14.8301291,30.7768006 14.5675037,30.5380858 C14.0094247,30.0277302 13.9683894,29.1606743 14.4744905,28.5981855 C22.1781695,20.0922578 34.2534673,20.6053573 40.6959971,26.4223144 C41.2568118,26.9299262 41.3033184,27.7942382 40.7972174,28.3594708 C40.2911163,28.9247034 39.4293766,28.968605 38.8658263,28.4609932 C33.3999347,23.5275551 23.1083011,23.1516479 16.4988948,30.444795 C16.2280623,30.7438744 15.8560096,30.894786 15.4866926,30.894786 Z"></path>
                            <path d="M28.6699415,46.817334 C24.9001725,46.817334 21.8307379,43.7387369 21.8307379,39.9577148 C21.8307379,36.1766928 24.9001725,33.0980957 28.6699415,33.0980957 C32.4397106,33.0980957 35.5091451,36.1766928 35.5091451,39.9577148 C35.5091451,43.7387369 32.4397106,46.817334 28.6699415,46.817334 Z M28.6699415,35.8419434 C26.407533,35.8419434 24.5664194,37.6885528 24.5664194,39.9577148 C24.5664194,42.2268769 26.407533,44.0734863 28.6699415,44.0734863 C30.9323501,44.0734863 32.7734637,42.2268769 32.7734637,39.9577148 C32.7734637,37.6885528 30.9323501,35.8419434 28.6699415,35.8419434 Z"></path>
                        </g>
                        <g transform="translate(35.221034, 21.950781)" id="Shape" fill="#2DDE98">
                            <path d="M15.3343586,30.354248 C7.03703679,30.354248 0.288110671,23.5851759 0.288110671,15.2630859 C0.288110671,6.940996 7.03703679,0.171923828 15.3343586,0.171923828 C23.6316804,0.171923828 30.3806065,6.940996 30.3806065,15.2630859 C30.3806065,23.5851759 23.6316804,30.354248 15.3343586,30.354248 Z M15.3343586,2.91577148 C8.54713295,2.91577148 3.02379211,8.4555999 3.02379211,15.2630859 C3.02379211,22.070572 8.54713295,27.6104004 15.3343586,27.6104004 C22.1215843,27.6104004 27.6449251,22.070572 27.6449251,15.2630859 C27.6449251,8.4555999 22.1215843,2.91577148 15.3343586,2.91577148 Z"></path>
                            <path d="M20.8057215,22.1227051 C20.4555543,22.1227051 20.105387,21.9882565 19.8372903,21.7221033 L8.89456449,10.7467127 C8.36110661,10.2116624 8.36110661,9.3418627 8.89456449,8.8068124 C9.42802237,8.27176211 10.2952334,8.27176211 10.8286913,8.8068124 L21.771417,19.782203 C22.3048749,20.3172533 22.3048749,21.187053 21.771417,21.7221033 C21.5060559,21.9882565 21.1558887,22.1227051 20.8057215,22.1227051 Z"></path>
                            <path d="M9.86299572,22.1227051 C9.5128285,22.1227051 9.16266127,21.9882565 8.89456449,21.7221033 C8.36110661,21.187053 8.36110661,20.3172533 8.89456449,19.782203 L19.8372903,8.8068124 C20.3707481,8.27176211 21.2379592,8.27176211 21.771417,8.8068124 C22.3048749,9.3418627 22.3048749,10.2116624 21.771417,10.7467127 L10.8286913,21.7221033 C10.5633302,21.9882565 10.2131629,22.1227051 9.86299572,22.1227051 Z"></path>
                        </g>
                    </g>
                </g>
            </g>
        </g>
    </g>
</svg>