<?xml version="1.0" encoding="UTF-8"?>
<svg width="589px" height="441px" viewBox="0 0 589 441" version="1.1" xmlns="http://www.w3.org/2000/svg" xmlns:xlink="http://www.w3.org/1999/xlink">
    <!-- Generator: Sketch 42 (36781) - http://www.bohemiancoding.com/sketch -->
    <title>phone-build-3D</title>
    <desc>Created with Sketch.</desc>
    <defs>
        <path d="M556.964104,276.745477 C557.175181,270.624235 552.848096,264.186377 544.193927,259.120522 L210.902866,66.7235609 C195.388684,57.7527755 171.959104,56.8029276 158.555695,64.5072492 L30.4317722,138.595382 C24.2049918,142.183697 21.2499095,147.038475 21.3554482,152.10433 L21.3554482,152.948639 L21.3554482,153.792948 L21.3554482,154.637257 L21.3554482,155.481567 L21.3554482,156.325876 L21.3554482,157.170185 L21.3554482,158.014494 L21.3554482,158.858803 L21.3554482,159.703113 L21.3554482,160.547422 L21.3554482,161.391731 L21.3554482,162.23604 L21.3554482,163.08035 L21.3554482,163.924659 L21.3554482,164.768968 L21.3554482,165.613277 L21.3554482,166.457586 L21.3554482,167.301896 L21.3554482,168.146205 L21.3554482,168.990514 L21.3554482,169.834823 L21.3554482,170.679132 L21.3554482,171.523442 L21.3554482,172.367751 L21.3554482,173.21206 L21.3554482,174.056369 L21.3554482,174.900678 L21.3554482,175.744988 L21.3554482,176.589297 C21.1443709,182.710539 25.4714556,189.148396 34.125625,194.214252 L367.311147,386.611213 C382.825329,395.581998 406.25491,396.531846 419.658318,388.827525 L547.782241,314.84493 C554.009021,311.256616 556.964104,306.401838 556.858565,301.335983 L556.858565,300.491674 L556.858565,299.647364 L556.858565,298.803055 L556.858565,297.958746 L556.858565,297.114437 L556.858565,296.270127 L556.858565,295.425818 L556.858565,294.581509 L556.858565,293.7372 L556.858565,292.892891 L556.858565,292.048581 L556.858565,291.204272 L556.858565,290.359963 L556.858565,289.515654 L556.858565,288.671345 L556.858565,287.827035 L556.858565,286.982726 L556.858565,286.138417 L556.858565,285.294108 L556.858565,284.449799 L556.858565,283.605489 L556.858565,282.76118 L556.858565,281.916871 L556.858565,281.072562 L556.858565,280.228252 L556.858565,279.383943 L556.858565,278.539634 L556.858565,277.695325 C556.964104,277.27317 556.964104,277.062093 556.964104,276.745477 Z" id="path-1"></path>
        <filter x="-50%" y="-50%" width="200%" height="200%" filterUnits="objectBoundingBox" id="filter-2">
            <feOffset dx="0" dy="14" in="SourceAlpha" result="shadowOffsetOuter1"></feOffset>
            <feGaussianBlur stdDeviation="10" in="shadowOffsetOuter1" result="shadowBlurOuter1"></feGaussianBlur>
            <feColorMatrix values="0 0 0 0 0.674509804   0 0 0 0 0.701960784   0 0 0 0 0.725490196  0 0 0 0.584154212 0" type="matrix" in="shadowBlurOuter1"></feColorMatrix>
        </filter>
        <linearGradient x1="31.9573646%" y1="67.9867945%" x2="67.9940771%" y2="31.9641844%" id="linearGradient-3">
            <stop stop-color="#2CDD97" offset="0%"></stop>
            <stop stop-color="#1DC5CE" offset="100%"></stop>
        </linearGradient>
        <linearGradient x1="0.0025727599%" y1="49.9795371%" x2="100.009151%" y2="49.9795371%" id="linearGradient-4">
            <stop stop-color="#201C38" offset="0%"></stop>
            <stop stop-color="#3E396B" offset="100%"></stop>
        </linearGradient>
        <linearGradient x1="100%" y1="0%" x2="0%" y2="100%" id="linearGradient-5">
            <stop stop-color="#2CDD97" offset="0%"></stop>
            <stop stop-color="#1DC5CE" offset="100%"></stop>
        </linearGradient>
        <linearGradient x1="26.8316259%" y1="100%" x2="26.8316269%" y2="59.2969837%" id="linearGradient-6">
            <stop stop-color="#00FFBC" offset="0%"></stop>
            <stop stop-color="#3E396B" stop-opacity="0" offset="100%"></stop>
        </linearGradient>
        <linearGradient x1="49.9589442%" y1="100.007776%" x2="49.9589442%" y2="0.0687032221%" id="linearGradient-7">
            <stop stop-color="#7CFFC8" offset="32.58%"></stop>
            <stop stop-color="#FFFFFF" stop-opacity="0" offset="100%"></stop>
        </linearGradient>
        <linearGradient x1="49.9763986%" y1="67.4139742%" x2="49.9763986%" y2="0.00484930416%" id="linearGradient-8">
            <stop stop-color="#7CFFC8" offset="0%"></stop>
            <stop stop-color="#FFFFFF" stop-opacity="0" offset="100%"></stop>
        </linearGradient>
        <linearGradient x1="50.0044991%" y1="99.9754417%" x2="50.0044991%" y2="0.0218572296%" id="linearGradient-9">
            <stop stop-color="#7CFFC8" offset="32.58%"></stop>
            <stop stop-color="#FFFFFF" stop-opacity="0" offset="100%"></stop>
        </linearGradient>
    </defs>
    <g id="Symbols" stroke="none" stroke-width="1" fill="none" fill-rule="evenodd">
        <g id="phone-build-3D">
            <g id="Shape">
                <use fill="black" fill-opacity="1" filter="url(#filter-2)" xlink:href="#path-1"></use>
                <use fill="#F6F7FB" fill-rule="evenodd" xlink:href="#path-1"></use>
            </g>
            <path d="M30.4317722,138.595382 L158.555695,64.6127878 C171.959104,56.9084663 195.388684,57.8583141 210.902866,66.8290995 L544.088388,259.226061 C559.60257,268.196846 561.291188,281.705794 547.88778,289.410115 L419.763857,363.287171 C406.360448,370.991493 382.930868,370.041645 367.416686,361.070859 L34.2311637,168.779437 C18.7169819,159.808651 17.0283635,146.299704 30.4317722,138.595382 Z" id="b_3_" fill="#FFFFFF"></path>
            <path d="M62.1989062,172.262212 L217.551801,82.5543586 C219.134881,81.6045107 221.984424,81.7100493 223.88412,82.7654359 L506.938783,246.244807 C508.838479,247.300193 509.049556,248.988812 507.360937,249.93866 L352.008043,339.646513 C350.424963,340.596361 347.575419,340.490822 345.675724,339.435436 L62.7265995,175.850526 C60.8269038,174.79514 60.6158265,173.106521 62.1989062,172.262212 Z" id="Shape" fill="url(#linearGradient-3)"></path>
            <path d="M62.1989062,172.262212 L217.551801,82.5543586 C219.134881,81.6045107 221.984424,81.7100493 223.88412,82.7654359 L506.938783,246.244807 C508.838479,247.300193 509.049556,248.988812 507.360937,249.93866 L352.008043,339.646513 C350.424963,340.596361 347.575419,340.490822 345.675724,339.435436 L62.7265995,175.850526 C60.8269038,174.79514 60.6158265,173.106521 62.1989062,172.262212 Z" id="Shape" fill="url(#linearGradient-4)"></path>
            <path d="M97.8709704,125.191974 L139.136583,101.340238 C139.769815,101.023623 140.825201,101.023623 141.563972,101.445777 L141.563972,101.445777 C142.302743,101.867932 142.302743,102.501164 141.775049,102.81778 L100.509437,126.669515 C99.8762048,126.986131 98.8208183,126.986131 98.0820477,126.563976 L98.0820477,126.563976 C97.3432771,126.141822 97.2377385,125.50859 97.8709704,125.191974 Z" id="Shape" fill="#E8EAEE"></path>
            <path d="M86.6838734,130.679984 L86.6838734,130.679984 C87.7392599,130.046752 89.4278783,130.15229 90.6943421,130.891061 L90.6943421,130.891061 C91.8552673,131.524293 91.9608059,132.579679 91.0109581,133.212911 L91.0109581,133.212911 C89.9555715,133.846143 88.2669531,133.740604 87.0004893,133.001834 L87.0004893,133.001834 C85.7340255,132.263063 85.6284868,131.207677 86.6838734,130.679984 Z" id="Shape" fill="#C3C7CF"></path>
            <path d="M253.814847,38.4392023 C254.025924,36.8561225 252.970538,35.2730428 250.754226,34.0065789 L226.902491,20.1810156 C223.208638,18.0702426 217.61509,17.8591653 214.44893,19.6533224 L87.69701,92.8971464 C86.1139302,93.8469942 85.3751596,95.1134581 85.5862369,96.4854605 L85.5862369,97.3297697 L85.5862369,98.1740789 L85.5862369,99.0183882 L85.5862369,99.8626974 L85.5862369,100.707007 L85.5862369,101.551316 L85.5862369,102.395625 L85.5862369,103.239934 L85.5862369,104.084243 L85.5862369,104.928553 L85.5862369,105.772862 L85.5862369,106.617171 L85.5862369,107.46148 L85.5862369,108.305789 L85.5862369,109.150099 L85.5862369,109.994408 L85.5862369,110.838717 L85.5862369,111.683026 L85.5862369,112.527336 L85.5862369,113.371645 L85.5862369,114.215954 L85.5862369,115.060263 L85.5862369,115.904572 L85.5862369,116.748882 L85.5862369,117.593191 L85.5862369,118.4375 L85.5862369,119.281809 L85.5862369,120.126118 L85.5862369,120.970428 L85.5862369,121.814737 L85.5862369,122.659046 L85.5862369,123.503355 L85.5862369,124.347664 L85.5862369,125.191974 L85.5862369,126.036283 L85.5862369,126.880592 L85.5862369,127.724901 L85.5862369,128.569211 L85.5862369,129.41352 L85.5862369,130.257829 L85.5862369,131.102138 L85.5862369,131.946447 L85.5862369,132.790757 L85.5862369,133.635066 L85.5862369,134.479375 L85.5862369,135.323684 L85.5862369,136.167993 L85.5862369,137.012303 L85.5862369,137.856612 L85.5862369,138.700921 L85.5862369,139.54523 L85.5862369,140.389539 L85.5862369,141.233849 L85.5862369,142.078158 L85.5862369,142.922467 L85.5862369,143.766776 L85.5862369,144.611086 L85.5862369,145.455395 L85.5862369,146.299704 L85.5862369,147.144013 L85.5862369,147.988322 L85.5862369,148.832632 L85.5862369,149.676941 L85.5862369,150.52125 L85.5862369,151.365559 L85.5862369,152.209868 L85.5862369,153.054178 L85.5862369,153.898487 L85.5862369,154.742796 L85.5862369,155.587105 L85.5862369,156.431414 L85.5862369,157.275724 L85.5862369,158.120033 L85.5862369,158.964342 L85.5862369,159.808651 L85.5862369,160.652961 L85.5862369,161.49727 L85.5862369,162.341579 L85.5862369,163.185888 L85.5862369,164.030197 L85.5862369,164.874507 L85.5862369,165.718816 L85.5862369,166.563125 L85.5862369,167.407434 L85.5862369,168.251743 L85.5862369,169.096053 L85.5862369,169.940362 L85.5862369,170.784671 L85.5862369,171.62898 L85.5862369,172.473289 L85.5862369,173.317599 C85.3751596,174.900678 86.4305462,176.483758 88.6468578,177.750222 L112.498593,191.575785 C116.192446,193.686558 121.785994,193.897636 124.952154,192.103479 L251.704074,118.859655 C253.287154,117.909807 254.025924,116.643343 253.814847,115.27134 L253.814847,114.427031 L253.814847,113.582722 L253.814847,112.738413 L253.814847,111.894104 L253.814847,111.049794 L253.814847,110.205485 L253.814847,109.361176 L253.814847,108.516867 L253.814847,107.672558 L253.814847,106.828248 L253.814847,105.983939 L253.814847,105.13963 L253.814847,104.295321 L253.814847,103.451012 L253.814847,102.606702 L253.814847,101.762393 L253.814847,100.918084 L253.814847,100.073775 L253.814847,99.2294655 L253.814847,98.3851563 L253.814847,97.540847 L253.814847,96.6965378 L253.814847,95.8522286 L253.814847,95.0079194 L253.814847,94.1636102 L253.814847,93.319301 L253.814847,92.4749918 L253.814847,91.6306826 L253.814847,90.7863734 L253.814847,89.9420641 L253.814847,89.0977549 L253.814847,88.2534457 L253.814847,87.4091365 L253.814847,86.5648273 L253.814847,85.7205181 L253.814847,84.8762089 L253.814847,84.0318997 L253.814847,83.1875905 L253.814847,82.3432813 L253.814847,81.498972 L253.814847,80.6546628 L253.814847,79.8103536 L253.814847,78.9660444 L253.814847,78.1217352 L253.814847,77.277426 L253.814847,76.4331168 L253.814847,75.5888076 L253.814847,74.7444984 L253.814847,73.9001891 L253.814847,73.0558799 L253.814847,72.2115707 L253.814847,71.3672615 L253.814847,70.5229523 L253.814847,69.6786431 L253.814847,68.8343339 L253.814847,67.9900247 L253.814847,67.1457155 L253.814847,66.3014063 L253.814847,65.457097 L253.814847,64.6127878 L253.814847,63.7684786 L253.814847,62.9241694 L253.814847,62.0798602 L253.814847,61.235551 L253.814847,60.3912418 L253.814847,59.5469326 L253.814847,58.7026234 L253.814847,57.8583141 L253.814847,57.0140049 L253.814847,56.1696957 L253.814847,55.3253865 L253.814847,54.4810773 L253.814847,53.6367681 L253.814847,52.7924589 L253.814847,51.9481497 L253.814847,51.1038405 L253.814847,50.2595313 L253.814847,49.415222 L253.814847,48.5709128 L253.814847,47.7266036 L253.814847,46.8822944 L253.814847,46.0379852 L253.814847,45.193676 L253.814847,44.3493668 L253.814847,43.5050576 L253.814847,42.6607484 L253.814847,41.8164391 L253.814847,40.9721299 L253.814847,40.1278207 L253.814847,39.2835115 C253.814847,38.9668956 253.920386,38.6502796 253.814847,38.4392023 Z" id="Combined-Shape" fill="url(#linearGradient-5)"></path>
            <path d="M254.299722,38.4392023 C254.5108,36.8561225 253.455413,35.2730428 251.239101,34.0065789 L227.387366,20.1810156 C223.693513,18.0702426 218.099965,17.8591653 214.933805,19.6533224 L88.1818851,92.8971464 C86.5988053,93.8469942 85.8600347,95.1134581 86.071112,96.4854605 L86.071112,97.3297697 L86.071112,98.1740789 L86.071112,99.0183882 L86.071112,99.8626974 L86.071112,100.707007 L86.071112,101.551316 L86.071112,102.395625 L86.071112,103.239934 L86.071112,104.084243 L86.071112,104.928553 L86.071112,105.772862 L86.071112,106.617171 L86.071112,107.46148 L86.071112,108.305789 L86.071112,109.150099 L86.071112,109.994408 L86.071112,110.838717 L86.071112,111.683026 L86.071112,112.527336 L86.071112,113.371645 L86.071112,114.215954 L86.071112,115.060263 L86.071112,115.904572 L86.071112,116.748882 L86.071112,117.593191 L86.071112,118.4375 L86.071112,119.281809 L86.071112,120.126118 L86.071112,120.970428 L86.071112,121.814737 L86.071112,122.659046 L86.071112,123.503355 L86.071112,124.347664 L86.071112,125.191974 L86.071112,126.036283 L86.071112,126.880592 L86.071112,127.724901 L86.071112,128.569211 L86.071112,129.41352 L86.071112,130.257829 L86.071112,131.102138 L86.071112,131.946447 L86.071112,132.790757 L86.071112,133.635066 L86.071112,134.479375 L86.071112,135.323684 L86.071112,136.167993 L86.071112,137.012303 L86.071112,137.856612 L86.071112,138.700921 L86.071112,139.54523 L86.071112,140.389539 L86.071112,141.233849 L86.071112,142.078158 L86.071112,142.922467 L86.071112,143.766776 L86.071112,144.611086 L86.071112,145.455395 L86.071112,146.299704 L86.071112,147.144013 L86.071112,147.988322 L86.071112,148.832632 L86.071112,149.676941 L86.071112,150.52125 L86.071112,151.365559 L86.071112,152.209868 L86.071112,153.054178 L86.071112,153.898487 L86.071112,154.742796 L86.071112,155.587105 L86.071112,156.431414 L86.071112,157.275724 L86.071112,158.120033 L86.071112,158.964342 L86.071112,159.808651 L86.071112,160.652961 L86.071112,161.49727 L86.071112,162.341579 L86.071112,163.185888 L86.071112,164.030197 L86.071112,164.874507 L86.071112,165.718816 L86.071112,166.563125 L86.071112,167.407434 L86.071112,168.251743 L86.071112,169.096053 L86.071112,169.940362 L86.071112,170.784671 L86.071112,171.62898 L86.071112,172.473289 L86.071112,173.317599 C85.8600347,174.900678 86.9154212,176.483758 89.1317329,177.750222 L112.983468,191.575785 C116.677321,193.686558 122.270869,193.897636 125.437029,192.103479 L252.188949,118.859655 C253.772029,117.909807 254.5108,116.643343 254.299722,115.27134 L254.299722,114.427031 L254.299722,113.582722 L254.299722,112.738413 L254.299722,111.894104 L254.299722,111.049794 L254.299722,110.205485 L254.299722,109.361176 L254.299722,108.516867 L254.299722,107.672558 L254.299722,106.828248 L254.299722,105.983939 L254.299722,105.13963 L254.299722,104.295321 L254.299722,103.451012 L254.299722,102.606702 L254.299722,101.762393 L254.299722,100.918084 L254.299722,100.073775 L254.299722,99.2294655 L254.299722,98.3851563 L254.299722,97.540847 L254.299722,96.6965378 L254.299722,95.8522286 L254.299722,95.0079194 L254.299722,94.1636102 L254.299722,93.319301 L254.299722,92.4749918 L254.299722,91.6306826 L254.299722,90.7863734 L254.299722,89.9420641 L254.299722,89.0977549 L254.299722,88.2534457 L254.299722,87.4091365 L254.299722,86.5648273 L254.299722,85.7205181 L254.299722,84.8762089 L254.299722,84.0318997 L254.299722,83.1875905 L254.299722,82.3432813 L254.299722,81.498972 L254.299722,80.6546628 L254.299722,79.8103536 L254.299722,78.9660444 L254.299722,78.1217352 L254.299722,77.277426 L254.299722,76.4331168 L254.299722,75.5888076 L254.299722,74.7444984 L254.299722,73.9001891 L254.299722,73.0558799 L254.299722,72.2115707 L254.299722,71.3672615 L254.299722,70.5229523 L254.299722,69.6786431 L254.299722,68.8343339 L254.299722,67.9900247 L254.299722,67.1457155 L254.299722,66.3014063 L254.299722,65.457097 L254.299722,64.6127878 L254.299722,63.7684786 L254.299722,62.9241694 L254.299722,62.0798602 L254.299722,61.235551 L254.299722,60.3912418 L254.299722,59.5469326 L254.299722,58.7026234 L254.299722,57.8583141 L254.299722,57.0140049 L254.299722,56.1696957 L254.299722,55.3253865 L254.299722,54.4810773 L254.299722,53.6367681 L254.299722,52.7924589 L254.299722,51.9481497 L254.299722,51.1038405 L254.299722,50.2595313 L254.299722,49.415222 L254.299722,48.5709128 L254.299722,47.7266036 L254.299722,46.8822944 L254.299722,46.0379852 L254.299722,45.193676 L254.299722,44.3493668 L254.299722,43.5050576 L254.299722,42.6607484 L254.299722,41.8164391 L254.299722,40.9721299 L254.299722,40.1278207 L254.299722,39.2835115 C254.299722,38.9668956 254.405261,38.6502796 254.299722,38.4392023 Z" id="Combined-Shape-Copy" fill="url(#linearGradient-6)"></path>
            <path d="M464.85786,302.097222 C471.947059,306.175939 472.676035,311.979714 466.749828,315.460185 C460.455079,319.157102 449.021063,318.680684 441.581359,314.400307 C434.459439,310.302764 433.694472,304.409684 439.67323,301.046633 C446.082984,297.341074 457.414116,297.81452 464.85786,302.097222 Z M440.58397,316.133863 C448.618829,320.756658 460.815484,321.264852 467.762672,317.184757 C475.138133,312.853137 474.170296,305.147666 465.855248,300.363666 C457.818722,295.739911 445.730251,295.234822 438.682466,299.309323 C431.217844,303.508093 432.233089,311.329246 440.58397,316.133863 Z" id="Shape" fill="#F4F4F4" fill-rule="nonzero"></path>
            <path d="M359.501287,127.197208 C359.712364,125.614128 358.656978,124.031049 356.440666,122.764585 L273.592825,74.9555757 C269.898972,72.8448026 264.305424,72.6337253 261.139264,74.4278824 L134.387344,147.671706 C132.804264,148.621554 132.065493,149.888018 132.276571,151.260021 L132.276571,152.10433 L132.276571,152.948639 L132.276571,153.792948 L132.276571,154.637257 L132.276571,155.481567 L132.276571,156.325876 L132.276571,157.170185 L132.276571,158.014494 L132.276571,158.858803 L132.276571,159.703113 L132.276571,160.547422 L132.276571,161.391731 L132.276571,162.23604 L132.276571,163.08035 L132.276571,163.924659 L132.276571,164.768968 L132.276571,165.613277 L132.276571,166.457586 L132.276571,167.301896 L132.276571,168.146205 L132.276571,168.990514 L132.276571,169.834823 L132.276571,170.679132 L132.276571,171.523442 L132.276571,172.367751 L132.276571,173.21206 L132.276571,174.056369 L132.276571,174.900678 L132.276571,175.744988 L132.276571,176.589297 L132.276571,177.433606 L132.276571,178.277915 L132.276571,179.122225 L132.276571,179.966534 L132.276571,180.810843 L132.276571,181.655152 L132.276571,182.499461 L132.276571,183.343771 L132.276571,184.18808 L132.276571,185.032389 L132.276571,185.876698 L132.276571,186.721007 L132.276571,187.565317 L132.276571,188.409626 L132.276571,189.253935 L132.276571,190.098244 L132.276571,190.942553 L132.276571,191.786863 L132.276571,192.631172 L132.276571,193.475481 L132.276571,194.31979 L132.276571,195.1641 L132.276571,196.008409 L132.276571,196.852718 L132.276571,197.697027 L132.276571,198.541336 L132.276571,199.385646 L132.276571,200.229955 C132.065493,201.813035 133.12088,203.396114 135.337192,204.662578 L218.185033,252.471587 C221.878886,254.58236 227.472434,254.793438 230.638594,252.99928 L357.390514,179.755456 C358.973594,178.805609 359.712364,177.539145 359.501287,176.167142 L359.501287,175.322833 L359.501287,174.478524 L359.501287,173.634215 L359.501287,172.789905 L359.501287,171.945596 L359.501287,171.101287 L359.501287,170.256978 L359.501287,169.412669 L359.501287,168.568359 L359.501287,167.72405 L359.501287,166.879741 L359.501287,166.035432 L359.501287,165.191123 L359.501287,164.346813 L359.501287,163.502504 L359.501287,162.658195 L359.501287,161.813886 L359.501287,160.969576 L359.501287,160.125267 L359.501287,159.280958 L359.501287,158.436649 L359.501287,157.59234 L359.501287,156.74803 L359.501287,155.903721 L359.501287,155.059412 L359.501287,154.215103 L359.501287,153.370794 L359.501287,152.526484 L359.501287,151.682175 L359.501287,150.837866 L359.501287,149.993557 L359.501287,149.149248 L359.501287,148.304938 L359.501287,147.460629 L359.501287,146.61632 L359.501287,145.772011 L359.501287,144.927701 L359.501287,144.083392 L359.501287,143.239083 L359.501287,142.394774 L359.501287,141.550465 L359.501287,140.706155 L359.501287,139.861846 L359.501287,139.017537 L359.501287,138.173228 L359.501287,137.328919 L359.501287,136.484609 L359.501287,135.6403 L359.501287,134.795991 L359.501287,133.951682 L359.501287,133.107373 L359.501287,132.263063 L359.501287,131.418754 L359.501287,130.574445 L359.501287,129.730136 L359.501287,128.885826 L359.501287,128.041517 L359.501287,127.197208 Z" id="Shape" fill="url(#linearGradient-5)"></path>
            <path d="M359.608013,127.197208 C359.81909,125.614128 358.763704,124.031049 356.547392,122.764585 L273.699551,74.9555757 C270.005698,72.8448026 264.41215,72.6337253 261.24599,74.4278824 L134.49407,147.671706 C132.91099,148.621554 132.17222,149.888018 132.383297,151.260021 L132.383297,152.10433 L132.383297,152.948639 L132.383297,153.792948 L132.383297,154.637257 L132.383297,155.481567 L132.383297,156.325876 L132.383297,157.170185 L132.383297,158.014494 L132.383297,158.858803 L132.383297,159.703113 L132.383297,160.547422 L132.383297,161.391731 L132.383297,162.23604 L132.383297,163.08035 L132.383297,163.924659 L132.383297,164.768968 L132.383297,165.613277 L132.383297,166.457586 L132.383297,167.301896 L132.383297,168.146205 L132.383297,168.990514 L132.383297,169.834823 L132.383297,170.679132 L132.383297,171.523442 L132.383297,172.367751 L132.383297,173.21206 L132.383297,174.056369 L132.383297,174.900678 L132.383297,175.744988 L132.383297,176.589297 L132.383297,177.433606 L132.383297,178.277915 L132.383297,179.122225 L132.383297,179.966534 L132.383297,180.810843 L132.383297,181.655152 L132.383297,182.499461 L132.383297,183.343771 L132.383297,184.18808 L132.383297,185.032389 L132.383297,185.876698 L132.383297,186.721007 L132.383297,187.565317 L132.383297,188.409626 L132.383297,189.253935 L132.383297,190.098244 L132.383297,190.942553 L132.383297,191.786863 L132.383297,192.631172 L132.383297,193.475481 L132.383297,194.31979 L132.383297,195.1641 L132.383297,196.008409 L132.383297,196.852718 L132.383297,197.697027 L132.383297,198.541336 L132.383297,199.385646 L132.383297,200.229955 C132.17222,201.813035 133.227606,203.396114 135.443918,204.662578 L218.291759,252.471587 C221.985612,254.58236 227.57916,254.793438 230.74532,252.99928 L357.49724,179.755456 C359.08032,178.805609 359.81909,177.539145 359.608013,176.167142 L359.608013,175.322833 L359.608013,174.478524 L359.608013,173.634215 L359.608013,172.789905 L359.608013,171.945596 L359.608013,171.101287 L359.608013,170.256978 L359.608013,169.412669 L359.608013,168.568359 L359.608013,167.72405 L359.608013,166.879741 L359.608013,166.035432 L359.608013,165.191123 L359.608013,164.346813 L359.608013,163.502504 L359.608013,162.658195 L359.608013,161.813886 L359.608013,160.969576 L359.608013,160.125267 L359.608013,159.280958 L359.608013,158.436649 L359.608013,157.59234 L359.608013,156.74803 L359.608013,155.903721 L359.608013,155.059412 L359.608013,154.215103 L359.608013,153.370794 L359.608013,152.526484 L359.608013,151.682175 L359.608013,150.837866 L359.608013,149.993557 L359.608013,149.149248 L359.608013,148.304938 L359.608013,147.460629 L359.608013,146.61632 L359.608013,145.772011 L359.608013,144.927701 L359.608013,144.083392 L359.608013,143.239083 L359.608013,142.394774 L359.608013,141.550465 L359.608013,140.706155 L359.608013,139.861846 L359.608013,139.017537 L359.608013,138.173228 L359.608013,137.328919 L359.608013,136.484609 L359.608013,135.6403 L359.608013,134.795991 L359.608013,133.951682 L359.608013,133.107373 L359.608013,132.263063 L359.608013,131.418754 L359.608013,130.574445 L359.608013,129.730136 L359.608013,128.885826 L359.608013,128.041517 L359.608013,127.197208 Z" id="Shape-Copy-3" fill="url(#linearGradient-6)"></path>
            <path d="M252.06294,41.1832072 L125.31102,114.321493 C122.14486,116.221188 116.551312,115.904572 112.857459,113.793799 L89.0057237,99.968236 C85.3118709,97.857463 84.8897163,94.5857648 88.1614145,92.7916077 L214.913335,19.5477837 C218.079494,17.648088 223.673043,17.9647039 227.366896,20.075477 L251.218631,33.9010403 C254.912484,36.0118133 255.2291,39.2835115 252.06294,41.1832072 Z" id="Shape" fill="url(#linearGradient-7)" opacity="0.75"></path>
            <path d="M135.970424,97.2242311 L128.688257,96.9076151 C127.63287,93.5303783 122.355937,90.5752961 116.340234,90.3642187 C109.902377,90.0476028 105.047599,92.8971464 105.469753,96.5909992 C105.891908,100.284852 111.590995,103.55655 118.028853,103.767627 C121.300551,103.873166 124.044556,103.239934 126.04979,102.184548 C127.738409,101.2347 128.793795,99.8626974 128.899334,98.2796176 L136.181501,98.5962336 C136.498117,98.5962336 136.814733,98.5962336 137.02581,98.3851562 C137.236887,98.2796176 137.342426,98.0685403 137.342426,97.9630016 C137.236887,97.540847 136.603655,97.2242311 135.970424,97.2242311 Z M117.817775,102.501164 C112.646382,102.290086 108.213758,99.6516201 107.791604,96.6965378 C107.580526,95.2189967 108.530374,93.9525329 110.007915,93.002685 C111.590995,92.0528372 113.807307,91.6306826 116.445773,91.7362212 C121.617167,91.9472985 126.04979,94.5857648 126.471945,97.540847 C126.8941,100.390391 122.989169,102.712241 117.817775,102.501164 Z" id="Shape" fill="#FFFFFF"></path>
            <path d="M357.390514,129.941213 L230.638594,203.185037 C227.472434,205.084733 221.878886,204.768117 218.185033,202.657344 L135.337192,154.848335 C131.643339,152.737562 131.221184,149.465863 134.492882,147.671706 L261.244803,74.4278824 C264.410962,72.5281867 270.004511,72.8448026 273.698363,74.9555757 L356.546205,122.764585 C360.134519,124.875358 360.556674,128.147056 357.390514,129.941213 Z" id="Shape" fill="url(#linearGradient-8)" opacity="0.75"></path>
            <path d="M168.687405,145.877549 L156.867076,152.737562 C156.444922,152.948639 155.706151,152.948639 155.178458,152.632023 C154.650765,152.315407 154.650765,151.893252 155.072919,151.682175 L166.893248,144.822163 C167.315403,144.611086 168.054174,144.611086 168.581867,144.927701 C169.10956,145.244317 169.10956,145.560933 168.687405,145.877549 Z" id="Shape" fill="#FFFFFF"></path>
            <path d="M172.908951,151.048943 L165.9434,155.059412 C165.521246,155.270489 164.782475,155.270489 164.254782,154.953873 C163.727089,154.637257 163.727089,154.215103 164.149243,154.004025 L171.114794,149.993557 C171.536949,149.782479 172.27572,149.782479 172.803413,150.099095 C173.331106,150.415711 173.331106,150.837866 172.908951,151.048943 Z" id="Shape" fill="#FFFFFF"></path>
            <path d="M177.763729,155.903721 L174.280954,157.908956 C173.858799,158.120033 173.120029,158.120033 172.592336,157.803417 C172.064642,157.486801 172.064642,157.064646 172.486797,156.853569 L175.969572,154.848335 C176.391727,154.637257 177.130498,154.637257 177.658191,154.953873 C178.185884,155.270489 178.291423,155.692644 177.763729,155.903721 Z" id="Shape" fill="#FFFFFF"></path>
            <path d="M482.700219,223.976151 C482.911296,222.393072 481.85591,220.809992 479.639598,219.543528 L380.644343,162.341579 C376.95049,160.230806 371.356942,160.019729 368.190782,161.813886 L241.438862,235.05771 C239.855782,236.007558 239.117012,237.274021 239.328089,238.646024 L239.328089,239.490333 L239.328089,240.334642 L239.328089,241.178951 L239.328089,242.023261 L239.328089,242.86757 L239.328089,243.711879 L239.328089,244.556188 L239.328089,245.400498 L239.328089,246.244807 L239.328089,247.089116 L239.328089,247.933425 L239.328089,248.777734 L239.328089,249.622044 L239.328089,250.466353 L239.328089,251.310662 L239.328089,252.154971 L239.328089,252.99928 L239.328089,253.84359 L239.328089,254.687899 L239.328089,255.532208 L239.328089,256.376517 L239.328089,257.220826 L239.328089,258.065136 L239.328089,258.909445 L239.328089,259.753754 L239.328089,260.598063 L239.328089,261.442373 L239.328089,262.286682 C239.117012,263.869762 240.172398,265.452841 242.38871,266.719305 L341.383965,323.921254 C345.077817,326.032027 350.671366,326.243104 353.837526,324.448947 L480.589446,251.416201 C482.172526,250.466353 482.911296,249.199889 482.700219,247.827887 L482.700219,246.983577 L482.700219,246.139268 L482.700219,245.294959 L482.700219,244.45065 L482.700219,243.60634 L482.700219,242.762031 L482.700219,241.917722 L482.700219,241.073413 L482.700219,240.229104 L482.700219,239.384794 L482.700219,238.540485 L482.700219,237.696176 L482.700219,236.851867 L482.700219,236.007558 L482.700219,235.163248 L482.700219,234.318939 L482.700219,233.47463 L482.700219,232.630321 L482.700219,231.786012 L482.700219,230.941702 L482.700219,230.097393 L482.700219,229.253084 L482.700219,228.408775 L482.700219,227.564465 L482.700219,226.720156 L482.700219,225.875847 L482.700219,225.031538 C482.805757,224.609383 482.805757,224.292767 482.700219,223.976151 Z" id="Shape" fill="url(#linearGradient-5)"></path>
            <path d="M482.700219,223.976151 C482.911296,222.393072 481.85591,220.809992 479.639598,219.543528 L380.644343,162.341579 C376.95049,160.230806 371.356942,160.019729 368.190782,161.813886 L241.438862,235.05771 C239.855782,236.007558 239.117012,237.274021 239.328089,238.646024 L239.328089,239.490333 L239.328089,240.334642 L239.328089,241.178951 L239.328089,242.023261 L239.328089,242.86757 L239.328089,243.711879 L239.328089,244.556188 L239.328089,245.400498 L239.328089,246.244807 L239.328089,247.089116 L239.328089,247.933425 L239.328089,248.777734 L239.328089,249.622044 L239.328089,250.466353 L239.328089,251.310662 L239.328089,252.154971 L239.328089,252.99928 L239.328089,253.84359 L239.328089,254.687899 L239.328089,255.532208 L239.328089,256.376517 L239.328089,257.220826 L239.328089,258.065136 L239.328089,258.909445 L239.328089,259.753754 L239.328089,260.598063 L239.328089,261.442373 L239.328089,262.286682 C239.117012,263.869762 240.172398,265.452841 242.38871,266.719305 L341.383965,323.921254 C345.077817,326.032027 350.671366,326.243104 353.837526,324.448947 L480.589446,251.416201 C482.172526,250.466353 482.911296,249.199889 482.700219,247.827887 L482.700219,246.983577 L482.700219,246.139268 L482.700219,245.294959 L482.700219,244.45065 L482.700219,243.60634 L482.700219,242.762031 L482.700219,241.917722 L482.700219,241.073413 L482.700219,240.229104 L482.700219,239.384794 L482.700219,238.540485 L482.700219,237.696176 L482.700219,236.851867 L482.700219,236.007558 L482.700219,235.163248 L482.700219,234.318939 L482.700219,233.47463 L482.700219,232.630321 L482.700219,231.786012 L482.700219,230.941702 L482.700219,230.097393 L482.700219,229.253084 L482.700219,228.408775 L482.700219,227.564465 L482.700219,226.720156 L482.700219,225.875847 L482.700219,225.031538 C482.805757,224.609383 482.805757,224.292767 482.700219,223.976151 Z" id="Shape-Copy-2" fill="url(#linearGradient-6)" opacity="0.5"></path>
            <path d="M480.765197,226.720156 L354.013277,299.96398 C350.847118,301.863676 345.253569,301.54706 341.559716,299.436287 L242.458923,242.234338 C238.76507,240.123565 238.342915,236.851867 241.614613,235.05771 L368.366534,161.813886 C371.532693,159.91419 377.126242,160.230806 380.820095,162.341579 L479.81535,219.543528 C483.614741,221.654301 483.931357,224.925999 480.765197,226.720156 Z" id="Shape" fill="url(#linearGradient-9)" opacity="0.75"></path>
            <path d="M220.190267,19.4422451 L220.190267,19.4422451 C222.512118,19.4422451 224.939507,20.075477 226.733664,21.0253248 L250.585399,34.8508882 C252.168479,35.800736 253.118326,36.9616612 253.118326,38.0170477 C253.118326,39.0724342 252.274017,39.8112048 251.535247,40.2333594 L124.783326,113.477183 C123.516863,114.215954 121.828244,114.53257 119.928549,114.53257 C117.606698,114.53257 115.179309,113.899338 113.385152,112.94949 L89.4278783,99.1239268 C87.8447985,98.1740789 86.8949507,97.0131538 86.8949507,95.9577673 C86.8949507,94.9023808 87.7392599,94.1636102 88.4780304,93.7414556 L215.229951,20.4976316 C216.496414,19.758861 218.290572,19.4422451 220.190267,19.4422451 L220.190267,19.4422451 Z M220.190267,18.3868586 C218.185033,18.3868586 216.179799,18.8090132 214.807796,19.6533224 L88.0558758,92.8971464 C84.8897163,94.7968421 85.2063322,97.9630016 88.900185,100.073775 L112.75192,113.899338 C114.757155,115.060263 117.395621,115.693495 119.82301,115.693495 C121.828244,115.693495 123.833479,115.27134 125.205481,114.427031 L251.957401,41.1832072 C255.123561,39.2835115 254.806945,36.117352 251.113092,34.0065789 L227.261357,20.1810156 C225.256123,18.9145518 222.617656,18.3868586 220.190267,18.3868586 L220.190267,18.3868586 Z" id="Shape" fill="#9BFFDF"></path>
            <path d="M266.521735,74.2168051 L266.521735,74.2168051 C268.843586,74.2168051 271.270975,74.850037 273.065132,75.7998849 L355.912973,123.608894 C357.496053,124.558742 358.4459,125.719667 358.4459,126.775053 C358.4459,127.83044 357.601591,128.569211 356.862821,128.991365 L230.1109,202.235189 C228.844437,202.97396 227.155818,203.290576 225.256123,203.290576 C222.934272,203.290576 220.506883,202.657344 218.712726,201.707496 L135.864885,153.898487 C134.281805,152.948639 133.331957,151.787714 133.331957,150.732327 C133.331957,149.676941 134.176266,148.93817 134.915037,148.516016 L261.666957,75.2721916 C262.933421,74.6389597 264.622039,74.2168051 266.521735,74.2168051 L266.521735,74.2168051 Z M266.521735,73.1614186 C264.516501,73.1614186 262.511266,73.5835732 261.139264,74.4278824 L134.387344,147.671706 C131.221184,149.571402 131.5378,152.737562 135.231653,154.848335 L218.079494,202.657344 C220.084729,203.818269 222.723195,204.451501 225.150584,204.451501 C227.155818,204.451501 229.161053,204.029346 230.533055,203.185037 L357.284975,129.941213 C360.451135,128.041517 360.134519,124.875358 356.440666,122.764585 L273.592825,74.9555757 C271.58759,73.7946505 269.054663,73.1614186 266.521735,73.1614186 L266.521735,73.1614186 Z" id="Shape" fill="#9BFFDF"></path>
            <path d="M373.749005,161.602808 L373.749005,161.602808 C376.070855,161.602808 378.498244,162.23604 380.292401,163.185888 L479.287656,220.387837 C480.870736,221.337685 481.820584,222.49861 481.820584,223.553997 C481.820584,224.609383 480.976275,225.348154 480.237504,225.770308 L353.485584,299.014132 C352.21912,299.752903 350.530502,300.069519 348.630806,300.069519 C346.308956,300.069519 343.881567,299.436287 342.08741,298.486439 L243.092155,241.28449 C241.509075,240.334642 240.559227,239.173717 240.559227,238.118331 C240.559227,237.062944 241.403536,236.324174 242.142307,235.902019 L368.894227,162.763734 C370.160691,162.024963 371.849309,161.602808 373.749005,161.602808 L373.749005,161.602808 Z M373.749005,160.547422 C371.743771,160.547422 369.738536,160.969576 368.366534,161.813886 L241.614613,235.05771 C238.448454,236.957405 238.76507,240.123565 242.458923,242.234338 L341.454178,299.436287 C343.459412,300.597212 346.097878,301.230444 348.525267,301.230444 C350.530502,301.230444 352.535736,300.808289 353.907738,299.96398 L480.659659,226.720156 C483.825818,224.820461 483.509202,221.654301 479.81535,219.543528 L380.820095,162.341579 C378.81486,161.180654 376.281933,160.547422 373.749005,160.547422 L373.749005,160.547422 Z" id="Shape" fill="#9BFFDF"></path>
            <path d="M254.490329,68.3066406 C252.45027,68.3066406 250.796476,66.6528464 250.796476,64.6127878 C250.796476,62.5727293 252.45027,60.918935 254.490329,60.918935 C256.530388,60.918935 258.184182,62.5727293 258.184182,64.6127878 C258.184182,66.6528464 256.530388,68.3066406 254.490329,68.3066406 Z M358.973594,130.785522 C356.933535,130.785522 355.279741,129.131728 355.279741,127.091669 C355.279741,125.051611 356.933535,123.397817 358.973594,123.397817 C361.013652,123.397817 362.667447,125.051611 362.667447,127.091669 C362.667447,129.131728 361.013652,130.785522 358.973594,130.785522 Z M441.926974,201.074264 C439.886915,201.074264 438.233121,199.42047 438.233121,197.380411 C438.233121,195.340353 439.886915,193.686558 441.926974,193.686558 C443.967032,193.686558 445.620826,195.340353 445.620826,197.380411 C445.620826,199.42047 443.967032,201.074264 441.926974,201.074264 Z" id="Combined-Shape" fill="#FFFFFF" opacity="0.5"></path>
            <path d="M515.80403,64.1906332 L256.178947,64.1906332 C255.96787,63.4518627 255.334638,62.8186308 254.490329,62.8186308 C253.540481,62.8186308 252.696172,63.66294 252.696172,64.6127878 C252.696172,65.5626357 253.540481,66.4069449 254.490329,66.4069449 C255.334638,66.4069449 255.96787,65.8792516 256.178947,65.0349424 L515.80403,65.0349424 L515.80403,64.1906332 Z" id="Shape" fill="#C4C8D8"></path>
            <path d="M515.80403,126.669515 L360.662212,126.669515 C360.451135,125.930744 359.817903,125.297512 358.973594,125.297512 C358.023746,125.297512 357.179437,126.141822 357.179437,127.091669 C357.179437,128.041517 358.023746,128.885826 358.973594,128.885826 C359.817903,128.885826 360.451135,128.358133 360.662212,127.513824 L515.80403,127.513824 L515.80403,126.669515 Z" id="Shape" fill="#C4C8D8"></path>
            <path d="M515.80403,196.958257 L443.615592,196.958257 C443.404515,196.219486 442.771283,195.586254 441.926974,195.586254 C440.977126,195.586254 440.132817,196.430563 440.132817,197.380411 C440.132817,198.330259 440.977126,199.174568 441.926974,199.174568 C442.771283,199.174568 443.404515,198.646875 443.615592,197.802566 L515.80403,197.802566 L515.80403,196.958257 Z" id="Shape" fill="#C4C8D8"></path>
            <text id="Search" font-family="OpenSans-Italic, Open Sans" font-size="12" font-style="italic" font-weight="normal" letter-spacing="0.375" fill="#C4C8D8">
                <tspan x="518.523438" y="66">Search</tspan>
            </text>
            <text id="Filters" font-family="OpenSans-Italic, Open Sans" font-size="12" font-style="italic" font-weight="normal" letter-spacing="0.375" fill="#C4C8D8">
                <tspan x="518.523438" y="128">Filters</tspan>
            </text>
            <text id="Results" font-family="OpenSans-Italic, Open Sans" font-size="12" font-style="italic" font-weight="normal" letter-spacing="0.375" fill="#C4C8D8">
                <tspan x="518.523438" y="199">Results</tspan>
            </text>
            <path d="M365.242518,208.240767 L322.396044,232.978469 L356.913546,252.907243 L399.760184,228.169636 L365.242518,208.240767 Z M367.242504,207.086061 L401.760178,227.014934 L446.105928,201.411812 C446.58422,201.135669 447.195811,201.299543 447.471954,201.777835 C447.748097,202.256127 447.584223,202.867718 447.10593,203.143861 L403.760172,228.169636 L438.778291,248.387442 C439.256583,248.663586 439.420457,249.275176 439.144314,249.753469 C438.86817,250.231761 438.25658,250.395635 437.778287,250.119491 L401.760178,229.324338 L358.91354,254.061945 L393.93156,274.279694 C394.409852,274.555837 394.573726,275.167428 394.297583,275.64572 C394.021439,276.124012 393.409849,276.287886 392.931557,276.011743 L356.913546,255.216646 L312.566151,280.820719 C312.087859,281.096862 311.476268,280.932988 311.200125,280.454695 C310.923982,279.976403 311.087856,279.364813 311.566148,279.088669 L354.913552,254.061944 L320.396057,234.133175 L276.049025,259.737234 C275.570734,260.013379 274.959143,259.849507 274.682998,259.371216 C274.406853,258.892924 274.570725,258.281333 275.049017,258.005189 L318.396067,232.978475 L283.379035,212.761295 C282.900742,212.485152 282.736868,211.873562 283.013012,211.395269 C283.289155,210.916977 283.900746,210.753103 284.379038,211.029247 L320.396054,231.823769 L363.242527,207.086067 L328.225765,186.869044 C327.747473,186.592901 327.583599,185.98131 327.859743,185.503018 C328.135886,185.024726 328.747476,184.860852 329.225769,185.136995 L365.242514,205.931361 L409.587763,180.328331 C410.066055,180.052186 410.677646,180.216058 410.953791,180.69435 C411.229935,181.172641 411.066063,181.784232 410.587772,182.060377 L367.242504,207.086061 Z" id="Combined-Shape" fill="#9BFFDF" fill-rule="nonzero"></path>
        </g>
    </g>
</svg>