<?xml version="1.0" encoding="UTF-8"?>
<svg width="456px" height="133px" viewBox="0 0 456 133" version="1.1" xmlns="http://www.w3.org/2000/svg" xmlns:xlink="http://www.w3.org/1999/xlink">
    <!-- Generator: Sketch 42 (36781) - http://www.bohemiancoding.com/sketch -->
    <title>search-focus</title>
    <desc>Created with Sketch.</desc>
    <defs>
        <rect id="path-1" x="0.275" y="2.48689958e-14" width="386.05" height="62.8716759" rx="5"></rect>
        <filter x="-50%" y="-50%" width="200%" height="200%" filterUnits="objectBoundingBox" id="filter-2">
            <feOffset dx="0" dy="2" in="SourceAlpha" result="shadowOffsetOuter1"></feOffset>
            <feGaussianBlur stdDeviation="17.5" in="shadowOffsetOuter1" result="shadowBlurOuter1"></feGaussianBlur>
            <feColorMatrix values="0 0 0 0 0.0941176471   0 0 0 0 0.137254902   0 0 0 0 0.349019608  0 0 0 1 0" type="matrix" in="shadowBlurOuter1"></feColorMatrix>
        </filter>
    </defs>
    <g id="Community" stroke="none" stroke-width="1" fill="none" fill-rule="evenodd">
        <g id="Community-Instantsearch-React" transform="translate(-492.000000, -482.000000)">
            <g id="Group-3" transform="translate(-55.000000, -144.000000)">
                <g id="autocomplete-simple" transform="translate(582.000000, 659.072742)">
                    <g id="search-focus">
                        <g id="Search_field">
                            <use fill="black" fill-opacity="1" filter="url(#filter-2)" xlink:href="#path-1"></use>
                            <use fill="#FFFFFF" fill-rule="evenodd" xlink:href="#path-1"></use>
                        </g>
                        <g id="Rectangle-4-Copy-19-+-Get-Started-Copy-Copy-Copy-Copy-Copy-Copy-Copy-Copy" transform="translate(18.000000, 13.111970)">
                            <rect id="Rectangle-4-Copy-19" fill="#2DDE98" x="0.980392157" y="35.4342192" width="349.019608" height="1.9573448"></rect>
                            <g id="UI/icons/dark/close" transform="translate(329.411765, 8.932266)" fill="#182359">
                                <path d="M9,7.75066622 L4.24900068,2.99966689 L3.62433378,2.375 L2.375,3.62433378 L2.99966689,4.24900068 L7.75066622,9 L2.99966689,13.7509993 L2.375,14.3756662 L3.62433378,15.625 L4.24900068,15.0003331 L9,10.2493338 L13.7509993,15.0003331 L14.3756662,15.625 L15.625,14.3756662 L15.0003331,13.7509993 L10.2493338,9 L15.0003331,4.24900068 L15.625,3.62433378 L14.3756662,2.375 L13.7509993,2.99966689 L9,7.75066622 Z" id="searchbox/sbx-icon-clear-3"></path>
                            </g>
                            <path d="M39.329462,17.3015443 L38.1536807,17.3015443 L38.1536807,25.0534974 C38.1536807,25.4590984 38.0739289,25.7507622 37.9144229,25.9284974 C37.7549169,26.1062327 37.4655318,26.195099 37.0462588,26.195099 L36.8685245,26.195099 L36.8685245,27.1999818 L37.0736026,27.1999818 C37.8483461,27.1999818 38.4180018,27.0290851 38.782587,26.6872865 C39.1471721,26.3454879 39.329462,25.7940611 39.329462,25.0329896 L39.329462,17.3015443 Z M38.7415713,15.804474 C38.9694371,15.804474 39.16312,15.7235829 39.322626,15.5617982 C39.482132,15.4000136 39.5618838,15.2074699 39.5618838,14.9841615 C39.5618838,14.7562958 39.482132,14.5626128 39.322626,14.4031068 C39.16312,14.2436008 38.9694371,14.163849 38.7415713,14.163849 C38.5182629,14.163849 38.3257193,14.2436008 38.1639346,14.4031068 C38.00215,14.5626128 37.9212588,14.7562958 37.9212588,14.9841615 C37.9212588,15.2074699 38.00215,15.4000136 38.1639346,15.5617982 C38.3257193,15.7235829 38.5182629,15.804474 38.7415713,15.804474 Z M44.4427432,24.8005678 C43.3945609,24.8005678 42.5662814,24.4599136 41.9578799,23.7785951 C41.3494785,23.0972766 41.0452823,22.1664591 41.0452823,20.9861146 C41.0452823,19.8012129 41.3494785,18.869256 41.9578799,18.1902162 C42.5662814,17.5111763 43.3945609,17.1716615 44.4427432,17.1716615 C45.4909255,17.1716615 46.319205,17.5111763 46.9276065,18.1902162 C47.536008,18.869256 47.8402042,19.8012129 47.8402042,20.9861146 C47.8402042,22.1664591 47.536008,23.0972766 46.9276065,23.7785951 C46.319205,24.4599136 45.4909255,24.8005678 44.4427432,24.8005678 Z M44.4427432,23.7409974 C45.1400123,23.7409974 45.6777674,23.4994634 46.0560245,23.0163881 C46.4342816,22.5333127 46.6234073,21.8565617 46.6234073,20.9861146 C46.6234073,20.1111103 46.4342816,19.4332199 46.0560245,18.9524232 C45.6777674,18.4716265 45.1400123,18.2312318 44.4427432,18.2312318 C43.7454741,18.2312318 43.2077191,18.4716265 42.829462,18.9524232 C42.4512049,19.4332199 42.2620792,20.1111103 42.2620792,20.9861146 C42.2620792,21.8565617 42.4512049,22.5333127 42.829462,23.0163881 C43.2077191,23.4994634 43.7454741,23.7409974 44.4427432,23.7409974 Z M49.603876,24.6706849 L50.7796573,24.6706849 L50.7796573,20.3093568 C50.7796573,19.6850047 50.9551113,19.1825684 51.3060245,18.8020326 C51.6569377,18.4214968 52.162792,18.2312318 52.8236026,18.2312318 C53.379595,18.2312318 53.8022795,18.3941534 54.091669,18.7200013 C54.3810585,19.0458493 54.525751,19.534614 54.525751,20.1863099 L54.525751,24.6706849 L55.7015323,24.6706849 L55.7015323,19.8992006 C55.7015323,19.0333108 55.4725307,18.3622563 55.0145206,17.886017 C54.5565105,17.4097776 53.9378643,17.1716615 53.1585635,17.1716615 C52.5934565,17.1716615 52.1206423,17.2855927 51.7401065,17.5134584 C51.3595707,17.7413241 51.0758822,18.0580527 50.8890323,18.4636537 L50.7796573,18.4636537 L50.7796573,14.3757631 L49.603876,14.3757631 L49.603876,24.6706849 Z" id="joh" fill="#182359"></path>
                            <g id="UI/icons/dark/search" transform="translate(0.993093, 0.998125)" fill="#182359">
                                <path d="M27.7602959,25.8467646 C27.7602959,26.9069471 26.8827335,27.7853839 25.8236065,27.7853839 C25.3091734,27.7853839 24.8098706,27.5733474 24.4618717,27.2098563 L19.2721493,22.0301079 C17.5018941,23.2568905 15.38364,23.9081454 13.2351252,23.9081454 C7.34940497,23.9081454 2.58333333,19.1373245 2.58333333,13.2457394 C2.58333333,7.35415421 7.34940497,2.58333333 13.2351252,2.58333333 C19.1208454,2.58333333 23.8869171,7.35415421 23.8869171,13.2457394 C23.8869171,15.3963951 23.2363104,17.5167599 22.0107492,19.2887791 L27.2004716,24.483673 C27.5484705,24.8320186 27.7602959,25.3318189 27.7602959,25.8467646 Z M20.0135382,13.2457394 C20.0135382,9.50480997 16.9723306,6.46057189 13.2351252,6.46057189 C9.49791981,6.46057189 6.45671219,9.50480997 6.45671219,13.2457394 C6.45671219,16.9866687 9.49791981,20.0309068 13.2351252,20.0309068 C16.9723306,20.0309068 20.0135382,16.9866687 20.0135382,13.2457394 Z" id="Icons/Search"></path>
                            </g>
                        </g>
                        <path d="M78.980535,37.9003402 L80.1328006,37.9003402 L80.1328006,33.6262386 C80.1328006,32.9920427 80.3047455,32.4940725 80.6486405,32.1323128 C80.9925354,31.7705532 81.4525438,31.5896761 82.0286795,31.5896761 C82.6048152,31.5896761 83.0324444,31.7459897 83.3115799,32.0586214 C83.5907154,32.3712532 83.7302811,32.8535921 83.7302811,33.5056527 L83.7302811,37.9003402 L84.8825467,37.9003402 L84.8825467,33.2242855 C84.8825467,32.3667812 84.6648243,31.7069148 84.2293729,31.2446664 C83.7939215,30.782418 83.1697839,30.5512972 82.3569413,30.5512972 C81.8031364,30.5512972 81.3487106,30.6629497 80.9936502,30.8862582 C80.6385899,31.1095666 80.3695073,31.4199606 80.1863944,31.8174496 L80.0792069,31.8174496 L80.0792069,30.6785824 L78.980535,30.6785824 L78.980535,37.9003402 Z M90.7510623,28.2333675 L94.0671756,28.2333675 C95.5008156,28.2333675 96.619574,28.6576471 97.4234842,29.5062191 C98.2273945,30.354791 98.6293436,31.5405409 98.6293436,33.0635043 C98.6293436,34.5864676 98.228511,35.773334 97.4268338,36.624139 C96.6251566,37.4749441 95.5052818,37.9003402 94.0671756,37.9003402 L90.7510623,37.9003402 L90.7510623,28.2333675 Z M91.9569217,29.318641 L91.9569217,36.8150668 L93.986785,36.8150668 C95.0675977,36.8150668 95.9061082,36.4868083 96.5023416,35.8302816 C97.0985751,35.1737549 97.3966873,34.2559711 97.3966873,33.0769027 C97.3966873,31.8933681 97.096342,30.9711182 96.4956424,30.3101253 C95.8949428,29.6491325 95.0586654,29.318641 93.986785,29.318641 L91.9569217,29.318641 Z M103.405887,38.0276253 C102.378668,38.0276253 101.566954,37.6937843 100.970721,37.0260921 C100.374487,36.3584 100.076375,35.4461988 100.076375,34.2894613 C100.076375,33.1282576 100.374487,32.2149399 100.970721,31.5494808 C101.566954,30.8840218 102.378668,30.5512972 103.405887,30.5512972 C104.433105,30.5512972 105.244819,30.8840218 105.841053,31.5494808 C106.437286,32.2149399 106.735398,33.1282576 106.735398,34.2894613 C106.735398,35.4461988 106.437286,36.3584 105.841053,37.0260921 C105.244819,37.6937843 104.433105,38.0276253 103.405887,38.0276253 Z M103.405887,36.9892464 C104.08921,36.9892464 104.61621,36.7525431 104.986902,36.2791293 C105.357594,35.8057154 105.542937,35.1424994 105.542937,34.2894613 C105.542937,33.431957 105.357594,32.7676244 104.986902,32.2964437 C104.61621,31.825263 104.08921,31.5896761 103.405887,31.5896761 C102.722563,31.5896761 102.195563,31.825263 101.824871,32.2964437 C101.454179,32.7676244 101.268836,33.431957 101.268836,34.2894613 C101.268836,35.1424994 101.454179,35.8057154 101.824871,36.2791293 C102.195563,36.7525431 102.722563,36.9892464 103.405887,36.9892464 Z M111.297566,31.5695785 C110.721431,31.5695785 110.248024,31.7638539 109.877332,32.1524105 C109.50664,32.5409671 109.298966,33.0545688 109.254305,33.6932308 L113.23364,33.6932308 C113.220242,33.0545688 113.037132,32.5409671 112.684305,32.1524105 C112.331477,31.7638539 111.869236,31.5695785 111.297566,31.5695785 Z M113.200144,36.0312582 L114.35241,36.0312582 C114.178229,36.6520555 113.825407,37.1399771 113.293933,37.4950375 C112.762459,37.8500978 112.101476,38.0276253 111.310965,38.0276253 C110.310543,38.0276253 109.51781,37.6915512 108.932742,37.0193929 C108.347674,36.3472346 108.055144,35.4394996 108.055144,34.2961605 C108.055144,33.1617538 108.349907,32.2540187 108.939441,31.5729281 C109.528975,30.8918374 110.319475,30.5512972 111.310965,30.5512972 C112.284589,30.5512972 113.050526,30.8762061 113.608797,31.5260335 C114.167068,32.175861 114.446199,33.0612656 114.446199,34.1822738 L114.446199,34.6244222 L109.254305,34.6244222 L109.254305,34.678016 C109.285568,35.3926029 109.487659,35.9597977 109.860584,36.3796175 C110.233509,36.7994373 110.725897,37.0093441 111.337762,37.0093441 C111.802243,37.0093441 112.190794,36.9256047 112.503426,36.7581234 C112.816057,36.5906421 113.048295,36.3483561 113.200144,36.0312582 Z" id="n-Doe" fill="#9D9DBD"></path>
                        <path d="M75.9411765,18.1295464 L75.9411765,43.5750287" id="Line" stroke="#9B9B9B" stroke-width="0.98" stroke-linecap="square"></path>
                    </g>
                </g>
            </g>
        </g>
    </g>
</svg>