<?xml version="1.0" encoding="UTF-8"?>
<svg width="80px" height="80px" viewBox="0 0 80 80" version="1.1" xmlns="http://www.w3.org/2000/svg" xmlns:xlink="http://www.w3.org/1999/xlink">
    <!-- Generator: Sketch 42 (36781) - http://www.bohemiancoding.com/sketch -->
    <title>worldwide-icon</title>
    <desc>Created with Sketch.</desc>
    <defs></defs>
    <g id="Page-1" stroke="none" stroke-width="1" fill="none" fill-rule="evenodd">
        <g id="worldwide-icon">
            <path d="M65.8412224,32.2923124 C66.7867264,35.0326124 67.2999464,37.9744484 67.2999464,41.0360804 C67.2999464,55.8371844 55.3013184,67.8360804 40.4999464,67.8360804 C25.6988424,67.8360804 13.6999464,55.8371844 13.6999464,41.0360804 C13.6999464,26.2347084 25.6988424,14.2360804 40.4999464,14.2360804 C49.5596864,14.2360804 57.5696704,18.7315124 62.4204704,25.6134844" id="Stroke-146" stroke="#182359" stroke-width="1.59746434" stroke-linecap="round"></path>
            <path d="M41.5719732,62.2080268 C38.3157732,62.2080268 35.6759732,59.5682268 35.6759732,56.3120268 C35.6759732,53.0558268 38.3157732,50.4160268 41.5719732,50.4160268 C44.8281732,50.4160268 47.4679732,53.0558268 47.4679732,56.3120268 C47.4679732,59.5682268 44.8281732,62.2080268 41.5719732,62.2080268 M24.9559732,43.9840268 C22.8837972,43.9840268 21.2039732,42.3042028 21.2039732,40.2320268 C21.2039732,38.1598508 22.8837972,36.4800268 24.9559732,36.4800268 C27.0281492,36.4800268 28.7079732,38.1598508 28.7079732,40.2320268 C28.7079732,42.3042028 27.0281492,43.9840268 24.9559732,43.9840268 M45.2234732,20.1269348 C45.4571692,20.6160348 45.5919732,21.1616828 45.5919732,21.7400268 C45.5919732,23.8122028 43.9121492,25.4920268 41.8399732,25.4920268 C39.7677972,25.4920268 38.0879732,23.8122028 38.0879732,21.7400268 C38.0879732,20.9772988 38.3168452,20.2687068 38.7078572,19.6766948 C27.7220012,20.5908428 19.0599732,29.8180828 19.0599732,41.0360268 C19.0599732,52.8580428 28.6779572,62.4760268 40.4999732,62.4760268 C52.3219892,62.4760268 61.9399732,52.8580428 61.9399732,41.0360268 C61.9399732,30.8372868 54.7795492,22.2848708 45.2234732,20.1269348" id="Fill-148" fill="#F7F7FF"></path>
            <path d="M32.495108,56.1950716 C17.858824,54.7596636 7,49.4771156 7,43.1799196 C7,39.9901836 9.786396,37.0606756 14.439144,34.7596276" id="Stroke-150" stroke="#182359" stroke-width="1.59746434" stroke-linecap="round"></path>
            <path d="M66.5606952,34.75944 C71.2134432,37.060488 73.9998392,39.989996 73.9998392,43.18 C73.9998392,49.205176 64.0589152,54.301464 50.3796592,55.98772" id="Stroke-152" stroke="#182359" stroke-width="1.59746434" stroke-linecap="round"></path>
            <path d="M41.1023568,64.9635224 C40.3835808,70.5684744 39.4179768,73.9999464 38.3558928,73.9999464 C37.4712248,73.9999464 36.6532888,71.6182304 35.9891848,67.5818824" id="Stroke-156" stroke="#182359" stroke-width="1.59746434" stroke-linecap="round"></path>
            <path d="M34.9569828,61.621482 C23.7433268,69.81987 13.7348668,73.26635 9.9303388,69.461822 C6.8960428,66.427258 8.4737588,59.447198 13.3955788,51.056922" id="Stroke-158" stroke="#182359" stroke-width="1.59746434" stroke-linecap="round"></path>
            <path d="M28.7079732,40.2320268 C28.7079732,42.3042028 27.0281492,43.9840268 24.9559732,43.9840268 C22.8837972,43.9840268 21.2039732,42.3042028 21.2039732,40.2320268 C21.2039732,38.1598508 22.8837972,36.4800268 24.9559732,36.4800268 C27.0281492,36.4800268 28.7079732,38.1598508 28.7079732,40.2320268 L28.7079732,40.2320268 Z" id="Stroke-160" stroke="#182359" stroke-width="1.59746434" stroke-linecap="round"></path>
            <path d="M67.8359732,28.9760268 C67.8359732,31.0482028 66.1561492,32.7280268 64.0839732,32.7280268 C62.0117972,32.7280268 60.3319732,31.0482028 60.3319732,28.9760268 C60.3319732,26.9038508 62.0117972,25.2240268 64.0839732,25.2240268 C66.1561492,25.2240268 67.8359732,26.9038508 67.8359732,28.9760268 L67.8359732,28.9760268 Z" id="Stroke-162" stroke="#182359" stroke-width="1.59746434" stroke-linecap="round"></path>
            <path d="M45.5919732,21.7400268 C45.5919732,23.8122028 43.9121492,25.4920268 41.8399732,25.4920268 C39.7677972,25.4920268 38.0879732,23.8122028 38.0879732,21.7400268 C38.0879732,19.6678508 39.7677972,17.9880268 41.8399732,17.9880268 C43.9121492,17.9880268 45.5919732,19.6678508 45.5919732,21.7400268 L45.5919732,21.7400268 Z" id="Stroke-164" stroke="#182359" stroke-width="1.59746434" stroke-linecap="round"></path>
            <path d="M63.2354048,69.1704524 C63.2354048,71.2426284 61.5555808,72.9224524 59.4834048,72.9224524 C57.4112288,72.9224524 55.7314048,71.2426284 55.7314048,69.1704524 C55.7314048,67.0982764 57.4112288,65.4184524 59.4834048,65.4184524 C61.5555808,65.4184524 63.2354048,67.0982764 63.2354048,69.1704524 L63.2354048,69.1704524 Z" id="Stroke-166" stroke="#182359" stroke-width="1.59746434" stroke-linecap="round"></path>
            <path d="M41.5719732,62.2080268 C38.3157732,62.2080268 35.6759732,59.5682268 35.6759732,56.3120268 C35.6759732,53.0558268 38.3157732,50.4160268 41.5719732,50.4160268 C44.8281732,50.4160268 47.4679732,53.0558268 47.4679732,56.3120268 C47.4679732,59.5682268 44.8281732,62.2080268 41.5719732,62.2080268 Z" id="Stroke-154" stroke="#2DDE98" stroke-width="1.59746434" stroke-linecap="round"></path>
            <path d="M42.3759732,56.3120268 C42.3759732,56.7561028 42.0160492,57.1160268 41.5719732,57.1160268 C41.1278972,57.1160268 40.7679732,56.7561028 40.7679732,56.3120268 C40.7679732,55.8679508 41.1278972,55.5080268 41.5719732,55.5080268 C42.0160492,55.5080268 42.3759732,55.8679508 42.3759732,56.3120268 L42.3759732,56.3120268 Z" id="Stroke-168" stroke="#2DDE98" stroke-width="1.59746434" stroke-linecap="round"></path>
            <path d="M56.0841732,67.5847232 C53.3419972,66.1763832 50.4004292,64.3601472 47.3607732,62.1869352" id="Stroke-170" stroke="#182359" stroke-width="1.59746434" stroke-linecap="round"></path>
            <path d="M68.0069036,50.8305424 C73.0335116,59.3215864 74.6672396,66.4002704 71.6056076,69.4616344 C69.8748636,71.1923784 66.8603996,71.4225904 63.0328236,70.3878424" id="Stroke-172" stroke="#182359" stroke-width="1.59746434" stroke-linecap="round"></path>
            <path d="M62.4960196,32.376384 C58.9552036,38.103008 53.9393156,44.403152 47.8313276,50.51114" id="Stroke-174" stroke="#182359" stroke-width="1.59746434" stroke-linecap="round"></path>
            <path d="M49.1132788,15.650236 C57.1744508,11.065024 63.8366628,9.66526 66.7817148,12.610312 C69.1567308,14.985328 68.7062228,19.777972 66.0377468,25.77206" id="Stroke-176" stroke="#182359" stroke-width="1.59746434" stroke-linecap="round"></path>
            <path d="M41.950952,25.491866 C42.222972,30.006594 42.376,35.104222 42.376,40.500134 C42.376,42.949118 42.344376,45.336998 42.284612,47.636706" id="Stroke-178" stroke="#182359" stroke-width="1.59746434" stroke-linecap="round"></path>
            <path d="M35.8186832,14.514452 C36.5106592,9.81668 37.3937192,7 38.3558392,7 C39.5379872,7 40.6011432,11.252356 41.3365352,18.021232" id="Stroke-180" stroke="#182359" stroke-width="1.59746434" stroke-linecap="round"></path>
            <path d="M22.4499052,37.4386628 C14.3557692,26.3054068 10.9720012,16.3926228 14.7542852,12.6103388 C17.6752172,9.6894068 24.2519372,11.0420028 32.2233292,15.5374348" id="Stroke-182" stroke="#182359" stroke-width="1.59746434" stroke-linecap="round"></path>
            <path d="M34.2422804,51.0455052 C34.0629884,50.8683572 33.8836964,50.6904052 33.7046724,50.5113812 C31.3234924,48.1302012 29.1084724,45.7198092 27.0821244,43.3257652" id="Stroke-184" stroke="#182359" stroke-width="1.59746434" stroke-linecap="round"></path>
        </g>
    </g>
</svg>