<?xml version="1.0" encoding="UTF-8"?>
<svg width="80px" height="80px" viewBox="0 0 80 80" version="1.1" xmlns="http://www.w3.org/2000/svg" xmlns:xlink="http://www.w3.org/1999/xlink">
    <!-- Generator: Sketch 42 (36781) - http://www.bohemiancoding.com/sketch -->
    <title>worldmap-icon</title>
    <desc>Created with Sketch.</desc>
    <defs></defs>
    <g id="Page-1" stroke="none" stroke-width="1" fill="none" fill-rule="evenodd">
        <g id="worldmap-icon">
            <path d="M64.2673855,35.1934197 C65.3328561,41.0296269 64.5551773,47.1359695 61.9348832,52.5773839" id="Stroke-44" stroke="#F2F9FB" stroke-width="1.59746434" stroke-linecap="round"></path>
            <path d="M44.9726769,13.31824 C49.1678172,14.6422241 53.1152108,16.9666703 56.4408353,20.2918456 C59.7453692,23.5962002 62.0618534,27.5142321 63.3902877,31.6789094" id="Stroke-46" stroke="#F2F9FB" stroke-width="1.59746434" stroke-linecap="round"></path>
            <path d="M24.1527515,14.7978723 C29.1773624,12.379199 34.768747,11.5311552 40.1908737,12.2540078" id="Stroke-48" stroke="#F2F9FB" stroke-width="1.59746434" stroke-linecap="round"></path>
            <path d="M44.1845864,12.5327117 C47.9002515,11.8061221 51.7333828,11.8293452 55.4413058,12.6018472" id="Stroke-50" stroke="#F2F9FB" stroke-width="1.59746434" stroke-linecap="round"></path>
            <path d="M24.1376945,52.5774639 C19.0660973,42.0461851 20.8975,29.0249619 29.6316357,20.2920058 C32.2444547,17.6795396 35.2409072,15.6847548 38.4399887,14.3076512" id="Stroke-52" stroke="#F2F9FB" stroke-width="1.59746434" stroke-linecap="round"></path>
            <path d="M29.0282339,27.8507269 C26.7566004,23.7471771 25.0971253,19.3953803 24.0498086,14.9293364" id="Stroke-54" stroke="#F2F9FB" stroke-width="1.59746434" stroke-linecap="round"></path>
            <path d="M43.2175737,44.0516472 C41.2444108,42.5851213 39.3534742,40.9568345 37.5634515,39.1667866 C36.3407366,37.9445038 35.1938407,36.6755078 34.1222298,35.3651372" id="Stroke-56" stroke="#F2F9FB" stroke-width="1.59746434" stroke-linecap="round"></path>
            <path d="M61.8052701,52.6787647 C55.8585506,51.2848444 50.1147271,48.8061113 44.8890891,45.2420317" id="Stroke-58" stroke="#F2F9FB" stroke-width="1.59746434" stroke-linecap="round"></path>
            <path d="M34.4907262,31.572003 C35.4547488,30.4204572 36.4777715,29.3014771 37.5600611,28.2193337 C42.9651018,22.8152898 49.2861108,18.8855129 56.0235905,16.4305368" id="Stroke-60" stroke="#F2F9FB" stroke-width="1.59746434" stroke-linecap="round"></path>
            <path d="M24.0464448,52.4580918 C25.0782773,48.0574464 26.7043814,43.7681117 28.924757,39.7174145" id="Stroke-62" stroke="#F2F9FB" stroke-width="1.59746434" stroke-linecap="round"></path>
            <path d="M38.265685,47.088936 C33.849495,49.6765775 29.1260244,51.5400317 24.2672009,52.6787647" id="Stroke-64" stroke="#F2F9FB" stroke-width="1.59746434" stroke-linecap="round"></path>
            <path d="M60.2283416,20.9001309 C57.7684954,27.5638281 53.8619479,33.8145811 48.509233,39.16684 C46.7515135,40.9243221 44.8971515,42.5256488 42.962966,43.971087" id="Stroke-66" stroke="#F2F9FB" stroke-width="1.59746434" stroke-linecap="round"></path>
            <path d="M62.7987126,37.3702791 C61.4190203,40.9130042 59.2987579,44.2336416 56.4376583,47.0943548 C47.7035226,55.8273109 34.6805407,57.6584663 24.1478393,52.587554" id="Stroke-68" stroke="#F2F9FB" stroke-width="1.59746434" stroke-linecap="round"></path>
            <path d="M63.4344977,18.6166854 C64.8782624,23.2327452 65.1115927,28.1459006 64.1344887,32.858056" id="Stroke-70" stroke="#F2F9FB" stroke-width="1.59746434" stroke-linecap="round"></path>
            <path d="M24.2423995,14.7009759 C33.1364493,16.7803783 41.5785217,21.2864619 48.512223,28.2194938 C55.4389832,35.1450516 59.9435398,43.5753066 62.0258927,52.4580117" id="Stroke-72" stroke="#F2F9FB" stroke-width="1.59746434" stroke-linecap="round"></path>
            <path d="M61.924685,52.5875273 C51.3919837,57.6584396 38.3690018,55.8272843 29.634866,47.0943281 C20.9004633,38.3613719 19.0693276,25.3401488 24.1409249,14.8088699" id="Stroke-74" stroke="#F2F9FB" stroke-width="1.59746434" stroke-linecap="round"></path>
            <path d="M66.4214728,20.7993906 C72.0235362,30.9449524 70.5215724,43.9632392 61.9153144,52.5680679 C51.4896674,62.9925739 34.5860339,62.9925739 24.1603868,52.5680679 C13.7344728,42.1438289 13.7344728,25.2424783 24.1603868,14.8182392 C31.9110113,7.06866154 43.241414,5.08028306 52.8293144,8.85283684" id="Stroke-76" stroke="#182359" stroke-width="1.59746434" stroke-linecap="round"></path>
            <path d="M61.8465434,52.6350412 L69.165747,59.9532564" id="Stroke-78" stroke="#182359" stroke-width="1.59746434" stroke-linecap="round"></path>
            <path d="M17.3738918,8.16839581 L24.081471,14.8750691" id="Stroke-80" stroke="#182359" stroke-width="1.59746434" stroke-linecap="round"></path>
            <path id="Stroke-82" stroke="#1E96C7" stroke-width="1.59746434" stroke-linecap="round"></path>
            <path d="M30.4887108,73.7336349 L30.4887108,73.1997703 C30.4887108,71.1443918 32.1706113,69.4627185 34.2262674,69.4627185 L51.8461769,69.4627185 C53.901833,69.4627185 55.5837335,71.1443918 55.5837335,73.1997703 L55.5837335,73.7336349 L30.4887108,73.7336349 L30.4887108,73.7336349 Z" id="Stroke-84" stroke="#182359" stroke-width="1.59746434" stroke-linecap="round"></path>
            <path d="M56.8904099,17.5626767 L60.6893692,21.3613898 L64.4885954,17.5626767 C66.5866995,15.464856 66.5866995,12.063338 64.4885954,9.96551732 C62.3904914,7.8676966 58.988514,7.8676966 56.8904099,9.96551732 C54.7923058,12.063338 54.7923058,15.464856 56.8904099,17.5626767 L56.8904099,17.5626767 Z" id="Stroke-86" stroke="#2DDE98" stroke-width="1.59746434" stroke-linecap="round"></path>
            <path d="M61.5050108,13.764097 C61.5050108,14.2144117 61.1397982,14.5795751 60.6894226,14.5795751 C60.239047,14.5795751 59.8741013,14.2144117 59.8741013,13.764097 C59.8741013,13.3137823 60.239047,12.9486189 60.6894226,12.9486189 C61.1397982,12.9486189 61.5050108,13.3137823 61.5050108,13.764097 L61.5050108,13.764097 Z" id="Stroke-88" stroke="#2DDE98" stroke-width="1.59746434" stroke-linecap="round"></path>
            <path d="M39.3254959,18.1848958 L41.9684823,20.8275253 L44.6112018,18.1848958 C46.0707176,16.7255771 46.0707176,14.3592225 44.6112018,12.8999038 C43.1516859,11.4405851 40.7850117,11.4405851 39.3254959,12.8999038 C37.8659801,14.3592225 37.8659801,16.7255771 39.3254959,18.1848958 L39.3254959,18.1848958 Z" id="Stroke-90" stroke="#182359" stroke-width="1.59746434" stroke-linecap="round" stroke-linejoin="round"></path>
            <path d="M42.8371271,15.3431966 C42.8371271,15.9325831 42.3587199,16.4109257 41.7692538,16.4109257 C41.1797877,16.4109257 40.7013805,15.9325831 40.7013805,15.3431966 C40.7013805,14.7538102 41.1797877,14.2754675 41.7692538,14.2754675 C42.3587199,14.2754675 42.8371271,14.7538102 42.8371271,15.3431966 L42.8371271,15.3431966 Z" id="Stroke-92" fill="#182359"></path>
            <path d="M39.3254959,50.2167683 L41.9684823,52.8591309 L44.6112018,50.2167683 C46.0707176,48.7574496 46.0707176,46.391095 44.6112018,44.9317763 C43.1516859,43.4724576 40.7850117,43.4724576 39.3254959,44.9317763 C37.8659801,46.391095 37.8659801,48.7574496 39.3254959,50.2167683 L39.3254959,50.2167683 Z" id="Stroke-94" stroke="#182359" stroke-width="1.59746434" stroke-linecap="round" stroke-linejoin="round"></path>
            <path d="M42.8371271,47.3750691 C42.8371271,47.9644556 42.3587199,48.4427982 41.7692538,48.4427982 C41.1797877,48.4427982 40.7013805,47.9644556 40.7013805,47.3750691 C40.7013805,46.7856827 41.1797877,46.30734 41.7692538,46.30734 C42.3587199,46.30734 42.8371271,46.7856827 42.8371271,47.3750691 L42.8371271,47.3750691 Z" id="Stroke-96" fill="#182359"></path>
            <path d="M58.0132787,36.8701548 L60.6562651,39.5125173 L63.2989846,36.8701548 C64.7585004,35.410836 64.7585004,33.0444815 63.2989846,31.5851627 C61.8394687,30.125844 59.4727945,30.125844 58.0132787,31.5851627 C56.5537629,33.0444815 56.5537629,35.410836 58.0132787,36.8701548 L58.0132787,36.8701548 Z" id="Stroke-98" stroke="#182359" stroke-width="1.59746434" stroke-linecap="round" stroke-linejoin="round"></path>
            <path d="M61.5249099,34.0284556 C61.5249099,34.617842 61.0465027,35.0961847 60.4570366,35.0961847 C59.8675706,35.0961847 59.3891633,34.617842 59.3891633,34.0284556 C59.3891633,33.4390691 59.8675706,32.9607265 60.4570366,32.9607265 C61.0465027,32.9607265 61.5249099,33.4390691 61.5249099,34.0284556 L61.5249099,34.0284556 Z" id="Stroke-100" fill="#182359"></path>
            <path d="M25.8634579,36.656342 L29.5209239,40.3133141 L33.178657,36.656342 C35.1988063,34.6364655 35.1988063,31.3620074 33.178657,29.3421309 C31.1585077,27.3222544 27.8836072,27.3222544 25.8634579,29.3421309 C23.8433086,31.3620074 23.8433086,34.6364655 25.8634579,36.656342 L25.8634579,36.656342 Z" id="Stroke-102" stroke="#182359" stroke-width="1.59746434" stroke-linecap="round" stroke-linejoin="round"></path>
            <path d="M30.3523968,32.9992364 C30.3523968,33.45836 29.980243,33.8304635 29.5210574,33.8304635 C29.0618719,33.8304635 28.6897181,33.45836 28.6897181,32.9992364 C28.6897181,32.5401129 29.0618719,32.1680094 29.5210574,32.1680094 C29.980243,32.1680094 30.3523968,32.5401129 30.3523968,32.9992364 L30.3523968,32.9992364 Z" id="Stroke-104" stroke="#182359" stroke-width="1.59746434" stroke-linecap="round" stroke-linejoin="round"></path>
            <path d="M65.6223832,56.4103978 C53.1061072,68.8529117 32.8717769,68.8307564 20.3832656,56.3436647 C7.8944873,43.85684 7.87232893,23.6252424 20.3165235,11.1106568" id="Stroke-106" stroke="#182359" stroke-width="1.59746434" stroke-linecap="round"></path>
        </g>
    </g>
</svg>