<?xml version="1.0" encoding="utf-8"?>
<!-- Generator: Adobe Illustrator 21.0.0, SVG Export Plug-In . SVG Version: 6.00 Build 0)  -->
<svg version="1.0" id="Layer_1" xmlns="http://www.w3.org/2000/svg" xmlns:xlink="http://www.w3.org/1999/xlink" x="0px" y="0px"
	 viewBox="0 0 125.7 126" style="enable-background:new 0 0 125.7 126;" xml:space="preserve">
<style type="text/css">
	.st0{fill:#FFFFFF;}
</style>
<g>
	<g>
		<path class="st0" d="M78.1,51c3.7-3.1,6.4-7.3,7.6-12c0.6-2.1,0.8-4.2,0.8-6.3h-8.6c0,3.9-1.5,7.8-4.5,10.8c-6,6-15.7,6-21.6,0
			c-3-3-4.5-6.9-4.5-10.8h-9c0,10.6,7.1,20.3,17.9,23.2c4.7,1.3,9.7,1.1,14.3-0.5l8.3,14.3c0.6,1,1.5,1.7,2.6,2l0,0
			c2.3,0.6,4.7-0.8,5.4-3.1c0.3-1.1,0.1-2.3-0.5-3.3L78.1,51z"/>
		<path class="st0" d="M116,79.3c-9.4-9.4-24.6-9.3-34,0.1c-3.5,3.4-5.8,7.9-6.7,12.7l-16.6,0c-1.1,0-2.2,0.5-3.1,1.3l0,0
			c-1.7,1.7-1.7,4.5,0,6.2c0.8,0.8,2,1.3,3.1,1.3l16.5,0c0.9,4.8,3.2,9.2,6.6,12.6c9.4,9.4,24.6,9.3,34-0.1
			C125.3,103.9,125.3,88.7,116,79.3z M109.7,107.2c-6,6-15.7,6-21.6,0c-6-6-5.9-15.7,0-21.6l0,0c6-6,15.7-6,21.6,0
			C115.7,91.5,115.7,101.2,109.7,107.2z"/>
		<path class="st0" d="M32.2,119.6C45,116.2,52.6,103,49.2,90.1c-1.3-4.7-3.9-8.9-7.6-12.1l8.3-14.4c0.6-1,0.7-2.2,0.4-3.3l0,0
			c-0.6-2.3-3-3.7-5.4-3.1c-1.1,0.3-2.1,1.1-2.6,2L34,73.6c-4.6-1.6-9.5-1.8-14.2-0.6c-12.8,3.4-20.4,16.6-17,29.5
			C6.2,115.4,19.4,123,32.2,119.6z M11.2,100.2C9,92.1,13.9,83.7,22,81.5c8.1-2.2,16.5,2.7,18.7,10.9l0,0
			c2.2,8.2-2.6,16.6-10.8,18.8C21.8,113.3,13.4,108.4,11.2,100.2z"/>
		<path class="st0" d="M77.2,13.7l4.3-6.6c0.4-0.7,0.3-1.6-0.4-2c-0.7-0.4-1.6-0.3-2,0.4l-4.3,6.5c-1.9-1.1-3.9-2-6.1-2.6
			C62.1,7.8,55.6,8.8,50.2,12L46,5.6c-0.4-0.7-1.3-0.9-2-0.4c-0.7,0.4-0.9,1.3-0.4,2l4.2,6.4c-4.1,3.1-7.2,7.5-8.7,12.9
			c-0.1,0.2-0.1,0.4-0.2,0.6h46.9C84.5,21.8,81.5,17.1,77.2,13.7z M51.7,21.9c-1.5,0-2.8-1.3-2.8-2.8c0-1.5,1.3-2.8,2.8-2.8
			s2.8,1.3,2.8,2.8C54.5,20.6,53.3,21.9,51.7,21.9z M73.2,21.9c-1.5,0-2.8-1.3-2.8-2.8c0-1.5,1.3-2.8,2.8-2.8s2.8,1.3,2.8,2.8
			C76,20.6,74.8,21.9,73.2,21.9z"/>
	</g>
</g>
</svg>
