<?xml version="1.0" encoding="UTF-8"?>
<svg width="193px" height="43px" viewBox="0 0 193 43" version="1.1" xmlns="http://www.w3.org/2000/svg" xmlns:xlink="http://www.w3.org/1999/xlink">
    <!-- Generator: Sketch 42 (36781) - http://www.bohemiancoding.com/sketch -->
    <title>Android_Logo_(2014)</title>
    <desc>Created with Sketch.</desc>
    <defs>
        <linearGradient x1="-22.1195652%" y1="-108.652344%" x2="110.241168%" y2="143.310547%" id="linearGradient-1">
            <stop stop-color="#21C7D0" offset="0%"></stop>
            <stop stop-color="#2DDE98" offset="100%"></stop>
        </linearGradient>
    </defs>
    <g id="Community" stroke="none" stroke-width="1" fill="none" fill-rule="evenodd">
        <g id="Community-Instantsearch-React" transform="translate(-866.000000, -164.000000)" fill="url(#linearGradient-1)">
            <g id="Group" transform="translate(380.000000, 160.000000)">
                <g id="Android_Logo_(2014)" transform="translate(485.789371, 4.275862)">
                    <g id="svg2">
                        <g id="layer1" transform="translate(0.200497, 0.129276)">
                            <path d="M0.188632135,26.4017762 C0.188632135,24.223079 0.553167698,22.1902827 1.28223883,20.3033424 C2.01130995,18.4164619 3.03200655,16.7727096 4.34434353,15.3720855 C5.65666559,13.9715212 7.22659935,12.8724543 9.05415974,12.0748552 C10.8816903,11.2773307 12.8842021,10.878546 15.06171,10.8785161 C16.7142593,10.878546 18.2161506,11.1217041 19.5673839,11.6079904 C20.9185874,12.0943365 22.2260567,12.8919058 23.4898069,14.0006685 L23.4898069,11.4621045 L30.8971773,11.4621045 L30.8971773,41.3414478 L23.4898069,41.3414478 L23.4898069,38.8028689 C22.2260567,39.9116764 20.9185874,40.7092308 19.5673839,41.195547 C18.2161506,41.6818632 16.7142593,41.9250213 15.06171,41.9250213 C12.8842021,41.9250213 10.8816903,41.5262366 9.05415974,40.7286822 C7.22659935,39.9311279 5.65666559,38.8320461 4.34434353,37.4314519 C3.03200655,36.0308577 2.01130995,34.3871054 1.28223883,32.5001949 C0.553167698,30.6132845 0.188632135,28.5804882 0.188632135,26.4017762 L0.188632135,26.4017762 Z M49.4141028,18.2545906 C45.9040556,18.2802868 42.8551204,20.7275544 42.8551204,24.3592392 L42.8551204,41.3414478 L35.447735,41.3414478 L35.447735,24.5634944 C35.4890951,17.5672462 41.5444856,10.9727855 49.3079553,10.8785161 L49.5148599,10.8785161 C57.2783297,10.9727855 63.3337501,17.5672462 63.3750802,24.5634944 L63.3750802,41.3414478 L55.9676949,41.3414478 L55.9676949,24.3592392 C55.9676949,20.7275544 52.9187597,18.2802719 49.4087125,18.2545906 L49.4141028,18.2545906 Z M66.8817379,26.4017762 C66.8817379,24.223079 67.2462735,22.1902827 67.9753446,20.3033424 C68.7044158,18.4164619 69.7251124,16.7727096 71.0374493,15.3720855 C72.3497714,13.9715212 73.9197052,12.8724543 75.7472655,12.0748552 C77.5747961,11.2773307 79.5773079,10.878546 81.7548308,10.8785161 C83.40738,10.878546 84.914124,11.1217041 86.2750777,11.6079904 C87.6359866,12.0943365 88.9386032,12.8821801 90.1829127,13.9714913 L90.1829127,2.504128 L97.5902831,2.504128 L97.5902831,41.3414478 L90.1829127,41.3414478 L90.1829127,38.8320461 C88.9386032,39.9408536 87.6359866,40.7335526 86.2750777,41.210143 C84.914124,41.6867335 83.40738,41.9250213 81.7548308,41.9250213 C79.5773079,41.9250213 77.5747961,41.5262366 75.7472655,40.7286822 C73.9197052,39.9311279 72.3497714,38.8320461 71.0374493,37.4314519 C69.7251124,36.0308577 68.7044158,34.3871054 67.9753446,32.5001949 C67.2462735,30.6132845 66.8817379,28.5804882 66.8817379,26.4017762 L66.8817379,26.4017762 Z M132.278887,41.9250213 C130.120819,41.9250213 128.089131,41.5359623 126.183838,40.7578594 C124.278515,39.9797565 122.611378,38.8952708 121.182396,37.5044023 C119.753415,36.1135338 118.62578,34.4697815 117.79949,32.5731454 C116.973216,30.6765092 116.560078,28.6193911 116.560078,26.4017762 C116.560078,24.2425454 116.973216,22.2194599 117.79949,20.3325346 C118.62578,18.4456391 119.748548,16.8018868 121.167808,15.4012627 C122.587069,14.0006983 124.254222,12.8967612 126.16925,12.0894512 C128.084279,11.2821861 130.120819,10.878546 132.278887,10.8785161 C134.436924,10.878546 136.468612,11.2821861 138.373935,12.0894512 C140.279228,12.8967612 141.941513,14.0006983 143.360789,15.4012627 C144.780034,16.8018868 145.902802,18.4456391 146.729107,20.3325346 C147.555366,22.2194599 147.968504,24.2425454 147.968534,26.4017762 C147.968504,28.6193911 147.555366,30.6765092 146.729107,32.5731454 C145.902802,34.4697815 144.775167,36.1135338 143.346216,37.5044023 C141.917204,38.8952708 140.25492,39.9797565 138.359362,40.7578594 C136.463744,41.5359623 134.436924,41.9250213 132.278887,41.9250213 L132.278887,41.9250213 Z M154.991226,9.12241748 C154.391073,9.12244736 153.823754,9.00514106 153.289269,8.77057327 C152.754754,8.53605031 152.285907,8.21705844 151.8827,7.81358273 C151.479477,7.41016677 151.160646,6.94106108 150.926223,6.40623578 C150.691785,5.87148517 150.574573,5.30385235 150.574573,4.70333731 C150.574573,4.1029119 150.691785,3.53058802 150.926223,2.98636566 C151.160646,2.44223294 151.479477,1.9684362 151.8827,1.56494554 C152.285907,1.16154453 152.754754,0.842552662 153.289269,0.607954998 C153.823754,0.373432032 154.391073,0.25615561 154.991226,0.256110791 C155.591349,0.25615561 156.163357,0.373387213 156.707234,0.607954998 C157.251096,0.842552662 157.724645,1.16154453 158.127868,1.56494554 C158.531076,1.9684362 158.849907,2.44223294 159.084345,2.98636566 C159.318768,3.53058802 159.43598,4.1029119 159.435995,4.70333731 C159.43598,5.30385235 159.318783,5.87148517 159.084345,6.40623578 C158.849907,6.94106108 158.531076,7.41016677 158.127868,7.81358273 C157.724645,8.21705844 157.251096,8.53605031 156.707234,8.77057327 C156.163357,9.00517094 155.591349,9.12244736 154.991226,9.12241748 Z M151.287011,11.4621045 L158.694396,11.4621045 L158.694396,41.3414478 L151.287011,41.3414478 L151.287011,11.4621045 Z M162.100371,26.4017762 C162.100371,24.223079 162.464907,22.1902827 163.193978,20.3033424 C163.923049,18.4164619 164.943746,16.7727096 166.256083,15.3720855 C167.568405,13.9715212 169.138338,12.8724543 170.965899,12.0748552 C172.793429,11.2773307 174.795941,10.878546 176.973464,10.8785161 C178.626013,10.878546 180.132757,11.1217041 181.493711,11.6079904 C182.85462,12.0943365 184.157237,12.8821801 185.401546,13.9714913 L185.401546,2.504128 L192.808916,2.504128 L192.808916,41.3414478 L185.401546,41.3414478 L185.401546,38.8320461 C184.157237,39.9408536 182.85462,40.7335526 181.493711,41.210143 C180.132757,41.6867335 178.626013,41.9250213 176.973464,41.9250213 C174.795941,41.9250213 172.793429,41.5262366 170.965899,40.7286822 C169.138338,39.9311279 167.568405,38.8320461 166.256083,37.4314519 C164.943746,36.0308577 163.923049,34.3871054 163.193978,32.5001949 C162.464907,30.6132845 162.100371,28.5804882 162.100371,26.4017762 L162.100371,26.4017762 Z M177.935839,34.9512274 C178.519075,34.9512423 179.131501,34.8880325 179.773104,34.7615682 C180.414662,34.6351786 181.061103,34.4211529 181.712426,34.1196255 C182.36372,33.818113 183.00044,33.414473 183.622602,32.9086904 C184.24472,32.4029377 184.837706,31.7804464 185.401546,31.0412314 L185.401546,21.762306 C184.837706,21.0231209 184.24472,20.4054999 183.622602,19.9094281 C183.00044,19.4134161 182.36372,19.0097611 181.712426,18.698508 C181.061103,18.3872847 180.414662,18.1684335 179.773104,18.0419692 C179.131501,17.9155795 178.519075,17.8523399 177.935839,17.85231 C176.788748,17.8523399 175.714582,18.0663059 174.713326,18.4942528 C173.712055,18.9222296 172.842031,19.5203991 172.103255,20.2887613 C171.364448,21.0571684 170.78605,21.9617057 170.36806,23.0024182 C169.95004,24.0431456 169.741045,25.17626 169.74106,26.4017762 C169.741045,27.6273073 169.95004,28.7604216 170.36806,29.8011341 C170.78605,30.8418615 171.364448,31.7464138 172.103255,32.5147761 C172.842031,33.2831682 173.712055,33.8813377 174.713326,34.3092846 C175.714582,34.7372614 176.788748,34.9512423 177.935839,34.9512274 L177.935839,34.9512274 Z M115.854241,18.1650422 C110.890157,18.1650422 108.701092,20.7275544 108.701092,24.3592392 L108.701092,41.3414478 L101.293707,41.3414478 L101.293707,24.5634944 C101.335067,17.5672462 105.374104,10.6892454 115.854241,10.6892454 L115.854241,18.1650422 Z M132.278887,34.9512274 C133.387066,34.9512423 134.432056,34.7421168 135.413901,34.3238807 C136.395702,33.9056595 137.251137,33.3172157 137.980238,32.5585493 C138.70928,31.7998978 139.282825,30.9002159 139.700845,29.8594885 C140.11882,28.818776 140.32783,27.6662102 140.327845,26.4017762 C140.32783,25.1568085 140.113967,24.0139684 139.686272,22.9732261 C139.258517,21.9325286 138.675266,21.0328466 137.936489,20.2741653 C137.197683,19.5155437 136.342232,18.9222296 135.370152,18.4942528 C134.398043,18.0663059 133.367611,17.8523399 132.278887,17.85231 C131.170677,17.8523399 130.125672,18.0663059 129.143872,18.4942528 C128.162042,18.9222296 127.306591,19.5155437 126.577535,20.2741653 C125.848449,21.0328466 125.270051,21.9325286 124.84234,22.9732261 C124.414615,24.0139684 124.200752,25.1568085 124.200752,26.4017762 C124.200752,27.6662102 124.409747,28.818776 124.827767,29.8594885 C125.245757,30.9002159 125.819288,31.7998978 126.548374,32.5585493 C127.27743,33.3172157 128.132881,33.9056595 129.114711,34.3238807 C130.096511,34.7421168 131.151236,34.9512423 132.278887,34.9512274 Z M82.7172052,34.9512274 C83.3004412,34.9512423 83.9128682,34.8880325 84.554471,34.7615682 C85.1960292,34.6351786 85.8424698,34.4211529 86.4937931,34.1196255 C87.1450865,33.818113 87.7818068,33.414473 88.403969,32.9086904 C89.0260864,32.4029377 89.6190726,31.7804464 90.1829127,31.0412314 L90.1829127,21.762306 C89.6190726,21.0231209 89.0260864,20.4054999 88.403969,19.9094281 C87.7818068,19.4134161 87.1450865,19.0097611 86.4937931,18.698508 C85.8424698,18.3872847 85.1960292,18.1684335 84.554471,18.0419692 C83.9128682,17.9155795 83.3004412,17.8523399 82.7172052,17.85231 C81.5701142,17.8523399 80.4959482,18.0663059 79.4946923,18.4942528 C78.4934215,18.9222296 77.6233978,19.5203991 76.8846213,20.2887613 C76.1458149,21.0571684 75.5674167,21.9617057 75.1494266,23.0024182 C74.7314067,24.0431456 74.5224117,25.17626 74.5224267,26.4017762 C74.5224117,27.6273073 74.7314067,28.7604216 75.1494266,29.8011341 C75.5674167,30.8418615 76.1458149,31.7464138 76.8846213,32.5147761 C77.6233978,33.2831682 78.4934215,33.8813377 79.4946923,34.3092846 C80.4959482,34.7372614 81.5701142,34.9512423 82.7172052,34.9512274 L82.7172052,34.9512274 Z M16.0240994,34.9512274 C16.6073354,34.9512423 17.2197474,34.8880325 17.8613503,34.7615682 C18.5029233,34.6351786 19.149364,34.4211529 19.8006873,34.1196255 C20.4519807,33.818113 21.088701,33.414473 21.7108632,32.9086904 C22.3329806,32.4029377 22.9259519,31.7804464 23.4898069,31.0412314 L23.4898069,21.762306 C22.9259519,21.0231209 22.3329806,20.4054999 21.7108632,19.9094281 C21.088701,19.4134161 20.4519807,19.0097611 19.8006873,18.698508 C19.149364,18.3872847 18.5029233,18.1684335 17.8613503,18.0419692 C17.2197474,17.9155795 16.6073354,17.8523399 16.0240994,17.85231 C14.8770084,17.8523399 13.8028275,18.0663059 12.8015865,18.4942528 C11.8003157,18.9222296 10.930292,19.5203991 10.1915155,20.2887613 C9.45270907,21.0571684 8.87431085,21.9617057 8.45632082,23.0024182 C8.03830093,24.0431456 7.82930591,25.17626 7.82930591,26.4017762 C7.82930591,27.6273073 8.03830093,28.7604216 8.45632082,29.8011341 C8.87431085,30.8418615 9.45270907,31.7464138 10.1915155,32.5147761 C10.930292,33.2831682 11.8003157,33.8813377 12.8015865,34.3092846 C13.8028275,34.7372614 14.8770084,34.9512423 16.0240994,34.9512274 L16.0240994,34.9512274 Z" id="Combined-Shape"></path>
                        </g>
                    </g>
                </g>
            </g>
        </g>
    </g>
</svg>