<?xml version="1.0" encoding="utf-8"?>
<!-- Generator: Adobe Illustrator 21.0.0, SVG Export Plug-In . SVG Version: 6.00 Build 0)  -->
<svg version="1.1" baseProfile="basic" id="Layer_1"
	 xmlns="http://www.w3.org/2000/svg" xmlns:xlink="http://www.w3.org/1999/xlink" x="0px" y="0px" viewBox="0 0 69 69"
	 xml:space="preserve">
<style type="text/css">
	.st0{fill:url(#SVGID_1_);}
</style>
<g>
	<linearGradient id="SVGID_1_" gradientUnits="userSpaceOnUse" x1="8.0001" y1="34.7518" x2="61.0546" y2="34.7518">
		<stop  offset="0" style="stop-color:#2751AF"/>
		<stop  offset="1" style="stop-color:#32C0F9"/>
	</linearGradient>
	<path class="st0" d="M26,61.3C26,61.3,25.9,61.3,26,61.3c-0.4,0-0.6-0.2-0.8-0.4l-7-9.8l-9.8-7C8.2,43.9,8,43.7,8,43.4
		c0-0.3,0.1-0.6,0.3-0.8l1.4-1.4c0.2-0.2,0.6-0.3,0.9-0.3l8,1.6l12-11.8L9,24.3c-0.3-0.1-0.6-0.4-0.7-0.7c-0.1-0.3,0-0.7,0.3-1
		l4.9-4.9c0.2-0.2,0.5-0.3,0.8-0.3L41,20.2l8.6-8.6c1.5-1.6,5-3.4,7.7-3.4c1.2,0,2.2,0.3,2.8,1c2.5,2.5-0.5,8.6-2.4,10.5L49,28.3
		l2.8,26.8c0,0.3-0.1,0.6-0.3,0.8l-4.9,4.9c-0.2,0.2-0.6,0.3-1,0.3c-0.3-0.1-0.6-0.3-0.7-0.7l-6.4-21.5L26.8,50.7l1.6,8
		c0.1,0.3,0,0.7-0.3,0.9L26.7,61C26.5,61.2,26.3,61.3,26,61.3z M10.5,43.2l8.9,6.4c0.1,0.1,0.2,0.1,0.2,0.2l6.4,8.9l0.2-0.2l-1.6-8
		c-0.1-0.3,0-0.7,0.3-0.9l13.4-13.4c0.2-0.2,0.6-0.3,1-0.3c0.3,0.1,0.6,0.3,0.7,0.7l6.4,21.5l3.4-3.4L47,28c0-0.3,0.1-0.6,0.3-0.8
		l9-8.9c1.9-1.9,3.5-6.5,2.4-7.7c-0.3-0.3-0.9-0.4-1.4-0.4c-2.1,0-5.1,1.5-6.3,2.8l-8.9,8.9c-0.2,0.2-0.5,0.3-0.8,0.3l-26.7-2.8
		l-3.4,3.4l21.6,6.4c0.3,0.1,0.6,0.4,0.7,0.7s0,0.7-0.3,1L19.6,44.3c-0.2,0.2-0.6,0.3-0.9,0.3l-8-1.6L10.5,43.2z"/>
</g>
</svg>
