<svg baseProfile="basic" id="Layer_1" xmlns="http://www.w3.org/2000/svg" viewBox="0 0 69 69"><style>.st0{fill:url(#SVGID_1_)}</style><linearGradient id="SVGID_1_" gradientUnits="userSpaceOnUse" x1="8" y1="34.752" x2="61.055" y2="34.752"><stop offset="0" stop-color="#2751af"/><stop offset="1" stop-color="#32c0f9"/></linearGradient><path class="st0" d="M26 61.3s-.1 0 0 0c-.4 0-.6-.2-.8-.4l-7-9.8-9.8-7c-.2-.2-.4-.4-.4-.7 0-.3.1-.6.3-.8l1.4-1.4c.2-.2.6-.3.9-.3l8 1.6 12-11.8L9 24.3c-.3-.1-.6-.4-.7-.7-.1-.3 0-.7.3-1l4.9-4.9c.2-.2.5-.3.8-.3L41 20.2l8.6-8.6c1.5-1.6 5-3.4 7.7-3.4 1.2 0 2.2.3 2.8 1 2.5 2.5-.5 8.6-2.4 10.5L49 28.3l2.8 26.8c0 .3-.1.6-.3.8l-4.9 4.9c-.2.2-.6.3-1 .3-.3-.1-.6-.3-.7-.7l-6.4-21.5-11.7 11.8 1.6 8c.1.3 0 .7-.3.9L26.7 61c-.2.2-.4.3-.7.3zM10.5 43.2l8.9 6.4c.1.1.2.1.2.2l6.4 8.9.2-.2-1.6-8c-.1-.3 0-.7.3-.9l13.4-13.4c.2-.2.6-.3 1-.3.3.1.6.3.7.7l6.4 21.5 3.4-3.4L47 28c0-.3.1-.6.3-.8l9-8.9c1.9-1.9 3.5-6.5 2.4-7.7-.3-.3-.9-.4-1.4-.4-2.1 0-5.1 1.5-6.3 2.8l-8.9 8.9c-.2.2-.5.3-.8.3l-26.7-2.8-3.4 3.4 21.6 6.4c.3.1.6.4.7.7s0 .7-.3 1L19.6 44.3c-.2.2-.6.3-.9.3l-8-1.6-.2.2z"/></svg>