<?xml version="1.0" encoding="utf-8"?>
<!-- Generator: Adobe Illustrator 21.0.0, SVG Export Plug-In . SVG Version: 6.00 Build 0)  -->
<svg version="1.1" id="Layer_1" xmlns="http://www.w3.org/2000/svg" xmlns:xlink="http://www.w3.org/1999/xlink" x="0px" y="0px"
	 viewBox="0 0 15073.9 4399.9" style="enable-background:new 0 0 15073.9 4399.9;" xml:space="preserve">
<style type="text/css">
	.st0{opacity:0.1;fill:#15117C;}
	.st1{opacity:0.15;}
	.st2{fill:url(#SVGID_1_);}
	.st3{fill:url(#SVGID_2_);}
	.st4{fill:url(#SVGID_3_);}
	.st5{opacity:0.5;}
	.st6{fill:#FFFFFF;}
	.st7{opacity:0.2;fill:#0B38FF;}
	.st8{opacity:0.2;}
	.st9{fill:url(#SVGID_4_);}
	.st10{fill:url(#SVGID_5_);}
	.st11{fill:url(#SVGID_6_);}
	.st12{fill:#201C38;}
	.st13{opacity:0.75;fill:#FFFFFF;}
	.st14{fill:url(#SVGID_7_);}
	.st15{fill:#3D386B;}
	.st16{fill:#5A578E;}
	.st17{fill:url(#SVGID_8_);}
	.st18{fill:url(#SVGID_9_);}
	.st19{fill:url(#SVGID_10_);}
	.st20{fill:#D7D7F4;}
	.st21{fill:url(#SVGID_11_);}
	.st22{fill:url(#SVGID_12_);}
	.st23{fill:url(#SVGID_13_);}
	.st24{fill:url(#SVGID_14_);}
	.st25{fill:url(#SVGID_15_);}
	.st26{fill:url(#SVGID_16_);}
	.st27{fill:url(#SVGID_17_);}
	.st28{fill:url(#SVGID_18_);}
	.st29{fill:url(#SVGID_19_);}
	.st30{fill:#3B3769;}
	.st31{fill:#AAAAE0;}
	.st32{fill:#FCB43A;}
</style>
<g>
	<g>
		<g>
			<polygon class="st0" points="4440.9,1090.9 2683.1,1642.8 4440.9,2194.6 6198.7,1642.8 			"/>
			<g class="st1">
				<linearGradient id="SVGID_1_" gradientUnits="userSpaceOnUse" x1="4440.8936" y1="1107.0654" x2="4440.8936" y2="0">
					<stop  offset="0" style="stop-color:#211E39;stop-opacity:0"/>
					<stop  offset="1" style="stop-color:#0B38FF"/>
				</linearGradient>
				<polygon class="st2" points="4440.9,0 2677.7,553.5 4440.9,1107.1 6204.1,553.5 				"/>
				<linearGradient id="SVGID_2_" gradientUnits="userSpaceOnUse" x1="4440.894" y1="1190.9254" x2="6204.0527" y2="1190.9254">
					<stop  offset="0" style="stop-color:#211E39;stop-opacity:0"/>
					<stop  offset="1" style="stop-color:#0B38FF"/>
				</linearGradient>
				<polygon class="st3" points="4440.9,1828.3 6204.1,1274.8 6204.1,553.5 4440.9,1107.1 				"/>
				<linearGradient id="SVGID_3_" gradientUnits="userSpaceOnUse" x1="2677.7344" y1="1190.9254" x2="4440.8931" y2="1190.9254">
					<stop  offset="0" style="stop-color:#211E39;stop-opacity:0"/>
					<stop  offset="1" style="stop-color:#0B38FF"/>
				</linearGradient>
				<polygon class="st4" points="4440.9,1828.3 2677.7,1274.8 2677.7,553.5 4440.9,1107.1 				"/>
				<g class="st5">
					<polygon class="st6" points="4709.1,84.2 4650.6,1041.2 4781,1000.3 4903.2,145.1 					"/>
					<polygon class="st6" points="5251.8,254.6 5043,189 4919.3,956.9 5077.8,907.1 					"/>
				</g>
			</g>
		</g>
		
			<ellipse transform="matrix(0.476 -0.8794 0.8794 0.476 1753.4221 5322.5044)" class="st7" cx="5343.3" cy="1189.8" rx="115.1" ry="82"/>
		
			<ellipse transform="matrix(0.476 -0.8794 0.8794 0.476 1753.4221 5322.5044)" class="st7" cx="5343.3" cy="1189.8" rx="74.7" ry="53.2"/>
		<g class="st8">
			
				<linearGradient id="SVGID_4_" gradientUnits="userSpaceOnUse" x1="5313.8491" y1="16031.085" x2="7087.0371" y2="16031.085" gradientTransform="matrix(1 0 0 -1 0 17500.416)">
				<stop  offset="0" style="stop-color:#0B38FF"/>
				<stop  offset="1" style="stop-color:#211E39;stop-opacity:0"/>
			</linearGradient>
			<path class="st9" d="M7044.8,1781.8c-4.3,0-8.6-0.7-12.9-2l-1688.7-540.4c-22.2-7.1-34.4-30.9-27.3-53.1
				c7.1-22.2,30.9-34.5,53.1-27.3l1688.7,540.4c22.2,7.1,34.4,30.9,27.3,53.1C7079.3,1770.3,7062.7,1781.8,7044.8,1781.8z"/>
		</g>
		<g>
			<polygon class="st0" points="11482.9,1095 9715.8,1649.8 11482.9,2204.5 13249.9,1649.8 			"/>
			<g>
				<linearGradient id="SVGID_5_" gradientUnits="userSpaceOnUse" x1="11482.8945" y1="1835.3124" x2="11482.8945" y2="6.9942">
					<stop  offset="0.2389" style="stop-color:#3D386B"/>
					<stop  offset="1" style="stop-color:#211E39"/>
				</linearGradient>
				<polygon class="st10" points="11482.9,7 9719.7,560.5 11482.9,1835.3 13246.1,560.5 				"/>
				<linearGradient id="SVGID_6_" gradientUnits="userSpaceOnUse" x1="11482.8945" y1="1197.9197" x2="13246.0537" y2="1197.9197">
					<stop  offset="0" style="stop-color:#3D386B"/>
					<stop  offset="1" style="stop-color:#211E39"/>
				</linearGradient>
				<polygon class="st11" points="11482.9,1835.3 13246.1,1281.8 13246.1,560.5 11482.9,1114.1 				"/>
				<polygon class="st12" points="11482.9,1835.3 9719.7,1281.8 9719.7,560.5 11482.9,1114.1 				"/>
			</g>
			<g>
				<g>
					<polygon class="st13" points="10820.9,365.5 10820.9,365.5 10820.9,365.5 10550.2,587.1 11414.4,816.1 12105,775.7 
						12105,775.7 12105,775.7 12234.5,555.9 11517.9,280 					"/>
					<polygon class="st6" points="10820.9,365.5 10963.4,411 10962.8,410.8 11613.2,618.6 11613.2,618.6 12105,775.7 12105,775.7 
						12234.5,555.9 11517.9,280 					"/>
					<linearGradient id="SVGID_7_" gradientUnits="userSpaceOnUse" x1="10962.7695" y1="592.5974" x2="12102.0996" y2="592.5974">
						<stop  offset="0" style="stop-color:#3D386B"/>
						<stop  offset="1" style="stop-color:#211E39"/>
					</linearGradient>
					<path class="st14" d="M10962.8,410.8l535.5,363.6l0,0l112.8-35.8l0,0l-126.7-79.2L11741,578l248.3,40.6l0,0l112.8-35.8l0,0
						L10962.8,410.8L10962.8,410.8L10962.8,410.8L10962.8,410.8L10962.8,410.8z M11586,553.6l-176.7,56.1L11235,497.7L11586,553.6z"
						/>
				</g>
			</g>
		</g>
		
			<ellipse transform="matrix(0.9585 -0.2852 0.2852 0.9585 100.2335 3080.4241)" class="st15" cx="10624.8" cy="1196.1" rx="82" ry="115.1"/>
		
			<ellipse transform="matrix(0.9585 -0.2852 0.2852 0.9585 100.2335 3080.4241)" class="st16" cx="10624.8" cy="1196.1" rx="53.2" ry="74.7"/>
		<g>
			<linearGradient id="SVGID_8_" gradientUnits="userSpaceOnUse" x1="8910.8428" y1="1480.608" x2="10650.2568" y2="1480.608">
				<stop  offset="0" style="stop-color:#211E39"/>
				<stop  offset="1" style="stop-color:#3D386B"/>
			</linearGradient>
			<path class="st17" d="M8953.1,1798.7c-17.7,0-34.1-11.2-40-28.9c-7.4-22.1,4.6-46,26.7-53.4l1655-551.7
				c22.1-7.3,46,4.6,53.4,26.7c7.4,22.1-4.6,46-26.7,53.4l-1655,551.7C8962,1797.9,8957.5,1798.7,8953.1,1798.7z"/>
		</g>
		<polygon class="st0" points="7947.9,2192.2 6197.8,2741.6 7947.9,3291.1 9698.1,2741.6 		"/>
		<g>
			<linearGradient id="SVGID_9_" gradientUnits="userSpaceOnUse" x1="7947.9385" y1="2927.1936" x2="7947.9385" y2="1098.8754">
				<stop  offset="0.4881" style="stop-color:#FCFCFE"/>
				<stop  offset="1" style="stop-color:#EDEDFA"/>
			</linearGradient>
			<polygon class="st18" points="7947.9,1098.9 6184.8,1652.4 7947.9,2927.2 9711.1,1652.4 			"/>
			<linearGradient id="SVGID_10_" gradientUnits="userSpaceOnUse" x1="7947.939" y1="2289.8008" x2="9711.0977" y2="2289.8008">
				<stop  offset="0" style="stop-color:#FCFCFE"/>
				<stop  offset="0.9699" style="stop-color:#C6C6EF"/>
			</linearGradient>
			<polygon class="st19" points="7947.9,2927.2 9711.1,2373.7 9711.1,1652.4 7947.9,2205.9 			"/>
			<polygon class="st20" points="7947.9,2927.2 6184.8,2373.7 6184.8,1652.4 7947.9,2205.9 			"/>
		</g>
		<g>
			<g>
				<linearGradient id="SVGID_11_" gradientUnits="userSpaceOnUse" x1="7371.417" y1="1539.1332" x2="8154.021" y2="1539.1332">
					<stop  offset="0" style="stop-color:#FCB43A"/>
					<stop  offset="1" style="stop-color:#FEDD4E"/>
				</linearGradient>
				<path class="st21" d="M7517.7,1495.6c61-19.5,171.8-15.9,246.4,8s85.6,59.3,24.6,78.7c-61,19.5-171.8,15.9-246.4-8
					C7467.8,1550.5,7456.7,1515.1,7517.7,1495.6z M7873.2,1609.5c20.3-6.5,34.7-14.2,46.6-22.8l100.9,11.5l69.6,8
					c19.8,2.4,38.4,1.3,50.6-2.6c6.1-1.9,9.9-4,12.3-7.1c5.1-8.8-15.9-18.8-45-22.2l-69.6-8l-102.2-11.9
					c-2.1-24.7-37.4-51.6-103.3-72.7c-120.6-38.6-299.1-44.4-397.8-13s-81.8,88.9,40,127.9C7597.3,1635.5,7774.6,1641,7873.2,1609.5
					z"/>
				<linearGradient id="SVGID_12_" gradientUnits="userSpaceOnUse" x1="7664.0063" y1="1717.0625" x2="8754.7822" y2="1717.0625">
					<stop  offset="0" style="stop-color:#3D386B"/>
					<stop  offset="1" style="stop-color:#211E39"/>
				</linearGradient>
				<path class="st22" d="M8083.1,1844.4c62-19.8,51-55.2-24.6-78.7c-74.6-23.9-185.3-27.5-246.4-8c-61,19.5-50,54.9,24.6,78.7
					C7911.4,1860.3,8022.1,1863.9,8083.1,1844.4z M7900.3,1710.5c77.4,0.7,160.2,11.7,226.3,33.5c120.6,38.6,138.4,95.7,39.8,127.1
					s-276,26-397.8-13c-121.8-39-139.7-96.1-41-127.5c21.4-6.8,45.7-11.4,71.4-14.8l-35.8-32.3l-24.9-22.3
					c-9.7-9.6,4.4-18.1,31.9-19.7c28.7-1.2,58.6,5.1,69.4,14.4l24.9,22.3L7900.3,1710.5z M8609,1676.7c-61,19.5-171.8,15.9-246.4-8
					c-74.6-23.9-85.6-59.3-24.6-78.7c61-19.5,171.8-15.9,246.4,8C8659,1621.9,8670,1657.3,8609,1676.7z M8253.5,1562.9
					c-87.5,27.9-82.6,75.6,1.8,113l-64.1,20.4l-44.8,14.3c-18.3,5.8-14.9,16.7,7.5,23.8c22.4,7.2,56.3,8.3,74.6,2.4l44.8-14.3
					l64.1-20.4c117,27.1,266.2,28.7,353.7,0.8c98.7-31.5,80.8-88.5-39.8-127.1C8530.7,1537.2,8352.2,1531.4,8253.5,1562.9z"/>
			</g>
		</g>
		
			<ellipse transform="matrix(0.476 -0.8794 0.8794 0.476 2613.7283 8995.5557)" class="st15" cx="8855.9" cy="2304.4" rx="115.1" ry="82"/>
		
			<ellipse transform="matrix(0.476 -0.8794 0.8794 0.476 2613.7283 8995.5557)" class="st16" cx="8855.9" cy="2304.4" rx="74.7" ry="53.2"/>
		<g>
			
				<linearGradient id="SVGID_13_" gradientUnits="userSpaceOnUse" x1="8826.4062" y1="14916.498" x2="10599.5947" y2="14916.498" gradientTransform="matrix(1 0 0 -1 0 17500.416)">
				<stop  offset="0" style="stop-color:#211E39"/>
				<stop  offset="1" style="stop-color:#3D386B"/>
			</linearGradient>
			<path class="st23" d="M10557.4,2896.3c-4.3,0-8.6-0.7-12.9-2l-1688.7-540.4c-22.2-7.1-34.4-30.9-27.3-53.1
				c7.1-22.2,30.9-34.4,53.1-27.3l1688.7,540.4c22.2,7.1,34.4,30.9,27.3,53.1C10591.8,2884.9,10575.2,2896.3,10557.4,2896.3z"/>
		</g>
		<g>
			<polygon class="st0" points="11432.2,3290.3 9665.2,3845.1 11432.2,4399.9 13199.3,3845.1 			"/>
			<g>
				<linearGradient id="SVGID_14_" gradientUnits="userSpaceOnUse" x1="11432.2324" y1="4030.6604" x2="11432.2324" y2="2202.3423">
					<stop  offset="0.2497" style="stop-color:#3D386B"/>
					<stop  offset="1" style="stop-color:#211E39"/>
				</linearGradient>
				<polygon class="st24" points="11432.2,2202.3 9669.1,2755.9 11432.2,4030.7 13195.4,2755.9 				"/>
				<linearGradient id="SVGID_15_" gradientUnits="userSpaceOnUse" x1="11432.2334" y1="3393.2678" x2="13195.3916" y2="3393.2678">
					<stop  offset="0" style="stop-color:#3D386B"/>
					<stop  offset="1" style="stop-color:#211E39"/>
				</linearGradient>
				<polygon class="st25" points="11432.2,4030.7 13195.4,3477.1 13195.4,2755.9 11432.2,3309.4 				"/>
				<polygon class="st12" points="11432.2,4030.7 9669.1,3477.1 9669.1,2755.9 11432.2,3309.4 				"/>
			</g>
			<g>
				<path class="st6" d="M11646.1,2573.9L11646.1,2573.9c-17.3,2.3-34.3,4.7-51,7.3c-8-3.9-16.2-7.6-24.6-11.4
					c-135.6-60.7-285.7-96.6-391.6-90.4c-101.6,5.9-156.2,50.8-151.5,115.1c0.5,6.3,1.5,12.7,3,19.1c-13.5-0.3-26.8-0.5-40.2-0.6
					c-214.7-2.1-365.4,16.1-384.4,49.8c-18.1,32.2,88,77.1,268.2,118.2c17.9,4.1,36,8,54.3,11.8c-9.7,6.3-18.5,12.5-26.4,18.6
					c-70.6,54.9-68.2,104.9,14.8,131.1c85.7,27.1,255.1,27.8,434,4.1c14.5-1.9,28.7-4,42.8-6.2c13,6.3,26.4,12.4,40.4,18.5
					c128.3,55.9,268,88.2,369.3,82.3c104.5-6.1,164.1-52.9,158.8-118.5c-0.4-5.2-1.3-10.6-2.6-16c21.8,0.5,43.5,0.8,65.1,0.9
					c198.8,1,336.1-16.8,354.2-48.9c18.7-33.2-91.2-80.7-275.4-122.5c-14.1-3.2-28.7-6.3-43.9-9.5c4.7-3.1,9.2-6.3,13.3-9.3
					c79.2-58.5,80-112.6-6.9-140.1C11982.4,2550.7,11821.7,2550.7,11646.1,2573.9z M11104.1,2598.2c-4-55.1,40.2-91.4,101.4-94.9
					c65.2-3.8,187.9,25.6,304.9,78c7.7,3.4,15,6.9,22.4,10.3c-60.9,11-122.5,24.3-182.8,39.6c-85.7-7.1-167.6-12.3-243-15.3
					C11105.4,2610,11104.6,2604.1,11104.1,2598.2z M11326.8,2856.9c34.5,4.3,69.3,8.4,104.2,12.3c35.6,3.9,71.3,7.6,107.1,11
					c-42.7,10.4-85,19.5-126.4,27.2C11382.3,2891.7,11353.8,2874.7,11326.8,2856.9z M11187.7,2813c-55.1-8.4-107.4-17.2-156.2-26.3
					c24-13.2,51.7-26.6,82.7-39.9c10.7,11.1,22.2,22.2,34.5,33.3C11160.9,2791,11173.9,2802,11187.7,2813z M11283.3,2826.6
					c-22.8-16.8-43.7-33.7-62.6-50.8l0,0c-19-17.1-36-34.2-51-51.5c31-11.9,64.4-23.5,99.9-34.8c35.6-11.3,72.3-21.9,109.6-31.8
					c54.1,4.8,108.1,10.1,161.7,16.1c53.9,5.9,107.3,12.4,160.5,19.4c22.6,16.9,43.5,34,62.6,51.1l0,0c19,17.1,36.3,34.2,51.9,51.4
					c-31.2,11.8-64.9,23.4-100.8,34.9c-35.8,11.4-71.9,22-108,31.8c-54.7-4.7-109.2-10.1-163.4-16.1
					C11389.9,2840.4,11336.4,2833.8,11283.3,2826.6z M11836.1,2740.2c-12.6-11.3-25.9-22.6-39.9-33.8l0,0
					c57.5,8.4,111.3,17.2,160.3,26.2c-24.2,13.5-52.8,27.3-85.2,41C11860.1,2762.5,11848.4,2751.3,11836.1,2740.2z M11658.8,2663.2
					c-34.9-4.3-69.9-8.4-105-12.3l0,0c-34.6-3.8-69.3-7.4-104.1-10.8c42.2-9.9,84.8-18.7,126.8-26.3
					C11604.8,2629.1,11632.4,2645.6,11658.8,2663.2z M11114.7,2640.2c52.2,2.1,107.8,5.4,165.9,9.6c-47.8,13.6-93.1,28-135.9,43.1
					C11131.6,2674.6,11121.5,2657,11114.7,2640.2z M10681.5,2671c11.7-20.7,134.9-35.6,320.2-33.8c11.9,0.1,24,0.3,36.4,0.6
					c9.7,24.3,25.9,50.3,47.9,77.3c-48,19.1-90,38.6-124.6,57.8c-17-3.5-33.9-7.2-50.5-11l0,0
					C10756.4,2726.7,10670.5,2690.4,10681.5,2671z M11349.5,2918c-12.8,2-25.8,3.9-39.1,5.6c-79.1,10.5-155.3,15.7-219.7,15.5
					c-57.9-0.3-101.5-4.9-125.2-12.4c-50.3-15.9-52.2-56.1,8.2-103c7.6-5.9,15.8-11.7,24.5-17.3c70.7,13.2,148.4,25.9,230.7,37.5
					C11266.4,2870.3,11307.1,2895.3,11349.5,2918z M11884.8,2918.7c2.3,29-9.1,53.7-31.7,71.6l0,0c-20.3,16-48.1,25.1-76.9,26.8
					c-61.4,3.6-173.6-22.4-283.4-70.2c-13-5.7-25.5-11.4-37.6-17.2c59.6-11,120.7-24.7,181.8-40.7c85.6,6.9,168.5,12,245.3,15.1
					C11883.7,2908.9,11884.4,2913.8,11884.8,2918.7z M11874.2,2879.7c-53.5-2.2-110.1-5.4-168.8-9.5c23-6.6,46-13.6,68.8-20.9
					c23.4-7.4,45.9-15,67.5-22.6C11856,2845.4,11866.8,2863.2,11874.2,2879.7z M12254.5,2811c37.6,16.2,53.4,30,48.3,39.1
					c-10.9,19.5-121.3,33.7-291.3,32.9c-19.5-0.1-39.7-0.4-60.6-0.9c-10.2-23.8-27.5-49.8-50.9-77.2c49.6-19.5,92.5-39.3,126.7-58.6
					c13.8,2.9,27,5.7,39.7,8.6l0,0C12147.8,2773.5,12212.6,2792.9,12254.5,2811z M12001,2704.3L12001,2704.3
					c-3.8,2.8-7.8,5.6-12,8.4c-69.9-12.9-148.5-25.3-233.4-37c-36.5-26.1-75.8-50.5-116.8-72.4c15.8-2.5,31.6-4.7,47.1-6.8
					c150.4-19.9,280.4-19.8,330.6-4C12070.1,2609.6,12069.4,2653.8,12001,2704.3z"/>
				<path class="st6" d="M11368.9,2721c56.7-18,157.9-15.1,226.1,6.5s77.6,53.7,20.9,71.7c-56.7,18-157.9,15.1-226.1-6.5
					C11321.5,2771.1,11312.2,2739,11368.9,2721"/>
			</g>
		</g>
		
			<ellipse transform="matrix(0.9585 -0.2852 0.2852 0.9585 -360.4388 2096.0239)" class="st15" cx="7015.2" cy="2285.4" rx="82" ry="115.1"/>
		
			<ellipse transform="matrix(0.9585 -0.2852 0.2852 0.9585 -360.4388 2096.0239)" class="st16" cx="7015.2" cy="2285.4" rx="53.2" ry="74.7"/>
		<g>
			<linearGradient id="SVGID_16_" gradientUnits="userSpaceOnUse" x1="5296.9614" y1="2571.9258" x2="7040.5972" y2="2571.9258">
				<stop  offset="0" style="stop-color:#FCB43A"/>
				<stop  offset="1" style="stop-color:#FEDD4E"/>
			</linearGradient>
			<path class="st26" d="M5339.2,2892.1c-17.7,0-34.1-11.2-40-28.8c-7.4-22.1,4.5-46,26.6-53.4L6985,2254c22.1-7.5,46,4.5,53.4,26.6
				c7.4,22.1-4.5,46-26.6,53.4l-1659.2,555.9C5348.2,2891.4,5343.6,2892.1,5339.2,2892.1z"/>
		</g>
		
			<ellipse transform="matrix(0.9585 -0.2852 0.2852 0.9585 -592.1481 1636.6141)" class="st15" cx="5322.2" cy="2851.1" rx="82" ry="115.1"/>
		
			<ellipse transform="matrix(0.9585 -0.2852 0.2852 0.9585 -592.1481 1636.6141)" class="st16" cx="5322.2" cy="2851.1" rx="53.2" ry="74.7"/>
		<g>
			<polygon class="st0" points="4424,3286.3 2666.2,3838.1 4424,4390 6181.8,3838.1 			"/>
			<g>
				<linearGradient id="SVGID_17_" gradientUnits="userSpaceOnUse" x1="4424.0063" y1="4023.6663" x2="4424.0063" y2="2195.3479">
					<stop  offset="0.3595" style="stop-color:#FFEF8F"/>
					<stop  offset="1" style="stop-color:#FECE5B"/>
				</linearGradient>
				<polygon class="st27" points="4424,2195.3 2660.8,2748.9 4424,4023.7 6187.2,2748.9 				"/>
				<linearGradient id="SVGID_18_" gradientUnits="userSpaceOnUse" x1="4424.0068" y1="3386.2734" x2="6187.165" y2="3386.2734">
					<stop  offset="0" style="stop-color:#FFEF8F"/>
					<stop  offset="1" style="stop-color:#FECE5B"/>
				</linearGradient>
				<polygon class="st28" points="4424,4023.7 6187.2,3470.1 6187.2,2748.9 4424,3302.4 				"/>
				<linearGradient id="SVGID_19_" gradientUnits="userSpaceOnUse" x1="2660.8472" y1="3386.2734" x2="4424.0054" y2="3386.2734">
					<stop  offset="0" style="stop-color:#FCB43A"/>
					<stop  offset="1" style="stop-color:#FEDD4E"/>
				</linearGradient>
				<polygon class="st29" points="4424,4023.7 2660.8,3470.1 2660.8,2748.9 4424,3302.4 				"/>
			</g>
		</g>
	</g>
	<g>
		<g>
			<path class="st30" d="M13725.3,994.2l-19.2-45.7h-105.7l-19.2,45.7h-43l94.9-216.4h43l93.7,216.4H13725.3z M13615.2,913h76
				l-37.7-90.9L13615.2,913z"/>
			<path class="st30" d="M13938.9,844.5c10.9,11.4,16.4,26.9,16.4,46.5v103.2h-40.5v-91.5c0-11.5-3.3-20.7-9.9-27.4
				c-6.6-6.7-15.6-10-26.9-10c-13.4,0.2-24,4.7-31.7,13.6c-7.7,8.9-11.6,20.2-11.6,34v81.3h-40.2V828.9h40.2v30.9
				c11.3-21.2,31.1-32,59.3-32.5C13913,827.3,13927.9,833,13938.9,844.5z"/>
			<path class="st30" d="M14151.5,828.9v149.6c0,15.7-3.6,29.3-10.7,41c-7.1,11.6-17.2,20.6-30.3,26.9c-13.1,6.3-28.3,9.4-45.6,9.4
				c-25.1,0-48.4-7.3-69.9-21.9l16.1-29.1c15.7,11.5,32.9,17.3,51.6,17.3c14.8,0,26.6-3.8,35.4-11.4c8.8-7.6,13.1-18,13.1-31.2
				v-19.5c-5.6,8.5-12.8,14.9-21.6,19.3c-8.9,4.4-19.2,6.6-30.9,6.6c-14.4,0-27.2-3.3-38.3-10c-11.1-6.7-19.8-16.1-26-28.1
				s-9.3-25.9-9.3-41.6c0-15.5,3.1-29.1,9.3-41c6.2-11.8,14.8-21.1,26-27.7c11.1-6.6,23.9-9.9,38.3-9.9c11.5,0,21.8,2.3,30.8,6.8
				c9,4.5,16.2,10.9,21.8,19.2v-24.7H14151.5z M14099.1,941.2c8.1-8.8,12.2-20.1,12.2-34.2c0-14-4.1-25.4-12.2-34.2
				c-8.1-8.8-18.7-13.1-31.7-13.1c-13,0-23.5,4.4-31.7,13.3c-8.1,8.9-12.3,20.2-12.5,34c0.2,14,4.4,25.4,12.5,34.2
				c8.1,8.8,18.7,13.1,31.7,13.1C14080.4,954.4,14091,950,14099.1,941.2z"/>
			<path class="st30" d="M14351.5,828.9v165.4h-40.5v-30.6c-11.1,21.4-30.3,32.1-57.5,32.1c-18.5,0-33.2-5.7-43.9-17
				c-10.7-11.3-16.1-26.8-16.1-46.4V828.9h40.5v91.8c0,11.5,3.1,20.6,9.4,27.2c6.3,6.6,15,9.9,26.1,9.9c12.8-0.2,22.9-4.7,30.3-13.6
				c7.4-8.9,11.1-20.1,11.1-33.7v-81.6H14351.5z"/>
			<path class="st30" d="M14403.1,764.9h40.2v229.4h-40.2V764.9z"/>
			<path class="st30" d="M14592.6,994.2v-20.1c-5.8,7.2-13.2,12.7-22.3,16.4c-9.1,3.7-19.5,5.6-31.2,5.6c-11.5,0-21.7-2.2-30.4-6.6
				c-8.8-4.4-15.5-10.6-20.2-18.4c-4.7-7.8-7.1-16.6-7.1-26.3c0-15.5,5.5-27.6,16.4-36.3c10.9-8.8,26.4-13.2,46.4-13.4h48.2v-4.3
				c0-9.7-3.2-17.2-9.6-22.6c-6.4-5.4-15.7-8-27.8-8c-15.7,0-32,5.2-49.1,15.5l-14.5-27.8c13-7.2,24.8-12.4,35.4-15.6
				c10.6-3.2,23-4.8,37.2-4.8c21.4,0,38.1,5.2,49.9,15.5c11.8,10.3,17.9,24.7,18.1,43.3l0.3,108.2H14592.6z M14578.4,957
				c8.2-5.5,12.9-12.2,13.9-20.2v-14.8h-41.7c-10.7,0-18.6,1.6-23.6,4.8c-5.1,3.2-7.6,8.4-7.6,15.6c0,7,2.6,12.6,7.9,16.7
				c5.3,4.1,12.4,6.2,21.5,6.2C14560.3,965.2,14570.2,962.5,14578.4,957z"/>
			<path class="st30" d="M14740.2,836.1c9.6-5.7,20.8-8.6,33.5-8.8v38.9c-17.1-1-30.8,2.9-41,11.9c-10.2,9-15.3,21.1-15.3,36.3v79.8
				h-40.2V828.9h40.2v31.8C14723.1,850,14730.6,841.8,14740.2,836.1z"/>
			<path class="st30" d="M14826.8,958.7c4,4.1,6,9.4,6,15.8c0,6.6-2,12-6,16.2c-4,4.2-9.1,6.3-15.3,6.3c-6,0-11-2.2-15-6.5
				c-4-4.3-6-9.7-6-16.1c0-6.4,2-11.6,6-15.8c4-4.1,9-6.2,15-6.2C14817.7,952.5,14822.8,954.6,14826.8,958.7z"/>
			<path class="st30" d="M14850.4,1022.1c6.8,0.2,12-2,15.6-6.6c3.6-4.6,5.4-11.4,5.4-20.2V828.9h40.2v172.5
				c0,17.1-4.6,30.4-13.8,40c-9.2,9.6-21.9,14.4-38.2,14.4c-11.3,0-22-2.1-32.1-6.2l8.7-30.3
				C14840.9,1020.9,14845.7,1021.9,14850.4,1022.1z M14907.6,764.6c4.3,4.5,6.5,10.3,6.5,17.3c0,6.8-2.2,12.5-6.5,17
				c-4.3,4.5-9.8,6.8-16.4,6.8c-6.6,0-12.1-2.3-16.4-6.8c-4.3-4.5-6.5-10.2-6.5-17c0-7,2.2-12.8,6.5-17.3c4.3-4.5,9.8-6.8,16.4-6.8
				C14897.8,757.8,14903.3,760.1,14907.6,764.6z"/>
			<path class="st30" d="M15032.3,862.6c-8.6-2.7-16.4-4-23.6-4c-6.8,0-12.2,1.2-16.2,3.6c-4,2.4-6,6-6,11c0,5.2,2.5,9.1,7.6,11.9
				c5,2.8,13,5.7,24,8.8c11.5,3.5,21,7,28.4,10.4s13.9,8.5,19.3,15.1c5.5,6.7,8.2,15.5,8.2,26.4c0,16.1-6.2,28.4-18.5,37.1
				c-12.4,8.7-27.9,13-46.7,13c-12.8,0-25.2-2-37.4-6c-12.2-4-22.5-9.7-30.9-17.2l13.9-28.1c7.4,6.4,16.3,11.4,26.6,15
				c10.3,3.6,20.1,5.4,29.4,5.4c7.4,0,13.3-1.3,17.8-3.9c4.4-2.6,6.6-6.4,6.6-11.6c0-5.8-2.6-10.1-7.7-13c-5.2-2.9-13.5-6.1-25-9.6
				c-11.1-3.3-20.2-6.5-27.2-9.7c-7-3.2-13.1-8-18.2-14.5c-5.2-6.5-7.7-15-7.7-25.5c0-16.3,5.9-28.7,17.8-37.2
				c11.8-8.5,26.7-12.8,44.7-12.8c10.9,0,21.7,1.5,32.3,4.6c10.6,3.1,20,7.4,28.3,13l-14.5,29.1
				C15049.2,869,15040.9,865.2,15032.3,862.6z"/>
		</g>
	</g>
	<g>
		<g>
			<path class="st30" d="M13683.4,3203.1l-37.4-64c-1.7,0.2-4.2,0.3-7.7,0.3h-48.8v63.7h-41.4v-216.4h90.3c28,0,49.7,6.5,64.9,19.5
				c15.2,13,22.9,31.3,22.9,55c0,16.9-3.7,31.3-11,43.3c-7.3,12-18,20.9-32,26.9l47.6,71.7H13683.4z M13589.4,3102.9h48.8
				c15.7,0,27.6-3.4,35.9-10.2c8.2-6.8,12.4-16.9,12.4-30.3c0-13.2-4.1-23.1-12.4-29.7c-8.2-6.6-20.2-9.9-35.9-9.9h-48.8V3102.9z"/>
			<path class="st30" d="M13898.4,3059c13.3,15,19.9,36.2,19.9,63.4c0,5.4-0.1,9.4-0.3,12.1h-122.1c2.7,11.7,8.2,21,16.5,27.7
				c8.3,6.7,18.6,10,30.8,10c8.4,0,16.5-1.6,24.3-4.8c7.7-3.2,14.5-7.8,20.2-13.8l21.6,22.6c-8.2,9.1-18.3,16.1-30.1,21
				c-11.9,4.9-25,7.4-39.4,7.4c-16.9,0-31.8-3.5-44.7-10.5c-12.9-7-22.8-16.8-29.8-29.5c-7-12.7-10.5-27.2-10.5-43.7
				c0-16.5,3.6-31.1,10.7-43.9c7.1-12.8,17-22.7,29.8-29.8c12.8-7.1,27.3-10.7,43.6-10.7C13865.2,3036.5,13885.1,3044,13898.4,3059z
				 M13881.5,3107.6c-0.4-12.2-4.4-21.8-12.1-29.1c-7.6-7.2-17.7-10.8-30.3-10.8c-11.7,0-21.6,3.6-29.5,10.7
				c-7.9,7.1-12.8,16.8-14.7,29.2H13881.5z"/>
			<path class="st30" d="M14050.6,3203.1V3183c-5.8,7.2-13.2,12.7-22.3,16.4c-9.1,3.7-19.5,5.6-31.2,5.6c-11.5,0-21.7-2.2-30.4-6.6
				c-8.8-4.4-15.5-10.6-20.2-18.4c-4.7-7.8-7.1-16.6-7.1-26.3c0-15.5,5.5-27.6,16.4-36.3c10.9-8.8,26.4-13.2,46.4-13.4h48.2v-4.3
				c0-9.7-3.2-17.2-9.6-22.6c-6.4-5.4-15.7-8-27.8-8c-15.7,0-32,5.2-49.1,15.5l-14.5-27.8c13-7.2,24.8-12.4,35.4-15.6
				c10.6-3.2,23-4.8,37.2-4.8c21.4,0,38.1,5.2,49.9,15.5c11.8,10.3,17.9,24.7,18.1,43.3l0.3,108.2H14050.6z M14036.4,3165.8
				c8.2-5.5,12.9-12.2,13.9-20.2v-14.8h-41.7c-10.7,0-18.6,1.6-23.6,4.8c-5.1,3.2-7.6,8.4-7.6,15.6c0,7,2.6,12.6,7.9,16.7
				c5.3,4.1,12.4,6.2,21.5,6.2C14018.2,3174,14028.1,3171.3,14036.4,3165.8z"/>
			<path class="st30" d="M14205.8,3071.7c-13.4,0-24.3,4.5-32.6,13.6c-8.3,9.1-12.5,20.8-12.5,35.2c0,14.8,4.2,26.8,12.5,35.9
				c8.3,9.1,19.2,13.6,32.6,13.6c19.8,0,34.6-6.5,44.5-19.5l25,20.7c-7.4,10.7-17.2,19-29.4,24.7c-12.2,5.8-26.3,8.7-42.3,8.7
				c-16.3,0-30.8-3.5-43.4-10.5c-12.7-7-22.5-16.8-29.5-29.5c-7-12.7-10.5-27.2-10.5-43.7c0-16.7,3.6-31.4,10.7-44.2
				c7.1-12.8,17-22.7,29.7-29.7c12.7-7,27.2-10.5,43.7-10.5c15,0,28.5,2.6,40.3,7.9c11.8,5.3,21.5,12.7,28.9,22.4l-24.4,23.2
				C14237.9,3077.8,14223.5,3071.7,14205.8,3071.7z"/>
			<path class="st30" d="M14406.4,3192.9c-13.2,8-27,12.1-41.4,12.1c-14.2,0-25.9-4.2-34.9-12.5c-9.1-8.3-13.6-20.7-13.6-36.9v-81.6
				h-23.2l-0.3-29.4h23.5v-45.4h39.9v45.4h47.3v29.4h-47.3v74.5c0,7.6,1.4,13,4.3,16.2c2.9,3.2,7.2,4.8,13,4.8
				c6.2,0,14-2.3,23.5-6.8L14406.4,3192.9z"/>
			<path class="st30" d="M14462.8,3167.5c4,4.1,6,9.4,6,15.8c0,6.6-2,12-6,16.2c-4,4.2-9.1,6.3-15.3,6.3c-6,0-11-2.2-15-6.5
				c-4-4.3-6-9.7-6-16.1c0-6.4,2-11.6,6-15.8c4-4.1,9-6.2,15-6.2C14453.7,3161.4,14458.8,3163.4,14462.8,3167.5z"/>
			<path class="st30" d="M14486.4,3230.9c6.8,0.2,12-2,15.6-6.6c3.6-4.6,5.4-11.4,5.4-20.2v-166.3h40.2v172.5
				c0,17.1-4.6,30.4-13.8,40c-9.2,9.6-21.9,14.4-38.2,14.4c-11.3,0-22-2.1-32.1-6.2l8.7-30.3
				C14477,3229.8,14481.7,3230.7,14486.4,3230.9z M14543.6,2973.4c4.3,4.5,6.5,10.3,6.5,17.3c0,6.8-2.2,12.5-6.5,17
				c-4.3,4.5-9.8,6.8-16.4,6.8c-6.6,0-12.1-2.3-16.4-6.8c-4.3-4.5-6.5-10.2-6.5-17c0-7,2.2-12.8,6.5-17.3c4.3-4.5,9.8-6.8,16.4-6.8
				C14533.8,2966.6,14539.3,2968.9,14543.6,2973.4z"/>
			<path class="st30" d="M14668.3,3071.4c-8.6-2.7-16.4-4-23.6-4c-6.8,0-12.2,1.2-16.2,3.6c-4,2.4-6,6-6,11c0,5.2,2.5,9.1,7.6,11.9
				c5,2.8,13,5.7,24,8.8c11.5,3.5,21,7,28.4,10.4c7.4,3.4,13.9,8.5,19.3,15.1c5.5,6.7,8.2,15.5,8.2,26.4c0,16.1-6.2,28.4-18.5,37.1
				c-12.4,8.7-27.9,13-46.7,13c-12.8,0-25.2-2-37.4-6c-12.2-4-22.5-9.7-30.9-17.2l13.9-28.1c7.4,6.4,16.3,11.4,26.6,15
				c10.3,3.6,20.1,5.4,29.4,5.4c7.4,0,13.3-1.3,17.8-3.9c4.4-2.6,6.6-6.4,6.6-11.6c0-5.8-2.6-10.1-7.7-13c-5.2-2.9-13.5-6.1-25-9.6
				c-11.1-3.3-20.2-6.5-27.2-9.7c-7-3.2-13.1-8-18.2-14.5c-5.2-6.5-7.7-15-7.7-25.5c0-16.3,5.9-28.7,17.8-37.2
				c11.8-8.5,26.7-12.8,44.7-12.8c10.9,0,21.7,1.5,32.3,4.6c10.6,3.1,20,7.4,28.3,13l-14.5,29.1
				C14685.2,3077.8,14676.9,3074.1,14668.3,3071.4z"/>
		</g>
	</g>
	<g>
		<g>
			<path class="st31" d="M424.6,777.9h40.2v216.4h-39.3l-111.3-149v149h-40.5V777.9H313l111.6,149.3V777.9z"/>
			<path class="st31" d="M634,838.1c13.1,7,23.3,16.8,30.6,29.5c7.3,12.7,11,27.3,11,43.7c0,16.7-3.7,31.4-11,44.2
				c-7.3,12.8-17.5,22.7-30.6,29.7c-13.1,7-28.2,10.5-45.3,10.5c-17.3,0-32.6-3.5-45.7-10.5c-13.2-7-23.4-16.9-30.8-29.7
				c-7.3-12.8-11-27.5-11-44.2c0-16.5,3.7-31.1,11-43.7c7.3-12.7,17.6-22.5,30.8-29.5c13.2-7,28.4-10.5,45.7-10.5
				C605.8,827.6,620.9,831.1,634,838.1z M554.7,875.9c-8.7,9.3-13,21.3-13,36.2s4.3,26.9,13,36.2c8.7,9.3,20,13.9,34,13.9
				c13.6,0,24.7-4.6,33.4-13.9c8.7-9.3,13-21.3,13-36.2s-4.3-26.9-13-36.2c-8.7-9.3-19.8-13.9-33.4-13.9
				C574.7,862,563.4,866.6,554.7,875.9z"/>
			<path class="st31" d="M839.9,802.9c-4,3.5-6,8.8-6,15.8v17h41.4V865h-41.4v129.2h-40.2V865H772v-29.4h21.6v-15.8
				c0-12.2,2.7-22.5,8-31.1c5.4-8.5,12.5-15,21.5-19.3c9-4.3,18.7-6.5,29.2-6.5c10.3,0,20.4,2.4,30.3,7.1l-7.1,32.5
				c-8.2-3.3-15-4.9-20.4-4.9C849,797.7,843.9,799.4,839.9,802.9z"/>
			<path class="st31" d="M962,836.1c9.6-5.7,20.8-8.6,33.5-8.8v38.9c-17.1-1-30.8,2.9-41,11.9c-10.2,9-15.3,21.1-15.3,36.3v79.8H899
				V828.9h40.2v31.8C944.8,850,952.4,841.8,962,836.1z"/>
			<path class="st31" d="M1115.4,994.2v-20.1c-5.8,7.2-13.2,12.7-22.3,16.4c-9.1,3.7-19.5,5.6-31.2,5.6c-11.5,0-21.7-2.2-30.4-6.6
				c-8.8-4.4-15.5-10.6-20.2-18.4c-4.7-7.8-7.1-16.6-7.1-26.3c0-15.5,5.5-27.6,16.4-36.3c10.9-8.8,26.4-13.2,46.4-13.4h48.2v-4.3
				c0-9.7-3.2-17.2-9.6-22.6c-6.4-5.4-15.7-8-27.8-8c-15.7,0-32,5.2-49.1,15.5l-14.5-27.8c13-7.2,24.8-12.4,35.4-15.6
				c10.6-3.2,23-4.8,37.2-4.8c21.4,0,38.1,5.2,49.9,15.5c11.8,10.3,17.9,24.7,18.1,43.3l0.3,108.2H1115.4z M1101.2,957
				c8.2-5.5,12.9-12.2,13.9-20.2v-14.8h-41.7c-10.7,0-18.6,1.6-23.6,4.8c-5.1,3.2-7.6,8.4-7.6,15.6c0,7,2.6,12.6,7.9,16.7
				c5.3,4.1,12.4,6.2,21.5,6.2C1083.1,965.2,1093,962.5,1101.2,957z"/>
			<path class="st31" d="M1461,844.5c10.7,11.4,16.1,26.9,16.1,46.5v103.2h-40.5v-91.5c0-11.7-3.2-21-9.7-27.7
				c-6.5-6.7-15.3-10-26.4-10c-12.8,0.4-22.9,5.1-30.4,13.9c-7.5,8.9-11.3,20.1-11.3,33.7v81.6h-40.5v-91.5c0-11.7-3.2-21-9.6-27.7
				c-6.4-6.7-15.1-10-26.3-10c-13,0.4-23.2,5.1-30.8,13.9c-7.5,8.9-11.3,20.1-11.3,33.7v81.6h-40.2V828.9h40.2v30.6
				c10.9-21,30.3-31.7,58.1-32.1c14.4,0,26.5,3.5,36.3,10.4c9.8,6.9,16.6,16.6,20.6,29.2c10.5-26,31-39.2,61.5-39.6
				C1435.6,827.3,1450.3,833,1461,844.5z"/>
			<path class="st31" d="M1650.3,850.2c13.3,15,19.9,36.2,19.9,63.4c0,5.4-0.1,9.4-0.3,12.1h-122.1c2.7,11.7,8.2,21,16.5,27.7
				c8.3,6.7,18.6,10,30.8,10c8.4,0,16.5-1.6,24.3-4.8c7.7-3.2,14.5-7.8,20.2-13.8l21.6,22.6c-8.2,9.1-18.3,16.1-30.1,21
				c-11.9,4.9-25,7.4-39.4,7.4c-16.9,0-31.8-3.5-44.7-10.5c-12.9-7-22.8-16.8-29.8-29.5c-7-12.7-10.5-27.2-10.5-43.7
				c0-16.5,3.6-31.1,10.7-43.9c7.1-12.8,17-22.7,29.8-29.8c12.8-7.1,27.3-10.7,43.6-10.7C1617.2,827.6,1637,835.2,1650.3,850.2z
				 M1633.5,898.7c-0.4-12.2-4.4-21.8-12.1-29.1c-7.6-7.2-17.7-10.8-30.3-10.8c-11.7,0-21.6,3.6-29.5,10.7
				c-7.9,7.1-12.8,16.8-14.7,29.2H1633.5z"/>
			<path class="st31" d="M1673.7,829.2l41.4-0.3l40.5,124.9l39.3-124.9h40.5l39.9,124.9l39.6-124.9h40.5l-60,165.4h-41.1
				l-39.6-116.5l-39.3,116.5h-41.1L1673.7,829.2z"/>
			<path class="st31" d="M2090.5,838.1c13.1,7,23.3,16.8,30.6,29.5c7.3,12.7,11,27.3,11,43.7c0,16.7-3.7,31.4-11,44.2
				c-7.3,12.8-17.5,22.7-30.6,29.7c-13.1,7-28.2,10.5-45.3,10.5c-17.3,0-32.6-3.5-45.7-10.5c-13.2-7-23.4-16.9-30.8-29.7
				c-7.3-12.8-11-27.5-11-44.2c0-16.5,3.7-31.1,11-43.7c7.3-12.7,17.6-22.5,30.8-29.5c13.2-7,28.4-10.5,45.7-10.5
				C2062.3,827.6,2077.4,831.1,2090.5,838.1z M2011.2,875.9c-8.7,9.3-13,21.3-13,36.2s4.3,26.9,13,36.2c8.7,9.3,20,13.9,34,13.9
				c13.6,0,24.7-4.6,33.4-13.9c8.7-9.3,13-21.3,13-36.2s-4.3-26.9-13-36.2c-8.7-9.3-19.8-13.9-33.4-13.9
				C2031.2,862,2019.9,866.6,2011.2,875.9z"/>
			<path class="st31" d="M2229.9,836.1c9.6-5.7,20.8-8.6,33.5-8.8v38.9c-17.1-1-30.8,2.9-41,11.9c-10.2,9-15.3,21.1-15.3,36.3v79.8
				H2167V828.9h40.2v31.8C2212.8,850,2220.3,841.8,2229.9,836.1z"/>
			<path class="st31" d="M2403.5,994.2l-44.8-72.3l-25.3,26.6v45.7h-40.2V764.9h40.2v132.9l68-68.6h46.4l-61.2,63.7l64.9,101.4
				H2403.5z"/>
		</g>
	</g>
	<g>
		<g>
			<path class="st32" d="M187,3203.1l-19.2-45.7H62.1L43,3203.1H0l94.9-216.4h43l93.7,216.4H187z M77,3121.8h76l-37.7-90.9
				L77,3121.8z"/>
			<path class="st32" d="M400.6,3053.3c10.9,11.4,16.4,26.9,16.4,46.5v103.2h-40.5v-91.5c0-11.5-3.3-20.7-9.9-27.4
				c-6.6-6.7-15.6-10-26.9-10c-13.4,0.2-24,4.7-31.7,13.6c-7.7,8.9-11.6,20.2-11.6,34v81.3h-40.2v-165.4h40.2v30.9
				c11.3-21.2,31.1-32,59.3-32.5C374.7,3036.2,389.7,3041.9,400.6,3053.3z"/>
			<path class="st32" d="M506.5,3254.6c-9.6,6.9-21,10.4-34.2,10.4c-8,0-15.3-1.2-21.8-3.6c-6.5-2.4-12.9-6.1-19.3-11.3l17.3-30.6
				c3.9,2.9,7.5,5,10.8,6.3c3.3,1.3,6.8,2,10.5,2c10.9,0,19-5.6,24.1-16.7l4.9-10.8l-68.3-162.6h41.7l47,120.2l43-120.2h40.5
				l-74.2,186.1C523.4,3237.4,516.1,3247.7,506.5,3254.6z"/>
			<path class="st32" d="M703.2,2986.7h149.3l-0.3,36.2H744.6v58.4h98v36.2h-98v85.6h-41.4V2986.7z"/>
			<path class="st32" d="M944.8,3045c9.6-5.7,20.8-8.6,33.5-8.8v38.9c-17.1-1-30.8,2.9-41,11.9c-10.2,9-15.3,21.1-15.3,36.3v79.8
				h-40.2v-165.4h40.2v31.8C927.6,3058.8,935.2,3050.7,944.8,3045z"/>
			<path class="st32" d="M1098.3,3203.1V3183c-5.8,7.2-13.2,12.7-22.3,16.4c-9.1,3.7-19.5,5.6-31.2,5.6c-11.5,0-21.7-2.2-30.4-6.6
				c-8.8-4.4-15.5-10.6-20.2-18.4c-4.7-7.8-7.1-16.6-7.1-26.3c0-15.5,5.5-27.6,16.4-36.3c10.9-8.8,26.4-13.2,46.4-13.4h48.2v-4.3
				c0-9.7-3.2-17.2-9.6-22.6c-6.4-5.4-15.7-8-27.8-8c-15.7,0-32,5.2-49.1,15.5l-14.5-27.8c13-7.2,24.8-12.4,35.4-15.6
				c10.6-3.2,23-4.8,37.2-4.8c21.4,0,38.1,5.2,49.9,15.5c11.8,10.3,17.9,24.7,18.1,43.3l0.3,108.2H1098.3z M1084,3165.8
				c8.2-5.5,12.9-12.2,13.9-20.2v-14.8h-41.7c-10.7,0-18.6,1.6-23.6,4.8c-5.1,3.2-7.6,8.4-7.6,15.6c0,7,2.6,12.6,7.9,16.7
				c5.3,4.1,12.4,6.2,21.5,6.2C1065.9,3174,1075.8,3171.3,1084,3165.8z"/>
			<path class="st32" d="M1443.8,3053.3c10.7,11.4,16.1,26.9,16.1,46.5v103.2h-40.5v-91.5c0-11.7-3.2-21-9.7-27.7
				c-6.5-6.7-15.3-10-26.4-10c-12.8,0.4-22.9,5.1-30.4,13.9c-7.5,8.9-11.3,20.1-11.3,33.7v81.6H1301v-91.5c0-11.7-3.2-21-9.6-27.7
				c-6.4-6.7-15.1-10-26.3-10c-13,0.4-23.2,5.1-30.8,13.9c-7.5,8.9-11.3,20.1-11.3,33.7v81.6H1183v-165.4h40.2v30.6
				c10.9-21,30.3-31.7,58.1-32.1c14.4,0,26.5,3.5,36.3,10.4c9.8,6.9,16.6,16.6,20.6,29.2c10.5-26,31-39.2,61.5-39.6
				C1418.4,3036.2,1433.1,3041.9,1443.8,3053.3z"/>
			<path class="st32" d="M1633.2,3059c13.3,15,19.9,36.2,19.9,63.4c0,5.4-0.1,9.4-0.3,12.1h-122.1c2.7,11.7,8.2,21,16.5,27.7
				c8.3,6.7,18.6,10,30.8,10c8.4,0,16.5-1.6,24.3-4.8c7.7-3.2,14.5-7.8,20.2-13.8l21.6,22.6c-8.2,9.1-18.3,16.1-30.1,21
				c-11.9,4.9-25,7.4-39.4,7.4c-16.9,0-31.8-3.5-44.7-10.5c-12.9-7-22.8-16.8-29.8-29.5c-7-12.7-10.5-27.2-10.5-43.7
				c0-16.5,3.6-31.1,10.7-43.9c7.1-12.8,17-22.7,29.8-29.8c12.8-7.1,27.3-10.7,43.6-10.7C1600,3036.5,1619.9,3044,1633.2,3059z
				 M1616.3,3107.6c-0.4-12.2-4.4-21.8-12.1-29.1c-7.6-7.2-17.7-10.8-30.3-10.8c-11.7,0-21.6,3.6-29.5,10.7
				c-7.9,7.1-12.8,16.8-14.7,29.2H1616.3z"/>
			<path class="st32" d="M1656.5,3038l41.4-0.3l40.5,124.9l39.3-124.9h40.5l39.9,124.9l39.6-124.9h40.5l-60,165.4H1837l-39.6-116.5
				l-39.3,116.5h-41.1L1656.5,3038z"/>
			<path class="st32" d="M2073.3,3047c13.1,7,23.3,16.8,30.6,29.5c7.3,12.7,11,27.3,11,43.7c0,16.7-3.7,31.4-11,44.2
				c-7.3,12.8-17.5,22.7-30.6,29.7c-13.1,7-28.2,10.5-45.3,10.5c-17.3,0-32.6-3.5-45.7-10.5c-13.2-7-23.4-16.9-30.8-29.7
				c-7.3-12.8-11-27.5-11-44.2c0-16.5,3.7-31.1,11-43.7c7.3-12.7,17.6-22.5,30.8-29.5c13.2-7,28.4-10.5,45.7-10.5
				C2045.2,3036.5,2060.2,3040,2073.3,3047z M1994.1,3084.7c-8.7,9.3-13,21.3-13,36.2c0,14.8,4.3,26.9,13,36.2s20,13.9,34,13.9
				c13.6,0,24.7-4.6,33.4-13.9s13-21.3,13-36.2c0-14.8-4.3-26.9-13-36.2s-19.8-13.9-33.4-13.9
				C2014,3070.8,2002.7,3075.4,1994.1,3084.7z"/>
			<path class="st32" d="M2212.7,3045c9.6-5.7,20.8-8.6,33.5-8.8v38.9c-17.1-1-30.8,2.9-41,11.9c-10.2,9-15.3,21.1-15.3,36.3v79.8
				h-40.2v-165.4h40.2v31.8C2195.6,3058.8,2203.2,3050.7,2212.7,3045z"/>
			<path class="st32" d="M2386.3,3203.1l-44.8-72.3l-25.3,26.6v45.7H2276v-229.4h40.2v132.9l68-68.6h46.4l-61.2,63.7l64.9,101.4
				H2386.3z"/>
		</g>
	</g>
</g>
</svg>
