<?xml version="1.0" encoding="UTF-8"?>
<svg width="1002px" height="655px" viewBox="0 0 1002 655" version="1.1" xmlns="http://www.w3.org/2000/svg" xmlns:xlink="http://www.w3.org/1999/xlink">
    <!-- Generator: Sketch 44.1 (41455) - http://www.bohemiancoding.com/sketch -->
    <title>infinite-possibilities</title>
    <desc>Created with Sketch.</desc>
    <defs>
        <linearGradient x1="49.996445%" y1="99.9907834%" x2="49.996445%" y2="0.0121491412%" id="linearGradient-1">
            <stop stop-color="#3D386B" offset="0%"></stop>
            <stop stop-color="#211E39" offset="100%"></stop>
        </linearGradient>
        <linearGradient x1="50.002918%" y1="100.008624%" x2="50.002918%" y2="-0.0097487814%" id="linearGradient-2">
            <stop stop-color="#3D386B" offset="0%"></stop>
            <stop stop-color="#211E39" offset="100%"></stop>
        </linearGradient>
        <linearGradient x1="-0.00304414003%" y1="50.012275%" x2="100.014003%" y2="50.012275%" id="linearGradient-3">
            <stop stop-color="#3D386B" offset="0%"></stop>
            <stop stop-color="#211E39" offset="100%"></stop>
        </linearGradient>
        <linearGradient x1="50.002918%" y1="99.9865067%" x2="50.002918%" y2="0.0059970015%" id="linearGradient-4">
            <stop stop-color="#FCFCFE" offset="0%"></stop>
            <stop stop-color="#C6C6EF" offset="97%"></stop>
        </linearGradient>
        <linearGradient x1="-0.00304414003%" y1="50.0057236%" x2="100.014003%" y2="50.0057236%" id="linearGradient-5">
            <stop stop-color="#FCFCFE" offset="0%"></stop>
            <stop stop-color="#C6C6EF" offset="97%"></stop>
        </linearGradient>
        <linearGradient x1="50.002918%" y1="99.9898839%" x2="50.002918%" y2="0%" id="linearGradient-6">
            <stop stop-color="#FFEF8F" offset="0%"></stop>
            <stop stop-color="#FECE5B" offset="100%"></stop>
        </linearGradient>
        <linearGradient x1="-0.00304414003%" y1="50.0335516%" x2="100.014003%" y2="50.0335516%" id="linearGradient-7">
            <stop stop-color="#FFEF8F" offset="0%"></stop>
            <stop stop-color="#FECE5B" offset="100%"></stop>
        </linearGradient>
        <linearGradient x1="0%" y1="50.0293399%" x2="99.9978247%" y2="50.0293399%" id="linearGradient-8">
            <stop stop-color="#FCB43A" offset="0%"></stop>
            <stop stop-color="#FEDD4E" offset="100%"></stop>
        </linearGradient>
        <linearGradient x1="49.9796358%" y1="-574.746474%" x2="49.9796358%" y2="264.068306%" id="linearGradient-9">
            <stop stop-color="#FCB43A" offset="0%"></stop>
            <stop stop-color="#FEDD4E" offset="100%"></stop>
        </linearGradient>
        <linearGradient x1="50.0010239%" y1="-346.104344%" x2="50.0010239%" y2="326.330367%" id="linearGradient-10">
            <stop stop-color="#FCB43A" offset="0%"></stop>
            <stop stop-color="#FEDD4E" offset="100%"></stop>
        </linearGradient>
        <linearGradient x1="49.9875317%" y1="-371.949337%" x2="49.9875317%" y2="573.972526%" id="linearGradient-11">
            <stop stop-color="#FCB43A" offset="0%"></stop>
            <stop stop-color="#FEDD4E" offset="100%"></stop>
        </linearGradient>
        <linearGradient x1="50.0306601%" y1="-748.799004%" x2="50.0306601%" y2="254.034129%" id="linearGradient-12">
            <stop stop-color="#FCB43A" offset="0%"></stop>
            <stop stop-color="#FEDD4E" offset="100%"></stop>
        </linearGradient>
        <linearGradient x1="49.9182503%" y1="-758.861496%" x2="49.9182503%" y2="414.589602%" id="linearGradient-13">
            <stop stop-color="#FCB43A" offset="0%"></stop>
            <stop stop-color="#FEDD4E" offset="100%"></stop>
        </linearGradient>
        <linearGradient x1="50.0156475%" y1="-419.587576%" x2="50.0156475%" y2="401.99968%" id="linearGradient-14">
            <stop stop-color="#FCB43A" offset="0%"></stop>
            <stop stop-color="#FEDD4E" offset="100%"></stop>
        </linearGradient>
        <linearGradient x1="49.9975142%" y1="-414.093519%" x2="49.9975142%" y2="164.90745%" id="linearGradient-15">
            <stop stop-color="#FCB43A" offset="0%"></stop>
            <stop stop-color="#FEDD4E" offset="100%"></stop>
        </linearGradient>
        <linearGradient x1="50.012156%" y1="-298.327376%" x2="50.012156%" y2="272.412817%" id="linearGradient-16">
            <stop stop-color="#FCB43A" offset="0%"></stop>
            <stop stop-color="#FEDD4E" offset="100%"></stop>
        </linearGradient>
        <linearGradient x1="50.1903808%" y1="-678.38767%" x2="50.1903808%" y2="812.473309%" id="linearGradient-17">
            <stop stop-color="#FCB43A" offset="0%"></stop>
            <stop stop-color="#FEDD4E" offset="100%"></stop>
        </linearGradient>
        <linearGradient x1="50.027186%" y1="-556.892827%" x2="50.027186%" y2="933.968151%" id="linearGradient-18">
            <stop stop-color="#FCB43A" offset="0%"></stop>
            <stop stop-color="#FEDD4E" offset="100%"></stop>
        </linearGradient>
        <linearGradient x1="50.0906506%" y1="-436.143351%" x2="50.0906506%" y2="1054.71763%" id="linearGradient-19">
            <stop stop-color="#FCB43A" offset="0%"></stop>
            <stop stop-color="#FEDD4E" offset="100%"></stop>
        </linearGradient>
        <linearGradient x1="50.1563818%" y1="-315.393876%" x2="50.1563818%" y2="1175.4671%" id="linearGradient-20">
            <stop stop-color="#FCB43A" offset="0%"></stop>
            <stop stop-color="#FEDD4E" offset="100%"></stop>
        </linearGradient>
        <linearGradient x1="50.2198465%" y1="-194.6444%" x2="50.2198465%" y2="1296.21658%" id="linearGradient-21">
            <stop stop-color="#FCB43A" offset="0%"></stop>
            <stop stop-color="#FEDD4E" offset="100%"></stop>
        </linearGradient>
        <linearGradient x1="49.9775935%" y1="-933.461374%" x2="49.9775935%" y2="634.915734%" id="linearGradient-22">
            <stop stop-color="#FCB43A" offset="0%"></stop>
            <stop stop-color="#FEDD4E" offset="100%"></stop>
        </linearGradient>
        <linearGradient x1="49.9965911%" y1="-229.377004%" x2="49.9965911%" y2="328.46501%" id="linearGradient-23">
            <stop stop-color="#FCB43A" offset="0%"></stop>
            <stop stop-color="#FEDD4E" offset="100%"></stop>
        </linearGradient>
        <linearGradient x1="50.0176857%" y1="-1011.08944%" x2="50.0176857%" y2="557.287666%" id="linearGradient-24">
            <stop stop-color="#FCB43A" offset="0%"></stop>
            <stop stop-color="#FEDD4E" offset="100%"></stop>
        </linearGradient>
        <linearGradient x1="49.9793443%" y1="-188.576994%" x2="49.9793443%" y2="262.36378%" id="linearGradient-25">
            <stop stop-color="#FCB43A" offset="0%"></stop>
            <stop stop-color="#FEDD4E" offset="100%"></stop>
        </linearGradient>
        <linearGradient x1="49.9758364%" y1="-113.823942%" x2="49.9758364%" y2="281.814576%" id="linearGradient-26">
            <stop stop-color="#FCB43A" offset="0%"></stop>
            <stop stop-color="#FEDD4E" offset="100%"></stop>
        </linearGradient>
        <linearGradient x1="50.0235443%" y1="-850.386074%" x2="50.0235443%" y2="709.437708%" id="linearGradient-27">
            <stop stop-color="#FCB43A" offset="0%"></stop>
            <stop stop-color="#FEDD4E" offset="100%"></stop>
        </linearGradient>
        <linearGradient x1="50.0023372%" y1="-0.793838012%" x2="50.0023372%" y2="237.572055%" id="linearGradient-28">
            <stop stop-color="#FCB43A" offset="0%"></stop>
            <stop stop-color="#FEDD4E" offset="100%"></stop>
        </linearGradient>
    </defs>
    <g id="Page-1" stroke="none" stroke-width="1" fill="none" fill-rule="evenodd">
        <g id="infinite-possibilities" fill-rule="nonzero">
            <polygon id="Shape" fill="url(#linearGradient-1)" opacity="0.1" points="330.9 416.1 14.4 515.5 457.3 654.8 773.9 555.4"></polygon>
            <polygon id="Shape" fill="url(#linearGradient-2)" points="328.6 336.8 0 439.9 459.7 603.5 788.2 481.3"></polygon>
            <polygon id="Shape" fill="url(#linearGradient-3)" points="459.7 603.5 788.2 500.4 788.2 481.3 459.7 584.5"></polygon>
            <polygon id="Shape" fill="#201C38" points="459.7 603.5 0 459 0 439.9 459.7 584.5"></polygon>
            <path d="M146.1,416.6 L98.7,431.5 C97.8,431.8 96.1,431.7 95,431.4 C93.9,431.1 93.7,430.6 94.6,430.3 L142,415.4 C142.9,415.1 144.6,415.2 145.7,415.5 C146.9,415.8 147,416.3 146.1,416.6 L146.1,416.6 Z M137.8,425.4 L128.4,428.4 C127.5,428.7 125.8,428.6 124.7,428.3 C123.6,428 123.4,427.5 124.3,427.2 L133.7,424.2 C134.6,423.9 136.3,424 137.4,424.3 C138.5,424.6 138.7,425.1 137.8,425.4 L137.8,425.4 Z M293.7,376.4 L258.4,387.5 C257.5,387.8 255.8,387.7 254.7,387.4 C253.6,387.1 253.4,386.6 254.3,386.3 L289.6,375.2 C290.5,374.9 292.2,375 293.3,375.3 C294.5,375.6 294.6,376.1 293.7,376.4 L293.7,376.4 Z M248.5,396.8 L225.1,404.1 C224.2,404.4 222.5,404.3 221.4,404 C220.3,403.7 220.1,403.2 221,402.9 L244.4,395.6 C245.3,395.3 247,395.4 248.1,395.7 C249.2,396 249.4,396.5 248.5,396.8 Z M220.9,417.9 L201.9,423.9 C201,424.2 199.3,424.1 198.2,423.8 C197.1,423.5 196.9,423 197.8,422.7 L216.8,416.7 C217.7,416.4 219.4,416.5 220.5,416.8 C221.7,417.1 221.8,417.6 220.9,417.9 Z M367.2,371.9 L331.9,383 C331,383.3 329.3,383.2 328.2,382.9 C327.1,382.6 326.9,382.1 327.8,381.8 L363.1,370.7 C364,370.4 365.7,370.5 366.8,370.8 C368,371.1 368.1,371.6 367.2,371.9 L367.2,371.9 Z M305.9,397.4 L255.3,413.3 C254.4,413.6 252.7,413.5 251.6,413.2 C250.5,412.9 250.3,412.4 251.2,412.1 L301.8,396.2 C302.7,395.9 304.4,396 305.5,396.3 C306.6,396.6 306.8,397.1 305.9,397.4 Z M191.7,439.5 L178.6,443.6 C177.7,443.9 176,443.8 174.9,443.5 C173.8,443.2 173.6,442.7 174.5,442.4 L187.6,438.3 C188.5,438 190.2,438.1 191.3,438.4 C192.5,438.7 192.6,439.2 191.7,439.5 Z M387.3,378 L373.6,382.3 C372.7,382.6 371,382.5 369.9,382.2 C368.8,381.9 368.6,381.4 369.5,381.1 L383.2,376.8 C384.1,376.5 385.8,376.6 386.9,376.9 C388.1,377.2 388.2,377.7 387.3,378 Z M207.7,440.7 L169.9,452.6 C169,452.9 167.3,452.8 166.2,452.5 C165.1,452.2 164.9,451.7 165.8,451.4 L203.6,439.5 C204.5,439.2 206.2,439.3 207.3,439.6 C208.4,439.9 208.6,440.4 207.7,440.7 Z M181.7,461.5 L166,466.4 C165.1,466.7 163.4,466.6 162.3,466.3 C161.2,466 161,465.5 161.9,465.2 L177.6,460.3 C178.5,460 180.2,460.1 181.3,460.4 C182.4,460.7 182.6,461.2 181.7,461.5 Z M272.8,432.9 L245.1,441.6 C244.2,441.9 242.5,441.8 241.4,441.5 C240.3,441.2 240.1,440.7 241,440.4 L268.7,431.7 C269.6,431.4 271.3,431.5 272.4,431.8 C273.5,432.1 273.7,432.6 272.8,432.9 Z M384.7,403.9 L349.3,415 C348.4,415.3 346.7,415.2 345.6,414.9 C344.5,414.6 344.3,414.1 345.2,413.8 L380.5,402.7 C381.4,402.4 383.1,402.5 384.2,402.8 C385.4,403.1 385.6,403.6 384.7,403.9 Z M249.3,452.7 L229.4,458.9 C228.5,459.2 226.8,459.1 225.7,458.8 C224.6,458.5 224.4,458 225.3,457.7 L245.2,451.5 C246.1,451.2 247.8,451.3 248.9,451.6 C250,451.9 250.2,452.4 249.3,452.7 Z M360.1,417.8 L347.5,421.8 C346.6,422.1 344.9,422 343.8,421.7 C342.7,421.4 342.5,420.9 343.4,420.6 L356,416.6 C356.9,416.3 358.6,416.4 359.7,416.7 C360.8,417 361,417.5 360.1,417.8 Z M311.9,445.4 L292.9,451.4 C292,451.7 290.3,451.6 289.2,451.3 C288.1,451 287.9,450.5 288.8,450.2 L307.8,444.2 C308.7,443.9 310.4,444 311.5,444.3 C312.6,444.6 312.8,445.1 311.9,445.4 Z M458.2,399.4 L422.9,410.5 C422,410.8 420.3,410.7 419.2,410.4 C418.1,410.1 417.9,409.6 418.8,409.3 L454.1,398.2 C455,397.9 456.7,398 457.8,398.3 C458.9,398.6 459.1,399.1 458.2,399.4 Z M338.2,443.3 L302.9,454.4 C302,454.7 300.3,454.6 299.2,454.3 C298.1,454 297.9,453.5 298.8,453.2 L334.1,442.1 C335,441.8 336.7,441.9 337.8,442.2 C339,442.5 339.1,443 338.2,443.3 Z M424.9,416.1 L404.8,422.4 C403.9,422.7 402.2,422.6 401.1,422.3 C400,422 399.8,421.5 400.7,421.2 L420.8,414.9 C421.7,414.6 423.4,414.7 424.5,415 C425.6,415.3 425.8,415.8 424.9,416.1 Z M478.3,405.5 L464.6,409.8 C463.7,410.1 462,410 460.9,409.7 C459.8,409.4 459.6,408.9 460.5,408.6 L474.2,404.3 C475.1,404 476.8,404.1 477.9,404.4 C479,404.7 479.2,405.2 478.3,405.5 Z M358.3,449.4 L306.6,465.7 C305.7,466 304,465.9 302.9,465.6 C301.8,465.3 301.6,464.8 302.5,464.5 L354.2,448.2 C355.1,447.9 356.8,448 357.9,448.3 C359.1,448.6 359.2,449.1 358.3,449.4 Z M90.7,434 L75,438.9 C74.1,439.2 72.4,439.1 71.3,438.8 C70.2,438.5 70,438 70.9,437.7 L86.6,432.8 C87.5,432.5 89.2,432.6 90.3,432.9 C91.5,433.2 91.6,433.7 90.7,434 Z M181.8,405.4 L154.1,414.1 C153.2,414.4 151.5,414.3 150.4,414 C149.3,413.7 149.1,413.2 150,412.9 L177.7,404.2 C178.6,403.9 180.3,404 181.4,404.3 C182.6,404.6 182.7,405.1 181.8,405.4 Z M240.3,387 L189.8,402.9 C188.9,403.2 187.2,403.1 186.1,402.8 C185,402.5 184.8,402 185.7,401.7 L236.2,385.8 C237.1,385.5 238.8,385.6 239.9,385.9 C241.1,386.2 241.2,386.7 240.3,387 Z M62.2,441.7 C63.8,442.2 64,442.9 62.7,443.3 C61.4,443.7 59.1,443.7 57.5,443.2 C55.9,442.7 55.7,442 57,441.6 C58.3,441.2 60.6,441.2 62.2,441.7 Z M199.8,405.9 L145.8,422.9 C144.9,423.2 143.2,423.1 142.1,422.8 C141,422.5 140.8,422 141.7,421.7 L195.7,404.7 C196.6,404.4 198.3,404.5 199.4,404.8 C200.5,405.1 200.7,405.6 199.8,405.9 Z M250.4,390 L207.8,403.4 C206.9,403.7 205.2,403.6 204.1,403.3 C203,403 202.8,402.5 203.7,402.2 L246.3,388.8 C247.2,388.5 248.9,388.6 250,388.9 C251.1,389.2 251.3,389.7 250.4,390 Z M72.3,444.8 C73.9,445.3 74.1,446 72.8,446.4 C71.5,446.8 69.2,446.8 67.6,446.3 C66,445.8 65.8,445.1 67.1,444.7 C68.4,444.2 70.7,444.3 72.3,444.8 Z M158.3,425.2 L138.4,431.4 C137.5,431.7 135.8,431.6 134.7,431.3 C133.6,431 133.4,430.5 134.3,430.2 L154.2,424 C155.1,423.7 156.8,423.8 157.9,424.1 C159.1,424.4 159.2,424.9 158.3,425.2 Z M217.1,406.7 L166.3,422.7 C165.4,423 163.7,422.9 162.6,422.6 C161.5,422.3 161.3,421.8 162.2,421.5 L213,405.5 C213.9,405.2 215.6,405.3 216.7,405.6 C217.9,405.9 218,406.4 217.1,406.7 L217.1,406.7 Z M303.8,379.4 L256.5,394.3 C255.6,394.6 253.9,394.5 252.8,394.2 C251.7,393.9 251.5,393.4 252.4,393.1 L299.7,378.2 C300.6,377.9 302.3,378 303.4,378.3 C304.5,378.6 304.7,379.1 303.8,379.4 L303.8,379.4 Z M82.3,447.8 C83.9,448.3 84.1,449 82.8,449.4 C81.5,449.8 79.2,449.8 77.6,449.3 C76,448.8 75.8,448.1 77.1,447.7 C78.4,447.3 80.7,447.3 82.3,447.8 Z M227.2,409.7 L191.9,420.8 C191,421.1 189.3,421 188.2,420.7 C187.1,420.4 186.9,419.9 187.8,419.6 L223.1,408.5 C224,408.2 225.7,408.3 226.8,408.6 C227.9,408.9 228.1,409.4 227.2,409.7 L227.2,409.7 Z M270.5,396.1 L235.2,407.2 C234.3,407.5 232.6,407.4 231.5,407.1 C230.4,406.8 230.2,406.3 231.1,406 L266.4,394.9 C267.3,394.6 269,394.7 270.1,395 C271.2,395.3 271.4,395.8 270.5,396.1 L270.5,396.1 Z M92.4,450.8 C94,451.3 94.2,452 92.9,452.4 C91.6,452.8 89.3,452.8 87.7,452.3 C86.1,451.8 85.9,451.1 87.2,450.7 C88.5,450.3 90.8,450.4 92.4,450.8 Z M268.6,402.9 L228.9,415.4 C228,415.7 226.3,415.6 225.2,415.3 C224.1,415 223.9,414.5 224.8,414.2 L264.5,401.7 C265.4,401.4 267.1,401.5 268.2,401.8 C269.3,402.1 269.5,402.6 268.6,402.9 Z M323.9,385.5 L276.6,400.4 C275.7,400.7 274,400.6 272.9,400.3 C271.8,400 271.6,399.5 272.5,399.2 L319.8,384.3 C320.7,384 322.4,384.1 323.5,384.4 C324.6,384.7 324.8,385.2 323.9,385.5 Z M102.4,453.9 C104,454.4 104.2,455.1 102.9,455.5 C101.6,455.9 99.3,455.9 97.7,455.4 C96.1,454.9 95.9,454.2 97.2,453.8 C98.5,453.4 100.9,453.4 102.4,453.9 Z M247.3,415.8 L212,426.9 C211.1,427.2 209.4,427.1 208.3,426.8 C207.2,426.5 207,426 207.9,425.7 L243.2,414.6 C244.1,414.3 245.8,414.4 246.9,414.7 C248,415 248.2,415.5 247.3,415.8 L247.3,415.8 Z M333.9,388.5 L313.8,394.8 C312.9,395.1 311.2,395 310.1,394.7 C309,394.4 308.8,393.9 309.7,393.6 L329.8,387.3 C330.7,387 332.4,387.1 333.5,387.4 C334.7,387.8 334.9,388.3 333.9,388.5 Z M112.5,456.9 C114.1,457.4 114.3,458.1 113,458.5 C111.7,458.9 109.4,458.9 107.8,458.4 C106.2,457.9 106,457.2 107.3,456.8 C108.6,456.4 110.9,456.5 112.5,456.9 Z M245.8,422.5 L199.7,437 C198.8,437.3 197.1,437.2 196,436.9 C194.9,436.6 194.7,436.1 195.6,435.8 L241.7,421.3 C242.6,421 244.3,421.1 245.4,421.4 C246.6,421.7 246.7,422.2 245.8,422.5 L245.8,422.5 Z M300.7,405.2 L253.9,419.9 C253,420.2 251.3,420.1 250.2,419.8 C249.1,419.5 248.9,419 249.8,418.7 L296.6,404 C297.5,403.7 299.2,403.8 300.3,404.1 C301.4,404.4 301.6,404.9 300.7,405.2 L300.7,405.2 Z M365.6,384.8 L308.6,402.7 C307.7,403 306,402.9 304.9,402.6 C303.8,402.3 303.6,401.8 304.5,401.5 L361.5,383.6 C362.4,383.3 364.1,383.4 365.2,383.7 C366.4,384 366.5,384.5 365.6,384.8 Z M122.5,460 C124.1,460.5 124.3,461.2 123,461.6 C121.7,462 119.4,462 117.8,461.5 C116.2,461 116,460.3 117.3,459.9 C118.6,459.4 121,459.5 122.5,460 Z M161.8,455.1 L145.3,460.3 C144.4,460.6 142.7,460.5 141.6,460.2 C140.5,459.9 140.3,459.4 141.2,459.1 L157.7,453.9 C158.6,453.6 160.3,453.7 161.4,454 C162.6,454.3 162.8,454.8 161.8,455.1 Z M267.4,421.9 L215.7,438.2 C214.8,438.5 213.1,438.4 212,438.1 C210.9,437.8 210.7,437.3 211.6,437 L263.3,420.7 C264.2,420.4 265.9,420.5 267,420.8 C268.1,421.1 268.3,421.6 267.4,421.9 Z M132.6,463 C134.2,463.5 134.4,464.2 133.1,464.6 C131.8,465 129.5,465 127.9,464.5 C126.3,464 126.1,463.3 127.4,462.9 C128.7,462.5 131,462.5 132.6,463 Z M142.7,466.1 C144.3,466.6 144.5,467.3 143.2,467.7 C141.9,468.1 139.6,468.1 138,467.6 C136.4,467.1 136.2,466.4 137.5,466 C138.8,465.5 141.1,465.6 142.7,466.1 Z M237.1,444.1 L189.7,459 C188.8,459.3 187.1,459.2 186,458.9 C184.9,458.6 184.7,458.1 185.6,457.8 L233,442.9 C233.9,442.6 235.6,442.7 236.7,443 C237.8,443.3 238,443.8 237.1,444.1 Z M331.3,414.5 L280.8,430.4 C279.9,430.7 278.2,430.6 277.1,430.3 C276,430 275.8,429.5 276.7,429.2 L327.2,413.3 C328.1,413 329.8,413.1 330.9,413.4 C332,413.7 332.2,414.2 331.3,414.5 Z M153.2,469.2 C154.8,469.7 155,470.4 153.7,470.8 C152.4,471.2 150.1,471.2 148.5,470.7 C146.9,470.2 146.7,469.5 148,469.1 C149.3,468.7 151.6,468.8 153.2,469.2 Z M228.7,452.9 L219.3,455.9 C218.4,456.2 216.7,456.1 215.6,455.8 C214.5,455.5 214.3,455 215.2,454.7 L224.6,451.7 C225.5,451.4 227.2,451.5 228.3,451.8 C229.5,452.1 229.6,452.6 228.7,452.9 Z M290.7,433.4 L236.7,450.4 C235.8,450.7 234.1,450.6 233,450.3 C231.9,450 231.7,449.5 232.6,449.2 L286.6,432.2 C287.5,431.9 289.2,432 290.3,432.3 C291.5,432.6 291.6,433.1 290.7,433.4 L290.7,433.4 Z M341.3,417.5 L298.7,430.9 C297.8,431.2 296.1,431.1 295,430.8 C293.9,430.5 293.7,430 294.6,429.7 L337.2,416.3 C338.1,416 339.8,416.1 340.9,416.4 C342.1,416.7 342.2,417.2 341.3,417.5 Z M163.2,472.3 C164.8,472.8 165,473.5 163.7,473.9 C162.4,474.3 160.1,474.3 158.5,473.8 C156.9,473.3 156.7,472.6 158,472.2 C159.3,471.8 161.6,471.8 163.2,472.3 Z M308.1,434.2 L257.3,450.2 C256.4,450.5 254.7,450.4 253.6,450.1 C252.5,449.8 252.3,449.3 253.2,449 L304,433 C304.9,432.7 306.6,432.8 307.7,433.1 C308.8,433.4 309,433.9 308.1,434.2 L308.1,434.2 Z M339.4,424.3 L316,431.6 C315.1,431.9 313.4,431.8 312.3,431.5 C311.2,431.2 311,430.7 311.9,430.4 L335.3,423.1 C336.2,422.8 337.9,422.9 339,423.2 C340.2,423.5 340.3,424 339.4,424.3 Z M173.3,475.3 C174.9,475.8 175.1,476.5 173.8,476.9 C172.5,477.3 170.2,477.3 168.6,476.8 C167,476.3 166.8,475.6 168.1,475.2 C169.4,474.8 171.7,474.9 173.3,475.3 Z M318.1,437.2 L282.8,448.3 C281.9,448.6 280.2,448.5 279.1,448.2 C278,447.9 277.8,447.4 278.7,447.1 L314,436 C314.9,435.7 316.6,435.8 317.7,436.1 C318.9,436.4 319,436.9 318.1,437.2 L318.1,437.2 Z M361.4,423.6 L326.1,434.7 C325.2,435 323.5,434.9 322.4,434.6 C321.3,434.3 321.1,433.8 322,433.5 L357.3,422.4 C358.2,422.1 359.9,422.2 361,422.5 C362.2,422.8 362.4,423.3 361.4,423.6 Z M183.3,478.4 C184.9,478.9 185.1,479.6 183.8,480 C182.5,480.4 180.2,480.4 178.6,479.9 C177,479.4 176.8,478.7 178.1,478.3 C179.4,477.9 181.8,477.9 183.3,478.4 Z M359.5,430.4 L319.8,442.9 C318.9,443.2 317.2,443.1 316.1,442.8 C315,442.5 314.8,442 315.7,441.7 L355.4,429.2 C356.3,428.9 358,429 359.1,429.3 C360.3,429.6 360.5,430.1 359.5,430.4 Z M414.8,413 L367.5,427.9 C366.6,428.2 364.9,428.1 363.8,427.8 C362.7,427.5 362.5,427 363.4,426.7 L410.7,411.8 C411.6,411.5 413.3,411.6 414.4,411.9 C415.6,412.2 415.7,412.7 414.8,413 Z M193.4,481.4 C195,481.9 195.2,482.6 193.9,483 C192.6,483.4 190.3,483.4 188.7,482.9 C187.1,482.4 186.9,481.7 188.2,481.3 C189.5,480.9 191.8,480.9 193.4,481.4 Z M396.8,424.9 L346.2,440.8 C345.3,441.1 343.6,441 342.5,440.7 C341.4,440.4 341.2,439.9 342.1,439.6 L392.7,423.7 C393.6,423.4 395.3,423.5 396.4,423.8 C397.6,424.1 397.7,424.6 396.8,424.9 Z M203.4,484.5 C205,485 205.2,485.7 203.9,486.1 C202.6,486.5 200.3,486.5 198.7,486 C197.1,485.5 196.9,484.8 198.2,484.4 C199.5,483.9 201.9,484 203.4,484.5 Z M282.7,467 L269.6,471.1 C268.7,471.4 267,471.3 265.9,471 C264.8,470.7 264.6,470.2 265.5,469.9 L278.6,465.8 C279.5,465.5 281.2,465.6 282.3,465.9 C283.4,466.2 283.6,466.7 282.7,467 Z M336.8,450 L290.7,464.5 C289.8,464.8 288.1,464.7 287,464.4 C285.9,464.1 285.7,463.6 286.6,463.3 L332.7,448.8 C333.6,448.5 335.3,448.6 336.4,448.9 C337.5,449.2 337.7,449.7 336.8,450 Z M391.6,432.7 L344.8,447.4 C343.9,447.7 342.2,447.6 341.1,447.3 C340,447 339.8,446.5 340.7,446.2 L387.5,431.5 C388.4,431.2 390.1,431.3 391.2,431.6 C392.4,431.9 392.5,432.5 391.6,432.7 Z M456.6,412.3 L399.6,430.2 C398.7,430.5 397,430.4 395.9,430.1 C394.8,429.8 394.6,429.3 395.5,429 L452.5,411.1 C453.4,410.8 455.1,410.9 456.2,411.2 C457.3,411.5 457.5,412 456.6,412.3 Z M213.5,487.5 C215.1,488 215.3,488.7 214,489.1 C212.7,489.5 210.4,489.5 208.8,489 C207.2,488.5 207,487.8 208.3,487.4 C209.6,487 211.9,487 213.5,487.5 Z M252.8,482.6 L236.3,487.8 C235.4,488.1 233.7,488 232.6,487.7 C231.5,487.4 231.3,486.9 232.2,486.6 L248.7,481.4 C249.6,481.1 251.3,481.2 252.4,481.5 C253.6,481.8 253.7,482.3 252.8,482.6 Z M298.6,468.2 L260.8,480.1 C259.9,480.4 258.2,480.3 257.1,480 C256,479.7 255.8,479.2 256.7,478.9 L294.5,467 C295.4,466.7 297.1,466.8 298.2,467.1 C299.4,467.4 299.5,467.9 298.6,468.2 Z M223.6,490.5 C225.2,491 225.4,491.7 224.1,492.1 C222.8,492.5 220.5,492.5 218.9,492 C217.3,491.5 217.1,490.8 218.4,490.4 C219.7,490 222,490.1 223.6,490.5 Z M233.6,493.6 C235.2,494.1 235.4,494.8 234.1,495.2 C232.8,495.6 230.5,495.6 228.9,495.1 C227.3,494.6 227.1,493.9 228.4,493.5 C229.7,493.1 232,493.1 233.6,493.6 Z M268.5,489.4 L255.4,493.5 C254.5,493.8 252.8,493.7 251.7,493.4 C250.6,493.1 250.4,492.6 251.3,492.3 L264.4,488.2 C265.3,487.9 267,488 268.1,488.3 C269.3,488.7 269.4,489.2 268.5,489.4 Z M322.6,472.4 L276.5,486.9 C275.6,487.2 273.9,487.1 272.8,486.8 C271.7,486.5 271.5,486 272.4,485.7 L318.5,471.2 C319.4,470.9 321.1,471 322.2,471.3 C323.4,471.6 323.5,472.2 322.6,472.4 Z M242.7,496.3 C244.3,496.8 244.5,497.5 243.2,497.9 C241.9,498.3 239.6,498.3 238,497.8 C236.4,497.3 236.2,496.6 237.5,496.2 C238.8,495.8 241.1,495.9 242.7,496.3 Z M282,491.4 L265.5,496.6 C264.6,496.9 262.9,496.8 261.8,496.5 C260.7,496.2 260.5,495.7 261.4,495.4 L277.9,490.2 C278.8,489.9 280.5,490 281.6,490.3 C282.7,490.6 282.9,491.1 282,491.4 Z M358.8,467.3 L290,488.9 C289.1,489.2 287.4,489.1 286.3,488.8 C285.2,488.5 285,488 285.9,487.7 L354.7,466.1 C355.6,465.8 357.3,465.9 358.4,466.2 C359.6,466.5 359.7,467 358.8,467.3 L358.8,467.3 Z M387.5,458.2 L366.8,464.7 C365.9,465 364.2,464.9 363.1,464.6 C362,464.3 361.8,463.8 362.7,463.5 L383.4,457 C384.3,456.7 386,456.8 387.1,457.1 C388.3,457.4 388.4,458 387.5,458.2 Z M252.7,499.4 C254.3,499.9 254.5,500.6 253.2,501 C251.9,501.4 249.6,501.4 248,500.9 C246.4,500.4 246.2,499.7 247.5,499.3 C248.8,498.9 251.2,498.9 252.7,499.4 Z M346.7,477.3 L299.3,492.2 C298.4,492.5 296.7,492.4 295.6,492.1 C294.5,491.8 294.3,491.3 295.2,491 L342.6,476.1 C343.5,475.8 345.2,475.9 346.3,476.2 C347.4,476.5 347.6,477 346.7,477.3 Z M338.3,486.1 L328.9,489.1 C328,489.4 326.3,489.3 325.2,489 C324.1,488.7 323.9,488.2 324.8,487.9 L334.2,484.9 C335.1,484.6 336.8,484.7 337.9,485 C339.1,485.3 339.3,485.8 338.3,486.1 Z M494.3,437.1 L459,448.2 C458.1,448.5 456.4,448.4 455.3,448.1 C454.2,447.8 454,447.3 454.9,447 L490.2,435.9 C491.1,435.6 492.8,435.7 493.9,436 C495,436.3 495.2,436.8 494.3,437.1 L494.3,437.1 Z M449.1,457.5 L425.7,464.8 C424.8,465.1 423.1,465 422,464.7 C420.9,464.4 420.7,463.9 421.6,463.6 L445,456.3 C445.9,456 447.6,456.1 448.7,456.4 C449.8,456.7 450,457.2 449.1,457.5 Z M421.5,478.6 L402.5,484.6 C401.6,484.9 399.9,484.8 398.8,484.5 C397.7,484.2 397.5,483.7 398.4,483.4 L417.4,477.4 C418.3,477.1 420,477.2 421.1,477.5 C422.3,477.8 422.4,478.3 421.5,478.6 Z M567.8,432.6 L532.5,443.7 C531.6,444 529.9,443.9 528.8,443.6 C527.7,443.3 527.5,442.8 528.4,442.5 L563.7,431.4 C564.6,431.1 566.3,431.2 567.4,431.5 C568.6,431.8 568.7,432.3 567.8,432.6 Z M506.5,458.1 L455.9,474 C455,474.3 453.3,474.2 452.2,473.9 C451.1,473.6 450.9,473.1 451.8,472.8 L502.4,456.9 C503.3,456.6 505,456.7 506.1,457 C507.2,457.3 507.4,457.8 506.5,458.1 L506.5,458.1 Z M392.3,500.2 L379.2,504.3 C378.3,504.6 376.6,504.5 375.5,504.2 C374.4,503.9 374.2,503.4 375.1,503.1 L388.2,499 C389.1,498.7 390.8,498.8 391.9,499.1 C393.1,499.4 393.2,499.9 392.3,500.2 Z M587.9,438.7 L574.2,443 C573.3,443.3 571.6,443.2 570.5,442.9 C569.4,442.6 569.2,442.1 570.1,441.8 L583.8,437.5 C584.7,437.2 586.4,437.3 587.5,437.6 C588.7,437.9 588.8,438.4 587.9,438.7 Z M408.2,501.4 L370.4,513.3 C369.5,513.6 367.8,513.5 366.7,513.2 C365.6,512.9 365.4,512.4 366.3,512.1 L404.1,500.2 C405,499.9 406.7,500 407.8,500.3 C409,500.6 409.2,501.1 408.2,501.4 L408.2,501.4 Z M382.2,522.2 L366.5,527.1 C365.6,527.4 363.9,527.3 362.8,527 C361.7,526.7 361.5,526.2 362.4,525.9 L378.1,521 C379,520.7 380.7,520.8 381.8,521.1 C383,521.4 383.2,521.9 382.2,522.2 Z M473.3,493.6 L445.6,502.3 C444.7,502.6 443,502.5 441.9,502.2 C440.8,501.9 440.6,501.4 441.5,501.1 L469.2,492.4 C470.1,492.1 471.8,492.2 472.9,492.5 C474.1,492.8 474.3,493.3 473.3,493.6 Z M585.2,464.6 L549.9,475.7 C549,476 547.3,475.9 546.2,475.6 C545.1,475.3 544.9,474.8 545.8,474.5 L581.1,463.4 C582,463.1 583.7,463.2 584.8,463.5 C586,463.8 586.2,464.3 585.2,464.6 Z M449.8,513.4 L429.9,519.6 C429,519.9 427.3,519.8 426.2,519.5 C425.1,519.2 424.9,518.7 425.8,518.4 L445.7,512.2 C446.6,511.9 448.3,512 449.4,512.3 C450.6,512.6 450.8,513.1 449.8,513.4 Z M560.7,478.5 L548.1,482.5 C547.2,482.8 545.5,482.7 544.4,482.4 C543.3,482.1 543.1,481.6 544,481.3 L556.6,477.3 C557.5,477 559.2,477.1 560.3,477.4 C561.4,477.7 561.6,478.2 560.7,478.5 Z M512.5,506.1 L493.5,512.1 C492.6,512.4 490.9,512.3 489.8,512 C488.7,511.7 488.5,511.2 489.4,510.9 L508.4,504.9 C509.3,504.6 511,504.7 512.1,505 C513.2,505.3 513.4,505.8 512.5,506.1 Z M658.7,460.1 L623.4,471.2 C622.5,471.5 620.8,471.4 619.7,471.1 C618.6,470.8 618.4,470.3 619.3,470 L654.6,458.9 C655.5,458.6 657.2,458.7 658.3,459 C659.5,459.3 659.7,459.8 658.7,460.1 Z M538.8,504 L503.5,515.1 C502.6,515.4 500.9,515.3 499.8,515 C498.7,514.7 498.5,514.2 499.4,513.9 L534.7,502.8 C535.6,502.5 537.3,502.6 538.4,502.9 C539.6,503.2 539.7,503.7 538.8,504 Z M625.5,476.8 L605.4,483.1 C604.5,483.4 602.8,483.3 601.7,483 C600.6,482.7 600.4,482.2 601.3,481.9 L621.4,475.6 C622.3,475.3 624,475.4 625.1,475.7 C626.2,476 626.4,476.5 625.5,476.8 Z M678.9,466.2 L665.2,470.5 C664.3,470.8 662.6,470.7 661.5,470.4 C660.4,470.1 660.2,469.6 661.1,469.3 L674.8,465 C675.7,464.7 677.4,464.8 678.5,465.1 C679.6,465.4 679.8,465.9 678.9,466.2 Z M558.9,510.1 L507.2,526.4 C506.3,526.7 504.6,526.6 503.5,526.3 C502.4,526 502.2,525.5 503.1,525.2 L554.8,508.9 C555.7,508.6 557.4,508.7 558.5,509 C559.7,509.3 559.8,509.8 558.9,510.1 L558.9,510.1 Z M291.3,494.7 L275.6,499.6 C274.7,499.9 273,499.8 271.9,499.5 C270.8,499.2 270.6,498.7 271.5,498.4 L287.2,493.5 C288.1,493.2 289.8,493.3 290.9,493.6 C292.1,493.9 292.2,494.4 291.3,494.7 Z M382.4,466.1 L354.7,474.8 C353.8,475.1 352.1,475 351,474.7 C349.9,474.4 349.7,473.9 350.6,473.6 L378.3,464.9 C379.2,464.6 380.9,464.7 382,465 C383.1,465.3 383.3,465.8 382.4,466.1 Z M440.9,447.7 L390.4,463.6 C389.5,463.9 387.8,463.8 386.7,463.5 C385.6,463.2 385.4,462.7 386.3,462.4 L436.8,446.5 C437.7,446.2 439.4,446.3 440.5,446.6 C441.7,446.9 441.8,447.4 440.9,447.7 Z M262.8,502.4 C264.4,502.9 264.6,503.6 263.3,504 C262,504.4 259.7,504.4 258.1,503.9 C256.5,503.4 256.3,502.7 257.6,502.3 C258.9,501.9 261.2,501.9 262.8,502.4 Z M400.4,466.6 L346.4,483.6 C345.5,483.9 343.8,483.8 342.7,483.5 C341.6,483.2 341.4,482.7 342.3,482.4 L396.3,465.4 C397.2,465.1 398.9,465.2 400,465.5 C401.1,465.8 401.3,466.3 400.4,466.6 Z M451,450.7 L408.4,464.1 C407.5,464.4 405.8,464.3 404.7,464 C403.6,463.7 403.4,463.2 404.3,462.9 L446.9,449.5 C447.8,449.2 449.5,449.3 450.6,449.6 C451.7,449.9 451.9,450.4 451,450.7 Z M272.8,505.5 C274.4,506 274.6,506.7 273.3,507.1 C272,507.5 269.7,507.5 268.1,507 C266.5,506.5 266.3,505.8 267.6,505.4 C268.9,504.9 271.3,505 272.8,505.5 Z M358.9,485.9 L339,492.1 C338.1,492.4 336.4,492.3 335.3,492 C334.2,491.7 334,491.2 334.9,490.9 L354.8,484.7 C355.7,484.4 357.4,484.5 358.5,484.8 C359.6,485.1 359.8,485.6 358.9,485.9 Z M417.7,467.4 L366.9,483.4 C366,483.7 364.3,483.6 363.2,483.3 C362.1,483 361.9,482.5 362.8,482.2 L413.6,466.2 C414.5,465.9 416.2,466 417.3,466.3 C418.4,466.6 418.6,467.1 417.7,467.4 Z M504.3,440.1 L457.1,455 C456.2,455.3 454.5,455.2 453.4,454.9 C452.3,454.6 452.1,454.1 453,453.8 L500.3,438.9 C501.2,438.6 502.9,438.7 504,439 C505.1,439.3 505.3,439.8 504.3,440.1 L504.3,440.1 Z M282.9,508.5 C284.5,509 284.7,509.7 283.4,510.1 C282.1,510.5 279.8,510.5 278.2,510 C276.6,509.5 276.4,508.8 277.7,508.4 C279,508 281.3,508 282.9,508.5 Z M427.7,470.4 L392.4,481.5 C391.5,481.8 389.8,481.7 388.7,481.4 C387.6,481.1 387.4,480.6 388.3,480.3 L423.6,469.2 C424.5,468.9 426.2,469 427.3,469.3 C428.5,469.6 428.6,470.1 427.7,470.4 Z M471.1,456.8 L435.8,467.9 C434.9,468.2 433.2,468.1 432.1,467.8 C431,467.5 430.8,467 431.7,466.7 L467,455.6 C467.9,455.3 469.6,455.4 470.7,455.7 C471.8,456 472,456.5 471.1,456.8 Z M293,511.5 C294.6,512 294.8,512.7 293.5,513.1 C292.2,513.5 289.9,513.5 288.3,513 C286.7,512.5 286.5,511.8 287.8,511.4 C289.1,511 291.4,511.1 293,511.5 Z M469.2,463.6 L429.5,476.1 C428.6,476.4 426.9,476.3 425.8,476 C424.7,475.7 424.5,475.2 425.4,474.9 L465.1,462.4 C466,462.1 467.7,462.2 468.8,462.5 C469.9,462.8 470.1,463.3 469.2,463.6 Z M524.5,446.2 L477.2,461.1 C476.3,461.4 474.6,461.3 473.5,461 C472.4,460.7 472.2,460.2 473.1,459.9 L520.4,445 C521.3,444.7 523,444.8 524.1,445.1 C525.2,445.4 525.4,445.9 524.5,446.2 Z M303,514.6 C304.6,515.1 304.8,515.8 303.5,516.2 C302.2,516.6 299.9,516.6 298.3,516.1 C296.7,515.6 296.5,514.9 297.8,514.5 C299.1,514.1 301.4,514.1 303,514.6 Z M447.8,476.5 L412.5,487.6 C411.6,487.9 409.9,487.8 408.8,487.5 C407.7,487.2 407.5,486.7 408.4,486.4 L443.7,475.3 C444.6,475 446.3,475.1 447.4,475.4 C448.6,475.7 448.8,476.2 447.8,476.5 Z M534.5,449.2 L514.4,455.5 C513.5,455.8 511.8,455.7 510.7,455.4 C509.6,455.1 509.4,454.6 510.3,454.3 L530.4,448 C531.3,447.7 533,447.8 534.1,448.1 C535.3,448.5 535.4,449 534.5,449.2 Z M313.1,517.6 C314.7,518.1 314.9,518.8 313.6,519.2 C312.3,519.6 310,519.6 308.4,519.1 C306.8,518.6 306.6,517.9 307.9,517.5 C309.2,517.1 311.5,517.2 313.1,517.6 Z M446.4,483.2 L400.3,497.7 C399.4,498 397.7,497.9 396.6,497.6 C395.5,497.3 395.3,496.8 396.2,496.5 L442.3,482 C443.2,481.7 444.9,481.8 446,482.1 C447.2,482.4 447.3,482.9 446.4,483.2 Z M501.2,465.9 L454.4,480.6 C453.5,480.9 451.8,480.8 450.7,480.5 C449.6,480.2 449.4,479.7 450.3,479.4 L497.1,464.7 C498,464.4 499.7,464.5 500.8,464.8 C502,465.1 502.2,465.6 501.2,465.9 Z M566.2,445.5 L509.2,463.4 C508.3,463.7 506.6,463.6 505.5,463.3 C504.4,463 504.2,462.5 505.1,462.2 L562.1,444.3 C563,444 564.7,444.1 565.8,444.4 C567,444.7 567.1,445.2 566.2,445.5 L566.2,445.5 Z M323.1,520.7 C324.7,521.2 324.9,521.9 323.6,522.3 C322.3,522.7 320,522.7 318.4,522.2 C316.8,521.7 316.6,521 317.9,520.6 C319.2,520.1 321.6,520.2 323.1,520.7 Z M362.4,515.8 L345.9,521 C345,521.3 343.3,521.2 342.2,520.9 C341.1,520.6 340.9,520.1 341.8,519.8 L358.3,514.6 C359.2,514.3 360.9,514.4 362,514.7 C363.2,515 363.3,515.5 362.4,515.8 Z M468,482.6 L416.3,498.9 C415.4,499.2 413.7,499.1 412.6,498.8 C411.5,498.5 411.3,498 412.2,497.7 L463.9,481.4 C464.8,481.1 466.5,481.2 467.6,481.5 C468.7,481.8 468.9,482.3 468,482.6 Z M333.2,523.7 C334.8,524.2 335,524.9 333.7,525.3 C332.4,525.7 330.1,525.7 328.5,525.2 C326.9,524.7 326.7,524 328,523.6 C329.3,523.2 331.6,523.2 333.2,523.7 Z M343.2,526.8 C344.8,527.3 345,528 343.7,528.4 C342.4,528.8 340.1,528.8 338.5,528.3 C336.9,527.8 336.7,527.1 338,526.7 C339.3,526.2 341.7,526.3 343.2,526.8 Z M437.6,504.8 L390.2,519.7 C389.3,520 387.6,519.9 386.5,519.6 C385.4,519.3 385.2,518.8 386.1,518.5 L433.5,503.6 C434.4,503.3 436.1,503.4 437.2,503.7 C438.4,504 438.6,504.5 437.6,504.8 Z M531.9,475.2 L481.4,491.1 C480.5,491.4 478.8,491.3 477.7,491 C476.6,490.7 476.4,490.2 477.3,489.9 L527.8,474 C528.7,473.7 530.4,473.8 531.5,474.1 C532.6,474.4 532.8,474.9 531.9,475.2 Z M353.7,529.9 C355.3,530.4 355.5,531.1 354.2,531.5 C352.9,531.9 350.6,531.9 349,531.4 C347.4,530.9 347.2,530.2 348.5,529.8 C349.8,529.4 352.2,529.5 353.7,529.9 Z M429.3,513.6 L419.9,516.6 C419,516.9 417.3,516.8 416.2,516.5 C415.1,516.2 414.9,515.7 415.8,515.4 L425.2,512.4 C426.1,512.1 427.8,512.2 428.9,512.5 C430,512.8 430.2,513.3 429.3,513.6 Z M491.3,494.1 L437.3,511.1 C436.4,511.4 434.7,511.3 433.6,511 C432.5,510.7 432.3,510.2 433.2,509.9 L487.2,492.9 C488.1,492.6 489.8,492.7 490.9,493 C492.1,493.3 492.2,493.8 491.3,494.1 Z M541.9,478.2 L499.3,491.6 C498.4,491.9 496.7,491.8 495.6,491.5 C494.5,491.2 494.3,490.7 495.2,490.4 L537.8,477 C538.7,476.7 540.4,476.8 541.5,477.1 C542.7,477.4 542.8,477.9 541.9,478.2 Z M363.8,533 C365.4,533.5 365.6,534.2 364.3,534.6 C363,535 360.7,535 359.1,534.5 C357.5,534 357.3,533.3 358.6,532.9 C359.9,532.5 362.2,532.5 363.8,533 Z M508.6,494.9 L457.8,510.9 C456.9,511.2 455.2,511.1 454.1,510.8 C453,510.5 452.8,510 453.7,509.7 L504.5,493.7 C505.4,493.4 507.1,493.5 508.2,493.8 C509.4,494.1 509.5,494.6 508.6,494.9 Z M540,485 L516.6,492.3 C515.7,492.6 514,492.5 512.9,492.2 C511.8,491.9 511.6,491.4 512.5,491.1 L535.9,483.8 C536.8,483.5 538.5,483.6 539.6,483.9 C540.8,484.2 540.9,484.7 540,485 Z M373.9,536 C375.5,536.5 375.7,537.2 374.4,537.6 C373.1,538 370.8,538 369.2,537.5 C367.6,537 367.4,536.3 368.7,535.9 C370,535.5 372.3,535.6 373.9,536 Z M518.7,497.9 L483.4,509 C482.5,509.3 480.8,509.2 479.7,508.9 C478.6,508.6 478.4,508.1 479.3,507.8 L514.6,496.7 C515.5,496.4 517.2,496.5 518.3,496.8 C519.4,497.1 519.6,497.6 518.7,497.9 Z M562,484.3 L526.7,495.4 C525.8,495.7 524.1,495.6 523,495.3 C521.9,495 521.7,494.5 522.6,494.2 L557.9,483.1 C558.8,482.8 560.5,482.9 561.6,483.2 C562.8,483.5 562.9,484 562,484.3 Z M383.9,539.1 C385.5,539.6 385.7,540.3 384.4,540.7 C383.1,541.1 380.8,541.1 379.2,540.6 C377.6,540.1 377.4,539.4 378.7,539 C380,538.5 382.3,538.6 383.9,539.1 Z M560.1,491.1 L520.4,503.6 C519.5,503.9 517.8,503.8 516.7,503.5 C515.6,503.2 515.4,502.7 516.3,502.4 L556,489.9 C556.9,489.6 558.6,489.7 559.7,490 C560.9,490.3 561,490.8 560.1,491.1 Z M615.4,473.7 L568.1,488.6 C567.2,488.9 565.5,488.8 564.4,488.5 C563.3,488.2 563.1,487.7 564,487.4 L611.3,472.5 C612.2,472.2 613.9,472.3 615,472.6 C616.2,472.9 616.3,473.4 615.4,473.7 Z M394,542.1 C395.6,542.6 395.8,543.3 394.5,543.7 C393.2,544.1 390.9,544.1 389.3,543.6 C387.7,543.1 387.5,542.4 388.8,542 C390.1,541.6 392.4,541.6 394,542.1 Z M597.4,485.6 L546.8,501.5 C545.9,501.8 544.2,501.7 543.1,501.4 C542,501.1 541.8,500.6 542.7,500.3 L593.3,484.4 C594.2,484.1 595.9,484.2 597,484.5 C598.2,484.8 598.3,485.3 597.4,485.6 Z M404,545.2 C405.6,545.7 405.8,546.4 404.5,546.8 C403.2,547.2 400.9,547.2 399.3,546.7 C397.7,546.2 397.5,545.5 398.8,545.1 C400.1,544.6 402.4,544.7 404,545.2 Z M483.3,527.7 L470.2,531.8 C469.3,532.1 467.6,532 466.5,531.7 C465.4,531.4 465.2,530.9 466.1,530.6 L479.2,526.5 C480.1,526.2 481.8,526.3 482.9,526.6 C484,526.9 484.2,527.4 483.3,527.7 Z M537.4,510.7 L491.3,525.2 C490.4,525.5 488.7,525.4 487.6,525.1 C486.5,524.8 486.3,524.3 487.2,524 L533.3,509.5 C534.2,509.2 535.9,509.3 537,509.6 C538.1,509.9 538.3,510.4 537.4,510.7 Z M592.2,493.4 L545.4,508.1 C544.5,508.4 542.8,508.3 541.7,508 C540.6,507.7 540.4,507.2 541.3,506.9 L588.1,492.2 C589,491.9 590.7,492 591.8,492.3 C592.9,492.6 593.1,493.2 592.2,493.4 Z M657.1,473 L600.1,490.9 C599.2,491.2 597.5,491.1 596.4,490.8 C595.3,490.5 595.1,490 596,489.7 L653,471.8 C653.9,471.5 655.6,471.6 656.7,471.9 C657.9,472.2 658.1,472.7 657.1,473 Z M414.1,548.2 C415.7,548.7 415.9,549.4 414.6,549.8 C413.3,550.2 411,550.2 409.4,549.7 C407.8,549.2 407.6,548.5 408.9,548.1 C410.2,547.7 412.5,547.7 414.1,548.2 Z M453.4,543.3 L436.9,548.5 C436,548.8 434.3,548.7 433.2,548.4 C432.1,548.1 431.9,547.6 432.8,547.3 L449.3,542.1 C450.2,541.8 451.9,541.9 453,542.2 C454.1,542.5 454.3,543 453.4,543.3 Z M499.2,528.9 L461.4,540.8 C460.5,541.1 458.8,541 457.7,540.7 C456.6,540.4 456.4,539.9 457.3,539.6 L495.1,527.7 C496,527.4 497.7,527.5 498.8,527.8 C500,528.1 500.1,528.6 499.2,528.9 Z M424.1,551.2 C425.7,551.7 425.9,552.4 424.6,552.8 C423.3,553.2 421,553.2 419.4,552.7 C417.8,552.2 417.6,551.5 418.9,551.1 C420.2,550.7 422.6,550.8 424.1,551.2 Z M434.2,554.3 C435.8,554.8 436,555.5 434.7,555.9 C433.4,556.3 431.1,556.3 429.5,555.8 C427.9,555.3 427.7,554.6 429,554.2 C430.3,553.8 432.6,553.8 434.2,554.3 Z M469.1,550.1 L456,554.2 C455.1,554.5 453.4,554.4 452.3,554.1 C451.2,553.8 451,553.3 451.9,553 L465,548.9 C465.9,548.6 467.6,548.7 468.7,549 C469.9,549.4 470,549.9 469.1,550.1 Z M523.2,533.1 L477.1,547.6 C476.2,547.9 474.5,547.8 473.4,547.5 C472.3,547.2 472.1,546.7 473,546.4 L519.1,531.9 C520,531.6 521.7,531.7 522.8,532 C524,532.3 524.1,532.9 523.2,533.1 Z M443.3,557 C444.9,557.5 445.1,558.2 443.8,558.6 C442.5,559 440.2,559 438.6,558.5 C437,558 436.8,557.3 438.1,556.9 C439.4,556.5 441.7,556.6 443.3,557 Z M482.6,552.1 L466.1,557.3 C465.2,557.6 463.5,557.5 462.4,557.2 C461.3,556.9 461.1,556.4 462,556.1 L478.5,550.9 C479.4,550.6 481.1,550.7 482.2,551 C483.3,551.3 483.5,551.8 482.6,552.1 Z M559.4,528 L490.6,549.6 C489.7,549.9 488,549.8 486.9,549.5 C485.8,549.2 485.6,548.7 486.5,548.4 L555.3,526.8 C556.2,526.5 557.9,526.6 559,526.9 C560.1,527.2 560.3,527.7 559.4,528 Z M588.1,518.9 L567.4,525.4 C566.5,525.7 564.8,525.6 563.7,525.3 C562.6,525 562.4,524.5 563.3,524.2 L584,517.7 C584.9,517.4 586.6,517.5 587.7,517.8 C588.8,518.1 589,518.7 588.1,518.9 Z M453.3,560.1 C454.9,560.6 455.1,561.3 453.8,561.7 C452.5,562.1 450.2,562.1 448.6,561.6 C447,561.1 446.8,560.4 448.1,560 C449.4,559.5 451.7,559.6 453.3,560.1 Z M463.4,563.1 C465,563.6 465.2,564.3 463.9,564.7 C462.6,565.1 460.3,565.1 458.7,564.6 C457.1,564.1 456.9,563.4 458.2,563 C459.5,562.6 461.8,562.6 463.4,563.1 Z" id="Shape" fill="#726AC9"></path>
            <polygon id="Shape" fill="#17142D" opacity="0.5" points="328.7 338.7 171 388 465.7 480.8 623.4 431.6"></polygon>
            <polygon id="Shape" fill="url(#linearGradient-4)" points="328.6 164.5 0 267.7 459.7 431.3 788.2 309"></polygon>
            <polygon id="Shape" fill="url(#linearGradient-5)" points="459.7 431.3 788.2 328.1 788.2 309 459.7 412.2"></polygon>
            <polygon id="Shape" fill="#D7D7F4" points="459.7 431.3 0 286.7 0 267.7 459.7 412.2"></polygon>
            <path d="M447.6,268.1 L413.3,278.3 C412.2,278.6 410.1,278.5 408.6,278 C407.1,277.5 406.8,276.9 407.9,276.5 L442.2,266.3 C443.3,266 445.4,266.1 446.9,266.6 C448.4,267.2 448.7,267.8 447.6,268.1 Z M441.4,276.1 L423.3,281.5 C422.2,281.8 420.1,281.7 418.6,281.2 C417.1,280.7 416.8,280.1 417.9,279.7 L436,274.3 C437.1,274 439.2,274.1 440.7,274.6 C442.2,275.2 442.5,275.8 441.4,276.1 Z" id="Shape" fill="#908FAB" opacity="0.3"></path>
            <path d="M383.9,258.5 L390,260.4 C407.1,255.3 440.2,257.2 463.8,264.7 L468.2,263.4 C441.2,254.9 403.5,252.7 383.9,258.5 Z" id="Shape" fill="#908FAB"></path>
            <path d="M463.8,264.7 C487.4,272.2 492.6,282.3 475.5,287.4 C459.1,292.3 428,290.7 404.7,284 C403,283.5 400.8,283.4 399.6,283.7 C398.3,284.1 398.8,284.9 400.6,285.4 C427.3,293.1 462.8,294.9 481.6,289.3 C501.2,283.5 495.2,271.9 468.2,263.3 L463.8,264.7 L463.8,264.7 Z" id="Shape" fill="#908FAB" opacity="0.3"></path>
            <path d="M472.8,346.6 L438.5,356.8 C437.4,357.1 435.3,357 433.8,356.5 C432.3,356 432,355.4 433.1,355 L467.4,344.8 C468.5,344.5 470.6,344.6 472.1,345.1 C473.5,345.7 473.9,346.3 472.8,346.6 Z M466.5,354.6 L448.4,360 C447.3,360.3 445.2,360.2 443.7,359.7 C442.2,359.2 441.9,358.6 443,358.2 L461.1,352.8 C462.2,352.5 464.3,352.6 465.8,353.1 C467.3,353.6 467.6,354.3 466.5,354.6 Z" id="Shape" fill="#908FAB" opacity="0.3"></path>
            <path d="M409,337 L415.1,338.9 C432.2,333.8 465.3,335.7 488.9,343.2 L493.3,341.9 C466.4,333.4 428.6,331.2 409,337 Z" id="Shape" fill="#908FAB"></path>
            <path d="M488.9,343.2 C512.5,350.7 517.7,360.8 500.6,365.9 C484.2,370.8 453.1,369.2 429.8,362.5 C428.1,362 425.9,361.9 424.7,362.2 C423.4,362.6 423.9,363.4 425.7,363.9 C452.4,371.6 487.9,373.4 506.7,367.8 C526.3,362 520.3,350.4 493.3,341.8 L488.9,343.2 L488.9,343.2 Z" id="Shape" fill="#908FAB" opacity="0.3"></path>
            <path d="M313.3,225.7 L279,235.9 C277.9,236.2 275.8,236.1 274.3,235.6 C272.8,235.1 272.5,234.5 273.6,234.1 L307.9,223.9 C309,223.6 311.1,223.7 312.6,224.2 C314.1,224.7 314.4,225.4 313.3,225.7 L313.3,225.7 Z M307.1,233.7 L289,239.1 C287.9,239.4 285.8,239.3 284.3,238.8 C282.8,238.3 282.5,237.7 283.6,237.3 L301.7,231.9 C302.8,231.6 304.9,231.7 306.4,232.2 C307.9,232.7 308.2,233.4 307.1,233.7 Z" id="Shape" fill="#908FAB" opacity="0.3"></path>
            <path d="M267.4,240.8 C256.6,237.4 249.7,233.4 247,229.6 C246.6,229 244.7,228.4 242.7,228.3 C240.5,228.2 239.1,228.6 239.6,229.3 C242.7,233.6 250.7,238.2 263,242.1 C290,250.6 327.7,252.8 347.3,247 L341.2,245.1 C324,250.1 291,248.2 267.4,240.8 L267.4,240.8 Z" id="Shape" fill="#908FAB" opacity="0.3"></path>
            <path d="M249.6,216.1 L255.7,218 C272.8,212.9 305.9,214.8 329.5,222.3 C341.3,226 348.5,230.4 350.6,234.5 C352.7,238.6 349.7,242.4 341.2,245 L347.3,246.9 C357.1,244 360.5,239.6 358.1,234.9 C355.7,230.2 347.4,225.2 334,220.9 C306.9,212.5 269.2,210.3 249.6,216.1 L249.6,216.1 Z" id="Shape" fill="#908FAB"></path>
            <path d="M582.8,310.9 L548.5,321 C547.4,321.3 545.3,321.2 543.8,320.7 C542.3,320.2 542,319.6 543.1,319.2 L577.4,309 C578.5,308.7 580.6,308.8 582.1,309.3 C583.5,309.9 583.9,310.5 582.8,310.9 L582.8,310.9 Z M576.6,318.8 L558.5,324.2 C557.4,324.5 555.3,324.4 553.8,323.9 C552.3,323.4 552,322.8 553.1,322.4 L571.2,317 C572.3,316.7 574.4,316.8 575.9,317.3 C577.3,317.9 577.7,318.5 576.6,318.8 Z" id="Shape" fill="#908FAB" opacity="0.3"></path>
            <path d="M536.9,325.9 C526.1,322.5 519.2,318.5 516.5,314.7 C516.1,314.1 514.2,313.5 512.2,313.4 C510,313.3 508.6,313.7 509.1,314.4 C512.2,318.7 520.2,323.3 532.5,327.2 C559.5,335.7 597.2,337.9 616.8,332.1 L610.7,330.2 C593.5,335.3 560.4,333.3 536.9,325.9 Z" id="Shape" fill="#908FAB" opacity="0.3"></path>
            <path d="M519.1,301.2 L525.2,303.1 C542.3,298 575.4,299.9 599,307.4 C610.8,311.1 618,315.5 620.1,319.6 C622.2,323.7 619.2,327.5 610.7,330.1 L616.8,332 C626.6,329.1 630,324.7 627.6,320 C625.2,315.3 616.9,310.3 603.5,306 C576.4,297.6 538.7,295.4 519.1,301.2 L519.1,301.2 Z" id="Shape" fill="#908FAB"></path>
            <path d="M338,303.9 L303.7,314.1 C302.6,314.4 300.5,314.3 299,313.8 C297.5,313.3 297.2,312.7 298.3,312.3 L332.6,302.1 C333.7,301.8 335.8,301.9 337.3,302.4 C338.7,302.9 339.1,303.6 338,303.9 Z M331.8,311.9 L313.7,317.3 C312.6,317.6 310.5,317.5 309,317 C307.5,316.5 307.2,315.9 308.3,315.5 L326.4,310.1 C327.5,309.8 329.6,309.9 331.1,310.4 C332.5,310.9 332.9,311.5 331.8,311.9 Z" id="Shape" fill="#908FAB" opacity="0.3"></path>
            <path d="M354.1,300.5 C365.9,304.2 373.1,308.6 375.2,312.7 L382.7,313.1 C380.3,308.4 372,303.4 358.6,299.1 C331.6,290.6 293.9,288.4 274.3,294.2 L280.4,296.1 C297.5,291.1 330.5,293 354.1,300.5 L354.1,300.5 Z" id="Shape" fill="#908FAB"></path>
            <path d="M375.2,312.7 C377.1,316.5 374.8,320 367.8,322.5 C366.7,322.9 367.1,323.6 368.8,324.1 C370.6,324.7 373,324.8 374.2,324.4 C382.3,321.5 385,317.5 382.7,313.2 L375.2,312.7 L375.2,312.7 Z" id="Shape" fill="#908FAB" opacity="0.3"></path>
            <path d="M178.9,259.2 L173.7,260.2 C172.4,259.9 171.1,259.7 169.8,259.5 L167.6,257.2 C167.2,256.8 166,256.4 164.7,256.4 L160.4,256.1 C159.1,256 158.2,256.2 158.2,256.6 L158.3,258.8 C157.1,258.8 155.9,258.9 154.8,259.1 L148.2,257.4 C147.1,257.1 145.6,257.1 144.9,257.3 L142.3,258.1 C141.5,258.3 141.7,258.8 142.6,259.1 L147.9,261.2 C147.4,261.5 147.1,261.9 147,262.2 L139.9,262.1 C138.7,262.1 137.9,262.4 138.1,262.8 L138.8,264.1 C139,264.5 140.1,264.9 141.4,265 L148.8,265.8 C149.4,266.2 150.1,266.6 150.9,267 L147.4,268.6 C146.8,268.9 147.1,269.3 148.2,269.6 L151.8,270.7 C152.8,271 154.3,271.1 155.2,271 L160.4,270 C161.7,270.3 163,270.5 164.3,270.7 L166.5,273 C166.9,273.4 168.1,273.8 169.4,273.8 L173.7,274.1 C175,274.2 175.9,274 175.9,273.6 L175.8,271.4 C177,271.4 178.2,271.3 179.3,271.1 L185.9,272.8 C187,273.1 188.5,273.1 189.2,272.9 L191.8,272.1 C192.6,271.9 192.4,271.4 191.5,271.1 L186.2,269 C186.7,268.7 187,268.3 187.1,268 L194.2,268.1 C195.4,268.1 196.2,267.8 196,267.4 L195.3,266.1 C195.1,265.7 194,265.3 192.7,265.2 L185.3,264.4 C184.7,264 184,263.6 183.2,263.2 L186.7,261.6 C187.3,261.3 187,260.9 185.9,260.6 L182.3,259.5 C181.2,259.1 179.8,259 178.9,259.2 Z M176.5,268.1 C172.7,269.2 165.3,268.8 160.1,267.1 C154.8,265.4 153.7,263.2 157.5,262 C161.3,260.9 168.7,261.3 173.9,263 C179.1,264.7 180.3,266.9 176.5,268.1 Z" id="Shape" fill="#908FAB"></path>
            <path d="M241.8,264.8 L235,265 C234,264.6 232.9,264.3 231.7,264 L232.3,261.9 C232.4,261.5 231.5,261.1 230.3,260.9 L226,260.2 C224.7,260 223.5,260.1 223,260.4 L220.3,262.1 C219,262 217.6,261.9 216.3,261.9 L211.5,259.8 C210.7,259.4 209.2,259.2 208.1,259.3 L204.4,259.6 C203.3,259.7 202.9,260 203.4,260.4 L206.4,262.7 C205.5,262.9 204.7,263.2 204.1,263.4 L196.7,262.5 C195.4,262.3 194.2,262.5 194,262.8 L193,264 C192.7,264.3 193.4,264.8 194.6,265 L201.5,266.5 C201.6,266.9 201.8,267.3 202.2,267.7 L196.6,268.5 C195.6,268.6 195.4,269 196.1,269.4 L198.5,270.7 C199.2,271.1 200.6,271.4 201.7,271.3 L208.5,271.1 C209.5,271.5 210.6,271.8 211.8,272.1 L211.2,274.2 C211.1,274.6 212,275 213.2,275.2 L217.5,275.9 C218.8,276.1 220,276 220.5,275.7 L223.2,274 C224.5,274.1 225.9,274.2 227.2,274.2 L232,276.3 C232.8,276.7 234.3,276.9 235.4,276.8 L239.1,276.5 C240.2,276.4 240.6,276.1 240.1,275.7 L237.1,273.4 C238,273.2 238.8,272.9 239.4,272.7 L246.8,273.6 C248.1,273.8 249.3,273.6 249.5,273.3 L250.5,272.1 C250.8,271.8 250.1,271.3 248.9,271.1 L242,269.6 C241.9,269.2 241.7,268.8 241.3,268.4 L246.9,267.6 C247.9,267.5 248.1,267.1 247.4,266.7 L245,265.4 C244.4,265 243,264.7 241.8,264.8 Z M228.1,271.6 C222.6,272 215.3,270.8 211.9,268.9 C208.4,266.9 210,265 215.5,264.5 C221,264.1 228.3,265.3 231.7,267.2 C235.2,269.2 233.6,271.1 228.1,271.6 Z" id="Shape" fill="#908FAB"></path>
            <polygon id="Shape" fill="#4744A5" opacity="0.2" points="328.7 166.5 171 215.7 465.7 308.6 623.4 259.3"></polygon>
            <polygon id="Shape" fill="url(#linearGradient-6)" points="328.6 0 0 103.1 459.7 266.9 788.2 144.5"></polygon>
            <polygon id="Shape" fill="url(#linearGradient-7)" points="459.7 266.7 788.2 163.6 788.2 144.5 459.7 247.7"></polygon>
            <polygon id="Shape" fill="url(#linearGradient-8)" points="459.7 266.7 0 122.2 0 103.1 459.7 247.7"></polygon>
            <g id="Group" transform="translate(108.000000, 35.000000)">
                <path d="M331.7,142.3 L274.1,159.9 C271.5,160.7 267.9,160.9 266.1,160.4 L256.6,157.6 C254.8,157.1 255.4,156 258,155.2 L315.6,137.6 C318.2,136.8 321.8,136.6 323.6,137.1 L333.1,139.9 C334.9,140.4 334.3,141.5 331.7,142.3 Z" id="Shape" fill="url(#linearGradient-9)"></path>
                <path d="M443,108.2 L366.3,131.7 C363.7,132.5 360.1,132.7 358.3,132.2 L348.8,129.4 C347,128.9 347.6,127.8 350.2,127 L426.9,103.5 C429.5,102.7 433.1,102.5 434.9,103 L444.4,105.8 C446.2,106.3 445.6,107.4 443,108.2 Z" id="Shape" fill="url(#linearGradient-10)"></path>
                <path d="M522.3,83.9 L473.7,98.8 C471.1,99.6 467.5,99.8 465.7,99.3 L456.2,96.5 C454.4,96 455,94.9 457.6,94.1 L506.2,79.2 C508.8,78.4 512.4,78.2 514.2,78.7 L523.7,81.5 C525.6,82 525,83.1 522.3,83.9 L522.3,83.9 Z" id="Shape" fill="url(#linearGradient-11)"></path>
                <path d="M347.1,154.6 L302.3,168.3 C299.7,169.1 296.1,169.3 294.3,168.8 L284.8,166 C283,165.5 283.6,164.4 286.2,163.6 L331,149.9 C333.6,149.1 337.2,148.9 339,149.4 L348.5,152.2 C350.4,152.7 349.7,153.8 347.1,154.6 Z" id="Shape" fill="url(#linearGradient-12)"></path>
                <path d="M412.3,134.6 L377,145.4 C374.4,146.2 370.8,146.4 369,145.9 L359.5,143.1 C357.7,142.6 358.3,141.5 360.9,140.7 L396.2,129.9 C398.8,129.1 402.4,128.9 404.2,129.4 L413.7,132.2 C415.5,132.7 414.9,133.8 412.3,134.6 L412.3,134.6 Z" id="Shape" fill="url(#linearGradient-13)"></path>
                <path d="M501.3,107.4 L442,125.5 C439.4,126.3 435.8,126.5 434,126 L424.5,123.2 C422.7,122.7 423.3,121.6 425.9,120.8 L485.1,102.7 C487.7,101.9 491.3,101.7 493.1,102.2 L502.6,105 C504.6,105.5 503.9,106.6 501.3,107.4 L501.3,107.4 Z" id="Shape" fill="url(#linearGradient-14)"></path>
                <path d="M423.1,148.3 L330.6,176.6 C328,177.4 324.4,177.6 322.6,177.1 L313.1,174.3 C311.3,173.8 311.9,172.7 314.5,171.9 L407,143.6 C409.6,142.8 413.2,142.6 415,143.1 L424.5,145.9 C426.4,146.5 425.7,147.5 423.1,148.3 Z" id="Shape" fill="url(#linearGradient-15)"></path>
                <path d="M549,109.8 L454.8,138.6 C452.2,139.4 448.6,139.6 446.8,139.1 L437.3,136.3 C435.5,135.8 436.1,134.7 438.7,133.9 L532.9,105.1 C535.5,104.3 539.1,104.1 540.9,104.6 L550.4,107.4 C552.2,107.9 551.6,109 549,109.8 Z" id="Shape" fill="url(#linearGradient-16)"></path>
                <path d="M82.8,93.2 L92.7,93.7 C93.4,93.7 94.2,93.6 94.9,93.5 L105,91 C106.7,90.6 108.7,90.8 108.4,91.4 L106.2,94.8 C106.1,95 106.3,95.2 106.8,95.3 L114.7,96.7 C116.1,96.9 115.2,97.7 113.3,98 L102.1,99.6 C101.3,99.7 100.7,99.9 100.3,100.2 L95.1,103.6 C94.2,104.2 91.7,104.4 90.9,104 L86.1,101.6 C85.8,101.4 85.1,101.4 84.4,101.4 L73.2,102.1 C71.3,102.2 70.6,101.6 72,101.1 L80.3,98 C80.9,97.8 81.1,97.5 81,97.3 L79.3,94.3 C79.1,93.7 81.1,93.1 82.8,93.2 L82.8,93.2 Z" id="Shape" fill="url(#linearGradient-17)"></path>
                <path d="M135.9,76.9 L145.8,77.4 C146.5,77.4 147.3,77.3 148,77.2 L158.1,74.7 C159.8,74.3 161.8,74.5 161.5,75.1 L159.3,78.5 C159.2,78.7 159.4,78.9 159.9,79 L167.8,80.4 C169.2,80.6 168.3,81.4 166.4,81.7 L155.2,83.3 C154.4,83.4 153.8,83.6 153.4,83.9 L148.2,87.3 C147.3,87.9 144.8,88.1 144,87.7 L139.2,85.3 C138.9,85.1 138.2,85.1 137.5,85.1 L126.3,85.8 C124.4,85.9 123.7,85.3 125.1,84.8 L133.4,81.7 C134,81.5 134.2,81.2 134.1,81 L132.4,78 C132.1,77.5 134.2,76.9 135.9,76.9 L135.9,76.9 Z" id="Shape" fill="url(#linearGradient-18)"></path>
                <path d="M188.9,60.7 L198.8,61.2 C199.5,61.2 200.3,61.1 201,61 L211.1,58.5 C212.8,58.1 214.8,58.3 214.5,58.9 L212.3,62.3 C212.2,62.5 212.4,62.7 212.9,62.8 L220.8,64.2 C222.2,64.4 221.3,65.2 219.4,65.5 L208.2,67.1 C207.4,67.2 206.8,67.4 206.4,67.7 L201.2,71.1 C200.3,71.7 197.8,71.9 197,71.5 L192.2,69.1 C191.9,68.9 191.2,68.9 190.5,68.9 L179.3,69.6 C177.4,69.7 176.7,69.1 178.1,68.6 L186.4,65.5 C187,65.3 187.2,65 187.1,64.8 L185.4,61.8 C185.1,61.3 187.2,60.6 188.9,60.7 L188.9,60.7 Z" id="Shape" fill="url(#linearGradient-19)"></path>
                <path d="M241.9,44.5 L251.8,45 C252.5,45 253.3,44.9 254,44.8 L264.1,42.3 C265.8,41.9 267.8,42.1 267.5,42.7 L265.3,46.1 C265.2,46.3 265.4,46.5 265.9,46.6 L273.8,48 C275.2,48.2 274.3,49 272.4,49.3 L261.2,50.9 C260.4,51 259.8,51.2 259.4,51.5 L254.2,54.9 C253.3,55.5 250.8,55.7 250,55.3 L245.2,52.9 C244.9,52.7 244.2,52.7 243.5,52.7 L232.3,53.4 C230.4,53.5 229.7,52.9 231.1,52.4 L239.4,49.3 C240,49.1 240.2,48.8 240.1,48.6 L238.4,45.6 C238.2,45 240.2,44.4 241.9,44.5 L241.9,44.5 Z" id="Shape" fill="url(#linearGradient-20)" opacity="0.3"></path>
                <path d="M294.9,28.3 L304.8,28.8 C305.5,28.8 306.3,28.7 307,28.6 L317.1,26.1 C318.8,25.7 320.8,25.9 320.5,26.5 L318.3,29.9 C318.2,30.1 318.4,30.3 318.9,30.4 L326.8,31.8 C328.2,32 327.3,32.8 325.4,33.1 L314.2,34.7 C313.4,34.8 312.8,35 312.4,35.3 L307.2,38.7 C306.3,39.3 303.8,39.5 303,39.1 L298.2,36.7 C297.9,36.5 297.2,36.5 296.5,36.5 L285.3,37.2 C283.4,37.3 282.7,36.7 284.1,36.2 L292.4,33.1 C293,32.9 293.2,32.6 293.1,32.4 L291.4,29.4 C291.2,28.8 293.2,28.2 294.9,28.3 L294.9,28.3 Z" id="Shape" fill="url(#linearGradient-21)" opacity="0.3"></path>
                <path d="M197.4,125.8 L181.9,130.5 C178.2,131.6 173.2,131.9 170.6,131.2 L159.9,128 C157.4,127.2 158.3,125.7 161.9,124.6 L177.4,119.9 C181.1,118.8 186.1,118.5 188.7,119.2 L199.4,122.4 C202,123.1 201.1,124.7 197.4,125.8 Z" id="Shape" fill="url(#linearGradient-22)"></path>
                <path d="M318.6,84.5 L211.9,117.2 C209.5,117.9 206.1,118.1 204.5,117.6 C202.8,117.1 203.4,116.1 205.8,115.4 L312.5,82.7 C314.9,82 318.3,81.8 319.9,82.3 C321.6,82.8 321,83.8 318.6,84.5 Z" id="Shape" fill="url(#linearGradient-23)" opacity="0.3"></path>
                <path d="M230.9,135.7 L215.4,140.4 C211.7,141.5 206.7,141.8 204.1,141.1 L193.4,137.9 C190.9,137.1 191.8,135.6 195.4,134.5 L210.9,129.8 C214.6,128.7 219.6,128.4 222.2,129.1 L232.9,132.3 C235.5,133.1 234.6,134.6 230.9,135.7 Z" id="Shape" fill="url(#linearGradient-24)"></path>
                <path d="M380,85.9 L245.4,127.1 C243,127.8 239.6,128 238,127.5 C236.3,127 236.9,126 239.3,125.3 L373.9,84.1 C376.3,83.4 379.7,83.2 381.3,83.7 C383,84.2 382.4,85.2 380,85.9 L380,85.9 Z" id="Shape" fill="url(#linearGradient-25)" opacity="0.3"></path>
                <g transform="translate(124.000000, 57.000000)" id="Shape">
                    <path d="M209.3,2.8 L54.4,50.2 C52,50.9 48.6,51.1 47,50.6 C45.3,50.1 45.9,49.1 48.3,48.4 L203.2,1 C205.6,0.3 209,0.1 210.6,0.6 C212.3,1.1 211.7,2.1 209.3,2.8 L209.3,2.8 Z" fill="url(#linearGradient-26)" opacity="0.3"></path>
                    <path d="M19.9,52.9 L4.4,57.6 C0.7,58.7 -0.2,60.2 2.4,61 L13.1,64.2 C15.6,65 20.7,64.7 24.4,63.5 L39.9,58.8 C43.6,57.7 44.5,56.2 41.9,55.4 L31.2,52.2 C28.6,51.5 23.6,51.8 19.9,52.9 L19.9,52.9 Z M28.5,54.5 L24.9,60.5 L13,61.2 C11.8,61.3 11,61 11.2,60.7 C11.4,60.3 12.6,60 13.7,59.9 L21.3,59.5 L24.1,54.8 C24.3,54.4 25.5,54.1 26.6,54 C28,53.9 28.7,54.1 28.5,54.5 L28.5,54.5 Z" fill="url(#linearGradient-27)"></path>
                </g>
                <path d="M261.9,15.6 L51.1,80.1 C36.6,84.5 16.5,85.7 6.5,82.7 C-3.6,79.7 0.1,73.7 14.5,69.2 L225.3,4.7 C239.8,0.3 259.9,-0.9 269.9,2.1 C280,5.1 276.4,11.2 261.9,15.6 Z" id="Shape" fill="url(#linearGradient-28)"></path>
                <g transform="translate(20.000000, 69.000000)" id="Shape" fill="#FFFFFF">
                    <path d="M22.6,7.1 C19.7,8 16,8.7 12.2,8.9 C4.7,9.3 -0.4,7.9 1,5.6 C2.4,3.3 9.6,1.1 17.1,0.7 C24.6,0.3 29.7,1.7 28.3,4 C27.7,5.1 25.5,6.2 22.6,7.1 L22.6,7.1 Z M9.8,3.3 C8,3.9 6.7,4.6 6.2,5.3 C5.4,6.7 8.5,7.6 13.2,7.4 C17.9,7.1 22.4,5.7 23.2,4.3 C24,2.9 20.9,2 16.2,2.2 C13.9,2.4 11.6,2.8 9.8,3.3 Z"></path>
                    <path d="M37.1,4 C36.5,4.2 35.8,4.3 35.1,4.3 L26.3,4.8 C24.9,4.9 23.9,4.6 24.2,4.2 C24.5,3.8 25.8,3.3 27.3,3.3 L36.1,2.8 C37.5,2.7 38.5,3 38.2,3.4 C38,3.6 37.6,3.8 37.1,4 L37.1,4 Z"></path>
                </g>
            </g>
            <path d="M823.8,144.6 C825.1,145.3 826.2,146.3 826.9,147.6 C827.7,148.9 828,150.3 828,151.8 C828,153.3 827.6,154.8 826.9,156 C826.1,157.3 825.1,158.3 823.8,159 C822.5,159.7 821,160.1 819.4,160.1 C817.8,160.1 816.3,159.7 815,159 C813.7,158.3 812.6,157.2 811.9,156 C811.1,154.7 810.8,153.3 810.8,151.8 C810.8,150.3 811.2,148.8 811.9,147.6 C812.7,146.3 813.7,145.3 815,144.6 C816.3,143.9 817.8,143.5 819.4,143.5 C821,143.5 822.5,143.8 823.8,144.6 Z M816.7,147 C815.8,147.5 815.2,148.2 814.7,149 C814.2,149.8 814,150.8 814,151.8 C814,152.8 814.3,153.8 814.8,154.6 C815.3,155.5 816,156.1 816.8,156.6 C817.6,157.1 818.6,157.3 819.6,157.3 C820.6,157.3 821.5,157.1 822.3,156.6 C823.1,156.1 823.8,155.4 824.3,154.6 C824.8,153.7 825,152.8 825,151.8 C825,150.8 824.8,149.8 824.3,149 C823.8,148.2 823.2,147.5 822.3,147 C821.5,146.5 820.6,146.3 819.6,146.3 C818.5,146.3 817.5,146.5 816.7,147 L816.7,147 Z M842.2,147.5 L842.2,159.9 L839.2,159.9 L839.2,157.6 C838.4,159.2 836.9,160 834.9,160 C833.5,160 832.4,159.6 831.6,158.7 C830.8,157.8 830.4,156.7 830.4,155.2 L830.4,147.4 L833.4,147.4 L833.4,154.3 C833.4,155.2 833.6,155.8 834.1,156.3 C834.6,156.8 835.2,157 836.1,157 C837.1,157 837.8,156.6 838.4,156 C839,155.3 839.2,154.5 839.2,153.5 L839.2,147.4 L842.2,147.4 L842.2,147.5 Z M853.2,159.2 C852.2,159.8 851.2,160.1 850.1,160.1 C849,160.1 848.2,159.8 847.5,159.2 C846.8,158.6 846.5,157.6 846.5,156.4 L846.5,150.3 L844.8,150.3 L844.8,148.1 L846.6,148.1 L846.6,144.7 L849.6,144.7 L849.6,148.1 L853.2,148.1 L853.2,150.3 L849.6,150.3 L849.6,155.9 C849.6,156.5 849.7,156.9 849.9,157.1 C850.1,157.3 850.4,157.5 850.9,157.5 C851.4,157.5 852,157.3 852.7,157 L853.2,159.2 L853.2,159.2 Z M870.1,148.2 C871.1,148.7 871.8,149.5 872.4,150.4 C872.9,151.4 873.2,152.4 873.2,153.7 C873.2,155 872.9,156.1 872.4,157 C871.9,158 871.1,158.7 870.1,159.2 C869.1,159.7 868,160 866.7,160 C865.4,160 864.3,159.7 863.3,159.2 C862.3,158.7 861.5,157.9 861,157 C860.4,156 860.2,154.9 860.2,153.7 C860.2,152.5 860.5,151.4 861,150.4 C861.5,149.4 862.3,148.7 863.3,148.2 C864.3,147.7 865.4,147.4 866.7,147.4 C868,147.4 869.1,147.7 870.1,148.2 Z M864.1,151 C863.4,151.7 863.1,152.6 863.1,153.7 C863.1,154.8 863.4,155.7 864.1,156.4 C864.8,157.1 865.6,157.4 866.7,157.4 C867.7,157.4 868.6,157.1 869.2,156.4 C869.8,155.7 870.2,154.8 870.2,153.7 C870.2,152.6 869.9,151.7 869.2,151 C868.5,150.3 867.7,150 866.7,150 C865.6,150 864.8,150.3 864.1,151 Z M879.7,145.6 C879.4,145.9 879.2,146.3 879.2,146.8 L879.2,148.1 L882.3,148.1 L882.3,150.3 L879.2,150.3 L879.2,160 L876.2,160 L876.2,150.3 L874.6,150.3 L874.6,148 L876.2,148 L876.2,146.8 C876.2,145.9 876.4,145.1 876.8,144.5 C877.2,143.9 877.7,143.4 878.4,143 C879.1,142.7 879.8,142.5 880.6,142.5 C881.4,142.5 882.1,142.7 882.9,143 L882.4,145.4 C881.8,145.2 881.3,145 880.9,145 C880.4,145.2 880,145.3 879.7,145.6 Z M897.1,159.2 C896.1,159.8 895.1,160.1 894,160.1 C892.9,160.1 892.1,159.8 891.4,159.2 C890.7,158.6 890.4,157.6 890.4,156.4 L890.4,150.3 L888.7,150.3 L888.7,148.1 L890.5,148.1 L890.5,144.7 L893.5,144.7 L893.5,148.1 L897.1,148.1 L897.1,150.3 L893.5,150.3 L893.5,155.9 C893.5,156.5 893.6,156.9 893.8,157.1 C894,157.3 894.3,157.5 894.8,157.5 C895.3,157.5 895.9,157.3 896.6,157 L897.1,159.2 L897.1,159.2 Z M910.5,148.7 C911.3,149.6 911.7,150.7 911.7,152.2 L911.7,160 L908.7,160 L908.7,153.1 C908.7,152.2 908.5,151.5 908,151 C907.5,150.5 906.8,150.2 906,150.2 C905,150.2 904.2,150.6 903.6,151.2 C903,151.9 902.7,152.7 902.7,153.8 L902.7,159.9 L899.7,159.9 L899.7,142.7 L902.7,142.7 L902.7,149.9 C903.6,148.3 905,147.4 907.2,147.4 C908.5,147.4 909.7,147.8 910.5,148.7 Z M924.8,149.1 C925.8,150.2 926.3,151.8 926.3,153.9 L926.3,154.8 L917.1,154.8 C917.3,155.7 917.7,156.4 918.3,156.9 C918.9,157.4 919.7,157.7 920.6,157.7 C921.2,157.7 921.8,157.6 922.4,157.3 C923,157.1 923.5,156.7 923.9,156.3 L925.5,158 C924.9,158.7 924.1,159.2 923.2,159.6 C922.3,160 921.3,160.2 920.2,160.2 C918.9,160.2 917.8,159.9 916.8,159.4 C915.8,158.9 915.1,158.1 914.6,157.2 C914.1,156.3 913.8,155.2 913.8,153.9 C913.8,152.7 914.1,151.6 914.6,150.6 C915.1,149.6 915.9,148.9 916.8,148.4 C917.8,147.9 918.9,147.6 920.1,147.6 C922.3,147.4 923.8,148 924.8,149.1 L924.8,149.1 Z M923.5,152.8 C923.5,151.9 923.2,151.2 922.6,150.6 C922,150 921.3,149.8 920.3,149.8 C919.4,149.8 918.7,150.1 918.1,150.6 C917.5,151.1 917.1,151.9 917,152.8 L923.5,152.8 Z M944.9,148.2 C945.8,148.7 946.5,149.5 947,150.4 C947.5,151.4 947.7,152.5 947.7,153.7 C947.7,154.9 947.5,156 947,157 C946.5,157.9 945.8,158.7 945,159.2 C944.1,159.7 943.1,160 941.9,160 C941,160 940.2,159.8 939.4,159.5 C938.7,159.1 938.1,158.6 937.6,157.9 L937.6,159.9 L934.6,159.9 L934.6,142.7 L937.6,142.7 L937.6,149.6 C938,148.9 938.6,148.4 939.3,148 C940,147.6 940.8,147.5 941.8,147.5 C943,147.4 944.1,147.7 944.9,148.2 L944.9,148.2 Z M943.7,156.4 C944.4,155.7 944.7,154.8 944.7,153.7 C944.7,152.6 944.4,151.7 943.7,151 C943,150.3 942.2,150 941.2,150 C940.2,150 939.3,150.3 938.7,151 C938,151.7 937.7,152.6 937.7,153.7 C937.7,154.8 938,155.7 938.7,156.4 C939.4,157.1 940.2,157.4 941.2,157.4 C942.2,157.5 943,157.1 943.7,156.4 Z M959.2,148.2 C960.2,148.7 961,149.5 961.5,150.4 C962,151.4 962.3,152.4 962.3,153.7 C962.3,155 962,156.1 961.5,157 C961,158 960.2,158.7 959.2,159.2 C958.2,159.7 957.1,160 955.8,160 C954.5,160 953.4,159.7 952.4,159.2 C951.4,158.7 950.6,157.9 950.1,157 C949.6,156 949.3,154.9 949.3,153.7 C949.3,152.5 949.6,151.4 950.1,150.4 C950.7,149.4 951.4,148.7 952.4,148.2 C953.4,147.7 954.5,147.4 955.8,147.4 C957.1,147.4 958.2,147.7 959.2,148.2 Z M953.2,151 C952.5,151.7 952.2,152.6 952.2,153.7 C952.2,154.8 952.5,155.7 953.2,156.4 C953.9,157.1 954.7,157.4 955.8,157.4 C956.8,157.4 957.7,157.1 958.3,156.4 C958.9,155.7 959.3,154.8 959.3,153.7 C959.3,152.6 959,151.7 958.3,151 C957.6,150.3 956.8,150 955.8,150 C954.7,150 953.9,150.3 953.2,151 Z M962.9,147.5 L966.4,147.5 L969,151.5 L971.6,147.5 L974.9,147.5 L971,153.6 L975.2,160 L971.7,160 L968.9,155.7 L965.9,160 L962.5,160 L966.8,153.6 L962.9,147.5 L962.9,147.5 Z" id="Shape" fill="#FCB43A"></path>
            <path d="M820.5,312 C819.7,311.6 818.9,311.4 818.1,311.4 C817.1,311.4 816.2,311.6 815.3,312.1 C814.5,312.6 813.8,313.2 813.3,314.1 C812.8,314.9 812.6,315.9 812.6,316.9 C812.6,317.9 812.8,318.8 813.3,319.7 C813.8,320.5 814.4,321.2 815.3,321.7 C816.1,322.2 817.1,322.4 818.1,322.4 C818.9,322.4 819.7,322.2 820.4,321.9 C821.2,321.6 821.9,321.1 822.5,320.5 L824.3,322.5 C823.4,323.4 822.5,324.1 821.3,324.6 C820.2,325.1 819,325.4 817.9,325.4 C816.3,325.4 814.9,325 813.6,324.3 C812.3,323.6 811.3,322.5 810.5,321.3 C809.8,320 809.4,318.6 809.4,317.1 C809.4,315.6 809.8,314.1 810.5,312.9 C811.3,311.6 812.3,310.6 813.6,309.9 C814.9,309.2 816.4,308.8 818,308.8 C819.2,308.8 820.3,309 821.4,309.5 C822.5,310 823.5,310.6 824.3,311.4 L822.5,313.7 C821.9,312.9 821.2,312.4 820.5,312 Z M838.2,312.7 L838.2,325.1 L835.2,325.1 L835.2,322.8 C834.4,324.4 832.9,325.2 830.9,325.2 C829.5,325.2 828.4,324.8 827.6,323.9 C826.8,323 826.4,321.9 826.4,320.4 L826.4,312.6 L829.4,312.6 L829.4,319.5 C829.4,320.4 829.6,321 830.1,321.5 C830.6,322 831.2,322.2 832.1,322.2 C833.1,322.2 833.8,321.8 834.4,321.2 C835,320.5 835.2,319.7 835.2,318.7 L835.2,312.6 L838.2,312.6 L838.2,312.7 Z M847.5,315.2 C846.9,315 846.3,314.9 845.7,314.9 C845.2,314.9 844.8,315 844.5,315.2 C844.2,315.4 844,315.7 844,316 C844,316.4 844.2,316.7 844.6,316.9 C845,317.1 845.6,317.3 846.4,317.6 C847.3,317.9 848,318.1 848.5,318.4 C849.1,318.7 849.5,319 850,319.5 C850.4,320 850.6,320.7 850.6,321.5 C850.6,322.7 850.1,323.6 849.2,324.3 C848.3,325 847.1,325.3 845.7,325.3 C844.7,325.3 843.8,325.2 842.9,324.8 C842,324.5 841.2,324.1 840.6,323.5 L841.6,321.4 C842.2,321.9 842.8,322.3 843.6,322.5 C844.4,322.8 845.1,322.9 845.8,322.9 C846.4,322.9 846.8,322.8 847.1,322.6 C847.4,322.4 847.6,322.1 847.6,321.7 C847.6,321.3 847.4,320.9 847,320.7 C846.6,320.5 846,320.2 845.1,320 C844.3,319.8 843.6,319.5 843.1,319.3 C842.6,319.1 842.1,318.7 841.7,318.2 C841.3,317.7 841.1,317.1 841.1,316.3 C841.1,315.1 841.5,314.1 842.4,313.5 C843.3,312.9 844.4,312.5 845.8,312.5 C846.6,312.5 847.4,312.6 848.2,312.8 C849,313 849.7,313.4 850.3,313.8 L849.2,316 C848.8,315.7 848.1,315.4 847.5,315.2 Z M860.5,324.3 C859.5,324.9 858.5,325.2 857.4,325.2 C856.3,325.2 855.5,324.9 854.8,324.3 C854.1,323.7 853.8,322.7 853.8,321.5 L853.8,315.4 L852,315.4 L852,313.2 L853.8,313.2 L853.8,309.8 L856.8,309.8 L856.8,313.2 L860.4,313.2 L860.4,315.4 L856.8,315.4 L856.8,321 C856.8,321.6 856.9,322 857.1,322.2 C857.3,322.4 857.6,322.6 858.1,322.6 C858.6,322.6 859.2,322.4 859.9,322.1 L860.5,324.3 L860.5,324.3 Z M871.6,313.4 C872.6,313.9 873.3,314.7 873.9,315.6 C874.4,316.6 874.7,317.6 874.7,318.9 C874.7,320.2 874.4,321.3 873.9,322.2 C873.3,323.2 872.6,323.9 871.6,324.4 C870.6,324.9 869.5,325.2 868.2,325.2 C866.9,325.2 865.8,324.9 864.8,324.4 C863.8,323.9 863,323.1 862.5,322.2 C861.9,321.2 861.7,320.1 861.7,318.9 C861.7,317.7 862,316.6 862.5,315.6 C863,314.6 863.8,313.9 864.8,313.4 C865.8,312.9 866.9,312.6 868.2,312.6 C869.4,312.6 870.6,312.8 871.6,313.4 Z M865.6,316.2 C864.9,316.9 864.6,317.8 864.6,318.9 C864.6,320 864.9,320.9 865.6,321.6 C866.3,322.3 867.1,322.6 868.2,322.6 C869.2,322.6 870.1,322.3 870.7,321.6 C871.4,320.9 871.7,320 871.7,318.9 C871.7,317.8 871.4,316.9 870.7,316.2 C870,315.5 869.2,315.2 868.2,315.2 C867.1,315.2 866.3,315.5 865.6,316.2 Z M896.9,313.8 C897.7,314.7 898.1,315.8 898.1,317.3 L898.1,325.1 L895.1,325.1 L895.1,318.2 C895.1,317.3 894.9,316.6 894.4,316.1 C893.9,315.6 893.3,315.3 892.4,315.3 C891.4,315.3 890.7,315.7 890.1,316.3 C889.5,317 889.3,317.8 889.3,318.8 L889.3,324.9 L886.3,324.9 L886.3,318 C886.3,317.1 886.1,316.4 885.6,315.9 C885.1,315.4 884.5,315.1 883.6,315.1 C882.6,315.1 881.9,315.5 881.3,316.1 C880.7,316.8 880.5,317.6 880.5,318.6 L880.5,324.7 L877.5,324.7 L877.5,312.3 L880.5,312.3 L880.5,314.6 C881.3,313 882.8,312.2 884.9,312.2 C886,312.2 886.9,312.5 887.6,313 C888.3,313.5 888.9,314.3 889.1,315.2 C889.9,313.2 891.4,312.3 893.7,312.2 C895,312.6 896.1,313 896.9,313.8 L896.9,313.8 Z M904.2,307.8 C904.5,308.1 904.7,308.6 904.7,309.1 C904.7,309.6 904.5,310 904.2,310.4 C903.9,310.7 903.5,310.9 903,310.9 C902.5,310.9 902.1,310.7 901.8,310.4 C901.5,310.1 901.3,309.6 901.3,309.1 C901.3,308.6 901.5,308.1 901.8,307.8 C902.1,307.5 902.5,307.3 903,307.3 C903.5,307.3 903.9,307.5 904.2,307.8 Z M901.5,312.7 L904.5,312.7 L904.5,325.1 L901.5,325.1 L901.5,312.7 Z M913.7,315.2 C913.1,315 912.5,314.9 911.9,314.9 C911.4,314.9 911,315 910.7,315.2 C910.4,315.4 910.2,315.7 910.2,316 C910.2,316.4 910.4,316.7 910.8,316.9 C911.2,317.1 911.8,317.3 912.6,317.6 C913.5,317.9 914.2,318.1 914.7,318.4 C915.3,318.7 915.7,319 916.2,319.5 C916.6,320 916.8,320.7 916.8,321.5 C916.8,322.7 916.3,323.6 915.4,324.3 C914.5,325 913.3,325.3 911.9,325.3 C910.9,325.3 910,325.2 909.1,324.8 C908.2,324.5 907.4,324.1 906.8,323.5 L907.8,321.4 C908.4,321.9 909,322.3 909.8,322.5 C910.6,322.8 911.3,322.9 912,322.9 C912.6,322.9 913,322.8 913.3,322.6 C913.6,322.4 913.8,322.1 913.8,321.7 C913.8,321.3 913.6,320.9 913.2,320.7 C912.8,320.5 912.2,320.2 911.3,320 C910.5,319.8 909.8,319.5 909.3,319.3 C908.8,319.1 908.3,318.7 907.9,318.2 C907.5,317.7 907.3,317.1 907.3,316.3 C907.3,315.1 907.7,314.1 908.6,313.5 C909.5,312.9 910.6,312.5 912,312.5 C912.8,312.5 913.6,312.6 914.4,312.8 C915.2,313 915.9,313.4 916.5,313.8 L915.4,316 C915,315.7 914.4,315.4 913.7,315.2 Z M926.8,325.1 L926.8,323.6 C926.4,324.1 925.8,324.6 925.1,324.8 C924.4,325.1 923.6,325.2 922.8,325.2 C921.9,325.2 921.2,325 920.5,324.7 C919.8,324.4 919.3,323.9 919,323.3 C918.6,322.7 918.5,322.1 918.5,321.3 C918.5,320.1 918.9,319.2 919.7,318.6 C920.5,317.9 921.7,317.6 923.2,317.6 L926.8,317.6 L926.8,317.3 C926.8,316.6 926.6,316 926.1,315.6 C925.6,315.2 924.9,315 924,315 C922.8,315 921.6,315.4 920.3,316.2 L919.2,314.1 C920.2,313.6 921.1,313.2 921.9,312.9 C922.7,312.7 923.6,312.5 924.7,312.5 C926.3,312.5 927.6,312.9 928.4,313.7 C929.3,314.5 929.7,315.6 929.8,317 L929.8,325.1 L926.8,325.1 Z M925.7,322.3 C926.3,321.9 926.7,321.4 926.7,320.8 L926.7,319.7 L923.6,319.7 C922.8,319.7 922.2,319.8 921.8,320.1 C921.4,320.3 921.2,320.7 921.2,321.3 C921.2,321.8 921.4,322.2 921.8,322.6 C922.2,322.9 922.7,323.1 923.4,323.1 C924.3,322.9 925.1,322.7 925.7,322.3 L925.7,322.3 Z M940.4,324.3 C939.4,324.9 938.4,325.2 937.3,325.2 C936.2,325.2 935.4,324.9 934.7,324.3 C934,323.7 933.7,322.7 933.7,321.5 L933.7,315.4 L932,315.4 L932,313.2 L933.8,313.2 L933.8,309.8 L936.8,309.8 L936.8,313.2 L940.4,313.2 L940.4,315.4 L936.8,315.4 L936.8,321 C936.8,321.6 936.9,322 937.1,322.2 C937.3,322.4 937.6,322.6 938.1,322.6 C938.6,322.6 939.2,322.4 939.9,322.1 L940.4,324.3 L940.4,324.3 Z M945.5,307.8 C945.8,308.1 946,308.6 946,309.1 C946,309.6 945.8,310 945.5,310.4 C945.2,310.7 944.8,310.9 944.3,310.9 C943.8,310.9 943.4,310.7 943.1,310.4 C942.8,310.1 942.6,309.6 942.6,309.1 C942.6,308.6 942.8,308.1 943.1,307.8 C943.4,307.5 943.8,307.3 944.3,307.3 C944.8,307.3 945.2,307.5 945.5,307.8 Z M942.8,312.7 L945.8,312.7 L945.8,325.1 L942.8,325.1 L942.8,312.7 Z M958.4,313.4 C959.4,313.9 960.2,314.7 960.7,315.6 C961.3,316.6 961.5,317.6 961.5,318.9 C961.5,320.2 961.2,321.3 960.7,322.2 C960.2,323.1 959.4,323.9 958.4,324.4 C957.4,324.9 956.3,325.2 955,325.2 C953.7,325.2 952.6,324.9 951.6,324.4 C950.6,323.9 949.8,323.1 949.3,322.2 C948.8,321.2 948.5,320.1 948.5,318.9 C948.5,317.7 948.8,316.6 949.3,315.6 C949.9,314.6 950.6,313.9 951.6,313.4 C952.6,312.9 953.7,312.6 955,312.6 C956.3,312.6 957.4,312.8 958.4,313.4 Z M952.4,316.2 C951.7,316.9 951.4,317.8 951.4,318.9 C951.4,320 951.7,320.9 952.4,321.6 C953.1,322.3 953.9,322.6 955,322.6 C956,322.6 956.9,322.3 957.5,321.6 C958.2,320.9 958.5,320 958.5,318.9 C958.5,317.8 958.2,316.9 957.5,316.2 C956.8,315.5 956,315.2 955,315.2 C953.9,315.2 953.1,315.5 952.4,316.2 Z M975,313.8 C975.8,314.7 976.2,315.8 976.2,317.3 L976.2,325.1 L973.2,325.1 L973.2,318.2 C973.2,317.3 973,316.6 972.5,316.1 C972,315.6 971.3,315.3 970.5,315.3 C969.5,315.3 968.7,315.7 968.1,316.3 C967.5,317 967.2,317.8 967.2,318.9 L967.2,325 L964.2,325 L964.2,312.6 L967.2,312.6 L967.2,314.9 C968.1,313.3 969.5,312.5 971.7,312.5 C973,312.6 974.1,313 975,313.8 L975,313.8 Z" id="Shape" fill="#AAAAE0"></path>
            <path d="M810.7,484.3 L821.9,484.3 L821.9,487 L813.8,487 L813.8,491.4 L821.2,491.4 L821.2,494.1 L813.8,494.1 L813.8,500.5 L810.7,500.5 L810.7,484.3 L810.7,484.3 Z M835.6,488.2 L835.6,500.6 L832.6,500.6 L832.6,498.3 C831.8,499.9 830.3,500.7 828.3,500.7 C826.9,500.7 825.8,500.3 825,499.4 C824.2,498.5 823.8,497.4 823.8,495.9 L823.8,488.1 L826.8,488.1 L826.8,495 C826.8,495.9 827,496.5 827.5,497 C828,497.5 828.6,497.7 829.5,497.7 C830.5,497.7 831.2,497.3 831.8,496.7 C832.4,496 832.6,495.2 832.6,494.2 L832.6,488.1 L835.6,488.1 L835.6,488.2 Z M839.5,483.3 L842.5,483.3 L842.5,500.5 L839.5,500.5 L839.5,483.3 Z M846.5,483.3 L849.5,483.3 L849.5,500.5 L846.5,500.5 L846.5,483.3 Z M864.4,490.7 C863.4,490.7 862.6,491 861.9,491.7 C861.3,492.4 861,493.3 861,494.3 C861,495.4 861.3,496.3 861.9,497 C862.5,497.7 863.3,498 864.4,498 C865.9,498 867,497.5 867.7,496.5 L869.6,498.1 C869,498.9 868.3,499.5 867.4,500 C866.5,500.4 865.4,500.7 864.2,500.7 C863,500.7 861.9,500.4 860.9,499.9 C859.9,499.4 859.2,498.6 858.7,497.7 C858.2,496.7 857.9,495.7 857.9,494.4 C857.9,493.1 858.2,492 858.7,491.1 C859.2,490.1 860,489.4 860.9,488.9 C861.9,488.4 862.9,488.1 864.2,488.1 C865.3,488.1 866.3,488.3 867.2,488.7 C868.1,489.1 868.8,489.7 869.4,490.4 L867.6,492.1 C866.8,491.2 865.7,490.7 864.4,490.7 L864.4,490.7 Z M883.7,488.2 L883.7,500.6 L880.7,500.6 L880.7,498.3 C879.9,499.9 878.4,500.7 876.4,500.7 C875,500.7 873.9,500.3 873.1,499.4 C872.3,498.5 871.9,497.4 871.9,495.9 L871.9,488.1 L874.9,488.1 L874.9,495 C874.9,495.9 875.1,496.5 875.6,497 C876.1,497.5 876.7,497.7 877.6,497.7 C878.6,497.7 879.3,497.3 879.9,496.7 C880.5,496 880.7,495.2 880.7,494.2 L880.7,488.1 L883.7,488.1 L883.7,488.2 Z M892.9,490.7 C892.3,490.5 891.7,490.4 891.1,490.4 C890.6,490.4 890.2,490.5 889.9,490.7 C889.6,490.9 889.4,491.1 889.4,491.5 C889.4,491.9 889.6,492.2 890,492.4 C890.4,492.6 891,492.8 891.8,493.1 C892.7,493.4 893.4,493.6 893.9,493.9 C894.5,494.2 894.9,494.5 895.4,495 C895.8,495.5 896,496.2 896,497 C896,498.2 895.5,499.1 894.6,499.8 C893.7,500.5 892.5,500.8 891.1,500.8 C890.1,500.8 889.2,500.6 888.3,500.3 C887.4,500 886.6,499.6 886,499 L887,496.9 C887.6,497.4 888.2,497.8 889,498 C889.8,498.3 890.5,498.4 891.2,498.4 C891.8,498.4 892.2,498.3 892.5,498.1 C892.8,497.9 893,497.6 893,497.2 C893,496.8 892.8,496.4 892.4,496.2 C892,496 891.4,495.7 890.5,495.5 C889.7,495.3 889,495 888.5,494.8 C888,494.6 887.5,494.2 887.1,493.7 C886.7,493.2 886.5,492.6 886.5,491.8 C886.5,490.6 886.9,489.6 887.8,489 C888.7,488.4 889.8,488 891.2,488 C892,488 892.8,488.1 893.6,488.4 C894.4,488.6 895.1,489 895.7,489.4 L894.6,491.6 C894.2,491.2 893.6,490.9 892.9,490.7 Z M905.9,499.8 C904.9,500.4 903.9,500.7 902.8,500.7 C901.7,500.7 900.9,500.4 900.2,499.8 C899.5,499.2 899.2,498.3 899.2,497 L899.2,490.9 L897.5,490.9 L897.5,488.7 L899.3,488.7 L899.3,485.3 L902.3,485.3 L902.3,488.7 L905.9,488.7 L905.9,490.9 L902.3,490.9 L902.3,496.5 C902.3,497.1 902.4,497.5 902.6,497.7 C902.8,497.9 903.1,498.1 903.6,498.1 C904.1,498.1 904.7,497.9 905.4,497.6 L905.9,499.8 L905.9,499.8 Z M917,488.9 C918,489.4 918.7,490.2 919.3,491.1 C919.8,492.1 920.1,493.1 920.1,494.4 C920.1,495.7 919.8,496.8 919.3,497.7 C918.7,498.7 918,499.4 917,499.9 C916,500.4 914.9,500.7 913.6,500.7 C912.3,500.7 911.2,500.4 910.2,499.9 C909.2,499.4 908.4,498.6 907.9,497.7 C907.3,496.7 907.1,495.6 907.1,494.4 C907.1,493.2 907.4,492.1 907.9,491.1 C908.5,490.1 909.2,489.4 910.2,488.9 C911.2,488.4 912.3,488.1 913.6,488.1 C914.9,488.1 916,488.3 917,488.9 Z M911,491.7 C910.3,492.4 910,493.3 910,494.4 C910,495.5 910.3,496.4 911,497.1 C911.7,497.8 912.5,498.1 913.6,498.1 C914.6,498.1 915.5,497.8 916.1,497.1 C916.8,496.4 917.1,495.5 917.1,494.4 C917.1,493.3 916.8,492.4 916.1,491.7 C915.4,491 914.6,490.7 913.6,490.7 C912.5,490.6 911.7,491 911,491.7 Z M942.3,489.3 C943.1,490.2 943.5,491.3 943.5,492.8 L943.5,500.6 L940.5,500.6 L940.5,493.7 C940.5,492.8 940.3,492.1 939.8,491.6 C939.3,491.1 938.7,490.8 937.8,490.8 C936.8,490.8 936.1,491.2 935.5,491.8 C934.9,492.5 934.7,493.3 934.7,494.3 L934.7,500.4 L931.7,500.4 L931.7,493.5 C931.7,492.6 931.5,491.9 931,491.4 C930.5,490.9 929.9,490.6 929,490.6 C928,490.6 927.3,491 926.7,491.6 C926.1,492.3 925.9,493.1 925.9,494.1 L925.9,500.2 L922.9,500.2 L922.9,487.8 L925.9,487.8 L925.9,490.1 C926.7,488.5 928.2,487.7 930.3,487.7 C931.4,487.7 932.3,488 933,488.5 C933.7,489 934.3,489.8 934.5,490.7 C935.3,488.7 936.8,487.8 939.1,487.7 C940.4,488 941.5,488.5 942.3,489.3 L942.3,489.3 Z M952.7,483.3 L955.7,483.3 L955.7,500.5 L952.7,500.5 L952.7,483.3 Z M969.3,489.8 C970.3,490.9 970.8,492.5 970.8,494.6 L970.8,495.5 L961.6,495.5 C961.8,496.4 962.2,497.1 962.8,497.6 C963.4,498.1 964.2,498.4 965.1,498.4 C965.7,498.4 966.3,498.3 966.9,498 C967.5,497.8 968,497.4 968.4,497 L970,498.7 C969.4,499.4 968.6,499.9 967.7,500.3 C966.8,500.7 965.8,500.9 964.7,500.9 C963.4,500.9 962.3,500.6 961.3,500.1 C960.3,499.6 959.6,498.8 959.1,497.9 C958.6,496.9 958.3,495.9 958.3,494.6 C958.3,493.4 958.6,492.3 959.1,491.3 C959.6,490.3 960.4,489.6 961.3,489.1 C962.3,488.6 963.4,488.3 964.6,488.3 C966.8,488.1 968.3,488.6 969.3,489.8 L969.3,489.8 Z M968,493.4 C968,492.5 967.7,491.8 967.1,491.2 C966.5,490.7 965.8,490.4 964.8,490.4 C963.9,490.4 963.2,490.7 962.6,491.2 C962,491.7 961.6,492.5 961.5,493.4 L968,493.4 Z M971,488.2 L974.2,488.2 L977.5,497.7 L980.7,488.2 L983.7,488.2 L979,500.6 L975.9,500.6 L971,488.2 Z M994.6,489.8 C995.6,490.9 996.1,492.5 996.1,494.6 L996.1,495.5 L986.9,495.5 C987.1,496.4 987.5,497.1 988.1,497.6 C988.7,498.1 989.5,498.4 990.4,498.4 C991,498.4 991.6,498.3 992.2,498 C992.8,497.8 993.3,497.4 993.7,497 L995.3,498.7 C994.7,499.4 993.9,499.9 993,500.3 C992.1,500.7 991.1,500.9 990,500.9 C988.7,500.9 987.6,500.6 986.6,500.1 C985.6,499.6 984.9,498.8 984.4,497.9 C983.9,496.9 983.6,495.9 983.6,494.6 C983.6,493.4 983.9,492.3 984.4,491.3 C984.9,490.3 985.7,489.6 986.6,489.1 C987.6,488.6 988.7,488.3 989.9,488.3 C992.1,488.1 993.6,488.6 994.6,489.8 L994.6,489.8 Z M993.3,493.4 C993.3,492.5 993,491.8 992.4,491.2 C991.8,490.7 991.1,490.4 990.1,490.4 C989.2,490.4 988.5,490.7 987.9,491.2 C987.3,491.7 986.9,492.5 986.8,493.4 L993.3,493.4 Z M998.8,483.3 L1001.8,483.3 L1001.8,500.5 L998.8,500.5 L998.8,483.3 Z" id="Shape" fill="#3B3769"></path>
        </g>
    </g>
</svg>