<?xml version="1.0" encoding="UTF-8"?>
<svg width="738px" height="358px" viewBox="0 0 738 358" version="1.1" xmlns="http://www.w3.org/2000/svg" xmlns:xlink="http://www.w3.org/1999/xlink">
    <!-- Generator: Sketch 45.2 (43514) - http://www.bohemiancoding.com/sketch -->
    <title>instantsearch-components</title>
    <desc>Created with Sketch.</desc>
    <defs>
        <linearGradient x1="152.531603%" y1="50%" x2="-12.9363524%" y2="50%" id="linearGradient-1">
            <stop stop-color="#01ADFF" offset="0%"></stop>
            <stop stop-color="#8E43E6" offset="100%"></stop>
        </linearGradient>
        <linearGradient x1="-28.8040373%" y1="134.936%" x2="122.058638%" y2="-27.7%" id="linearGradient-2">
            <stop stop-color="#FEC168" offset="0%"></stop>
            <stop stop-color="#FEC168" offset="100%"></stop>
        </linearGradient>
    </defs>
    <g id="Page-1" stroke="none" stroke-width="1" fill="none" fill-rule="evenodd">
        <g id="instantsearch-components">
            <path d="M398.818,5.28 L398.818,19 L400.994,19 L400.994,8.75 L405.326,17.57 L406.835,17.57 L411.166,8.75 L411.186,19 L413.322,19 L413.322,5.28 L410.598,5.28 L406.09,14.394 L401.562,5.28 L398.818,5.28 Z M425.278,19 L423.064,19 L423.064,17.726 C422.319,18.647 421.124,19.098 419.614,19.098 C417.36,19.098 415.949,17.706 415.949,15.864 C415.949,13.963 417.379,12.748 419.889,12.728 L423.044,12.728 L423.044,12.414 C423.044,11.101 422.201,10.317 420.554,10.317 C419.555,10.317 418.516,10.67 417.478,11.376 L416.556,9.808 C418.006,8.945 419.066,8.494 421.045,8.494 C423.73,8.494 425.239,9.866 425.259,12.16 L425.279,19 L425.278,19 Z M420.084,17.314 C421.692,17.314 422.926,16.472 423.044,15.334 L423.044,14.374 L420.222,14.374 C418.752,14.374 418.066,14.766 418.066,15.766 C418.066,16.706 418.83,17.314 420.084,17.314 L420.084,17.314 Z M433.628,16.609 C433.02,16.903 432.53,17.059 432.06,17.059 C431.354,17.059 430.943,16.726 430.943,15.649 L430.943,10.65 L434.02,10.65 L434.02,8.965 L430.943,8.965 L430.943,6.103 L428.708,6.103 L428.708,8.965 L427.238,8.965 L427.238,10.65 L428.708,10.65 L428.708,16.06 C428.708,18.196 430.061,19.098 431.628,19.098 C432.511,19.098 433.373,18.824 434.196,18.334 L433.628,16.609 Z M443.506,11.65 L444.741,10.2 C443.781,9.102 442.311,8.494 440.429,8.494 C437.332,8.494 435.176,10.65 435.176,13.806 C435.176,16.942 437.332,19.078 440.429,19.078 C442.409,19.078 443.918,18.373 444.859,17.138 L443.604,15.884 C442.899,16.707 441.84,17.138 440.527,17.138 C438.724,17.138 437.43,15.786 437.43,13.806 C437.43,11.826 438.724,10.474 440.527,10.474 C441.782,10.454 442.781,10.905 443.507,11.65 L443.506,11.65 Z M453.424,8.494 C451.64,8.494 450.308,9.141 449.563,10.611 L449.563,4.457 L447.309,4.457 L447.309,19 L449.563,19 L449.563,13.865 C449.563,12.022 450.68,10.631 452.542,10.611 C454.11,10.611 455.051,11.571 455.051,13.14 L455.051,19 L457.305,19 L457.305,12.512 C457.305,10.023 455.855,8.494 453.424,8.494 L453.424,8.494 Z M461.44,4.241 C460.696,4.241 460.127,4.81 460.127,5.594 C460.127,6.358 460.696,6.926 461.44,6.926 C462.185,6.926 462.754,6.358 462.754,5.594 C462.754,4.81 462.185,4.241 461.44,4.241 Z M460.323,8.573 L460.323,19 L462.558,19 L462.558,8.573 L460.323,8.573 Z M471.985,8.494 C470.221,8.494 468.888,9.122 468.144,10.572 L468.144,8.572 L465.89,8.572 L465.89,19 L468.144,19 L468.144,13.453 C468.3,11.826 469.378,10.631 471.104,10.611 C472.671,10.611 473.612,11.571 473.612,13.14 L473.612,19 L475.866,19 L475.866,12.512 C475.866,10.023 474.416,8.494 471.986,8.494 L471.985,8.494 Z M486.058,8.573 L488.292,8.573 L488.292,17.981 C488.292,20.98 486.156,22.861 482.882,22.861 C481.256,22.861 479.825,22.351 478.552,21.489 L479.512,19.862 C480.492,20.588 481.511,20.999 482.785,20.999 C484.765,20.999 486.058,19.843 486.058,18.039 L486.058,16.726 C485.352,17.863 484.176,18.49 482.608,18.49 C479.786,18.49 477.904,16.452 477.904,13.453 C477.904,10.513 479.766,8.514 482.53,8.494 C484.137,8.474 485.333,9.122 486.058,10.258 L486.058,8.573 Z M483.059,16.726 C484.823,16.726 486.058,15.394 486.058,13.512 C486.058,11.63 484.823,10.317 483.059,10.317 C481.276,10.317 480.041,11.65 480.021,13.512 C480.041,15.394 481.256,16.726 483.059,16.726 Z M497.72,5.26 L497.72,7.338 L500.68,7.338 L500.68,19 L502.992,19 L502.992,5.26 L497.72,5.26 Z M513.792,5.202 C517.104,5.202 518.947,7.672 518.947,12.12 C518.947,16.59 517.104,19.059 513.792,19.059 C510.46,19.059 508.618,16.589 508.618,12.12 C508.618,7.671 510.46,5.202 513.792,5.202 Z M513.792,7.005 C511.872,7.005 510.911,8.632 510.911,12.12 C510.911,15.61 511.871,17.256 513.792,17.256 C515.693,17.256 516.654,15.609 516.654,12.12 C516.654,8.632 515.694,7.005 513.792,7.005 Z M521.965,16.628 C521.26,16.628 520.75,17.158 520.75,17.883 C520.75,18.294 520.926,18.667 521.28,18.902 L520.534,20.607 L521.691,20.607 L522.808,18.922 C523.024,18.608 523.161,18.275 523.161,17.882 C523.161,17.099 522.592,16.628 521.965,16.628 L521.965,16.628 Z M530.08,5.202 C533.392,5.202 535.234,7.672 535.234,12.12 C535.234,16.59 533.392,19.059 530.08,19.059 C526.748,19.059 524.905,16.589 524.905,12.12 C524.905,7.671 526.748,5.202 530.08,5.202 Z M530.08,7.005 C528.159,7.005 527.198,8.632 527.198,12.12 C527.198,15.61 528.158,17.256 530.08,17.256 C531.98,17.256 532.941,15.609 532.941,12.12 C532.941,8.632 531.981,7.005 530.08,7.005 Z M542.173,5.202 C545.485,5.202 547.328,7.672 547.328,12.12 C547.328,16.59 545.485,19.059 542.173,19.059 C538.841,19.059 536.998,16.589 536.998,12.12 C536.998,7.671 538.841,5.202 542.173,5.202 Z M542.173,7.005 C540.252,7.005 539.292,8.632 539.292,12.12 C539.292,15.61 540.252,17.256 542.172,17.256 C544.074,17.256 545.034,15.609 545.034,12.12 C545.034,8.632 544.074,7.005 542.173,7.005 Z M554.266,5.202 C557.578,5.202 559.421,7.672 559.421,12.12 C559.421,16.59 557.578,19.059 554.266,19.059 C550.934,19.059 549.092,16.589 549.092,12.12 C549.092,7.671 550.934,5.202 554.266,5.202 Z M554.266,7.005 C552.346,7.005 551.385,8.632 551.385,12.12 C551.385,15.61 552.345,17.256 554.266,17.256 C556.167,17.256 557.128,15.609 557.128,12.12 C557.128,8.632 556.168,7.005 554.266,7.005 Z M574.062,8.495 C572.278,8.495 570.946,9.141 570.201,10.611 L570.201,4.457 L567.947,4.457 L567.947,19 L570.201,19 L570.201,13.865 C570.201,12.022 571.318,10.631 573.18,10.611 C574.748,10.611 575.689,11.571 575.689,13.14 L575.689,19 L577.943,19 L577.943,12.512 C577.943,10.023 576.493,8.494 574.062,8.494 L574.062,8.495 Z M582.078,4.241 C581.334,4.241 580.765,4.81 580.765,5.594 C580.765,6.358 581.334,6.926 582.078,6.926 C582.823,6.926 583.392,6.358 583.392,5.594 C583.392,4.81 582.823,4.241 582.078,4.241 Z M580.961,8.573 L580.961,19 L583.196,19 L583.196,8.573 L580.961,8.573 Z M591.859,16.609 C591.251,16.903 590.761,17.059 590.291,17.059 C589.585,17.059 589.174,16.726 589.174,15.649 L589.174,10.65 L592.251,10.65 L592.251,8.965 L589.174,8.965 L589.174,6.103 L586.939,6.103 L586.939,8.965 L585.469,8.965 L585.469,10.65 L586.939,10.65 L586.939,16.06 C586.939,18.196 588.292,19.098 589.859,19.098 C590.742,19.098 591.604,18.824 592.427,18.334 L591.859,16.609 Z M600.444,11.199 L601.267,9.533 C600.326,8.867 598.934,8.475 597.621,8.475 C595.622,8.475 593.78,9.376 593.78,11.493 C593.76,15.256 599.248,14.061 599.248,16.197 C599.248,16.981 598.503,17.314 597.543,17.314 C596.406,17.314 594.956,16.824 594.054,16.021 L593.25,17.628 C594.29,18.568 595.916,19.078 597.445,19.078 C599.542,19.078 601.443,18.118 601.443,15.982 C601.463,12.199 595.916,13.238 595.916,11.317 C595.916,10.572 596.563,10.278 597.445,10.278 C598.366,10.278 599.522,10.631 600.444,11.199 Z M610.714,4.241 C609.969,4.241 609.401,4.81 609.401,5.594 C609.401,6.358 609.969,6.926 610.714,6.926 C611.459,6.926 612.027,6.358 612.027,5.594 C612.027,4.81 611.459,4.241 610.714,4.241 Z M609.597,8.573 L609.597,19 L611.831,19 L611.831,8.573 L609.597,8.573 Z M621.259,8.494 C619.495,8.494 618.162,9.122 617.417,10.572 L617.417,8.572 L615.163,8.572 L615.163,19 L617.417,19 L617.417,13.453 C617.574,11.826 618.652,10.631 620.377,10.611 C621.945,10.611 622.886,11.571 622.886,13.14 L622.886,19 L625.14,19 L625.14,12.512 C625.14,10.023 623.69,8.494 621.259,8.494 L621.259,8.494 Z M634.449,5.26 L634.449,7.338 L637.409,7.338 L637.409,19 L639.722,19 L639.722,5.26 L634.45,5.26 L634.449,5.26 Z M665.614,8.494 C663.712,8.494 662.321,9.259 661.654,11.004 C661.164,9.416 659.89,8.494 658.028,8.494 C656.304,8.494 654.971,9.122 654.246,10.592 L654.246,8.572 L652.011,8.572 L652.011,19 L654.246,19 L654.246,13.845 C654.246,12.022 655.343,10.65 657.146,10.592 C658.676,10.592 659.596,11.552 659.596,13.14 L659.596,19 L661.85,19 L661.85,13.845 C661.85,12.022 662.928,10.65 664.712,10.592 C666.241,10.592 667.182,11.552 667.182,13.14 L667.182,19 L669.436,19 L669.436,12.512 C669.436,10.023 668.005,8.494 665.614,8.494 Z M678.393,11.199 L679.216,9.533 C678.276,8.867 676.884,8.475 675.57,8.475 C673.571,8.475 671.729,9.376 671.729,11.493 C671.709,15.256 677.197,14.061 677.197,16.197 C677.197,16.981 676.452,17.314 675.492,17.314 C674.355,17.314 672.905,16.824 672.003,16.021 L671.2,17.628 C672.238,18.568 673.865,19.078 675.394,19.078 C677.491,19.078 679.392,18.118 679.392,15.982 C679.412,12.199 673.865,13.238 673.865,11.317 C673.865,10.572 674.512,10.278 675.394,10.278 C676.315,10.278 677.472,10.631 678.393,11.199 L678.393,11.199 Z" id="Shape" fill="#9D9DBD" fill-rule="nonzero" opacity="0.6"></path>
            <g id="Group" transform="translate(162.000000, 0.000000)" fill-rule="nonzero">
                <rect id="Rectangle-path" fill="url(#linearGradient-1)" x="0" y="0" width="180" height="37" rx="6.72"></rect>
                <path d="M27.498,14.119 L28.466,12.949 C27.116,11.679 25.24,10.893 23.305,10.893 C19.213,10.893 15.947,14.018 15.947,17.969 C15.947,21.961 19.172,25.106 23.245,25.106 C25.2,25.106 27.095,24.279 28.486,22.969 L27.498,21.9 C26.389,22.949 24.878,23.594 23.325,23.594 C20.14,23.594 17.58,21.074 17.58,17.969 C17.58,14.844 20.14,12.365 23.325,12.365 C24.877,12.365 26.41,13.03 27.498,14.119 L27.498,14.119 Z M35.138,14.381 C38.284,14.381 40.522,16.578 40.522,19.723 C40.522,22.888 38.284,25.106 35.139,25.106 C31.974,25.106 29.756,22.888 29.756,19.723 C29.756,16.578 31.974,14.381 35.139,14.381 L35.138,14.381 Z M35.138,15.771 C32.901,15.771 31.328,17.405 31.328,19.743 C31.328,22.123 32.901,23.735 35.138,23.735 C37.357,23.735 38.949,22.122 38.949,19.743 C38.949,17.405 37.357,15.772 35.139,15.772 L35.138,15.771 Z M43.384,10.087 L43.384,25.045 L44.957,25.045 L44.957,10.087 L43.384,10.087 Z M53.202,14.381 C56.347,14.381 58.585,16.578 58.585,19.723 C58.585,22.888 56.347,25.106 53.202,25.106 C50.037,25.106 47.82,22.888 47.82,19.723 C47.82,16.578 50.037,14.381 53.202,14.381 Z M53.202,15.771 C50.965,15.771 49.392,17.405 49.392,19.743 C49.392,22.123 50.965,23.735 53.202,23.735 C55.42,23.735 57.012,22.122 57.012,19.743 C57.012,17.405 55.42,15.772 53.202,15.772 L53.202,15.771 Z M62.92,16.8 L62.92,14.441 L61.348,14.441 L61.348,25.045 L62.92,25.045 L62.92,19.401 C63.102,17.264 64.493,15.873 66.73,15.913 L66.73,14.381 C64.936,14.401 63.626,15.248 62.92,16.8 L62.92,16.8 Z M68.948,17.163 C68.384,17.163 67.96,17.606 67.96,18.191 C67.96,18.776 68.384,19.219 68.948,19.219 C69.493,19.219 69.916,18.776 69.916,18.191 C69.916,17.606 69.493,17.163 68.948,17.163 Z M68.948,23.15 C68.384,23.15 67.96,23.594 67.96,24.179 C67.96,24.763 68.384,25.207 68.948,25.207 C69.493,25.207 69.916,24.763 69.916,24.179 C69.916,23.594 69.493,23.15 68.948,23.15 Z M85.076,10.933 C87.919,10.933 89.653,12.243 89.653,14.461 C89.653,16.115 88.665,17.304 87.032,17.647 C89.068,17.949 90.257,19.28 90.257,21.215 C90.257,23.615 88.362,25.045 85.157,25.045 L79.129,25.045 L79.129,10.933 L85.076,10.933 Z M84.996,17.042 C86.891,17.042 87.999,16.195 87.999,14.703 C87.999,13.252 86.891,12.425 84.996,12.425 L80.74,12.425 L80.74,17.042 L84.994,17.042 L84.996,17.042 Z M84.996,23.554 C87.294,23.574 88.624,22.646 88.624,21.014 C88.624,19.441 87.294,18.514 84.996,18.534 L80.74,18.534 L80.74,23.554 L84.994,23.554 L84.996,23.554 Z M93.443,10.087 L93.443,25.045 L95.015,25.045 L95.015,10.087 L93.443,10.087 Z M107.071,25.045 L105.539,25.045 L105.539,23.392 C104.692,24.542 103.341,25.106 101.648,25.106 C99.45,25.106 98.039,23.715 98.039,21.9 C98.039,20.046 99.511,18.876 102.011,18.856 L105.498,18.856 L105.498,18.191 C105.498,16.639 104.531,15.691 102.656,15.691 C101.486,15.691 100.398,16.135 99.289,16.921 L98.624,15.812 C99.994,14.905 101.144,14.381 102.958,14.381 C105.578,14.381 107.03,15.771 107.051,18.03 L107.071,25.045 L107.071,25.045 Z M101.951,23.795 C103.744,23.795 105.115,22.908 105.518,21.396 L105.518,20.106 L102.212,20.106 C100.438,20.106 99.511,20.651 99.511,21.84 C99.511,23.01 100.458,23.796 101.951,23.796 L101.951,23.795 Z M117.998,17.042 L118.864,15.953 C117.897,14.965 116.486,14.381 114.772,14.381 C111.708,14.381 109.51,16.598 109.51,19.743 C109.51,22.908 111.687,25.106 114.772,25.106 C116.606,25.106 118.078,24.42 119.026,23.271 L118.118,22.344 C117.373,23.231 116.223,23.714 114.832,23.714 C112.635,23.714 111.062,22.102 111.062,19.744 C111.062,17.404 112.635,15.792 114.832,15.792 C116.122,15.792 117.192,16.256 117.998,17.042 L117.998,17.042 Z M129.428,25.045 L131.303,25.045 L126.908,18.534 L130.88,14.441 L129.025,14.441 L123.562,19.945 L123.562,10.087 L121.989,10.087 L121.989,25.045 L123.562,25.045 L123.562,21.981 L125.799,19.663 L129.429,25.045 L129.428,25.045 Z M158.924,17.095 L165.517,10.503 C165.808074,10.209603 166.20409,10.0443286 166.617376,10.0437656 C167.030663,10.0432025 167.427127,10.2073972 167.719,10.5 C168.011385,10.7913941 168.17573,11.1872049 168.17573,11.6 C168.17573,12.0127951 168.011385,12.4086059 167.719,12.7 L161.121,19.293 L167.714,25.884 C168.328,26.498 168.324,27.479 167.717,28.086 C167.425475,28.3781394 167.029713,28.5423133 166.617,28.5423133 C166.204287,28.5423133 165.808525,28.3781394 165.517,28.086 L158.924,21.489 L152.331,28.081 C152.039926,28.374397 151.64391,28.5396714 151.230624,28.5402344 C150.817337,28.5407975 150.420873,28.3766028 150.129,28.084 C149.836615,27.7926059 149.67227,27.3967951 149.67227,26.984 C149.67227,26.5712049 149.836615,26.1753941 150.129,25.884 L156.727,19.293 L150.133,12.701 C149.739472,12.3092583 149.584829,11.7373293 149.727323,11.2006531 C149.869817,10.663977 150.287801,10.2440876 150.823823,10.0991531 C151.359845,9.95421872 151.932472,10.1062583 152.326,10.498 L158.924,17.096 L158.924,17.095 L158.924,17.095 Z" id="Shape" fill="#FFFFFF"></path>
            </g>
            <g id="Group" fill-rule="nonzero">
                <rect id="Rectangle-path" fill="url(#linearGradient-1)" x="0" y="0" width="126" height="37" rx="6.72"></rect>
                <path d="M30.838,14.119 L31.806,12.949 C30.455,11.679 28.58,10.893 26.645,10.893 C22.552,10.893 19.286,14.018 19.286,17.969 C19.286,21.961 22.512,25.106 26.584,25.106 C28.54,25.106 30.434,24.279 31.826,22.969 L30.838,21.9 C29.729,22.949 28.218,23.594 26.665,23.594 C23.48,23.594 20.919,21.074 20.919,17.969 C20.919,14.844 23.479,12.365 26.665,12.365 C28.217,12.365 29.749,13.03 30.838,14.119 L30.838,14.119 Z M34.608,10.087 L34.608,25.045 L36.18,25.045 L36.18,10.087 L34.608,10.087 Z M44.305,14.381 C47.732,14.381 49.425,16.74 49.265,20.328 L40.595,20.328 C40.858,22.425 42.37,23.796 44.446,23.796 C45.756,23.796 46.906,23.312 47.732,22.445 L48.599,23.352 C47.591,24.461 46.099,25.106 44.325,25.106 C41.2,25.106 39.043,22.908 39.043,19.743 C39.043,16.578 41.22,14.401 44.305,14.381 Z M40.595,19.078 L47.853,19.078 C47.753,17.022 46.381,15.691 44.305,15.691 C42.269,15.691 40.817,17.021 40.595,19.078 Z M60.09,25.045 L58.558,25.045 L58.558,23.392 C57.711,24.542 56.361,25.106 54.668,25.106 C52.47,25.106 51.058,23.715 51.058,21.9 C51.058,20.046 52.53,18.876 55.03,18.856 L58.518,18.856 L58.518,18.191 C58.518,16.639 57.55,15.691 55.675,15.691 C54.505,15.691 53.417,16.135 52.308,16.921 L51.643,15.812 C53.014,14.905 54.163,14.381 55.978,14.381 C58.598,14.381 60.05,15.771 60.07,18.03 L60.09,25.045 L60.09,25.045 Z M54.97,23.795 C56.764,23.795 58.135,22.908 58.538,21.396 L58.538,20.106 L55.232,20.106 C53.458,20.106 52.53,20.651 52.53,21.84 C52.53,23.01 53.478,23.796 54.97,23.796 L54.97,23.795 Z M65.17,16.8 L65.17,14.441 L63.598,14.441 L63.598,25.045 L65.171,25.045 L65.171,19.401 C65.352,17.264 66.743,15.873 68.981,15.913 L68.981,14.381 C67.187,14.401 65.876,15.248 65.171,16.8 L65.17,16.8 Z M87.87,25.045 L86.278,21.437 L78.598,21.437 L77.025,25.045 L75.31,25.045 L81.64,10.933 L83.314,10.933 L89.624,25.045 L87.87,25.045 Z M79.262,19.945 L85.633,19.945 L82.428,12.687 L79.262,19.945 Z M91.722,10.087 L91.722,25.045 L93.294,25.045 L93.294,10.087 L91.72,10.087 L91.722,10.087 Z M97.326,10.087 L97.326,25.045 L98.898,25.045 L98.898,10.087 L97.326,10.087 L97.326,10.087 Z" id="Shape" fill="#FFFFFF"></path>
            </g>
            <g id="Group" transform="translate(1.000000, 90.000000)">
                <ellipse id="Oval" stroke-opacity="0.374" stroke="#9D9DBD" stroke-width="1.4" cx="13.6" cy="16.963" rx="12.9" ry="12.993"></ellipse>
                <path d="M52.034,6.071 L43.277,9.977 L43.277,11.51 L52.034,15.416 L52.034,14.072 L44.411,10.754 L52.034,7.415 L52.034,6.071 Z M62.471,6.491 C62.471,5.231 63.71,4.475 65.6,4.475 C66.776,4.475 68.33,4.832 69.653,5.693 L70.367,4.202 C69.275,3.467 67.763,2.942 66.23,2.858 L66.209,0.338 L64.928,0.338 L64.928,2.879 C62.324,3.11 60.623,4.517 60.623,6.617 C60.623,11.888 68.897,9.809 68.876,13.736 C68.876,15.164 67.553,16.025 65.432,16.025 C63.773,16.025 61.904,15.269 60.539,13.967 L59.783,15.416 C61.064,16.634 62.954,17.516 64.928,17.642 L64.928,20.393 L66.209,20.393 L66.23,17.621 C68.918,17.369 70.724,15.878 70.724,13.652 C70.745,8.318 62.471,10.313 62.471,6.491 L62.471,6.491 Z M74.336,2.879 L74.336,4.433 L77.801,4.433 L77.801,17.6 L79.481,17.6 L79.481,2.879 L74.336,2.879 L74.336,2.879 Z M91.388,2.837 C94.874,2.837 96.827,5.483 96.827,10.229 C96.827,14.996 94.874,17.642 91.388,17.642 C87.881,17.642 85.928,14.996 85.928,10.229 C85.928,5.483 87.881,2.837 91.388,2.837 Z M91.388,4.223 C88.889,4.223 87.608,6.218 87.608,10.229 C87.608,14.24 88.889,16.277 91.388,16.277 C93.845,16.277 95.147,14.24 95.147,10.229 C95.147,6.218 93.845,4.223 91.388,4.223 Z" id="Shape" fill="#182359" fill-rule="nonzero"></path>
            </g>
            <g id="Group" transform="translate(1.000000, 143.062000)">
                <ellipse id="Oval" stroke-opacity="0.374" stroke="#9D9DBD" stroke-width="1.4" cx="13.6" cy="16.963" rx="12.9" ry="12.993"></ellipse>
                <path d="M45.86,6.491 C45.86,5.231 47.099,4.475 48.989,4.475 C50.165,4.475 51.719,4.832 53.042,5.693 L53.756,4.202 C52.664,3.467 51.152,2.942 49.619,2.858 L49.598,0.338 L48.317,0.338 L48.317,2.879 C45.713,3.11 44.012,4.517 44.012,6.617 C44.012,11.888 52.286,9.809 52.265,13.736 C52.265,15.164 50.942,16.025 48.821,16.025 C47.162,16.025 45.293,15.269 43.928,13.967 L43.172,15.416 C44.453,16.634 46.343,17.516 48.317,17.642 L48.317,20.393 L49.598,20.393 L49.619,17.621 C52.307,17.369 54.113,15.878 54.113,13.652 C54.134,8.318 45.86,10.313 45.86,6.491 L45.86,6.491 Z M57.725,2.879 L57.725,4.433 L61.19,4.433 L61.19,17.6 L62.87,17.6 L62.87,2.879 L57.725,2.879 L57.725,2.879 Z M74.777,2.837 C78.263,2.837 80.216,5.483 80.216,10.229 C80.216,14.996 78.263,17.642 74.777,17.642 C71.27,17.642 69.317,14.996 69.317,10.229 C69.317,5.483 71.27,2.837 74.777,2.837 L74.777,2.837 Z M74.777,4.223 C72.278,4.223 70.997,6.218 70.997,10.229 C70.997,14.24 72.278,16.277 74.777,16.277 C77.234,16.277 78.536,14.24 78.536,10.229 C78.536,6.218 77.234,4.223 74.777,4.223 Z M88.889,10.649 L88.889,11.846 L93.824,11.846 L93.824,10.649 L88.889,10.649 Z M104.849,6.491 C104.849,5.231 106.088,4.475 107.978,4.475 C109.154,4.475 110.708,4.832 112.031,5.693 L112.745,4.202 C111.653,3.467 110.141,2.942 108.608,2.858 L108.587,0.338 L107.306,0.338 L107.306,2.879 C104.702,3.11 103.001,4.517 103.001,6.617 C103.001,11.888 111.275,9.809 111.254,13.736 C111.254,15.164 109.931,16.025 107.81,16.025 C106.151,16.025 104.282,15.269 102.917,13.967 L102.161,15.416 C103.442,16.634 105.332,17.516 107.306,17.642 L107.306,20.393 L108.587,20.393 L108.608,17.621 C111.296,17.369 113.102,15.878 113.102,13.652 C113.123,8.318 104.849,10.313 104.849,6.491 L104.849,6.491 Z M116.714,2.879 L116.714,4.433 L120.179,4.433 L120.179,17.6 L121.859,17.6 L121.859,2.879 L116.714,2.879 Z M133.766,2.837 C137.252,2.837 139.205,5.483 139.205,10.229 C139.205,14.996 137.252,17.642 133.766,17.642 C130.259,17.642 128.306,14.996 128.306,10.229 C128.306,5.483 130.259,2.837 133.766,2.837 Z M133.766,4.223 C131.267,4.223 129.986,6.218 129.986,10.229 C129.986,14.24 131.267,16.277 133.766,16.277 C136.223,16.277 137.525,14.24 137.525,10.229 C137.525,6.218 136.223,4.223 133.766,4.223 Z M146.723,2.837 C150.209,2.837 152.162,5.483 152.162,10.229 C152.162,14.996 150.209,17.642 146.723,17.642 C143.216,17.642 141.263,14.996 141.263,10.229 C141.263,5.483 143.216,2.837 146.723,2.837 Z M146.723,4.223 C144.224,4.223 142.943,6.218 142.943,10.229 C142.943,14.24 144.224,16.277 146.723,16.277 C149.18,16.277 150.482,14.24 150.482,10.229 C150.482,6.218 149.18,4.223 146.723,4.223 Z" id="Shape" fill="#182359" fill-rule="nonzero"></path>
            </g>
            <g id="Group" transform="translate(1.000000, 249.186000)">
                <ellipse id="Oval" stroke-opacity="0.374" stroke="#9D9DBD" stroke-width="1.4" cx="13.6" cy="16.963" rx="12.9" ry="12.993"></ellipse>
                <path d="M46.677,15.353 L55.434,11.447 L55.434,9.914 L46.677,6.008 L46.677,7.352 L54.3,10.67 L46.677,14.009 L46.677,15.353 Z M65.871,6.491 C65.871,5.231 67.11,4.475 69,4.475 C70.176,4.475 71.73,4.832 73.053,5.693 L73.767,4.202 C72.675,3.467 71.163,2.942 69.63,2.858 L69.609,0.338 L68.328,0.338 L68.328,2.879 C65.724,3.11 64.023,4.517 64.023,6.617 C64.023,11.888 72.297,9.809 72.276,13.736 C72.276,15.164 70.953,16.025 68.832,16.025 C67.173,16.025 65.304,15.269 63.939,13.967 L63.183,15.416 C64.464,16.634 66.354,17.516 68.328,17.642 L68.328,20.393 L69.609,20.393 L69.63,17.621 C72.318,17.369 74.124,15.878 74.124,13.652 C74.145,8.318 65.871,10.313 65.871,6.491 L65.871,6.491 Z M78.954,8.675 L78.954,4.433 L86.367,4.433 L86.367,2.879 L77.379,2.879 L77.379,10.397 C78.513,10.145 80.361,9.998 81.39,9.998 C83.721,9.998 85.212,11.132 85.212,12.896 C85.212,14.891 83.721,16.13 81.348,16.13 C79.941,16.13 78.282,15.584 77.001,14.681 L76.308,16.046 C77.778,17.012 79.794,17.642 81.516,17.642 C84.834,17.642 86.976,15.731 86.976,12.791 C86.976,10.271 84.897,8.465 81.642,8.465 C80.907,8.465 79.794,8.528 78.954,8.675 L78.954,8.675 Z M94.788,2.837 C98.274,2.837 100.227,5.483 100.227,10.229 C100.227,14.996 98.274,17.642 94.788,17.642 C91.281,17.642 89.328,14.996 89.328,10.229 C89.328,5.483 91.281,2.837 94.788,2.837 L94.788,2.837 Z M94.788,4.223 C92.289,4.223 91.008,6.218 91.008,10.229 C91.008,14.24 92.289,16.277 94.788,16.277 C97.245,16.277 98.547,14.24 98.547,10.229 C98.547,6.218 97.245,4.223 94.788,4.223 Z M107.745,2.837 C111.231,2.837 113.184,5.483 113.184,10.229 C113.184,14.996 111.231,17.642 107.745,17.642 C104.238,17.642 102.285,14.996 102.285,10.229 C102.285,5.483 104.238,2.837 107.745,2.837 Z M107.745,4.223 C105.246,4.223 103.965,6.218 103.965,10.229 C103.965,14.24 105.246,16.277 107.745,16.277 C110.202,16.277 111.504,14.24 111.504,10.229 C111.504,6.218 110.202,4.223 107.745,4.223 Z" id="Shape" fill="#182359" fill-rule="nonzero"></path>
            </g>
            <g id="Group" transform="translate(1.000000, 199.394000)">
                <ellipse id="Oval" fill="url(#linearGradient-1)" fill-rule="nonzero" cx="13.6" cy="13.693" rx="13.6" ry="13.693"></ellipse>
                <polyline id="Shape" stroke="#FFFFFF" stroke-width="2.24" stroke-linecap="round" stroke-linejoin="round" points="6.8 15.198 10.842 19.368 20.478 9.585"></polyline>
            </g>
            <path d="M48.336,206.314 C48.336,205.138 49.492,204.432 51.256,204.432 C52.354,204.432 53.804,204.766 55.039,205.569 L55.706,204.178 C54.686,203.492 53.276,203.002 51.844,202.923 L51.824,200.571 L50.63,200.571 L50.63,202.943 C48.2,203.158 46.612,204.472 46.612,206.432 C46.612,211.352 54.335,209.411 54.315,213.076 C54.315,214.409 53.08,215.212 51.101,215.212 C49.552,215.212 47.808,214.507 46.534,213.292 L45.828,214.644 C47.024,215.781 48.788,216.604 50.63,216.722 L50.63,219.289 L51.826,219.289 L51.846,216.702 C54.354,216.467 56.04,215.075 56.04,212.998 C56.06,208.019 48.337,209.881 48.337,206.314 L48.336,206.314 Z M59.41,202.943 L59.41,204.393 L62.644,204.393 L62.644,216.683 L64.212,216.683 L64.212,202.943 L59.41,202.943 L59.41,202.943 Z M75.325,202.903 C78.579,202.903 80.402,205.373 80.402,209.803 C80.402,214.252 78.579,216.722 75.325,216.722 C72.052,216.722 70.229,214.252 70.229,209.802 C70.229,205.373 72.052,202.904 75.325,202.904 L75.325,202.903 Z M75.325,204.197 C72.993,204.197 71.797,206.059 71.797,209.803 C71.797,213.546 72.993,215.448 75.325,215.448 C77.618,215.448 78.834,213.546 78.834,209.803 C78.834,206.059 77.618,204.197 75.325,204.197 Z M87.418,202.904 C90.672,202.904 92.495,205.374 92.495,209.803 C92.495,214.252 90.672,216.722 87.418,216.722 C84.145,216.722 82.322,214.252 82.322,209.802 C82.322,205.373 84.145,202.904 87.418,202.904 L87.418,202.904 Z M87.418,204.197 C85.086,204.197 83.89,206.059 83.89,209.803 C83.89,213.546 85.086,215.448 87.418,215.448 C89.712,215.448 90.927,213.546 90.927,209.803 C90.927,206.059 89.712,204.197 87.418,204.197 Z M100.59,210.195 L100.59,211.312 L105.196,211.312 L105.196,210.195 L100.59,210.195 Z M115.486,206.314 C115.486,205.138 116.642,204.432 118.406,204.432 C119.504,204.432 120.954,204.766 122.189,205.569 L122.855,204.178 C121.836,203.492 120.425,203.002 118.994,202.923 L118.974,200.571 L117.779,200.571 L117.779,202.943 C115.349,203.158 113.761,204.472 113.761,206.432 C113.761,211.352 121.483,209.411 121.464,213.076 C121.464,214.409 120.229,215.212 118.249,215.212 C116.701,215.212 114.956,214.507 113.682,213.292 L112.977,214.644 C114.172,215.781 115.937,216.604 117.779,216.722 L117.779,219.289 L118.974,219.289 L118.994,216.702 C121.503,216.467 123.188,215.075 123.188,212.998 C123.208,208.019 115.486,209.881 115.486,206.314 L115.486,206.314 Z M127.696,208.352 L127.696,204.393 L134.616,204.393 L134.616,202.943 L126.226,202.943 L126.226,209.96 C127.285,209.724 129.01,209.587 129.97,209.587 C132.146,209.587 133.537,210.646 133.537,212.292 C133.537,214.154 132.146,215.31 129.931,215.31 C128.618,215.31 127.069,214.8 125.874,213.958 L125.227,215.232 C126.599,216.134 128.48,216.722 130.087,216.722 C133.184,216.722 135.184,214.938 135.184,212.194 C135.184,209.842 133.244,208.156 130.205,208.156 C129.519,208.156 128.48,208.216 127.696,208.352 L127.696,208.352 Z M142.475,202.904 C145.728,202.904 147.551,205.374 147.551,209.803 C147.551,214.252 145.728,216.722 142.475,216.722 C139.202,216.722 137.379,214.252 137.379,209.802 C137.379,205.373 139.202,202.904 142.475,202.904 L142.475,202.904 Z M142.475,204.197 C140.142,204.197 138.947,206.059 138.947,209.803 C138.947,213.546 140.142,215.448 142.475,215.448 C144.768,215.448 145.983,213.546 145.983,209.803 C145.983,206.059 144.768,204.197 142.475,204.197 Z M154.568,202.904 C157.822,202.904 159.644,205.374 159.644,209.803 C159.644,214.252 157.822,216.722 154.568,216.722 C151.295,216.722 149.472,214.252 149.472,209.802 C149.472,205.373 151.295,202.904 154.568,202.904 L154.568,202.904 Z M154.568,204.197 C152.236,204.197 151.04,206.059 151.04,209.803 C151.04,213.546 152.236,215.448 154.568,215.448 C156.861,215.448 158.076,213.546 158.076,209.803 C158.076,206.059 156.861,204.197 154.568,204.197 Z" id="Shape" fill="#182359" fill-rule="nonzero"></path>
            <g id="Group" transform="translate(1.000000, 310.000000)">
                <g transform="translate(0.000000, 0.653000)" id="Rectangle-path">
                    <rect fill="#000000" fill-rule="nonzero" x="0" y="0" width="164.9" height="46.215" rx="5.6"></rect>
                    <rect fill="#FFFFFF" fill-rule="nonzero" x="0" y="0" width="164.9" height="46.215" rx="5.6"></rect>
                    <rect stroke="#D4D8E3" stroke-width="1.4" x="0.7" y="0.7" width="163.5" height="44.815" rx="5.6"></rect>
                </g>
                <path d="M39.003,17.423 L39.677,16.018 C38.528,15.245 36.885,14.731 35.281,14.731 C32.41,14.731 30.489,16.117 30.489,18.295 C30.489,23.265 38.291,21.305 38.271,25.007 C38.271,26.353 37.023,27.165 35.024,27.165 C33.459,27.165 31.697,26.452 30.41,25.225 L29.697,26.591 C31.004,27.838 32.984,28.709 35.004,28.709 C37.974,28.709 40.014,27.224 40.014,24.928 C40.033,19.898 32.232,21.779 32.232,18.176 C32.232,16.988 33.4,16.275 35.182,16.275 C36.291,16.275 37.756,16.612 39.003,17.423 L39.003,17.423 Z M48.745,18.176 C46.825,18.196 45.399,18.948 44.685,20.572 L44.685,13.958 L43.142,13.958 L43.142,28.65 L44.686,28.65 L44.686,23.542 C44.686,21.265 45.993,19.681 48.21,19.661 C50.052,19.661 51.16,20.77 51.16,22.631 L51.16,28.65 L52.705,28.65 L52.705,22.235 C52.705,19.7 51.24,18.175 48.745,18.175 L48.745,18.176 Z M60.387,18.176 C63.477,18.176 65.674,20.334 65.674,23.423 C65.674,26.531 63.476,28.709 60.387,28.709 C57.279,28.709 55.101,26.531 55.101,23.423 C55.101,20.334 57.279,18.176 60.387,18.176 L60.387,18.176 Z M60.387,19.542 C58.19,19.542 56.645,21.146 56.645,23.442 C56.645,25.779 58.19,27.363 60.387,27.363 C62.565,27.363 64.13,25.779 64.13,23.443 C64.13,21.146 62.565,19.542 60.387,19.542 L60.387,19.542 Z M66.248,18.235 L70.148,28.65 L71.753,28.65 L74.802,20.116 L77.871,28.65 L79.475,28.65 L83.335,18.235 L81.732,18.235 L78.682,27.085 L75.614,18.235 L73.99,18.235 L70.96,27.085 L67.872,18.235 L66.248,18.235 Z M91.315,14.79 L91.315,28.65 L92.82,28.65 L92.82,17.126 L97.849,27.185 L98.799,27.185 L103.849,17.126 L103.869,28.65 L105.333,28.65 L105.333,14.79 L103.393,14.79 L98.343,24.848 L93.275,14.79 L91.315,14.79 Z M113.57,18.176 C116.659,18.176 118.857,20.334 118.857,23.423 C118.857,26.531 116.659,28.709 113.57,28.709 C110.462,28.709 108.284,26.531 108.284,23.423 C108.284,20.334 110.462,18.176 113.57,18.176 Z M113.57,19.542 C111.372,19.542 109.828,21.146 109.828,23.442 C109.828,25.779 111.372,27.363 113.57,27.363 C115.748,27.363 117.312,25.779 117.312,23.443 C117.312,21.146 115.748,19.542 113.57,19.542 L113.57,19.542 Z M123.114,20.552 L123.114,18.235 L121.569,18.235 L121.569,28.65 L123.114,28.65 L123.114,23.106 C123.292,21.007 124.658,19.641 126.856,19.681 L126.856,18.176 C125.094,18.196 123.806,19.027 123.114,20.552 Z M133.054,18.176 C136.419,18.176 138.083,20.492 137.924,24.016 L129.41,24.016 C129.668,26.076 131.153,27.422 133.192,27.422 C134.479,27.422 135.608,26.947 136.419,26.096 L137.271,26.986 C136.281,28.076 134.816,28.709 133.073,28.709 C130.004,28.709 127.886,26.551 127.886,23.443 C127.886,20.334 130.024,18.196 133.053,18.176 L133.054,18.176 Z M129.41,22.789 L136.538,22.789 C136.439,20.769 135.093,19.463 133.053,19.463 C131.053,19.463 129.628,20.77 129.41,22.789 Z" id="Shape" fill="#182359" fill-rule="nonzero"></path>
            </g>
            <g id="Group" transform="translate(211.000000, 90.000000)">
                <g id="Rectangle-path">
                    <rect fill="#FFFFFF" fill-rule="nonzero" x="0" y="0.199" width="26.824" height="28.795" rx="4.48"></rect>
                    <rect stroke="#D4D8E3" stroke-width="1.4" x="0.7" y="0.899" width="25.424" height="27.395" rx="4.48"></rect>
                </g>
                <path d="M38.685,5.9 L43.599,20.6 L45.321,20.6 L49.331,8.147 L53.301,20.6 L55.023,20.6 L59.958,5.9 L58.215,5.9 L54.225,18.71 L50.193,5.9 L48.513,5.9 L44.523,18.71 L40.491,5.9 L38.685,5.9 L38.685,5.9 Z M67.959,9.491 C65.922,9.512 64.409,10.31 63.654,12.032 L63.654,5.018 L62.016,5.018 L62.016,20.6 L63.654,20.6 L63.654,15.182 C63.654,12.767 65.04,11.087 67.392,11.066 C69.345,11.066 70.521,12.242 70.521,14.216 L70.521,20.6 L72.159,20.6 L72.159,13.796 C72.159,11.108 70.605,9.491 67.959,9.491 L67.959,9.491 Z M76.611,5.27 C76.001,5.27 75.54,5.732 75.54,6.383 C75.54,7.013 76.002,7.496 76.61,7.496 C77.22,7.496 77.682,7.013 77.682,6.383 C77.682,5.732 77.22,5.27 76.611,5.27 L76.611,5.27 Z M75.813,9.554 L75.813,20.6 L77.43,20.6 L77.43,9.554 L75.813,9.554 Z M86.67,18.584 C86.06,18.941 85.473,19.13 84.906,19.151 C83.961,19.151 83.436,18.605 83.436,17.261 L83.436,11.171 L86.943,11.171 L86.943,9.89 L83.436,9.89 L83.436,6.992 L81.819,6.992 L81.819,9.89 L80.223,9.89 L80.223,11.171 L81.819,11.171 L81.819,17.534 C81.819,19.718 83.016,20.684 84.633,20.663 C85.515,20.663 86.355,20.369 87.132,19.844 L86.67,18.584 Z M93.978,9.491 C97.548,9.491 99.312,11.948 99.144,15.686 L90.114,15.686 C90.387,17.87 91.962,19.298 94.124,19.298 C95.49,19.298 96.687,18.794 97.548,17.891 L98.451,18.836 C97.401,19.991 95.847,20.663 93.999,20.663 C90.744,20.663 88.497,18.374 88.497,15.077 C88.497,11.78 90.765,9.512 93.977,9.491 L93.978,9.491 Z M90.114,14.384 L97.674,14.384 C97.569,12.242 96.141,10.856 93.978,10.856 C91.857,10.856 90.345,12.242 90.114,14.384 Z" id="Shape" fill="#182359" fill-rule="nonzero"></path>
                <g transform="translate(0.000000, 55.790000)">
                    <rect id="Rectangle-path" stroke-opacity="0.374" stroke="#9D9DBD" stroke-width="1.4" x="0.7" y="0.899" width="25.424" height="27.395" rx="4.48"></rect>
                    <path d="M46.98,6.9 C49.94,6.9 51.747,8.265 51.747,10.575 C51.747,12.297 50.717,13.536 49.017,13.893 C51.137,14.208 52.377,15.594 52.377,17.61 C52.377,20.109 50.403,21.6 47.064,21.6 L40.784,21.6 L40.784,6.9 L46.98,6.9 Z M46.896,13.263 C48.87,13.263 50.025,12.381 50.025,10.827 C50.025,9.315 48.87,8.454 46.895,8.454 L42.465,8.454 L42.465,13.263 L46.895,13.263 L46.896,13.263 Z M46.896,20.046 C49.29,20.067 50.676,19.101 50.676,17.4 C50.676,15.762 49.29,14.796 46.896,14.817 L42.465,14.817 L42.465,20.046 L46.895,20.046 L46.896,20.046 Z M55.695,6.018 L55.695,21.6 L57.333,21.6 L57.333,6.018 L55.695,6.018 Z M69.89,21.6 L68.294,21.6 L68.294,19.878 C67.412,21.075 66.004,21.663 64.241,21.663 C61.951,21.663 60.481,20.214 60.481,18.324 C60.481,16.392 62.015,15.174 64.619,15.153 L68.252,15.153 L68.252,14.46 C68.252,12.843 67.244,11.856 65.291,11.856 C64.073,11.856 62.939,12.318 61.784,13.137 L61.091,11.982 C62.519,11.037 63.716,10.491 65.606,10.491 C68.336,10.491 69.848,11.94 69.869,14.292 L69.889,21.6 L69.89,21.6 Z M64.556,20.298 C66.425,20.298 67.853,19.374 68.273,17.799 L68.273,16.455 L64.83,16.455 C62.982,16.455 62.016,17.022 62.016,18.261 C62.016,19.479 63.003,20.298 64.556,20.298 Z M81.272,13.263 L82.175,12.129 C81.167,11.1 79.697,10.491 77.912,10.491 C74.72,10.491 72.431,12.801 72.431,16.077 C72.431,19.374 74.699,21.663 77.911,21.663 C79.823,21.663 81.356,20.949 82.343,19.752 L81.398,18.786 C80.621,19.71 79.424,20.214 77.975,20.214 C75.685,20.214 74.048,18.534 74.048,16.077 C74.048,13.641 75.686,11.961 77.975,11.961 C79.319,11.961 80.432,12.444 81.272,13.263 L81.272,13.263 Z M93.18,21.6 L95.133,21.6 L90.555,14.817 L94.692,10.554 L92.76,10.554 L87.069,16.287 L87.069,6.018 L85.43,6.018 L85.43,21.6 L87.068,21.6 L87.068,18.408 L89.398,15.993 L93.178,21.6 L93.18,21.6 Z" id="Shape" fill="#182359" fill-rule="nonzero"></path>
                </g>
                <g transform="translate(0.000000, 167.370000)" id="Rectangle-path">
                    <rect fill="#FFFFFF" fill-rule="nonzero" x="0" y="0.199" width="26.824" height="28.795" rx="4.48"></rect>
                    <rect stroke="#D4D8E3" stroke-width="1.4" x="0.7" y="0.899" width="25.424" height="27.395" rx="4.48"></rect>
                </g>
                <path d="M52.71,186.261 C51.575,187.038 50.168,187.5 48.845,187.5 C45.485,187.5 42.776,184.896 42.776,181.62 C42.776,178.365 45.464,175.761 48.824,175.761 C50.462,175.761 52.079,176.391 53.276,177.462 L54.242,176.244 C52.835,175.005 50.862,174.228 48.824,174.228 C44.498,174.228 41.075,177.483 41.075,181.62 C41.075,185.757 44.477,189.033 48.74,189.033 C50.714,189.033 52.751,188.277 54.2,187.122 L54.2,181.788 L52.71,181.788 L52.71,186.261 L52.71,186.261 Z M59.681,180.381 L59.681,177.924 L58.043,177.924 L58.043,188.97 L59.681,188.97 L59.681,183.09 C59.871,180.864 61.319,179.415 63.651,179.457 L63.651,177.861 C61.781,177.882 60.416,178.764 59.681,180.381 Z M74.318,188.97 L72.722,188.97 L72.722,187.248 C71.84,188.445 70.433,189.033 68.669,189.033 C66.38,189.033 64.91,187.584 64.91,185.694 C64.91,183.762 66.443,182.544 69.047,182.523 L72.68,182.523 L72.68,181.83 C72.68,180.213 71.672,179.226 69.72,179.226 C68.501,179.226 67.367,179.688 66.212,180.507 L65.519,179.352 C66.947,178.407 68.144,177.861 70.034,177.861 C72.764,177.861 74.276,179.31 74.297,181.662 L74.318,188.97 L74.318,188.97 Z M68.984,187.668 C70.854,187.668 72.281,186.744 72.701,185.169 L72.701,183.825 L69.257,183.825 C67.409,183.825 66.443,184.392 66.443,185.631 C66.443,186.849 67.43,187.668 68.984,187.668 L68.984,187.668 Z M81.5,190.545 L86.582,177.924 L84.902,177.924 L81.395,187.122 L77.72,177.924 L75.998,177.924 L80.576,188.886 L80.114,189.936 C79.674,190.986 78.959,191.532 78.098,191.532 C77.552,191.532 77.048,191.364 76.544,191.007 L75.851,192.309 C76.523,192.855 77.258,193.107 78.182,193.107 C79.652,193.107 80.807,192.225 81.5,190.545 L81.5,190.545 Z" id="Shape" fill="#182359" fill-rule="nonzero"></path>
                <g transform="translate(0.000000, 111.000000)">
                    <g transform="translate(0.000000, 0.779000)">
                        <rect id="Rectangle-path" fill="url(#linearGradient-1)" fill-rule="nonzero" x="0" y="0" width="26.824" height="28.795" rx="4.48"></rect>
                        <polyline id="Shape" stroke="#FFFFFF" stroke-width="2.24" stroke-linecap="round" stroke-linejoin="round" points="6.706 15.98 10.692 20.363 20.195 10.078"></polyline>
                    </g>
                    <path d="M47.468,8.059 C50.858,8.059 52.818,9.744 52.818,12.665 C52.818,15.683 50.858,17.427 47.468,17.427 L43.881,17.427 L43.881,21.779 L42.313,21.779 L42.313,8.059 L47.468,8.059 Z M47.408,15.977 C49.878,15.977 51.309,14.86 51.309,12.704 C51.309,10.607 49.879,9.509 47.409,9.509 L43.881,9.509 L43.881,15.977 L47.409,15.977 L47.408,15.977 Z M55.954,7.471 C55.386,7.471 54.954,7.901 54.954,8.509 C54.954,9.097 55.386,9.549 55.954,9.549 C56.523,9.549 56.954,9.097 56.954,8.509 C56.954,7.902 56.523,7.471 55.954,7.471 Z M55.21,11.469 L55.21,21.779 L56.719,21.779 L56.719,11.469 L55.209,11.469 L55.21,11.469 Z M65.97,11.41 C64.088,11.43 62.697,12.175 61.972,13.743 L61.972,11.469 L60.442,11.469 L60.442,21.779 L61.972,21.779 L61.972,16.251 C62.148,14.252 63.402,12.9 65.441,12.881 C67.264,12.881 68.361,13.978 68.361,15.821 L68.361,21.779 L69.891,21.779 L69.891,15.429 C69.891,12.919 68.44,11.41 65.971,11.41 L65.97,11.41 Z M80.63,21.779 L82.454,21.779 L78.181,15.448 L82.042,11.469 L80.239,11.469 L74.927,16.819 L74.927,7.235 L73.398,7.235 L73.398,21.779 L74.928,21.779 L74.928,18.799 L77.103,16.545 L80.631,21.779 L80.63,21.779 Z" id="Shape" fill="#182359" fill-rule="nonzero"></path>
                </g>
            </g>
            <g id="Group" transform="translate(404.000000, 83.000000)" fill-rule="nonzero">
                <path d="M148.517,72.616 L137.254,71.621 L132.852,60.995 L128.451,71.637 L117.188,72.617 L125.741,80.209 L123.171,91.493 L132.852,85.506 L142.532,91.493 L139.98,80.209 L148.517,72.616 Z M109.454,72.616 L98.191,71.621 L93.79,60.995 L89.388,71.637 L78.125,72.617 L86.678,80.209 L84.109,91.493 L93.789,85.506 L103.47,91.493 L100.917,80.209 L109.454,72.616 Z M70.391,72.616 L59.129,71.621 L54.727,60.995 L50.325,71.637 L39.063,72.617 L47.615,80.209 L45.046,91.493 L54.727,85.506 L64.407,91.493 L61.854,80.209 L70.391,72.616 Z M31.329,72.616 L20.066,71.621 L15.664,60.995 L11.263,71.637 L5.68434189e-14,72.617 L8.553,80.209 L5.983,91.493 L15.664,85.506 L25.344,91.493 L22.791,80.209 L31.329,72.616 Z" id="Shape" fill="#FEC168"></path>
                <polygon id="Shape" fill-opacity="0.147" fill="#182359" points="185.72 72.616 174.457 71.621 170.055 60.995 165.653 71.637 154.391 72.617 162.943 80.209 160.375 91.493 170.055 85.506 179.735 91.493 177.182 80.209"></polygon>
                <path d="M208.037,85.407 L207.213,86.23 L204.92,83.957 C203.666,85.309 202.215,86.054 200.667,86.054 C198.393,86.054 196.59,84.466 196.59,82.31 C196.59,80.33 198.1,79.292 199.707,78.43 C198.766,77.195 198.295,76.156 198.295,75.156 C198.295,73.451 199.648,72.216 201.647,72.216 C203.548,72.216 204.822,73.353 204.822,74.96 C204.822,76.822 203.137,77.783 201.412,78.704 C202.255,79.684 203.372,80.821 204.783,82.193 C205.293,81.448 205.763,80.546 206.175,79.527 L207.213,80.311 C206.763,81.35 206.233,82.291 205.665,83.075 L208.037,85.407 L208.037,85.407 Z M199.55,75.157 C199.55,75.96 199.961,76.822 200.745,77.881 C202.255,77.097 203.568,76.352 203.568,74.961 C203.568,73.941 202.823,73.236 201.648,73.236 C200.373,73.236 199.55,74.078 199.55,75.156 L199.55,75.157 Z M200.726,84.858 C201.902,84.858 203.058,84.231 204.058,83.114 C202.529,81.585 201.294,80.331 200.373,79.253 C199.021,79.998 197.883,80.84 197.883,82.213 C197.883,83.761 199.138,84.858 200.726,84.858 L200.726,84.858 Z M217.386,80.35 L217.386,72.275 L215.818,72.275 L215.818,80.35 C215.818,83.937 217.993,86.054 221.6,86.054 C225.187,86.054 227.343,83.937 227.343,80.35 L227.343,72.275 L225.775,72.275 L225.775,80.35 C225.775,83.055 224.207,84.623 221.6,84.623 C218.993,84.623 217.386,83.055 217.386,80.35 L217.386,80.35 Z M236.574,75.627 C239.494,75.627 241.534,77.783 241.534,80.86 C241.534,83.918 239.534,86.054 236.614,86.054 C234.771,86.054 233.36,85.211 232.595,83.78 L232.595,89.798 L231.067,89.798 L231.067,75.686 L232.595,75.686 L232.595,77.9 C233.36,76.47 234.771,75.627 236.575,75.627 L236.574,75.627 Z M236.3,84.702 C238.456,84.702 239.985,83.075 239.985,80.821 C239.985,78.586 238.455,76.94 236.3,76.94 C234.124,76.94 232.595,78.567 232.595,80.82 C232.595,83.094 234.125,84.702 236.3,84.702 Z" id="Shape" fill="#182359"></path>
                <path d="M272.077,71.452 L270.039,71.452 C268.49,73.686 267.648,76.685 267.648,79.939 C267.648,83.192 268.49,86.191 270.038,88.426 L272.078,88.426 C270.646,86.191 269.764,83.192 269.764,79.939 C269.764,76.685 270.646,73.686 272.077,71.452 Z M274.468,72.256 L274.468,74.333 L277.428,74.333 L277.428,85.995 L279.741,85.995 L279.741,72.255 L274.468,72.255 L274.468,72.256 Z M296.616,78.88 L291.383,84.29 L291.383,85.995 L301.438,85.995 L301.438,83.918 L294.421,83.918 L298.184,80.115 C299.694,78.547 300.772,76.999 300.772,75.627 C300.772,73.51 298.949,72.157 296.264,72.157 C294.46,72.157 292.677,72.902 291.148,74.117 L292.088,75.901 C293.265,74.843 294.715,74.196 295.95,74.196 C297.46,74.196 298.36,74.843 298.36,75.96 C298.36,76.744 297.655,77.842 296.616,78.88 L296.616,78.88 Z M306.358,77.312 L306.358,74.333 L312.924,74.333 L312.924,72.256 L304.221,72.256 L304.221,79.527 C305.201,79.41 307.122,79.331 308.004,79.331 C309.886,79.331 311.042,80.194 311.042,81.605 C311.042,83.134 309.886,84.075 307.965,84.075 C306.671,84.075 305.24,83.545 304.084,82.624 L303.144,84.506 C304.554,85.446 306.534,86.074 308.22,86.074 C311.434,86.074 313.512,84.251 313.512,81.448 C313.512,79.057 311.512,77.293 308.396,77.293 C307.866,77.293 306.966,77.293 306.358,77.313 L306.358,77.312 Z M320.607,72.197 C323.919,72.197 325.762,74.667 325.762,79.116 C325.762,83.584 323.919,86.054 320.607,86.054 C317.275,86.054 315.432,83.584 315.432,79.116 C315.432,74.666 317.275,72.196 320.607,72.196 L320.607,72.197 Z M320.607,74 C318.686,74 317.726,75.627 317.726,79.116 C317.726,82.604 318.686,84.251 320.606,84.251 C322.508,84.251 323.468,82.604 323.468,79.116 C323.468,75.626 322.508,74 320.607,74 L320.607,74 Z M328.976,71.452 C330.406,73.686 331.289,76.685 331.289,79.939 C331.289,83.192 330.407,86.191 328.976,88.426 L331.014,88.426 C332.563,86.191 333.406,83.192 333.406,79.939 C333.406,76.685 332.563,73.686 331.014,71.452 L328.976,71.452 Z" id="Shape" fill="#9D9DBD"></path>
                <g id="Shape">
                    <g fill="#FEC168">
                        <path d="M148.517,11.621 L137.254,10.626 L132.852,0 L128.451,10.642 L117.188,11.622 L125.741,19.213 L123.171,30.498 L132.852,24.51 L142.532,30.498 L139.98,19.213 L148.517,11.621 Z M185.72,11.621 L174.457,10.626 L170.055,0 L165.653,10.642 L154.391,11.622 L162.943,19.213 L160.375,30.498 L170.055,24.51 L179.735,30.498 L177.182,19.213 L185.72,11.621 Z M109.454,11.621 L98.191,10.626 L93.79,0 L89.388,10.642 L78.125,11.622 L86.678,19.213 L84.109,30.498 L93.789,24.51 L103.47,30.498 L100.917,19.213 L109.454,11.621 Z M70.391,11.621 L59.129,10.626 L54.727,0 L50.325,10.642 L39.063,11.622 L47.615,19.213 L45.046,30.498 L54.727,24.51 L64.407,30.498 L61.854,19.213 L70.391,11.621 Z M31.329,11.621 L20.066,10.626 L15.664,0 L11.263,10.642 L0,11.622 L8.553,19.213 L5.983,30.498 L15.664,24.51 L25.344,30.498 L22.791,19.213 L31.329,11.621 Z"></path>
                    </g>
                    <path d="M200.392,12.457 L198.354,12.457 C196.805,14.691 195.963,17.69 195.963,20.944 C195.963,24.197 196.805,27.196 198.353,29.43 L200.393,29.43 C198.961,27.196 198.079,24.197 198.079,20.944 C198.079,17.69 198.961,14.691 200.392,12.457 Z M207.193,19.042 L206.39,18.984 L210.8,14.73 L210.8,13.28 L201.784,13.28 L201.804,15.338 L207.919,15.338 L203.901,19.199 L203.901,20.532 L205.9,20.532 C207.997,20.532 209.232,21.296 209.232,22.786 C209.232,24.216 208.017,25.158 205.939,25.158 C204.523382,25.1519821 203.155595,24.64504 202.078,23.727 L201.118,25.608 C202.372,26.51 204.273,27.098 206.096,27.098 C209.408,27.098 211.486,25.314 211.486,22.747 C211.486,20.571 209.761,19.258 207.193,19.042 L207.193,19.042 Z M218.267,13.26 L213.465,21.904 L213.465,23.629 L220.149,23.629 L220.149,27 L222.305,27 L222.305,23.629 L224.343,23.629 L224.343,21.551 L222.325,21.551 L222.305,18.317 L220.149,18.317 L220.169,21.551 L215.955,21.551 L220.502,13.261 L218.267,13.261 L218.267,13.26 Z M228.793,18.317 L228.793,15.338 L235.359,15.338 L235.359,13.26 L226.656,13.26 L226.656,20.532 C227.636,20.414 229.557,20.336 230.439,20.336 C232.321,20.336 233.477,21.198 233.477,22.61 C233.477,24.138 232.321,25.08 230.4,25.08 C229.106,25.08 227.675,24.55 226.52,23.629 L225.578,25.51 C226.989,26.451 228.969,27.078 230.655,27.078 C233.869,27.078 235.947,25.256 235.947,22.453 C235.947,20.062 233.947,18.298 230.831,18.298 C230.301,18.298 229.401,18.298 228.793,18.318 L228.793,18.317 Z M239.318,12.457 C240.748,14.691 241.631,17.69 241.631,20.944 C241.631,24.197 240.749,27.196 239.318,29.43 L241.356,29.43 C242.905,27.196 243.747,24.197 243.747,20.944 C243.747,17.69 242.905,14.691 241.357,12.457 L239.317,12.457 L239.318,12.457 Z" fill="#9D9DBD"></path>
                </g>
                <g transform="translate(0.000000, 121.000000)" id="Shape">
                    <path d="M109.454,12.612 L98.191,11.616 L93.79,0.99 L89.388,11.632 L78.125,12.612 L86.678,20.204 L84.109,31.488 L93.789,25.501 L103.47,31.488 L100.917,20.204 L109.454,12.612 Z M70.391,12.612 L59.129,11.616 L54.727,0.99 L50.325,11.632 L39.063,12.612 L47.615,20.204 L45.046,31.488 L54.727,25.501 L64.407,31.488 L61.854,20.204 L70.391,12.612 Z M31.329,12.612 L20.066,11.616 L15.664,0.99 L11.263,11.632 L5.68434189e-14,12.612 L8.553,20.204 L5.983,31.488 L15.664,25.501 L25.344,31.488 L22.791,20.204 L31.329,12.612 Z" fill="#FEC168"></path>
                    <path d="M185.72,12.612 L174.457,11.616 L170.055,0.99 L165.653,11.632 L154.391,12.612 L162.943,20.204 L160.375,31.488 L170.055,25.501 L179.735,31.488 L177.182,20.204 L185.72,12.612 Z M148.517,12.612 L137.254,11.616 L132.852,0.99 L128.451,11.632 L117.188,12.612 L125.741,20.204 L123.171,31.488 L132.852,25.501 L142.532,31.488 L139.98,20.204 L148.517,12.612 Z" fill-opacity="0.147" fill="#182359"></path>
                    <path d="M208.037,25.402 L207.213,26.226 L204.92,23.952 C203.666,25.304 202.215,26.049 200.667,26.049 C198.393,26.049 196.59,24.462 196.59,22.306 C196.59,20.326 198.1,19.287 199.707,18.425 C198.766,17.19 198.295,16.151 198.295,15.152 C198.295,13.446 199.648,12.212 201.647,12.212 C203.548,12.212 204.822,13.348 204.822,14.956 C204.822,16.818 203.137,17.778 201.412,18.699 C202.255,19.679 203.372,20.816 204.783,22.188 C205.293,21.443 205.763,20.542 206.175,19.522 L207.213,20.306 C206.763,21.346 206.233,22.286 205.665,23.07 L208.037,25.402 L208.037,25.402 Z M199.55,15.152 C199.55,15.955 199.961,16.818 200.745,17.876 C202.255,17.092 203.568,16.347 203.568,14.956 C203.568,13.936 202.823,13.231 201.648,13.231 C200.373,13.231 199.55,14.074 199.55,15.151 L199.55,15.152 Z M200.726,24.854 C201.902,24.854 203.058,24.226 204.058,23.109 C202.529,21.58 201.294,20.326 200.373,19.248 C199.021,19.993 197.883,20.836 197.883,22.208 C197.883,23.756 199.138,24.854 200.726,24.854 Z M217.386,20.346 L217.386,12.27 L215.818,12.27 L215.818,20.346 C215.818,23.932 217.993,26.049 221.6,26.049 C225.187,26.049 227.343,23.932 227.343,20.346 L227.343,12.27 L225.775,12.27 L225.775,20.346 C225.775,23.05 224.207,24.618 221.6,24.618 C218.993,24.618 217.386,23.05 217.386,20.346 L217.386,20.346 Z M236.574,15.622 C239.494,15.622 241.534,17.778 241.534,20.855 C241.534,23.913 239.534,26.049 236.614,26.049 C234.771,26.049 233.36,25.206 232.595,23.776 L232.595,29.793 L231.067,29.793 L231.067,15.68 L232.595,15.68 L232.595,17.895 C233.36,16.464 234.771,15.621 236.575,15.621 L236.574,15.622 Z M236.3,24.697 C238.456,24.697 239.985,23.07 239.985,20.816 C239.985,18.582 238.455,16.936 236.3,16.936 C234.124,16.936 232.595,18.562 232.595,20.816 C232.595,23.09 234.125,24.696 236.3,24.696 L236.3,24.697 Z" fill="#182359"></path>
                    <path d="M272.077,11.447 L270.039,11.447 C268.49,13.682 267.648,16.68 267.648,19.934 C267.648,23.188 268.49,26.186 270.038,28.421 L272.078,28.421 C270.646,26.186 269.764,23.188 269.764,19.934 C269.764,16.68 270.646,13.682 272.077,11.447 Z M278.878,18.033 L278.075,17.973 L282.485,13.721 L282.485,12.271 L273.469,12.271 L273.489,14.328 L279.604,14.328 L275.586,18.19 L275.586,19.522 L277.585,19.522 C279.682,19.522 280.917,20.287 280.917,21.776 C280.917,23.207 279.702,24.148 277.624,24.148 C276.208508,24.1422613 274.840736,23.6356789 273.763,22.718 L272.803,24.598 C274.057,25.5 275.958,26.088 277.781,26.088 C281.093,26.088 283.171,24.305 283.171,21.738 C283.171,19.562 281.446,18.248 278.878,18.033 L278.878,18.033 Z M291.305,12.251 L291.305,16.249 L293.363,16.249 L293.383,14.329 L299.184,14.329 L293.52,25.99 L295.97,25.99 L301.752,14.015 L301.752,12.251 L291.305,12.251 L291.305,12.251 Z M312.532,14.936 C311.689,14.387 310.532,14.074 309.494,14.074 C306.828,14.074 305.574,16.073 305.672,19.052 C306.397,17.758 307.69,17.092 309.415,17.092 C312.159,17.092 313.845,18.797 313.845,21.482 C313.845,24.324 311.924,26.088 309.004,26.088 C305.534,26.088 303.418,23.618 303.418,19.405 C303.418,15.015 305.711,12.153 309.337,12.153 C310.689,12.153 312.316,12.564 313.433,13.192 L312.532,14.936 L312.532,14.936 Z M308.984,18.915 C307.122,18.915 306.024,20.13 306.044,21.541 C306.024,22.737 306.906,24.109 308.886,24.109 C310.552,24.109 311.689,23.129 311.689,21.463 C311.689,19.895 310.65,18.915 308.984,18.915 L308.984,18.915 Z M316.628,12.251 L316.628,14.328 L319.588,14.328 L319.588,25.99 L321.9,25.99 L321.9,12.25 L316.628,12.25 L316.628,12.251 Z M328.976,11.447 C330.406,13.682 331.289,16.68 331.289,19.934 C331.289,23.188 330.407,26.186 328.976,28.421 L331.014,28.421 C332.563,26.186 333.406,23.188 333.406,19.934 C333.406,16.68 332.563,13.682 331.014,11.447 L328.976,11.447 Z" fill="#9D9DBD"></path>
                </g>
                <g transform="translate(0.000000, 182.000000)" id="Shape">
                    <path d="M70.391,12.607 L59.129,11.612 L54.727,0.986 L50.325,11.628 L39.063,12.607 L47.615,20.199 L45.046,31.483 L54.727,25.496 L64.407,31.483 L61.854,20.199 L70.391,12.607 Z M31.329,12.607 L20.066,11.612 L15.664,0.986 L11.263,11.628 L5.68434189e-14,12.607 L8.553,20.199 L5.983,31.483 L15.664,25.496 L25.344,31.483 L22.791,20.199 L31.329,12.607 Z" fill="#FEC168"></path>
                    <path d="M185.72,12.607 L174.457,11.612 L170.055,0.986 L165.653,11.628 L154.391,12.607 L162.943,20.199 L160.375,31.483 L170.055,25.496 L179.735,31.483 L177.182,20.199 L185.72,12.607 Z M148.517,12.607 L137.254,11.612 L132.852,0.986 L128.451,11.628 L117.188,12.607 L125.741,20.199 L123.171,31.483 L132.852,25.496 L142.532,31.483 L139.98,20.199 L148.517,12.607 Z M109.454,12.607 L98.191,11.612 L93.79,0.986 L89.388,11.628 L78.125,12.607 L86.678,20.199 L84.109,31.483 L93.789,25.496 L103.47,31.483 L100.917,20.199 L109.454,12.607 Z" fill-opacity="0.147" fill="#182359"></path>
                    <path d="M208.037,25.398 L207.213,26.221 L204.92,23.947 C203.666,25.3 202.215,26.044 200.667,26.044 C198.393,26.044 196.59,24.457 196.59,22.301 C196.59,20.321 198.1,19.282 199.707,18.42 C198.766,17.185 198.295,16.146 198.295,15.147 C198.295,13.442 199.648,12.207 201.647,12.207 C203.548,12.207 204.822,13.344 204.822,14.951 C204.822,16.813 203.137,17.773 201.412,18.694 C202.255,19.674 203.372,20.811 204.783,22.184 C205.293,21.438 205.763,20.537 206.175,19.518 L207.213,20.302 C206.763,21.34 206.233,22.282 205.665,23.065 L208.037,25.398 L208.037,25.398 Z M199.55,15.147 C199.55,15.95 199.961,16.813 200.745,17.871 C202.255,17.087 203.568,16.342 203.568,14.951 C203.568,13.931 202.823,13.226 201.648,13.226 C200.373,13.226 199.55,14.069 199.55,15.146 L199.55,15.147 Z M200.726,24.849 C201.902,24.849 203.058,24.222 204.058,23.104 C202.529,21.576 201.294,20.321 200.373,19.244 C199.021,19.988 197.883,20.831 197.883,22.203 C197.883,23.751 199.138,24.849 200.726,24.849 Z M217.386,20.341 L217.386,12.266 L215.818,12.266 L215.818,20.341 C215.818,23.928 217.993,26.044 221.6,26.044 C225.187,26.044 227.343,23.928 227.343,20.341 L227.343,12.266 L225.775,12.266 L225.775,20.341 C225.775,23.046 224.207,24.614 221.6,24.614 C218.993,24.614 217.386,23.046 217.386,20.341 L217.386,20.341 Z M236.574,15.617 C239.494,15.617 241.534,17.773 241.534,20.85 C241.534,23.908 239.534,26.044 236.614,26.044 C234.771,26.044 233.36,25.202 232.595,23.771 L232.595,29.788 L231.067,29.788 L231.067,15.676 L232.595,15.676 L232.595,17.891 C233.36,16.46 234.771,15.617 236.575,15.617 L236.574,15.617 Z M236.3,24.692 C238.456,24.692 239.985,23.065 239.985,20.812 C239.985,18.577 238.455,16.93 236.3,16.93 C234.124,16.93 232.595,18.557 232.595,20.811 C232.595,23.085 234.125,24.691 236.3,24.691 L236.3,24.692 Z" fill="#182359"></path>
                    <path d="M272.077,11.442 L270.039,11.442 C268.49,13.677 267.648,16.676 267.648,19.929 C267.648,23.183 268.49,26.182 270.038,28.416 L272.078,28.416 C270.646,26.182 269.764,23.183 269.764,19.929 C269.764,16.676 270.646,13.677 272.077,11.442 Z M277.859,12.246 L273.057,20.89 L273.057,22.614 L279.741,22.614 L279.741,25.986 L281.897,25.986 L281.897,22.614 L283.935,22.614 L283.935,20.537 L281.916,20.537 L281.896,17.303 L279.741,17.303 L279.761,20.537 L275.546,20.537 L280.094,12.246 L277.859,12.246 L277.859,12.246 Z M292.461,23.3 C293.304,23.85 294.441,24.163 295.48,24.163 C298.126,24.163 299.36,22.163 299.282,19.184 C298.557,20.478 297.282,21.144 295.558,21.144 C292.834,21.144 291.168,19.42 291.168,16.754 C291.168,13.912 293.068,12.148 295.97,12.148 C299.42,12.148 301.536,14.618 301.536,18.832 C301.536,23.222 299.243,26.084 295.636,26.084 C294.284,26.084 292.676,25.672 291.56,25.044 L292.461,23.3 Z M296.087,14.128 C294.441,14.128 293.324,15.108 293.324,16.774 C293.324,18.342 294.343,19.322 295.989,19.322 C297.851,19.322 298.929,18.106 298.909,16.695 C298.929,15.5 298.067,14.128 296.087,14.128 L296.087,14.128 Z M306.357,17.303 L306.357,14.323 L312.924,14.323 L312.924,12.246 L304.221,12.246 L304.221,19.518 C305.201,19.4 307.122,19.322 308.004,19.322 C309.886,19.322 311.042,20.184 311.042,21.595 C311.042,23.124 309.886,24.065 307.965,24.065 C306.671,24.065 305.24,23.535 304.084,22.615 L303.144,24.495 C304.554,25.437 306.534,26.064 308.22,26.064 C311.434,26.064 313.512,24.241 313.512,21.438 C313.512,19.048 311.512,17.283 308.396,17.283 C307.866,17.283 306.966,17.283 306.358,17.303 L306.357,17.303 Z M324.625,14.931 C323.782,14.382 322.625,14.069 321.587,14.069 C318.921,14.069 317.667,16.068 317.765,19.047 C318.49,17.754 319.784,17.087 321.508,17.087 C324.252,17.087 325.938,18.792 325.938,21.477 C325.938,24.32 324.018,26.084 321.097,26.084 C317.627,26.084 315.511,23.614 315.511,19.4 C315.511,15.01 317.804,12.148 321.43,12.148 C322.782,12.148 324.41,12.56 325.526,13.187 L324.625,14.931 Z M321.077,18.91 C319.215,18.91 318.117,20.125 318.137,21.536 C318.117,22.732 319,24.104 320.979,24.104 C322.645,24.104 323.782,23.124 323.782,21.458 C323.782,19.89 322.743,18.91 321.077,18.91 L321.077,18.91 Z M328.976,11.442 C330.406,13.677 331.289,16.676 331.289,19.929 C331.289,23.183 330.407,26.182 328.976,28.416 L331.014,28.416 C332.563,26.182 333.406,23.183 333.406,19.929 C333.406,16.676 332.563,13.677 331.014,11.442 L328.976,11.442 Z" fill="#9D9DBD"></path>
                </g>
                <g transform="translate(0.000000, 243.000000)" id="Shape">
                    <polygon fill="url(#linearGradient-2)" points="31.329 12.601 20.066 11.606 15.664 0.98 11.263 11.622 0 12.602 8.553 20.193 5.983 31.478 15.664 25.49 25.344 31.478 22.791 20.193"></polygon>
                    <path d="M185.72,12.602 L174.457,11.607 L170.055,0.981 L165.653,11.623 L154.391,12.602 L162.943,20.194 L160.375,31.478 L170.055,25.491 L179.735,31.478 L177.182,20.194 L185.72,12.602 Z M148.517,12.602 L137.254,11.607 L132.852,0.981 L128.451,11.623 L117.188,12.602 L125.741,20.194 L123.171,31.478 L132.852,25.491 L142.532,31.478 L139.98,20.194 L148.517,12.602 Z M109.454,12.602 L98.191,11.607 L93.79,0.981 L89.388,11.623 L78.125,12.602 L86.678,20.194 L84.109,31.478 L93.789,25.491 L103.47,31.478 L100.917,20.194 L109.454,12.602 Z M70.391,12.602 L59.129,11.607 L54.727,0.981 L50.325,11.623 L39.063,12.602 L47.615,20.194 L45.046,31.478 L54.727,25.491 L64.407,31.478 L61.854,20.194 L70.391,12.602 Z" fill-opacity="0.398" fill="#9D9DBD"></path>
                    <path d="M208.037,25.393 L207.213,26.216 L204.92,23.942 C203.666,25.295 202.215,26.039 200.667,26.039 C198.393,26.039 196.59,24.452 196.59,22.296 C196.59,20.316 198.1,19.277 199.707,18.416 C198.766,17.18 198.295,16.141 198.295,15.142 C198.295,13.437 199.648,12.202 201.647,12.202 C203.548,12.202 204.822,13.339 204.822,14.946 C204.822,16.808 203.137,17.768 201.412,18.689 C202.255,19.669 203.372,20.806 204.783,22.179 C205.293,21.433 205.763,20.532 206.175,19.513 L207.213,20.297 C206.763,21.335 206.233,22.277 205.665,23.06 L208.037,25.393 L208.037,25.393 Z M199.55,15.142 C199.55,15.945 199.961,16.808 200.745,17.866 C202.255,17.082 203.568,16.337 203.568,14.946 C203.568,13.926 202.823,13.221 201.648,13.221 C200.373,13.221 199.55,14.064 199.55,15.141 L199.55,15.142 Z M200.726,24.844 C201.902,24.844 203.058,24.217 204.058,23.099 C202.529,21.571 201.294,20.316 200.373,19.239 C199.021,19.983 197.883,20.826 197.883,22.198 C197.883,23.746 199.138,24.844 200.726,24.844 Z M217.386,20.336 L217.386,12.261 L215.818,12.261 L215.818,20.336 C215.818,23.923 217.993,26.039 221.6,26.039 C225.187,26.039 227.343,23.923 227.343,20.336 L227.343,12.261 L225.775,12.261 L225.775,20.336 C225.775,23.041 224.207,24.609 221.6,24.609 C218.993,24.609 217.386,23.041 217.386,20.336 L217.386,20.336 Z M236.574,15.612 C239.494,15.612 241.534,17.768 241.534,20.845 C241.534,23.903 239.534,26.039 236.614,26.039 C234.771,26.039 233.36,25.197 232.595,23.766 L232.595,29.783 L231.067,29.783 L231.067,15.671 L232.595,15.671 L232.595,17.886 C233.36,16.456 234.771,15.612 236.575,15.612 L236.574,15.612 Z M236.3,24.687 C238.456,24.687 239.985,23.06 239.985,20.807 C239.985,18.572 238.455,16.925 236.3,16.925 C234.124,16.925 232.595,18.552 232.595,20.806 C232.595,23.08 234.125,24.687 236.3,24.687 L236.3,24.687 Z M271.568,11.437 L270.176,11.437 C268.666,13.633 267.844,16.631 267.844,19.924 C267.844,23.217 268.667,26.216 270.176,28.411 L271.568,28.411 C270.137,26.216 269.294,23.217 269.294,19.924 C269.294,16.631 270.137,13.633 271.568,11.437 Z M282.171,14.377 C281.25,13.848 280.054,13.535 278.976,13.535 C275.978,13.535 274.488,15.985 274.723,19.787 C275.331,18.121 276.82,17.2 278.878,17.2 C281.603,17.2 283.288,18.866 283.288,21.531 C283.288,24.315 281.426,26.039 278.584,26.039 C275.214,26.039 273.155,23.649 273.155,19.434 C273.155,15.044 275.35,12.182 278.878,12.182 C280.152,12.182 281.662,12.574 282.798,13.162 L282.171,14.377 L282.171,14.377 Z M278.604,18.474 C276.389,18.474 275.076,19.964 275.076,21.61 C275.076,22.943 276.096,24.667 278.486,24.667 C280.446,24.667 281.818,23.472 281.818,21.492 C281.818,19.63 280.564,18.474 278.604,18.474 L278.604,18.474 Z M292.265,12.241 L292.265,13.691 L295.499,13.691 L295.499,25.981 L297.067,25.981 L297.067,12.241 L292.265,12.241 Z M312.238,14.377 C311.316,13.848 310.121,13.535 309.043,13.535 C306.044,13.535 304.554,15.985 304.79,19.787 C305.397,18.121 306.887,17.2 308.945,17.2 C311.669,17.2 313.355,18.866 313.355,21.531 C313.355,24.315 311.493,26.039 308.651,26.039 C305.28,26.039 303.221,23.649 303.221,19.434 C303.221,15.044 305.417,12.182 308.945,12.182 C310.219,12.182 311.728,12.574 312.865,13.162 L312.238,14.377 Z M308.67,18.474 C306.456,18.474 305.142,19.964 305.142,21.61 C305.142,22.943 306.162,24.667 308.552,24.667 C310.512,24.667 311.885,23.472 311.885,21.492 C311.885,19.63 310.63,18.474 308.67,18.474 L308.67,18.474 Z M320.254,12.182 C322.978,12.182 324.664,13.476 324.664,15.632 C324.664,17.062 323.821,18.102 322.449,18.631 C324.233,19.16 325.33,20.414 325.33,22.139 C325.33,24.569 323.39,26.039 320.274,26.039 C317.157,26.039 315.217,24.589 315.217,22.159 C315.217,20.414 316.334,19.159 318.157,18.631 C316.726,18.081 315.864,17.023 315.864,15.573 C315.864,13.476 317.569,12.183 320.254,12.183 L320.254,12.182 Z M320.274,13.378 C318.353,13.378 317.216,14.24 317.216,15.73 C317.216,17.2 318.353,18.082 320.274,18.082 C322.194,18.082 323.312,17.2 323.312,15.73 C323.312,14.24 322.194,13.378 320.274,13.378 Z M320.254,19.356 C318.02,19.356 316.687,20.356 316.687,22.002 C316.687,23.746 318.02,24.765 320.274,24.765 C322.508,24.765 323.841,23.746 323.841,22.021 C323.841,20.375 322.508,19.356 320.254,19.356 L320.254,19.356 Z M328.035,11.437 C329.466,13.633 330.309,16.631 330.309,19.924 C330.309,23.217 329.466,26.216 328.035,28.411 L329.427,28.411 C330.936,26.216 331.759,23.217 331.759,19.924 C331.759,16.631 330.936,13.633 329.427,11.437 L328.035,11.437 Z" fill="#182359"></path>
                </g>
            </g>
        </g>
    </g>
</svg>