<svg xmlns="http://www.w3.org/2000/svg" width="247" height="50" viewBox="0 0 247 50">
  <defs>
    <linearGradient id="a" x1="-37.75%" x2="130.239%" y1="134.936%" y2="-27.7%">
      <stop stop-color="#00AEFF" offset="0%"/>
      <stop stop-color="#3369E7" offset="100%"/>
    </linearGradient>
  </defs>
  <g fill="none" fill-rule="evenodd" transform="translate(0 -1)">
    <g transform="translate(0 1)">
      <path fill="url(#a)" d="M6.66575081,0 L43.9570941,0 C47.6278647,0 50.6228449,2.94206855 50.6228449,6.58174098 L50.6228449,43.418259 C50.6228449,47.0427662 47.6432236,50 43.9570941,50 L6.66575081,50 C2.9949802,50 0,47.0579315 0,43.418259 L0,6.56657567 C0,2.94206855 2.97962133,0 6.66575081,0 Z"/>
      <g fill="#FFFFFF" fill-rule="nonzero" transform="translate(9.871 10.87)">
        <path d="M15.4643678 12.237037C16.1770115 12.237037 16.854023 12.0987654 17.5310345 11.891358L18.6712644 13.7925926 19.4551724 15.1061728C19.6689655 15.4864198 20.0609195 15.6938272 20.4885057 15.6938272 20.7022989 15.6938272 20.8804598 15.6592593 21.0942529 15.5555556 21.6643678 15.2444444 21.8425287 14.5185185 21.5218391 13.9654321L20.737931 12.6518519 19.5977011 10.7160494C20.916092 9.60987654 21.7712644 7.95061728 21.7712644 6.11851852 21.7712644 2.7654321 18.9563218.0345679012 15.5.0345679012 12.0436782.0345679012 9.19310345 2.7654321 9.19310345 6.15308642 9.19310345 9.54074074 12.008046 12.237037 15.4643678 12.237037zM15.4643678 2.35061728C17.6022989 2.35061728 19.3482759 4.04444444 19.3482759 6.11851852 19.3482759 8.19259259 17.6022989 9.88641975 15.4643678 9.88641975 13.3264368 9.88641975 11.5804598 8.19259259 11.5804598 6.11851852 11.5804598 4.04444444 13.3264368 2.35061728 15.4643678 2.35061728zM24.6931034 15.4864198C21.6287356 15.4864198 19.0988506 17.6296296 18.5287356 20.4296296L16.283908 20.4296296 14.716092 20.4296296C14.0747126 20.4296296 13.5402299 20.9481481 13.5402299 21.5703704 13.5402299 22.1925926 14.0747126 22.7111111 14.716092 22.7111111L16.283908 22.7111111 18.5287356 22.7111111C19.0988506 25.5111111 21.6287356 27.654321 24.6931034 27.654321 28.1494253 27.654321 30.9643678 24.9234568 30.9643678 21.5703704 30.9643678 18.217284 28.1494253 15.4864198 24.6931034 15.4864198zM24.6931034 25.3728395C22.5551724 25.3728395 20.8091954 23.6790123 20.8091954 21.6049383 20.8091954 19.5308642 22.5551724 17.837037 24.6931034 17.837037 26.8310345 17.837037 28.5770115 19.5308642 28.5770115 21.6049383 28.5770115 23.6790123 26.8310345 25.3728395 24.6931034 25.3728395zM10.4045977 17.0074074C11.7229885 18.1135802 12.5781609 19.7382716 12.5425287 21.6049383 12.5425287 24.9580247 9.72758621 27.6888889 6.27126437 27.6888889 2.81494253 27.6888889 0 24.9925926 0 21.6049383 0 18.217284 2.81494253 15.4864198 6.27126437 15.4864198 7.01954023 15.4864198 7.69655172 15.6246914 8.33793103 15.8320988L9.47816092 13.9308642 10.262069 12.617284C10.6183908 12.0641975 11.3310345 11.891358 11.9011494 12.2024691 12.4712644 12.5481481 12.6494253 13.2395062 12.3287356 13.7925926L11.5448276 15.1061728 10.4045977 17.0074074zM6.27126437 25.3728395C8.44482759 25.3728395 10.1908046 23.6790123 10.1551724 21.6049383 10.1551724 19.5308642 8.4091954 17.837037 6.27126437 17.837037 4.13333333 17.837037 2.38735632 19.5308642 2.38735632 21.6049383 2.38735632 23.6790123 4.13333333 25.3728395 6.27126437 25.3728395z"/>
      </g>
    </g>
    <text fill="#3E396B" font-family="Montserrat-SemiBold, Montserrat" font-size="24" font-weight="500">
      <tspan x="78" y="23">InstantSearch</tspan>
    </text>
    <text fill="#8995C7" font-family="Montserrat-Regular, Montserrat" font-size="16">
      <tspan x="78" y="47">by Algolia</tspan>
    </text>
  </g>
</svg>
