<?xml version="1.0" encoding="UTF-8"?>
<svg width="245px" height="50px" viewBox="0 0 245 50" version="1.1" xmlns="http://www.w3.org/2000/svg" xmlns:xlink="http://www.w3.org/1999/xlink">
    <!-- Generator: Sketch 44.1 (41455) - http://www.bohemiancoding.com/sketch -->
    <title>InstantSearch-Generic</title>
    <desc>Created with Sketch.</desc>
    <defs>
        <linearGradient x1="-35.603996%" y1="134.936%" x2="128.276684%" y2="-27.7%" id="linearGradient-1">
            <stop stop-color="#00AEFF" offset="0%"></stop>
            <stop stop-color="#3369E7" offset="100%"></stop>
        </linearGradient>
    </defs>
    <g id="Page-1" stroke="none" stroke-width="1" fill="none" fill-rule="evenodd">
        <g id="InstantSearch-Generic">
            <g id="Group" fill-rule="nonzero">
                <path d="M6.66575081,0 L43.9570941,0 C47.6278647,0 50.6228449,2.94206855 50.6228449,6.58174098 L50.6228449,43.418259 C50.6228449,47.0427662 47.6432236,50 43.9570941,50 L6.66575081,50 C2.9949802,50 0,47.0579315 0,43.418259 L0,6.56657567 C0,2.94206855 2.97962133,0 6.66575081,0 Z" id="Shape" fill="url(#linearGradient-1)"></path>
                <g transform="translate(9.871000, 10.870000)" id="Shape" fill="#FFFFFF">
                    <path d="M15.4643678,12.237037 C16.1770115,12.237037 16.854023,12.0987654 17.5310345,11.891358 L18.6712644,13.7925926 L19.4551724,15.1061728 C19.6689655,15.4864198 20.0609195,15.6938272 20.4885057,15.6938272 C20.7022989,15.6938272 20.8804598,15.6592593 21.0942529,15.5555556 C21.6643678,15.2444444 21.8425287,14.5185185 21.5218391,13.9654321 L20.737931,12.6518519 L19.5977011,10.7160494 C20.916092,9.60987654 21.7712644,7.95061728 21.7712644,6.11851852 C21.7712644,2.7654321 18.9563218,0.0345679012 15.5,0.0345679012 C12.0436782,0.0345679012 9.19310345,2.7654321 9.19310345,6.15308642 C9.19310345,9.54074074 12.008046,12.237037 15.4643678,12.237037 Z M15.4643678,2.35061728 C17.6022989,2.35061728 19.3482759,4.04444444 19.3482759,6.11851852 C19.3482759,8.19259259 17.6022989,9.88641975 15.4643678,9.88641975 C13.3264368,9.88641975 11.5804598,8.19259259 11.5804598,6.11851852 C11.5804598,4.04444444 13.3264368,2.35061728 15.4643678,2.35061728 Z M24.6931034,15.4864198 C21.6287356,15.4864198 19.0988506,17.6296296 18.5287356,20.4296296 L16.283908,20.4296296 L14.716092,20.4296296 C14.0747126,20.4296296 13.5402299,20.9481481 13.5402299,21.5703704 C13.5402299,22.1925926 14.0747126,22.7111111 14.716092,22.7111111 L16.283908,22.7111111 L18.5287356,22.7111111 C19.0988506,25.5111111 21.6287356,27.654321 24.6931034,27.654321 C28.1494253,27.654321 30.9643678,24.9234568 30.9643678,21.5703704 C30.9643678,18.217284 28.1494253,15.4864198 24.6931034,15.4864198 Z M24.6931034,25.3728395 C22.5551724,25.3728395 20.8091954,23.6790123 20.8091954,21.6049383 C20.8091954,19.5308642 22.5551724,17.837037 24.6931034,17.837037 C26.8310345,17.837037 28.5770115,19.5308642 28.5770115,21.6049383 C28.5770115,23.6790123 26.8310345,25.3728395 24.6931034,25.3728395 Z M10.4045977,17.0074074 C11.7229885,18.1135802 12.5781609,19.7382716 12.5425287,21.6049383 C12.5425287,24.9580247 9.72758621,27.6888889 6.27126437,27.6888889 C2.81494253,27.6888889 0,24.9925926 0,21.6049383 C0,18.217284 2.81494253,15.4864198 6.27126437,15.4864198 C7.01954023,15.4864198 7.69655172,15.6246914 8.33793103,15.8320988 L9.47816092,13.9308642 L10.262069,12.617284 C10.6183908,12.0641975 11.3310345,11.891358 11.9011494,12.2024691 C12.4712644,12.5481481 12.6494253,13.2395062 12.3287356,13.7925926 L11.5448276,15.1061728 L10.4045977,17.0074074 Z M6.27126437,25.3728395 C8.44482759,25.3728395 10.1908046,23.6790123 10.1551724,21.6049383 C10.1551724,19.5308642 8.4091954,17.837037 6.27126437,17.837037 C4.13333333,17.837037 2.38735632,19.5308642 2.38735632,21.6049383 C2.38735632,23.6790123 4.13333333,25.3728395 6.27126437,25.3728395 Z"></path>
                </g>
            </g>
            <g id="Group" transform="translate(80.000000, 4.000000)" fill="#3E396B">
                <path d="M0.064,1.2 L0.064,18 L3.28,18 L3.28,1.2 L0.064,1.2 Z M15.016,5.04 C12.928,5.064 11.32,5.856 10.408,7.56 L10.408,5.16 L7.288,5.16 L7.288,18 L10.408,18 L10.408,11.688 C10.408,9.576 11.656,8.016 13.768,7.992 C15.544,7.992 16.624,9.096 16.624,10.896 L16.624,18 L19.768,18 L19.768,9.984 C19.768,6.936 17.968,5.04 15.016,5.04 Z M30.88,8.64 L32.008,6.384 C30.736,5.52 28.984,5.016 27.304,5.016 C24.712,5.016 22.456,6.24 22.456,8.88 C22.432,13.44 29.128,12.144 29.128,14.52 C29.128,15.36 28.312,15.72 27.232,15.72 C25.84,15.72 24.064,15.144 22.888,14.136 L21.808,16.32 C23.152,17.496 25.168,18.12 27.112,18.12 C29.848,18.12 32.176,16.848 32.176,14.232 C32.176,9.624 25.384,10.752 25.384,8.592 C25.384,7.8 26.104,7.464 27.112,7.464 C28.216,7.464 29.632,7.896 30.88,8.64 Z M41.632,14.856 C40.936,15.192 40.336,15.384 39.808,15.384 C38.968,15.384 38.464,14.976 38.464,13.752 L38.464,7.968 L42.136,7.968 L42.136,5.688 L38.464,5.688 L38.464,2.16 L35.368,2.16 L35.368,5.688 L33.544,5.688 L33.568,7.968 L35.368,7.968 L35.368,14.304 C35.368,16.944 37.048,18.144 39.136,18.144 C40.264,18.144 41.368,17.808 42.352,17.208 L41.632,14.856 Z M55.456,18 L52.384,18 L52.384,16.44 C51.496,17.568 50.056,18.144 48.232,18.144 C45.472,18.144 43.744,16.44 43.744,14.16 C43.744,11.784 45.496,10.32 48.616,10.296 L52.36,10.296 L52.36,9.96 C52.36,8.472 51.376,7.584 49.456,7.584 C48.256,7.584 46.96,7.992 45.64,8.784 L44.512,6.624 C46.36,5.592 47.8,5.04 50.152,5.04 C53.512,5.04 55.408,6.744 55.432,9.6 L55.456,18 Z M48.976,15.744 C50.776,15.744 52.192,14.784 52.36,13.536 L52.36,12.384 L49.12,12.384 C47.464,12.384 46.696,12.84 46.696,13.968 C46.696,15.048 47.56,15.744 48.976,15.744 Z M66.688,5.04 C64.6,5.064 62.992,5.856 62.08,7.56 L62.08,5.16 L58.96,5.16 L58.96,18 L62.08,18 L62.08,11.688 C62.08,9.576 63.328,8.016 65.44,7.992 C67.216,7.992 68.296,9.096 68.296,10.896 L68.296,18 L71.44,18 L71.44,9.984 C71.44,6.936 69.64,5.04 66.688,5.04 Z M81.736,14.856 C81.04,15.192 80.44,15.384 79.912,15.384 C79.072,15.384 78.568,14.976 78.568,13.752 L78.568,7.968 L82.24,7.968 L82.24,5.688 L78.568,5.688 L78.568,2.16 L75.472,2.16 L75.472,5.688 L73.648,5.688 L73.672,7.968 L75.472,7.968 L75.472,14.304 C75.472,16.944 77.152,18.144 79.24,18.144 C80.368,18.144 81.472,17.808 82.456,17.208 L81.736,14.856 Z M95.584,5.616 L96.88,2.832 C95.272,1.776 93.04,1.056 90.808,1.056 C87.04,1.056 84.52,2.928 84.52,5.856 C84.52,11.832 93.544,9.84 93.544,13.344 C93.544,14.52 92.464,15.192 90.664,15.192 C88.864,15.192 86.584,14.256 84.856,12.72 L83.512,15.432 C85.312,17.04 87.928,18.12 90.616,18.12 C94.312,18.12 97.048,16.296 97.048,13.152 C97.072,7.128 88.048,8.976 88.048,5.568 C88.048,4.536 89.032,3.984 90.544,3.984 C91.84,3.984 93.784,4.536 95.584,5.616 Z M105.328,5.064 C109.84,5.064 111.784,8.016 111.472,12.672 L101.992,12.672 C102.4,14.496 103.792,15.6 105.664,15.6 C106.984,15.6 108.208,15.096 109.12,14.16 L110.8,15.912 C109.528,17.304 107.656,18.12 105.4,18.12 C101.416,18.12 98.8,15.48 98.8,11.616 C98.8,7.704 101.488,5.064 105.328,5.064 Z M101.92,10.584 L108.64,10.584 C108.568,8.688 107.296,7.488 105.352,7.488 C103.504,7.488 102.208,8.688 101.92,10.584 Z M124.84,18 L121.768,18 L121.768,16.44 C120.88,17.568 119.44,18.144 117.616,18.144 C114.856,18.144 113.128,16.44 113.128,14.16 C113.128,11.784 114.88,10.32 118,10.296 L121.744,10.296 L121.744,9.96 C121.744,8.472 120.76,7.584 118.84,7.584 C117.64,7.584 116.344,7.992 115.024,8.784 L113.896,6.624 C115.744,5.592 117.184,5.04 119.536,5.04 C122.896,5.04 124.792,6.744 124.816,9.6 L124.84,18 Z M118.36,15.744 C120.16,15.744 121.576,14.784 121.744,13.536 L121.744,12.384 L118.504,12.384 C116.848,12.384 116.08,12.84 116.08,13.968 C116.08,15.048 116.944,15.744 118.36,15.744 Z M131.464,7.632 L131.464,5.16 L128.344,5.16 L128.344,18 L131.464,18 L131.464,11.808 C131.464,9.48 133.12,7.896 135.832,8.064 L135.832,5.04 C133.84,5.064 132.328,5.952 131.464,7.632 Z M146.848,9.216 L148.744,7.416 C147.592,5.928 145.72,5.064 143.368,5.064 C139.504,5.064 136.84,7.704 136.84,11.616 C136.84,15.48 139.48,18.12 143.32,18.12 C145.84,18.12 147.76,17.16 148.888,15.528 L146.944,13.92 C146.176,14.928 144.976,15.432 143.488,15.432 C141.424,15.432 139.984,13.896 139.984,11.592 C139.984,9.336 141.424,7.8 143.488,7.8 C144.904,7.8 146.032,8.328 146.848,9.216 Z M159.424,5.04 C157.312,5.064 155.704,5.856 154.792,7.608 L154.792,0.192 L151.672,0.192 L151.672,18 L154.792,18 L154.792,11.688 C154.792,9.576 156.064,8.016 158.176,7.992 C159.952,7.992 161.032,9.096 161.032,10.896 L161.032,18 L164.176,18 L164.176,9.984 C164.176,6.936 162.376,5.04 159.424,5.04 Z" id="InstantSearch"></path>
            </g>
            <g id="Group" transform="translate(79.000000, 33.000000)" fill="#8995C7">
                <path d="M5.256,4.424 C7.672,4.424 9.32,6.184 9.32,8.776 C9.32,11.32 7.72,13.064 5.288,13.064 C3.928,13.064 2.904,12.52 2.28,11.528 L2.28,13 L0.44,13 L0.44,1.128 L2.28,1.128 L2.28,5.96 C2.904,4.968 3.928,4.424 5.256,4.424 Z M4.872,11.496 C6.392,11.496 7.464,10.344 7.464,8.712 C7.464,7.128 6.392,5.96 4.872,5.96 C3.352,5.96 2.28,7.112 2.28,8.712 C2.28,10.36 3.352,11.496 4.872,11.496 Z M14.264,14.168 L18.136,4.488 L16.296,4.488 L13.928,10.936 L11.384,4.488 L9.48,4.488 L13,12.872 L12.712,13.512 C12.424,14.152 11.976,14.456 11.416,14.456 C11.032,14.456 10.712,14.328 10.312,14.04 L9.528,15.464 C10.12,15.96 10.728,16.184 11.496,16.184 C12.776,16.184 13.736,15.512 14.264,14.168 Z M32.632,13 L31.56,10.472 L25.912,10.472 L24.84,13 L22.872,13 L27.816,1.8 L29.752,1.8 L34.648,13 L32.632,13 Z M26.616,8.792 L30.84,8.792 L28.728,3.816 L26.616,8.792 Z M36.104,1.128 L36.104,13 L37.944,13 L37.944,1.128 L36.104,1.128 Z M46.6,4.488 L48.424,4.488 L48.424,12.168 C48.424,14.616 46.68,16.152 44.008,16.152 C42.68,16.152 41.512,15.736 40.472,15.032 L41.256,13.704 C42.056,14.296 42.888,14.632 43.928,14.632 C45.544,14.632 46.6,13.688 46.6,12.216 L46.6,11.144 C46.024,12.072 45.064,12.584 43.784,12.584 C41.48,12.584 39.944,10.92 39.944,8.472 C39.944,6.072 41.464,4.44 43.72,4.424 C45.032,4.408 46.008,4.936 46.6,5.864 L46.6,4.488 Z M44.152,11.144 C45.592,11.144 46.6,10.056 46.6,8.52 C46.6,6.984 45.592,5.912 44.152,5.912 C42.696,5.912 41.688,7 41.672,8.52 C41.688,10.056 42.68,11.144 44.152,11.144 Z M54.632,4.424 C57.256,4.424 59.064,6.168 59.064,8.728 C59.064,11.304 57.256,13.064 54.632,13.064 C51.992,13.064 50.184,11.304 50.184,8.728 C50.184,6.168 51.992,4.424 54.632,4.424 Z M54.632,5.992 C53.096,5.992 52.024,7.128 52.024,8.76 C52.024,10.408 53.096,11.528 54.632,11.528 C56.152,11.528 57.224,10.408 57.224,8.76 C57.224,7.128 56.152,5.992 54.632,5.992 Z M61.064,1.128 L61.064,13 L62.904,13 L62.904,1.128 L61.064,1.128 Z M66.616,0.952 C66.008,0.952 65.544,1.416 65.544,2.056 C65.544,2.68 66.008,3.144 66.616,3.144 C67.224,3.144 67.688,2.68 67.688,2.056 C67.688,1.416 67.224,0.952 66.616,0.952 Z M65.704,4.488 L65.704,13 L67.528,13 L67.528,4.488 L65.704,4.488 Z M77.16,13 L75.352,13 L75.352,11.96 C74.744,12.712 73.768,13.08 72.536,13.08 C70.696,13.08 69.544,11.944 69.544,10.44 C69.544,8.888 70.712,7.896 72.76,7.88 L75.336,7.88 L75.336,7.624 C75.336,6.552 74.648,5.912 73.304,5.912 C72.488,5.912 71.64,6.2 70.792,6.776 L70.04,5.496 C71.224,4.792 72.088,4.424 73.704,4.424 C75.896,4.424 77.128,5.544 77.144,7.416 L77.16,13 Z M72.92,11.624 C74.232,11.624 75.24,10.936 75.336,10.008 L75.336,9.224 L73.032,9.224 C71.832,9.224 71.272,9.544 71.272,10.36 C71.272,11.128 71.896,11.624 72.92,11.624 Z" id="by-Algolia"></path>
            </g>
        </g>
    </g>
</svg>