<?xml version="1.0" encoding="UTF-8"?>
<svg width="245px" height="51px" viewBox="0 0 245 51" version="1.1" xmlns="http://www.w3.org/2000/svg" xmlns:xlink="http://www.w3.org/1999/xlink">
    <!-- Generator: Sketch 44.1 (41455) - http://www.bohemiancoding.com/sketch -->
    <title>InstantSearch-React</title>
    <desc>Created with Sketch.</desc>
    <defs>
        <linearGradient x1="42.4428508%" y1="121.561%" x2="57.5230002%" y2="8.499%" id="linearGradient-1">
            <stop stop-color="#201C38" offset="0%"></stop>
            <stop stop-color="#3E396B" offset="100%"></stop>
        </linearGradient>
    </defs>
    <g id="Page-1" stroke="none" stroke-width="1" fill="none" fill-rule="evenodd">
        <g id="InstantSearch-React">
            <g id="Group" fill-rule="nonzero">
                <path d="M27.4367816,22.2888889 C28.7011494,22.2888889 29.9022989,22.037037 31.1034483,21.6592593 L33.1264368,25.1222222 L34.5172414,27.5148148 C34.8965517,28.2074074 35.591954,28.5851852 36.3505747,28.5851852 C36.7298851,28.5851852 37.045977,28.5222222 37.4252874,28.3333333 C38.4367816,27.7666667 38.7528736,26.4444444 38.183908,25.437037 L36.7931034,23.0444444 L34.7701149,19.5185185 C37.1091954,17.5037037 38.6264368,14.4814815 38.6264368,11.1444444 C38.6264368,5.03703704 33.6321839,0.062962963 27.5,0.062962963 C21.3678161,0.062962963 16.3103448,5.03703704 16.3103448,11.2074074 C16.3103448,17.3777778 21.3045977,22.2888889 27.4367816,22.2888889 Z M27.4367816,4.28148148 C31.2298851,4.28148148 34.3275862,7.36666667 34.3275862,11.1444444 C34.3275862,14.9222222 31.2298851,18.0074074 27.4367816,18.0074074 C23.6436782,18.0074074 20.545977,14.9222222 20.545977,11.1444444 C20.545977,7.36666667 23.6436782,4.28148148 27.4367816,4.28148148 Z" id="Shape" fill="#00D8FF"></path>
                <path d="M43.8103448,28.2074074 C38.3735632,28.2074074 33.8850575,32.1111111 32.8735632,37.2111111 L28.8908046,37.2111111 L26.1091954,37.2111111 C24.9712644,37.2111111 24.0229885,38.1555556 24.0229885,39.2888889 C24.0229885,40.4222222 24.9712644,41.3666667 26.1091954,41.3666667 L28.8908046,41.3666667 L32.8735632,41.3666667 C33.8850575,46.4666667 38.3735632,50.3703704 43.8103448,50.3703704 C49.9425287,50.3703704 54.9367816,45.3962963 54.9367816,39.2888889 C54.9367816,33.1814815 49.9425287,28.2074074 43.8103448,28.2074074 Z M43.8103448,46.2148148 C40.0172414,46.2148148 36.9195402,43.1296296 36.9195402,39.3518519 C36.9195402,35.5740741 40.0172414,32.4888889 43.8103448,32.4888889 C47.6034483,32.4888889 50.7011494,35.5740741 50.7011494,39.3518519 C50.7011494,43.1296296 47.6034483,46.2148148 43.8103448,46.2148148 Z M18.4597701,30.9777778 C20.7988506,32.9925926 22.316092,35.9518519 22.2528736,39.3518519 C22.2528736,45.4592593 17.2586207,50.4333333 11.1264368,50.4333333 C4.99425287,50.4333333 0,45.5222222 0,39.3518519 C0,33.1814815 4.99425287,28.2074074 11.1264368,28.2074074 C12.454023,28.2074074 13.6551724,28.4592593 14.7931034,28.837037 L16.816092,25.3740741 L18.2068966,22.9814815 C18.8390805,21.9740741 20.1034483,21.6592593 21.1149425,22.2259259 C22.1264368,22.8555556 22.4425287,24.1148148 21.8735632,25.1222222 L20.4827586,27.5148148 L18.4597701,30.9777778 Z M11.1264368,46.2148148 C14.9827586,46.2148148 18.0804598,43.1296296 18.0172414,39.3518519 C18.0172414,35.5740741 14.9195402,32.4888889 11.1264368,32.4888889 C7.33333333,32.4888889 4.23563218,35.5740741 4.23563218,39.3518519 C4.23563218,43.1296296 7.33333333,46.2148148 11.1264368,46.2148148 Z" id="Shape" fill="url(#linearGradient-1)"></path>
            </g>
            <g id="Group" transform="translate(80.000000, 3.000000)" fill="#3E396B">
                <path d="M0.064,1.2 L0.064,18 L3.28,18 L3.28,1.2 L0.064,1.2 Z M15.016,5.04 C12.928,5.064 11.32,5.856 10.408,7.56 L10.408,5.16 L7.288,5.16 L7.288,18 L10.408,18 L10.408,11.688 C10.408,9.576 11.656,8.016 13.768,7.992 C15.544,7.992 16.624,9.096 16.624,10.896 L16.624,18 L19.768,18 L19.768,9.984 C19.768,6.936 17.968,5.04 15.016,5.04 Z M30.88,8.64 L32.008,6.384 C30.736,5.52 28.984,5.016 27.304,5.016 C24.712,5.016 22.456,6.24 22.456,8.88 C22.432,13.44 29.128,12.144 29.128,14.52 C29.128,15.36 28.312,15.72 27.232,15.72 C25.84,15.72 24.064,15.144 22.888,14.136 L21.808,16.32 C23.152,17.496 25.168,18.12 27.112,18.12 C29.848,18.12 32.176,16.848 32.176,14.232 C32.176,9.624 25.384,10.752 25.384,8.592 C25.384,7.8 26.104,7.464 27.112,7.464 C28.216,7.464 29.632,7.896 30.88,8.64 Z M41.632,14.856 C40.936,15.192 40.336,15.384 39.808,15.384 C38.968,15.384 38.464,14.976 38.464,13.752 L38.464,7.968 L42.136,7.968 L42.136,5.688 L38.464,5.688 L38.464,2.16 L35.368,2.16 L35.368,5.688 L33.544,5.688 L33.568,7.968 L35.368,7.968 L35.368,14.304 C35.368,16.944 37.048,18.144 39.136,18.144 C40.264,18.144 41.368,17.808 42.352,17.208 L41.632,14.856 Z M55.456,18 L52.384,18 L52.384,16.44 C51.496,17.568 50.056,18.144 48.232,18.144 C45.472,18.144 43.744,16.44 43.744,14.16 C43.744,11.784 45.496,10.32 48.616,10.296 L52.36,10.296 L52.36,9.96 C52.36,8.472 51.376,7.584 49.456,7.584 C48.256,7.584 46.96,7.992 45.64,8.784 L44.512,6.624 C46.36,5.592 47.8,5.04 50.152,5.04 C53.512,5.04 55.408,6.744 55.432,9.6 L55.456,18 Z M48.976,15.744 C50.776,15.744 52.192,14.784 52.36,13.536 L52.36,12.384 L49.12,12.384 C47.464,12.384 46.696,12.84 46.696,13.968 C46.696,15.048 47.56,15.744 48.976,15.744 Z M66.688,5.04 C64.6,5.064 62.992,5.856 62.08,7.56 L62.08,5.16 L58.96,5.16 L58.96,18 L62.08,18 L62.08,11.688 C62.08,9.576 63.328,8.016 65.44,7.992 C67.216,7.992 68.296,9.096 68.296,10.896 L68.296,18 L71.44,18 L71.44,9.984 C71.44,6.936 69.64,5.04 66.688,5.04 Z M81.736,14.856 C81.04,15.192 80.44,15.384 79.912,15.384 C79.072,15.384 78.568,14.976 78.568,13.752 L78.568,7.968 L82.24,7.968 L82.24,5.688 L78.568,5.688 L78.568,2.16 L75.472,2.16 L75.472,5.688 L73.648,5.688 L73.672,7.968 L75.472,7.968 L75.472,14.304 C75.472,16.944 77.152,18.144 79.24,18.144 C80.368,18.144 81.472,17.808 82.456,17.208 L81.736,14.856 Z M95.584,5.616 L96.88,2.832 C95.272,1.776 93.04,1.056 90.808,1.056 C87.04,1.056 84.52,2.928 84.52,5.856 C84.52,11.832 93.544,9.84 93.544,13.344 C93.544,14.52 92.464,15.192 90.664,15.192 C88.864,15.192 86.584,14.256 84.856,12.72 L83.512,15.432 C85.312,17.04 87.928,18.12 90.616,18.12 C94.312,18.12 97.048,16.296 97.048,13.152 C97.072,7.128 88.048,8.976 88.048,5.568 C88.048,4.536 89.032,3.984 90.544,3.984 C91.84,3.984 93.784,4.536 95.584,5.616 Z M105.328,5.064 C109.84,5.064 111.784,8.016 111.472,12.672 L101.992,12.672 C102.4,14.496 103.792,15.6 105.664,15.6 C106.984,15.6 108.208,15.096 109.12,14.16 L110.8,15.912 C109.528,17.304 107.656,18.12 105.4,18.12 C101.416,18.12 98.8,15.48 98.8,11.616 C98.8,7.704 101.488,5.064 105.328,5.064 Z M101.92,10.584 L108.64,10.584 C108.568,8.688 107.296,7.488 105.352,7.488 C103.504,7.488 102.208,8.688 101.92,10.584 Z M124.84,18 L121.768,18 L121.768,16.44 C120.88,17.568 119.44,18.144 117.616,18.144 C114.856,18.144 113.128,16.44 113.128,14.16 C113.128,11.784 114.88,10.32 118,10.296 L121.744,10.296 L121.744,9.96 C121.744,8.472 120.76,7.584 118.84,7.584 C117.64,7.584 116.344,7.992 115.024,8.784 L113.896,6.624 C115.744,5.592 117.184,5.04 119.536,5.04 C122.896,5.04 124.792,6.744 124.816,9.6 L124.84,18 Z M118.36,15.744 C120.16,15.744 121.576,14.784 121.744,13.536 L121.744,12.384 L118.504,12.384 C116.848,12.384 116.08,12.84 116.08,13.968 C116.08,15.048 116.944,15.744 118.36,15.744 Z M131.464,7.632 L131.464,5.16 L128.344,5.16 L128.344,18 L131.464,18 L131.464,11.808 C131.464,9.48 133.12,7.896 135.832,8.064 L135.832,5.04 C133.84,5.064 132.328,5.952 131.464,7.632 Z M146.848,9.216 L148.744,7.416 C147.592,5.928 145.72,5.064 143.368,5.064 C139.504,5.064 136.84,7.704 136.84,11.616 C136.84,15.48 139.48,18.12 143.32,18.12 C145.84,18.12 147.76,17.16 148.888,15.528 L146.944,13.92 C146.176,14.928 144.976,15.432 143.488,15.432 C141.424,15.432 139.984,13.896 139.984,11.592 C139.984,9.336 141.424,7.8 143.488,7.8 C144.904,7.8 146.032,8.328 146.848,9.216 Z M159.424,5.04 C157.312,5.064 155.704,5.856 154.792,7.608 L154.792,0.192 L151.672,0.192 L151.672,18 L154.792,18 L154.792,11.688 C154.792,9.576 156.064,8.016 158.176,7.992 C159.952,7.992 161.032,9.096 161.032,10.896 L161.032,18 L164.176,18 L164.176,9.984 C164.176,6.936 162.376,5.04 159.424,5.04 Z" id="InstantSearch"></path>
            </g>
            <g id="Group" transform="translate(78.000000, 33.000000)" fill="#8995C7">
                <path d="M4.688,1.648 C4.064,1.648 3.536,2 3.536,2.8 L3.536,3.808 L5.76,3.808 L5.76,5.184 L3.536,5.184 L3.536,12 L1.712,12 L1.712,5.184 L0.592,5.184 L0.592,3.808 L1.712,3.808 L1.712,2.976 C1.712,0.992 3.168,0.048 4.64,0.048 C5.328,0.048 6.016,0.24 6.56,0.64 L5.856,2.048 C5.504,1.792 5.072,1.648 4.688,1.648 Z M10.336,3.424 C12.96,3.424 14.768,5.168 14.768,7.728 C14.768,10.304 12.96,12.064 10.336,12.064 C7.696,12.064 5.888,10.304 5.888,7.728 C5.888,5.168 7.696,3.424 10.336,3.424 Z M10.336,4.992 C8.8,4.992 7.728,6.128 7.728,7.76 C7.728,9.408 8.8,10.528 10.336,10.528 C11.856,10.528 12.928,9.408 12.928,7.76 C12.928,6.128 11.856,4.992 10.336,4.992 Z M18.528,5.184 L18.528,3.488 L16.688,3.488 L16.688,12 L18.528,12 L18.528,7.552 C18.672,6.096 19.76,5.088 21.472,5.184 L21.472,3.424 C20.128,3.424 19.104,4.032 18.528,5.184 Z M37.152,12 L35.008,12 L32.96,8.608 C32.8,8.624 32.624,8.624 32.448,8.624 L29.792,8.624 L29.792,12 L27.904,12 L27.904,0.8 L32.448,0.8 C35.312,0.8 36.96,2.192 36.96,4.624 C36.96,6.416 36.128,7.68 34.64,8.256 L37.152,12 Z M29.792,6.928 L32.448,6.928 C34.176,6.928 35.168,6.192 35.168,4.672 C35.168,3.2 34.176,2.496 32.448,2.496 L29.792,2.496 L29.792,6.928 Z M42.864,3.424 C45.856,3.424 47.072,5.376 46.848,8.448 L40.416,8.448 C40.704,9.76 41.712,10.576 43.056,10.576 C43.984,10.576 44.832,10.224 45.456,9.584 L46.432,10.624 C45.6,11.536 44.384,12.064 42.912,12.064 C40.288,12.064 38.56,10.32 38.56,7.76 C38.56,5.184 40.336,3.44 42.864,3.424 Z M40.384,7.104 L45.248,7.104 C45.184,5.728 44.272,4.896 42.88,4.896 C41.536,4.896 40.576,5.744 40.384,7.104 Z M55.68,12 L53.872,12 L53.872,10.96 C53.264,11.712 52.288,12.08 51.056,12.08 C49.216,12.08 48.064,10.944 48.064,9.44 C48.064,7.888 49.232,6.896 51.28,6.88 L53.856,6.88 L53.856,6.624 C53.856,5.552 53.168,4.912 51.824,4.912 C51.008,4.912 50.16,5.2 49.312,5.776 L48.56,4.496 C49.744,3.792 50.608,3.424 52.224,3.424 C54.416,3.424 55.648,4.544 55.664,6.416 L55.68,12 Z M51.44,10.624 C52.752,10.624 53.76,9.936 53.856,9.008 L53.856,8.224 L51.552,8.224 C50.352,8.224 49.792,8.544 49.792,9.36 C49.792,10.128 50.416,10.624 51.44,10.624 Z M64.144,6 L65.152,4.816 C64.368,3.92 63.168,3.424 61.632,3.424 C59.104,3.424 57.344,5.184 57.344,7.76 C57.344,10.32 59.104,12.064 61.632,12.064 C63.248,12.064 64.48,11.488 65.248,10.48 L64.224,9.456 C63.648,10.128 62.784,10.48 61.712,10.48 C60.24,10.48 59.184,9.376 59.184,7.76 C59.184,6.144 60.24,5.04 61.712,5.04 C62.736,5.024 63.552,5.392 64.144,6 Z M71.52,10.048 C71.024,10.288 70.624,10.416 70.24,10.416 C69.664,10.416 69.328,10.144 69.328,9.264 L69.328,5.184 L71.84,5.184 L71.84,3.808 L69.328,3.808 L69.328,1.472 L67.504,1.472 L67.504,3.808 L66.304,3.808 L66.304,5.184 L67.504,5.184 L67.504,9.6 C67.504,11.344 68.608,12.08 69.888,12.08 C70.608,12.08 71.312,11.856 71.984,11.456 L71.52,10.048 Z" id="for-React"></path>
            </g>
        </g>
    </g>
</svg>