<?xml version="1.0" encoding="UTF-8"?>
<svg width="245px" height="51px" viewBox="0 0 245 51" version="1.1" xmlns="http://www.w3.org/2000/svg" xmlns:xlink="http://www.w3.org/1999/xlink">
    <!-- Generator: Sketch 44.1 (41455) - http://www.bohemiancoding.com/sketch -->
    <title>InstantSearch-Swift</title>
    <desc>Created with Sketch.</desc>
    <defs>
        <linearGradient x1="0%" y1="100%" x2="0%" y2="0%" id="linearGradient-1">
            <stop stop-color="#FF001D" offset="0%"></stop>
            <stop stop-color="#FF9A2A" offset="100%"></stop>
        </linearGradient>
        <linearGradient x1="42.4428508%" y1="121.561%" x2="57.5230002%" y2="8.499%" id="linearGradient-2">
            <stop stop-color="#201C38" offset="0%"></stop>
            <stop stop-color="#3E396B" offset="100%"></stop>
        </linearGradient>
    </defs>
    <g id="Page-1" stroke="none" stroke-width="1" fill="none" fill-rule="evenodd">
        <g id="InstantSearch-Swift">
            <g id="Group" fill-rule="nonzero">
                <path d="M27.4367816,22.2888889 C28.7011494,22.2888889 29.9022989,22.037037 31.1034483,21.6592593 L33.1264368,25.1222222 L34.5172414,27.5148148 C34.8965517,28.2074074 35.591954,28.5851852 36.3505747,28.5851852 C36.7298851,28.5851852 37.045977,28.5222222 37.4252874,28.3333333 C38.4367816,27.7666667 38.7528736,26.4444444 38.183908,25.437037 L36.7931034,23.0444444 L34.7701149,19.5185185 C37.1091954,17.5037037 38.6264368,14.4814815 38.6264368,11.1444444 C38.6264368,5.03703704 33.6321839,0.062962963 27.5,0.062962963 C21.3678161,0.062962963 16.3103448,5.03703704 16.3103448,11.2074074 C16.3103448,17.3777778 21.3045977,22.2888889 27.4367816,22.2888889 Z M27.4367816,4.28148148 C31.2298851,4.28148148 34.3275862,7.36666667 34.3275862,11.1444444 C34.3275862,14.9222222 31.2298851,18.0074074 27.4367816,18.0074074 C23.6436782,18.0074074 20.545977,14.9222222 20.545977,11.1444444 C20.545977,7.36666667 23.6436782,4.28148148 27.4367816,4.28148148 Z" id="Shape" fill="url(#linearGradient-1)"></path>
                <path d="M43.8103448,28.2074074 C38.3735632,28.2074074 33.8850575,32.1111111 32.8735632,37.2111111 L28.8908046,37.2111111 L26.1091954,37.2111111 C24.9712644,37.2111111 24.0229885,38.1555556 24.0229885,39.2888889 C24.0229885,40.4222222 24.9712644,41.3666667 26.1091954,41.3666667 L28.8908046,41.3666667 L32.8735632,41.3666667 C33.8850575,46.4666667 38.3735632,50.3703704 43.8103448,50.3703704 C49.9425287,50.3703704 54.9367816,45.3962963 54.9367816,39.2888889 C54.9367816,33.1814815 49.9425287,28.2074074 43.8103448,28.2074074 Z M43.8103448,46.2148148 C40.0172414,46.2148148 36.9195402,43.1296296 36.9195402,39.3518519 C36.9195402,35.5740741 40.0172414,32.4888889 43.8103448,32.4888889 C47.6034483,32.4888889 50.7011494,35.5740741 50.7011494,39.3518519 C50.7011494,43.1296296 47.6034483,46.2148148 43.8103448,46.2148148 Z M18.4597701,30.9777778 C20.7988506,32.9925926 22.316092,35.9518519 22.2528736,39.3518519 C22.2528736,45.4592593 17.2586207,50.4333333 11.1264368,50.4333333 C4.99425287,50.4333333 0,45.5222222 0,39.3518519 C0,33.1814815 4.99425287,28.2074074 11.1264368,28.2074074 C12.454023,28.2074074 13.6551724,28.4592593 14.7931034,28.837037 L16.816092,25.3740741 L18.2068966,22.9814815 C18.8390805,21.9740741 20.1034483,21.6592593 21.1149425,22.2259259 C22.1264368,22.8555556 22.4425287,24.1148148 21.8735632,25.1222222 L20.4827586,27.5148148 L18.4597701,30.9777778 Z M11.1264368,46.2148148 C14.9827586,46.2148148 18.0804598,43.1296296 18.0172414,39.3518519 C18.0172414,35.5740741 14.9195402,32.4888889 11.1264368,32.4888889 C7.33333333,32.4888889 4.23563218,35.5740741 4.23563218,39.3518519 C4.23563218,43.1296296 7.33333333,46.2148148 11.1264368,46.2148148 Z" id="Shape" fill="url(#linearGradient-2)"></path>
            </g>
            <g id="Group" transform="translate(80.000000, 3.000000)" fill="#3E396B">
                <path d="M0.064,1.2 L0.064,18 L3.28,18 L3.28,1.2 L0.064,1.2 Z M15.016,5.04 C12.928,5.064 11.32,5.856 10.408,7.56 L10.408,5.16 L7.288,5.16 L7.288,18 L10.408,18 L10.408,11.688 C10.408,9.576 11.656,8.016 13.768,7.992 C15.544,7.992 16.624,9.096 16.624,10.896 L16.624,18 L19.768,18 L19.768,9.984 C19.768,6.936 17.968,5.04 15.016,5.04 Z M30.88,8.64 L32.008,6.384 C30.736,5.52 28.984,5.016 27.304,5.016 C24.712,5.016 22.456,6.24 22.456,8.88 C22.432,13.44 29.128,12.144 29.128,14.52 C29.128,15.36 28.312,15.72 27.232,15.72 C25.84,15.72 24.064,15.144 22.888,14.136 L21.808,16.32 C23.152,17.496 25.168,18.12 27.112,18.12 C29.848,18.12 32.176,16.848 32.176,14.232 C32.176,9.624 25.384,10.752 25.384,8.592 C25.384,7.8 26.104,7.464 27.112,7.464 C28.216,7.464 29.632,7.896 30.88,8.64 Z M41.632,14.856 C40.936,15.192 40.336,15.384 39.808,15.384 C38.968,15.384 38.464,14.976 38.464,13.752 L38.464,7.968 L42.136,7.968 L42.136,5.688 L38.464,5.688 L38.464,2.16 L35.368,2.16 L35.368,5.688 L33.544,5.688 L33.568,7.968 L35.368,7.968 L35.368,14.304 C35.368,16.944 37.048,18.144 39.136,18.144 C40.264,18.144 41.368,17.808 42.352,17.208 L41.632,14.856 Z M55.456,18 L52.384,18 L52.384,16.44 C51.496,17.568 50.056,18.144 48.232,18.144 C45.472,18.144 43.744,16.44 43.744,14.16 C43.744,11.784 45.496,10.32 48.616,10.296 L52.36,10.296 L52.36,9.96 C52.36,8.472 51.376,7.584 49.456,7.584 C48.256,7.584 46.96,7.992 45.64,8.784 L44.512,6.624 C46.36,5.592 47.8,5.04 50.152,5.04 C53.512,5.04 55.408,6.744 55.432,9.6 L55.456,18 Z M48.976,15.744 C50.776,15.744 52.192,14.784 52.36,13.536 L52.36,12.384 L49.12,12.384 C47.464,12.384 46.696,12.84 46.696,13.968 C46.696,15.048 47.56,15.744 48.976,15.744 Z M66.688,5.04 C64.6,5.064 62.992,5.856 62.08,7.56 L62.08,5.16 L58.96,5.16 L58.96,18 L62.08,18 L62.08,11.688 C62.08,9.576 63.328,8.016 65.44,7.992 C67.216,7.992 68.296,9.096 68.296,10.896 L68.296,18 L71.44,18 L71.44,9.984 C71.44,6.936 69.64,5.04 66.688,5.04 Z M81.736,14.856 C81.04,15.192 80.44,15.384 79.912,15.384 C79.072,15.384 78.568,14.976 78.568,13.752 L78.568,7.968 L82.24,7.968 L82.24,5.688 L78.568,5.688 L78.568,2.16 L75.472,2.16 L75.472,5.688 L73.648,5.688 L73.672,7.968 L75.472,7.968 L75.472,14.304 C75.472,16.944 77.152,18.144 79.24,18.144 C80.368,18.144 81.472,17.808 82.456,17.208 L81.736,14.856 Z M95.584,5.616 L96.88,2.832 C95.272,1.776 93.04,1.056 90.808,1.056 C87.04,1.056 84.52,2.928 84.52,5.856 C84.52,11.832 93.544,9.84 93.544,13.344 C93.544,14.52 92.464,15.192 90.664,15.192 C88.864,15.192 86.584,14.256 84.856,12.72 L83.512,15.432 C85.312,17.04 87.928,18.12 90.616,18.12 C94.312,18.12 97.048,16.296 97.048,13.152 C97.072,7.128 88.048,8.976 88.048,5.568 C88.048,4.536 89.032,3.984 90.544,3.984 C91.84,3.984 93.784,4.536 95.584,5.616 Z M105.328,5.064 C109.84,5.064 111.784,8.016 111.472,12.672 L101.992,12.672 C102.4,14.496 103.792,15.6 105.664,15.6 C106.984,15.6 108.208,15.096 109.12,14.16 L110.8,15.912 C109.528,17.304 107.656,18.12 105.4,18.12 C101.416,18.12 98.8,15.48 98.8,11.616 C98.8,7.704 101.488,5.064 105.328,5.064 Z M101.92,10.584 L108.64,10.584 C108.568,8.688 107.296,7.488 105.352,7.488 C103.504,7.488 102.208,8.688 101.92,10.584 Z M124.84,18 L121.768,18 L121.768,16.44 C120.88,17.568 119.44,18.144 117.616,18.144 C114.856,18.144 113.128,16.44 113.128,14.16 C113.128,11.784 114.88,10.32 118,10.296 L121.744,10.296 L121.744,9.96 C121.744,8.472 120.76,7.584 118.84,7.584 C117.64,7.584 116.344,7.992 115.024,8.784 L113.896,6.624 C115.744,5.592 117.184,5.04 119.536,5.04 C122.896,5.04 124.792,6.744 124.816,9.6 L124.84,18 Z M118.36,15.744 C120.16,15.744 121.576,14.784 121.744,13.536 L121.744,12.384 L118.504,12.384 C116.848,12.384 116.08,12.84 116.08,13.968 C116.08,15.048 116.944,15.744 118.36,15.744 Z M131.464,7.632 L131.464,5.16 L128.344,5.16 L128.344,18 L131.464,18 L131.464,11.808 C131.464,9.48 133.12,7.896 135.832,8.064 L135.832,5.04 C133.84,5.064 132.328,5.952 131.464,7.632 Z M146.848,9.216 L148.744,7.416 C147.592,5.928 145.72,5.064 143.368,5.064 C139.504,5.064 136.84,7.704 136.84,11.616 C136.84,15.48 139.48,18.12 143.32,18.12 C145.84,18.12 147.76,17.16 148.888,15.528 L146.944,13.92 C146.176,14.928 144.976,15.432 143.488,15.432 C141.424,15.432 139.984,13.896 139.984,11.592 C139.984,9.336 141.424,7.8 143.488,7.8 C144.904,7.8 146.032,8.328 146.848,9.216 Z M159.424,5.04 C157.312,5.064 155.704,5.856 154.792,7.608 L154.792,0.192 L151.672,0.192 L151.672,18 L154.792,18 L154.792,11.688 C154.792,9.576 156.064,8.016 158.176,7.992 C159.952,7.992 161.032,9.096 161.032,10.896 L161.032,18 L164.176,18 L164.176,9.984 C164.176,6.936 162.376,5.04 159.424,5.04 Z" id="InstantSearch"></path>
            </g>
            <g id="Group" transform="translate(78.000000, 32.000000)" fill="#8995C7">
                <path d="M4.688,2.648 C4.064,2.648 3.536,3 3.536,3.8 L3.536,4.808 L5.76,4.808 L5.76,6.184 L3.536,6.184 L3.536,13 L1.712,13 L1.712,6.184 L0.592,6.184 L0.592,4.808 L1.712,4.808 L1.712,3.976 C1.712,1.992 3.168,1.048 4.64,1.048 C5.328,1.048 6.016,1.24 6.56,1.64 L5.856,3.048 C5.504,2.792 5.072,2.648 4.688,2.648 Z M10.336,4.424 C12.96,4.424 14.768,6.168 14.768,8.728 C14.768,11.304 12.96,13.064 10.336,13.064 C7.696,13.064 5.888,11.304 5.888,8.728 C5.888,6.168 7.696,4.424 10.336,4.424 Z M10.336,5.992 C8.8,5.992 7.728,7.128 7.728,8.76 C7.728,10.408 8.8,11.528 10.336,11.528 C11.856,11.528 12.928,10.408 12.928,8.76 C12.928,7.128 11.856,5.992 10.336,5.992 Z M18.528,6.184 L18.528,4.488 L16.688,4.488 L16.688,13 L18.528,13 L18.528,8.552 C18.672,7.096 19.76,6.088 21.472,6.184 L21.472,4.424 C20.128,4.424 19.104,5.032 18.528,6.184 Z M34.72,4.536 L35.504,2.872 C34.464,2.184 33.04,1.72 31.584,1.72 C29.152,1.72 27.504,2.92 27.504,4.84 C27.504,8.824 33.552,7.432 33.552,9.928 C33.552,10.792 32.768,11.288 31.456,11.288 C30.256,11.288 28.816,10.712 27.664,9.656 L26.848,11.288 C28,12.344 29.664,13.064 31.424,13.064 C33.888,13.064 35.648,11.832 35.648,9.832 C35.664,5.8 29.616,7.112 29.616,4.664 C29.616,3.912 30.336,3.496 31.44,3.496 C32.288,3.496 33.504,3.8 34.72,4.536 Z M36.4,4.488 L39.536,13 L41.424,13 L43.584,6.696 L45.744,13 L47.648,13 L50.752,4.488 L48.88,4.488 L46.704,11.176 L44.544,4.488 L42.64,4.488 L40.496,11.176 L38.288,4.488 L36.4,4.488 Z M52.944,0.952 C52.336,0.952 51.872,1.416 51.872,2.056 C51.872,2.68 52.336,3.144 52.944,3.144 C53.552,3.144 54.016,2.68 54.016,2.056 C54.016,1.416 53.552,0.952 52.944,0.952 Z M52.032,4.488 L52.032,13 L53.856,13 L53.856,4.488 L52.032,4.488 Z M59.904,2.648 C59.28,2.648 58.752,3 58.752,3.8 L58.752,4.808 L60.976,4.808 L60.976,6.184 L58.752,6.184 L58.752,13 L56.928,13 L56.928,6.184 L55.808,6.184 L55.808,4.808 L56.928,4.808 L56.928,3.976 C56.928,1.992 58.384,1.048 59.856,1.048 C60.544,1.048 61.232,1.24 61.776,1.64 L61.072,3.048 C60.72,2.792 60.288,2.648 59.904,2.648 Z M66.56,11.048 L67.024,12.456 C66.352,12.856 65.648,13.08 64.928,13.08 C63.648,13.08 62.544,12.344 62.544,10.6 L62.544,6.184 L61.344,6.184 L61.344,4.808 L62.544,4.808 L62.544,2.472 L64.368,2.472 L64.368,4.808 L66.88,4.808 L66.88,6.184 L64.368,6.184 L64.368,10.264 C64.368,11.144 64.704,11.416 65.28,11.416 C65.664,11.416 66.064,11.288 66.56,11.048 Z" id="for-Swift"></path>
            </g>
        </g>
    </g>
</svg>