<?xml version="1.0" encoding="UTF-8"?>
<svg width="738px" height="358px" viewBox="0 0 738 358" version="1.1" xmlns="http://www.w3.org/2000/svg" xmlns:xlink="http://www.w3.org/1999/xlink">
    <!-- Generator: Sketch 44.1 (41455) - http://www.bohemiancoding.com/sketch -->
    <title>instantsearch-components</title>
    <desc>Created with Sketch.</desc>
    <defs>
        <linearGradient x1="47.4786289%" y1="132.182617%" x2="53.5497114%" y2="-16.1181641%" id="linearGradient-1">
            <stop stop-color="#3E396B" offset="0%"></stop>
            <stop stop-color="#050F2C" offset="100%"></stop>
        </linearGradient>
        <linearGradient x1="-33.1565638%" y1="134.935721%" x2="126.039048%" y2="-27.7001301%" id="linearGradient-2">
            <stop stop-color="#FEC168" offset="0%"></stop>
            <stop stop-color="#FEC168" offset="100%"></stop>
        </linearGradient>
    </defs>
    <g id="Page-1" stroke="none" stroke-width="1" fill="none" fill-rule="evenodd">
        <g id="instantsearch-components">
            <g id="Stats" opacity="0.600000024" transform="translate(398.000000, 4.000000)" fill-rule="nonzero" fill="#9D9DBD">
                <path d="M0.81840479,1.28000023 L0.81840479,15 L2.99400475,15 L2.99400475,4.74920017 L7.32560468,13.5692 L8.83480465,13.5692 L13.1664046,4.74920017 L13.1860046,15 L15.3224045,15 L15.3224045,1.28000023 L12.5980046,1.28000023 L8.09000466,10.3940001 L3.56240474,1.28000023 L0.81840479,1.28000023 Z M27.2784043,15 L25.0636044,15 L25.0636044,13.726 C24.3188044,14.6472 23.1232044,15.098 21.6140044,15.098 C19.3600045,15.098 17.9488045,13.7064 17.9488045,11.8640001 C17.9488045,9.9628001 19.3796045,8.7476001 21.8884044,8.7280001 L25.0440044,8.7280001 L25.0440044,8.4144001 C25.0440044,7.1012001 24.2012044,6.3172001 22.5548044,6.3172001 C21.5552044,6.3172001 20.5164045,6.6700001 19.4776045,7.3756001 L18.5564045,5.80760016 C20.0068045,4.94520017 21.0652044,4.49440018 23.0448044,4.49440018 C25.7300044,4.49440018 27.2392043,5.86640016 27.2588043,8.1596001 L27.2784043,15 Z M22.0844044,13.3144 C23.6916044,13.3144 24.9264044,12.4716 25.0440044,11.3348001 L25.0440044,10.3744001 L22.2216044,10.3744001 C20.7516044,10.3744001 20.0656045,10.7664001 20.0656045,11.7660001 C20.0656045,12.7068 20.8300044,13.3144 22.0844044,13.3144 Z M35.6280042,12.6088 C35.0204042,12.9028 34.5304042,13.0596 34.0600042,13.0596 C33.3544042,13.0596 32.9428042,12.7264 32.9428042,11.6484001 L32.9428042,6.6504001 L36.0200042,6.6504001 L36.0200042,4.96480017 L32.9428042,4.96480017 L32.9428042,2.10320022 L30.7084043,2.10320022 L30.7084043,4.96480017 L29.2384043,4.96480017 L29.2384043,6.6504001 L30.7084043,6.6504001 L30.7084043,12.0600001 C30.7084043,14.1964 32.0608043,15.098 33.6288042,15.098 C34.5108042,15.098 35.3732042,14.8236 36.1964042,14.3336 L35.6280042,12.6088 Z M45.506404,7.6500001 L46.741204,6.1996001 C45.780804,5.10200017 44.310804,4.49440018 42.4292041,4.49440018 C39.3324041,4.49440018 37.1764042,6.6504001 37.1764042,9.8060001 C37.1764042,12.942 39.3324041,15.0784 42.4292041,15.0784 C44.408804,15.0784 45.918004,14.3728 46.858804,13.138 L45.604404,11.8836001 C44.898804,12.7068 43.8404041,13.138 42.5272041,13.138 C40.7240041,13.138 39.4304041,11.7856001 39.4304041,9.8060001 C39.4304041,7.8264001 40.7240041,6.4740001 42.5272041,6.4740001 C43.7816041,6.4544001 44.781204,6.9052001 45.506404,7.6500001 Z M55.4240039,4.49440018 C53.6404039,4.49440018 52.3076039,5.14120017 51.5628039,6.6112001 L51.5628039,0.45680025 L49.308804,0.45680025 L49.308804,15 L51.5628039,15 L51.5628039,9.8648001 C51.5628039,8.0224001 52.6800039,6.6308001 54.5420039,6.6112001 C56.1100038,6.6112001 57.0508038,7.5716001 57.0508038,9.1396001 L57.0508038,15 L59.3048038,15 L59.3048038,8.5124001 C59.3048038,6.0232002 57.8544038,4.49440018 55.4240039,4.49440018 Z M63.4404037,0.24120025 C62.6956037,0.24120025 62.1272037,0.80960024 62.1272037,1.59360023 C62.1272037,2.35800022 62.6956037,2.92640021 63.4404037,2.92640021 C64.1852037,2.92640021 64.7536037,2.35800022 64.7536037,1.59360023 C64.7536037,0.80960024 64.1852037,0.24120025 63.4404037,0.24120025 Z M62.3232037,4.57280018 L62.3232037,15 L64.5576037,15 L64.5576037,4.57280018 L62.3232037,4.57280018 Z M73.9852035,4.49440018 C72.2212036,4.49440018 70.8884036,5.12160017 70.1436036,6.5720001 L70.1436036,4.57280018 L67.8896036,4.57280018 L67.8896036,15 L70.1436036,15 L70.1436036,9.4532001 C70.3004036,7.8264001 71.3784036,6.6308001 73.1032036,6.6112001 C74.6712035,6.6112001 75.6120035,7.5716001 75.6120035,9.1396001 L75.6120035,15 L77.8660035,15 L77.8660035,8.5124001 C77.8660035,6.0232002 76.4156035,4.49440018 73.9852035,4.49440018 Z M88.0580033,4.57280018 L90.2924033,4.57280018 L90.2924033,13.9808 C90.2924033,16.9796 88.1560033,18.8611999 84.8828034,18.8611999 C83.2560034,18.8611999 81.8252034,18.3515999 80.5512034,17.4892 L81.5116034,15.8624 C82.4916034,16.5876 83.5108034,16.9992 84.7848034,16.9992 C86.7644033,16.9992 88.0580033,15.8428 88.0580033,14.0396 L88.0580033,12.7264 C87.3524033,13.8632 86.1764033,14.4904 84.6084034,14.4904 C81.7860034,14.4904 79.9044034,12.452 79.9044034,9.4532001 C79.9044034,6.5132001 81.7664034,4.51400018 84.5300034,4.49440018 C86.1372033,4.47480018 87.3328033,5.12160017 88.0580033,6.2584001 L88.0580033,4.57280018 Z M85.0592034,12.7264 C86.8232033,12.7264 88.0580033,11.3936001 88.0580033,9.5120001 C88.0580033,7.6304001 86.8232033,6.3172001 85.0592034,6.3172001 C83.2756034,6.3172001 82.0408034,7.6500001 82.0212034,9.5120001 C82.0408034,11.3936001 83.2560034,12.7264 85.0592034,12.7264 Z M99.720003,1.26040023 L99.720003,3.3380002 L102.679603,3.3380002 L102.679603,15 L104.992403,15 L104.992403,1.26040023 L99.720003,1.26040023 Z M115.792003,1.20160023 C119.104403,1.20160023 120.946803,3.67120019 120.946803,8.1204001 C120.946803,12.5892 119.104403,15.0588 115.792003,15.0588 C112.460003,15.0588 110.617603,12.5892 110.617603,8.1204001 C110.617603,3.67120019 112.460003,1.20160023 115.792003,1.20160023 Z M115.792003,3.0048002 C113.871203,3.0048002 112.910803,4.63160018 112.910803,8.1204001 C112.910803,11.6092001 113.871203,13.2556 115.792003,13.2556 C117.693203,13.2556 118.653603,11.6092001 118.653603,8.1204001 C118.653603,4.63160018 117.693203,3.0048002 115.792003,3.0048002 Z M123.965203,12.6284 C123.259603,12.6284 122.750003,13.1576 122.750003,13.8828 C122.750003,14.2944 122.926403,14.6668 123.279203,14.902 L122.534403,16.6072 L123.690803,16.6072 L124.808003,14.9216 C125.023603,14.608 125.160803,14.2748 125.160803,13.8828 C125.160803,13.0988 124.592403,12.6284 123.965203,12.6284 Z M132.079603,1.20160023 C135.392002,1.20160023 137.234402,3.67120019 137.234402,8.1204001 C137.234402,12.5892 135.392002,15.0588 132.079603,15.0588 C128.747603,15.0588 126.905203,12.5892 126.905203,8.1204001 C126.905203,3.67120019 128.747603,1.20160023 132.079603,1.20160023 Z M132.079603,3.0048002 C130.158803,3.0048002 129.198403,4.63160018 129.198403,8.1204001 C129.198403,11.6092001 130.158803,13.2556 132.079603,13.2556 C133.980803,13.2556 134.941203,11.6092001 134.941203,8.1204001 C134.941203,4.63160018 133.980803,3.0048002 132.079603,3.0048002 Z M144.172802,1.20160023 C147.485202,1.20160023 149.327602,3.67120019 149.327602,8.1204001 C149.327602,12.5892 147.485202,15.0588 144.172802,15.0588 C140.840802,15.0588 138.998402,12.5892 138.998402,8.1204001 C138.998402,3.67120019 140.840802,1.20160023 144.172802,1.20160023 Z M144.172802,3.0048002 C142.252002,3.0048002 141.291602,4.63160018 141.291602,8.1204001 C141.291602,11.6092001 142.252002,13.2556 144.172802,13.2556 C146.074002,13.2556 147.034402,11.6092001 147.034402,8.1204001 C147.034402,4.63160018 146.074002,3.0048002 144.172802,3.0048002 Z M156.266002,1.20160023 C159.578402,1.20160023 161.420802,3.67120019 161.420802,8.1204001 C161.420802,12.5892 159.578402,15.0588 156.266002,15.0588 C152.934002,15.0588 151.091602,12.5892 151.091602,8.1204001 C151.091602,3.67120019 152.934002,1.20160023 156.266002,1.20160023 Z M156.266002,3.0048002 C154.345202,3.0048002 153.384802,4.63160018 153.384802,8.1204001 C153.384802,11.6092001 154.345202,13.2556 156.266002,13.2556 C158.167202,13.2556 159.127602,11.6092001 159.127602,8.1204001 C159.127602,4.63160018 158.167202,3.0048002 156.266002,3.0048002 Z M176.062002,4.49440018 C174.278402,4.49440018 172.945602,5.14120017 172.200802,6.6112001 L172.200802,0.45680025 L169.946802,0.45680025 L169.946802,15 L172.200802,15 L172.200802,9.8648001 C172.200802,8.0224001 173.318002,6.6308001 175.180002,6.6112001 C176.748002,6.6112001 177.688802,7.5716001 177.688802,9.1396001 L177.688802,15 L179.942802,15 L179.942802,8.5124001 C179.942802,6.0232002 178.492402,4.49440018 176.062002,4.49440018 Z M184.078402,0.24120025 C183.333602,0.24120025 182.765202,0.80960024 182.765202,1.59360023 C182.765202,2.35800022 183.333602,2.92640021 184.078402,2.92640021 C184.823202,2.92640021 185.391602,2.35800022 185.391602,1.59360023 C185.391602,0.80960024 184.823202,0.24120025 184.078402,0.24120025 Z M182.961202,4.57280018 L182.961202,15 L185.195602,15 L185.195602,4.57280018 L182.961202,4.57280018 Z M193.858802,12.6088 C193.251202,12.9028 192.761202,13.0596 192.290802,13.0596 C191.585202,13.0596 191.173602,12.7264 191.173602,11.6484001 L191.173602,6.6504001 L194.250801,6.6504001 L194.250801,4.96480017 L191.173602,4.96480017 L191.173602,2.10320022 L188.939202,2.10320022 L188.939202,4.96480017 L187.469202,4.96480017 L187.469202,6.6504001 L188.939202,6.6504001 L188.939202,12.0600001 C188.939202,14.1964 190.291602,15.098 191.859602,15.098 C192.741602,15.098 193.604002,14.8236 194.427201,14.3336 L193.858802,12.6088 Z M202.443601,7.1992001 L203.266801,5.53320016 C202.326001,4.86680017 200.934401,4.47480018 199.621201,4.47480018 C197.622001,4.47480018 195.779601,5.37640016 195.779601,7.4932001 C195.760001,11.2564001 201.248001,10.0608001 201.248001,12.1972 C201.248001,12.9812 200.503201,13.3144 199.542801,13.3144 C198.406001,13.3144 196.955601,12.8244 196.054001,12.0208001 L195.250401,13.628 C196.289201,14.5688 197.916001,15.0784 199.444801,15.0784 C201.542001,15.0784 203.443201,14.118 203.443201,11.9816001 C203.462801,8.1988001 197.916001,9.2376001 197.916001,7.3168001 C197.916001,6.5720001 198.562801,6.2780001 199.444801,6.2780001 C200.366001,6.2780001 201.522401,6.6308001 202.443601,7.1992001 Z M212.714001,0.24120025 C211.969201,0.24120025 211.400801,0.80960024 211.400801,1.59360023 C211.400801,2.35800022 211.969201,2.92640021 212.714001,2.92640021 C213.458801,2.92640021 214.027201,2.35800022 214.027201,1.59360023 C214.027201,0.80960024 213.458801,0.24120025 212.714001,0.24120025 Z M211.596801,4.57280018 L211.596801,15 L213.831201,15 L213.831201,4.57280018 L211.596801,4.57280018 Z M223.258801,4.49440018 C221.494801,4.49440018 220.162001,5.12160017 219.417201,6.5720001 L219.417201,4.57280018 L217.163201,4.57280018 L217.163201,15 L219.417201,15 L219.417201,9.4532001 C219.574001,7.8264001 220.652001,6.6308001 222.376801,6.6112001 C223.944801,6.6112001 224.885601,7.5716001 224.885601,9.1396001 L224.885601,15 L227.139601,15 L227.139601,8.5124001 C227.139601,6.0232002 225.689201,4.49440018 223.258801,4.49440018 Z M236.449601,1.26040023 L236.449601,3.3380002 L239.409201,3.3380002 L239.409201,15 L241.722001,15 L241.722001,1.26040023 L236.449601,1.26040023 Z M267.6136,4.49440018 C265.7124,4.49440018 264.3208,5.25880017 263.6544,7.0032001 C263.1644,5.41560016 261.8904,4.49440018 260.0284,4.49440018 C258.3036,4.49440018 256.9708,5.12160017 256.2456,6.5916001 L256.2456,4.57280018 L254.0112,4.57280018 L254.0112,15 L256.2456,15 L256.2456,9.8452001 C256.2456,8.0224001 257.3432,6.6504001 259.1464,6.5916001 C260.6752,6.5916001 261.5964,7.5520001 261.5964,9.1396001 L261.5964,15 L263.8504,15 L263.8504,9.8452001 C263.8504,8.0224001 264.9284,6.6504001 266.712,6.5916001 C268.2408,6.5916001 269.1816,7.5520001 269.1816,9.1396001 L269.1816,15 L271.4356,15 L271.4356,8.5124001 C271.4356,6.0232002 270.0048,4.49440018 267.6136,4.49440018 Z M280.3928,7.1992001 L281.216,5.53320016 C280.2752,4.86680017 278.8836,4.47480018 277.5704,4.47480018 C275.5712,4.47480018 273.7288,5.37640016 273.7288,7.4932001 C273.7092,11.2564001 279.1972,10.0608001 279.1972,12.1972 C279.1972,12.9812 278.4524,13.3144 277.492,13.3144 C276.3552,13.3144 274.9048,12.8244 274.0032,12.0208001 L273.1996,13.628 C274.2384,14.5688 275.8652,15.0784 277.394,15.0784 C279.4912,15.0784 281.3924,14.118 281.3924,11.9816001 C281.412,8.1988001 275.8652,9.2376001 275.8652,7.3168001 C275.8652,6.5720001 276.512,6.2780001 277.394,6.2780001 C278.3152,6.2780001 279.4716,6.6308001 280.3928,7.1992001 Z" id="Matching-10,000-hits"></path>
            </g>
            <g id="CurrentRefinements" transform="translate(162.000000, 0.000000)" fill-rule="nonzero">
                <rect id="Rectangle-2" fill="url(#linearGradient-1)" x="0" y="0" width="180" height="37" rx="6.72000015"></rect>
                <path d="M27.4982672,14.1187343 L28.4659472,12.9494543 C27.1152272,11.6793742 25.2403471,10.8931342 23.3049871,10.8931342 C19.212507,10.8931342 15.9465869,14.0179343 15.9465869,17.9692944 C15.9465869,21.9609745 19.172187,25.1059345 23.2445071,25.1059345 C25.2000271,25.1059345 27.0950672,24.2793745 28.4861072,22.9689745 L27.4982672,21.9004945 C26.3894672,22.9488145 24.8774671,23.5939345 23.3251471,23.5939345 C20.139867,23.5939345 17.579547,21.0739345 17.579547,17.9692944 C17.579547,14.8444943 20.139867,12.3648143 23.3251471,12.3648143 C24.8774671,12.3648143 26.4096272,13.0300943 27.4982672,14.1187343 Z M35.1389074,14.3808143 C38.2838674,14.3808143 40.5216275,16.5782544 40.5216275,19.7232144 C40.5216275,22.8883345 38.2838674,25.1059345 35.1389074,25.1059345 C31.9737873,25.1059345 29.7561872,22.8883345 29.7561872,19.7232144 C29.7561872,16.5782544 31.9737873,14.3808143 35.1389074,14.3808143 Z M35.1389074,15.7718543 C32.9011473,15.7718543 31.3286673,17.4048144 31.3286673,19.7433744 C31.3286673,22.1222545 32.9011473,23.7350545 35.1389074,23.7350545 C37.3565074,23.7350545 38.9491475,22.1222545 38.9491475,19.7433744 C38.9491475,17.4048144 37.3565074,15.7718543 35.1389074,15.7718543 Z M43.3843476,10.0867342 L43.3843476,25.0454545 L44.9568276,25.0454545 L44.9568276,10.0867342 L43.3843476,10.0867342 Z M53.2022678,14.3808143 C56.3472279,14.3808143 58.5849879,16.5782544 58.5849879,19.7232144 C58.5849879,22.8883345 56.3472279,25.1059345 53.2022678,25.1059345 C50.0371477,25.1059345 47.8195477,22.8883345 47.8195477,19.7232144 C47.8195477,16.5782544 50.0371477,14.3808143 53.2022678,14.3808143 Z M53.2022678,15.7718543 C50.9645077,15.7718543 49.3920277,17.4048144 49.3920277,19.7433744 C49.3920277,22.1222545 50.9645077,23.7350545 53.2022678,23.7350545 C55.4198678,23.7350545 57.0125079,22.1222545 57.0125079,19.7433744 C57.0125079,17.4048144 55.4198678,15.7718543 53.2022678,15.7718543 Z M62.919388,16.8000144 L62.919388,14.4412943 L61.346908,14.4412943 L61.346908,25.0454545 L62.919388,25.0454545 L62.919388,19.4006544 C63.100828,17.2636944 64.491868,15.8726543 66.7296281,15.9129743 L66.7296281,14.3808143 C64.935388,14.4009743 63.624988,15.2476943 62.919388,16.8000144 Z M68.9472281,17.1628944 C68.3827481,17.1628944 67.9593881,17.6064144 67.9593881,18.1910544 C67.9593881,18.7756944 68.3827481,19.2192144 68.9472281,19.2192144 C69.4915482,19.2192144 69.9149082,18.7756944 69.9149082,18.1910544 C69.9149082,17.6064144 69.4915482,17.1628944 68.9472281,17.1628944 Z M68.9472281,23.1504145 C68.3827481,23.1504145 67.9593881,23.5939345 67.9593881,24.1785745 C67.9593881,24.7632145 68.3827481,25.2067345 68.9472281,25.2067345 C69.4915482,25.2067345 69.9149082,24.7632145 69.9149082,24.1785745 C69.9149082,23.5939345 69.4915482,23.1504145 68.9472281,23.1504145 Z M85.0752285,10.9334542 C87.9177886,10.9334542 89.6515486,12.2438543 89.6515486,14.4614543 C89.6515486,16.1145743 88.6637086,17.3040144 87.0307485,17.6467344 C89.0669086,17.9491344 90.2563486,19.2796944 90.2563486,21.2150545 C90.2563486,23.6140945 88.3613086,25.0454545 85.1558685,25.0454545 L79.1280284,25.0454545 L79.1280284,10.9334542 L85.0752285,10.9334542 Z M84.9945885,17.0419344 C86.8896285,17.0419344 87.9984286,16.1952143 87.9984286,14.7033743 C87.9984286,13.2518543 86.8896285,12.4252943 84.9945885,12.4252943 L80.7408284,12.4252943 L80.7408284,17.0419344 L84.9945885,17.0419344 Z M84.9945885,23.5536145 C87.2928286,23.5737745 88.6233886,22.6464145 88.6233886,21.0134545 C88.6233886,19.4409744 87.2928286,18.5136144 84.9945885,18.5337744 L80.7408284,18.5337744 L80.7408284,23.5536145 L84.9945885,23.5536145 Z M93.4416287,10.0867342 L93.4416287,25.0454545 L95.0141087,25.0454545 L95.0141087,10.0867342 L93.4416287,10.0867342 Z M107.069789,25.0454545 L105.537629,25.0454545 L105.537629,23.3923345 C104.690909,24.5414545 103.340189,25.1059345 101.646749,25.1059345 C99.4493088,25.1059345 98.0381088,23.7148945 98.0381088,21.9004945 C98.0381088,20.0457744 99.5097888,18.8764944 102.009629,18.8563344 L105.497309,18.8563344 L105.497309,18.1910544 C105.497309,16.6387344 104.529629,15.6912143 102.654749,15.6912143 C101.485469,15.6912143 100.396829,16.1347343 99.2880288,16.9209744 L98.6227488,15.8121743 C99.9936288,14.9049743 101.142749,14.3808143 102.957149,14.3808143 C105.577949,14.3808143 107.029469,15.7718543 107.049629,18.0297744 L107.069789,25.0454545 Z M101.949149,23.7955345 C103.743389,23.7955345 105.114269,22.9084945 105.517469,21.3964945 L105.517469,20.1062544 L102.211229,20.1062544 C100.437149,20.1062544 99.5097888,20.6505744 99.5097888,21.8400145 C99.5097888,23.0092945 100.457309,23.7955345 101.949149,23.7955345 Z M117.996509,17.0419344 L118.863389,15.9532943 C117.895709,14.9654543 116.484509,14.3808143 114.770909,14.3808143 C111.706589,14.3808143 109.509149,16.5984144 109.509149,19.7433744 C109.509149,22.9084945 111.686429,25.1059345 114.770909,25.1059345 C116.605469,25.1059345 118.077149,24.4204945 119.024669,23.2713745 L118.117469,22.3440145 C117.371549,23.2310545 116.222429,23.7148945 114.831389,23.7148945 C112.633949,23.7148945 111.061469,22.1020945 111.061469,19.7433744 C111.061469,17.4048144 112.633949,15.7920143 114.831389,15.7920143 C116.121629,15.7920143 117.190109,16.2556943 117.996509,17.0419344 Z M129.42723,25.0454545 L131.30211,25.0454545 L126.907229,18.5337744 L130.87875,14.4412943 L129.02403,14.4412943 L123.560669,19.9449744 L123.560669,10.0867342 L121.988189,10.0867342 L121.988189,25.0454545 L123.560669,25.0454545 L123.560669,21.9811345 L125.798429,19.6627344 L129.42723,25.0454545 Z" id="Color:-Black" fill="#FFFFFF"></path>
                <path d="M158.923798,17.0945683 L165.51692,10.5031114 C166.131138,9.88904874 167.112331,9.89371251 167.718774,10.5000022 C168.329882,11.1109556 168.325217,12.0919012 167.718774,12.6997455 L161.120987,19.292757 L167.714109,25.884214 C168.328327,26.4982766 168.323662,27.4792222 167.717219,28.0855119 C167.106111,28.6964653 166.124918,28.6918016 165.51692,28.0855119 L158.923798,21.4893912 L152.330677,28.0808481 C151.716459,28.6949108 150.735265,28.690247 150.128823,28.0839573 C149.517715,27.4730039 149.52238,26.4920583 150.128823,25.884214 L156.726609,19.292757 L150.133488,12.7013001 C149.51616,12.0856829 149.51927,11.1047373 150.125713,10.4984476 C150.73682,9.88749415 151.718014,9.89215792 152.326012,10.4984476 L158.923798,17.0961229 L158.923798,17.0945683 Z" id="Shape" fill="#FFFFFF"></path>
            </g>
            <g id="ClearAll" fill-rule="nonzero">
                <rect id="Rectangle-2" fill="url(#linearGradient-1)" x="0" y="0" width="126" height="37" rx="6.72000015"></rect>
                <path d="M30.8380803,14.1187343 L31.8057603,12.9494543 C30.4550403,11.6793742 28.5801602,10.8931342 26.6448002,10.8931342 C22.5523201,10.8931342 19.2864,14.0179343 19.2864,17.9692944 C19.2864,21.9609745 22.5120001,25.1059345 26.5843202,25.1059345 C28.5398402,25.1059345 30.4348803,24.2793745 31.8259203,22.9689745 L30.8380803,21.9004945 C29.7292803,22.9488145 28.2172802,23.5939345 26.6649602,23.5939345 C23.4796801,23.5939345 20.9193601,21.0739345 20.9193601,17.9692944 C20.9193601,14.8444943 23.4796801,12.3648143 26.6649602,12.3648143 C28.2172802,12.3648143 29.7494403,13.0300943 30.8380803,14.1187343 Z M34.6080004,10.0867342 L34.6080004,25.0454545 L36.1804804,25.0454545 L36.1804804,10.0867342 L34.6080004,10.0867342 Z M44.3049606,14.3808143 C47.7321607,14.3808143 49.4256007,16.7395344 49.2643207,20.3280144 L40.5955205,20.3280144 C40.8576005,22.4246545 42.3696005,23.7955345 44.4460806,23.7955345 C45.7564806,23.7955345 46.9056006,23.3116945 47.7321607,22.4448145 L48.5990407,23.3520145 C47.5910407,24.4608145 46.0992006,25.1059345 44.3251206,25.1059345 C41.2003205,25.1059345 39.0432005,22.9084945 39.0432005,19.7433744 C39.0432005,16.5782544 41.2204805,14.4009743 44.3049606,14.3808143 Z M40.5955205,19.0780944 L47.8531207,19.0780944 C47.7523207,17.0217744 46.3814406,15.6912143 44.3049606,15.6912143 C42.2688005,15.6912143 40.8172805,17.0217744 40.5955205,19.0780944 Z M60.0902409,25.0454545 L58.5580809,25.0454545 L58.5580809,23.3923345 C57.7113609,24.5414545 56.3606409,25.1059345 54.6672008,25.1059345 C52.4697608,25.1059345 51.0585607,23.7148945 51.0585607,21.9004945 C51.0585607,20.0457744 52.5302408,18.8764944 55.0300808,18.8563344 L58.5177609,18.8563344 L58.5177609,18.1910544 C58.5177609,16.6387344 57.5500809,15.6912143 55.6752008,15.6912143 C54.5059208,15.6912143 53.4172808,16.1347343 52.3084808,16.9209744 L51.6432008,15.8121743 C53.0140808,14.9049743 54.1632008,14.3808143 55.9776009,14.3808143 C58.5984009,14.3808143 60.0499209,15.7718543 60.0700809,18.0297744 L60.0902409,25.0454545 Z M54.9696008,23.7955345 C56.7638409,23.7955345 58.1347209,22.9084945 58.5379209,21.3964945 L58.5379209,20.1062544 L55.2316808,20.1062544 C53.4576008,20.1062544 52.5302408,20.6505744 52.5302408,21.8400145 C52.5302408,23.0092945 53.4777608,23.7955345 54.9696008,23.7955345 Z M65.1705611,16.8000144 L65.1705611,14.4412943 L63.598081,14.4412943 L63.598081,25.0454545 L65.1705611,25.0454545 L65.1705611,19.4006544 C65.3520011,17.2636944 66.7430411,15.8726543 68.9808011,15.9129743 L68.9808011,14.3808143 C67.1865611,14.4009743 65.8761611,15.2476943 65.1705611,16.8000144 Z M87.8707216,25.0454545 L86.2780815,21.4368145 L78.5971214,21.4368145 L77.0246413,25.0454545 L75.3110413,25.0454545 L81.6412814,10.9334542 L83.3145615,10.9334542 L89.6246416,25.0454545 L87.8707216,25.0454545 Z M79.2624014,19.9449744 L85.6329615,19.9449744 L82.4275215,12.6873743 L79.2624014,19.9449744 Z M91.7212817,10.0867342 L91.7212817,25.0454545 L93.2937617,25.0454545 L93.2937617,10.0867342 L91.7212817,10.0867342 Z M97.3257618,10.0867342 L97.3257618,25.0454545 L98.8982418,25.0454545 L98.8982418,10.0867342 L97.3257618,10.0867342 Z" id="Clear-All" fill="#FFFFFF"></path>
            </g>
            <g id="MultiRange" transform="translate(1.000000, 90.000000)">
                <g id="Group-23">
                    <ellipse id="Oval" stroke-opacity="0.374462183" stroke="#9D9DBD" stroke-width="1.39999998" cx="13.6" cy="16.9634774" rx="12.9" ry="12.9934156"></ellipse>
                    <path d="M52.0339998,6.0709996 L43.277,9.9769996 L43.277,11.5099995 L52.0339998,15.4159995 L52.0339998,14.0719995 L44.411,10.7539995 L52.0339998,7.4149996 L52.0339998,6.0709996 Z M62.4709997,6.4909996 C62.4709997,5.2309996 63.7099996,4.4749997 65.5999996,4.4749997 C66.7759996,4.4749997 68.3299996,4.8319996 69.6529995,5.6929996 L70.3669995,4.2019997 C69.2749995,3.4669997 67.7629996,2.94199968 66.2299996,2.85799968 L66.2089996,0.33799972 L64.9279996,0.33799972 L64.9279996,2.87899968 C62.3239997,3.1099997 60.6229997,4.5169997 60.6229997,6.6169996 C60.6229997,11.8879995 68.8969996,9.8089996 68.8759996,13.7359995 C68.8759996,15.1639995 67.5529996,16.0249995 65.4319996,16.0249995 C63.7729996,16.0249995 61.9039997,15.2689995 60.5389997,13.9669995 L59.7829997,15.4159995 C61.0639997,16.6339994 62.9539997,17.5159994 64.9279996,17.6419994 L64.9279996,20.3929994 L66.2089996,20.3929994 L66.2299996,17.6209994 C68.9179996,17.3689994 70.7239995,15.8779995 70.7239995,13.6519995 C70.7449995,8.3179996 62.4709997,10.3129996 62.4709997,6.4909996 Z M74.3359995,2.87899968 L74.3359995,4.4329997 L77.8009994,4.4329997 L77.8009994,17.5999994 L79.4809994,17.5999994 L79.4809994,2.87899968 L74.3359995,2.87899968 Z M91.3879992,2.83699968 C94.8739991,2.83699968 96.8269991,5.4829996 96.8269991,10.2289996 C96.8269991,14.9959995 94.8739991,17.6419994 91.3879992,17.6419994 C87.8809992,17.6419994 85.9279993,14.9959995 85.9279993,10.2289996 C85.9279993,5.4829996 87.8809992,2.83699968 91.3879992,2.83699968 Z M91.3879992,4.2229997 C88.8889992,4.2229997 87.6079992,6.2179996 87.6079992,10.2289996 C87.6079992,14.2399995 88.8889992,16.2769995 91.3879992,16.2769995 C93.8449991,16.2769995 95.1469991,14.2399995 95.1469991,10.2289996 C95.1469991,6.2179996 93.8449991,4.2229997 91.3879992,4.2229997 Z" id="&lt;-$10" fill="#182359" fill-rule="nonzero"></path>
                </g>
                <g id="Group-20" transform="translate(0.000000, 53.061986)">
                    <ellipse id="Oval-Copy" stroke-opacity="0.374462183" stroke="#9D9DBD" stroke-width="1.39999998" cx="13.6" cy="16.9634774" rx="12.9" ry="12.9934156"></ellipse>
                    <path d="M45.8599999,6.4909996 C45.8599999,5.2309996 47.0989999,4.4749997 48.9889999,4.4749997 C50.1649999,4.4749997 51.7189998,4.8319996 53.0419998,5.6929996 L53.7559998,4.2019997 C52.6639998,3.4669997 51.1519999,2.94199968 49.6189999,2.85799968 L49.5979999,0.33799972 L48.3169999,0.33799972 L48.3169999,2.87899968 C45.7129999,3.1099997 44.012,4.5169997 44.012,6.6169996 C44.012,11.8879995 52.2859998,9.8089996 52.2649998,13.7359995 C52.2649998,15.1639995 50.9419999,16.0249995 48.8209999,16.0249995 C47.1619999,16.0249995 45.293,15.2689995 43.928,13.9669995 L43.172,15.4159995 C44.453,16.6339994 46.3429999,17.5159994 48.3169999,17.6419994 L48.3169999,20.3929994 L49.5979999,20.3929994 L49.6189999,17.6209994 C52.3069998,17.3689994 54.1129998,15.8779995 54.1129998,13.6519995 C54.1339998,8.3179996 45.8599999,10.3129996 45.8599999,6.4909996 Z M57.7249997,2.87899968 L57.7249997,4.4329997 L61.1899997,4.4329997 L61.1899997,17.5999994 L62.8699997,17.5999994 L62.8699997,2.87899968 L57.7249997,2.87899968 Z M74.7769995,2.83699968 C78.2629994,2.83699968 80.2159994,5.4829996 80.2159994,10.2289996 C80.2159994,14.9959995 78.2629994,17.6419994 74.7769995,17.6419994 C71.2699995,17.6419994 69.3169995,14.9959995 69.3169995,10.2289996 C69.3169995,5.4829996 71.2699995,2.83699968 74.7769995,2.83699968 Z M74.7769995,4.2229997 C72.2779995,4.2229997 70.9969995,6.2179996 70.9969995,10.2289996 C70.9969995,14.2399995 72.2779995,16.2769995 74.7769995,16.2769995 C77.2339994,16.2769995 78.5359994,14.2399995 78.5359994,10.2289996 C78.5359994,6.2179996 77.2339994,4.2229997 74.7769995,4.2229997 Z M88.8889992,10.6489995 L88.8889992,11.8459995 L93.8239991,11.8459995 L93.8239991,10.6489995 L88.8889992,10.6489995 Z M104.848999,6.4909996 C104.848999,5.2309996 106.087999,4.4749997 107.977999,4.4749997 C109.153999,4.4749997 110.707999,4.8319996 112.030999,5.6929996 L112.744999,4.2019997 C111.652999,3.4669997 110.140999,2.94199968 108.607999,2.85799968 L108.586999,0.33799972 L107.305999,0.33799972 L107.305999,2.87899968 C104.701999,3.1099997 103.000999,4.5169997 103.000999,6.6169996 C103.000999,11.8879995 111.274999,9.8089996 111.253999,13.7359995 C111.253999,15.1639995 109.930999,16.0249995 107.809999,16.0249995 C106.150999,16.0249995 104.281999,15.2689995 102.916999,13.9669995 L102.160999,15.4159995 C103.441999,16.6339994 105.331999,17.5159994 107.305999,17.6419994 L107.305999,20.3929994 L108.586999,20.3929994 L108.607999,17.6209994 C111.295999,17.3689994 113.101999,15.8779995 113.101999,13.6519995 C113.122999,8.3179996 104.848999,10.3129996 104.848999,6.4909996 Z M116.713999,2.87899968 L116.713999,4.4329997 L120.178999,4.4329997 L120.178999,17.5999994 L121.858999,17.5999994 L121.858999,2.87899968 L116.713999,2.87899968 Z M133.765998,2.83699968 C137.251998,2.83699968 139.204998,5.4829996 139.204998,10.2289996 C139.204998,14.9959995 137.251998,17.6419994 133.765998,17.6419994 C130.258999,17.6419994 128.305999,14.9959995 128.305999,10.2289996 C128.305999,5.4829996 130.258999,2.83699968 133.765998,2.83699968 Z M133.765998,4.2229997 C131.266998,4.2229997 129.985999,6.2179996 129.985999,10.2289996 C129.985999,14.2399995 131.266998,16.2769995 133.765998,16.2769995 C136.222998,16.2769995 137.524998,14.2399995 137.524998,10.2289996 C137.524998,6.2179996 136.222998,4.2229997 133.765998,4.2229997 Z M146.722998,2.83699968 C150.208998,2.83699968 152.161998,5.4829996 152.161998,10.2289996 C152.161998,14.9959995 150.208998,17.6419994 146.722998,17.6419994 C143.215998,17.6419994 141.262998,14.9959995 141.262998,10.2289996 C141.262998,5.4829996 143.215998,2.83699968 146.722998,2.83699968 Z M146.722998,4.2229997 C144.223998,4.2229997 142.942998,6.2179996 142.942998,10.2289996 C142.942998,14.2399995 144.223998,16.2769995 146.722998,16.2769995 C149.179998,16.2769995 150.481998,14.2399995 150.481998,10.2289996 C150.481998,6.2179996 149.179998,4.2229997 146.722998,4.2229997 Z" id="$10---$100" fill="#182359" fill-rule="nonzero"></path>
                </g>
                <g id="Group-22" transform="translate(0.000000, 159.185957)">
                    <ellipse id="Oval-Copy-3" stroke-opacity="0.374462183" stroke="#9D9DBD" stroke-width="1.39999998" cx="13.6" cy="16.9634774" rx="12.9" ry="12.9934156"></ellipse>
                    <path d="M46.677,15.3529995 L55.4339998,11.4469995 L55.4339998,9.9139996 L46.677,6.0079996 L46.677,7.3519996 L54.2999999,10.6699995 L46.677,14.0089995 L46.677,15.3529995 Z M65.8709997,6.4909996 C65.8709997,5.2309996 67.1099996,4.4749997 68.9999996,4.4749997 C70.1759996,4.4749997 71.7299996,4.8319996 73.0529995,5.6929996 L73.7669995,4.2019997 C72.6749995,3.4669997 71.1629996,2.94199968 69.6299996,2.85799968 L69.6089996,0.33799972 L68.3279996,0.33799972 L68.3279996,2.87899968 C65.7239997,3.1099997 64.0229997,4.5169997 64.0229997,6.6169996 C64.0229997,11.8879995 72.2969996,9.8089996 72.2759996,13.7359995 C72.2759996,15.1639995 70.9529996,16.0249995 68.8319996,16.0249995 C67.1729996,16.0249995 65.3039997,15.2689995 63.9389997,13.9669995 L63.1829997,15.4159995 C64.4639997,16.6339994 66.3539997,17.5159994 68.3279996,17.6419994 L68.3279996,20.3929994 L69.6089996,20.3929994 L69.6299996,17.6209994 C72.3179996,17.3689994 74.1239995,15.8779995 74.1239995,13.6519995 C74.1449995,8.3179996 65.8709997,10.3129996 65.8709997,6.4909996 Z M78.9539994,8.6749996 L78.9539994,4.4329997 L86.3669993,4.4329997 L86.3669993,2.87899968 L77.3789995,2.87899968 L77.3789995,10.3969996 C78.5129994,10.1449996 80.3609994,9.9979996 81.3899994,9.9979996 C83.7209994,9.9979996 85.2119993,11.1319995 85.2119993,12.8959995 C85.2119993,14.8909995 83.7209994,16.1299995 81.3479994,16.1299995 C79.9409994,16.1299995 78.2819994,15.5839995 77.0009995,14.6809995 L76.3079995,16.0459995 C77.7779995,17.0119994 79.7939994,17.6419994 81.5159994,17.6419994 C84.8339993,17.6419994 86.9759993,15.7309995 86.9759993,12.7909995 C86.9759993,10.2709996 84.8969993,8.4649996 81.6419994,8.4649996 C80.9069994,8.4649996 79.7939994,8.5279996 78.9539994,8.6749996 Z M94.7879992,2.83699968 C98.2739991,2.83699968 100.226999,5.4829996 100.226999,10.2289996 C100.226999,14.9959995 98.2739991,17.6419994 94.7879992,17.6419994 C91.2809992,17.6419994 89.3279993,14.9959995 89.3279993,10.2289996 C89.3279993,5.4829996 91.2809992,2.83699968 94.7879992,2.83699968 Z M94.7879992,4.2229997 C92.2889992,4.2229997 91.0079992,6.2179996 91.0079992,10.2289996 C91.0079992,14.2399995 92.2889992,16.2769995 94.7879992,16.2769995 C97.2449991,16.2769995 98.5469991,14.2399995 98.5469991,10.2289996 C98.5469991,6.2179996 97.2449991,4.2229997 94.7879992,4.2229997 Z M107.744999,2.83699968 C111.230999,2.83699968 113.183999,5.4829996 113.183999,10.2289996 C113.183999,14.9959995 111.230999,17.6419994 107.744999,17.6419994 C104.237999,17.6419994 102.284999,14.9959995 102.284999,10.2289996 C102.284999,5.4829996 104.237999,2.83699968 107.744999,2.83699968 Z M107.744999,4.2229997 C105.245999,4.2229997 103.964999,6.2179996 103.964999,10.2289996 C103.964999,14.2399995 105.245999,16.2769995 107.744999,16.2769995 C110.201999,16.2769995 111.503999,14.2399995 111.503999,10.2289996 C111.503999,6.2179996 110.201999,4.2229997 107.744999,4.2229997 Z" id="&gt;-$500" fill="#182359" fill-rule="nonzero"></path>
                </g>
                <g id="Group-21" transform="translate(0.000000, 108.682356)">
                    <g id="Group-14" transform="translate(0.000000, 0.711677)">
                        <ellipse id="Oval-Copy-2" fill="url(#linearGradient-1)" fill-rule="nonzero" cx="13.6" cy="13.6934156" rx="13.6" ry="13.6934156"></ellipse>
                        <polyline id="Path-4" stroke="#FFFFFF" stroke-width="2.23999996" stroke-linecap="round" stroke-linejoin="round" points="6.8 15.1979639 10.8423226 19.3671662 20.478059 9.58539095"></polyline>
                    </g>
                    <path d="M47.3359999,7.63160018 C47.3359999,6.4556002 48.4923999,5.75000021 50.2563999,5.75000021 C51.3539999,5.75000021 52.8043999,6.0832002 54.0391998,6.88680019 L54.7055998,5.49520021 C53.6863998,4.80920022 52.2751999,4.31920023 50.8443999,4.24080023 L50.8247999,1.88880027 L49.6291999,1.88880027 L49.6291999,4.26040023 C47.1987999,4.47600023 45.6112,5.78920021 45.6112,7.74920017 C45.6112,12.6688001 53.3335998,10.7284001 53.3139998,14.3936001 C53.3139998,15.7264 52.0791999,16.53 50.0995999,16.53 C48.5511999,16.53 46.8068,15.8244 45.5328,14.6092001 L44.8272,15.9616 C46.0228,17.0984 47.7867999,17.9216 49.6291999,18.0392 L49.6291999,20.6068 L50.8247999,20.6068 L50.8443999,18.0196 C53.3531998,17.7844 55.0387998,16.3928 55.0387998,14.3152001 C55.0583998,9.3368001 47.3359999,11.1988001 47.3359999,7.63160018 Z M58.4099998,4.26040023 L58.4099998,5.71080021 L61.6439997,5.71080021 L61.6439997,18 L63.2119997,18 L63.2119997,4.26040023 L58.4099998,4.26040023 Z M74.3251995,4.22120023 C77.5787994,4.22120023 79.4015994,6.69080019 79.4015994,11.1204001 C79.4015994,15.5696 77.5787994,18.0392 74.3251995,18.0392 C71.0519995,18.0392 69.2291996,15.5696 69.2291996,11.1204001 C69.2291996,6.69080019 71.0519995,4.22120023 74.3251995,4.22120023 Z M74.3251995,5.51480021 C71.9927995,5.51480021 70.7971995,7.37680018 70.7971995,11.1204001 C70.7971995,14.8640001 71.9927995,16.7652 74.3251995,16.7652 C76.6183994,16.7652 77.8335994,14.8640001 77.8335994,11.1204001 C77.8335994,7.37680018 76.6183994,5.51480021 74.3251995,5.51480021 Z M86.4183993,4.22120023 C89.6719992,4.22120023 91.4947992,6.69080019 91.4947992,11.1204001 C91.4947992,15.5696 89.6719992,18.0392 86.4183993,18.0392 C83.1451993,18.0392 81.3223994,15.5696 81.3223994,11.1204001 C81.3223994,6.69080019 83.1451993,4.22120023 86.4183993,4.22120023 Z M86.4183993,5.51480021 C84.0859993,5.51480021 82.8903993,7.37680018 82.8903993,11.1204001 C82.8903993,14.8640001 84.0859993,16.7652 86.4183993,16.7652 C88.7115992,16.7652 89.9267992,14.8640001 89.9267992,11.1204001 C89.9267992,7.37680018 88.7115992,5.51480021 86.4183993,5.51480021 Z M99.5895991,11.5124001 L99.5895991,12.6296001 L104.195599,12.6296001 L104.195599,11.5124001 L99.5895991,11.5124001 Z M114.485599,7.63160018 C114.485599,6.4556002 115.641999,5.75000021 117.405999,5.75000021 C118.503599,5.75000021 119.953999,6.0832002 121.188799,6.88680019 L121.855199,5.49520021 C120.835999,4.80920022 119.424799,4.31920023 117.993999,4.24080023 L117.974399,1.88880027 L116.778799,1.88880027 L116.778799,4.26040023 C114.348399,4.47600023 112.760799,5.78920021 112.760799,7.74920017 C112.760799,12.6688001 120.483199,10.7284001 120.463599,14.3936001 C120.463599,15.7264 119.228799,16.53 117.249199,16.53 C115.700799,16.53 113.956399,15.8244 112.682399,14.6092001 L111.976799,15.9616 C113.172399,17.0984 114.936399,17.9216 116.778799,18.0392 L116.778799,20.6068 L117.974399,20.6068 L117.993999,18.0196 C120.502799,17.7844 122.188399,16.3928 122.188399,14.3152001 C122.207999,9.3368001 114.485599,11.1988001 114.485599,7.63160018 Z M126.696399,9.6700001 L126.696399,5.71080021 L133.615198,5.71080021 L133.615198,4.26040023 L125.226399,4.26040023 L125.226399,11.2772001 C126.284799,11.0420001 128.009599,10.9048001 128.969999,10.9048001 C131.145599,10.9048001 132.537198,11.9632001 132.537198,13.6096001 C132.537198,15.4716 131.145599,16.628 128.930799,16.628 C127.617599,16.628 126.069199,16.1184 124.873599,15.2756 L124.226799,16.5496 C125.598799,17.4512 127.480399,18.0392 129.087599,18.0392 C132.184399,18.0392 134.183598,16.2556 134.183598,13.5116001 C134.183598,11.1596001 132.243199,9.4740001 129.205199,9.4740001 C128.519199,9.4740001 127.480399,9.5328001 126.696399,9.6700001 Z M141.474798,4.22120023 C144.728398,4.22120023 146.551198,6.69080019 146.551198,11.1204001 C146.551198,15.5696 144.728398,18.0392 141.474798,18.0392 C138.201598,18.0392 136.378798,15.5696 136.378798,11.1204001 C136.378798,6.69080019 138.201598,4.22120023 141.474798,4.22120023 Z M141.474798,5.51480021 C139.142398,5.51480021 137.946798,7.37680018 137.946798,11.1204001 C137.946798,14.8640001 139.142398,16.7652 141.474798,16.7652 C143.767998,16.7652 144.983198,14.8640001 144.983198,11.1204001 C144.983198,7.37680018 143.767998,5.51480021 141.474798,5.51480021 Z M153.567998,4.22120023 C156.821598,4.22120023 158.644398,6.69080019 158.644398,11.1204001 C158.644398,15.5696 156.821598,18.0392 153.567998,18.0392 C150.294798,18.0392 148.471998,15.5696 148.471998,11.1204001 C148.471998,6.69080019 150.294798,4.22120023 153.567998,4.22120023 Z M153.567998,5.51480021 C151.235598,5.51480021 150.039998,7.37680018 150.039998,11.1204001 C150.039998,14.8640001 151.235598,16.7652 153.567998,16.7652 C155.861198,16.7652 157.076398,14.8640001 157.076398,11.1204001 C157.076398,7.37680018 155.861198,5.51480021 153.567998,5.51480021 Z" id="$100---$500" fill="#182359" fill-rule="nonzero"></path>
                </g>
                <g id="Group-24" transform="translate(0.000000, 220.653035)">
                    <g id="Rectangle-12">
                        <g id="path-2-link" fill-rule="nonzero" fill="#000000">
                            <rect id="path-2" x="0" y="0" width="164.9" height="46.2152778" rx="5.5999999"></rect>
                        </g>
                        <g id="path-2-link" fill="#FFFFFF">
                            <rect id="path-2" x="0" y="0" width="164.9" height="46.2152778" rx="5.5999999"></rect>
                        </g>
                        <rect id="Rectangle-path" stroke="#D4D8E3" stroke-width="1.39999998" x="0.699999988" y="0.699999988" width="163.5" height="44.8152778" rx="5.5999999"></rect>
                    </g>
                    <path d="M39.0033066,16.7703899 L39.6765066,15.3645899 C38.5281066,14.59239 36.8847067,14.07759 35.2809068,14.07759 C32.4099069,14.07759 30.4893069,15.4635899 30.4893069,17.6415898 C30.4893069,22.6113896 38.2905066,20.6511897 38.2707066,24.3537896 C38.2707066,25.7001895 37.0233067,26.5119895 35.0235068,26.5119895 C33.4593068,26.5119895 31.6971069,25.7991895 30.4101069,24.5715896 L29.697307,25.9377895 C31.0041069,27.1851895 32.9841068,28.0563894 35.0037068,28.0563894 C37.9737067,28.0563894 40.0131066,26.5713895 40.0131066,24.2745896 C40.0329066,19.2453898 32.2317069,21.1263897 32.2317069,17.5227898 C32.2317069,16.3347899 33.3999068,15.6219899 35.1819068,15.6219899 C36.2907067,15.6219899 37.7559067,15.9585899 39.0033066,16.7703899 Z M48.7449062,17.5227898 C46.8243063,17.5425898 45.3987064,18.2949898 44.6859064,19.9185897 L44.6859064,13.30539 L43.1415065,13.30539 L43.1415065,27.9969894 L44.6859064,27.9969894 L44.6859064,22.8885896 C44.6859064,20.6115897 45.9927063,19.0275898 48.2103063,19.0077898 C50.0517062,19.0077898 51.1605061,20.1165897 51.1605061,21.9777897 L51.1605061,27.9969894 L52.7049061,27.9969894 L52.7049061,21.5817897 C52.7049061,19.0473898 51.2397061,17.5227898 48.7449062,17.5227898 Z M60.3873058,17.5227898 C63.4761057,17.5227898 65.6739056,19.6809898 65.6739056,22.7697896 C65.6739056,25.8783895 63.4761057,28.0563894 60.3873058,28.0563894 C57.2787059,28.0563894 55.100706,25.8783895 55.100706,22.7697896 C55.100706,19.6809898 57.2787059,17.5227898 60.3873058,17.5227898 Z M60.3873058,18.8889898 C58.1895059,18.8889898 56.6451059,20.4927897 56.6451059,22.7895896 C56.6451059,25.1259895 58.1895059,26.7099895 60.3873058,26.7099895 C62.5653057,26.7099895 64.1295056,25.1259895 64.1295056,22.7895896 C64.1295056,20.4927897 62.5653057,18.8889898 60.3873058,18.8889898 Z M66.2481056,17.5821898 L70.1487054,27.9969894 L71.7525054,27.9969894 L74.8017052,19.4631898 L77.8707051,27.9969894 L79.4745051,27.9969894 L83.3355049,17.5821898 L81.731705,17.5821898 L78.6825051,26.4327895 L75.6135052,17.5821898 L73.9899053,17.5821898 L70.9605054,26.4327895 L67.8717055,17.5821898 L66.2481056,17.5821898 Z M91.3149046,14.13699 L91.3149046,27.9969894 L92.8197045,27.9969894 L92.8197045,16.4733899 L97.8489043,26.5317895 L98.7993043,26.5317895 L103.848304,16.4733899 L103.868104,27.9969894 L105.333304,27.9969894 L105.333304,14.13699 L103.392904,14.13699 L98.3439043,24.1953896 L93.2751045,14.13699 L91.3149046,14.13699 Z M113.570104,17.5227898 C116.658904,17.5227898 118.856704,19.6809898 118.856704,22.7697896 C118.856704,25.8783895 116.658904,28.0563894 113.570104,28.0563894 C110.461504,28.0563894 108.283504,25.8783895 108.283504,22.7697896 C108.283504,19.6809898 110.461504,17.5227898 113.570104,17.5227898 Z M113.570104,18.8889898 C111.372304,18.8889898 109.827904,20.4927897 109.827904,22.7895896 C109.827904,25.1259895 111.372304,26.7099895 113.570104,26.7099895 C115.748104,26.7099895 117.312304,25.1259895 117.312304,22.7895896 C117.312304,20.4927897 115.748104,18.8889898 113.570104,18.8889898 Z M123.113703,19.8987897 L123.113703,17.5821898 L121.569303,17.5821898 L121.569303,27.9969894 L123.113703,27.9969894 L123.113703,22.4529896 C123.291903,20.3541897 124.658103,18.9879898 126.855903,19.0275898 L126.855903,17.5227898 C125.093703,17.5425898 123.806703,18.3741898 123.113703,19.8987897 Z M133.053303,17.5227898 C136.419303,17.5227898 138.082503,19.8393897 137.924103,23.3637896 L129.410103,23.3637896 C129.667503,25.4229895 131.152503,26.7693895 133.191903,26.7693895 C134.478903,26.7693895 135.607503,26.2941895 136.419303,25.4427895 L137.270703,26.3337895 C136.280703,27.4227895 134.815503,28.0563894 133.073103,28.0563894 C130.004103,28.0563894 127.885503,25.8981895 127.885503,22.7895896 C127.885503,19.6809898 130.023903,17.5425898 133.053303,17.5227898 Z M129.410103,22.1361897 L136.538103,22.1361897 C136.439103,20.1165897 135.092703,18.8097898 133.053303,18.8097898 C131.053503,18.8097898 129.627903,20.1165897 129.410103,22.1361897 Z" id="Show-More" fill="#182359" fill-rule="nonzero"></path>
                </g>
            </g>
            <g id="RefinementList" transform="translate(211.000000, 90.000000)">
                <g id="Group-15">
                    <g id="Rectangle-5">
                        <g id="path-4-link" fill="#FFFFFF">
                            <rect id="path-4" x="0" y="0.19870898" width="26.8235294" height="28.7948359" rx="4.47999992"></rect>
                        </g>
                        <rect id="Rectangle-path" stroke="#D4D8E3" stroke-width="1.39999998" x="0.699999988" y="0.89870897" width="25.4235294" height="27.394836" rx="4.47999992"></rect>
                    </g>
                    <path d="M38.6848235,5.89999968 L43.5988234,20.5999994 L45.3208234,20.5999994 L49.3318233,8.1469996 L53.3008233,20.5999994 L55.0228232,20.5999994 L59.9578232,5.89999968 L58.2148232,5.89999968 L54.2248233,18.7099995 L50.1928233,5.89999968 L48.5128234,5.89999968 L44.5228234,18.7099995 L40.4908235,5.89999968 L38.6848235,5.89999968 Z M67.958823,9.4909996 C65.9218231,9.5119996 64.4098231,10.3099996 63.6538231,12.0319996 L63.6538231,5.01799969 L62.0158231,5.01799969 L62.0158231,20.5999994 L63.6538231,20.5999994 L63.6538231,15.1819995 C63.6538231,12.7669996 65.0398231,11.0869996 67.391823,11.0659996 C69.344823,11.0659996 70.520823,12.2419996 70.520823,14.2159995 L70.520823,20.5999994 L72.158823,20.5999994 L72.158823,13.7959995 C72.158823,11.1079996 70.604823,9.4909996 67.958823,9.4909996 Z M76.6108229,5.26999969 C76.0018229,5.26999969 75.5398229,5.73199968 75.5398229,6.3829997 C75.5398229,7.0129997 76.0018229,7.4959997 76.6108229,7.4959997 C77.2198229,7.4959997 77.6818229,7.0129997 77.6818229,6.3829997 C77.6818229,5.73199968 77.2198229,5.26999969 76.6108229,5.26999969 Z M75.8128229,9.5539996 L75.8128229,20.5999994 L77.4298229,20.5999994 L77.4298229,9.5539996 L75.8128229,9.5539996 Z M86.6698227,18.5839995 C86.0608227,18.9409995 85.4728227,19.1299995 84.9058227,19.1509995 C83.9608228,19.1509995 83.4358228,18.6049995 83.4358228,17.2609995 L83.4358228,11.1709996 L86.9428227,11.1709996 L86.9428227,9.8899996 L83.4358228,9.8899996 L83.4358228,6.9919997 L81.8188228,6.9919997 L81.8188228,9.8899996 L80.2228228,9.8899996 L80.2228228,11.1709996 L81.8188228,11.1709996 L81.8188228,17.5339995 C81.8188228,19.7179994 83.0158228,20.6839994 84.6328227,20.6629994 C85.5148227,20.6629994 86.3548227,20.3689994 87.1318227,19.8439994 L86.6698227,18.5839995 Z M93.9778226,9.4909996 C97.5478225,9.4909996 99.3118225,11.9479996 99.1438225,15.6859995 L90.1138227,15.6859995 C90.3868226,17.8699995 91.9618226,19.2979994 94.1248226,19.2979994 C95.4898226,19.2979994 96.6868225,18.7939995 97.5478225,17.8909995 L98.4508225,18.8359995 C97.4008225,19.9909994 95.8468226,20.6629994 93.9988226,20.6629994 C90.7438226,20.6629994 88.4968227,18.3739995 88.4968227,15.0769995 C88.4968227,11.7799996 90.7648226,9.5119996 93.9778226,9.4909996 Z M90.1138227,14.3839995 L97.6738225,14.3839995 C97.5688225,12.2419996 96.1408225,10.8559996 93.9778226,10.8559996 C91.8568226,10.8559996 90.3448226,12.2419996 90.1138227,14.3839995 Z" id="White" fill="#182359" fill-rule="nonzero"></path>
                </g>
                <g id="Group-17" transform="translate(0.000000, 55.789995)">
                    <rect id="Rectangle-5-Copy" stroke-opacity="0.374462183" stroke="#9D9DBD" stroke-width="1.39999998" x="0.699999988" y="0.89870897" width="25.4235294" height="27.394836" rx="4.47999992"></rect>
                    <path d="M46.9798234,6.89999968 C49.9408233,6.89999968 51.7468233,8.2649997 51.7468233,10.5749996 C51.7468233,12.2969996 50.7178233,13.5359996 49.0168234,13.8929996 C51.1378233,14.2079996 52.3768233,15.5939995 52.3768233,17.6099995 C52.3768233,20.1089995 50.4028233,21.5999994 47.0638234,21.5999994 L40.7848235,21.5999994 L40.7848235,6.89999968 L46.9798234,6.89999968 Z M46.8958234,13.2629996 C48.8698234,13.2629996 50.0248233,12.3809996 50.0248233,10.8269996 C50.0248233,9.3149996 48.8698234,8.4539997 46.8958234,8.4539997 L42.4648235,8.4539997 L42.4648235,13.2629996 L46.8958234,13.2629996 Z M46.8958234,20.0459995 C49.2898233,20.0669995 50.6758233,19.1009995 50.6758233,17.3999995 C50.6758233,15.7619995 49.2898233,14.7959995 46.8958234,14.8169995 L42.4648235,14.8169995 L42.4648235,20.0459995 L46.8958234,20.0459995 Z M55.6948232,6.01799969 L55.6948232,21.5999994 L57.3328232,21.5999994 L57.3328232,6.01799969 L55.6948232,6.01799969 Z M69.890823,21.5999994 L68.294823,21.5999994 L68.294823,19.8779995 C67.412823,21.0749994 66.0058231,21.6629994 64.2418231,21.6629994 C61.9528231,21.6629994 60.4828232,20.2139995 60.4828232,18.3239995 C60.4828232,16.3919995 62.0158231,15.1739995 64.6198231,15.1529995 L68.252823,15.1529995 L68.252823,14.4599995 C68.252823,12.8429996 67.244823,11.8559996 65.2918231,11.8559996 C64.0738231,11.8559996 62.9398231,12.3179996 61.7848231,13.1369996 L61.0918231,11.9819996 C62.5198231,11.0369996 63.7168231,10.4909996 65.6068231,10.4909996 C68.336823,10.4909996 69.848823,11.9399996 69.869823,14.2919996 L69.890823,21.5999994 Z M64.5568231,20.2979994 C66.4258231,20.2979994 67.853823,19.3739995 68.273823,17.7989995 L68.273823,16.4549995 L64.8298231,16.4549995 C62.9818231,16.4549995 62.0158231,17.0219995 62.0158231,18.2609995 C62.0158231,19.4789995 63.0028231,20.2979994 64.5568231,20.2979994 Z M81.2728228,13.2629996 L82.1758228,12.1289996 C81.1678228,11.0999996 79.6978228,10.4909996 77.9128229,10.4909996 C74.7208229,10.4909996 72.431823,12.8009996 72.431823,16.0769995 C72.431823,19.3739995 74.6998229,21.6629994 77.9128229,21.6629994 C79.8238228,21.6629994 81.3568228,20.9489994 82.3438228,19.7519995 L81.3988228,18.7859995 C80.6218228,19.7099995 79.4248228,20.2139995 77.9758229,20.2139995 C75.6868229,20.2139995 74.0488229,18.5339995 74.0488229,16.0769995 C74.0488229,13.6409996 75.6868229,11.9609996 77.9758229,11.9609996 C79.3198228,11.9609996 80.4328228,12.4439996 81.2728228,13.2629996 Z M93.1798226,21.5999994 L95.1328226,21.5999994 L90.5548226,14.8169995 L94.6918226,10.5539996 L92.7598226,10.5539996 L87.0688227,16.2869995 L87.0688227,6.01799969 L85.4308227,6.01799969 L85.4308227,21.5999994 L87.0688227,21.5999994 L87.0688227,18.4079995 L89.3998227,15.9929995 L93.1798226,21.5999994 Z" id="Black" fill="#182359" fill-rule="nonzero"></path>
                </g>
                <g id="Group-19" transform="translate(0.000000, 167.369984)">
                    <g id="Rectangle-5-Copy-3">
                        <g id="path-5-link" fill="#FFFFFF">
                            <rect id="path-5" x="0" y="0.19870898" width="26.8235294" height="28.7948359" rx="4.47999992"></rect>
                        </g>
                        <rect id="Rectangle-path" stroke="#D4D8E3" stroke-width="1.39999998" x="0.699999988" y="0.89870897" width="25.4235294" height="27.394836" rx="4.47999992"></rect>
                    </g>
                    <path d="M52.7092939,18.8909995 C51.5752939,19.6679995 50.1682939,20.1299995 48.845294,20.1299995 C45.485294,20.1299995 42.7762941,17.5259995 42.7762941,14.2499996 C42.7762941,10.9949996 45.464294,8.3909997 48.824294,8.3909997 C50.4622939,8.3909997 52.0792939,9.0209996 53.2762939,10.0919996 L54.2422939,8.8739996 C52.8352939,7.6349997 50.8612939,6.85799968 48.824294,6.85799968 C44.498294,6.85799968 41.0752941,10.1129996 41.0752941,14.2499996 C41.0752941,18.3869995 44.477294,21.6629994 48.740294,21.6629994 C50.7142939,21.6629994 52.7512939,20.9069994 54.2002939,19.7519995 L54.2002939,14.4179996 L52.7092939,14.4179996 L52.7092939,18.8909995 Z M59.6812938,13.0109996 L59.6812938,10.5539996 L58.0432938,10.5539996 L58.0432938,21.5999994 L59.6812938,21.5999994 L59.6812938,15.7199995 C59.8702938,13.4939996 61.3192938,12.0449996 63.6502937,12.0869996 L63.6502937,10.4909996 C61.7812938,10.5119996 60.4162938,11.3939996 59.6812938,13.0109996 Z M74.3182935,21.5999994 L72.7222936,21.5999994 L72.7222936,19.8779995 C71.8402936,21.0749994 70.4332936,21.6629994 68.6692936,21.6629994 C66.3802937,21.6629994 64.9102937,20.2139995 64.9102937,18.3239995 C64.9102937,16.3919995 66.4432937,15.1739995 69.0472936,15.1529995 L72.6802936,15.1529995 L72.6802936,14.4599995 C72.6802936,12.8429996 71.6722936,11.8559996 69.7192936,11.8559996 C68.5012936,11.8559996 67.3672937,12.3179996 66.2122937,13.1369996 L65.5192937,11.9819996 C66.9472937,11.0369996 68.1442936,10.4909996 70.0342936,10.4909996 C72.7642936,10.4909996 74.2762935,11.9399996 74.2972935,14.2919996 L74.3182935,21.5999994 Z M68.9842936,20.2979994 C70.8532936,20.2979994 72.2812936,19.3739995 72.7012936,17.7989995 L72.7012936,16.4549995 L69.2572936,16.4549995 C67.4092937,16.4549995 66.4432937,17.0219995 66.4432937,18.2609995 C66.4432937,19.4789995 67.4302937,20.2979994 68.9842936,20.2979994 Z M81.5002934,23.1749994 L86.5822933,10.5539996 L84.9022934,10.5539996 L81.3952934,19.7519995 L77.7202935,10.5539996 L75.9982935,10.5539996 L80.5762934,21.5159994 L80.1142934,22.5659994 C79.6732934,23.6159994 78.9592935,24.1619994 78.0982935,24.1619994 C77.5522935,24.1619994 77.0482935,23.9939994 76.5442935,23.6369994 L75.8512935,24.9389994 C76.5232935,25.4849994 77.2582935,25.7369994 78.1822935,25.7369994 C79.6522934,25.7369994 80.8072934,24.8549994 81.5002934,23.1749994 Z" id="Gray" fill="#182359" fill-rule="nonzero"></path>
                </g>
                <g id="Group-18" transform="translate(0.000000, 111.778698)">
                    <g id="Group-6">
                        <rect id="Rectangle-5-Copy-2" fill="url(#linearGradient-1)" fill-rule="nonzero" x="0" y="0" width="26.8235294" height="28.7948359" rx="4.47999992"></rect>
                        <polyline id="Path-4" stroke="#FFFFFF" stroke-width="2.23999996" stroke-linecap="round" stroke-linejoin="round" points="6.70588235 15.9793176 10.6922558 20.3628659 20.1946257 10.0781926"></polyline>
                    </g>
                    <path d="M47.467694,7.28000023 C50.8584939,7.28000023 52.8184939,8.9656002 52.8184939,11.8860002 C52.8184939,14.9044001 50.8584939,16.6488001 47.467694,16.6488001 L43.8808941,16.6488001 L43.8808941,21 L42.3128941,21 L42.3128941,7.28000023 L47.467694,7.28000023 Z M47.408894,15.1984001 C49.878494,15.1984001 51.3092939,14.0812001 51.3092939,11.9252002 C51.3092939,9.82800019 49.878494,8.73040021 47.408894,8.73040021 L43.8808941,8.73040021 L43.8808941,15.1984001 L47.408894,15.1984001 Z M55.9544938,6.69200024 C55.3860939,6.69200024 54.9548939,7.12320024 54.9548939,7.73080023 C54.9548939,8.31880022 55.3860939,8.76960021 55.9544938,8.76960021 C56.5228938,8.76960021 56.9540938,8.31880022 56.9540938,7.73080023 C56.9540938,7.12320024 56.5228938,6.69200024 55.9544938,6.69200024 Z M55.2096939,10.6904002 L55.2096939,21 L56.7188938,21 L56.7188938,10.6904002 L55.2096939,10.6904002 Z M65.9700937,10.6316002 C64.0884937,10.6512002 62.6968937,11.3960002 61.9716937,12.9640001 L61.9716937,10.6904002 L60.4428938,10.6904002 L60.4428938,21 L61.9716937,21 L61.9716937,15.4728001 C62.1480937,13.4736001 63.4024937,12.1212002 65.4408937,12.1016002 C67.2636937,12.1016002 68.3612936,13.1992001 68.3612936,15.0416001 L68.3612936,21 L69.8900936,21 L69.8900936,14.6496001 C69.8900936,12.1408002 68.4396936,10.6316002 65.9700937,10.6316002 Z M80.6308934,21 L82.4536934,21 L78.1808935,14.6692001 L82.0420934,10.6904002 L80.2388934,10.6904002 L74.9272935,16.0412001 L74.9272935,6.45680025 L73.3984936,6.45680025 L73.3984936,21 L74.9272935,21 L74.9272935,18.0208001 L77.1028935,15.7668001 L80.6308934,21 Z" id="Pink" fill="#182359" fill-rule="nonzero"></path>
                </g>
            </g>
            <g id="RangeRatings" transform="translate(404.000000, 83.000000)" fill-rule="nonzero">
                <g id="Group-13" transform="translate(0.000000, 60.995169)">
                    <g id="Group-8">
                        <polygon id="Shape-Copy-10" fill="#FEC168" points="148.516673 11.6211848 137.254077 10.6260004 132.852422 0 128.450768 10.6420518 117.188172 11.6211848 125.740853 19.2134781 123.171916 30.4975843 132.852422 24.510427 142.532929 30.4975843 139.979656 19.2134781"></polygon>
                        <polygon id="Shape-Copy-10" fill="#FEC168" points="109.453949 11.6211848 98.1913525 10.6260004 93.7896983 0 89.3880439 10.6420518 78.125448 11.6211848 86.6781287 19.2134781 84.1091916 30.4975843 93.7896983 24.510427 103.470205 30.4975843 100.916932 19.2134781"></polygon>
                        <polygon id="Shape-Copy-10" fill="#FEC168" points="70.3912245 11.6211848 59.1286285 10.6260004 54.7269742 0 50.3253199 10.6420518 39.062724 11.6211848 47.6154046 19.2134781 45.0464676 30.4975843 54.7269742 24.510427 64.407481 30.4975843 61.8542081 19.2134781"></polygon>
                        <polygon id="Shape-Copy-10" fill="#FEC168" points="31.3285005 11.6211848 20.0659045 10.6260004 15.6642502 0 11.2625959 10.6420518 0 11.6211848 8.55268063 19.2134781 5.9837436 30.4975843 15.6642502 24.510427 25.344757 30.4975843 22.7914841 19.2134781"></polygon>
                        <polygon id="Shape-Copy-10" fill-opacity="0.146852355" fill="#182359" points="185.719267 11.6211848 174.456671 10.6260004 170.055017 0 165.653362 10.6420518 154.390766 11.6211848 162.943447 19.2134781 160.37451 30.4975843 170.055017 24.510427 179.735523 30.4975843 177.18225 19.2134781"></polygon>
                    </g>
                    <path d="M208.03669,24.412 L207.21349,25.2352 L204.92029,22.9616 C203.66589,24.314 202.21549,25.0588 200.66709,25.0588 C198.39349,25.0588 196.59029,23.4712 196.59029,21.3152001 C196.59029,19.3356001 198.09949,18.2968001 199.70669,17.4344001 C198.76589,16.1996001 198.29549,15.1608002 198.29549,14.1612002 C198.29549,12.4560002 199.64789,11.2212002 201.64709,11.2212002 C203.54829,11.2212002 204.82229,12.3580002 204.82229,13.9652002 C204.82229,15.8272002 203.13669,16.7876001 201.41189,17.7088001 C202.25469,18.6888001 203.37189,19.8256001 204.78309,21.1976001 C205.29269,20.4528001 205.76309,19.5512001 206.17469,18.5320001 L207.21349,19.3160001 C206.76269,20.3548001 206.23349,21.2956001 205.66509,22.0796 L208.03669,24.412 Z M199.54989,14.1612002 C199.54989,14.9648002 199.96149,15.8272002 200.74549,16.8856001 C202.25469,16.1016002 203.56789,15.3568002 203.56789,13.9652002 C203.56789,12.9460002 202.82309,12.2404002 201.64709,12.2404002 C200.37309,12.2404002 199.54989,13.0832002 199.54989,14.1612002 Z M200.72589,23.8632 C201.90189,23.8632 203.05829,23.236 204.05789,22.1188 C202.52909,20.5900001 201.29429,19.3356001 200.37309,18.2576001 C199.02069,19.0024001 197.88389,19.8452001 197.88389,21.2172001 C197.88389,22.7656 199.13829,23.8632 200.72589,23.8632 Z M217.38589,19.3552001 L217.38589,11.2800002 L215.81789,11.2800002 L215.81789,19.3552001 C215.81789,22.942 217.99349,25.0588 221.59989,25.0588 C225.18669,25.0588 227.34269,22.942 227.34269,19.3552001 L227.34269,11.2800002 L225.77469,11.2800002 L225.77469,19.3552001 C225.77469,22.0600001 224.20669,23.628 221.59989,23.628 C218.99309,23.628 217.38589,22.0600001 217.38589,19.3552001 Z M236.57429,14.6316002 C239.49469,14.6316002 241.53309,16.7876001 241.53309,19.8648001 C241.53309,22.9224 239.53389,25.0588 236.61349,25.0588 C234.77109,25.0588 233.35989,24.216 232.59549,22.7852 L232.59549,28.8023999 L231.06669,28.8023999 L231.06669,14.6904002 L232.59549,14.6904002 L232.59549,16.9052001 C233.35989,15.4744002 234.77109,14.6316002 236.57429,14.6316002 Z M236.29989,23.7064 C238.45589,23.7064 239.98469,22.0796 239.98469,19.8256001 C239.98469,17.5912001 238.45589,15.9448002 236.29989,15.9448002 C234.12429,15.9448002 232.59549,17.5716001 232.59549,19.8256001 C232.59549,22.0992 234.12429,23.7064 236.29989,23.7064 Z" id="&amp;-Up" fill="#182359"></path>
                    <path d="M272.077219,10.4568002 L270.038819,10.4568002 C268.490419,12.6912002 267.647619,15.6900002 267.647619,18.9436001 C267.647619,22.1972 268.490419,25.196 270.038819,27.4304 L272.077219,27.4304 C270.646419,25.196 269.764419,22.1972 269.764419,18.9436001 C269.764419,15.6900002 270.646419,12.6912002 272.077219,10.4568002 Z M274.468419,11.2604002 L274.468419,13.3380002 L277.428019,13.3380002 L277.428019,25 L279.740819,25 L279.740819,11.2604002 L274.468419,11.2604002 Z M296.616419,17.8852001 L291.383219,23.2948 L291.383219,25 L301.438019,25 L301.438019,22.9224 L294.421219,22.9224 L298.184419,19.1200001 C299.693619,17.5520001 300.771619,16.0036002 300.771619,14.6316002 C300.771619,12.5148002 298.948819,11.1624002 296.263619,11.1624002 C294.460419,11.1624002 292.676819,11.9072002 291.148019,13.1224002 L292.088819,14.9060002 C293.264819,13.8476002 294.715219,13.2008002 295.950019,13.2008002 C297.459219,13.2008002 298.360819,13.8476002 298.360819,14.9648002 C298.360819,15.7488002 297.655219,16.8464001 296.616419,17.8852001 Z M306.357619,16.3172001 L306.357619,13.3380002 L312.923619,13.3380002 L312.923619,11.2604002 L304.221219,11.2604002 L304.221219,18.5320001 C305.201219,18.4144001 307.122019,18.3360001 308.004019,18.3360001 C309.885619,18.3360001 311.042019,19.1984001 311.042019,20.6096001 C311.042019,22.1384 309.885619,23.0792 307.964819,23.0792 C306.671219,23.0792 305.240419,22.55 304.084019,21.6288001 L303.143219,23.5104 C304.554419,24.4512 306.534019,25.0784 308.219619,25.0784 C311.434019,25.0784 313.511619,23.2556 313.511619,20.4528001 C313.511619,18.0616001 311.512419,16.2976001 308.396019,16.2976001 C307.866819,16.2976001 306.965219,16.2976001 306.357619,16.3172001 Z M320.606819,11.2016002 C323.919219,11.2016002 325.761619,13.6712002 325.761619,18.1204001 C325.761619,22.5892 323.919219,25.0588 320.606819,25.0588 C317.274819,25.0588 315.432419,22.5892 315.432419,18.1204001 C315.432419,13.6712002 317.274819,11.2016002 320.606819,11.2016002 Z M320.606819,13.0048002 C318.686019,13.0048002 317.725619,14.6316002 317.725619,18.1204001 C317.725619,21.6092001 318.686019,23.2556 320.606819,23.2556 C322.508019,23.2556 323.468419,21.6092001 323.468419,18.1204001 C323.468419,14.6316002 322.508019,13.0048002 320.606819,13.0048002 Z M328.976018,10.4568002 C330.406818,12.6912002 331.288818,15.6900002 331.288818,18.9436001 C331.288818,22.1972 330.406818,25.196 328.976018,27.4304 L331.014418,27.4304 C332.562818,25.196 333.405618,22.1972 333.405618,18.9436001 C333.405618,15.6900002 332.562818,12.6912002 331.014418,10.4568002 L328.976018,10.4568002 Z" id="(1-250)" fill="#9D9DBD"></path>
                </g>
                <g id="Group-13-Copy">
                    <g id="Group-8" fill="#FEC168">
                        <polygon id="Shape-Copy-10" points="148.516673 11.6211848 137.254077 10.6260004 132.852422 0 128.450768 10.6420518 117.188172 11.6211848 125.740853 19.2134781 123.171916 30.4975843 132.852422 24.510427 142.532929 30.4975843 139.979656 19.2134781"></polygon>
                        <polygon id="Shape-Copy-10-Copy-7" points="185.719267 11.6211848 174.456671 10.6260004 170.055017 0 165.653362 10.6420518 154.390766 11.6211848 162.943447 19.2134781 160.37451 30.4975843 170.055017 24.510427 179.735523 30.4975843 177.18225 19.2134781"></polygon>
                        <polygon id="Shape-Copy-10" points="109.453949 11.6211848 98.1913525 10.6260004 93.7896983 0 89.3880439 10.6420518 78.125448 11.6211848 86.6781287 19.2134781 84.1091916 30.4975843 93.7896983 24.510427 103.470205 30.4975843 100.916932 19.2134781"></polygon>
                        <polygon id="Shape-Copy-10" points="70.3912245 11.6211848 59.1286285 10.6260004 54.7269742 0 50.3253199 10.6420518 39.062724 11.6211848 47.6154046 19.2134781 45.0464676 30.4975843 54.7269742 24.510427 64.407481 30.4975843 61.8542081 19.2134781"></polygon>
                        <polygon id="Shape-Copy-10" points="31.3285005 11.6211848 20.0659045 10.6260004 15.6642502 0 11.2625959 10.6420518 0 11.6211848 8.55268063 19.2134781 5.9837436 30.4975843 15.6642502 24.510427 25.344757 30.4975843 22.7914841 19.2134781"></polygon>
                    </g>
                    <path d="M200.39229,12.4568002 L198.35389,12.4568002 C196.80549,14.6912002 195.96269,17.6900002 195.96269,20.9436001 C195.96269,24.1972 196.80549,27.196 198.35389,29.4304 L200.39229,29.4304 C198.96149,27.196 198.07949,24.1972 198.07949,20.9436001 C198.07949,17.6900002 198.96149,14.6912002 200.39229,12.4568002 Z M207.19349,19.0424001 L206.38989,18.9836001 L210.79989,14.7304002 L210.79989,13.2800002 L201.78389,13.2800002 L201.80349,15.3380002 L207.91869,15.3380002 L203.90069,19.1992001 L203.90069,20.5320001 L205.89989,20.5320001 C207.99709,20.5320001 209.23189,21.2964001 209.23189,22.7860001 C209.23189,24.2168 208.01669,25.1576 205.93909,25.1576 C204.54749,25.1576 203.15589,24.648 202.07789,23.7268001 L201.11749,25.6084 C202.37189,26.51 204.27309,27.098 206.09589,27.098 C209.40829,27.098 211.48589,25.3144 211.48589,22.7468001 C211.48589,20.5712001 209.76109,19.2580001 207.19349,19.0424001 Z M218.26749,13.2604002 L213.46549,21.9040001 L213.46549,23.6288001 L220.14909,23.6288001 L220.14909,27 L222.30509,27 L222.30509,23.6288001 L224.34349,23.6288001 L224.34349,21.5512001 L222.32469,21.5512001 L222.30509,18.3172001 L220.14909,18.3172001 L220.16869,21.5512001 L215.95469,21.5512001 L220.50189,13.2604002 L218.26749,13.2604002 Z M228.79269,18.3172001 L228.79269,15.3380002 L235.35869,15.3380002 L235.35869,13.2604002 L226.65629,13.2604002 L226.65629,20.5320001 C227.63629,20.4144001 229.55709,20.3360001 230.43909,20.3360001 C232.32069,20.3360001 233.47709,21.1984001 233.47709,22.6096001 C233.47709,24.1384 232.32069,25.0792 230.39989,25.0792 C229.10629,25.0792 227.67549,24.55 226.51909,23.6288001 L225.57829,25.5104 C226.98949,26.4512 228.96909,27.0784 230.65469,27.0784 C233.86909,27.0784 235.94669,25.2556 235.94669,22.4528001 C235.94669,20.0616001 233.94749,18.2976001 230.83109,18.2976001 C230.30189,18.2976001 229.40029,18.2976001 228.79269,18.3172001 Z M239.31789,12.4568002 C240.74869,14.6912002 241.63069,17.6900002 241.63069,20.9436001 C241.63069,24.1972 240.74869,27.196 239.31789,29.4304 L241.35629,29.4304 C242.90469,27.196 243.74749,24.1972 243.74749,20.9436001 C243.74749,17.6900002 242.90469,14.6912002 241.35629,12.4568002 L239.31789,12.4568002 Z" id="(345)" fill="#9D9DBD"></path>
                </g>
                <g id="Group-12" transform="translate(0.000000, 121.990337)">
                    <g id="Group-8-Copy">
                        <polygon id="Shape-Copy-10" fill="#FEC168" points="109.453949 11.6211848 98.1913525 10.6260004 93.7896983 0 89.3880439 10.6420518 78.125448 11.6211848 86.6781287 19.2134781 84.1091916 30.4975843 93.7896983 24.510427 103.470205 30.4975843 100.916932 19.2134781"></polygon>
                        <polygon id="Shape-Copy-10" fill="#FEC168" points="70.3912245 11.6211848 59.1286285 10.6260004 54.7269742 0 50.3253199 10.6420518 39.062724 11.6211848 47.6154046 19.2134781 45.0464676 30.4975843 54.7269742 24.510427 64.407481 30.4975843 61.8542081 19.2134781"></polygon>
                        <polygon id="Shape-Copy-10" fill="#FEC168" points="31.3285005 11.6211848 20.0659045 10.6260004 15.6642502 0 11.2625959 10.6420518 0 11.6211848 8.55268063 19.2134781 5.9837436 30.4975843 15.6642502 24.510427 25.344757 30.4975843 22.7914841 19.2134781"></polygon>
                        <polygon id="Shape-Copy-10" fill-opacity="0.146852355" fill="#182359" points="185.719267 11.6211848 174.456671 10.6260004 170.055017 0 165.653362 10.6420518 154.390766 11.6211848 162.943447 19.2134781 160.37451 30.4975843 170.055017 24.510427 179.735523 30.4975843 177.18225 19.2134781"></polygon>
                        <polygon id="Shape-Copy-10-Copy-6" fill-opacity="0.146852355" fill="#182359" points="148.516673 11.6211848 137.254077 10.6260004 132.852422 0 128.450768 10.6420518 117.188172 11.6211848 125.740853 19.2134781 123.171916 30.4975843 132.852422 24.510427 142.532929 30.4975843 139.979656 19.2134781"></polygon>
                    </g>
                    <path d="M208.03669,24.412 L207.21349,25.2352 L204.92029,22.9616 C203.66589,24.314 202.21549,25.0588 200.66709,25.0588 C198.39349,25.0588 196.59029,23.4712 196.59029,21.3152001 C196.59029,19.3356001 198.09949,18.2968001 199.70669,17.4344001 C198.76589,16.1996001 198.29549,15.1608002 198.29549,14.1612002 C198.29549,12.4560002 199.64789,11.2212002 201.64709,11.2212002 C203.54829,11.2212002 204.82229,12.3580002 204.82229,13.9652002 C204.82229,15.8272002 203.13669,16.7876001 201.41189,17.7088001 C202.25469,18.6888001 203.37189,19.8256001 204.78309,21.1976001 C205.29269,20.4528001 205.76309,19.5512001 206.17469,18.5320001 L207.21349,19.3160001 C206.76269,20.3548001 206.23349,21.2956001 205.66509,22.0796 L208.03669,24.412 Z M199.54989,14.1612002 C199.54989,14.9648002 199.96149,15.8272002 200.74549,16.8856001 C202.25469,16.1016002 203.56789,15.3568002 203.56789,13.9652002 C203.56789,12.9460002 202.82309,12.2404002 201.64709,12.2404002 C200.37309,12.2404002 199.54989,13.0832002 199.54989,14.1612002 Z M200.72589,23.8632 C201.90189,23.8632 203.05829,23.236 204.05789,22.1188 C202.52909,20.5900001 201.29429,19.3356001 200.37309,18.2576001 C199.02069,19.0024001 197.88389,19.8452001 197.88389,21.2172001 C197.88389,22.7656 199.13829,23.8632 200.72589,23.8632 Z M217.38589,19.3552001 L217.38589,11.2800002 L215.81789,11.2800002 L215.81789,19.3552001 C215.81789,22.942 217.99349,25.0588 221.59989,25.0588 C225.18669,25.0588 227.34269,22.942 227.34269,19.3552001 L227.34269,11.2800002 L225.77469,11.2800002 L225.77469,19.3552001 C225.77469,22.0600001 224.20669,23.628 221.59989,23.628 C218.99309,23.628 217.38589,22.0600001 217.38589,19.3552001 Z M236.57429,14.6316002 C239.49469,14.6316002 241.53309,16.7876001 241.53309,19.8648001 C241.53309,22.9224 239.53389,25.0588 236.61349,25.0588 C234.77109,25.0588 233.35989,24.216 232.59549,22.7852 L232.59549,28.8023999 L231.06669,28.8023999 L231.06669,14.6904002 L232.59549,14.6904002 L232.59549,16.9052001 C233.35989,15.4744002 234.77109,14.6316002 236.57429,14.6316002 Z M236.29989,23.7064 C238.45589,23.7064 239.98469,22.0796 239.98469,19.8256001 C239.98469,17.5912001 238.45589,15.9448002 236.29989,15.9448002 C234.12429,15.9448002 232.59549,17.5716001 232.59549,19.8256001 C232.59549,22.0992 234.12429,23.7064 236.29989,23.7064 Z" id="&amp;-Up-Copy" fill="#182359"></path>
                    <path d="M272.077219,10.4568002 L270.038819,10.4568002 C268.490419,12.6912002 267.647619,15.6900002 267.647619,18.9436001 C267.647619,22.1972 268.490419,25.196 270.038819,27.4304 L272.077219,27.4304 C270.646419,25.196 269.764419,22.1972 269.764419,18.9436001 C269.764419,15.6900002 270.646419,12.6912002 272.077219,10.4568002 Z M278.878419,17.0424001 L278.074819,16.9836001 L282.484819,12.7304002 L282.484819,11.2800002 L273.468819,11.2800002 L273.488419,13.3380002 L279.603619,13.3380002 L275.585619,17.1992001 L275.585619,18.5320001 L277.584819,18.5320001 C279.682019,18.5320001 280.916819,19.2964001 280.916819,20.7860001 C280.916819,22.2168 279.701619,23.1576 277.624019,23.1576 C276.232419,23.1576 274.840819,22.648 273.762819,21.7268001 L272.802419,23.6084 C274.056819,24.51 275.958019,25.098 277.780819,25.098 C281.093219,25.098 283.170819,23.3144 283.170819,20.7468001 C283.170819,18.5712001 281.446019,17.2580001 278.878419,17.0424001 Z M291.304819,11.2604002 L291.304819,15.2588002 L293.362819,15.2588002 L293.382419,13.3380002 L299.184019,13.3380002 L293.519619,25 L295.969619,25 L301.751619,13.0244002 L301.751619,11.2604002 L291.304819,11.2604002 Z M312.531619,13.9456002 C311.688819,13.3968002 310.532419,13.0832002 309.493619,13.0832002 C306.828019,13.0832002 305.573619,15.0824002 305.671619,18.0616001 C306.396819,16.7680001 307.690419,16.1016002 309.415219,16.1016002 C312.159219,16.1016002 313.844819,17.8068001 313.844819,20.4920001 C313.844819,23.334 311.924019,25.098 309.003619,25.098 C305.534419,25.098 303.417619,22.6284 303.417619,18.4144001 C303.417619,14.0240002 305.710819,11.1624002 309.336819,11.1624002 C310.689219,11.1624002 312.316019,11.5740002 313.433219,12.2012002 L312.531619,13.9456002 Z M308.984019,17.9244001 C307.122019,17.9244001 306.024419,19.1396001 306.044019,20.5508001 C306.024419,21.7464001 306.906419,23.1184 308.886019,23.1184 C310.552019,23.1184 311.688819,22.1384 311.688819,20.4724001 C311.688819,18.9044001 310.650019,17.9244001 308.984019,17.9244001 Z M316.628019,11.2604002 L316.628019,13.3380002 L319.587619,13.3380002 L319.587619,25 L321.900419,25 L321.900419,11.2604002 L316.628019,11.2604002 Z M328.976018,10.4568002 C330.406818,12.6912002 331.288818,15.6900002 331.288818,18.9436001 C331.288818,22.1972 330.406818,25.196 328.976018,27.4304 L331.014418,27.4304 C332.562818,25.196 333.405618,22.1972 333.405618,18.9436001 C333.405618,15.6900002 332.562818,12.6912002 331.014418,10.4568002 L328.976018,10.4568002 Z" id="(3-761)" fill="#9D9DBD"></path>
                </g>
                <g id="Group-11" transform="translate(0.000000, 182.985506)">
                    <g id="Group-8-Copy-2">
                        <polygon id="Shape-Copy-10" fill="#FEC168" points="70.3912245 11.6211848 59.1286285 10.6260004 54.7269742 0 50.3253199 10.6420518 39.062724 11.6211848 47.6154046 19.2134781 45.0464676 30.4975843 54.7269742 24.510427 64.407481 30.4975843 61.8542081 19.2134781"></polygon>
                        <polygon id="Shape-Copy-10" fill="#FEC168" points="31.3285005 11.6211848 20.0659045 10.6260004 15.6642502 0 11.2625959 10.6420518 0 11.6211848 8.55268063 19.2134781 5.9837436 30.4975843 15.6642502 24.510427 25.344757 30.4975843 22.7914841 19.2134781"></polygon>
                        <polygon id="Shape-Copy-10" fill-opacity="0.146852355" fill="#182359" points="185.719267 11.6211848 174.456671 10.6260004 170.055017 0 165.653362 10.6420518 154.390766 11.6211848 162.943447 19.2134781 160.37451 30.4975843 170.055017 24.510427 179.735523 30.4975843 177.18225 19.2134781"></polygon>
                        <polygon id="Shape-Copy-10-Copy-4" fill-opacity="0.146852355" fill="#182359" points="148.516673 11.6211848 137.254077 10.6260004 132.852422 0 128.450768 10.6420518 117.188172 11.6211848 125.740853 19.2134781 123.171916 30.4975843 132.852422 24.510427 142.532929 30.4975843 139.979656 19.2134781"></polygon>
                        <polygon id="Shape-Copy-10-Copy-5" fill-opacity="0.146852355" fill="#182359" points="109.453949 11.6211848 98.1913525 10.6260004 93.7896983 0 89.3880439 10.6420518 78.125448 11.6211848 86.6781287 19.2134781 84.1091916 30.4975843 93.7896983 24.510427 103.470205 30.4975843 100.916932 19.2134781"></polygon>
                    </g>
                    <path d="M208.03669,24.412 L207.21349,25.2352 L204.92029,22.9616 C203.66589,24.314 202.21549,25.0588 200.66709,25.0588 C198.39349,25.0588 196.59029,23.4712 196.59029,21.3152001 C196.59029,19.3356001 198.09949,18.2968001 199.70669,17.4344001 C198.76589,16.1996001 198.29549,15.1608002 198.29549,14.1612002 C198.29549,12.4560002 199.64789,11.2212002 201.64709,11.2212002 C203.54829,11.2212002 204.82229,12.3580002 204.82229,13.9652002 C204.82229,15.8272002 203.13669,16.7876001 201.41189,17.7088001 C202.25469,18.6888001 203.37189,19.8256001 204.78309,21.1976001 C205.29269,20.4528001 205.76309,19.5512001 206.17469,18.5320001 L207.21349,19.3160001 C206.76269,20.3548001 206.23349,21.2956001 205.66509,22.0796 L208.03669,24.412 Z M199.54989,14.1612002 C199.54989,14.9648002 199.96149,15.8272002 200.74549,16.8856001 C202.25469,16.1016002 203.56789,15.3568002 203.56789,13.9652002 C203.56789,12.9460002 202.82309,12.2404002 201.64709,12.2404002 C200.37309,12.2404002 199.54989,13.0832002 199.54989,14.1612002 Z M200.72589,23.8632 C201.90189,23.8632 203.05829,23.236 204.05789,22.1188 C202.52909,20.5900001 201.29429,19.3356001 200.37309,18.2576001 C199.02069,19.0024001 197.88389,19.8452001 197.88389,21.2172001 C197.88389,22.7656 199.13829,23.8632 200.72589,23.8632 Z M217.38589,19.3552001 L217.38589,11.2800002 L215.81789,11.2800002 L215.81789,19.3552001 C215.81789,22.942 217.99349,25.0588 221.59989,25.0588 C225.18669,25.0588 227.34269,22.942 227.34269,19.3552001 L227.34269,11.2800002 L225.77469,11.2800002 L225.77469,19.3552001 C225.77469,22.0600001 224.20669,23.628 221.59989,23.628 C218.99309,23.628 217.38589,22.0600001 217.38589,19.3552001 Z M236.57429,14.6316002 C239.49469,14.6316002 241.53309,16.7876001 241.53309,19.8648001 C241.53309,22.9224 239.53389,25.0588 236.61349,25.0588 C234.77109,25.0588 233.35989,24.216 232.59549,22.7852 L232.59549,28.8023999 L231.06669,28.8023999 L231.06669,14.6904002 L232.59549,14.6904002 L232.59549,16.9052001 C233.35989,15.4744002 234.77109,14.6316002 236.57429,14.6316002 Z M236.29989,23.7064 C238.45589,23.7064 239.98469,22.0796 239.98469,19.8256001 C239.98469,17.5912001 238.45589,15.9448002 236.29989,15.9448002 C234.12429,15.9448002 232.59549,17.5716001 232.59549,19.8256001 C232.59549,22.0992 234.12429,23.7064 236.29989,23.7064 Z" id="&amp;-Up-Copy-2" fill="#182359"></path>
                    <path d="M272.077219,10.4568002 L270.038819,10.4568002 C268.490419,12.6912002 267.647619,15.6900002 267.647619,18.9436001 C267.647619,22.1972 268.490419,25.196 270.038819,27.4304 L272.077219,27.4304 C270.646419,25.196 269.764419,22.1972 269.764419,18.9436001 C269.764419,15.6900002 270.646419,12.6912002 272.077219,10.4568002 Z M277.859219,11.2604002 L273.057219,19.9040001 L273.057219,21.6288001 L279.740819,21.6288001 L279.740819,25 L281.896819,25 L281.896819,21.6288001 L283.935219,21.6288001 L283.935219,19.5512001 L281.916419,19.5512001 L281.896819,16.3172001 L279.740819,16.3172001 L279.760419,19.5512001 L275.546419,19.5512001 L280.093619,11.2604002 L277.859219,11.2604002 Z M292.461219,22.3148 C293.304019,22.8636 294.440819,23.1772 295.479619,23.1772 C298.125619,23.1772 299.360419,21.1780001 299.282019,18.1988001 C298.556819,19.4924001 297.282819,20.1588001 295.558019,20.1588001 C292.833619,20.1588001 291.167619,18.4340001 291.167619,15.7684002 C291.167619,12.9264002 293.068819,11.1624002 295.969619,11.1624002 C299.419219,11.1624002 301.536019,13.6320002 301.536019,17.8460001 C301.536019,22.2364 299.242819,25.098 295.636419,25.098 C294.284019,25.098 292.676819,24.6864 291.559619,24.0592 L292.461219,22.3148 Z M296.087219,13.1420002 C294.440819,13.1420002 293.323619,14.1220002 293.323619,15.7880002 C293.323619,17.3560001 294.342819,18.3360001 295.989219,18.3360001 C297.851219,18.3360001 298.929219,17.1208001 298.909619,15.7096002 C298.929219,14.5140002 298.066819,13.1420002 296.087219,13.1420002 Z M306.357619,16.3172001 L306.357619,13.3380002 L312.923619,13.3380002 L312.923619,11.2604002 L304.221219,11.2604002 L304.221219,18.5320001 C305.201219,18.4144001 307.122019,18.3360001 308.004019,18.3360001 C309.885619,18.3360001 311.042019,19.1984001 311.042019,20.6096001 C311.042019,22.1384 309.885619,23.0792 307.964819,23.0792 C306.671219,23.0792 305.240419,22.55 304.084019,21.6288001 L303.143219,23.5104 C304.554419,24.4512 306.534019,25.0784 308.219619,25.0784 C311.434019,25.0784 313.511619,23.2556 313.511619,20.4528001 C313.511619,18.0616001 311.512419,16.2976001 308.396019,16.2976001 C307.866819,16.2976001 306.965219,16.2976001 306.357619,16.3172001 Z M324.624819,13.9456002 C323.782019,13.3968002 322.625619,13.0832002 321.586819,13.0832002 C318.921219,13.0832002 317.666819,15.0824002 317.764819,18.0616001 C318.490019,16.7680001 319.783619,16.1016002 321.508419,16.1016002 C324.252419,16.1016002 325.938019,17.8068001 325.938019,20.4920001 C325.938019,23.334 324.017219,25.098 321.096819,25.098 C317.627619,25.098 315.510819,22.6284 315.510819,18.4144001 C315.510819,14.0240002 317.804019,11.1624002 321.430019,11.1624002 C322.782419,11.1624002 324.409219,11.5740002 325.526419,12.2012002 L324.624819,13.9456002 Z M321.077219,17.9244001 C319.215219,17.9244001 318.117619,19.1396001 318.137219,20.5508001 C318.117619,21.7464001 318.999619,23.1184 320.979219,23.1184 C322.645219,23.1184 323.782019,22.1384 323.782019,20.4724001 C323.782019,18.9044001 322.743219,17.9244001 321.077219,17.9244001 Z M328.976018,10.4568002 C330.406818,12.6912002 331.288818,15.6900002 331.288818,18.9436001 C331.288818,22.1972 330.406818,25.196 328.976018,27.4304 L331.014418,27.4304 C332.562818,25.196 333.405618,22.1972 333.405618,18.9436001 C333.405618,15.6900002 332.562818,12.6912002 331.014418,10.4568002 L328.976018,10.4568002 Z" id="(4-956)" fill="#9D9DBD"></path>
                </g>
                <g id="Group-10" transform="translate(0.000000, 243.980674)">
                    <g id="Group-8-Copy-3">
                        <polygon id="Shape-Copy-10" fill="url(#linearGradient-2)" points="31.3285005 11.6211848 20.0659045 10.6260004 15.6642502 0 11.2625959 10.6420518 0 11.6211848 8.55268063 19.2134781 5.9837436 30.4975843 15.6642502 24.510427 25.344757 30.4975843 22.7914841 19.2134781"></polygon>
                        <polygon id="Shape-Copy-10" fill-opacity="0.397673234" fill="#9D9DBD" points="185.719267 11.6211848 174.456671 10.6260004 170.055017 0 165.653362 10.6420518 154.390766 11.6211848 162.943447 19.2134781 160.37451 30.4975843 170.055017 24.510427 179.735523 30.4975843 177.18225 19.2134781"></polygon>
                        <polygon id="Shape-Copy-10-Copy" fill-opacity="0.397673234" fill="#9D9DBD" points="148.516673 11.6211848 137.254077 10.6260004 132.852422 0 128.450768 10.6420518 117.188172 11.6211848 125.740853 19.2134781 123.171916 30.4975843 132.852422 24.510427 142.532929 30.4975843 139.979656 19.2134781"></polygon>
                        <polygon id="Shape-Copy-10-Copy-2" fill-opacity="0.397673234" fill="#9D9DBD" points="109.453949 11.6211848 98.1913525 10.6260004 93.7896983 0 89.3880439 10.6420518 78.125448 11.6211848 86.6781287 19.2134781 84.1091916 30.4975843 93.7896983 24.510427 103.470205 30.4975843 100.916932 19.2134781"></polygon>
                        <polygon id="Shape-Copy-10-Copy-3" fill-opacity="0.397673234" fill="#9D9DBD" points="70.3912245 11.6211848 59.1286285 10.6260004 54.7269742 0 50.3253199 10.6420518 39.062724 11.6211848 47.6154046 19.2134781 45.0464676 30.4975843 54.7269742 24.510427 64.407481 30.4975843 61.8542081 19.2134781"></polygon>
                    </g>
                    <path d="M208.03669,24.412 L207.21349,25.2352 L204.92029,22.9616 C203.66589,24.314 202.21549,25.0588 200.66709,25.0588 C198.39349,25.0588 196.59029,23.4712 196.59029,21.3152001 C196.59029,19.3356001 198.09949,18.2968001 199.70669,17.4344001 C198.76589,16.1996001 198.29549,15.1608002 198.29549,14.1612002 C198.29549,12.4560002 199.64789,11.2212002 201.64709,11.2212002 C203.54829,11.2212002 204.82229,12.3580002 204.82229,13.9652002 C204.82229,15.8272002 203.13669,16.7876001 201.41189,17.7088001 C202.25469,18.6888001 203.37189,19.8256001 204.78309,21.1976001 C205.29269,20.4528001 205.76309,19.5512001 206.17469,18.5320001 L207.21349,19.3160001 C206.76269,20.3548001 206.23349,21.2956001 205.66509,22.0796 L208.03669,24.412 Z M199.54989,14.1612002 C199.54989,14.9648002 199.96149,15.8272002 200.74549,16.8856001 C202.25469,16.1016002 203.56789,15.3568002 203.56789,13.9652002 C203.56789,12.9460002 202.82309,12.2404002 201.64709,12.2404002 C200.37309,12.2404002 199.54989,13.0832002 199.54989,14.1612002 Z M200.72589,23.8632 C201.90189,23.8632 203.05829,23.236 204.05789,22.1188 C202.52909,20.5900001 201.29429,19.3356001 200.37309,18.2576001 C199.02069,19.0024001 197.88389,19.8452001 197.88389,21.2172001 C197.88389,22.7656 199.13829,23.8632 200.72589,23.8632 Z M217.38589,19.3552001 L217.38589,11.2800002 L215.81789,11.2800002 L215.81789,19.3552001 C215.81789,22.942 217.99349,25.0588 221.59989,25.0588 C225.18669,25.0588 227.34269,22.942 227.34269,19.3552001 L227.34269,11.2800002 L225.77469,11.2800002 L225.77469,19.3552001 C225.77469,22.0600001 224.20669,23.628 221.59989,23.628 C218.99309,23.628 217.38589,22.0600001 217.38589,19.3552001 Z M236.57429,14.6316002 C239.49469,14.6316002 241.53309,16.7876001 241.53309,19.8648001 C241.53309,22.9224 239.53389,25.0588 236.61349,25.0588 C234.77109,25.0588 233.35989,24.216 232.59549,22.7852 L232.59549,28.8023999 L231.06669,28.8023999 L231.06669,14.6904002 L232.59549,14.6904002 L232.59549,16.9052001 C233.35989,15.4744002 234.77109,14.6316002 236.57429,14.6316002 Z M236.29989,23.7064 C238.45589,23.7064 239.98469,22.0796 239.98469,19.8256001 C239.98469,17.5912001 238.45589,15.9448002 236.29989,15.9448002 C234.12429,15.9448002 232.59549,17.5716001 232.59549,19.8256001 C232.59549,22.0992 234.12429,23.7064 236.29989,23.7064 Z" id="&amp;-Up-Copy-3" fill="#182359"></path>
                    <path d="M271.567619,10.4568002 L270.176019,10.4568002 C268.666819,12.6520002 267.843619,15.6508002 267.843619,18.9436001 C267.843619,22.2364 268.666819,25.2352 270.176019,27.4304 L271.567619,27.4304 C270.136819,25.2352 269.294019,22.2364 269.294019,18.9436001 C269.294019,15.6508002 270.136819,12.6520002 271.567619,10.4568002 Z M282.171219,13.3968002 C281.250019,12.8676002 280.054419,12.5540002 278.976419,12.5540002 C275.977619,12.5540002 274.488019,15.0040002 274.723219,18.8064001 C275.330819,17.1404001 276.820419,16.2192001 278.878419,16.2192001 C281.602819,16.2192001 283.288419,17.8852001 283.288419,20.5508001 C283.288419,23.334 281.426419,25.0588 278.584419,25.0588 C275.213219,25.0588 273.155219,22.6676 273.155219,18.4536001 C273.155219,14.0632002 275.350419,11.2016002 278.878419,11.2016002 C280.152419,11.2016002 281.661619,11.5936002 282.798419,12.1816002 L282.171219,13.3968002 Z M278.604019,17.4932001 C276.389219,17.4932001 275.076019,18.9828001 275.076019,20.6292001 C275.076019,21.9620001 276.095219,23.6868 278.486419,23.6868 C280.446419,23.6868 281.818419,22.4912 281.818419,20.5116001 C281.818419,18.6496001 280.564019,17.4932001 278.604019,17.4932001 Z M292.265219,11.2604002 L292.265219,12.7108002 L295.499219,12.7108002 L295.499219,25 L297.067219,25 L297.067219,11.2604002 L292.265219,11.2604002 Z M312.237619,13.3968002 C311.316419,12.8676002 310.120819,12.5540002 309.042819,12.5540002 C306.044019,12.5540002 304.554419,15.0040002 304.789619,18.8064001 C305.397219,17.1404001 306.886819,16.2192001 308.944819,16.2192001 C311.669219,16.2192001 313.354819,17.8852001 313.354819,20.5508001 C313.354819,23.334 311.492819,25.0588 308.650819,25.0588 C305.279619,25.0588 303.221619,22.6676 303.221619,18.4536001 C303.221619,14.0632002 305.416819,11.2016002 308.944819,11.2016002 C310.218819,11.2016002 311.728019,11.5936002 312.864819,12.1816002 L312.237619,13.3968002 Z M308.670419,17.4932001 C306.455619,17.4932001 305.142419,18.9828001 305.142419,20.6292001 C305.142419,21.9620001 306.161619,23.6868 308.552819,23.6868 C310.512819,23.6868 311.884819,22.4912 311.884819,20.5116001 C311.884819,18.6496001 310.630419,17.4932001 308.670419,17.4932001 Z M320.254019,11.2016002 C322.978419,11.2016002 324.664019,12.4952002 324.664019,14.6512002 C324.664019,16.0820002 323.821219,17.1208001 322.449219,17.6500001 C324.232819,18.1792001 325.330419,19.4336001 325.330419,21.1584001 C325.330419,23.5888 323.390019,25.0588 320.273619,25.0588 C317.157219,25.0588 315.216819,23.6084 315.216819,21.1780001 C315.216819,19.4336001 316.334019,18.1792001 318.156819,17.6500001 C316.726019,17.1012001 315.863619,16.0428002 315.863619,14.5924002 C315.863619,12.4952002 317.568819,11.2016002 320.254019,11.2016002 Z M320.273619,12.3972002 C318.352819,12.3972002 317.216019,13.2596002 317.216019,14.7492002 C317.216019,16.2192001 318.352819,17.1012001 320.273619,17.1012001 C322.194419,17.1012001 323.311619,16.2192001 323.311619,14.7492002 C323.311619,13.2596002 322.194419,12.3972002 320.273619,12.3972002 Z M320.254019,18.3752001 C318.019619,18.3752001 316.686819,19.3748001 316.686819,21.0212001 C316.686819,22.7656 318.019619,23.7848 320.273619,23.7848 C322.508019,23.7848 323.840819,22.7656 323.840819,21.0408001 C323.840819,19.3944001 322.508019,18.3752001 320.254019,18.3752001 Z M328.035218,10.4568002 C329.466018,12.6520002 330.308818,15.6508002 330.308818,18.9436001 C330.308818,22.2364 329.466018,25.2352 328.035218,27.4304 L329.426818,27.4304 C330.936018,25.2352 331.759218,22.2364 331.759218,18.9436001 C331.759218,15.6508002 330.936018,12.6520002 329.426818,10.4568002 L328.035218,10.4568002 Z" id="(6-168)" fill="#182359"></path>
                </g>
            </g>
        </g>
    </g>
</svg>