<?xml version="1.0" encoding="UTF-8"?>
<svg width="247px" height="51px" viewBox="0 0 247 51" version="1.1" xmlns="http://www.w3.org/2000/svg" xmlns:xlink="http://www.w3.org/1999/xlink">
    <!-- Generator: Sketch 48.2 (47327) - http://www.bohemiancoding.com/sketch -->
    <title>InstantSearch-Angular</title>
    <desc>Created with Sketch.</desc>
    <defs>
        <linearGradient x1="50%" y1="0%" x2="50%" y2="100%" id="linearGradient-1">
            <stop stop-color="#E3005C" offset="0%"></stop>
            <stop stop-color="#C3002F" offset="100%"></stop>
        </linearGradient>
        <linearGradient x1="42.4429029%" y1="121.561%" x2="57.5229483%" y2="8.499%" id="linearGradient-2">
            <stop stop-color="#201C38" offset="0%"></stop>
            <stop stop-color="#3E396B" offset="100%"></stop>
        </linearGradient>
    </defs>
    <g id="Page-1" stroke="none" stroke-width="1" fill="none" fill-rule="evenodd">
        <g id="InstantSearch-Angular">
            <path d="M27.437,22.289 C28.701,22.289 29.902,22.037 31.103,21.659 L33.126,25.122 L34.517,27.515 C34.897,28.207 35.592,28.585 36.351,28.585 C36.73,28.585 37.046,28.522 37.425,28.333 C38.437,27.767 38.753,26.444 38.184,25.437 L36.794,23.044 L34.77,19.519 C37.11,17.504 38.626,14.481 38.626,11.144 C38.626,5.037 33.632,0.063 27.5,0.063 C21.368,0.063 16.31,5.037 16.31,11.207 C16.31,17.377 21.305,22.29 27.437,22.29 L27.437,22.289 Z M27.437,4.281 C31.23,4.281 34.327,7.367 34.327,11.144 C34.327,14.922 31.23,18.007 27.437,18.007 C23.644,18.007 20.546,14.922 20.546,11.144 C20.546,7.367 23.644,4.281 27.436,4.281 L27.437,4.281 Z" id="Shape" fill="url(#linearGradient-1)" fill-rule="nonzero"></path>
            <path d="M43.81,28.207 C38.374,28.207 33.885,32.111 32.874,37.211 L26.109,37.211 C24.971,37.211 24.023,38.156 24.023,39.289 C24.023,40.422 24.971,41.367 26.109,41.367 L32.874,41.367 C33.885,46.467 38.374,50.37 43.81,50.37 C49.943,50.37 54.937,45.396 54.937,39.289 C54.937,33.181 49.943,28.207 43.81,28.207 Z M43.81,46.215 C40.017,46.215 36.92,43.13 36.92,39.352 C36.92,35.574 40.017,32.489 43.81,32.489 C47.603,32.489 50.701,35.574 50.701,39.352 C50.701,43.13 47.603,46.215 43.811,46.215 L43.81,46.215 Z M18.46,30.978 C20.799,32.993 22.316,35.952 22.253,39.352 C22.253,45.459 17.259,50.433 11.126,50.433 C4.994,50.433 0,45.523 0,39.352 C0,33.182 4.994,28.207 11.126,28.207 C12.454,28.207 13.656,28.459 14.793,28.837 L16.816,25.374 L18.206,22.981 C18.8136174,21.9863287 20.1003471,21.6523717 21.115,22.226 C22.126,22.856 22.443,24.115 21.874,25.122 L20.483,27.515 L18.46,30.978 Z M11.126,46.215 C14.983,46.215 18.08,43.13 18.017,39.352 C18.017,35.574 14.92,32.489 11.127,32.489 C7.333,32.489 4.236,35.574 4.236,39.352 C4.236,43.13 7.333,46.215 11.126,46.215 Z" id="Shape" fill="url(#linearGradient-2)" fill-rule="nonzero"></path>
            <path d="M81.52,6.2 L83.92,6.2 L83.92,23 L81.52,23 L81.52,6.2 Z M95.416,10.16 C97.0320081,10.16 98.3159952,10.6279953 99.268,11.564 C100.220005,12.5000047 100.696,13.871991 100.696,15.68 L100.696,23 L98.392,23 L98.392,15.944 C98.392,14.7119938 98.096003,13.7840031 97.504,13.16 C96.911997,12.5359969 96.0640055,12.224 94.96,12.224 C93.7119938,12.224 92.7280036,12.5879964 92.008,13.316 C91.2879964,14.0440036 90.928,15.0879932 90.928,16.448 L90.928,23 L88.624,23 L88.624,10.28 L90.832,10.28 L90.832,12.2 C91.2960023,11.5439967 91.923996,11.0400018 92.716,10.688 C93.508004,10.3359982 94.407995,10.16 95.416,10.16 Z M108.616,23.144 C107.575995,23.144 106.576005,23.0040014 105.616,22.724 C104.655995,22.4439986 103.904003,22.0880022 103.36,21.656 L104.32,19.832 C104.880003,20.232002 105.559996,20.5519988 106.36,20.792 C107.160004,21.0320012 107.967996,21.152 108.784,21.152 C110.80001,21.152 111.808,20.5760058 111.808,19.424 C111.808,19.0399981 111.672001,18.7360011 111.4,18.512 C111.127999,18.2879989 110.788002,18.1240005 110.38,18.02 C109.971998,17.9159995 109.392004,17.8000006 108.64,17.672 C107.615995,17.5119992 106.780003,17.328001 106.132,17.12 C105.483997,16.911999 104.928002,16.5600025 104.464,16.064 C103.999998,15.5679975 103.768,14.8720045 103.768,13.976 C103.768,12.8239942 104.247995,11.9000035 105.208,11.204 C106.168005,10.5079965 107.455992,10.16 109.072,10.16 C109.920004,10.16 110.767996,10.263999 111.616,10.472 C112.464004,10.680001 113.159997,10.9599982 113.704,11.312 L112.72,13.136 C111.679995,12.4639966 110.456007,12.128 109.048,12.128 C108.071995,12.128 107.328003,12.2879984 106.816,12.608 C106.303997,12.9280016 106.048,13.3519974 106.048,13.88 C106.048,14.2960021 106.191999,14.6239988 106.48,14.864 C106.768001,15.1040012 107.123998,15.2799994 107.548,15.392 C107.972002,15.5040006 108.567996,15.6319993 109.336,15.776 C110.360005,15.9520009 111.187997,16.139999 111.82,16.34 C112.452003,16.540001 112.991998,16.8799976 113.44,17.36 C113.888002,17.8400024 114.112,18.5119957 114.112,19.376 C114.112,20.5280058 113.620005,21.4439966 112.636,22.124 C111.651995,22.8040034 110.312008,23.144 108.616,23.144 Z M124.144,22.256 C123.807998,22.5440014 123.392002,22.7639992 122.896,22.916 C122.399998,23.0680008 121.888003,23.144 121.36,23.144 C120.079994,23.144 119.088004,22.8000034 118.384,22.112 C117.679996,21.4239966 117.328,20.4400064 117.328,19.16 L117.328,12.176 L115.168,12.176 L115.168,10.28 L117.328,10.28 L117.328,7.496 L119.632,7.496 L119.632,10.28 L123.28,10.28 L123.28,12.176 L119.632,12.176 L119.632,19.064 C119.632,19.7520034 119.803998,20.2799982 120.148,20.648 C120.492002,21.0160018 120.983997,21.2 121.624,21.2 C122.328004,21.2 122.927998,21.000002 123.424,20.6 L124.144,22.256 Z M131.56,10.16 C133.320009,10.16 134.667995,10.5919957 135.604,11.456 C136.540005,12.3200043 137.008,13.6079914 137.008,15.32 L137.008,23 L134.824,23 L134.824,21.32 C134.439998,21.912003 133.892004,22.3639984 133.18,22.676 C132.467996,22.9880016 131.624005,23.144 130.648,23.144 C129.223993,23.144 128.084004,22.8000034 127.228,22.112 C126.371996,21.4239966 125.944,20.5200056 125.944,19.4 C125.944,18.2799944 126.351996,17.3800034 127.168,16.7 C127.984004,16.0199966 129.279991,15.68 131.056,15.68 L134.704,15.68 L134.704,15.224 C134.704,14.231995 134.416003,13.4720026 133.84,12.944 C133.263997,12.4159974 132.416006,12.152 131.296,12.152 C130.543996,12.152 129.808004,12.2759988 129.088,12.524 C128.367996,12.7720012 127.760002,13.1039979 127.264,13.52 L126.304,11.792 C126.960003,11.2639974 127.743995,10.8600014 128.656,10.58 C129.568005,10.2999986 130.535995,10.16 131.56,10.16 Z M131.032,21.368 C131.912004,21.368 132.671997,21.172002 133.312,20.78 C133.952003,20.387998 134.415999,19.8320036 134.704,19.112 L134.704,17.336 L131.152,17.336 C129.19999,17.336 128.224,17.9919934 128.224,19.304 C128.224,19.9440032 128.471998,20.4479982 128.968,20.816 C129.464002,21.1840018 130.151996,21.368 131.032,21.368 Z M148.072,10.16 C149.688008,10.16 150.971995,10.6279953 151.924,11.564 C152.876005,12.5000047 153.352,13.871991 153.352,15.68 L153.352,23 L151.048,23 L151.048,15.944 C151.048,14.7119938 150.752003,13.7840031 150.16,13.16 C149.567997,12.5359969 148.720006,12.224 147.616,12.224 C146.367994,12.224 145.384004,12.5879964 144.664,13.316 C143.943996,14.0440036 143.584,15.0879932 143.584,16.448 L143.584,23 L141.28,23 L141.28,10.28 L143.488,10.28 L143.488,12.2 C143.952002,11.5439967 144.579996,11.0400018 145.372,10.688 C146.164004,10.3359982 147.063995,10.16 148.072,10.16 Z M164.776,22.256 C164.439998,22.5440014 164.024002,22.7639992 163.528,22.916 C163.031998,23.0680008 162.520003,23.144 161.992,23.144 C160.711994,23.144 159.720004,22.8000034 159.016,22.112 C158.311996,21.4239966 157.96,20.4400064 157.96,19.16 L157.96,12.176 L155.8,12.176 L155.8,10.28 L157.96,10.28 L157.96,7.496 L160.264,7.496 L160.264,10.28 L163.912,10.28 L163.912,12.176 L160.264,12.176 L160.264,19.064 C160.264,19.7520034 160.435998,20.2799982 160.78,20.648 C161.124002,21.0160018 161.615997,21.2 162.256,21.2 C162.960004,21.2 163.559998,21.000002 164.056,20.6 L164.776,22.256 Z M172.792,23.192 C171.527994,23.192 170.308006,22.996002 169.132,22.604 C167.955994,22.211998 167.032003,21.7040031 166.36,21.08 L167.248,19.208 C167.888003,19.7840029 168.707995,20.2519982 169.708,20.612 C170.708005,20.9720018 171.735995,21.152 172.792,21.152 C174.184007,21.152 175.223997,20.9160024 175.912,20.444 C176.600003,19.9719976 176.944,19.3440039 176.944,18.56 C176.944,17.9839971 176.756002,17.5160018 176.38,17.156 C176.003998,16.7959982 175.540003,16.520001 174.988,16.328 C174.435997,16.135999 173.656005,15.9200012 172.648,15.68 C171.383994,15.3759985 170.364004,15.0720015 169.588,14.768 C168.811996,14.4639985 168.148003,13.9960032 167.596,13.364 C167.043997,12.7319968 166.768,11.8800054 166.768,10.808 C166.768,9.91199552 167.003998,9.1040036 167.476,8.384 C167.948002,7.6639964 168.663995,7.08800216 169.624,6.656 C170.584005,6.22399784 171.775993,6.008 173.2,6.008 C174.192005,6.008 175.167995,6.13599872 176.128,6.392 C177.088005,6.64800128 177.911997,7.0159976 178.6,7.496 L177.808,9.416 C177.103996,8.96799776 176.352004,8.62800116 175.552,8.396 C174.751996,8.16399884 173.968004,8.048 173.2,8.048 C171.839993,8.048 170.820003,8.29599752 170.14,8.792 C169.459997,9.28800248 169.12,9.92799608 169.12,10.712 C169.12,11.2880029 169.311998,11.7559982 169.696,12.116 C170.080002,12.4760018 170.555997,12.755999 171.124,12.956 C171.692003,13.156001 172.463995,13.3679989 173.44,13.592 C174.704006,13.8960015 175.719996,14.1999985 176.488,14.504 C177.256004,14.8080015 177.915997,15.2719969 178.468,15.896 C179.020003,16.5200031 179.296,17.3599947 179.296,18.416 C179.296,19.2960044 179.056002,20.0999964 178.576,20.828 C178.095998,21.5560036 177.368005,22.1319979 176.392,22.556 C175.415995,22.9800021 174.216007,23.192 172.792,23.192 Z M193.96,16.712 C193.96,16.8880009 193.944,17.1199986 193.912,17.408 L183.592,17.408 C183.736001,18.5280056 184.227996,19.4279966 185.068,20.108 C185.908004,20.7880034 186.951994,21.128 188.2,21.128 C189.720008,21.128 190.943995,20.6160051 191.872,19.592 L193.144,21.08 C192.567997,21.7520034 191.852004,22.2639982 190.996,22.616 C190.139996,22.9680018 189.184005,23.144 188.128,23.144 C186.783993,23.144 185.592005,22.8680028 184.552,22.316 C183.511995,21.7639972 182.708003,20.992005 182.14,20 C181.571997,19.007995 181.288,17.8880062 181.288,16.64 C181.288,15.4079938 181.563997,14.296005 182.116,13.304 C182.668003,12.311995 183.427995,11.5400028 184.396,10.988 C185.364005,10.4359972 186.455994,10.16 187.672,10.16 C188.888006,10.16 189.971995,10.4359972 190.924,10.988 C191.876005,11.5400028 192.619997,12.311995 193.156,13.304 C193.692003,14.296005 193.96,15.4319936 193.96,16.712 Z M187.672,12.104 C186.567994,12.104 185.644004,12.4399966 184.9,13.112 C184.155996,13.7840034 183.720001,14.6639946 183.592,15.752 L191.752,15.752 C191.623999,14.6799946 191.188004,13.8040034 190.444,13.124 C189.699996,12.4439966 188.776006,12.104 187.672,12.104 Z M201.424,10.16 C203.184009,10.16 204.531995,10.5919957 205.468,11.456 C206.404005,12.3200043 206.872,13.6079914 206.872,15.32 L206.872,23 L204.688,23 L204.688,21.32 C204.303998,21.912003 203.756004,22.3639984 203.044,22.676 C202.331996,22.9880016 201.488005,23.144 200.512,23.144 C199.087993,23.144 197.948004,22.8000034 197.092,22.112 C196.235996,21.4239966 195.808,20.5200056 195.808,19.4 C195.808,18.2799944 196.215996,17.3800034 197.032,16.7 C197.848004,16.0199966 199.143991,15.68 200.92,15.68 L204.568,15.68 L204.568,15.224 C204.568,14.231995 204.280003,13.4720026 203.704,12.944 C203.127997,12.4159974 202.280006,12.152 201.16,12.152 C200.407996,12.152 199.672004,12.2759988 198.952,12.524 C198.231996,12.7720012 197.624002,13.1039979 197.128,13.52 L196.168,11.792 C196.824003,11.2639974 197.607995,10.8600014 198.52,10.58 C199.432005,10.2999986 200.399995,10.16 201.424,10.16 Z M200.896,21.368 C201.776004,21.368 202.535997,21.172002 203.176,20.78 C203.816003,20.387998 204.279999,19.8320036 204.568,19.112 L204.568,17.336 L201.016,17.336 C199.06399,17.336 198.088,17.9919934 198.088,19.304 C198.088,19.9440032 198.335998,20.4479982 198.832,20.816 C199.328002,21.1840018 200.015996,21.368 200.896,21.368 Z M213.352,12.416 C213.752002,11.6799963 214.343996,11.1200019 215.128,10.736 C215.912004,10.3519981 216.863994,10.16 217.984,10.16 L217.984,12.392 C217.855999,12.3759999 217.680001,12.368 217.456,12.368 C216.207994,12.368 215.228004,12.7399963 214.516,13.484 C213.803996,14.2280037 213.448,15.2879931 213.448,16.664 L213.448,23 L211.144,23 L211.144,10.28 L213.352,10.28 L213.352,12.416 Z M226.24,23.144 C224.943994,23.144 223.788005,22.8640028 222.772,22.304 C221.755995,21.7439972 220.960003,20.9720049 220.384,19.988 C219.807997,19.0039951 219.52,17.8880062 219.52,16.64 C219.52,15.3919938 219.807997,14.2760049 220.384,13.292 C220.960003,12.3079951 221.755995,11.5400028 222.772,10.988 C223.788005,10.4359972 224.943994,10.16 226.24,10.16 C227.392006,10.16 228.419995,10.3919977 229.324,10.856 C230.228005,11.3200023 230.927998,11.9919956 231.424,12.872 L229.672,14 C229.271998,13.391997 228.776003,12.9360015 228.184,12.632 C227.591997,12.3279985 226.936004,12.176 226.216,12.176 C225.383996,12.176 224.636003,12.3599982 223.972,12.728 C223.307997,13.0960018 222.788002,13.6199966 222.412,14.3 C222.035998,14.9800034 221.848,15.7599956 221.848,16.64 C221.848,17.5360045 222.035998,18.3239966 222.412,19.004 C222.788002,19.6840034 223.307997,20.2079982 223.972,20.576 C224.636003,20.9440018 225.383996,21.128 226.216,21.128 C226.936004,21.128 227.591997,20.9760015 228.184,20.672 C228.776003,20.3679985 229.271998,19.912003 229.672,19.304 L231.424,20.408 C230.927998,21.2880044 230.228005,21.9639976 229.324,22.436 C228.419995,22.9080024 227.392006,23.144 226.24,23.144 Z M241.024,10.16 C242.640008,10.16 243.923995,10.6279953 244.876,11.564 C245.828005,12.5000047 246.304,13.871991 246.304,15.68 L246.304,23 L244,23 L244,15.944 C244,14.7119938 243.704003,13.7840031 243.112,13.16 C242.519997,12.5359969 241.672006,12.224 240.568,12.224 C239.319994,12.224 238.336004,12.5879964 237.616,13.316 C236.895996,14.0440036 236.536,15.0879932 236.536,16.448 L236.536,23 L234.232,23 L234.232,5.192 L236.536,5.192 L236.536,12.08 C237.016002,11.471997 237.643996,11.0000017 238.42,10.664 C239.196004,10.3279983 240.063995,10.16 241.024,10.16 Z" id="InstantSearch" fill="#3E396B"></path>
            <path d="M83.368,36.008 C82.8773309,36.008 82.5066679,36.141332 82.256,36.408 C82.0053321,36.674668 81.88,37.0693307 81.88,37.592 L81.88,38.584 L84.472,38.584 L84.472,39.544 L81.912,39.544 L81.912,47 L80.776,47 L80.776,39.544 L79.272,39.544 L79.272,38.584 L80.776,38.584 L80.776,37.544 C80.776,36.7759962 80.9973311,36.1680022 81.44,35.72 C81.8826689,35.2719978 82.5093293,35.048 83.32,35.048 C83.6400016,35.048 83.9493318,35.0933329 84.248,35.184 C84.5466682,35.2746671 84.7973323,35.4053325 85,35.576 L84.616,36.424 C84.2853317,36.1466653 83.8693358,36.008 83.368,36.008 Z M89.304,47.08 C88.4933293,47.08 87.7626699,46.8960018 87.112,46.528 C86.4613301,46.1599982 85.9493352,45.6506699 85.576,45 C85.2026648,44.3493301 85.016,43.6133374 85.016,42.792 C85.016,41.9706626 85.2026648,41.2346699 85.576,40.584 C85.9493352,39.9333301 86.4613301,39.4266685 87.112,39.064 C87.7626699,38.7013315 88.4933293,38.52 89.304,38.52 C90.1146707,38.52 90.8453301,38.7013315 91.496,39.064 C92.1466699,39.4266685 92.6559982,39.9333301 93.024,40.584 C93.3920018,41.2346699 93.576,41.9706626 93.576,42.792 C93.576,43.6133374 93.3920018,44.3493301 93.024,45 C92.6559982,45.6506699 92.1466699,46.1599982 91.496,46.528 C90.8453301,46.8960018 90.1146707,47.08 89.304,47.08 Z M89.304,46.072 C89.9013363,46.072 90.437331,45.9360014 90.912,45.664 C91.386669,45.3919986 91.757332,45.0053358 92.024,44.504 C92.290668,44.0026642 92.424,43.4320032 92.424,42.792 C92.424,42.1519968 92.290668,41.5813358 92.024,41.08 C91.757332,40.5786642 91.386669,40.1920014 90.912,39.92 C90.437331,39.6479986 89.9013363,39.512 89.304,39.512 C88.7066637,39.512 88.170669,39.6479986 87.696,39.92 C87.221331,40.1920014 86.8480014,40.5786642 86.576,41.08 C86.3039986,41.5813358 86.168,42.1519968 86.168,42.792 C86.168,43.4320032 86.3039986,44.0026642 86.576,44.504 C86.8480014,45.0053358 87.221331,45.3919986 87.696,45.664 C88.170669,45.9360014 88.7066637,46.072 89.304,46.072 Z M96.984,40.232 C97.250668,39.6666638 97.6479974,39.2400014 98.176,38.952 C98.7040026,38.6639986 99.3573294,38.52 100.136,38.52 L100.136,39.624 L99.864,39.608 C98.9786622,39.608 98.2853358,39.8799973 97.784,40.424 C97.2826642,40.9680027 97.032,41.7306618 97.032,42.712 L97.032,47 L95.896,47 L95.896,38.584 L96.984,38.584 L96.984,40.232 Z M113.768,44.008 L107.528,44.008 L106.184,47 L104.952,47 L110.072,35.8 L111.24,35.8 L116.36,47 L115.112,47 L113.768,44.008 Z M113.336,43.048 L110.648,37.032 L107.96,43.048 L113.336,43.048 Z M122.264,38.52 C123.320005,38.52 124.159997,38.8266636 124.784,39.44 C125.408003,40.0533364 125.72,40.9466608 125.72,42.12 L125.72,47 L124.584,47 L124.584,42.232 C124.584,41.357329 124.365336,40.690669 123.928,40.232 C123.490664,39.773331 122.866671,39.544 122.056,39.544 C121.149329,39.544 120.432003,39.8133306 119.904,40.352 C119.375997,40.8906694 119.112,41.6346619 119.112,42.584 L119.112,47 L117.976,47 L117.976,38.584 L119.064,38.584 L119.064,40.136 C119.373335,39.6239974 119.802664,39.2266681 120.352,38.944 C120.901336,38.6613319 121.538663,38.52 122.264,38.52 Z M136.632,38.584 L136.632,45.976 C136.632,47.4053405 136.28267,48.4639966 135.584,49.152 C134.88533,49.8400034 133.832007,50.184 132.424,50.184 C131.645329,50.184 130.90667,50.0693345 130.208,49.84 C129.50933,49.6106655 128.941336,49.2933354 128.504,48.888 L129.08,48.024 C129.485335,48.3866685 129.978664,48.6693323 130.56,48.872 C131.141336,49.0746677 131.751997,49.176 132.392,49.176 C133.458672,49.176 134.242664,48.9280025 134.744,48.432 C135.245336,47.9359975 135.496,47.1653386 135.496,46.12 L135.496,45.048 C135.143998,45.581336 134.68267,45.9866653 134.112,46.264 C133.54133,46.5413347 132.909337,46.68 132.216,46.68 C131.426663,46.68 130.709337,46.5066684 130.064,46.16 C129.418663,45.8133316 128.912002,45.3280031 128.544,44.704 C128.175998,44.0799969 127.992,43.3733373 127.992,42.584 C127.992,41.7946627 128.175998,41.0906698 128.544,40.472 C128.912002,39.8533302 129.415997,39.373335 130.056,39.032 C130.696003,38.690665 131.415996,38.52 132.216,38.52 C132.93067,38.52 133.575997,38.6639986 134.152,38.952 C134.728003,39.2400014 135.191998,39.6559973 135.544,40.2 L135.544,38.584 L136.632,38.584 Z M132.328,45.672 C132.936003,45.672 133.485331,45.5413346 133.976,45.28 C134.466669,45.0186654 134.847999,44.6533357 135.12,44.184 C135.392001,43.7146643 135.528,43.1813363 135.528,42.584 C135.528,41.9866637 135.392001,41.4560023 135.12,40.992 C134.847999,40.5279977 134.469336,40.1653346 133.984,39.904 C133.498664,39.6426654 132.94667,39.512 132.328,39.512 C131.719997,39.512 131.173336,39.6399987 130.688,39.896 C130.202664,40.1520013 129.824001,40.5146643 129.552,40.984 C129.279999,41.4533357 129.144,41.9866637 129.144,42.584 C129.144,43.1813363 129.279999,43.7146643 129.552,44.184 C129.824001,44.6533357 130.202664,45.0186654 130.688,45.28 C131.173336,45.5413346 131.719997,45.672 132.328,45.672 Z M147.4,38.584 L147.4,47 L146.312,47 L146.312,45.464 C146.013332,45.9760026 145.602669,46.3733319 145.08,46.656 C144.557331,46.9386681 143.960003,47.08 143.288,47.08 C142.189328,47.08 141.32267,46.7733364 140.688,46.16 C140.05333,45.5466636 139.736,44.6480059 139.736,43.464 L139.736,38.584 L140.872,38.584 L140.872,43.352 C140.872,44.2373378 141.090664,44.909331 141.528,45.368 C141.965336,45.826669 142.589329,46.056 143.4,46.056 C144.285338,46.056 144.983997,45.7866694 145.496,45.248 C146.008003,44.7093306 146.264,43.9600048 146.264,43 L146.264,38.584 L147.4,38.584 Z M150.584,35.128 L151.72,35.128 L151.72,47 L150.584,47 L150.584,35.128 Z M157.832,38.52 C158.930672,38.52 159.77333,38.7946639 160.36,39.344 C160.94667,39.8933361 161.24,40.7066613 161.24,41.784 L161.24,47 L160.152,47 L160.152,45.688 C159.895999,46.1253355 159.520002,46.4666654 159.024,46.712 C158.527998,46.9573346 157.93867,47.08 157.256,47.08 C156.317329,47.08 155.570669,46.8560022 155.016,46.408 C154.461331,45.9599978 154.184,45.3680037 154.184,44.632 C154.184,43.9173298 154.442664,43.3413355 154.96,42.904 C155.477336,42.4666645 156.301328,42.248 157.432,42.248 L160.104,42.248 L160.104,41.736 C160.104,41.010663 159.901335,40.4586686 159.496,40.08 C159.090665,39.7013314 158.498671,39.512 157.72,39.512 C157.186664,39.512 156.674669,39.5999991 156.184,39.776 C155.693331,39.9520009 155.272002,40.1946651 154.92,40.504 L154.408,39.656 C154.834669,39.2933315 155.346664,39.0133343 155.944,38.816 C156.541336,38.6186657 157.170663,38.52 157.832,38.52 Z M157.432,46.184 C158.072003,46.184 158.621331,46.0373348 159.08,45.744 C159.538669,45.4506652 159.879999,45.0266694 160.104,44.472 L160.104,43.096 L157.464,43.096 C156.023993,43.096 155.304,43.5973283 155.304,44.6 C155.304,45.0906691 155.490665,45.4773319 155.864,45.76 C156.237335,46.0426681 156.759997,46.184 157.432,46.184 Z M165.416,40.232 C165.682668,39.6666638 166.079997,39.2400014 166.608,38.952 C167.136003,38.6639986 167.789329,38.52 168.568,38.52 L168.568,39.624 L168.296,39.608 C167.410662,39.608 166.717336,39.8799973 166.216,40.424 C165.714664,40.9680027 165.464,41.7306618 165.464,42.712 L165.464,47 L164.328,47 L164.328,38.584 L165.416,38.584 L165.416,40.232 Z" id="for-Angular" fill="#8994C6"></path>
        </g>
    </g>
</svg>