<svg xmlns="http://www.w3.org/2000/svg" width="452" height="456" viewBox="0 0 452 456" xmlns:xlink="http://www.w3.org/1999/xlink">
  <defs>
    <rect id="b" width="359" height="354" y="52" rx="38"/>
    <filter id="a" width="136.2%" height="136.7%" x="-18.1%" y="-15.5%" filterUnits="objectBoundingBox">
      <feOffset dy="10" in="SourceAlpha" result="shadowOffsetOuter1"/>
      <feGaussianBlur stdDeviation="20" in="shadowOffsetOuter1" result="shadowBlurOuter1"/>
      <feColorMatrix values="0 0 0 0 0.440703533 0 0 0 0 0.503310129 0 0 0 0 0.68486926 0 0 0 0.384454257 0" in="shadowBlurOuter1"/>
    </filter>
    <filter id="c" width="125.1%" height="125.4%" x="-12.5%" y="-9.9%" filterUnits="objectBoundingBox">
      <feOffset dy="-10" in="SourceAlpha" result="shadowOffsetInner1"/>
      <feComposite in="shadowOffsetInner1" in2="SourceAlpha" operator="arithmetic" k2="-1" k3="1" result="shadowInnerInner1"/>
      <feColorMatrix values="0 0 0 0 0.403921569 0 0 0 0 0.458823529 0 0 0 0 0.631372549 0 0 0 0.06 0" in="shadowInnerInner1"/>
    </filter>
    <linearGradient id="d" x1="0%" y1="100%" y2="0%">
      <stop stop-color="#00D8FF" offset="0%"/>
      <stop stop-color="#00A7FF" offset="100%"/>
    </linearGradient>
    <linearGradient id="e" x1="21.895%" x2="77.978%" y1="121.561%" y2="8.499%">
      <stop stop-color="#201C38" offset="0%"/>
      <stop stop-color="#3E396B" offset="100%"/>
    </linearGradient>
  </defs>
  <g fill="none" fill-rule="evenodd" transform="translate(40)">
    <use fill="black" filter="url(#a)" xlink:href="#b"/>
    <use fill="#FFFFFF" xlink:href="#b"/>
    <use fill="black" filter="url(#c)" xlink:href="#b"/>
    <path fill="url(#d)" fill-rule="nonzero" d="M179.15,176.072368 C181.983333,176.072368 184.675,175.506579 187.366667,174.657895 L191.9,182.4375 L195.016667,187.8125 C195.866667,189.368421 197.425,190.217105 199.125,190.217105 C199.975,190.217105 200.683333,190.075658 201.533333,189.651316 C203.8,188.378289 204.508333,185.407895 203.233333,183.144737 L200.116667,177.769737 L195.583333,169.848684 C200.825,165.322368 204.225,158.532895 204.225,151.036184 C204.225,137.315789 193.033333,126.141447 179.291667,126.141447 C165.55,126.141447 154.216667,137.315789 154.216667,151.177632 C154.216667,165.039474 165.408333,176.072368 179.15,176.072368 Z M179.15,135.618421 C187.65,135.618421 194.591667,142.549342 194.591667,151.036184 C194.591667,159.523026 187.65,166.453947 179.15,166.453947 C170.65,166.453947 163.708333,159.523026 163.708333,151.036184 C163.708333,142.549342 170.65,135.618421 179.15,135.618421 Z"/>
    <path fill="url(#e)" fill-rule="nonzero" d="M215.841667,189.368421 C203.658333,189.368421 193.6,198.138158 191.333333,209.595395 L182.408333,209.595395 L176.175,209.595395 C173.625,209.595395 171.5,211.717105 171.5,214.263158 C171.5,216.809211 173.625,218.930921 176.175,218.930921 L182.408333,218.930921 L191.333333,218.930921 C193.6,230.388158 203.658333,239.157895 215.841667,239.157895 C229.583333,239.157895 240.775,227.983553 240.775,214.263158 C240.775,200.542763 229.583333,189.368421 215.841667,189.368421 Z M215.841667,229.822368 C207.341667,229.822368 200.4,222.891447 200.4,214.404605 C200.4,205.917763 207.341667,198.986842 215.841667,198.986842 C224.341667,198.986842 231.283333,205.917763 231.283333,214.404605 C231.283333,222.891447 224.341667,229.822368 215.841667,229.822368 Z M159.033333,195.592105 C164.275,200.118421 167.675,206.766447 167.533333,214.404605 C167.533333,228.125 156.341667,239.299342 142.6,239.299342 C128.858333,239.299342 117.666667,228.266447 117.666667,214.404605 C117.666667,200.542763 128.858333,189.368421 142.6,189.368421 C145.575,189.368421 148.266667,189.934211 150.816667,190.782895 L155.35,183.003289 L158.466667,177.628289 C159.883333,175.365132 162.716667,174.657895 164.983333,175.930921 C167.25,177.345395 167.958333,180.174342 166.683333,182.4375 L163.566667,187.8125 L159.033333,195.592105 Z M142.6,229.822368 C151.241667,229.822368 158.183333,222.891447 158.041667,214.404605 C158.041667,205.917763 151.1,198.986842 142.6,198.986842 C134.1,198.986842 127.158333,205.917763 127.158333,214.404605 C127.158333,222.891447 134.1,229.822368 142.6,229.822368 Z"/>
    <path fill="#3E396B" d="M96.1316667,281.071711 L99.9236667,281.071711 L99.9236667,297.871711 L96.1316667,297.871711 L96.1316667,281.071711 Z M115.175667,286.159711 C116.031671,287.055715 116.459667,288.255703 116.459667,289.759711 L116.459667,297.871711 L112.763667,297.871711 L112.763667,290.839711 C112.763667,290.023706 112.535669,289.379713 112.079667,288.907711 C111.623664,288.435708 111.003671,288.199711 110.219667,288.199711 C109.307662,288.215711 108.587669,288.531707 108.059667,289.147711 C107.531664,289.763714 107.267667,290.551706 107.267667,291.511711 L107.267667,297.871711 L103.571667,297.871711 L103.571667,284.959711 L107.267667,284.959711 L107.267667,287.215711 C108.163671,285.647703 109.651656,284.847711 111.731667,284.815711 C113.171674,284.815711 114.319662,285.263706 115.175667,286.159711 Z M125.699667,287.827711 C125.011663,287.611709 124.395669,287.503711 123.851667,287.503711 C123.403664,287.503711 123.043668,287.58371 122.771667,287.743711 C122.499665,287.903711 122.363667,288.143709 122.363667,288.463711 C122.363667,288.815712 122.547665,289.08771 122.915667,289.279711 C123.283669,289.471711 123.883663,289.687709 124.715667,289.927711 C125.627671,290.199712 126.379664,290.467709 126.971667,290.731711 C127.56367,290.995712 128.075665,291.387708 128.507667,291.907711 C128.939669,292.427713 129.155667,293.111706 129.155667,293.959711 C129.155667,295.239717 128.663672,296.235707 127.679667,296.947711 C126.695662,297.659714 125.435674,298.015711 123.899667,298.015711 C122.843661,298.015711 121.827672,297.859712 120.851667,297.547711 C119.875662,297.235709 119.02767,296.791713 118.307667,296.215711 L119.507667,293.719711 C120.16367,294.231713 120.895663,294.627709 121.703667,294.907711 C122.511671,295.187712 123.275663,295.327711 123.995667,295.327711 C124.491669,295.327711 124.887665,295.243711 125.183667,295.075711 C125.479668,294.90771 125.627667,294.655712 125.627667,294.319711 C125.627667,293.951709 125.439669,293.663712 125.063667,293.455711 C124.687665,293.247709 124.083671,293.023712 123.251667,292.783711 C122.371662,292.527709 121.63967,292.271712 121.055667,292.015711 C120.471664,291.759709 119.971669,291.371713 119.555667,290.851711 C119.139665,290.331708 118.931667,289.655715 118.931667,288.823711 C118.931667,287.543704 119.411662,286.551714 120.371667,285.847711 C121.331671,285.143707 122.547659,284.791711 124.019667,284.791711 C124.899671,284.791711 125.779662,284.915709 126.659667,285.163711 C127.539671,285.411712 128.339663,285.767708 129.059667,286.231711 L127.787667,288.751711 C127.083663,288.351709 126.38767,288.043712 125.699667,287.827711 Z M139.619667,297.151711 C139.139664,297.439712 138.60767,297.65971 138.023667,297.811711 C137.439664,297.963711 136.85167,298.039711 136.259667,298.039711 C135.059661,298.039711 134.08367,297.695714 133.331667,297.007711 C132.579663,296.319707 132.203667,295.335717 132.203667,294.055711 L132.203667,288.079711 L130.403667,288.079711 L130.403667,285.535711 L132.203667,285.535711 L132.203667,281.983711 L135.875667,281.983711 L135.875667,285.535711 L139.379667,285.535711 L139.379667,288.103711 L135.875667,288.103711 L135.875667,293.431711 C135.875667,294.423715 136.267663,294.919711 137.051667,294.919711 C137.595669,294.919711 138.195663,294.759712 138.851667,294.439711 L139.619667,297.151711 Z M149.339667,297.871711 L149.339667,296.359711 C148.907665,296.903713 148.34767,297.319709 147.659667,297.607711 C146.971663,297.895712 146.179671,298.039711 145.283667,298.039711 C143.92366,298.039711 142.843671,297.667714 142.043667,296.923711 C141.243663,296.179707 140.843667,295.207717 140.843667,294.007711 C140.843667,292.791704 141.271662,291.843714 142.127667,291.163711 C142.983671,290.483707 144.195659,290.135711 145.763667,290.119711 L149.315667,290.119711 L149.315667,289.879711 C149.315667,289.191707 149.087669,288.659712 148.631667,288.283711 C148.175664,287.907709 147.507671,287.719711 146.627667,287.719711 C145.427661,287.719711 144.147673,288.095707 142.787667,288.847711 L141.635667,286.303711 C142.659672,285.791708 143.619662,285.415712 144.515667,285.175711 C145.411671,284.935709 146.395661,284.815711 147.467667,284.815711 C149.195675,284.815711 150.535662,285.223706 151.487667,286.039711 C152.439671,286.855715 152.923667,287.991703 152.939667,289.447711 L152.963667,297.871711 L149.339667,297.871711 Z M148.307667,294.847711 C148.867669,294.479709 149.203666,294.015713 149.315667,293.455711 L149.315667,292.303711 L146.411667,292.303711 C145.691663,292.303711 145.159668,292.419709 144.815667,292.651711 C144.471665,292.883712 144.299667,293.255708 144.299667,293.767711 C144.299667,294.263713 144.479665,294.659709 144.839667,294.955711 C145.199668,295.251712 145.691664,295.399711 146.315667,295.399711 C147.083671,295.399711 147.747664,295.215712 148.307667,294.847711 Z M167.759667,286.159711 C168.615671,287.055715 169.043667,288.255703 169.043667,289.759711 L169.043667,297.871711 L165.347667,297.871711 L165.347667,290.839711 C165.347667,290.023706 165.119669,289.379713 164.663667,288.907711 C164.207664,288.435708 163.587671,288.199711 162.803667,288.199711 C161.891662,288.215711 161.171669,288.531707 160.643667,289.147711 C160.115664,289.763714 159.851667,290.551706 159.851667,291.511711 L159.851667,297.871711 L156.155667,297.871711 L156.155667,284.959711 L159.851667,284.959711 L159.851667,287.215711 C160.747671,285.647703 162.235656,284.847711 164.315667,284.815711 C165.755674,284.815711 166.903662,285.263706 167.759667,286.159711 Z M180.227667,297.151711 C179.747664,297.439712 179.21567,297.65971 178.631667,297.811711 C178.047664,297.963711 177.45967,298.039711 176.867667,298.039711 C175.667661,298.039711 174.69167,297.695714 173.939667,297.007711 C173.187663,296.319707 172.811667,295.335717 172.811667,294.055711 L172.811667,288.079711 L171.011667,288.079711 L171.011667,285.535711 L172.811667,285.535711 L172.811667,281.983711 L176.483667,281.983711 L176.483667,285.535711 L179.987667,285.535711 L179.987667,288.103711 L176.483667,288.103711 L176.483667,293.431711 C176.483667,294.423715 176.875663,294.919711 177.659667,294.919711 C178.203669,294.919711 178.803663,294.759712 179.459667,294.439711 L180.227667,297.151711 Z M190.847667,284.491711 C189.879662,284.179709 189.05167,284.023711 188.363667,284.023711 C187.707663,284.023711 187.187669,284.143709 186.803667,284.383711 C186.419665,284.623712 186.227667,284.975708 186.227667,285.439711 C186.227667,286.031713 186.503664,286.483709 187.055667,286.795711 C187.607669,287.107712 188.459661,287.431709 189.611667,287.767711 C190.763672,288.103712 191.711663,288.439709 192.455667,288.775711 C193.19967,289.111712 193.835664,289.615707 194.363667,290.287711 C194.891669,290.959714 195.155667,291.847705 195.155667,292.951711 C195.155667,294.023716 194.87167,294.947707 194.303667,295.723711 C193.735664,296.499714 192.955672,297.087709 191.963667,297.487711 C190.971662,297.887713 189.843673,298.087711 188.579667,298.087711 C187.21966,298.087711 185.883673,297.847713 184.571667,297.367711 C183.25966,296.887708 182.123671,296.231715 181.163667,295.399711 L182.675667,292.303711 C183.523671,293.071714 184.499661,293.687708 185.603667,294.151711 C186.707672,294.615713 187.715662,294.847711 188.627667,294.847711 C189.411671,294.847711 190.023664,294.703712 190.463667,294.415711 C190.903669,294.127709 191.123667,293.711713 191.123667,293.167711 C191.123667,292.735708 190.975668,292.379712 190.679667,292.099711 C190.383665,291.819709 190.007669,291.591711 189.551667,291.415711 C189.095664,291.23971 188.467671,291.039712 187.667667,290.815711 C186.515661,290.495709 185.57567,290.175712 184.847667,289.855711 C184.119663,289.535709 183.491669,289.047714 182.963667,288.391711 C182.435664,287.735707 182.171667,286.863716 182.171667,285.775711 C182.171667,284.767705 182.443664,283.883714 182.987667,283.123711 C183.531669,282.363707 184.291662,281.779713 185.267667,281.371711 C186.243672,280.963708 187.37966,280.759711 188.675667,280.759711 C189.827672,280.759711 190.963661,280.927709 192.083667,281.263711 C193.203672,281.599712 194.195662,282.047708 195.059667,282.607711 L193.595667,285.751711 C192.731662,285.223708 191.815672,284.803712 190.847667,284.491711 Z M208.031667,286.639711 C209.111672,287.839717 209.651667,289.5117 209.651667,291.655711 C209.651667,292.039712 209.643667,292.335709 209.627667,292.543711 L200.363667,292.543711 C200.571668,293.359715 200.971664,293.995708 201.563667,294.451711 C202.15567,294.907713 202.867663,295.135711 203.699667,295.135711 C204.30767,295.135711 204.891664,295.019712 205.451667,294.787711 C206.011669,294.555709 206.515664,294.215713 206.963667,293.767711 L208.907667,295.735711 C208.251663,296.471714 207.455671,297.035709 206.519667,297.427711 C205.583662,297.819712 204.539672,298.015711 203.387667,298.015711 C202.02766,298.015711 200.839672,297.743713 199.823667,297.199711 C198.807662,296.655708 198.023669,295.887715 197.471667,294.895711 C196.919664,293.903706 196.643667,292.759717 196.643667,291.463711 C196.643667,290.151704 196.923664,288.995716 197.483667,287.995711 C198.043669,286.995706 198.827662,286.219713 199.835667,285.667711 C200.843672,285.115708 201.99566,284.839711 203.291667,284.839711 C205.371677,284.839711 206.951661,285.439705 208.031667,286.639711 Z M206.171667,290.359711 C206.139667,289.511706 205.867669,288.831713 205.355667,288.319711 C204.843664,287.807708 204.163671,287.551711 203.315667,287.551711 C202.515663,287.551711 201.847669,287.803708 201.311667,288.307711 C200.775664,288.811713 200.435667,289.495706 200.291667,290.359711 L206.171667,290.359711 Z M219.563667,297.871711 L219.563667,296.359711 C219.131665,296.903713 218.57167,297.319709 217.883667,297.607711 C217.195663,297.895712 216.403671,298.039711 215.507667,298.039711 C214.14766,298.039711 213.067671,297.667714 212.267667,296.923711 C211.467663,296.179707 211.067667,295.207717 211.067667,294.007711 C211.067667,292.791704 211.495662,291.843714 212.351667,291.163711 C213.207671,290.483707 214.419659,290.135711 215.987667,290.119711 L219.539667,290.119711 L219.539667,289.879711 C219.539667,289.191707 219.311669,288.659712 218.855667,288.283711 C218.399664,287.907709 217.731671,287.719711 216.851667,287.719711 C215.651661,287.719711 214.371673,288.095707 213.011667,288.847711 L211.859667,286.303711 C212.883672,285.791708 213.843662,285.415712 214.739667,285.175711 C215.635671,284.935709 216.619661,284.815711 217.691667,284.815711 C219.419675,284.815711 220.759662,285.223706 221.711667,286.039711 C222.663671,286.855715 223.147667,287.991703 223.163667,289.447711 L223.187667,297.871711 L219.563667,297.871711 Z M218.531667,294.847711 C219.091669,294.479709 219.427666,294.015713 219.539667,293.455711 L219.539667,292.303711 L216.635667,292.303711 C215.915663,292.303711 215.383668,292.419709 215.039667,292.651711 C214.695665,292.883712 214.523667,293.255708 214.523667,293.767711 C214.523667,294.263713 214.703665,294.659709 215.063667,294.955711 C215.423668,295.251712 215.915664,295.399711 216.539667,295.399711 C217.307671,295.399711 217.971664,295.215712 218.531667,294.847711 Z M231.827667,285.463711 C232.54767,285.047708 233.387662,284.831711 234.347667,284.815711 L234.347667,288.295711 C234.219666,288.27971 234.027668,288.271711 233.771667,288.271711 C232.635661,288.271711 231.73567,288.579707 231.071667,289.195711 C230.407663,289.811714 230.075667,290.631705 230.075667,291.655711 L230.075667,297.871711 L226.379667,297.871711 L226.379667,284.959711 L230.075667,284.959711 L230.075667,287.287711 C230.523669,286.487707 231.107663,285.879713 231.827667,285.463711 Z M242.099667,287.983711 C241.171662,287.983711 240.41567,288.299707 239.831667,288.931711 C239.247664,289.563714 238.955667,290.399705 238.955667,291.439711 C238.955667,292.479716 239.243664,293.323707 239.819667,293.971711 C240.39567,294.619714 241.131662,294.943711 242.027667,294.943711 C243.371673,294.943711 244.371663,294.439716 245.027667,293.431711 L247.571667,295.159711 C247.027664,296.071715 246.263672,296.775708 245.279667,297.271711 C244.295662,297.767713 243.147673,298.015711 241.835667,298.015711 C240.53966,298.015711 239.395672,297.743713 238.403667,297.199711 C237.411662,296.655708 236.639669,295.887715 236.087667,294.895711 C235.535664,293.903706 235.259667,292.759717 235.259667,291.463711 C235.259667,290.151704 235.535664,288.995716 236.087667,287.995711 C236.639669,286.995706 237.415662,286.219713 238.415667,285.667711 C239.415672,285.115708 240.57166,284.839711 241.883667,284.839711 C243.115673,284.839711 244.211662,285.075708 245.171667,285.547711 C246.131671,286.019713 246.899664,286.687706 247.475667,287.551711 L244.979667,289.351711 C244.243663,288.439706 243.283673,287.983711 242.099667,287.983711 Z M261.623667,286.159711 C262.479671,287.055715 262.907667,288.255703 262.907667,289.759711 L262.907667,297.871711 L259.211667,297.871711 L259.211667,290.839711 C259.211667,290.023706 258.983669,289.379713 258.527667,288.907711 C258.071664,288.435708 257.451671,288.199711 256.667667,288.199711 C255.755662,288.215711 255.031669,288.531707 254.495667,289.147711 C253.959664,289.763714 253.691667,290.551706 253.691667,291.511711 L253.691667,297.871711 L249.995667,297.871711 L249.995667,280.063711 L253.691667,280.063711 L253.691667,287.239711 C254.587671,285.655703 256.075656,284.847711 258.155667,284.815711 C259.611674,284.815711 260.767662,285.263706 261.623667,286.159711 Z"/>
    <path fill="#8994C6" d="M50.324,320.79 C49.9613315,321.121931 49.78,321.59719 49.78,322.215789 L49.78,323.777368 L53.0893333,323.777368 L53.0893333,325.384211 L49.78,325.384211 L49.78,335.342105 L47.672,335.342105 L47.672,325.384211 L46.108,325.384211 L46.108,323.777368 L47.672,323.777368 L47.672,322.487368 C47.672,321.612276 47.8571093,320.869214 48.2273333,320.258158 C48.5975574,319.647102 49.0848859,319.186931 49.6893333,318.877632 C50.2937808,318.568332 50.9435521,318.413684 51.6386667,318.413684 C52.3035589,318.413684 52.998663,318.594735 53.724,318.956842 L53.2253333,320.676842 C52.6813306,320.42035 52.167558,320.292105 51.684,320.292105 C51.1399973,320.292105 50.6866685,320.458069 50.324,320.79 Z M63.1873333,324.071579 C64.1166713,324.584564 64.8419974,325.297452 65.3633333,326.210263 C65.8846693,327.123075 66.1453333,328.167889 66.1453333,329.344737 C66.1453333,330.521585 65.8846693,331.570171 65.3633333,332.490526 C64.8419974,333.410882 64.1166713,334.127541 63.1873333,334.640526 C62.2579954,335.153511 61.1964504,335.41 60.0026667,335.41 C58.7937717,335.41 57.7246713,335.153511 56.7953333,334.640526 C55.8659954,334.127541 55.1406693,333.414654 54.6193333,332.501842 C54.0979974,331.589031 53.8373333,330.536673 53.8373333,329.344737 C53.8373333,328.167889 54.0979974,327.123075 54.6193333,326.210263 C55.1406693,325.297452 55.8659954,324.584564 56.7953333,324.071579 C57.7246713,323.558594 58.7937717,323.302105 60.0026667,323.302105 C61.1964504,323.302105 62.2579954,323.558594 63.1873333,324.071579 Z M57.906,325.678421 C57.2939969,326.040528 56.8180017,326.54219 56.478,327.183421 C56.1379983,327.824652 55.968,328.552628 55.968,329.367368 C55.968,330.197197 56.1379983,330.936488 56.478,331.585263 C56.8180017,332.234038 57.2939969,332.7357 57.906,333.090263 C58.5180031,333.444826 59.216885,333.622105 60.0026667,333.622105 C60.7733372,333.622105 61.4646636,333.444826 62.0766667,333.090263 C62.6886697,332.7357 63.164665,332.234038 63.5046667,331.585263 C63.8446684,330.936488 64.0146667,330.197197 64.0146667,329.367368 C64.0146667,328.552628 63.8446684,327.824652 63.5046667,327.183421 C63.164665,326.54219 62.6886697,326.040528 62.0766667,325.678421 C61.4646636,325.316314 60.7733372,325.135263 60.0026667,325.135263 C59.216885,325.135263 58.5180031,325.316314 57.906,325.678421 Z M72.8773333,323.992368 C73.6026703,323.547278 74.463995,323.317193 75.4613333,323.302105 L75.4613333,325.338947 C74.2373272,325.293684 73.2475593,325.610523 72.492,326.289474 C71.7364407,326.968424 71.3057783,327.881222 71.2,329.027895 L71.2,335.342105 L69.092,335.342105 L69.092,323.37 L71.2,323.37 L71.2,325.95 C71.5928909,325.089996 72.1519964,324.437458 72.8773333,323.992368 Z M94.1386667,335.342105 L90.988,330.363158 C90.6253315,330.393333 90.3306678,330.408421 90.104,330.408421 L86.0693333,330.408421 L86.0693333,335.342105 L83.8933333,335.342105 L83.8933333,319.5 L90.104,319.5 C92.1137878,319.5 93.666439,319.963943 94.762,320.891842 C95.857561,321.819741 96.4053333,323.136132 96.4053333,324.841053 C96.4053333,326.123515 96.1068919,327.202276 95.51,328.077368 C94.9131081,328.952461 94.0555611,329.586138 92.9373333,329.978421 L96.632,335.342105 L94.1386667,335.342105 Z M90.104,328.439474 C91.4640068,328.439474 92.506663,328.141494 93.232,327.545526 C93.957337,326.949558 94.32,326.070708 94.32,324.908947 C94.32,323.777363 93.957337,322.921143 93.232,322.340263 C92.506663,321.759383 91.4640068,321.468947 90.104,321.468947 L86.0693333,321.468947 L86.0693333,328.439474 L90.104,328.439474 Z M109.098667,324.942895 C110.050671,326.03676 110.526667,327.556832 110.526667,329.503158 C110.526667,329.804914 110.519111,330.031227 110.504,330.182105 L101.029333,330.182105 C101.195556,331.253339 101.645107,332.105786 102.378,332.739474 C103.110893,333.373161 104.013772,333.69 105.086667,333.69 C105.796892,333.69 106.457997,333.561756 107.07,333.305263 C107.682003,333.048771 108.214664,332.686669 108.668,332.218947 L109.824,333.418421 C109.234664,334.052108 108.524449,334.542454 107.693333,334.889474 C106.862218,335.236493 105.94045,335.41 104.928,335.41 C103.749327,335.41 102.702893,335.157283 101.788667,334.651842 C100.87444,334.146401 100.164225,333.433513 99.658,332.513158 C99.1517752,331.592802 98.8986667,330.544216 98.8986667,329.367368 C98.8986667,328.19052 99.1517752,327.145706 99.658,326.232895 C100.164225,325.320083 100.870662,324.603424 101.777333,324.082895 C102.684005,323.562366 103.719105,323.302105 104.882667,323.302105 C106.741343,323.302105 108.146662,323.84903 109.098667,324.942895 Z M108.622667,328.552632 C108.562222,327.46631 108.199559,326.610091 107.534667,325.983947 C106.869774,325.357804 105.993339,325.044737 104.905333,325.044737 C103.84755,325.044737 102.967337,325.361576 102.264667,325.995263 C101.561996,326.628951 101.142667,327.481398 101.006667,328.552632 L108.622667,328.552632 Z M120.726667,335.342105 L120.726667,333.667368 C119.835107,334.844216 118.437343,335.432632 116.533333,335.432632 C115.702218,335.432632 114.973114,335.274212 114.346,334.957368 C113.718886,334.640525 113.235335,334.202985 112.895333,333.644737 C112.555332,333.086488 112.385333,332.460354 112.385333,331.766316 C112.385333,330.695082 112.781996,329.846407 113.575333,329.220263 C114.368671,328.59412 115.475548,328.273509 116.896,328.258421 L120.704,328.258421 L120.704,327.692632 C120.704,326.847715 120.443336,326.195178 119.922,325.735 C119.400664,325.274822 118.641338,325.044737 117.644,325.044737 C116.435105,325.044737 115.203562,325.474733 113.949333,326.334737 L113.065333,324.886316 C113.926671,324.328067 114.723774,323.924475 115.456667,323.675526 C116.189559,323.426578 117.062217,323.302105 118.074667,323.302105 C119.570674,323.302105 120.726663,323.667979 121.542667,324.399737 C122.358671,325.131495 122.774222,326.153678 122.789333,327.466316 L122.812,335.342105 L120.726667,335.342105 Z M119.468667,332.977105 C120.156226,332.50184 120.567999,331.871934 120.704,331.087368 L120.704,329.887895 L117.190667,329.887895 C116.238662,329.887895 115.532225,330.031227 115.071333,330.317895 C114.610442,330.604563 114.38,331.05719 114.38,331.675789 C114.38,332.294389 114.61422,332.784735 115.082667,333.146842 C115.551113,333.508949 116.178218,333.69 116.964,333.69 C117.946227,333.69 118.781108,333.452371 119.468667,332.977105 Z M131.561333,325.180526 C130.775552,325.180526 130.07667,325.354033 129.464667,325.701053 C128.852664,326.048072 128.372891,326.538418 128.025333,327.172105 C127.677776,327.805793 127.504,328.53754 127.504,329.367368 C127.504,330.197197 127.673998,330.928944 128.014,331.562632 C128.354002,332.196319 128.822441,332.690437 129.419333,333.045 C130.016225,333.399563 130.699996,333.576842 131.470667,333.576842 C132.241337,333.576842 132.936441,333.448598 133.556,333.192105 C134.175559,332.935613 134.689331,332.565967 135.097333,332.083158 L136.298667,333.305263 C135.754664,333.984214 135.063338,334.504735 134.224667,334.866842 C133.385996,335.228949 132.437783,335.41 131.38,335.41 C130.216439,335.41 129.181338,335.153511 128.274667,334.640526 C127.367995,334.127541 126.661558,333.414654 126.155333,332.501842 C125.649109,331.589031 125.396,330.544216 125.396,329.367368 C125.396,328.19052 125.649109,327.141934 126.155333,326.221579 C126.661558,325.301223 127.367995,324.584564 128.274667,324.071579 C129.181338,323.558594 130.216439,323.302105 131.38,323.302105 C132.39245,323.302105 133.302885,323.456753 134.111333,323.766053 C134.919782,324.075352 135.595997,324.524208 136.14,325.112632 L134.984,326.561053 C134.031995,325.640697 132.891118,325.180526 131.561333,325.180526 Z M145.750667,334.55 C144.828884,335.138424 143.892005,335.432632 142.94,335.432632 C141.987995,335.432632 141.217336,335.14974 140.628,334.583947 C140.038664,334.018155 139.744,333.161936 139.744,332.015263 L139.744,325.384211 L138.044,325.384211 L138.044,323.777368 L139.744,323.777368 L139.744,320.563684 L141.874667,320.563684 L141.874667,323.777368 L145.546667,323.777368 L145.546667,325.384211 L141.874667,325.384211 L141.874667,331.630526 C141.874667,332.294389 141.995554,332.769648 142.237333,333.056316 C142.479112,333.342984 142.841775,333.486316 143.325333,333.486316 C143.899558,333.486316 144.519108,333.297721 145.184,332.920526 L145.750667,334.55 Z M165.765333,335.681579 L163.181333,333.146842 C162.471108,333.886144 161.704226,334.451928 160.880667,334.844211 C160.057107,335.236493 159.207115,335.432632 158.330667,335.432632 C157.439107,335.432632 156.623115,335.244037 155.882667,334.866842 C155.142219,334.489647 154.556669,333.965354 154.126,333.293947 C153.695331,332.622541 153.48,331.871934 153.48,331.042105 C153.48,330.016135 153.793552,329.167459 154.420667,328.496053 C155.047781,327.824646 155.912883,327.19474 157.016,326.606316 C156.471997,325.897189 156.071557,325.244652 155.814667,324.648684 C155.557776,324.052716 155.429333,323.468073 155.429333,322.894737 C155.429333,321.868767 155.799552,321.031407 156.54,320.382632 C157.280448,319.733856 158.239994,319.409474 159.418667,319.409474 C160.552006,319.409474 161.473774,319.711225 162.184,320.314737 C162.894226,320.918249 163.249333,321.695258 163.249333,322.645789 C163.249333,323.32474 163.07178,323.924471 162.716667,324.445 C162.361554,324.965529 161.91578,325.410612 161.379333,325.780263 C160.842886,326.149914 160.166671,326.545963 159.350667,326.968421 C160.106226,327.843513 161.322658,329.110869 163,330.770526 C163.604447,329.850171 164.110665,328.854391 164.518667,327.783158 L165.924,328.824211 C165.455553,329.940707 164.881337,330.98175 164.201333,331.947368 L166.876,334.55 L165.765333,335.681579 Z M158.444,325.882105 C159.45645,325.354032 160.223331,324.856143 160.744667,324.388421 C161.266003,323.920699 161.526667,323.347372 161.526667,322.668421 C161.526667,322.095085 161.33778,321.634914 160.96,321.287895 C160.58222,320.940875 160.076003,320.767368 159.441333,320.767368 C158.746219,320.767368 158.190891,320.967279 157.775333,321.367105 C157.359776,321.766932 157.152,322.268593 157.152,322.872105 C157.152,323.701934 157.582662,324.705257 158.444,325.882105 Z M162.025333,331.992632 C160.242213,330.22736 158.874671,328.801584 157.922667,327.715263 C157.07644,328.182985 156.422891,328.665787 155.962,329.163684 C155.501109,329.661581 155.270667,330.242453 155.270667,330.906316 C155.270667,331.751232 155.572886,332.44526 156.177333,332.988421 C156.781781,333.531582 157.522218,333.803158 158.398667,333.803158 C159.652895,333.803158 160.861772,333.199655 162.025333,331.992632 Z M185.485333,335.342105 L182.334667,330.363158 C181.971998,330.393333 181.677334,330.408421 181.450667,330.408421 L177.416,330.408421 L177.416,335.342105 L175.24,335.342105 L175.24,319.5 L181.450667,319.5 C183.460454,319.5 185.013106,319.963943 186.108667,320.891842 C187.204228,321.819741 187.752,323.136132 187.752,324.841053 C187.752,326.123515 187.453559,327.202276 186.856667,328.077368 C186.259775,328.952461 185.402228,329.586138 184.284,329.978421 L187.978667,335.342105 L185.485333,335.342105 Z M181.450667,328.439474 C182.810673,328.439474 183.85333,328.141494 184.578667,327.545526 C185.304004,326.949558 185.666667,326.070708 185.666667,324.908947 C185.666667,323.777363 185.304004,322.921143 184.578667,322.340263 C183.85333,321.759383 182.810673,321.468947 181.450667,321.468947 L177.416,321.468947 L177.416,328.439474 L181.450667,328.439474 Z M200.445333,324.942895 C201.397338,326.03676 201.873333,327.556832 201.873333,329.503158 C201.873333,329.804914 201.865778,330.031227 201.850667,330.182105 L192.376,330.182105 C192.542223,331.253339 192.991774,332.105786 193.724667,332.739474 C194.457559,333.373161 195.360439,333.69 196.433333,333.69 C197.143559,333.69 197.804664,333.561756 198.416667,333.305263 C199.02867,333.048771 199.561331,332.686669 200.014667,332.218947 L201.170667,333.418421 C200.58133,334.052108 199.871115,334.542454 199.04,334.889474 C198.208885,335.236493 197.287116,335.41 196.274667,335.41 C195.095994,335.41 194.04956,335.157283 193.135333,334.651842 C192.221107,334.146401 191.510891,333.433513 191.004667,332.513158 C190.498442,331.592802 190.245333,330.544216 190.245333,329.367368 C190.245333,328.19052 190.498442,327.145706 191.004667,326.232895 C191.510891,325.320083 192.217329,324.603424 193.124,324.082895 C194.030671,323.562366 195.065772,323.302105 196.229333,323.302105 C198.088009,323.302105 199.493329,323.84903 200.445333,324.942895 Z M199.969333,328.552632 C199.908889,327.46631 199.546226,326.610091 198.881333,325.983947 C198.216441,325.357804 197.340005,325.044737 196.252,325.044737 C195.194217,325.044737 194.314004,325.361576 193.611333,325.995263 C192.908663,326.628951 192.489334,327.481398 192.353333,328.552632 L199.969333,328.552632 Z M212.073333,335.342105 L212.073333,333.667368 C211.181773,334.844216 209.78401,335.432632 207.88,335.432632 C207.048885,335.432632 206.319781,335.274212 205.692667,334.957368 C205.065552,334.640525 204.582002,334.202985 204.242,333.644737 C203.901998,333.086488 203.732,332.460354 203.732,331.766316 C203.732,330.695082 204.128663,329.846407 204.922,329.220263 C205.715337,328.59412 206.822215,328.273509 208.242667,328.258421 L212.050667,328.258421 L212.050667,327.692632 C212.050667,326.847715 211.790003,326.195178 211.268667,325.735 C210.747331,325.274822 209.988005,325.044737 208.990667,325.044737 C207.781772,325.044737 206.550228,325.474733 205.296,326.334737 L204.412,324.886316 C205.273338,324.328067 206.070441,323.924475 206.803333,323.675526 C207.536226,323.426578 208.408884,323.302105 209.421333,323.302105 C210.917341,323.302105 212.073329,323.667979 212.889333,324.399737 C213.705337,325.131495 214.120889,326.153678 214.136,327.466316 L214.158667,335.342105 L212.073333,335.342105 Z M210.815333,332.977105 C211.502892,332.50184 211.914666,331.871934 212.050667,331.087368 L212.050667,329.887895 L208.537333,329.887895 C207.585329,329.887895 206.878891,330.031227 206.418,330.317895 C205.957109,330.604563 205.726667,331.05719 205.726667,331.675789 C205.726667,332.294389 205.960887,332.784735 206.429333,333.146842 C206.89778,333.508949 207.524885,333.69 208.310667,333.69 C209.292894,333.69 210.127774,333.452371 210.815333,332.977105 Z M222.908,325.180526 C222.122218,325.180526 221.423336,325.354033 220.811333,325.701053 C220.19933,326.048072 219.719557,326.538418 219.372,327.172105 C219.024443,327.805793 218.850667,328.53754 218.850667,329.367368 C218.850667,330.197197 219.020665,330.928944 219.360667,331.562632 C219.700668,332.196319 220.169108,332.690437 220.766,333.045 C221.362892,333.399563 222.046663,333.576842 222.817333,333.576842 C223.588004,333.576842 224.283108,333.448598 224.902667,333.192105 C225.522225,332.935613 226.035998,332.565967 226.444,332.083158 L227.645333,333.305263 C227.101331,333.984214 226.410004,334.504735 225.571333,334.866842 C224.732662,335.228949 223.78445,335.41 222.726667,335.41 C221.563105,335.41 220.528005,335.153511 219.621333,334.640526 C218.714662,334.127541 218.008225,333.414654 217.502,332.501842 C216.995775,331.589031 216.742667,330.544216 216.742667,329.367368 C216.742667,328.19052 216.995775,327.141934 217.502,326.221579 C218.008225,325.301223 218.714662,324.584564 219.621333,324.071579 C220.528005,323.558594 221.563105,323.302105 222.726667,323.302105 C223.739116,323.302105 224.649552,323.456753 225.458,323.766053 C226.266448,324.075352 226.942664,324.524208 227.486667,325.112632 L226.330667,326.561053 C225.378662,325.640697 224.237784,325.180526 222.908,325.180526 Z M237.097333,334.55 C236.175551,335.138424 235.238671,335.432632 234.286667,335.432632 C233.334662,335.432632 232.564003,335.14974 231.974667,334.583947 C231.38533,334.018155 231.090667,333.161936 231.090667,332.015263 L231.090667,325.384211 L229.390667,325.384211 L229.390667,323.777368 L231.090667,323.777368 L231.090667,320.563684 L233.221333,320.563684 L233.221333,323.777368 L236.893333,323.777368 L236.893333,325.384211 L233.221333,325.384211 L233.221333,331.630526 C233.221333,332.294389 233.342221,332.769648 233.584,333.056316 C233.825779,333.342984 234.188442,333.486316 234.672,333.486316 C235.246225,333.486316 235.865774,333.297721 236.530667,332.920526 L237.097333,334.55 Z M257.089333,319.5 L259.242667,319.5 L259.242667,335.342105 L257.044,335.342105 L247.977333,323.075789 L247.977333,335.342105 L245.801333,335.342105 L245.801333,319.5 L248,319.5 L257.089333,331.788947 L257.089333,319.5 Z M270.916,335.342105 L270.916,333.667368 C270.02444,334.844216 268.626676,335.432632 266.722667,335.432632 C265.891551,335.432632 265.162448,335.274212 264.535333,334.957368 C263.908219,334.640525 263.424668,334.202985 263.084667,333.644737 C262.744665,333.086488 262.574667,332.460354 262.574667,331.766316 C262.574667,330.695082 262.971329,329.846407 263.764667,329.220263 C264.558004,328.59412 265.664882,328.273509 267.085333,328.258421 L270.893333,328.258421 L270.893333,327.692632 C270.893333,326.847715 270.632669,326.195178 270.111333,325.735 C269.589997,325.274822 268.830672,325.044737 267.833333,325.044737 C266.624438,325.044737 265.392895,325.474733 264.138667,326.334737 L263.254667,324.886316 C264.116004,324.328067 264.913107,323.924475 265.646,323.675526 C266.378893,323.426578 267.25155,323.302105 268.264,323.302105 C269.760007,323.302105 270.915996,323.667979 271.732,324.399737 C272.548004,325.131495 272.963555,326.153678 272.978667,327.466316 L273.001333,335.342105 L270.916,335.342105 Z M269.658,332.977105 C270.345559,332.50184 270.757333,331.871934 270.893333,331.087368 L270.893333,329.887895 L267.38,329.887895 C266.427995,329.887895 265.721558,330.031227 265.260667,330.317895 C264.799775,330.604563 264.569333,331.05719 264.569333,331.675789 C264.569333,332.294389 264.803553,332.784735 265.272,333.146842 C265.740447,333.508949 266.367552,333.69 267.153333,333.69 C268.13556,333.69 268.970441,333.452371 269.658,332.977105 Z M283.201333,334.55 C282.279551,335.138424 281.342671,335.432632 280.390667,335.432632 C279.438662,335.432632 278.668003,335.14974 278.078667,334.583947 C277.48933,334.018155 277.194667,333.161936 277.194667,332.015263 L277.194667,325.384211 L275.494667,325.384211 L275.494667,323.777368 L277.194667,323.777368 L277.194667,320.563684 L279.325333,320.563684 L279.325333,323.777368 L282.997333,323.777368 L282.997333,325.384211 L279.325333,325.384211 L279.325333,331.630526 C279.325333,332.294389 279.446221,332.769648 279.688,333.056316 C279.929779,333.342984 280.292442,333.486316 280.776,333.486316 C281.350225,333.486316 281.969774,333.297721 282.634667,332.920526 L283.201333,334.55 Z M285.762667,323.37 L287.870667,323.37 L287.870667,335.342105 L285.762667,335.342105 L285.762667,323.37 Z M287.746,318.979474 C287.995335,319.235966 288.12,319.560349 288.12,319.952632 C288.12,320.344914 287.995335,320.669297 287.746,320.925789 C287.496665,321.182282 287.183113,321.310526 286.805333,321.310526 C286.427554,321.310526 286.114001,321.182282 285.864667,320.925789 C285.615332,320.669297 285.490667,320.344914 285.490667,319.952632 C285.490667,319.560349 285.615332,319.235966 285.864667,318.979474 C286.114001,318.722981 286.427554,318.594737 286.805333,318.594737 C287.183113,318.594737 287.496665,318.722981 287.746,318.979474 Z M289.978667,323.37 L292.222667,323.37 L295.826667,333.26 L299.408,323.37 L301.538667,323.37 L296.869333,335.342105 L294.670667,335.342105 L289.978667,323.37 Z M312.554667,324.942895 C313.506671,326.03676 313.982667,327.556832 313.982667,329.503158 C313.982667,329.804914 313.975111,330.031227 313.96,330.182105 L304.485333,330.182105 C304.651556,331.253339 305.101107,332.105786 305.834,332.739474 C306.566893,333.373161 307.469772,333.69 308.542667,333.69 C309.252892,333.69 309.913997,333.561756 310.526,333.305263 C311.138003,333.048771 311.670664,332.686669 312.124,332.218947 L313.28,333.418421 C312.690664,334.052108 311.980449,334.542454 311.149333,334.889474 C310.318218,335.236493 309.39645,335.41 308.384,335.41 C307.205327,335.41 306.158893,335.157283 305.244667,334.651842 C304.33044,334.146401 303.620225,333.433513 303.114,332.513158 C302.607775,331.592802 302.354667,330.544216 302.354667,329.367368 C302.354667,328.19052 302.607775,327.145706 303.114,326.232895 C303.620225,325.320083 304.326662,324.603424 305.233333,324.082895 C306.140005,323.562366 307.175105,323.302105 308.338667,323.302105 C310.197343,323.302105 311.602662,323.84903 312.554667,324.942895 Z M312.078667,328.552632 C312.018222,327.46631 311.655559,326.610091 310.990667,325.983947 C310.325774,325.357804 309.449339,325.044737 308.361333,325.044737 C307.30355,325.044737 306.423337,325.361576 305.720667,325.995263 C305.017996,326.628951 304.598667,327.481398 304.462667,328.552632 L312.078667,328.552632 Z"/>
    <circle cx="341" cy="71" r="71" fill="url(#d)"/>
    <path fill="#FFFFFF" d="M372.687333,55.16737 L372.687333,55.16737 C371.590347,54.7960714 370.484024,54.4568603 369.373034,54.1405689 C369.559755,53.4025557 369.727804,52.6645425 369.886517,51.9219453 C372.397915,39.95788 370.75477,30.3178687 365.153138,27.145787 C359.78024,24.1020554 350.990347,27.2741371 342.116429,34.8605464 C341.243508,35.6077275 340.384591,36.3824122 339.553682,37.1708487 C338.993519,36.6436964 338.42402,36.1302958 337.845185,35.6214793 C328.541808,27.5125016 319.21976,24.0928876 313.622796,27.2741371 C308.254566,30.3270366 306.662769,39.3848883 308.922094,50.7255388 C309.146159,51.8486024 309.402901,52.9670821 309.682982,54.0763939 C308.361931,54.4431085 307.087559,54.8373268 305.869205,55.2544647 C294.960027,58.9903702 288,64.8440527 288,70.9131801 C288,77.1840006 295.47351,83.4685728 306.835486,87.2824052 C307.755087,87.5895287 308.684024,87.8737325 309.622298,88.1396007 C309.318876,89.3360072 309.048131,90.5415816 308.814729,91.7517399 C306.658101,102.895281 308.343259,111.737688 313.697485,114.772252 C319.229096,117.903078 328.509132,114.685157 337.546431,106.929142 C338.260639,106.314895 338.979515,105.663977 339.693723,104.985555 C340.59932,105.84275 341.528257,106.672442 342.475867,107.479214 C351.228416,114.877682 359.873601,117.861823 365.223159,114.822675 C370.750102,111.682681 372.542624,102.180188 370.213279,90.6149245 C370.035894,89.7302254 369.825833,88.8317745 369.597099,87.910404 C370.250623,87.7224627 370.890143,87.5253536 371.51099,87.3236606 C383.321097,83.4823246 391,77.2710953 391,70.917764 C391,64.821133 383.81124,58.930779 372.687333,55.16737 Z M345.001269,38.1197228 C352.605484,31.6197057 359.714888,29.0572871 362.94983,30.8908603 C366.399501,32.8436158 367.739225,40.7233968 365.573261,51.050998 C365.43322,51.7248362 365.274507,52.3940904 365.111126,53.0633447 C360.839882,52.0961348 356.199864,51.3764573 351.340449,50.9272319 C348.511625,46.9712976 345.575436,43.3729101 342.63458,40.2558356 C343.400136,39.5224063 344.1937,38.8118967 345.001269,38.1197228 Z M318.412191,76.0976084 C319.345797,77.8624227 320.316746,79.6089012 321.334376,81.33246 C322.370678,83.0881064 323.448992,84.8208331 324.569318,86.5260562 C321.194335,86.1547576 318.015409,85.6551089 315.074552,85.0271101 C315.98015,82.1392322 317.100476,79.1459239 318.412191,76.0976084 Z M318.402855,65.9350288 C317.123816,62.9508883 316.02683,60.0171712 315.130569,57.1843005 C318.071425,56.5379659 321.203671,56.0108136 324.466621,55.6120115 C323.374303,57.285147 322.319329,58.9857862 321.311036,60.7093451 C320.302742,62.423736 319.331792,64.1702145 318.402855,65.9350288 Z M320.746204,71.0140266 C322.099932,68.2407471 323.561024,65.5224748 325.129481,62.8592097 L325.129481,62.8592097 C326.69327,60.1959446 328.359755,57.5922706 330.124269,55.0527716 C333.186494,54.823575 336.328076,54.7043927 339.502334,54.7043927 C342.690596,54.7043927 345.836846,54.823575 348.899071,55.0527716 C350.644913,57.5876866 352.302062,60.1821928 353.861183,62.8317061 C355.42964,65.4903873 356.909404,68.1949078 358.300476,70.9452676 C356.923408,73.7231311 355.448312,76.4551552 353.875187,79.1321721 L353.875187,79.1321721 C352.316066,81.7954373 350.668253,84.4036952 348.931747,86.9615298 C345.87419,87.1769747 342.718604,87.2869891 339.497666,87.2869891 C336.290732,87.2869891 333.17249,87.1907265 330.170949,86.9982013 C328.392431,84.4495345 326.711942,81.8321087 325.138817,79.1550918 C323.57036,76.5055785 322.1046,73.7873062 320.746204,71.0140266 Z M357.684296,81.3003725 C358.720598,79.5355582 359.714888,77.7478243 360.671833,75.9417547 L360.671833,75.9417547 C362.048901,79.0221577 363.21124,82.0062982 364.130841,84.8391688 C361.143304,85.5084231 357.917698,86.0493272 354.524043,86.4481293 C355.611693,84.7520741 356.661999,83.0376831 357.684296,81.3003725 Z M360.629821,65.9350288 C359.677544,64.1610467 358.687922,62.4054003 357.665624,60.6726736 L357.665624,60.6726736 C356.657331,58.9628666 355.616361,57.2759792 354.533379,55.6165954 C357.819669,56.0245654 360.970587,56.5654695 363.925448,57.2301398 C363.038523,60.0217551 361.9322,62.9417205 360.629821,65.9350288 Z M339.549014,43.3454065 C341.579606,45.504439 343.610197,47.9155878 345.608112,50.5330136 C341.551598,50.3450723 337.490415,50.3450723 333.4339,50.5284297 C335.436483,47.9339235 337.485747,45.5273587 339.549014,43.3454065 Z M315.821437,31.0192105 C319.26644,29.061871 326.889327,31.8534863 334.918332,38.857736 C335.431815,39.3069615 335.945298,39.7745226 336.463449,40.2604196 C333.471244,43.4141655 330.516383,47.0079691 327.687559,50.9226479 C322.842148,51.3627055 318.206798,52.0732151 313.94489,53.0220893 C313.683481,51.9907043 313.445411,50.9501515 313.23535,49.9050148 L313.23535,49.9050148 C311.298119,40.1870766 312.586494,32.8573676 315.821437,31.0192105 Z M310.79864,83.9728055 C309.944392,83.734441 309.094811,83.4731568 308.254566,83.1889529 C303.23177,81.5020655 299.086562,79.3109455 296.239066,76.9227164 C293.685656,74.7728518 292.392613,72.6413229 292.392613,70.9085962 C292.392613,67.2276979 297.984908,62.5291665 307.311625,59.3341651 C308.483299,58.935363 309.66431,58.5686483 310.854657,58.2386051 C312.143032,62.354977 313.832857,66.6592902 315.872785,71.0140266 C313.814185,75.4329381 312.10102,79.8060103 310.79864,83.9728055 Z M334.642919,103.665382 C330.647088,107.094164 326.641922,109.528232 323.112894,110.752143 L323.112894,110.752143 C319.943304,111.852287 317.417902,111.884374 315.891457,111.018011 C312.642511,109.179854 311.293451,102.074757 313.132654,92.5447603 C313.352051,91.4171128 313.604124,90.2986331 313.884206,89.1847374 C318.104102,90.101524 322.772128,90.7616104 327.766916,91.1558286 C330.614412,95.0934271 333.601949,98.7147343 336.608158,101.882232 C335.968638,102.501063 335.310446,103.09239 334.642919,103.665382 Z M339.670383,98.7834933 C337.583775,96.5740375 335.506504,94.1308012 333.471244,91.4996236 C335.441151,91.5775505 337.45307,91.6142219 339.497666,91.6142219 C341.598278,91.6142219 343.670881,91.5683826 345.715477,91.4767039 C343.708226,94.1583048 341.682302,96.6061251 339.670383,98.7834933 Z M366.390165,104.797613 C365.778654,108.043038 364.541627,110.211238 363.01985,111.077602 C359.775572,112.924927 352.829549,110.522946 345.346703,104.197118 C344.487786,103.472857 343.624201,102.698172 342.755948,101.877648 C345.659461,98.7605736 348.558305,95.1346825 351.391797,91.1099893 C356.372581,90.6745156 361.077952,89.96859 365.33986,88.9967961 C365.549921,89.831072 365.736642,90.6470121 365.895355,91.4446164 L365.895355,91.4446164 C366.92232,96.5602857 367.071697,101.18089 366.390165,104.797613 Z M370.124586,83.2164565 C369.559755,83.3998138 368.98092,83.5785872 368.392749,83.7481928 C367.090369,79.6959959 365.330523,75.3870988 363.178563,70.9360998 C365.232495,66.5905312 366.92232,62.3366413 368.192024,58.3073641 C369.246998,58.6053198 370.269295,58.9216112 371.254249,59.2562383 C380.786358,62.4787432 386.598051,67.2414497 386.598051,70.9131801 C386.598051,74.823275 380.319556,79.897689 370.124586,83.2164565 Z M340,61 C344.970558,61 349,65.0294416 349,70 C349,74.9705584 344.970558,79 340,79 C335.029442,79 331,74.9705584 331,70 C331,65.0294416 335.029442,61 340,61 Z"/>
  </g>
</svg>
