<svg xmlns="http://www.w3.org/2000/svg" xmlns:xlink="http://www.w3.org/1999/xlink" width="334" height="338" viewBox="0 0 334 338">
    <defs>
        <rect id="b" width="254" height="250" y="38" rx="38"/>
        <filter id="a" width="151.2%" height="152%" x="-25.6%" y="-22%" filterUnits="objectBoundingBox">
            <feOffset dy="10" in="SourceAlpha" result="shadowOffsetOuter1"/>
            <feGaussianBlur in="shadowOffsetOuter1" result="shadowBlurOuter1" stdDeviation="20"/>
            <feColorMatrix in="shadowBlurOuter1" values="0 0 0 0 0.440703533 0 0 0 0 0.503310129 0 0 0 0 0.68486926 0 0 0 0.384454257 0"/>
        </filter>
        <filter id="c" width="135.4%" height="136%" x="-17.7%" y="-14%" filterUnits="objectBoundingBox">
            <feOffset dy="-10" in="SourceAlpha" result="shadowOffsetInner1"/>
            <feComposite in="shadowOffsetInner1" in2="SourceAlpha" k2="-1" k3="1" operator="arithmetic" result="shadowInnerInner1"/>
            <feColorMatrix in="shadowInnerInner1" values="0 0 0 0 0.403921569 0 0 0 0 0.458823529 0 0 0 0 0.631372549 0 0 0 0.06 0"/>
        </filter>
        <linearGradient id="d" x1="21.895%" x2="77.978%" y1="121.561%" y2="8.499%">
            <stop offset="0%" stop-color="#201C38"/>
            <stop offset="100%" stop-color="#3E396B"/>
        </linearGradient>
    </defs>
    <g fill="none" fill-rule="evenodd" transform="translate(40)">
        <use fill="#000" filter="url(#a)" xlink:href="#b"/>
        <use fill="#FFF" xlink:href="#b"/>
        <use fill="#000" filter="url(#c)" xlink:href="#b"/>
        <circle cx="254" cy="37" r="35" fill="#3E396B"/>
        <path fill="#FFD141" d="M254.5 75c20.71 0 37.5-16.79 37.5-37.5S275.21 0 254.5 0 217 16.79 217 37.5 233.79 75 254.5 75zm24.94-23.336c-.435-2.71-2.204-4.988-7.444-7.114-1.819-.836-3.848-1.436-4.452-2.814-.215-.803-.244-1.253-.108-1.74.39-1.578 2.272-2.069 3.764-1.619.96.322 1.871 1.063 2.419 2.245 2.566-1.66 2.56-1.65 4.352-2.792-.656-1.018-1.007-1.487-1.436-1.922-1.543-1.725-3.645-2.611-7.007-2.544-.583.075-1.17.152-1.753.225-1.678.426-3.279 1.307-4.216 2.488-2.814 3.193-2.011 8.783 1.414 11.083 3.373 2.532 8.33 3.107 8.963 5.475.616 2.9-2.132 3.838-4.861 3.504-2.011-.418-3.131-1.44-4.34-3.3-2.228 1.288-2.228 1.288-4.516 2.605.542 1.187 1.115 1.725 2.023 2.754 4.307 4.367 15.086 4.153 17.017-2.46.079-.224.6-1.74.182-4.075l-.001.001zm-22.267-17.946h-5.56c0 4.803-.022 9.572-.022 14.376 0 3.057.156 5.861-.34 6.718-.815 1.693-2.922 1.482-3.883 1.155-.978-.482-1.475-1.164-2.051-2.132-.16-.275-.279-.49-.318-.508-1.509.922-3.011 1.848-4.522 2.77.752 1.543 1.86 2.882 3.279 3.752 2.119 1.27 4.967 1.66 7.945.977 1.938-.566 3.611-1.736 4.487-3.514 1.266-2.336.994-5.161.983-8.287.028-5.097 0-10.194 0-15.31l.002.003z"/>
        <g>
            <g fill-rule="nonzero">
                <path fill="#FFD141" d="M126.4 125.4c2 0 3.9-.4 5.8-1l3.2 5.5 2.2 3.8c.6 1.1 1.7 1.7 2.9 1.7.6 0 1.1-.1 1.7-.4 1.6-.9 2.1-3 1.2-4.6l-2.2-3.8-3.2-5.6c3.7-3.2 6.1-8 6.1-13.3 0-9.7-7.9-17.6-17.6-17.6-9.7 0-17.7 7.9-17.7 17.7 0 9.8 7.9 17.6 17.6 17.6zm0-28.6c6 0 10.9 4.9 10.9 10.9s-4.9 10.9-10.9 10.9-10.9-4.9-10.9-10.9 4.9-10.9 10.9-10.9z"/>
                <path fill="url(#d)" d="M69.3 44.8c-8.6 0-15.7 6.2-17.3 14.3H41.3c-1.8 0-3.3 1.5-3.3 3.3 0 1.8 1.5 3.3 3.3 3.3H52C53.6 73.8 60.7 80 69.3 80c9.7 0 17.6-7.9 17.6-17.6 0-9.7-7.9-17.6-17.6-17.6zm0 28.6c-6 0-10.9-4.9-10.9-10.9s4.9-10.9 10.9-10.9 10.9 4.9 10.9 10.9-4.9 10.9-10.9 10.9zM29.2 49.2c3.7 3.2 6.1 7.9 6 13.3 0 9.7-7.9 17.6-17.6 17.6C7.9 80.1 0 72.3 0 62.5s7.9-17.7 17.6-17.7c2.1 0 4 .4 5.8 1l3.2-5.5 2.2-3.8c1-1.6 3-2.1 4.6-1.2 1.6 1 2.1 3 1.2 4.6l-2.2 3.8-3.2 5.5zM17.6 73.4c6.1 0 11-4.9 10.9-10.9 0-6-4.9-10.9-10.9-10.9S6.7 56.5 6.7 62.5s4.9 10.9 10.9 10.9z" transform="translate(83 90)"/>
            </g>
            <text fill="#3E396B" font-family="Montserrat-SemiBold, Montserrat" font-size="24" font-weight="500" transform="translate(41 90)">
                <tspan x=".492" y="124">InstantSearch</tspan>
            </text>
            <text fill="#8995C7" font-family="Montserrat-Regular, Montserrat" font-size="16" transform="translate(41 90)">
                <tspan x="32.576" y="148">for JavaScript</tspan>
            </text>
        </g>
    </g>
</svg>
