<svg xmlns="http://www.w3.org/2000/svg" width="247" height="51" viewBox="0 0 247 51">
  <defs>
    <linearGradient id="a" x1="100%" x2="0%" y1=".062%" y2="0%">
      <stop stop-color="#A4A9B3" offset="0%"/>
      <stop stop-color="#22283B" offset="100%"/>
    </linearGradient>
    <linearGradient id="b" x1="21.895%" x2="77.978%" y1="121.561%" y2="8.499%">
      <stop stop-color="#201C38" offset="0%"/>
      <stop stop-color="#3E396B" offset="100%"/>
    </linearGradient>
  </defs>
  <g fill="none" fill-rule="evenodd" transform="translate(0 -2)">
    <g fill-rule="nonzero" transform="translate(0 2)">
      <path fill="url(#a)" d="M27.4367816,22.2888889 C28.7011494,22.2888889 29.9022989,22.037037 31.1034483,21.6592593 L33.1264368,25.1222222 L34.5172414,27.5148148 C34.8965517,28.2074074 35.591954,28.5851852 36.3505747,28.5851852 C36.7298851,28.5851852 37.045977,28.5222222 37.4252874,28.3333333 C38.4367816,27.7666667 38.7528736,26.4444444 38.183908,25.437037 L36.7931034,23.0444444 L34.7701149,19.5185185 C37.1091954,17.5037037 38.6264368,14.4814815 38.6264368,11.1444444 C38.6264368,5.03703704 33.6321839,0.062962963 27.5,0.062962963 C21.3678161,0.062962963 16.3103448,5.03703704 16.3103448,11.2074074 C16.3103448,17.3777778 21.3045977,22.2888889 27.4367816,22.2888889 Z M27.4367816,4.28148148 C31.2298851,4.28148148 34.3275862,7.36666667 34.3275862,11.1444444 C34.3275862,14.9222222 31.2298851,18.0074074 27.4367816,18.0074074 C23.6436782,18.0074074 20.545977,14.9222222 20.545977,11.1444444 C20.545977,7.36666667 23.6436782,4.28148148 27.4367816,4.28148148 Z"/>
      <path fill="url(#b)" d="M43.8103448,28.2074074 C38.3735632,28.2074074 33.8850575,32.1111111 32.8735632,37.2111111 L28.8908046,37.2111111 L26.1091954,37.2111111 C24.9712644,37.2111111 24.0229885,38.1555556 24.0229885,39.2888889 C24.0229885,40.4222222 24.9712644,41.3666667 26.1091954,41.3666667 L28.8908046,41.3666667 L32.8735632,41.3666667 C33.8850575,46.4666667 38.3735632,50.3703704 43.8103448,50.3703704 C49.9425287,50.3703704 54.9367816,45.3962963 54.9367816,39.2888889 C54.9367816,33.1814815 49.9425287,28.2074074 43.8103448,28.2074074 Z M43.8103448,46.2148148 C40.0172414,46.2148148 36.9195402,43.1296296 36.9195402,39.3518519 C36.9195402,35.5740741 40.0172414,32.4888889 43.8103448,32.4888889 C47.6034483,32.4888889 50.7011494,35.5740741 50.7011494,39.3518519 C50.7011494,43.1296296 47.6034483,46.2148148 43.8103448,46.2148148 Z M18.4597701,30.9777778 C20.7988506,32.9925926 22.316092,35.9518519 22.2528736,39.3518519 C22.2528736,45.4592593 17.2586207,50.4333333 11.1264368,50.4333333 C4.99425287,50.4333333 0,45.5222222 0,39.3518519 C0,33.1814815 4.99425287,28.2074074 11.1264368,28.2074074 C12.454023,28.2074074 13.6551724,28.4592593 14.7931034,28.837037 L16.816092,25.3740741 L18.2068966,22.9814815 C18.8390805,21.9740741 20.1034483,21.6592593 21.1149425,22.2259259 C22.1264368,22.8555556 22.4425287,24.1148148 21.8735632,25.1222222 L20.4827586,27.5148148 L18.4597701,30.9777778 Z M11.1264368,46.2148148 C14.9827586,46.2148148 18.0804598,43.1296296 18.0172414,39.3518519 C18.0172414,35.5740741 14.9195402,32.4888889 11.1264368,32.4888889 C7.33333333,32.4888889 4.23563218,35.5740741 4.23563218,39.3518519 C4.23563218,43.1296296 7.33333333,46.2148148 11.1264368,46.2148148 Z"/>
    </g>
    <text fill="#3E396B" font-family="Montserrat-SemiBold, Montserrat" font-size="24" font-weight="500">
      <tspan x="78" y="23">InstantSearch</tspan>
    </text>
    <path fill="#8994C6" d="M81.616,36.712 C81.3599987,36.9466678 81.232,37.2826645 81.232,37.72 L81.232,38.824 L83.568,38.824 L83.568,39.96 L81.232,39.96 L81.232,47 L79.744,47 L79.744,39.96 L78.64,39.96 L78.64,38.824 L79.744,38.824 L79.744,37.912 C79.744,37.2933302 79.8746654,36.7680022 80.136,36.336 C80.3973346,35.9039978 80.7413312,35.5786678 81.168,35.36 C81.5946688,35.1413322 82.0533309,35.032 82.544,35.032 C83.0133357,35.032 83.5039974,35.1599987 84.016,35.416 L83.664,36.632 C83.2799981,36.4506658 82.917335,36.36 82.576,36.36 C82.1919981,36.36 81.8720013,36.4773322 81.616,36.712 Z M90.696,39.032 C91.3520033,39.3946685 91.8639982,39.8986634 92.232,40.544 C92.6000018,41.1893366 92.784,41.9279958 92.784,42.76 C92.784,43.5920042 92.6000018,44.3333301 92.232,44.984 C91.8639982,45.6346699 91.3520033,46.1413315 90.696,46.504 C90.0399967,46.8666685 89.2906709,47.048 88.448,47.048 C87.5946624,47.048 86.8400033,46.8666685 86.184,46.504 C85.5279967,46.1413315 85.0160018,45.6373366 84.648,44.992 C84.2799982,44.3466634 84.096,43.6026709 84.096,42.76 C84.096,41.9279958 84.2799982,41.1893366 84.648,40.544 C85.0160018,39.8986634 85.5279967,39.3946685 86.184,39.032 C86.8400033,38.6693315 87.5946624,38.488 88.448,38.488 C89.2906709,38.488 90.0399967,38.6693315 90.696,39.032 Z M86.968,40.168 C86.5359978,40.4240013 86.2000012,40.7786644 85.96,41.232 C85.7199988,41.6853356 85.6,42.1999971 85.6,42.776 C85.6,43.3626696 85.7199988,43.885331 85.96,44.344 C86.2000012,44.802669 86.5359978,45.1573321 86.968,45.408 C87.4000022,45.6586679 87.8933306,45.784 88.448,45.784 C88.9920027,45.784 89.4799978,45.6586679 89.912,45.408 C90.3440022,45.1573321 90.6799988,44.802669 90.92,44.344 C91.1600012,43.885331 91.28,43.3626696 91.28,42.776 C91.28,42.1999971 91.1600012,41.6853356 90.92,41.232 C90.6799988,40.7786644 90.3440022,40.4240013 89.912,40.168 C89.4799978,39.9119987 88.9920027,39.784 88.448,39.784 C87.8933306,39.784 87.4000022,39.9119987 86.968,40.168 Z M97.536,38.976 C98.0480026,38.6613318 98.6559965,38.4986667 99.36,38.488 L99.36,39.928 C98.4959957,39.8959998 97.797336,40.1199976 97.264,40.6 C96.730664,41.0800024 96.426667,41.7253293 96.352,42.536 L96.352,47 L94.864,47 L94.864,38.536 L96.352,38.536 L96.352,40.36 C96.6293347,39.751997 97.0239974,39.2906682 97.536,38.976 Z M105.168,38.536 L106.656,38.536 L106.656,47 L105.168,47 L105.168,38.536 Z M106.568,35.432 C106.744001,35.6133342 106.832,35.8426653 106.832,36.12 C106.832,36.3973347 106.744001,36.6266658 106.568,36.808 C106.391999,36.9893342 106.170668,37.08 105.904,37.08 C105.637332,37.08 105.416001,36.9893342 105.24,36.808 C105.063999,36.6266658 104.976,36.3973347 104.976,36.12 C104.976,35.8426653 105.063999,35.6133342 105.24,35.432 C105.416001,35.2506658 105.637332,35.16 105.904,35.16 C106.170668,35.16 106.391999,35.2506658 106.568,35.432 Z M117.56,36.456 C118.461338,36.9573358 119.173331,37.6426623 119.696,38.512 C120.218669,39.3813377 120.48,40.3386614 120.48,41.384 C120.48,42.4293386 120.218669,43.3919956 119.696,44.272 C119.173331,45.1520044 118.461338,45.8453308 117.56,46.352 C116.658662,46.8586692 115.669339,47.112 114.592,47.112 C113.514661,47.112 112.525338,46.8586692 111.624,46.352 C110.722662,45.8453308 110.010669,45.1520044 109.488,44.272 C108.965331,43.3919956 108.704,42.4293386 108.704,41.384 C108.704,40.3386614 108.965331,39.3813377 109.488,38.512 C110.010669,37.6426623 110.719996,36.9573358 111.616,36.456 C112.512004,35.9546642 113.503995,35.704 114.592,35.704 C115.669339,35.704 116.658662,35.9546642 117.56,36.456 Z M112.44,37.656 C111.77333,38.0400019 111.242669,38.5599967 110.848,39.216 C110.453331,39.8720033 110.256,40.5946627 110.256,41.384 C110.256,42.1733373 110.453331,42.8986634 110.848,43.56 C111.242669,44.2213366 111.77333,44.7466647 112.44,45.136 C113.10667,45.5253353 113.829329,45.72 114.608,45.72 C115.386671,45.72 116.103997,45.5253353 116.76,45.136 C117.416003,44.7466647 117.938665,44.2213366 118.328,43.56 C118.717335,42.8986634 118.912,42.1733373 118.912,41.384 C118.912,40.5946627 118.717335,39.8720033 118.328,39.216 C117.938665,38.5599967 117.416003,38.0400019 116.76,37.656 C116.103997,37.2719981 115.386671,37.08 114.608,37.08 C113.829329,37.08 113.10667,37.2719981 112.44,37.656 Z M126.008,39.896 C125.586665,39.7679994 125.184002,39.704 124.8,39.704 C124.351998,39.704 123.992001,39.7866658 123.72,39.952 C123.447999,40.1173342 123.312,40.370665 123.312,40.712 C123.312,41.053335 123.463998,41.3119991 123.768,41.488 C124.072002,41.6640009 124.53333,41.8426658 125.152,42.024 C125.73867,42.1946675 126.218665,42.3653325 126.592,42.536 C126.965335,42.7066675 127.282665,42.9573317 127.544,43.288 C127.805335,43.6186683 127.936,44.0559973 127.936,44.6 C127.936,45.400004 127.63467,46.0079979 127.032,46.424 C126.42933,46.8400021 125.680004,47.048 124.784,47.048 C124.154664,47.048 123.544003,46.9466677 122.952,46.744 C122.359997,46.5413323 121.861335,46.2533352 121.456,45.88 L122.016,44.792 C122.368002,45.1120016 122.802664,45.367999 123.32,45.56 C123.837336,45.752001 124.341331,45.848 124.832,45.848 C125.322669,45.848 125.717332,45.7573342 126.016,45.576 C126.314668,45.3946658 126.464,45.1173352 126.464,44.744 C126.464,44.3599981 126.306668,44.072001 125.992,43.88 C125.677332,43.687999 125.200003,43.496001 124.56,43.304 C123.994664,43.1439992 123.533335,42.9813342 123.176,42.816 C122.818665,42.6506658 122.514668,42.4080016 122.264,42.088 C122.013332,41.7679984 121.888,41.3520026 121.888,40.84 C121.888,40.0506627 122.175997,39.4586686 122.752,39.064 C123.328003,38.6693314 124.047996,38.472 124.912,38.472 C125.424003,38.472 125.927998,38.5439993 126.424,38.688 C126.920002,38.8320007 127.349332,39.0266654 127.712,39.272 L127.168,40.408 C126.815998,40.1946656 126.429335,40.0240006 126.008,39.896 Z"/>
  </g>
</svg>
