<svg width="100" height="67" viewBox="0 0 100 67" xmlns="http://www.w3.org/2000/svg"><title>Combined Shape</title><path d="M86.207 37.3H4.06a4.062 4.062 0 0 1 0-8.122h82.345l-3.823-3.823a4.066 4.066 0 0 1-.003-5.747 4.058 4.058 0 0 1 5.746.003L98.553 29.84c.403.404.704.87.902 1.37.347.598.545 1.292.545 2.03 0 1.012-.37 1.937-.98 2.647a4.224 4.224 0 0 1-.467.558L88.326 46.67a4.057 4.057 0 0 1-5.747.003 4.066 4.066 0 0 1 .002-5.747l3.625-3.625zM0 4.06A4.06 4.06 0 0 1 4.066 0h50.35a4.06 4.06 0 1 1 0 8.123H4.066A4.067 4.067 0 0 1 0 4.06zm0 14.59a4.058 4.058 0 0 1 4.066-4.06h50.35a4.06 4.06 0 1 1 0 8.122H4.066A4.066 4.066 0 0 1 0 18.65zm0 29.178a4.058 4.058 0 0 1 4.066-4.06h50.35a4.06 4.06 0 1 1 0 8.122H4.066A4.067 4.067 0 0 1 0 47.828zm0 14.59a4.06 4.06 0 0 1 4.066-4.062h50.35a4.06 4.06 0 1 1 0 8.122H4.066A4.065 4.065 0 0 1 0 62.418z" fill="#FFF" fill-rule="evenodd"/></svg>