<?xml version="1.0" encoding="UTF-8"?>
<svg width="576px" height="398px" viewBox="0 0 576 398" version="1.1" xmlns="http://www.w3.org/2000/svg" xmlns:xlink="http://www.w3.org/1999/xlink">
    <!-- Generator: Sketch 44.1 (41455) - http://www.bohemiancoding.com/sketch -->
    <title>phone-build-3D</title>
    <desc>Created with Sketch.</desc>
    <defs>
        <path d="M535.964104,217.745477 C536.175181,211.624235 531.848096,205.186377 523.193927,200.120522 L189.902866,7.7235609 C174.388684,-1.2472245 150.959104,-2.1970724 137.555695,5.5072492 L9.4317722,79.595382 C3.2049918,83.183697 0.2499095,88.038475 0.3554482,93.10433 L0.3554482,93.948639 L0.3554482,94.792948 L0.3554482,95.637257 L0.3554482,96.481567 L0.3554482,97.325876 L0.3554482,98.170185 L0.3554482,99.014494 L0.3554482,99.858803 L0.3554482,100.703113 L0.3554482,101.547422 L0.3554482,102.391731 L0.3554482,103.23604 L0.3554482,104.08035 L0.3554482,104.924659 L0.3554482,105.768968 L0.3554482,106.613277 L0.3554482,107.457586 L0.3554482,108.301896 L0.3554482,109.146205 L0.3554482,109.990514 L0.3554482,110.834823 L0.3554482,111.679132 L0.3554482,112.523442 L0.3554482,113.367751 L0.3554482,114.21206 L0.3554482,115.056369 L0.3554482,115.900678 L0.3554482,116.744988 L0.3554482,117.589297 C0.1443709,123.710539 4.4714556,130.148396 13.125625,135.214252 L346.311147,327.611213 C361.825329,336.581998 385.25491,337.531846 398.658318,329.827525 L526.782241,255.84493 C533.009021,252.256616 535.964104,247.401838 535.858565,242.335983 L535.858565,241.491674 L535.858565,240.647364 L535.858565,239.803055 L535.858565,238.958746 L535.858565,238.114437 L535.858565,237.270127 L535.858565,236.425818 L535.858565,235.581509 L535.858565,234.7372 L535.858565,233.892891 L535.858565,233.048581 L535.858565,232.204272 L535.858565,231.359963 L535.858565,230.515654 L535.858565,229.671345 L535.858565,228.827035 L535.858565,227.982726 L535.858565,227.138417 L535.858565,226.294108 L535.858565,225.449799 L535.858565,224.605489 L535.858565,223.76118 L535.858565,222.916871 L535.858565,222.072562 L535.858565,221.228252 L535.858565,220.383943 L535.858565,219.539634 L535.858565,218.695325 C535.964104,218.27317 535.964104,218.062093 535.964104,217.745477 Z" id="path-1"></path>
        <filter x="-5.8%" y="-8.7%" width="111.6%" height="118.5%" filterUnits="objectBoundingBox" id="filter-2">
            <feOffset dx="0" dy="2" in="SourceAlpha" result="shadowOffsetOuter1"></feOffset>
            <feGaussianBlur stdDeviation="10" in="shadowOffsetOuter1" result="shadowBlurOuter1"></feGaussianBlur>
            <feColorMatrix values="0 0 0 0 0.243137255   0 0 0 0 0.223529412   0 0 0 0 0.419607843  0 0 0 0.14954144 0" type="matrix" in="shadowBlurOuter1"></feColorMatrix>
        </filter>
        <linearGradient x1="43.9807252%" y1="67.9867945%" x2="56.0030751%" y2="31.9641844%" id="linearGradient-3">
            <stop stop-color="#2CDD97" offset="0%"></stop>
            <stop stop-color="#1DC5CE" offset="100%"></stop>
        </linearGradient>
        <linearGradient x1="0.0025727599%" y1="49.9795371%" x2="100.009151%" y2="49.9795371%" id="linearGradient-4">
            <stop stop-color="#201C38" offset="0%"></stop>
            <stop stop-color="#3E396B" offset="100%"></stop>
        </linearGradient>
        <linearGradient x1="100%" y1="3.68442194%" x2="0%" y2="96.3155781%" id="linearGradient-5">
            <stop stop-color="#2CDD97" offset="0%"></stop>
            <stop stop-color="#1DC5CE" offset="100%"></stop>
        </linearGradient>
        <linearGradient x1="-9.67306386%" y1="132.182617%" x2="134.0107%" y2="-16.1181641%" id="linearGradient-6">
            <stop stop-color="#00AEFF" offset="0%"></stop>
            <stop stop-color="#3369E7" offset="100%"></stop>
        </linearGradient>
        <linearGradient x1="81.7058355%" y1="0%" x2="18.2941645%" y2="100%" id="linearGradient-7">
            <stop stop-color="#2CDD97" offset="0%"></stop>
            <stop stop-color="#1DC5CE" offset="100%"></stop>
        </linearGradient>
        <linearGradient x1="72.9781659%" y1="0%" x2="27.0218341%" y2="100%" id="linearGradient-8">
            <stop stop-color="#2CDD97" offset="0%"></stop>
            <stop stop-color="#1DC5CE" offset="100%"></stop>
        </linearGradient>
    </defs>
    <g id="Page-1" stroke="none" stroke-width="1" fill="none" fill-rule="evenodd">
        <g id="phone-build-3D" transform="translate(20.000000, 0.000000)">
            <g id="Shape" transform="translate(0.000000, 41.000000)">
                <g id="path-1-link" fill-rule="nonzero" fill="#000000">
                    <path d="M535.964104,217.745477 C536.175181,211.624235 531.848096,205.186377 523.193927,200.120522 L189.902866,7.7235609 C174.388684,-1.2472245 150.959104,-2.1970724 137.555695,5.5072492 L9.4317722,79.595382 C3.2049918,83.183697 0.2499095,88.038475 0.3554482,93.10433 L0.3554482,93.948639 L0.3554482,94.792948 L0.3554482,95.637257 L0.3554482,96.481567 L0.3554482,97.325876 L0.3554482,98.170185 L0.3554482,99.014494 L0.3554482,99.858803 L0.3554482,100.703113 L0.3554482,101.547422 L0.3554482,102.391731 L0.3554482,103.23604 L0.3554482,104.08035 L0.3554482,104.924659 L0.3554482,105.768968 L0.3554482,106.613277 L0.3554482,107.457586 L0.3554482,108.301896 L0.3554482,109.146205 L0.3554482,109.990514 L0.3554482,110.834823 L0.3554482,111.679132 L0.3554482,112.523442 L0.3554482,113.367751 L0.3554482,114.21206 L0.3554482,115.056369 L0.3554482,115.900678 L0.3554482,116.744988 L0.3554482,117.589297 C0.1443709,123.710539 4.4714556,130.148396 13.125625,135.214252 L346.311147,327.611213 C361.825329,336.581998 385.25491,337.531846 398.658318,329.827525 L526.782241,255.84493 C533.009021,252.256616 535.964104,247.401838 535.858565,242.335983 L535.858565,241.491674 L535.858565,240.647364 L535.858565,239.803055 L535.858565,238.958746 L535.858565,238.114437 L535.858565,237.270127 L535.858565,236.425818 L535.858565,235.581509 L535.858565,234.7372 L535.858565,233.892891 L535.858565,233.048581 L535.858565,232.204272 L535.858565,231.359963 L535.858565,230.515654 L535.858565,229.671345 L535.858565,228.827035 L535.858565,227.982726 L535.858565,227.138417 L535.858565,226.294108 L535.858565,225.449799 L535.858565,224.605489 L535.858565,223.76118 L535.858565,222.916871 L535.858565,222.072562 L535.858565,221.228252 L535.858565,220.383943 L535.858565,219.539634 L535.858565,218.695325 C535.964104,218.27317 535.964104,218.062093 535.964104,217.745477 Z" id="path-1"></path>
                </g>
                <g id="path-1-link">
                    <g id="path-1">
                        <use fill="black" fill-opacity="1" filter="url(#filter-2)" xlink:href="#path-1"></use>
                        <use fill="#F6F7FB" fill-rule="evenodd" xlink:href="#path-1"></use>
                    </g>
                </g>
            </g>
            <path d="M9.4317722,120.595382 L137.555695,46.6127878 C150.959104,38.9084663 174.388684,39.8583141 189.902866,48.8290995 L523.088388,241.226061 C538.60257,250.196846 540.291188,263.705794 526.88778,271.410115 L398.763857,345.287171 C385.360448,352.991493 361.930868,352.041645 346.416686,343.070859 L13.2311637,150.779437 C-2.2830181,141.808651 -3.9716365,128.299704 9.4317722,120.595382 Z" id="b_3_" fill="#FFFFFF" fill-rule="nonzero"></path>
            <path d="M41.1989062,154.262212 L196.551801,64.5543586 C198.134881,63.6045107 200.984424,63.7100493 202.88412,64.7654359 L485.938783,228.244807 C487.838479,229.300193 488.049556,230.988812 486.360937,231.93866 L331.008043,321.646513 C329.424963,322.596361 326.575419,322.490822 324.675724,321.435436 L41.7265995,157.850526 C39.8269038,156.79514 39.6158265,155.106521 41.1989062,154.262212 Z" id="Shape" fill="url(#linearGradient-3)" fill-rule="nonzero"></path>
            <path d="M41.1989062,154.262212 L196.551801,64.5543586 C198.134881,63.6045107 200.984424,63.7100493 202.88412,64.7654359 L485.938783,228.244807 C487.838479,229.300193 488.049556,230.988812 486.360937,231.93866 L331.008043,321.646513 C329.424963,322.596361 326.575419,322.490822 324.675724,321.435436 L41.7265995,157.850526 C39.8269038,156.79514 39.6158265,155.106521 41.1989062,154.262212 Z" id="Shape" fill="url(#linearGradient-4)" fill-rule="nonzero"></path>
            <path d="M76.8709704,107.191974 L118.136583,83.340238 C118.769815,83.023623 119.825201,83.023623 120.563972,83.445777 L120.563972,83.445777 C121.302743,83.867932 121.302743,84.501164 120.775049,84.81778 L79.509437,108.669515 C78.8762048,108.986131 77.8208183,108.986131 77.0820477,108.563976 L77.0820477,108.563976 C76.3432771,108.141822 76.2377385,107.50859 76.8709704,107.191974 Z" id="Shape" fill="#E8EAEE" fill-rule="nonzero"></path>
            <path d="M65.6838734,112.679984 L65.6838734,112.679984 C66.7392599,112.046752 68.4278783,112.15229 69.6943421,112.891061 L69.6943421,112.891061 C70.8552673,113.524293 70.9608059,114.579679 70.0109581,115.212911 L70.0109581,115.212911 C68.9555715,115.846143 67.2669531,115.740604 66.0004893,115.001834 L66.0004893,115.001834 C64.7340255,114.263063 64.6284868,113.207677 65.6838734,112.679984 Z" id="Shape" fill="#C3C7CF" fill-rule="nonzero"></path>
            <path d="M232.814847,20.4392023 C233.025924,18.8561225 231.970538,17.2730428 229.754226,16.0065789 L205.902491,2.1810156 C202.208638,0.0702426 196.61509,-0.1408347 193.44893,1.6533224 L66.69701,74.8971464 C65.1139302,75.8469942 64.3751596,77.1134581 64.5862369,78.4854605 L64.5862369,79.3297697 L64.5862369,80.1740789 L64.5862369,81.0183882 L64.5862369,81.8626974 L64.5862369,82.707007 L64.5862369,83.551316 L64.5862369,84.395625 L64.5862369,85.239934 L64.5862369,86.084243 L64.5862369,86.928553 L64.5862369,87.772862 L64.5862369,88.617171 L64.5862369,89.46148 L64.5862369,90.305789 L64.5862369,91.150099 L64.5862369,91.994408 L64.5862369,92.838717 L64.5862369,93.683026 L64.5862369,94.527336 L64.5862369,95.371645 L64.5862369,96.215954 L64.5862369,97.060263 L64.5862369,97.904572 L64.5862369,98.748882 L64.5862369,99.593191 L64.5862369,100.4375 L64.5862369,101.281809 L64.5862369,102.126118 L64.5862369,102.970428 L64.5862369,103.814737 L64.5862369,104.659046 L64.5862369,105.503355 L64.5862369,106.347664 L64.5862369,107.191974 L64.5862369,108.036283 L64.5862369,108.880592 L64.5862369,109.724901 L64.5862369,110.569211 L64.5862369,111.41352 L64.5862369,112.257829 L64.5862369,113.102138 L64.5862369,113.946447 L64.5862369,114.790757 L64.5862369,115.635066 L64.5862369,116.479375 L64.5862369,117.323684 L64.5862369,118.167993 L64.5862369,119.012303 L64.5862369,119.856612 L64.5862369,120.700921 L64.5862369,121.54523 L64.5862369,122.389539 L64.5862369,123.233849 L64.5862369,124.078158 L64.5862369,124.922467 L64.5862369,125.766776 L64.5862369,126.611086 L64.5862369,127.455395 L64.5862369,128.299704 L64.5862369,129.144013 L64.5862369,129.988322 L64.5862369,130.832632 L64.5862369,131.676941 L64.5862369,132.52125 L64.5862369,133.365559 L64.5862369,134.209868 L64.5862369,135.054178 L64.5862369,135.898487 L64.5862369,136.742796 L64.5862369,137.587105 L64.5862369,138.431414 L64.5862369,139.275724 L64.5862369,140.120033 L64.5862369,140.964342 L64.5862369,141.808651 L64.5862369,142.652961 L64.5862369,143.49727 L64.5862369,144.341579 L64.5862369,145.185888 L64.5862369,146.030197 L64.5862369,146.874507 L64.5862369,147.718816 L64.5862369,148.563125 L64.5862369,149.407434 L64.5862369,150.251743 L64.5862369,151.096053 L64.5862369,151.940362 L64.5862369,152.784671 L64.5862369,153.62898 L64.5862369,154.473289 L64.5862369,155.317599 C64.3751596,156.900678 65.4305462,158.483758 67.6468578,159.750222 L91.498593,173.575785 C95.192446,175.686558 100.785994,175.897636 103.952154,174.103479 L230.704074,100.859655 C232.287154,99.909807 233.025924,98.643343 232.814847,97.27134 L232.814847,96.427031 L232.814847,95.582722 L232.814847,94.738413 L232.814847,93.894104 L232.814847,93.049794 L232.814847,92.205485 L232.814847,91.361176 L232.814847,90.516867 L232.814847,89.672558 L232.814847,88.828248 L232.814847,87.983939 L232.814847,87.13963 L232.814847,86.295321 L232.814847,85.451012 L232.814847,84.606702 L232.814847,83.762393 L232.814847,82.918084 L232.814847,82.073775 L232.814847,81.2294655 L232.814847,80.3851563 L232.814847,79.540847 L232.814847,78.6965378 L232.814847,77.8522286 L232.814847,77.0079194 L232.814847,76.1636102 L232.814847,75.319301 L232.814847,74.4749918 L232.814847,73.6306826 L232.814847,72.7863734 L232.814847,71.9420641 L232.814847,71.0977549 L232.814847,70.2534457 L232.814847,69.4091365 L232.814847,68.5648273 L232.814847,67.7205181 L232.814847,66.8762089 L232.814847,66.0318997 L232.814847,65.1875905 L232.814847,64.3432813 L232.814847,63.498972 L232.814847,62.6546628 L232.814847,61.8103536 L232.814847,60.9660444 L232.814847,60.1217352 L232.814847,59.277426 L232.814847,58.4331168 L232.814847,57.5888076 L232.814847,56.7444984 L232.814847,55.9001891 L232.814847,55.0558799 L232.814847,54.2115707 L232.814847,53.3672615 L232.814847,52.5229523 L232.814847,51.6786431 L232.814847,50.8343339 L232.814847,49.9900247 L232.814847,49.1457155 L232.814847,48.3014063 L232.814847,47.457097 L232.814847,46.6127878 L232.814847,45.7684786 L232.814847,44.9241694 L232.814847,44.0798602 L232.814847,43.235551 L232.814847,42.3912418 L232.814847,41.5469326 L232.814847,40.7026234 L232.814847,39.8583141 L232.814847,39.0140049 L232.814847,38.1696957 L232.814847,37.3253865 L232.814847,36.4810773 L232.814847,35.6367681 L232.814847,34.7924589 L232.814847,33.9481497 L232.814847,33.1038405 L232.814847,32.2595313 L232.814847,31.415222 L232.814847,30.5709128 L232.814847,29.7266036 L232.814847,28.8822944 L232.814847,28.0379852 L232.814847,27.193676 L232.814847,26.3493668 L232.814847,25.5050576 L232.814847,24.6607484 L232.814847,23.8164391 L232.814847,22.9721299 L232.814847,22.1278207 L232.814847,21.2835115 C232.814847,20.9668956 232.920386,20.6502796 232.814847,20.4392023 Z" id="Combined-Shape" fill="url(#linearGradient-5)" fill-rule="nonzero"></path>
            <path d="M233.299722,20.4392023 C233.5108,18.8561225 232.455413,17.2730428 230.239101,16.0065789 L206.387366,2.1810156 C202.693513,0.0702426 197.099965,-0.1408347 193.933805,1.6533224 L67.1818851,74.8971464 C65.5988053,75.8469942 64.8600347,77.1134581 65.071112,78.4854605 L65.071112,79.3297697 L65.071112,80.1740789 L65.071112,81.0183882 L65.071112,81.8626974 L65.071112,82.707007 L65.071112,83.551316 L65.071112,84.395625 L65.071112,85.239934 L65.071112,86.084243 L65.071112,86.928553 L65.071112,87.772862 L65.071112,88.617171 L65.071112,89.46148 L65.071112,90.305789 L65.071112,91.150099 L65.071112,91.994408 L65.071112,92.838717 L65.071112,93.683026 L65.071112,94.527336 L65.071112,95.371645 L65.071112,96.215954 L65.071112,97.060263 L65.071112,97.904572 L65.071112,98.748882 L65.071112,99.593191 L65.071112,100.4375 L65.071112,101.281809 L65.071112,102.126118 L65.071112,102.970428 L65.071112,103.814737 L65.071112,104.659046 L65.071112,105.503355 L65.071112,106.347664 L65.071112,107.191974 L65.071112,108.036283 L65.071112,108.880592 L65.071112,109.724901 L65.071112,110.569211 L65.071112,111.41352 L65.071112,112.257829 L65.071112,113.102138 L65.071112,113.946447 L65.071112,114.790757 L65.071112,115.635066 L65.071112,116.479375 L65.071112,117.323684 L65.071112,118.167993 L65.071112,119.012303 L65.071112,119.856612 L65.071112,120.700921 L65.071112,121.54523 L65.071112,122.389539 L65.071112,123.233849 L65.071112,124.078158 L65.071112,124.922467 L65.071112,125.766776 L65.071112,126.611086 L65.071112,127.455395 L65.071112,128.299704 L65.071112,129.144013 L65.071112,129.988322 L65.071112,130.832632 L65.071112,131.676941 L65.071112,132.52125 L65.071112,133.365559 L65.071112,134.209868 L65.071112,135.054178 L65.071112,135.898487 L65.071112,136.742796 L65.071112,137.587105 L65.071112,138.431414 L65.071112,139.275724 L65.071112,140.120033 L65.071112,140.964342 L65.071112,141.808651 L65.071112,142.652961 L65.071112,143.49727 L65.071112,144.341579 L65.071112,145.185888 L65.071112,146.030197 L65.071112,146.874507 L65.071112,147.718816 L65.071112,148.563125 L65.071112,149.407434 L65.071112,150.251743 L65.071112,151.096053 L65.071112,151.940362 L65.071112,152.784671 L65.071112,153.62898 L65.071112,154.473289 L65.071112,155.317599 C64.8600347,156.900678 65.9154212,158.483758 68.1317329,159.750222 L91.983468,173.575785 C95.677321,175.686558 101.270869,175.897636 104.437029,174.103479 L231.188949,100.859655 C232.772029,99.909807 233.5108,98.643343 233.299722,97.27134 L233.299722,96.427031 L233.299722,95.582722 L233.299722,94.738413 L233.299722,93.894104 L233.299722,93.049794 L233.299722,92.205485 L233.299722,91.361176 L233.299722,90.516867 L233.299722,89.672558 L233.299722,88.828248 L233.299722,87.983939 L233.299722,87.13963 L233.299722,86.295321 L233.299722,85.451012 L233.299722,84.606702 L233.299722,83.762393 L233.299722,82.918084 L233.299722,82.073775 L233.299722,81.2294655 L233.299722,80.3851563 L233.299722,79.540847 L233.299722,78.6965378 L233.299722,77.8522286 L233.299722,77.0079194 L233.299722,76.1636102 L233.299722,75.319301 L233.299722,74.4749918 L233.299722,73.6306826 L233.299722,72.7863734 L233.299722,71.9420641 L233.299722,71.0977549 L233.299722,70.2534457 L233.299722,69.4091365 L233.299722,68.5648273 L233.299722,67.7205181 L233.299722,66.8762089 L233.299722,66.0318997 L233.299722,65.1875905 L233.299722,64.3432813 L233.299722,63.498972 L233.299722,62.6546628 L233.299722,61.8103536 L233.299722,60.9660444 L233.299722,60.1217352 L233.299722,59.277426 L233.299722,58.4331168 L233.299722,57.5888076 L233.299722,56.7444984 L233.299722,55.9001891 L233.299722,55.0558799 L233.299722,54.2115707 L233.299722,53.3672615 L233.299722,52.5229523 L233.299722,51.6786431 L233.299722,50.8343339 L233.299722,49.9900247 L233.299722,49.1457155 L233.299722,48.3014063 L233.299722,47.457097 L233.299722,46.6127878 L233.299722,45.7684786 L233.299722,44.9241694 L233.299722,44.0798602 L233.299722,43.235551 L233.299722,42.3912418 L233.299722,41.5469326 L233.299722,40.7026234 L233.299722,39.8583141 L233.299722,39.0140049 L233.299722,38.1696957 L233.299722,37.3253865 L233.299722,36.4810773 L233.299722,35.6367681 L233.299722,34.7924589 L233.299722,33.9481497 L233.299722,33.1038405 L233.299722,32.2595313 L233.299722,31.415222 L233.299722,30.5709128 L233.299722,29.7266036 L233.299722,28.8822944 L233.299722,28.0379852 L233.299722,27.193676 L233.299722,26.3493668 L233.299722,25.5050576 L233.299722,24.6607484 L233.299722,23.8164391 L233.299722,22.9721299 L233.299722,22.1278207 L233.299722,21.2835115 C233.299722,20.9668956 233.405261,20.6502796 233.299722,20.4392023 Z" id="Combined-Shape-Copy" fill="url(#linearGradient-6)" fill-rule="nonzero"></path>
            <path d="M443.85786,284.097222 C450.947059,288.175939 451.676035,293.979714 445.749828,297.460185 C439.455079,301.157102 428.021063,300.680684 420.581359,296.400307 C413.459439,292.302764 412.694472,286.409684 418.67323,283.046633 C425.082984,279.341074 436.414116,279.81452 443.85786,284.097222 Z M419.58397,298.133863 C427.618829,302.756658 439.815484,303.264852 446.762672,299.184757 C454.138133,294.853137 453.170296,287.147666 444.855248,282.363666 C436.818722,277.739911 424.730251,277.234822 417.682466,281.309323 C410.217844,285.508093 411.233089,293.329246 419.58397,298.133863 Z" id="Shape" fill="#F4F4F4" fill-rule="nonzero"></path>
            <path d="M338.501287,109.197208 C338.712364,107.614128 337.656978,106.031049 335.440666,104.764585 L252.592825,56.9555757 C248.898972,54.8448026 243.305424,54.6337253 240.139264,56.4278824 L113.387344,129.671706 C111.804264,130.621554 111.065493,131.888018 111.276571,133.260021 L111.276571,134.10433 L111.276571,134.948639 L111.276571,135.792948 L111.276571,136.637257 L111.276571,137.481567 L111.276571,138.325876 L111.276571,139.170185 L111.276571,140.014494 L111.276571,140.858803 L111.276571,141.703113 L111.276571,142.547422 L111.276571,143.391731 L111.276571,144.23604 L111.276571,145.08035 L111.276571,145.924659 L111.276571,146.768968 L111.276571,147.613277 L111.276571,148.457586 L111.276571,149.301896 L111.276571,150.146205 L111.276571,150.990514 L111.276571,151.834823 L111.276571,152.679132 L111.276571,153.523442 L111.276571,154.367751 L111.276571,155.21206 L111.276571,156.056369 L111.276571,156.900678 L111.276571,157.744988 L111.276571,158.589297 L111.276571,159.433606 L111.276571,160.277915 L111.276571,161.122225 L111.276571,161.966534 L111.276571,162.810843 L111.276571,163.655152 L111.276571,164.499461 L111.276571,165.343771 L111.276571,166.18808 L111.276571,167.032389 L111.276571,167.876698 L111.276571,168.721007 L111.276571,169.565317 L111.276571,170.409626 L111.276571,171.253935 L111.276571,172.098244 L111.276571,172.942553 L111.276571,173.786863 L111.276571,174.631172 L111.276571,175.475481 L111.276571,176.31979 L111.276571,177.1641 L111.276571,178.008409 L111.276571,178.852718 L111.276571,179.697027 L111.276571,180.541336 L111.276571,181.385646 L111.276571,182.229955 C111.065493,183.813035 112.12088,185.396114 114.337192,186.662578 L197.185033,234.471587 C200.878886,236.58236 206.472434,236.793438 209.638594,234.99928 L336.390514,161.755456 C337.973594,160.805609 338.712364,159.539145 338.501287,158.167142 L338.501287,157.322833 L338.501287,156.478524 L338.501287,155.634215 L338.501287,154.789905 L338.501287,153.945596 L338.501287,153.101287 L338.501287,152.256978 L338.501287,151.412669 L338.501287,150.568359 L338.501287,149.72405 L338.501287,148.879741 L338.501287,148.035432 L338.501287,147.191123 L338.501287,146.346813 L338.501287,145.502504 L338.501287,144.658195 L338.501287,143.813886 L338.501287,142.969576 L338.501287,142.125267 L338.501287,141.280958 L338.501287,140.436649 L338.501287,139.59234 L338.501287,138.74803 L338.501287,137.903721 L338.501287,137.059412 L338.501287,136.215103 L338.501287,135.370794 L338.501287,134.526484 L338.501287,133.682175 L338.501287,132.837866 L338.501287,131.993557 L338.501287,131.149248 L338.501287,130.304938 L338.501287,129.460629 L338.501287,128.61632 L338.501287,127.772011 L338.501287,126.927701 L338.501287,126.083392 L338.501287,125.239083 L338.501287,124.394774 L338.501287,123.550465 L338.501287,122.706155 L338.501287,121.861846 L338.501287,121.017537 L338.501287,120.173228 L338.501287,119.328919 L338.501287,118.484609 L338.501287,117.6403 L338.501287,116.795991 L338.501287,115.951682 L338.501287,115.107373 L338.501287,114.263063 L338.501287,113.418754 L338.501287,112.574445 L338.501287,111.730136 L338.501287,110.885826 L338.501287,110.041517 L338.501287,109.197208 Z" id="Shape" fill="url(#linearGradient-7)" fill-rule="nonzero"></path>
            <path d="M338.608013,109.197208 C338.81909,107.614128 337.763704,106.031049 335.547392,104.764585 L252.699551,56.9555757 C249.005698,54.8448026 243.41215,54.6337253 240.24599,56.4278824 L113.49407,129.671706 C111.91099,130.621554 111.17222,131.888018 111.383297,133.260021 L111.383297,134.10433 L111.383297,134.948639 L111.383297,135.792948 L111.383297,136.637257 L111.383297,137.481567 L111.383297,138.325876 L111.383297,139.170185 L111.383297,140.014494 L111.383297,140.858803 L111.383297,141.703113 L111.383297,142.547422 L111.383297,143.391731 L111.383297,144.23604 L111.383297,145.08035 L111.383297,145.924659 L111.383297,146.768968 L111.383297,147.613277 L111.383297,148.457586 L111.383297,149.301896 L111.383297,150.146205 L111.383297,150.990514 L111.383297,151.834823 L111.383297,152.679132 L111.383297,153.523442 L111.383297,154.367751 L111.383297,155.21206 L111.383297,156.056369 L111.383297,156.900678 L111.383297,157.744988 L111.383297,158.589297 L111.383297,159.433606 L111.383297,160.277915 L111.383297,161.122225 L111.383297,161.966534 L111.383297,162.810843 L111.383297,163.655152 L111.383297,164.499461 L111.383297,165.343771 L111.383297,166.18808 L111.383297,167.032389 L111.383297,167.876698 L111.383297,168.721007 L111.383297,169.565317 L111.383297,170.409626 L111.383297,171.253935 L111.383297,172.098244 L111.383297,172.942553 L111.383297,173.786863 L111.383297,174.631172 L111.383297,175.475481 L111.383297,176.31979 L111.383297,177.1641 L111.383297,178.008409 L111.383297,178.852718 L111.383297,179.697027 L111.383297,180.541336 L111.383297,181.385646 L111.383297,182.229955 C111.17222,183.813035 112.227606,185.396114 114.443918,186.662578 L197.291759,234.471587 C200.985612,236.58236 206.57916,236.793438 209.74532,234.99928 L336.49724,161.755456 C338.08032,160.805609 338.81909,159.539145 338.608013,158.167142 L338.608013,157.322833 L338.608013,156.478524 L338.608013,155.634215 L338.608013,154.789905 L338.608013,153.945596 L338.608013,153.101287 L338.608013,152.256978 L338.608013,151.412669 L338.608013,150.568359 L338.608013,149.72405 L338.608013,148.879741 L338.608013,148.035432 L338.608013,147.191123 L338.608013,146.346813 L338.608013,145.502504 L338.608013,144.658195 L338.608013,143.813886 L338.608013,142.969576 L338.608013,142.125267 L338.608013,141.280958 L338.608013,140.436649 L338.608013,139.59234 L338.608013,138.74803 L338.608013,137.903721 L338.608013,137.059412 L338.608013,136.215103 L338.608013,135.370794 L338.608013,134.526484 L338.608013,133.682175 L338.608013,132.837866 L338.608013,131.993557 L338.608013,131.149248 L338.608013,130.304938 L338.608013,129.460629 L338.608013,128.61632 L338.608013,127.772011 L338.608013,126.927701 L338.608013,126.083392 L338.608013,125.239083 L338.608013,124.394774 L338.608013,123.550465 L338.608013,122.706155 L338.608013,121.861846 L338.608013,121.017537 L338.608013,120.173228 L338.608013,119.328919 L338.608013,118.484609 L338.608013,117.6403 L338.608013,116.795991 L338.608013,115.951682 L338.608013,115.107373 L338.608013,114.263063 L338.608013,113.418754 L338.608013,112.574445 L338.608013,111.730136 L338.608013,110.885826 L338.608013,110.041517 L338.608013,109.197208 Z" id="Shape-Copy-3" fill="url(#linearGradient-6)" fill-rule="nonzero"></path>
            <path d="M231.06294,23.1832072 L104.31102,96.321493 C101.14486,98.221188 95.551312,97.904572 91.857459,95.793799 L68.0057237,81.968236 C64.3118709,79.857463 63.8897163,76.5857648 67.1614145,74.7916077 L193.913335,1.5477837 C197.079494,-0.351912 202.673043,-0.0352961 206.366896,2.075477 L230.218631,15.9010403 C233.912484,18.0118133 234.2291,21.2835115 231.06294,23.1832072 Z" id="Shape" fill="url(#linearGradient-6)" fill-rule="nonzero"></path>
            <path d="M114.970424,79.2242311 L107.688257,78.9076151 C106.63287,75.5303783 101.355937,72.5752961 95.340234,72.3642187 C88.902377,72.0476028 84.047599,74.8971464 84.469753,78.5909992 C84.891908,82.284852 90.590995,85.55655 97.028853,85.767627 C100.300551,85.873166 103.044556,85.239934 105.04979,84.184548 C106.738409,83.2347 107.793795,81.8626974 107.899334,80.2796176 L115.181501,80.5962336 C115.498117,80.5962336 115.814733,80.5962336 116.02581,80.3851562 C116.236887,80.2796176 116.342426,80.0685403 116.342426,79.9630016 C116.236887,79.540847 115.603655,79.2242311 114.970424,79.2242311 Z M96.817775,84.501164 C91.646382,84.290086 87.213758,81.6516201 86.791604,78.6965378 C86.580526,77.2189967 87.530374,75.9525329 89.007915,75.002685 C90.590995,74.0528372 92.807307,73.6306826 95.445773,73.7362212 C100.617167,73.9472985 105.04979,76.5857648 105.471945,79.540847 C105.8941,82.390391 101.989169,84.712241 96.817775,84.501164 Z" id="Shape" fill="#FFFFFF" fill-rule="nonzero"></path>
            <path d="M336.390514,111.941213 L209.638594,185.185037 C206.472434,187.084733 200.878886,186.768117 197.185033,184.657344 L114.337192,136.848335 C110.643339,134.737562 110.221184,131.465863 113.492882,129.671706 L240.244803,56.4278824 C243.410962,54.5281867 249.004511,54.8448026 252.698363,56.9555757 L335.546205,104.764585 C339.134519,106.875358 339.556674,110.147056 336.390514,111.941213 Z" id="Shape" fill="url(#linearGradient-6)" fill-rule="nonzero"></path>
            <path d="M147.687405,127.877549 L135.867076,134.737562 C135.444922,134.948639 134.706151,134.948639 134.178458,134.632023 C133.650765,134.315407 133.650765,133.893252 134.072919,133.682175 L145.893248,126.822163 C146.315403,126.611086 147.054174,126.611086 147.581867,126.927701 C148.10956,127.244317 148.10956,127.560933 147.687405,127.877549 Z" id="Shape" fill="#FFFFFF" fill-rule="nonzero"></path>
            <path d="M151.908951,133.048943 L144.9434,137.059412 C144.521246,137.270489 143.782475,137.270489 143.254782,136.953873 C142.727089,136.637257 142.727089,136.215103 143.149243,136.004025 L150.114794,131.993557 C150.536949,131.782479 151.27572,131.782479 151.803413,132.099095 C152.331106,132.415711 152.331106,132.837866 151.908951,133.048943 Z" id="Shape" fill="#FFFFFF" fill-rule="nonzero"></path>
            <path d="M156.763729,137.903721 L153.280954,139.908956 C152.858799,140.120033 152.120029,140.120033 151.592336,139.803417 C151.064642,139.486801 151.064642,139.064646 151.486797,138.853569 L154.969572,136.848335 C155.391727,136.637257 156.130498,136.637257 156.658191,136.953873 C157.185884,137.270489 157.291423,137.692644 156.763729,137.903721 Z" id="Shape" fill="#FFFFFF" fill-rule="nonzero"></path>
            <path d="M461.700219,205.976151 C461.911296,204.393072 460.85591,202.809992 458.639598,201.543528 L359.644343,144.341579 C355.95049,142.230806 350.356942,142.019729 347.190782,143.813886 L220.438862,217.05771 C218.855782,218.007558 218.117012,219.274021 218.328089,220.646024 L218.328089,221.490333 L218.328089,222.334642 L218.328089,223.178951 L218.328089,224.023261 L218.328089,224.86757 L218.328089,225.711879 L218.328089,226.556188 L218.328089,227.400498 L218.328089,228.244807 L218.328089,229.089116 L218.328089,229.933425 L218.328089,230.777734 L218.328089,231.622044 L218.328089,232.466353 L218.328089,233.310662 L218.328089,234.154971 L218.328089,234.99928 L218.328089,235.84359 L218.328089,236.687899 L218.328089,237.532208 L218.328089,238.376517 L218.328089,239.220826 L218.328089,240.065136 L218.328089,240.909445 L218.328089,241.753754 L218.328089,242.598063 L218.328089,243.442373 L218.328089,244.286682 C218.117012,245.869762 219.172398,247.452841 221.38871,248.719305 L320.383965,305.921254 C324.077817,308.032027 329.671366,308.243104 332.837526,306.448947 L459.589446,233.416201 C461.172526,232.466353 461.911296,231.199889 461.700219,229.827887 L461.700219,228.983577 L461.700219,228.139268 L461.700219,227.294959 L461.700219,226.45065 L461.700219,225.60634 L461.700219,224.762031 L461.700219,223.917722 L461.700219,223.073413 L461.700219,222.229104 L461.700219,221.384794 L461.700219,220.540485 L461.700219,219.696176 L461.700219,218.851867 L461.700219,218.007558 L461.700219,217.163248 L461.700219,216.318939 L461.700219,215.47463 L461.700219,214.630321 L461.700219,213.786012 L461.700219,212.941702 L461.700219,212.097393 L461.700219,211.253084 L461.700219,210.408775 L461.700219,209.564465 L461.700219,208.720156 L461.700219,207.875847 L461.700219,207.031538 C461.805757,206.609383 461.805757,206.292767 461.700219,205.976151 Z" id="Shape" fill="url(#linearGradient-8)" fill-rule="nonzero"></path>
            <path d="M461.700219,205.976151 C461.911296,204.393072 460.85591,202.809992 458.639598,201.543528 L359.644343,144.341579 C355.95049,142.230806 350.356942,142.019729 347.190782,143.813886 L220.438862,217.05771 C218.855782,218.007558 218.117012,219.274021 218.328089,220.646024 L218.328089,221.490333 L218.328089,222.334642 L218.328089,223.178951 L218.328089,224.023261 L218.328089,224.86757 L218.328089,225.711879 L218.328089,226.556188 L218.328089,227.400498 L218.328089,228.244807 L218.328089,229.089116 L218.328089,229.933425 L218.328089,230.777734 L218.328089,231.622044 L218.328089,232.466353 L218.328089,233.310662 L218.328089,234.154971 L218.328089,234.99928 L218.328089,235.84359 L218.328089,236.687899 L218.328089,237.532208 L218.328089,238.376517 L218.328089,239.220826 L218.328089,240.065136 L218.328089,240.909445 L218.328089,241.753754 L218.328089,242.598063 L218.328089,243.442373 L218.328089,244.286682 C218.117012,245.869762 219.172398,247.452841 221.38871,248.719305 L320.383965,305.921254 C324.077817,308.032027 329.671366,308.243104 332.837526,306.448947 L459.589446,233.416201 C461.172526,232.466353 461.911296,231.199889 461.700219,229.827887 L461.700219,228.983577 L461.700219,228.139268 L461.700219,227.294959 L461.700219,226.45065 L461.700219,225.60634 L461.700219,224.762031 L461.700219,223.917722 L461.700219,223.073413 L461.700219,222.229104 L461.700219,221.384794 L461.700219,220.540485 L461.700219,219.696176 L461.700219,218.851867 L461.700219,218.007558 L461.700219,217.163248 L461.700219,216.318939 L461.700219,215.47463 L461.700219,214.630321 L461.700219,213.786012 L461.700219,212.941702 L461.700219,212.097393 L461.700219,211.253084 L461.700219,210.408775 L461.700219,209.564465 L461.700219,208.720156 L461.700219,207.875847 L461.700219,207.031538 C461.805757,206.609383 461.805757,206.292767 461.700219,205.976151 Z" id="Shape-Copy-2" fill="url(#linearGradient-6)" fill-rule="nonzero"></path>
            <path d="M459.765197,208.720156 L333.013277,281.96398 C329.847118,283.863676 324.253569,283.54706 320.559716,281.436287 L221.458923,224.234338 C217.76507,222.123565 217.342915,218.851867 220.614613,217.05771 L347.366534,143.813886 C350.532693,141.91419 356.126242,142.230806 359.820095,144.341579 L458.81535,201.543528 C462.614741,203.654301 462.931357,206.925999 459.765197,208.720156 Z" id="Shape" stroke="#FFFFFF" fill="url(#linearGradient-6)" fill-rule="nonzero" opacity="0.15"></path>
            <path d="M199.190267,1.4422451 L199.190267,1.4422451 C201.512118,1.4422451 203.939507,2.075477 205.733664,3.0253248 L229.585399,16.8508882 C231.168479,17.800736 232.118326,18.9616612 232.118326,20.0170477 C232.118326,21.0724342 231.274017,21.8112048 230.535247,22.2333594 L103.783326,95.477183 C102.516863,96.215954 100.828244,96.53257 98.928549,96.53257 C96.606698,96.53257 94.179309,95.899338 92.385152,94.94949 L68.4278783,81.1239268 C66.8447985,80.1740789 65.8949507,79.0131538 65.8949507,77.9577673 C65.8949507,76.9023808 66.7392599,76.1636102 67.4780304,75.7414556 L194.229951,2.4976316 C195.496414,1.758861 197.290572,1.4422451 199.190267,1.4422451 L199.190267,1.4422451 Z M199.190267,0.3868586 C197.185033,0.3868586 195.179799,0.8090132 193.807796,1.6533224 L67.0558758,74.8971464 C63.8897163,76.7968421 64.2063322,79.9630016 67.900185,82.073775 L91.75192,95.899338 C93.757155,97.060263 96.395621,97.693495 98.82301,97.693495 C100.828244,97.693495 102.833479,97.27134 104.205481,96.427031 L230.957401,23.1832072 C234.123561,21.2835115 233.806945,18.117352 230.113092,16.0065789 L206.261357,2.1810156 C204.256123,0.9145518 201.617656,0.3868586 199.190267,0.3868586 L199.190267,0.3868586 Z" id="Shape" fill="#FFFFFF" fill-rule="nonzero" opacity="0.150000006"></path>
            <path d="M245.521735,56.2168051 L245.521735,56.2168051 C247.843586,56.2168051 250.270975,56.850037 252.065132,57.7998849 L334.912973,105.608894 C336.496053,106.558742 337.4459,107.719667 337.4459,108.775053 C337.4459,109.83044 336.601591,110.569211 335.862821,110.991365 L209.1109,184.235189 C207.844437,184.97396 206.155818,185.290576 204.256123,185.290576 C201.934272,185.290576 199.506883,184.657344 197.712726,183.707496 L114.864885,135.898487 C113.281805,134.948639 112.331957,133.787714 112.331957,132.732327 C112.331957,131.676941 113.176266,130.93817 113.915037,130.516016 L240.666957,57.2721916 C241.933421,56.6389597 243.622039,56.2168051 245.521735,56.2168051 L245.521735,56.2168051 Z M245.521735,55.1614186 C243.516501,55.1614186 241.511266,55.5835732 240.139264,56.4278824 L113.387344,129.671706 C110.221184,131.571402 110.5378,134.737562 114.231653,136.848335 L197.079494,184.657344 C199.084729,185.818269 201.723195,186.451501 204.150584,186.451501 C206.155818,186.451501 208.161053,186.029346 209.533055,185.185037 L336.284975,111.941213 C339.451135,110.041517 339.134519,106.875358 335.440666,104.764585 L252.592825,56.9555757 C250.58759,55.7946505 248.054663,55.1614186 245.521735,55.1614186 L245.521735,55.1614186 Z" id="Shape" fill="#FFFFFF" fill-rule="nonzero" opacity="0.15"></path>
            <path d="M352.749005,143.602808 L352.749005,143.602808 C355.070855,143.602808 357.498244,144.23604 359.292401,145.185888 L458.287656,202.387837 C459.870736,203.337685 460.820584,204.49861 460.820584,205.553997 C460.820584,206.609383 459.976275,207.348154 459.237504,207.770308 L332.485584,281.014132 C331.21912,281.752903 329.530502,282.069519 327.630806,282.069519 C325.308956,282.069519 322.881567,281.436287 321.08741,280.486439 L222.092155,223.28449 C220.509075,222.334642 219.559227,221.173717 219.559227,220.118331 C219.559227,219.062944 220.403536,218.324174 221.142307,217.902019 L347.894227,144.763734 C349.160691,144.024963 350.849309,143.602808 352.749005,143.602808 L352.749005,143.602808 Z M352.749005,142.547422 C350.743771,142.547422 348.738536,142.969576 347.366534,143.813886 L220.614613,217.05771 C217.448454,218.957405 217.76507,222.123565 221.458923,224.234338 L320.454178,281.436287 C322.459412,282.597212 325.097878,283.230444 327.525267,283.230444 C329.530502,283.230444 331.535736,282.808289 332.907738,281.96398 L459.659659,208.720156 C462.825818,206.820461 462.509202,203.654301 458.81535,201.543528 L359.820095,144.341579 C357.81486,143.180654 355.281933,142.547422 352.749005,142.547422 L352.749005,142.547422 Z" id="Shape" opacity="0.15" fill-rule="nonzero"></path>
            <path d="M233.490329,50.3066406 C231.45027,50.3066406 229.796476,48.6528464 229.796476,46.6127878 C229.796476,44.5727293 231.45027,42.918935 233.490329,42.918935 C235.530388,42.918935 237.184182,44.5727293 237.184182,46.6127878 C237.184182,48.6528464 235.530388,50.3066406 233.490329,50.3066406 Z M337.973594,112.785522 C335.933535,112.785522 334.279741,111.131728 334.279741,109.091669 C334.279741,107.051611 335.933535,105.397817 337.973594,105.397817 C340.013652,105.397817 341.667447,107.051611 341.667447,109.091669 C341.667447,111.131728 340.013652,112.785522 337.973594,112.785522 Z M420.926974,183.074264 C418.886915,183.074264 417.233121,181.42047 417.233121,179.380411 C417.233121,177.340353 418.886915,175.686558 420.926974,175.686558 C422.967032,175.686558 424.620826,177.340353 424.620826,179.380411 C424.620826,181.42047 422.967032,183.074264 420.926974,183.074264 Z" id="Combined-Shape" fill="#FFFFFF" fill-rule="nonzero" opacity="0.5"></path>
            <path d="M494.80403,46.1906332 L235.178947,46.1906332 C234.96787,45.4518627 234.334638,44.8186308 233.490329,44.8186308 C232.540481,44.8186308 231.696172,45.66294 231.696172,46.6127878 C231.696172,47.5626357 232.540481,48.4069449 233.490329,48.4069449 C234.334638,48.4069449 234.96787,47.8792516 235.178947,47.0349424 L494.80403,47.0349424 L494.80403,46.1906332 Z" id="Shape" fill="#C4C8D8" fill-rule="nonzero"></path>
            <path d="M494.80403,108.669515 L339.662212,108.669515 C339.451135,107.930744 338.817903,107.297512 337.973594,107.297512 C337.023746,107.297512 336.179437,108.141822 336.179437,109.091669 C336.179437,110.041517 337.023746,110.885826 337.973594,110.885826 C338.817903,110.885826 339.451135,110.358133 339.662212,109.513824 L494.80403,109.513824 L494.80403,108.669515 Z" id="Shape" fill="#C4C8D8" fill-rule="nonzero"></path>
            <path d="M494.80403,178.958257 L422.615592,178.958257 C422.404515,178.219486 421.771283,177.586254 420.926974,177.586254 C419.977126,177.586254 419.132817,178.430563 419.132817,179.380411 C419.132817,180.330259 419.977126,181.174568 420.926974,181.174568 C421.771283,181.174568 422.404515,180.646875 422.615592,179.802566 L494.80403,179.802566 L494.80403,178.958257 Z" id="Shape" fill="#C4C8D8" fill-rule="nonzero"></path>
            <text id="Search" fill="#C4C8D8" font-family="OpenSans-Italic, Open Sans" font-size="12" font-style="italic" font-weight="normal">
                <tspan x="497.523438" y="48">Search</tspan>
            </text>
            <text id="Filters" fill="#C4C8D8" font-family="OpenSans-Italic, Open Sans" font-size="12" font-style="italic" font-weight="normal">
                <tspan x="497.523438" y="110">Filters</tspan>
            </text>
            <text id="Results" fill="#C4C8D8" font-family="OpenSans-Italic, Open Sans" font-size="12" font-style="italic" font-weight="normal">
                <tspan x="497.523438" y="181">Results</tspan>
            </text>
            <path d="M344.242518,190.240767 L301.396044,214.978469 L335.913546,234.907243 L378.760184,210.169636 L344.242518,190.240767 Z M346.242504,189.086061 L380.760178,209.014934 L425.105928,183.411812 C425.58422,183.135669 426.195811,183.299543 426.471954,183.777835 C426.748097,184.256127 426.584223,184.867718 426.10593,185.143861 L382.760172,210.169636 L417.778291,230.387442 C418.256583,230.663586 418.420457,231.275176 418.144314,231.753469 C417.86817,232.231761 417.25658,232.395635 416.778287,232.119491 L380.760178,211.324338 L337.91354,236.061945 L372.93156,256.279694 C373.409852,256.555837 373.573726,257.167428 373.297583,257.64572 C373.021439,258.124012 372.409849,258.287886 371.931557,258.011743 L335.913546,237.216646 L291.566151,262.820719 C291.087859,263.096862 290.476268,262.932988 290.200125,262.454695 C289.923982,261.976403 290.087856,261.364813 290.566148,261.088669 L333.913552,236.061944 L299.396057,216.133175 L255.049025,241.737234 C254.570734,242.013379 253.959143,241.849507 253.682998,241.371216 C253.406853,240.892924 253.570725,240.281333 254.049017,240.005189 L297.396067,214.978475 L262.379035,194.761295 C261.900742,194.485152 261.736868,193.873562 262.013012,193.395269 C262.289155,192.916977 262.900746,192.753103 263.379038,193.029247 L299.396054,213.823769 L342.242527,189.086067 L307.225765,168.869044 C306.747473,168.592901 306.583599,167.98131 306.859743,167.503018 C307.135886,167.024726 307.747476,166.860852 308.225769,167.136995 L344.242514,187.931361 L388.587763,162.328331 C389.066055,162.052186 389.677646,162.216058 389.953791,162.69435 C390.229935,163.172641 390.066063,163.784232 389.587772,164.060377 L346.242504,189.086061 Z" id="Combined-Shape" fill="#FFFFFF" fill-rule="nonzero" opacity="0.15"></path>
        </g>
    </g>
</svg>