<svg class="algolia-logo" xmlns="http://www.w3.org/2000/svg" viewBox="0 0 387 96"><defs><linearGradient x1="-37.75%" y1="134.936%" x2="130.239%" y2="-27.7%" id="a"><stop stop-color="#00AEFF" offset="0%"/><stop stop-color="#3369E7" offset="100%"/></linearGradient></defs><g fill="none"><path d="M12.614 0h70.571c6.947 0 12.614 5.637 12.614 12.611V83.19c0 6.945-5.639 12.611-12.614 12.611H12.614C5.667 95.801 0 90.164 0 83.19V12.582C0 5.637 5.639 0 12.614 0z" fill="url(#a)"/><path d="M49.202 24.321c-14.964 0-27.105 12.117-27.105 27.081 0 14.964 12.14 27.052 27.105 27.052 14.964 0 27.105-12.117 27.105-27.081 0-14.964-12.111-27.052-27.105-27.052zm0 46.142c-10.539 0-19.098-8.543-19.098-19.061 0-10.519 8.559-19.061 19.098-19.061S68.3 40.884 68.3 51.402c0 10.519-8.53 19.061-19.098 19.061zm0-34.229v14.209c0 .407.437.697.815.494l12.635-6.538c.291-.145.378-.494.233-.785a15.728 15.728 0 0 0-13.101-7.933c-.291 0-.582.232-.582.552zM31.501 25.803l-1.659-1.656a4.153 4.153 0 0 0-5.881 0l-1.98 1.976a4.133 4.133 0 0 0 0 5.869l1.63 1.627c.262.262.64.203.873-.058a32.015 32.015 0 0 1 3.173-3.719 29.932 29.932 0 0 1 3.756-3.196c.291-.174.32-.581.087-.843zm26.581-4.3V18.22a4.158 4.158 0 0 0-4.163-4.155h-9.695c-2.3 0-4.163 1.86-4.163 4.155v3.371c0 .378.349.639.728.552a30.381 30.381 0 0 1 8.443-1.191c2.766 0 5.502.378 8.152 1.104a.564.564 0 0 0 .699-.552z" fill="#fff"/><path d="M240.04 73.397c0 7.758-1.98 13.424-5.968 17.027-3.989 3.603-10.073 5.405-18.283 5.405-2.999 0-9.229-.581-14.207-1.685l1.834-9.008c4.163.872 9.666 1.104 12.548 1.104 4.571 0 7.832-.93 9.782-2.789 1.951-1.86 2.911-4.62 2.911-8.281v-1.86c-1.135.552-2.62 1.104-4.454 1.685-1.834.552-3.959.843-6.347.843-3.144 0-5.997-.494-8.588-1.482-2.591-.988-4.833-2.441-6.667-4.359-1.834-1.918-3.29-4.329-4.309-7.206-1.019-2.877-1.543-8.02-1.543-11.797 0-3.545.553-7.991 1.63-10.954 1.106-2.964 2.678-5.521 4.804-7.642 2.096-2.121 4.658-3.748 7.657-4.94 2.999-1.191 6.521-1.947 10.335-1.947 3.697 0 7.104.465 10.423 1.017 3.319.552 6.143 1.133 8.443 1.772v45.096zm-31.646-22.432c0 4.765 1.048 10.054 3.144 12.262s4.804 3.312 8.123 3.312a17.37 17.37 0 0 0 5.124-.755c1.601-.494 2.882-1.075 3.901-1.772V35.798c-.815-.174-4.221-.872-7.511-.959-4.134-.116-7.278 1.569-9.491 4.271-2.184 2.702-3.29 7.439-3.29 11.855zm85.681 0c0 3.835-.553 6.741-1.689 9.908-1.135 3.167-2.737 5.869-4.804 8.107-2.067 2.237-4.542 3.981-7.453 5.201-2.911 1.22-7.395 1.918-9.637 1.918-2.242-.029-6.696-.668-9.578-1.918-2.882-1.249-5.357-2.964-7.424-5.201-2.067-2.237-3.668-4.94-4.833-8.107-1.165-3.167-1.747-6.073-1.747-9.908 0-3.835.524-7.526 1.689-10.664s2.795-5.811 4.891-8.049c2.096-2.237 4.6-3.952 7.453-5.172 2.882-1.22 6.056-1.802 9.491-1.802 3.435 0 6.609.61 9.52 1.802 2.911 1.22 5.415 2.935 7.453 5.172 2.067 2.237 3.668 4.911 4.833 8.049 1.223 3.138 1.834 6.828 1.834 10.664zm-11.645.029c0-4.911-1.077-9.008-3.173-11.855-2.096-2.877-5.037-4.3-8.792-4.3-3.756 0-6.696 1.424-8.792 4.3-2.096 2.877-3.115 6.945-3.115 11.855 0 4.969 1.048 8.31 3.144 11.187 2.096 2.906 5.037 4.329 8.792 4.329 3.756 0 6.696-1.453 8.792-4.329 2.096-2.906 3.144-6.218 3.144-11.187zm37.003 25.105c-18.662.087-18.662-15.051-18.662-17.463l-.029-53.697 11.383-1.802v53.348c0 1.366 0 10.025 7.307 10.054v9.56zm20.059 0H328.05V27.051l11.442-1.802v50.849zm-5.735-56.225c3.814 0 6.929-3.08 6.929-6.886s-3.086-6.886-6.929-6.886c-3.843 0-6.929 3.08-6.929 6.886s3.115 6.886 6.929 6.886zm34.179 5.405c3.756 0 6.929.465 9.491 1.395 2.562.93 4.629 2.237 6.143 3.894 1.514 1.656 2.591 3.923 3.232 6.305.67 2.383.99 4.998.99 7.874v29.231c-1.747.378-4.396.814-7.948 1.337-3.552.523-7.54.785-11.966.785-2.94 0-5.648-.291-8.064-.843-2.446-.552-4.513-1.453-6.259-2.702-1.718-1.249-3.057-2.848-4.047-4.823-.961-1.976-1.456-4.765-1.456-7.671 0-2.789.553-4.562 1.63-6.48a13.789 13.789 0 0 1 4.454-4.707c1.892-1.22 4.047-2.092 6.521-2.615a37.437 37.437 0 0 1 7.744-.785c1.252 0 2.562.087 3.959.232 1.397.145 2.853.407 4.425.785v-1.86c0-1.308-.146-2.557-.466-3.719a7.97 7.97 0 0 0-1.63-3.109c-.786-.901-1.805-1.598-3.086-2.092s-2.911-.872-4.862-.872c-2.62 0-5.008.32-7.191.697-2.184.378-3.989.814-5.357 1.308l-1.368-9.327c1.427-.494 3.552-.988 6.288-1.482 2.737-.494 5.677-.755 8.821-.755zm.961 41.232c3.494 0 6.085-.203 7.89-.552V54.394a23.243 23.243 0 0 0-2.737-.552 27.24 27.24 0 0 0-3.959-.291c-1.252 0-2.533.087-3.814.291-1.281.174-2.446.523-3.464 1.017-1.019.494-1.863 1.191-2.475 2.092-.64.901-.932 1.424-.932 2.789 0 2.673.932 4.213 2.62 5.23 1.718 1.046 3.989 1.54 6.871 1.54zM144.083 25.57c3.756 0 6.929.465 9.491 1.395 2.562.93 4.629 2.237 6.143 3.894 1.543 1.685 2.591 3.923 3.232 6.305.67 2.383.99 4.998.99 7.874v29.231c-1.747.378-4.396.814-7.948 1.337-3.552.523-7.54.785-11.966.785-2.94 0-5.648-.291-8.064-.843-2.446-.552-4.513-1.453-6.259-2.702-1.718-1.249-3.057-2.848-4.047-4.823-.961-1.976-1.456-4.765-1.456-7.671 0-2.789.553-4.562 1.63-6.48a13.789 13.789 0 0 1 4.454-4.707c1.892-1.22 4.047-2.092 6.521-2.615a37.437 37.437 0 0 1 7.744-.785c1.252 0 2.562.087 3.959.232 1.368.145 2.853.407 4.425.785v-1.86c0-1.308-.146-2.557-.466-3.719a7.97 7.97 0 0 0-1.63-3.109c-.786-.901-1.805-1.598-3.086-2.092s-2.911-.872-4.862-.872c-2.62 0-5.008.32-7.191.697-2.184.378-3.989.814-5.357 1.308l-1.368-9.327c1.427-.494 3.552-.988 6.288-1.482 2.737-.523 5.677-.755 8.821-.755zm.99 41.261c3.494 0 6.085-.203 7.89-.552V54.714a23.243 23.243 0 0 0-2.737-.552 27.24 27.24 0 0 0-3.959-.291c-1.252 0-2.533.087-3.814.291-1.281.174-2.446.523-3.464 1.017-1.019.494-1.863 1.191-2.475 2.092-.64.901-.932 1.424-.932 2.789 0 2.673.932 4.213 2.62 5.23 1.689 1.017 3.989 1.54 6.871 1.54zm46.145 9.269c-18.662.087-18.662-15.051-18.662-17.463l-.029-53.697 11.383-1.802v53.348c0 1.366 0 10.025 7.307 10.054v9.56z" fill="#182359"/></g></svg>