<svg version="1" id="Layer_1" xmlns="http://www.w3.org/2000/svg" viewBox="0 0 125.7 126"><style>.st0{fill:#fff}</style><path class="st0" d="M78.1 51c3.7-3.1 6.4-7.3 7.6-12 .6-2.1.8-4.2.8-6.3h-8.6c0 3.9-1.5 7.8-4.5 10.8-6 6-15.7 6-21.6 0-3-3-4.5-6.9-4.5-10.8h-9c0 10.6 7.1 20.3 17.9 23.2 4.7 1.3 9.7 1.1 14.3-.5l8.3 14.3c.6 1 1.5 1.7 2.6 2 2.3.6 4.7-.8 5.4-3.1.3-1.1.1-2.3-.5-3.3L78.1 51zM116 79.3c-9.4-9.4-24.6-9.3-34 .1-3.5 3.4-5.8 7.9-6.7 12.7H58.7c-1.1 0-2.2.5-3.1 1.3-1.7 1.7-1.7 4.5 0 6.2.8.8 2 1.3 3.1 1.3h16.5c.9 4.8 3.2 9.2 6.6 12.6 9.4 9.4 24.6 9.3 34-.1 9.5-9.5 9.5-24.7.2-34.1zm-6.3 27.9c-6 6-15.7 6-21.6 0-6-6-5.9-15.7 0-21.6 6-6 15.7-6 21.6 0 6 5.9 6 15.6 0 21.6zM32.2 119.6c12.8-3.4 20.4-16.6 17-29.5-1.3-4.7-3.9-8.9-7.6-12.1l8.3-14.4c.6-1 .7-2.2.4-3.3-.6-2.3-3-3.7-5.4-3.1-1.1.3-2.1 1.1-2.6 2L34 73.6c-4.6-1.6-9.5-1.8-14.2-.6C7 76.4-.6 89.6 2.8 102.5c3.4 12.9 16.6 20.5 29.4 17.1zm-21-19.4C9 92.1 13.9 83.7 22 81.5c8.1-2.2 16.5 2.7 18.7 10.9 2.2 8.2-2.6 16.6-10.8 18.8-8.1 2.1-16.5-2.8-18.7-11zM77.2 13.7l4.3-6.6c.4-.7.3-1.6-.4-2-.7-.4-1.6-.3-2 .4L74.8 12c-1.9-1.1-3.9-2-6.1-2.6-6.6-1.6-13.1-.6-18.5 2.6L46 5.6c-.4-.7-1.3-.9-2-.4-.7.4-.9 1.3-.4 2l4.2 6.4c-4.1 3.1-7.2 7.5-8.7 12.9-.1.2-.1.4-.2.6h46.9c-1.3-5.3-4.3-10-8.6-13.4zm-25.5 8.2c-1.5 0-2.8-1.3-2.8-2.8 0-1.5 1.3-2.8 2.8-2.8s2.8 1.3 2.8 2.8c0 1.5-1.2 2.8-2.8 2.8zm21.5 0c-1.5 0-2.8-1.3-2.8-2.8 0-1.5 1.3-2.8 2.8-2.8s2.8 1.3 2.8 2.8c0 1.5-1.2 2.8-2.8 2.8z"/></svg>