<svg xmlns="http://www.w3.org/2000/svg" width="519" height="339" viewBox="0 0 519 339"><defs><linearGradient id="a" x1="49.998%" x2="49.998%" y1="100.027%" y2=".025%"><stop offset="0%" stop-color="#3D386B"/><stop offset="100%" stop-color="#211E39"/></linearGradient><linearGradient id="b" x1="49.998%" x2="49.998%" y1="100%" y2=".024%"><stop offset="0%" stop-color="#3D386B"/><stop offset="100%" stop-color="#211E39"/></linearGradient><linearGradient id="c" x1="-.02%" x2="100.012%" y1="49.967%" y2="49.967%"><stop offset="0%" stop-color="#3D386B"/><stop offset="100%" stop-color="#211E39"/></linearGradient><linearGradient id="d" x1="49.998%" x2="49.998%" y1="100%" y2=".024%"><stop offset="0%" stop-color="#FCFCFE"/><stop offset="96.99%" stop-color="#C6C6EF"/></linearGradient><linearGradient id="e" x1="-.02%" x2="100.012%" y1="49.967%" y2="49.967%"><stop offset="0%" stop-color="#FCFCFE"/><stop offset="96.99%" stop-color="#C6C6EF"/></linearGradient><linearGradient id="f" x1="57.516%" x2="57.516%" y1="-12.695%" y2="100%"><stop offset="0%" stop-color="#4DBA87"/><stop offset="100%" stop-color="#85E8B9"/></linearGradient><linearGradient id="g" x1="57.516%" x2="57.516%" y1="-12.695%" y2="100%"><stop offset="0%" stop-color="#4DBA87"/><stop offset="100%" stop-color="#59B78B"/></linearGradient></defs><g fill="none" fill-rule="evenodd"><path fill="url(#a)" fill-rule="nonzero" d="M171.1 215L7.6 266.4l228.8 71.9L400 287z" opacity=".1" transform="translate(1)"/><g fill-rule="nonzero"><path fill="url(#b)" d="M169.9 0L.2 53.3 238 129l169.4-54.3z" transform="translate(1 174)"/><path fill="url(#c)" d="M237.7 137.9l169.7-53.3v-9.9L237.7 128z" transform="translate(1 174)"/><path fill="#201C38" d="M238.7 311.9L1.2 237.2v-9.9L238.7 302z"/></g><g fill="#726AC9" fill-rule="nonzero"><path d="M76.6 215.3L52.1 223c-.5.1-1.3.1-1.9 0-.6-.2-.7-.4-.2-.6l24.5-7.7c.5-.1 1.3-.1 1.9 0 .6.2.7.4.2.6zm-4.3 4.5l-4.8 1.5c-.5.1-1.3.1-1.9 0-.6-.2-.7-.4-.2-.6l4.8-1.5c.5-.1 1.3-.1 1.9 0 .6.2.7.5.2.6zm80.6-25.3l-18.3 5.7c-.5.1-1.3.1-1.9 0-.6-.2-.7-.4-.2-.6l18.3-5.7c.5-.1 1.3-.1 1.9 0 .6.2.7.4.2.6zM129.5 205l-12.1 3.8c-.5.1-1.3.1-1.9 0-.6-.2-.7-.4-.2-.6l12.1-3.8c.5-.1 1.3-.1 1.9 0 .6.2.7.5.2.6zm-14.2 10.9l-9.8 3.1c-.5.1-1.3.1-1.9 0-.6-.2-.7-.4-.2-.6l9.8-3.1c.5-.1 1.3-.1 1.9 0 .6.2.7.5.2.6zm75.6-23.7l-18.3 5.7c-.5.1-1.3.1-1.9 0-.6-.2-.7-.4-.2-.6l18.3-5.7c.5-.1 1.3-.1 1.9 0 .6.2.7.4.2.6zm-31.7 13.1l-26.1 8.2c-.5.1-1.3.1-1.9 0-.6-.2-.7-.4-.2-.6l26.1-8.2c.5-.1 1.3-.1 1.9 0 .6.2.7.5.2.6zm-59 21.8l-6.8 2.1c-.5.1-1.3.1-1.9 0-.6-.2-.7-.4-.2-.6l6.8-2.1c.5-.1 1.3-.1 1.9 0 .6.2.7.4.2.6zm101.1-31.8l-7.1 2.2c-.5.1-1.3.1-1.9 0-.6-.2-.7-.4-.2-.6l7.1-2.2c.5-.1 1.3-.1 1.9 0 .6.2.7.5.2.6zm-92.8 32.4L89 233.8c-.5.1-1.3.1-1.9 0-.6-.2-.7-.4-.2-.6l19.5-6.1c.5-.1 1.3-.1 1.9 0 .5.2.6.5.2.6zM95 238.5l-8.1 2.6c-.5.1-1.3.1-1.9 0-.6-.2-.7-.4-.2-.6l8.1-2.6c.5-.1 1.3-.1 1.9 0 .6.2.7.4.2.6zm47.1-14.8l-14.3 4.5c-.5.1-1.3.1-1.9 0-.6-.2-.7-.4-.2-.6l14.3-4.5c.5-.1 1.3-.1 1.9 0 .6.2.7.4.2.6zm57.8-15l-18.3 5.7c-.5.1-1.3.1-1.9 0-.6-.2-.7-.4-.2-.6l18.3-5.7c.5-.1 1.3-.1 1.9 0 .6.2.7.5.2.6zm-70 25.2l-10.3 3.2c-.5.1-1.3.1-1.9 0-.6-.2-.7-.4-.2-.6l10.3-3.2c.5-.1 1.3-.1 1.9 0 .6.2.7.5.2.6zm57.3-18l-6.5 2.1c-.5.1-1.3.1-1.9 0-.6-.2-.7-.4-.2-.6l6.5-2.1c.5-.1 1.3-.1 1.9 0 .6.2.7.5.2.6zm-24.9 14.3l-9.8 3.1c-.5.1-1.3.1-1.9 0-.6-.2-.7-.4-.2-.6l9.8-3.1c.5-.1 1.3-.1 1.9 0 .6.1.7.4.2.6zm75.6-23.8l-18.3 5.7c-.5.1-1.3.1-1.9 0-.6-.2-.7-.4-.2-.6l18.3-5.7c.5-.1 1.3-.1 1.9 0 .6.2.7.4.2.6zm-62 22.7l-18.3 5.7c-.5.1-1.3.1-1.9 0-.6-.2-.7-.4-.2-.6l18.3-5.7c.5-.1 1.3-.1 1.9 0 .6.2.7.4.2.6zm44.8-14.1l-10.4 3.3c-.5.1-1.3.1-1.9 0-.6-.2-.7-.4-.2-.6l10.4-3.3c.5-.1 1.3-.1 1.9 0 .6.2.7.5.2.6zm27.6-5.5l-7.1 2.2c-.5.1-1.3.1-1.9 0-.6-.2-.7-.4-.2-.6l7.1-2.2c.5-.1 1.3-.1 1.9 0 .6.2.6.5.2.6zm-62 22.7l-26.7 8.4c-.5.1-1.3.1-1.9 0-.6-.2-.7-.4-.2-.6l26.7-8.4c.5-.1 1.3-.1 1.9 0 .6.2.7.5.2.6zM48 224.3l-8.1 2.6c-.5.1-1.3.1-1.9 0-.6-.2-.7-.4-.2-.6l8.1-2.6c.5-.1 1.3-.1 1.9 0 .6.2.7.4.2.6zm47.1-14.8L80.8 214c-.5.1-1.3.1-1.9 0-.6-.2-.7-.4-.2-.6l14.3-4.5c.5-.1 1.3-.1 1.9 0 .6.2.7.4.2.6zm30.2-9.5l-26.1 8.2c-.5.1-1.3.1-1.9 0-.6-.2-.7-.4-.2-.6l26.1-8.2c.5-.1 1.3-.1 1.9 0 .6.1.7.4.2.6zm-92 28.3c.8.2.9.6.3.8-.7.2-1.9.2-2.7-.1-.8-.2-.9-.6-.3-.8.7-.2 1.9-.2 2.7.1zm71.1-18.5l-27.9 8.8c-.5.1-1.3.1-1.9 0-.6-.2-.7-.4-.2-.6l27.9-8.8c.5-.1 1.3-.1 1.9 0 .6.1.6.4.2.6zm26.1-8.3l-22 6.9c-.5.1-1.3.1-1.9 0-.6-.2-.7-.4-.2-.6l22-6.9c.5-.1 1.3-.1 1.9 0 .6.2.7.5.2.6zm-92 28.3c.8.2.9.6.3.8-.7.2-1.9.2-2.7-.1-.8-.3-.9-.6-.3-.8.7-.1 1.9-.1 2.7.1zM83 219.7l-10.3 3.2c-.5.1-1.3.1-1.9 0-.6-.2-.7-.4-.2-.6l10.3-3.2c.5-.1 1.3-.1 1.9 0 .5.2.6.4.2.6zm30.3-9.6l-26.2 8.3c-.5.1-1.3.1-1.9 0-.6-.2-.7-.4-.2-.6l26.2-8.3c.5-.1 1.3-.1 1.9 0 .6.2.7.5.2.6zm44.8-14l-24.4 7.7c-.5.1-1.3.1-1.9 0-.6-.2-.7-.4-.2-.6l24.4-7.7c.5-.1 1.3-.1 1.9 0 .6.2.7.4.2.6zM43.7 231.4c.8.2.9.6.3.8-.7.2-1.9.2-2.7-.1-.8-.2-.9-.6-.3-.8.6-.2 1.9-.1 2.7.1zm74.8-19.7l-18.3 5.7c-.5.1-1.3.1-1.9 0-.6-.2-.7-.4-.2-.6l18.3-5.7c.5-.1 1.3-.1 1.9 0 .6.2.7.5.2.6zm22.4-7l-18.3 5.7c-.5.1-1.3.1-1.9 0-.6-.2-.7-.4-.2-.6l18.3-5.7c.5-.1 1.3-.1 1.9 0 .6.2.7.4.2.6zm-92 28.3c.8.2.9.6.3.8-.7.2-1.9.2-2.7-.1-.8-.2-.9-.6-.3-.8.7-.2 1.9-.2 2.7.1zm91-24.8l-20.5 6.4c-.5.1-1.3.1-1.9 0-.6-.2-.7-.4-.2-.6l20.5-6.4c.5-.1 1.3-.1 1.9 0 .6.2.7.4.2.6zm28.6-9l-24.4 7.7c-.5.1-1.3.1-1.9 0-.6-.2-.7-.4-.2-.6l24.4-7.7c.5-.1 1.3-.1 1.9 0 .6.2.7.5.2.6zM54.1 234.5c.8.2.9.6.3.8-.7.2-1.9.2-2.7-.1-.8-.2-.9-.6-.3-.8.7-.1 1.9-.1 2.7.1zm74.8-19.6l-18.3 5.7c-.5.1-1.3.1-1.9 0-.6-.2-.7-.4-.2-.6l18.3-5.7c.5-.1 1.3-.1 1.9 0 .6.2.7.4.2.6zm44.8-14.1l-10.4 3.3c-.5.1-1.3.1-1.9 0-.6-.2-.7-.4-.2-.6l10.4-3.3c.5-.1 1.3-.1 1.9 0 .6.2.7.4.2.6zM59.3 236.1c.8.2.9.6.3.8-.6.2-1.9.2-2.7-.1-.8-.2-.9-.6-.3-.8.7-.2 1.9-.1 2.7.1zm68.9-17.8l-23.8 7.5c-.5.1-1.3.1-1.9 0-.6-.2-.7-.4-.2-.6l23.8-7.5c.5-.1 1.3-.1 1.9 0 .6.2.6.5.2.6zm28.3-8.9l-24.2 7.6c-.5.1-1.3.1-1.9 0-.6-.2-.7-.4-.2-.6l24.2-7.6c.5-.1 1.3-.1 1.9 0 .6.2.7.4.2.6zm33.6-10.6l-29.4 9.3c-.5.1-1.3.1-1.9 0-.6-.2-.7-.4-.2-.6l29.4-9.3c.5-.1 1.3-.1 1.9 0 .6.2.6.5.2.6zM64.5 237.7c.8.2.9.6.3.8-.7.2-1.9.2-2.7-.1-.8-.2-.9-.6-.3-.8.7-.2 1.9-.2 2.7.1zm20.3-2.6l-8.5 2.7c-.5.1-1.3.1-1.9 0-.6-.2-.7-.4-.2-.6l8.5-2.7c.5-.1 1.3-.1 1.9 0 .6.2.7.5.2.6zm54.5-17.1l-26.7 8.4c-.5.1-1.3.1-1.9 0-.6-.2-.7-.4-.2-.6l26.7-8.4c.5-.1 1.3-.1 1.9 0 .6.2.7.5.2.6zm-69.6 21.3c.8.2.9.6.3.8-.7.2-1.9.2-2.7-.1-.8-.2-.9-.6-.3-.8.7-.2 1.9-.2 2.7.1zm5.2 1.5c.8.2.9.6.3.8-.6.2-1.9.2-2.7-.1-.8-.2-.9-.6-.3-.8.7-.1 1.9-.1 2.7.1zm48.7-11.3l-24.5 7.7c-.5.1-1.3.1-1.9 0-.6-.2-.7-.4-.2-.6l24.5-7.7c.5-.1 1.3-.1 1.9 0 .6.2.7.4.2.6zm48.7-15.3l-26.1 8.2c-.5.1-1.3.1-1.9 0-.6-.2-.7-.4-.2-.6l26.1-8.2c.5-.1 1.3-.1 1.9 0 .6.2.7.4.2.6zm-92 28.3c.8.2.9.6.3.8-.7.2-1.9.2-2.7-.1-.8-.2-.9-.6-.3-.8.6-.2 1.9-.2 2.7.1zm39-8.5l-4.8 1.5c-.5.1-1.3.1-1.9 0-.6-.2-.7-.4-.2-.6l4.8-1.5c.5-.1 1.3-.1 1.9 0 .6.2.7.5.2.6zm32.1-10l-27.9 8.8c-.5.1-1.3.1-1.9 0-.6-.2-.7-.4-.2-.6l27.9-8.8c.5-.1 1.3-.1 1.9 0 .6.2.6.4.2.6zm26.1-8.2l-22 6.9c-.5.1-1.3.1-1.9 0-.6-.2-.7-.4-.2-.6l22-6.9c.5-.1 1.3-.1 1.9 0 .6.1.7.4.2.6zm-92 28.2c.8.2.9.6.3.8-.7.2-1.9.2-2.7-.1-.8-.2-.9-.6-.3-.8.7-.1 1.9-.1 2.7.1zm74.8-19.6l-26.2 8.3c-.5.1-1.3.1-1.9 0-.6-.2-.7-.4-.2-.6l26.2-8.3c.5-.1 1.3-.1 1.9 0 .6.2.7.4.2.6zm16.2-5.1l-12.1 3.8c-.5.1-1.3.1-1.9 0-.6-.2-.7-.4-.2-.6l12.1-3.8c.5-.1 1.3-.1 1.9 0 .6.2.7.4.2.6zm-85.8 26.3c.8.2.9.6.3.8-.7.2-1.9.2-2.7-.1-.8-.2-.9-.6-.3-.8.7-.2 1.9-.1 2.7.1zm74.8-19.7l-18.3 5.7c-.5.1-1.3.1-1.9 0-.6-.2-.7-.4-.2-.6l18.3-5.7c.5-.1 1.3-.1 1.9 0 .6.2.7.5.2.6zm22.4-7l-18.3 5.7c-.5.1-1.3.1-1.9 0-.6-.2-.7-.4-.2-.6l18.3-5.7c.5-.1 1.3-.1 1.9 0 .6.2.7.4.2.6zm-92 28.3c.8.2.9.6.3.8-.6.2-1.9.2-2.7-.1-.8-.2-.9-.6-.3-.8.7-.2 1.9-.2 2.7.1zm91-24.8l-20.5 6.4c-.5.1-1.3.1-1.9 0-.6-.2-.7-.4-.2-.6l20.5-6.4c.5-.1 1.3-.1 1.9 0 .6.2.7.5.2.6zm28.6-9l-24.4 7.7c-.5.1-1.3.1-1.9 0-.6-.2-.7-.4-.2-.6l24.4-7.7c.5-.1 1.3-.1 1.9 0 .6.2.7.5.2.6zm-114.4 35.4c.8.2.9.6.3.8-.7.2-1.9.2-2.7-.1-.8-.2-.9-.6-.3-.8.6-.2 1.9-.2 2.7.1zm105.1-29.2l-26.1 8.2c-.5.1-1.3.1-1.9 0-.6-.2-.7-.4-.2-.6l26.1-8.2c.5-.1 1.3-.1 1.9 0 .6.2.7.4.2.6zm-99.9 30.7c.8.2.9.6.3.8-.7.2-1.9.2-2.7-.1-.8-.2-.9-.6-.3-.8.7-.1 1.9-.1 2.7.1zm40.9-9l-6.8 2.1c-.5.1-1.3.1-1.9 0-.6-.2-.7-.4-.2-.6l6.8-2.1c.5-.1 1.3-.1 1.9 0 .6.2.7.5.2.6zm28-8.8l-23.8 7.5c-.5.1-1.3.1-1.9 0-.6-.2-.7-.4-.2-.6l23.8-7.5c.5-.1 1.3-.1 1.9 0 .6.2.6.5.2.6zm28.3-8.9l-24.2 7.6c-.5.1-1.3.1-1.9 0-.6-.2-.7-.4-.2-.6l24.2-7.6c.5-.1 1.3-.1 1.9 0 .6.2.7.5.2.6zm33.6-10.5l-29.4 9.3c-.5.1-1.3.1-1.9 0-.6-.2-.7-.4-.2-.6l29.4-9.3c.5-.1 1.3-.1 1.9 0 .5.2.6.4.2.6zm-125.6 38.8c.8.2.9.6.3.8-.7.2-1.9.2-2.7-.1-.8-.2-.9-.6-.3-.8.7-.2 1.9-.1 2.7.1zm20.3-2.5l-8.5 2.7c-.5.1-1.3.1-1.9 0-.6-.2-.7-.4-.2-.6l8.5-2.7c.5-.1 1.3-.1 1.9 0 .6.2.6.4.2.6zm23.6-7.5l-19.5 6.1c-.5.1-1.3.1-1.9 0-.6-.2-.7-.4-.2-.6l19.5-6.1c.5-.1 1.3-.1 1.9 0 .6.2.7.5.2.6zm-38.7 11.6c.8.2.9.6.3.8-.7.2-1.9.2-2.7-.1-.8-.2-.9-.6-.3-.8.6-.2 1.8-.2 2.7.1zm5.2 1.6c.8.2.9.6.3.8-.7.2-1.9.2-2.7-.1-.8-.2-.9-.6-.3-.8.6-.2 1.8-.2 2.7.1zm18-2.2l-6.8 2.1c-.5.1-1.3.1-1.9 0-.6-.2-.7-.4-.2-.6l6.8-2.1c.5-.1 1.3-.1 1.9 0 .6.2.7.5.2.6zm27.9-8.8l-23.8 7.5c-.5.1-1.3.1-1.9 0-.6-.2-.7-.4-.2-.6l23.8-7.5c.5-.1 1.3-.1 1.9 0 .6.2.7.5.2.6zm-41.3 12.4c.8.2.9.6.3.8-.7.2-1.9.2-2.7-.1-.8-.2-.9-.6-.3-.8.7-.2 1.9-.2 2.7.1zm20.3-2.6l-8.5 2.7c-.5.1-1.3.1-1.9 0-.6-.2-.7-.4-.2-.6l8.5-2.7c.5-.1 1.3-.1 1.9 0 .6.2.7.5.2.6zm39.7-12.4L151 252.6c-.5.1-1.3.1-1.9 0-.6-.2-.7-.4-.2-.6l35.6-11.2c.5-.1 1.3-.1 1.9 0 .5.2.6.5.1.7zm14.9-4.7l-10.7 3.4c-.5.1-1.3.1-1.9 0-.6-.2-.7-.4-.2-.6l10.7-3.4c.5-.1 1.3-.1 1.9 0 .6.2.6.4.2.6zM131.7 258c.8.2.9.6.3.8-.7.2-1.9.2-2.7-.1-.8-.2-.9-.6-.3-.8.7-.1 1.9-.1 2.7.1zM180.3 246.6l-24.5 7.7c-.5.1-1.3.1-1.9 0-.6-.2-.7-.4-.2-.6l24.5-7.7c.5-.1 1.3-.1 1.9 0 .6.2.7.5.2.6zm-4.3 4.6l-4.8 1.5c-.5.1-1.3.1-1.9 0-.6-.2-.7-.4-.2-.6l4.8-1.5c.5-.1 1.3-.1 1.9 0 .6.2.6.4.2.6zm80.5-25.3l-18.3 5.7c-.5.1-1.3.1-1.9 0-.6-.2-.7-.4-.2-.6l18.3-5.7c.5-.1 1.3-.1 1.9 0 .6.1.7.4.2.6zm-23.3 10.5l-12.1 3.8c-.5.1-1.3.1-1.9 0-.6-.2-.7-.4-.2-.6l12.1-3.8c.5-.1 1.3-.1 1.9 0 .6.2.6.5.2.6zm-14.3 10.9l-9.8 3.1c-.5.1-1.3.1-1.9 0-.6-.2-.7-.4-.2-.6l9.8-3.1c.5-.1 1.3-.1 1.9 0 .6.2.7.4.2.6zm75.6-23.8l-18.3 5.7c-.5.1-1.3.1-1.9 0-.6-.2-.7-.4-.2-.6l18.3-5.7c.5-.1 1.3-.1 1.9 0 .6.2.7.5.2.6zm-31.7 13.2l-26.1 8.2c-.5.1-1.3.1-1.9 0-.6-.2-.7-.4-.2-.6l26.1-8.2c.5-.1 1.3-.1 1.9 0 .6.2.7.5.2.6zm-59 21.8l-6.8 2.1c-.5.1-1.3.1-1.9 0-.6-.2-.7-.4-.2-.6l6.8-2.1c.5-.1 1.3-.1 1.9 0 .6.1.7.4.2.6zm101.1-31.8l-7.1 2.2c-.5.1-1.3.1-1.9 0-.6-.2-.7-.4-.2-.6l7.1-2.2c.5-.1 1.3-.1 1.9 0 .6.2.7.4.2.6zm-92.8 32.4l-19.5 6.1c-.5.1-1.3.1-1.9 0-.6-.2-.7-.4-.2-.6l19.5-6.1c.5-.1 1.3-.1 1.9 0 .6.2.7.4.2.6zm-13.4 10.7l-8.1 2.6c-.5.1-1.3.1-1.9 0-.6-.2-.7-.4-.2-.6l8.1-2.6c.5-.1 1.3-.1 1.9 0 .5.2.6.5.2.6zm47-14.8l-14.3 4.5c-.5.1-1.3.1-1.9 0-.6-.2-.7-.4-.2-.6l14.3-4.5c.5-.1 1.3-.1 1.9 0 .6.2.7.5.2.6zm57.8-14.9l-18.3 5.7c-.5.1-1.3.1-1.9 0-.6-.2-.7-.4-.2-.6l18.3-5.7c.5-.1 1.3-.1 1.9 0 .6.2.7.4.2.6zm-69.9 25.2l-10.3 3.2c-.5.1-1.3.1-1.9 0-.6-.2-.7-.4-.2-.6l10.3-3.2c.5-.1 1.3-.1 1.9 0 .6.2.6.4.2.6zm57.2-18l-6.5 2.1c-.5.1-1.3.1-1.9 0-.6-.2-.7-.4-.2-.6l6.5-2.1c.5-.1 1.3-.1 1.9 0 .6.2.7.4.2.6zm-24.9 14.2l-9.8 3.1c-.5.1-1.3.1-1.9 0-.6-.2-.7-.4-.2-.6l9.8-3.1c.5-.1 1.3-.1 1.9 0 .6.2.7.5.2.6zm75.6-23.7l-18.3 5.7c-.5.1-1.3.1-1.9 0-.6-.2-.7-.4-.2-.6l18.3-5.7c.5-.1 1.3-.1 1.9 0 .6.1.7.4.2.6zm-62 22.6l-18.3 5.7c-.5.1-1.3.1-1.9 0-.6-.2-.7-.4-.2-.6l18.3-5.7c.5-.1 1.3-.1 1.9 0 .6.2.7.5.2.6zm44.8-14l-10.4 3.3c-.5.1-1.3.1-1.9 0-.6-.2-.7-.4-.2-.6l10.4-3.3c.5-.1 1.3-.1 1.9 0 .6.2.7.4.2.6zm27.6-5.5l-7.1 2.2c-.5.1-1.3.1-1.9 0-.6-.2-.7-.4-.2-.6l7.1-2.2c.5-.1 1.3-.1 1.9 0 .6.2.7.4.2.6zm-62 22.7l-26.7 8.4c-.5.1-1.3.1-1.9 0-.6-.2-.7-.4-.2-.6l26.7-8.4c.5-.1 1.3-.1 1.9 0 .6.2.7.4.2.6zm-138.2-8l-8.1 2.6c-.5.1-1.3.1-1.9 0-.6-.2-.7-.4-.2-.6l8.1-2.6c.5-.1 1.3-.1 1.9 0 .6.2.6.5.2.6zm47-14.8l-14.3 4.5c-.5.1-1.3.1-1.9 0-.6-.2-.7-.4-.2-.6l14.3-4.5c.5-.1 1.3-.1 1.9 0 .6.2.7.5.2.6zm30.3-9.5l-26.1 8.2c-.5.1-1.3.1-1.9 0-.6-.2-.7-.4-.2-.6l26.1-8.2c.5-.1 1.3-.1 1.9 0 .6.2.6.5.2.6zm-92.1 28.3c.8.2.9.6.3.8-.6.2-1.9.2-2.7-.1-.8-.2-.9-.6-.3-.8.7-.2 1.9-.1 2.7.1zm71.1-18.5l-27.9 8.8c-.5.1-1.3.1-1.9 0-.6-.2-.7-.4-.2-.6l27.9-8.8c.5-.1 1.3-.1 1.9 0 .6.2.7.5.2.6zm26.2-8.2l-22 6.9c-.5.1-1.3.1-1.9 0-.6-.2-.7-.4-.2-.6l22-6.9c.5-.1 1.3-.1 1.9 0 .5.2.6.4.2.6zm-92.1 28.3c.8.2.9.6.3.8-.7.2-1.9.2-2.7-.1-.8-.2-.9-.6-.3-.8.6-.2 1.9-.2 2.7.1zm44.5-10.1l-10.3 3.2c-.5.1-1.3.1-1.9 0-.6-.2-.7-.4-.2-.6l10.3-3.2c.5-.1 1.3-.1 1.9 0 .6.1.7.4.2.6zm30.4-9.6l-26.2 8.3c-.5.1-1.3.1-1.9 0-.6-.2-.7-.4-.2-.6l26.2-8.3c.5-.1 1.3-.1 1.9 0 .6.2.6.5.2.6zm44.7-14.1l-24.4 7.7c-.5.1-1.3.1-1.9 0-.6-.2-.7-.4-.2-.6l24.4-7.7c.5-.1 1.3-.1 1.9 0 .6.2.7.5.2.6zm-114.4 35.4c.8.2.9.6.3.8-.7.2-1.9.2-2.7-.1-.8-.2-.9-.6-.3-.8.6-.2 1.9-.2 2.7.1zm74.9-19.7l-18.3 5.7c-.5.1-1.3.1-1.9 0-.6-.2-.7-.4-.2-.6l18.3-5.7c.5-.1 1.3-.1 1.9 0 .5.2.6.4.2.6zm22.3-7.1l-18.3 5.7c-.5.1-1.3.1-1.9 0-.6-.2-.7-.4-.2-.6l18.3-5.7c.5-.1 1.3-.1 1.9 0 .6.2.7.5.2.6zm-92 28.3c.8.2.9.6.3.8-.7.2-1.9.2-2.7-.1-.8-.2-.9-.6-.3-.8.7-.1 1.9-.1 2.7.1zm91.1-24.7l-20.5 6.4c-.5.1-1.3.1-1.9 0-.6-.2-.7-.4-.2-.6l20.5-6.4c.5-.1 1.3-.1 1.9 0 .6.1.6.4.2.6zm28.5-9l-24.4 7.7c-.5.1-1.3.1-1.9 0-.6-.2-.7-.4-.2-.6L270 230c.5-.1 1.3-.1 1.9 0 .6.2.7.4.2.6zm-114.4 35.3c.8.2.9.6.3.8-.6.2-1.9.2-2.7-.1-.8-.2-.9-.6-.3-.8.7-.2 1.9-.1 2.7.1zm74.8-19.7l-18.3 5.7c-.5.1-1.3.1-1.9 0-.6-.2-.7-.4-.2-.6l18.3-5.7c.5-.1 1.3-.1 1.9 0 .6.2.7.5.2.6zm44.8-14.1l-10.4 3.3c-.5.1-1.3.1-1.9 0-.6-.2-.7-.4-.2-.6l10.4-3.3c.5-.1 1.3-.1 1.9 0 .6.2.7.5.2.6zm-114.4 35.4c.8.2.9.6.3.8-.7.2-1.9.2-2.7-.1-.8-.2-.9-.6-.3-.8.7-.2 1.9-.2 2.7.1zm68.9-17.8l-23.8 7.5c-.5.1-1.3.1-1.9 0-.6-.2-.7-.4-.2-.6l23.8-7.5c.5-.1 1.3-.1 1.9 0 .6.2.7.4.2.6zm28.3-8.9l-24.2 7.6c-.5.1-1.3.1-1.9 0-.6-.2-.7-.4-.2-.6l24.2-7.6c.5-.1 1.3-.1 1.9 0 .6.1.7.4.2.6zm33.6-10.6l-29.4 9.3c-.5.1-1.3.1-1.9 0-.6-.2-.7-.4-.2-.6l29.4-9.3c.5-.1 1.3-.1 1.9 0 .6.2.7.5.2.6zM168.1 269c.8.2.9.6.3.8-.7.2-1.9.2-2.7-.1-.8-.2-.9-.6-.3-.8.7-.1 1.9-.1 2.7.1zm20.3-2.5l-8.5 2.7c-.5.1-1.3.1-1.9 0-.6-.2-.7-.4-.2-.6l8.5-2.7c.5-.1 1.3-.1 1.9 0 .6.2.7.5.2.6zm54.5-17.1l-26.7 8.4c-.5.1-1.3.1-1.9 0-.6-.2-.7-.4-.2-.6l26.7-8.4c.5-.1 1.3-.1 1.9 0 .6.2.7.4.2.6zm-69.6 21.2c.8.2.9.6.3.8-.6.2-1.9.2-2.7-.1-.8-.2-.9-.6-.3-.8.7-.2 1.9-.1 2.7.1zm5.2 1.6c.8.2.9.6.3.8-.7.2-1.9.2-2.7-.1-.8-.2-.9-.6-.3-.8.7-.2 1.9-.2 2.7.1zm48.8-11.4l-24.5 7.7c-.5.1-1.3.1-1.9 0-.6-.2-.7-.4-.2-.6l24.5-7.7c.5-.1 1.3-.1 1.9 0 .6.2.6.5.2.6zm48.7-15.3l-26.1 8.2c-.5.1-1.3.1-1.9 0-.6-.2-.7-.4-.2-.6l26.1-8.2c.5-.1 1.3-.1 1.9 0 .5.2.6.5.2.6zm-92.1 28.3c.8.2.9.6.3.8-.7.2-1.9.2-2.7-.1-.8-.2-.9-.6-.3-.8.7-.1 1.9-.1 2.7.1zm39.1-8.4l-4.8 1.5c-.5.1-1.3.1-1.9 0-.6-.2-.7-.4-.2-.6l4.8-1.5c.5-.1 1.3-.1 1.9 0 .6.2.6.5.2.6zm32-10.1l-27.9 8.8c-.5.1-1.3.1-1.9 0-.6-.2-.7-.4-.2-.6l27.9-8.8c.5-.1 1.3-.1 1.9 0 .6.2.7.5.2.6zm26.1-8.2l-22 6.9c-.5.1-1.3.1-1.9 0-.6-.2-.7-.4-.2-.6l22-6.9c.5-.1 1.3-.1 1.9 0 .6.2.7.5.2.6zm-92 28.3c.8.2.9.6.3.8-.7.2-1.9.2-2.7-.1-.8-.2-.9-.6-.3-.8.7-.2 1.9-.1 2.7.1zm74.9-19.7l-26.2 8.3c-.5.1-1.3.1-1.9 0-.6-.2-.7-.4-.2-.6l26.2-8.3c.5-.1 1.3-.1 1.9 0 .5.2.6.5.2.6zm16.2-5.1l-12.1 3.8c-.5.1-1.3.1-1.9 0-.6-.2-.7-.4-.2-.6l12.1-3.8c.5-.1 1.3-.1 1.9 0 .6.2.6.5.2.6zM194.3 277c.8.2.9.6.3.8-.6.2-1.9.2-2.7-.1-.8-.2-.9-.6-.3-.8.7-.2 1.9-.2 2.7.1zm74.8-19.7l-18.3 5.7c-.5.1-1.3.1-1.9 0-.6-.2-.7-.4-.2-.6l18.3-5.7c.5-.1 1.3-.1 1.9 0 .6.2.7.4.2.6zm22.4-7l-18.3 5.7c-.5.1-1.3.1-1.9 0-.6-.2-.7-.4-.2-.6l18.3-5.7c.5-.1 1.3-.1 1.9 0 .6.1.7.4.2.6zm-92 28.3c.8.2.9.6.3.8-.7.2-1.9.2-2.7-.1-.8-.3-.9-.6-.3-.8.6-.2 1.9-.2 2.7.1zm91.1-24.8l-20.5 6.4c-.5.1-1.3.1-1.9 0-.6-.2-.7-.4-.2-.6l20.5-6.4c.5-.1 1.3-.1 1.9 0 .5.2.6.4.2.6zm28.5-9l-24.4 7.7c-.5.1-1.3.1-1.9 0-.6-.2-.7-.4-.2-.6l24.4-7.7c.5-.1 1.3-.1 1.9 0 .6.2.7.4.2.6zm-114.4 35.3c.8.2.9.6.3.8-.7.2-1.9.2-2.7-.1-.8-.2-.9-.6-.3-.8.7-.2 1.9-.1 2.7.1zm105.1-29.2l-26.1 8.2c-.5.1-1.3.1-1.9 0-.6-.2-.7-.4-.2-.6l26.1-8.2c.5-.1 1.3-.1 1.9 0 .6.2.7.5.2.6zm-99.9 30.8c.8.2.9.6.3.8-.7.2-1.9.2-2.7-.1-.8-.2-.9-.6-.3-.8.7-.2 1.9-.1 2.7.1zm40.9-9l-6.8 2.1c-.5.1-1.3.1-1.9 0-.6-.2-.7-.4-.2-.6l6.8-2.1c.5-.1 1.3-.1 1.9 0 .6.2.7.4.2.6zm28-8.8l-23.8 7.5c-.5.1-1.3.1-1.9 0-.6-.2-.7-.4-.2-.6l23.8-7.5c.5-.1 1.3-.1 1.9 0 .6.2.7.4.2.6zm28.3-8.9l-24.2 7.6c-.5.1-1.3.1-1.9 0-.6-.2-.7-.4-.2-.6l24.2-7.6c.5-.1 1.3-.1 1.9 0 .6.2.7.4.2.6zm33.6-10.6l-29.4 9.3c-.5.1-1.3.1-1.9 0-.6-.2-.7-.4-.2-.6l29.4-9.3c.5-.1 1.3-.1 1.9 0 .6.2.7.5.2.6zm-125.6 38.9c.8.2.9.6.3.8-.7.2-1.9.2-2.7-.1-.8-.2-.9-.6-.3-.8.6-.2 1.9-.2 2.7.1zm20.3-2.6l-8.5 2.7c-.5.1-1.3.1-1.9 0-.6-.2-.7-.4-.2-.6l8.5-2.7c.5-.1 1.3-.1 1.9 0 .6.2.7.5.2.6zm23.7-7.4l-19.5 6.1c-.5.1-1.3.1-1.9 0-.6-.2-.7-.4-.2-.6l19.5-6.1c.5-.1 1.3-.1 1.9 0 .6.2.7.4.2.6zm-38.8 11.5c.8.2.9.6.3.8-.7.2-1.9.2-2.7-.1-.8-.2-.9-.6-.3-.8.7-.1 1.9-.1 2.7.1zm5.2 1.6c.8.2.9.6.3.8-.7.2-1.9.2-2.7-.1-.8-.2-.9-.6-.3-.8.7-.2 1.9-.1 2.7.1zm18-2.1l-6.8 2.1c-.5.1-1.3.1-1.9 0-.6-.2-.7-.4-.2-.6l6.8-2.1c.5-.1 1.3-.1 1.9 0 .6.2.7.4.2.6zm28-8.8l-23.8 7.5c-.5.1-1.3.1-1.9 0-.6-.2-.7-.4-.2-.6l23.8-7.5c.5-.1 1.3-.1 1.9 0 .6.2.7.4.2.6zm-41.3 12.3c.8.2.9.6.3.8-.7.2-1.9.2-2.7-.1-.8-.2-.9-.6-.3-.8.7-.1 1.9-.1 2.7.1zm20.3-2.5L242 288c-.5.1-1.3.1-1.9 0-.6-.2-.7-.4-.2-.6l8.5-2.7c.5-.1 1.3-.1 1.9 0 .6.2.7.4.2.6zm39.7-12.5L254.6 284c-.5.1-1.3.1-1.9 0-.6-.2-.7-.4-.2-.6l35.6-11.2c.5-.1 1.3-.1 1.9 0 .6.2.6.5.2.6zm14.8-4.6l-10.7 3.4c-.5.1-1.3.1-1.9 0-.6-.2-.7-.4-.2-.6l10.7-3.4c.5-.1 1.3-.1 1.9 0 .6.1.7.4.2.6zm-69.6 21.2c.8.2.9.6.3.8-.7.2-1.9.2-2.7-.1-.8-.2-.9-.6-.3-.8.6-.2 1.9-.1 2.7.1zm5.2 1.6c.8.2.9.6.3.8-.7.2-1.9.2-2.7-.1-.8-.2-.9-.6-.3-.8.7-.2 1.9-.2 2.7.1z"/></g><path fill="#17142D" fill-rule="nonzero" d="M171 175l-81.5 25.5 152.3 48 81.4-25.5z" opacity=".5"/><g fill-rule="nonzero"><path fill="url(#d)" d="M169.9 0L.2 53.3 237.5 129l169.9-54.3z" transform="translate(1 85)"/><path fill="url(#e)" d="M237.5 138l169.9-53.4v-9.9L237.5 128z" transform="translate(1 85)"/><path fill="#D7D7F4" d="M238.7 222.9L1.2 148.2v-9.9L238.7 213z"/></g><g fill="#908FAB" fill-rule="nonzero"><path d="M232.4 138.6l-17.7 5.3c-.6.2-1.7.1-2.4-.1-.8-.2-1-.6-.4-.8l17.7-5.3c.6-.2 1.7-.1 2.4.1.8.3 1 .6.4.8zm-3.2 4.1l-9.3 2.8c-.6.2-1.7.1-2.4-.1-.8-.2-1-.6-.4-.8l9.3-2.8c.6-.2 1.7-.1 2.4.1.8.3 1 .6.4.8z" opacity=".3"/><path d="M199.5 133.6l3.2 1c8.9-2.6 25.9-1.6 38.1 2.2l2.3-.7c-14-4.4-33.5-5.5-43.6-2.5z"/><path d="M240.8 136.8c12.2 3.9 14.9 9.1 6 11.7-8.5 2.5-24.5 1.7-36.6-1.7-.9-.3-2-.3-2.6-.1-.7.2-.4.6.5.9 13.8 4 32.1 4.9 41.9 2 10.1-3 7-9-6.9-13.4l-2.3.6zM245.4 179.1l-17.7 5.3c-.6.2-1.7.1-2.4-.1-.8-.2-1-.6-.4-.8l17.7-5.3c.6-.2 1.7-.1 2.4.1.8.3 1 .7.4.8zm-3.2 4.2l-9.3 2.8c-.6.2-1.7.1-2.4-.1-.8-.2-1-.6-.4-.8l9.3-2.8c.6-.2 1.7-.1 2.4.1.8.2 1 .6.4.8z" opacity=".3"/><path d="M212.5 174.2l3.2 1c8.9-2.6 25.9-1.6 38.1 2.2l2.3-.7c-14-4.4-33.5-5.5-43.6-2.5z"/><path d="M253.8 177.4c12.2 3.9 14.9 9.1 6 11.7-8.5 2.5-24.5 1.7-36.6-1.7-.9-.3-2-.3-2.6-.1-.7.2-.4.6.5.9 13.8 4 32.1 4.9 41.9 2 10.1-3 7-9-6.9-13.4l-2.3.6zM163 116.7l-17.7 5.3c-.6.2-1.7.1-2.4-.1-.8-.2-1-.6-.4-.8l17.7-5.3c.6-.2 1.7-.1 2.4.1.8.2 1 .6.4.8zm-3.2 4.1l-9.3 2.8c-.6.2-1.7.1-2.4-.1-.8-.2-1-.6-.4-.8l9.3-2.8c.6-.2 1.7-.1 2.4.1.8.3 1 .6.4.8z" opacity=".3"/><path d="M139.3 124.4c-5.6-1.8-9.1-3.8-10.6-5.8-.2-.3-1.2-.6-2.2-.7-1.1-.1-1.8.2-1.6.5 1.6 2.2 5.7 4.6 12.1 6.6 13.9 4.4 33.4 5.5 43.6 2.5l-3.2-1c-8.8 2.8-25.9 1.8-38.1-2.1z" opacity=".3"/><path d="M130.1 111.7l3.2 1c8.9-2.6 25.9-1.6 38.1 2.2 6.1 1.9 9.8 4.2 10.9 6.3 1.1 2.1-.4 4.1-4.9 5.4l3.2 1c5.1-1.5 6.8-3.8 5.6-6.2-1.2-2.4-5.5-5-12.5-7.2-14-4.4-33.5-5.5-43.6-2.5z"/><path d="M302.3 160.6l-17.7 5.3c-.6.2-1.7.1-2.4-.1-.8-.2-1-.6-.4-.8l17.7-5.3c.6-.2 1.7-.1 2.4.1.8.3.9.7.4.8zm-3.2 4.2l-9.3 2.8c-.6.2-1.7.1-2.4-.1-.8-.2-1-.6-.4-.8l9.3-2.8c.6-.2 1.7-.1 2.4.1.8.3.9.6.4.8z" opacity=".3"/><path d="M278.5 168.4c-5.6-1.8-9.1-3.8-10.6-5.8-.2-.3-1.2-.6-2.2-.7-1.1-.1-1.8.2-1.6.5 1.6 2.2 5.7 4.6 12.1 6.6 13.9 4.4 33.4 5.5 43.6 2.5l-3.2-1c-8.8 2.7-25.9 1.8-38.1-2.1z" opacity=".3"/><path d="M269.3 155.7l3.2 1c8.9-2.6 25.9-1.6 38.1 2.2 6.1 1.9 9.8 4.2 10.9 6.3 1.1 2.1-.4 4.1-4.9 5.4l3.2 1c5.1-1.5 6.8-3.8 5.6-6.2-1.2-2.4-5.5-5-12.5-7.2-13.9-4.4-33.4-5.5-43.6-2.5z"/><g><path d="M175.8 157l-17.7 5.3c-.6.2-1.7.1-2.4-.1-.8-.2-1-.6-.4-.8l17.7-5.3c.6-.2 1.7-.1 2.4.1.8.3.9.7.4.8zm-3.2 4.2l-9.3 2.8c-.6.2-1.7.1-2.4-.1-.8-.2-1-.6-.4-.8l9.3-2.8c.6-.2 1.7-.1 2.4.1.8.3.9.6.4.8z" opacity=".3"/><path d="M184.1 155.3c6.1 1.9 9.8 4.2 10.9 6.3l3.9.2c-1.2-2.4-5.5-5-12.5-7.2-13.9-4.4-33.4-5.5-43.6-2.5l3.2 1c8.9-2.7 25.9-1.7 38.1 2.2z"/><path d="M195 161.6c1 1.9-.2 3.8-3.8 5.1-.6.2-.3.6.5.8.9.3 2.2.4 2.8.1 4.2-1.5 5.6-3.6 4.4-5.8l-3.9-.2z" opacity=".3"/></g><g><path d="M93.6 133.9l-2.7.5c-.7-.1-1.3-.3-2-.4l-1.1-1.2c-.2-.2-.8-.4-1.5-.4l-2.2-.1c-.7 0-1.1.1-1.1.3v1.1c-.6 0-1.2.1-1.8.1l-3.4-.9c-.6-.2-1.3-.2-1.7-.1l-1.3.4c-.4.1-.3.3.1.5l2.7 1.1-.5.5h-3.7c-.6 0-1 .1-.9.3l.4.7c.1.2.7.4 1.3.5l3.8.4c.3.2.7.4 1.1.6l-1.8.8c-.3.1-.1.4.4.5l1.8.6c.5.2 1.3.2 1.7.1l2.7-.5c.7.1 1.3.3 2 .4l1.1 1.2c.2.2.8.4 1.5.4l2.2.1c.7 0 1.1-.1 1.1-.3V140c.6 0 1.2-.1 1.8-.1l3.4.9c.6.2 1.3.2 1.7.1l1.3-.4c.4-.1.3-.3-.1-.5l-2.7-1.1.5-.5h3.7c.6 0 1-.1.9-.3l-.4-.7c-.1-.2-.7-.4-1.3-.5l-3.8-.4c-.3-.2-.7-.4-1.1-.6l1.8-.8c.3-.1.1-.4-.4-.5l-1.8-.6c-.5-.1-1.2-.1-1.7-.1zm-1.2 4.6c-2 .6-5.8.4-8.5-.5s-3.3-2-1.3-2.6c2-.6 5.8-.4 8.5.5s3.2 2.1 1.3 2.6z"/><path d="M126.1 136.8l-3.5.1c-.5-.2-1.1-.4-1.7-.5l.3-1.1c.1-.2-.4-.4-1-.5l-2.2-.4c-.6-.1-1.3-.1-1.5.1l-1.4.9c-.7-.1-1.4-.1-2.1-.1l-2.5-1.1c-.4-.2-1.2-.3-1.7-.3l-1.9.2c-.6 0-.8.2-.5.4l1.5 1.2c-.5.1-.9.2-1.2.4l-3.8-.5c-.7-.1-1.3 0-1.4.2l-.5.6c-.1.2.2.4.8.5l3.6.8c0 .2.2.4.4.6l-2.9.4c-.5.1-.6.3-.3.5l1.2.7c.4.2 1.1.3 1.7.3l3.5-.1c.5.2 1.1.4 1.7.5l-.3 1.1c-.1.2.4.4 1 .5l2.2.4c.6.1 1.3.1 1.5-.1l1.4-.9c.7.1 1.4.1 2.1.1l2.5 1.1c.4.2 1.2.3 1.7.3l1.9-.2c.6 0 .8-.2.5-.4l-1.5-1.2c.5-.1.9-.2 1.2-.4l3.8.5c.7.1 1.3 0 1.4-.2l.5-.6c.1-.2-.2-.4-.8-.5l-3.6-.8c0-.2-.2-.4-.4-.6l2.9-.4c.5-.1.6-.3.3-.5l-1.2-.7c-.4-.2-1.1-.3-1.7-.3zm-7.1 3.5c-2.8.2-6.6-.4-8.4-1.4-1.8-1-1-2 1.9-2.3 2.9-.3 6.6.4 8.4 1.4 1.8 1.1.9 2.1-1.9 2.3z"/></g></g><path fill="#4744A5" fill-rule="nonzero" d="M171 86l-81.5 25.5 152.3 48 81.4-25.5z" opacity=".2"/><g fill-rule="nonzero"><path fill="url(#f)" d="M169.9 0L.2 53.3l237.3 84.2 169.9-62.8z" transform="translate(1)"/><path fill="url(#f)" d="M237.7 137.9l169.7-53.3v-9.9L237.7 128z" transform="translate(1)"/><path fill="url(#g)" d="M237.7 137.9L.2 63.2v-9.9L237.7 128z" transform="translate(1)"/></g><g stroke="#201C38" stroke-dasharray="0,3.9578" stroke-linecap="round" opacity=".75"><path d="M408.4 251.6V87.4m-169.7 55.2v164.3" opacity=".5"/><path d="M1.2 230.2V66"/></g><g fill-rule="nonzero"><path d="M228.3 91.6l-29.8 9.1c-1.4.4-3.2.5-4.1.2l-4.9-1.5c-.9-.3-.6-.8.7-1.3L220 89c1.4-.4 3.2-.5 4.1-.2l4.9 1.5c1 .3.7.9-.7 1.3zM285.8 74l-39.6 12.1c-1.4.4-3.2.5-4.1.2l-4.9-1.5c-.9-.3-.6-.8.7-1.3l39.6-12.1c1.4-.4 3.2-.5 4.1-.2l4.9 1.5c1 .3.7.9-.7 1.3zm41-12.5l-25.1 7.7c-1.4.4-3.2.5-4.1.2l-4.9-1.5c-.9-.3-.6-.8.7-1.3l25.1-7.7c1.4-.4 3.2-.5 4.1-.2l4.9 1.5c1 .3.7.9-.7 1.3zM236.3 98l-23.1 7.1c-1.4.4-3.2.5-4.1.2l-4.9-1.5c-.9-.3-.6-.8.7-1.3l23.1-7.1c1.4-.4 3.2-.5 4.1-.2l4.9 1.5c1 .3.7.9-.7 1.3zM270 87.7l-18.3 5.6c-1.4.4-3.2.5-4.1.2l-4.9-1.5c-.9-.3-.6-.8.7-1.3l18.3-5.6c1.4-.4 3.2-.5 4.1-.2l4.9 1.5c.9.3.6.9-.7 1.3zm46-14.1L285.4 83c-1.4.4-3.2.5-4.1.2l-4.9-1.5c-.9-.3-.6-.8.7-1.3l30.6-9.4c1.4-.4 3.2-.5 4.1-.2l4.9 1.5c.9.3.6.9-.7 1.3zM275.6 94.8l-47.8 14.6c-1.4.4-3.2.5-4.1.2l-4.9-1.5c-.9-.3-.6-.8.7-1.3l47.8-14.6c1.4-.4 3.2-.5 4.1-.2l4.9 1.5c.9.3.6.8-.7 1.3zm65-19.9L292 89.7c-1.4.4-3.2.5-4.1.2l-4.9-1.5c-.9-.3-.6-.8.7-1.3l48.7-14.9c1.4-.4 3.2-.5 4.1-.2l4.9 1.5c.9.4.6.9-.8 1.4z" fill="#8FF6C6"/><g fill="#8FF6C6"><path d="M99.8 66.3l5.1.2c.4 0 .8 0 1.1-.1l5.2-1.3c.9-.2 1.9-.1 1.7.2l-1.1 1.7c-.1.1 0 .2.3.3l4.1.7c.7.1.3.5-.7.7l-5.8.8c-.4.1-.7.2-.9.3l-2.7 1.8c-.5.3-1.8.4-2.2.2l-2.5-1.2c-.2-.1-.5-.1-.9-.1l-5.8.4c-1 .1-1.4-.2-.6-.5l4.3-1.6c.3-.1.4-.2.4-.3l-.9-1.5c-.1-.5 1-.8 1.9-.7zm27.4-8.4l5.1.2c.4 0 .8 0 1.1-.1l5.2-1.3c.9-.2 1.9-.1 1.7.2l-1.1 1.7c-.1.1 0 .2.3.3l4.1.7c.7.1.3.5-.7.7l-5.8.8c-.4.1-.7.2-.9.3l-2.7 1.8c-.5.3-1.8.4-2.2.2l-2.5-1.2c-.2-.1-.5-.1-.9-.1l-5.8.4c-1 .1-1.4-.2-.6-.5l4.3-1.6c.3-.1.4-.2.4-.3l-.9-1.5c-.1-.4 1-.8 1.9-.7zm27.4-8.4l5.1.2c.4 0 .8 0 1.1-.1l5.2-1.3c.9-.2 1.9-.1 1.7.2l-1.1 1.7c-.1.1 0 .2.3.3l4.1.7c.7.1.3.5-.7.7l-5.8.8c-.4.1-.7.2-.9.3l-2.7 1.8c-.5.3-1.8.4-2.2.2l-2.5-1.2c-.2-.1-.5-.1-.9-.1l-5.8.4c-1 .1-1.4-.2-.6-.5l4.3-1.6c.3-.1.4-.2.4-.3l-.9-1.5c-.1-.4 1-.8 1.9-.7z"/><path fill-opacity=".5" d="M182 41.1l5.1.2c.4 0 .8 0 1.1-.1l5.2-1.3c.9-.2 1.9-.1 1.7.2l-1.1 1.7c-.1.1 0 .2.3.3l4.1.7c.7.1.3.5-.7.7l-5.8.8c-.4.1-.7.2-.9.3l-2.7 1.8c-.5.3-1.8.4-2.2.2l-2.5-1.2c-.2-.1-.5-.1-.9-.1l-5.8.4c-1 .1-1.4-.2-.6-.5l4.3-1.6c.3-.1.4-.2.4-.3l-.9-1.5c-.1-.4 1-.7 1.9-.7zm27.3-8.4l5.1.2c.4 0 .8 0 1.1-.1l5.2-1.3c.9-.2 1.9-.1 1.7.2l-1.1 1.7c-.1.1 0 .2.3.3l4.1.7c.7.1.3.5-.7.7l-5.8.8c-.4.1-.7.2-.9.3l-2.7 1.8c-.5.3-1.8.4-2.2.2l-2.5-1.2c-.2-.1-.5-.1-.9-.1l-5.8.4c-1 .1-1.4-.2-.6-.5l4.3-1.6c.3-.1.4-.2.4-.3l-.9-1.5c0-.4 1.1-.7 1.9-.7z"/></g><g fill="#8FF6C6"><path d="M158.9 83.1l-8 2.4c-1.9.6-4.5.7-5.8.3l-5.5-1.6c-1.3-.4-.8-1.2 1-1.8l8-2.4c1.9-.6 4.5-.7 5.8-.3l5.5 1.6c1.4.4.9 1.2-1 1.8z"/><path fill-opacity=".5" d="M221.6 61.8l-55.2 16.9c-1.2.4-3 .5-3.8.2-.9-.3-.6-.8.7-1.2l55.2-16.9c1.2-.4 3-.5 3.8-.2.8.3.5.8-.7 1.2z"/></g><g fill="#8FF6C6"><path d="M176.3 88.2l-8 2.4c-1.9.6-4.5.7-5.8.3l-5.5-1.6c-1.3-.4-.8-1.2 1-1.8l8-2.4c1.9-.6 4.5-.7 5.8-.3l5.5 1.6c1.3.5.9 1.2-1 1.8z"/><path fill-opacity=".5" d="M253.3 62.5l-69.5 21.3c-1.2.4-3 .5-3.8.2-.9-.3-.6-.8.7-1.2l69.5-21.3c1.2-.4 3-.5 3.8-.2.8.3.5.8-.7 1.2z"/></g><g fill="#8FF6C6"><path fill-opacity=".5" d="M229.1 49l-80 24.5c-1.2.4-3 .5-3.8.2-.9-.3-.6-.8.7-1.2L226 48c1.2-.4 3-.5 3.8-.2.9.3.6.8-.7 1.2z"/><path d="M131.3 74.9l-8 2.4c-1.9.6-2.4 1.4-1 1.8l5.5 1.6c1.3.4 3.9.2 5.8-.3l8-2.4c1.9-.6 2.4-1.4 1-1.8l-5.5-1.6c-1.3-.4-3.9-.3-5.8.3zm4.5.8l-1.9 3.1-6.1.4c-.6 0-1-.1-.9-.3.1-.2.7-.4 1.3-.4l3.9-.2 1.5-2.4c.1-.2.7-.4 1.3-.4.6-.1 1 0 .9.2z"/></g><path fill="#8FF6C6" d="M192.3 26.2L83.4 59.5c-7.5 2.3-17.9 2.9-23.1 1.4-5.2-1.5-3.3-4.7 4.2-7l108.9-33.3c7.5-2.3 17.9-2.9 23.1-1.4 5.1 1.6 3.3 4.7-4.2 7z"/><g fill="#FFF"><path d="M79 57.4c-1.5.5-3.4.8-5.4.9-3.9.2-6.5-.5-5.8-1.7.7-1.2 4.4-2.3 8.3-2.5 3.9-.2 6.5.5 5.8 1.7-.3.6-1.4 1.2-2.9 1.6zm-6.7-1.9c-.9.3-1.6.6-1.8 1-.4.7 1.2 1.2 3.6 1.1 2.4-.1 4.7-.9 5.2-1.6.4-.7-1.2-1.2-3.6-1.1-1.2.1-2.4.3-3.4.6z"/><path d="M86.5 55.8c-.3.1-.6.2-1 .2l-4.5.3c-.7 0-1.2-.1-1.1-.3.1-.2.8-.4 1.6-.5l4.5-.3c.7 0 1.2.1 1.1.3-.1.1-.4.2-.6.3z"/></g></g><path fill="#67CF9E" fill-rule="nonzero" d="M426.8 74.7c.7.4 1.2.9 1.6 1.5.4.7.6 1.4.6 2.2 0 .8-.2 1.5-.6 2.2-.4.7-.9 1.2-1.6 1.6-.7.4-1.4.6-2.3.6-.9 0-1.6-.2-2.3-.6-.7-.4-1.2-.9-1.6-1.6-.4-.7-.6-1.4-.6-2.2 0-.8.2-1.5.6-2.2.4-.7.9-1.2 1.6-1.5.7-.4 1.4-.6 2.3-.6.9 0 1.6.2 2.3.6zm-3.7 1.3c-.4.3-.8.6-1 1-.3.4-.4.9-.4 1.4 0 .5.1 1 .4 1.5.3.4.6.8 1 1 .4.3.9.4 1.4.4.5 0 1-.1 1.4-.4.4-.3.8-.6 1-1 .3-.4.4-.9.4-1.5s-.1-1-.4-1.4c-.3-.4-.6-.8-1-1-.4-.3-.9-.4-1.4-.4-.5 0-.9.1-1.4.4zm13.2.2v6.4h-1.6v-1.2c-.4.8-1.2 1.2-2.2 1.2-.7 0-1.3-.2-1.7-.7-.4-.4-.6-1-.6-1.8v-4h1.6v3.6c0 .4.1.8.4 1.1.3.3.6.4 1 .4.5 0 .9-.2 1.2-.5.3-.3.4-.8.4-1.3v-3.2h1.5zm5.7 6.1c-.5.3-1 .5-1.6.5-.6 0-1-.2-1.4-.5-.4-.3-.5-.8-.5-1.4v-3.2h-.9v-1.1h.9v-1.8h1.5v1.8h1.8v1.1H440v2.9c0 .3.1.5.2.6.1.1.3.2.5.2s.5-.1.9-.3l.4 1.2zm8.7-5.7c.5.3.9.7 1.2 1.1.3.5.4 1.1.4 1.7 0 .6-.1 1.2-.4 1.7-.3.5-.7.9-1.2 1.2-.5.3-1.1.4-1.8.4s-1.3-.1-1.8-.4c-.5-.3-.9-.7-1.2-1.2-.3-.5-.4-1.1-.4-1.7 0-.6.1-1.2.4-1.7.3-.5.7-.9 1.2-1.1.5-.3 1.1-.4 1.8-.4s1.3.1 1.8.4zm-3.1 1.5c-.3.4-.5.8-.5 1.4 0 .6.2 1 .5 1.4.3.4.8.5 1.3.5s1-.2 1.3-.5c.3-.3.5-.8.5-1.4 0-.6-.2-1-.5-1.4-.3-.4-.8-.5-1.3-.5-.5-.1-.9.1-1.3.5zm8.1-2.9c-.2.1-.2.3-.2.6v.7h1.6v1.1h-1.6v5h-1.6v-5h-.8v-1.1h.8v-.6c0-.5.1-.9.3-1.2.2-.3.5-.6.8-.8.3-.2.7-.3 1.1-.3.4 0 .8.1 1.2.3l-.3 1.3c-.3-.1-.6-.2-.8-.2-.2 0-.4.1-.5.2zm9 7.1c-.5.3-1 .5-1.6.5-.6 0-1-.2-1.4-.5-.4-.3-.5-.8-.5-1.4v-3.2h-.9v-1.1h.9v-1.8h1.5v1.8h1.8v1.1h-1.8v2.9c0 .3.1.5.2.6.1.1.3.2.5.2s.5-.1.9-.3l.4 1.2zm6.9-5.4c.4.4.6 1 .6 1.8v4h-1.6v-3.6c0-.4-.1-.8-.4-1.1-.3-.3-.6-.4-1-.4-.5 0-.9.2-1.2.5-.3.3-.5.8-.5 1.3v3.2H466v-8.9h1.6v3.7c.4-.8 1.2-1.3 2.3-1.3.7.1 1.3.3 1.7.8zm7.4.2c.5.6.8 1.4.8 2.5v.5H475c.1.5.3.8.6 1.1.3.3.7.4 1.2.4.3 0 .6-.1.9-.2.3-.1.6-.3.8-.5l.8.9c-.3.4-.7.6-1.2.8-.5.2-1 .3-1.5.3-.7 0-1.2-.1-1.7-.4-.5-.3-.9-.7-1.2-1.1-.3-.4-.4-1.1-.4-1.7 0-.6.1-1.2.4-1.7.3-.5.7-.9 1.2-1.2.5-.3 1.1-.4 1.7-.4 1.1-.2 1.8.1 2.4.7zm-.7 1.9c0-.5-.2-.8-.5-1.1-.3-.3-.7-.4-1.2-.4s-.8.1-1.1.4c-.3.3-.5.7-.6 1.1h3.4zm11.1-2.4c.5.3.8.7 1.1 1.2.3.5.4 1.1.4 1.7 0 .6-.1 1.2-.4 1.7-.2.5-.6.9-1.1 1.1-.5.3-1 .4-1.6.4-.5 0-.9-.1-1.3-.3-.4-.2-.7-.5-.9-.8v1H484v-8.9h1.6v3.5c.2-.4.5-.6.9-.8.4-.2.8-.3 1.3-.3.6.1 1.1.2 1.6.5zm-.7 4.2c.3-.4.5-.8.5-1.4 0-.6-.2-1-.5-1.4-.3-.4-.8-.5-1.3-.5s-1 .2-1.3.5c-.3.3-.5.8-.5 1.4 0 .6.2 1 .5 1.4.3.4.8.5 1.3.5.6.1 1-.1 1.3-.5zm8-4.2c.5.3.9.7 1.2 1.1.3.5.4 1.1.4 1.7 0 .6-.1 1.2-.4 1.7-.3.5-.7.9-1.2 1.2-.5.3-1.1.4-1.8.4s-1.3-.1-1.8-.4c-.5-.3-.9-.7-1.2-1.2-.3-.5-.4-1.1-.4-1.7 0-.6.1-1.2.4-1.7.3-.5.7-.9 1.2-1.1.5-.3 1.1-.4 1.8-.4.8 0 1.3.1 1.8.4zm-3 1.5c-.3.4-.5.8-.5 1.4 0 .6.2 1 .5 1.4.3.4.8.5 1.3.5s1-.2 1.3-.5c.3-.3.5-.8.5-1.4 0-.6-.2-1-.5-1.4-.3-.4-.8-.5-1.3-.5-.6-.1-1 .1-1.3.5zm5-1.9h1.8l1.3 2.1 1.4-2.1h1.7l-2 3.1 2.2 3.3h-1.8l-1.4-2.2-1.5 2.2h-1.7l2.2-3.3-2.2-3.1z"/><path d="M425.1 161.2c-.4-.2-.8-.3-1.2-.3-.5 0-1 .1-1.4.4-.4.2-.8.6-1 1-.2.4-.4.9-.4 1.4 0 .5.1 1 .4 1.4.2.4.6.8 1 1 .4.3.9.4 1.4.4.4 0 .8-.1 1.2-.3.4-.2.8-.4 1.1-.7l.9 1.1c-.4.4-1 .8-1.5 1.1-.6.3-1.2.4-1.8.4-.8 0-1.5-.2-2.2-.6-.7-.4-1.2-.9-1.6-1.6-.4-.7-.6-1.4-.6-2.2 0-.8.2-1.5.6-2.2.4-.7.9-1.2 1.6-1.5.7-.4 1.4-.6 2.2-.6.6 0 1.2.1 1.8.4.6.2 1.1.6 1.5 1l-.9 1.2c-.4-.3-.7-.6-1.1-.8zm9.2.4v6.4h-1.6v-1.2c-.4.8-1.2 1.2-2.2 1.2-.7 0-1.3-.2-1.7-.7-.4-.4-.6-1-.6-1.8v-4h1.6v3.6c0 .4.1.8.4 1.1.3.3.6.4 1 .4.5 0 .9-.2 1.2-.5.3-.3.4-.8.4-1.3v-3.2h1.5zm4.7 1.3c-.3-.1-.6-.2-.9-.2-.3 0-.5 0-.6.1-.2.1-.2.2-.2.4s.1.4.3.5c.2.1.5.2.9.3.4.1.8.3 1.1.4.3.1.5.3.8.6.2.3.3.6.3 1 0 .6-.2 1.1-.7 1.4-.5.3-1.1.5-1.8.5-.5 0-1-.1-1.5-.2-.5-.2-.9-.4-1.2-.7l.5-1.1c.3.2.6.4 1 .6.4.1.8.2 1.1.2.3 0 .5 0 .7-.2.2-.1.3-.2.3-.5 0-.2-.1-.4-.3-.5-.2-.1-.5-.2-1-.4-.4-.1-.8-.3-1.1-.4-.3-.1-.5-.3-.7-.6-.2-.3-.3-.6-.3-1 0-.6.2-1.1.7-1.4.5-.3 1-.5 1.7-.5.4 0 .8.1 1.3.2.4.1.8.3 1.1.5l-.6 1.1c-.2.1-.5 0-.9-.1zm6.7 4.7c-.5.3-1 .5-1.6.5-.6 0-1-.2-1.4-.5-.4-.3-.5-.8-.5-1.4V163h-.9v-1.1h.9v-1.8h1.5v1.8h1.8v1.1h-1.8v2.9c0 .3.1.5.2.6.1.1.3.2.5.2s.5-.1.9-.3l.4 1.2zm5.8-5.7c.5.3.9.7 1.2 1.1.3.5.4 1.1.4 1.7 0 .6-.1 1.2-.4 1.7-.3.5-.7.9-1.2 1.2-.5.3-1.1.4-1.8.4s-1.3-.1-1.8-.4c-.5-.3-.9-.7-1.2-1.2-.3-.5-.4-1.1-.4-1.7 0-.6.1-1.2.4-1.7.3-.5.7-.9 1.2-1.1.5-.3 1.1-.4 1.8-.4s1.3.2 1.8.4zm-3.1 1.5c-.3.4-.5.8-.5 1.4 0 .6.2 1 .5 1.4.3.4.8.5 1.3.5s1-.2 1.3-.5c.3-.3.5-.8.5-1.4 0-.6-.2-1-.5-1.4-.3-.4-.8-.5-1.3-.5s-1 .1-1.3.5zm16.2-1.2c.4.4.6 1 .6 1.8v4h-1.6v-3.6c0-.5-.1-.8-.4-1.1-.3-.3-.6-.4-1-.4-.5 0-.9.2-1.2.5-.3.3-.4.8-.4 1.3v3.2H459v-3.6c0-.5-.1-.8-.4-1.1-.3-.3-.6-.4-1-.4-.5 0-.9.2-1.2.5-.3.3-.4.8-.4 1.3v3.2h-1.6v-6.4h1.6v1.2c.4-.8 1.2-1.2 2.3-1.2.6 0 1 .1 1.4.4.4.3.6.6.8 1.1.4-1 1.2-1.5 2.4-1.5.7.1 1.2.3 1.7.8zm3.7-3.1c.2.2.3.4.3.7 0 .3-.1.5-.3.7-.2.2-.4.3-.6.3-.2 0-.5-.1-.6-.3-.1-.2-.3-.4-.3-.7 0-.3.1-.5.3-.7.2-.2.4-.3.6-.3.2 0 .5.1.6.3zm-1.4 2.5h1.6v6.4h-1.6v-6.4zm6.4 1.3c-.3-.1-.6-.2-.9-.2-.3 0-.5 0-.6.1-.1.1-.2.2-.2.4s.1.4.3.5c.2.1.5.2.9.3.4.1.8.3 1.1.4.3.1.5.3.8.6.2.3.3.6.3 1 0 .6-.2 1.1-.7 1.4-.5.3-1.1.5-1.8.5-.5 0-1-.1-1.5-.2-.5-.2-.9-.4-1.2-.7l.5-1.1c.3.2.6.4 1 .6.4.1.8.2 1.1.2.3 0 .5 0 .7-.2.2-.1.3-.2.3-.5 0-.2-.1-.4-.3-.5-.2-.1-.5-.2-1-.4-.4-.1-.8-.3-1.1-.4-.3-.1-.5-.3-.7-.6-.2-.3-.3-.6-.3-1 0-.6.2-1.1.7-1.4.5-.3 1-.5 1.7-.5.4 0 .8.1 1.3.2.4.1.8.3 1.1.5l-.6 1.1c-.3.1-.6 0-.9-.1zm6.7 5.1v-.8c-.2.3-.5.5-.9.6-.4.1-.8.2-1.2.2-.4 0-.8-.1-1.2-.3-.3-.2-.6-.4-.8-.7-.2-.3-.3-.6-.3-1 0-.6.2-1.1.6-1.4.4-.3 1-.5 1.8-.5h1.9v-.1c0-.4-.1-.7-.4-.9-.2-.2-.6-.3-1.1-.3-.6 0-1.2.2-1.9.6l-.6-1.1c.5-.3 1-.5 1.4-.6.4-.1.9-.2 1.4-.2.8 0 1.5.2 1.9.6.5.4.7 1 .7 1.7v4.2H480zm-.6-1.4c.3-.2.5-.5.5-.8v-.6h-1.6c-.4 0-.7.1-.9.2-.2.1-.3.3-.3.6s.1.5.3.6c.2.1.5.2.8.2.5.1.9 0 1.2-.2zm7.6 1c-.5.3-1 .5-1.6.5-.6 0-1-.2-1.4-.5-.4-.3-.5-.8-.5-1.4V163h-.9v-1.1h.9v-1.8h1.5v1.8h1.8v1.1H485v2.9c0 .3.1.5.2.6.1.1.3.2.5.2s.5-.1.9-.3l.4 1.2zm2.7-8.5c.2.2.3.4.3.7 0 .3-.1.5-.3.7-.2.2-.4.3-.6.3-.2 0-.5-.1-.6-.3-.1-.2-.3-.4-.3-.7 0-.3.1-.5.3-.7.2-.2.4-.3.6-.3.2 0 .4.1.6.3zm-1.4 2.5h1.6v6.4h-1.6v-6.4zm8 .3c.5.3.9.7 1.2 1.1.3.4.4 1.1.4 1.7 0 .6-.1 1.2-.4 1.7-.3.5-.7.9-1.2 1.2-.5.3-1.1.4-1.8.4s-1.3-.1-1.8-.4c-.5-.3-.9-.7-1.2-1.2-.3-.5-.4-1.1-.4-1.7 0-.6.1-1.2.4-1.7.3-.5.7-.9 1.2-1.1.5-.3 1.1-.4 1.8-.4s1.3.2 1.8.4zm-3.1 1.5c-.3.4-.5.8-.5 1.4 0 .6.2 1 .5 1.4.3.4.8.5 1.3.5s1-.2 1.3-.5c.3-.4.5-.8.5-1.4 0-.6-.2-1-.5-1.4-.3-.4-.8-.5-1.3-.5s-.9.1-1.3.5zm11.7-1.2c.4.4.6 1 .6 1.8v4H504v-3.6c0-.4-.1-.8-.4-1.1-.3-.3-.6-.4-1-.4-.5 0-.9.2-1.2.5-.3.3-.5.8-.5 1.3v3.2h-1.6v-6.4h1.6v1.2c.4-.8 1.2-1.2 2.3-1.3.7.1 1.3.3 1.7.8z" fill="#AAAAE0" fill-rule="nonzero"/><path d="M420 250.3h5.8v1.4h-4.2v2.3h3.8v1.4h-3.8v3.3H420zm12.9 1.9v6.4h-1.6v-1.2c-.4.8-1.2 1.2-2.2 1.2-.7 0-1.3-.2-1.7-.7-.4-.5-.6-1-.6-1.8v-4h1.6v3.6c0 .4.1.8.4 1.1.3.3.6.4 1 .4.5 0 .9-.2 1.2-.5.3-.3.4-.8.4-1.3v-3.2h1.5zm2-2.4h1.6v8.9h-1.6zm3.6 0h1.6v8.9h-1.6zm9.3 3.8c-.5 0-.9.2-1.3.5-.3.4-.5.8-.5 1.4 0 .6.2 1 .5 1.4.3.4.7.5 1.3.5.8 0 1.3-.3 1.7-.8l1 .8c-.3.4-.7.7-1.1 1-.4.3-1 .3-1.6.3-.6 0-1.2-.1-1.7-.4-.5-.3-.9-.7-1.1-1.1-.3-.5-.4-1.1-.4-1.7 0-.6.1-1.2.4-1.7.3-.5.7-.9 1.2-1.2.5-.3 1.1-.4 1.7-.4.6 0 1.1.1 1.6.3.5.2.8.5 1.1.9l-.9.9c-.7-.5-1.2-.7-1.9-.7zm9.9-1.4v6.4h-1.6v-1.2c-.4.8-1.2 1.2-2.2 1.2-.7 0-1.3-.2-1.7-.7-.4-.5-.6-1-.6-1.8v-4h1.6v3.6c0 .4.1.8.4 1.1.3.3.6.4 1 .4.5 0 .9-.2 1.2-.5.3-.3.4-.8.4-1.3v-3.2h1.5zm4.8 1.4c-.3-.1-.6-.2-.9-.2-.3 0-.5 0-.6.1-.1.1-.2.2-.2.4s.1.4.3.5c.2.1.5.2.9.3.4.1.8.3 1.1.4.3.1.5.3.8.6.3.3.3.6.3 1 0 .6-.2 1.1-.7 1.4-.5.3-1.1.5-1.8.5-.5 0-1-.1-1.5-.2-.5-.2-.9-.4-1.2-.7l.5-1.1c.3.2.6.4 1 .6.4.1.8.2 1.1.2.3 0 .5-.1.7-.2.2-.1.3-.2.3-.5 0-.2-.1-.4-.3-.5-.2-.1-.5-.2-1-.4-.4-.1-.8-.3-1.1-.4-.3-.1-.5-.3-.7-.6-.2-.3-.3-.6-.3-1 0-.6.2-1.1.7-1.4.5-.3 1-.5 1.7-.5.4 0 .8.1 1.3.2.4.1.8.3 1.1.5l-.6 1.1c-.2.1-.6 0-.9-.1zm6.7 4.7c-.5.3-1 .5-1.6.5-.6 0-1-.2-1.4-.5-.4-.3-.5-.8-.5-1.4v-3.2h-.9v-1.1h.9v-1.8h1.5v1.8h1.8v1.1h-1.8v2.9c0 .3.1.5.2.6.1.1.3.2.5.2s.5-.1.9-.3l.4 1.2zm5.7-5.7c.5.3.9.7 1.2 1.1.3.5.4 1.1.4 1.7 0 .6-.1 1.2-.4 1.7-.3.5-.7.9-1.2 1.2-.5.3-1.1.4-1.8.4s-1.3-.1-1.8-.4c-.5-.3-.9-.7-1.2-1.2-.3-.5-.4-1.1-.4-1.7 0-.6.1-1.2.4-1.7.3-.5.7-.9 1.2-1.1.5-.3 1.1-.4 1.8-.4s1.3.1 1.8.4zm-3 1.5c-.3.4-.5.8-.5 1.4 0 .6.2 1 .5 1.4.3.4.8.5 1.3.5s1-.2 1.3-.5c.3-.4.5-.8.5-1.4 0-.6-.2-1-.5-1.4-.3-.4-.8-.5-1.3-.5-.6-.1-1 .1-1.3.5zm16.1-1.2c.4.4.6 1 .6 1.8v4H487v-3.6c0-.5-.1-.8-.4-1.1-.3-.3-.6-.4-1-.4-.5 0-.9.2-1.2.5-.3.3-.4.8-.4 1.3v3.2h-1.6V255c0-.5-.1-.8-.4-1.1-.3-.3-.6-.4-1-.4-.5 0-.9.2-1.2.5-.3.3-.4.8-.4 1.3v3.2h-1.6v-6.4h1.6v1.2c.4-.8 1.2-1.2 2.3-1.2.6 0 1 .1 1.4.4.4.3.6.6.8 1.1.4-1 1.2-1.5 2.4-1.5.7.1 1.3.3 1.7.8zm5.4-3.1h1.6v8.9h-1.6zm8.5 3.3c.5.6.8 1.4.8 2.5v.5H498c.1.5.3.8.6 1.1.3.3.7.4 1.2.4.3 0 .6-.1.9-.2.3-.1.6-.3.8-.5l.8.9c-.3.4-.7.6-1.2.8-.5.2-1 .3-1.5.3-.7 0-1.2-.1-1.7-.4-.5-.3-.9-.7-1.2-1.1-.3-.5-.4-1.1-.4-1.7 0-.6.1-1.2.4-1.7.3-.5.7-.9 1.2-1.2.5-.3 1.1-.4 1.7-.4 1.1-.2 1.8.1 2.3.7zm-.6 1.9c0-.5-.2-.8-.5-1.1-.3-.3-.7-.4-1.2-.4s-.8.1-1.1.4c-.3.3-.5.7-.6 1.1h3.4zm1.6-2.7h1.6l1.7 4.9 1.6-4.9h1.6l-2.4 6.4h-1.6zm12.1.8c.5.6.8 1.4.8 2.5v.5h-4.7c.1.5.3.8.6 1.1.3.3.7.4 1.2.4.3 0 .6-.1.9-.2.3-.1.6-.3.8-.5l.8.9c-.3.4-.7.6-1.2.8-.5.2-1 .3-1.5.3-.7 0-1.2-.1-1.7-.4-.5-.3-.9-.7-1.2-1.1-.3-.5-.4-1.1-.4-1.7 0-.6.1-1.2.4-1.7.3-.5.7-.9 1.2-1.2.5-.3 1.1-.4 1.7-.4 1.1-.2 1.8.1 2.3.7zm-.6 1.9c0-.5-.2-.8-.5-1.1-.3-.3-.7-.4-1.2-.4s-.8.1-1.1.4c-.3.3-.5.7-.6 1.1h3.4zm2.8-5.2h1.6v8.9h-1.6z" fill="#3B3769" fill-rule="nonzero"/></g></svg>