<svg width="375" height="236" viewBox="0 0 375 236" xmlns="http://www.w3.org/2000/svg" xmlns:xlink="http://www.w3.org/1999/xlink"><title>instantsearch-ios-components</title><defs><circle id="b" cx="14" cy="14" r="14"/><filter x="-57.1%" y="-39.3%" width="214.3%" height="221.4%" filterUnits="objectBoundingBox" id="a"><feMorphology radius=".5" operator="dilate" in="SourceAlpha" result="shadowSpreadOuter1"/><feOffset dy="3" in="shadowSpreadOuter1" result="shadowOffsetOuter1"/><feGaussianBlur stdDeviation=".5" in="shadowOffsetOuter1" result="shadowBlurOuter1"/><feComposite in="shadowBlurOuter1" in2="SourceAlpha" operator="out" result="shadowBlurOuter1"/><feColorMatrix values="0 0 0 0 0 0 0 0 0 0 0 0 0 0 0 0 0 0 0.1 0" in="shadowBlurOuter1" result="shadowMatrixOuter1"/><feMorphology radius=".5" operator="dilate" in="SourceAlpha" result="shadowSpreadOuter2"/><feOffset dy="1" in="shadowSpreadOuter2" result="shadowOffsetOuter2"/><feGaussianBlur stdDeviation=".5" in="shadowOffsetOuter2" result="shadowBlurOuter2"/><feComposite in="shadowBlurOuter2" in2="SourceAlpha" operator="out" result="shadowBlurOuter2"/><feColorMatrix values="0 0 0 0 0 0 0 0 0 0 0 0 0 0 0 0 0 0 0.16 0" in="shadowBlurOuter2" result="shadowMatrixOuter2"/><feMorphology radius=".5" operator="dilate" in="SourceAlpha" result="shadowSpreadOuter3"/><feOffset dy="3" in="shadowSpreadOuter3" result="shadowOffsetOuter3"/><feGaussianBlur stdDeviation="4" in="shadowOffsetOuter3" result="shadowBlurOuter3"/><feComposite in="shadowBlurOuter3" in2="SourceAlpha" operator="out" result="shadowBlurOuter3"/><feColorMatrix values="0 0 0 0 0 0 0 0 0 0 0 0 0 0 0 0 0 0 0.15 0" in="shadowBlurOuter3" result="shadowMatrixOuter3"/><feMerge><feMergeNode in="shadowMatrixOuter1"/><feMergeNode in="shadowMatrixOuter2"/><feMergeNode in="shadowMatrixOuter3"/></feMerge></filter><path d="M15.5 0h321.939l.637.001c.179.001.357.003.536.008.39.01.783.034 1.168.103.391.07.755.185 1.11.366a3.728 3.728 0 0 1 1.632 1.632c.181.355.296.719.366 1.11.07.385.092.778.103 1.168.005.178.007.357.008.536v.637L343 8V6.78v14.44V20v2.439l-.001.637c-.002.179-.004.357-.009.536-.01.39-.033.783-.102 1.168-.07.39-.185.755-.366 1.11a3.734 3.734 0 0 1-1.632 1.632c-.355.181-.719.296-1.11.366-.385.07-.778.092-1.168.103-.179.005-.357.007-.536.008h-.637L335 28h1.22H6.78 8 5.561l-.637-.001a25.594 25.594 0 0 1-.536-.008 7.795 7.795 0 0 1-1.168-.103 3.943 3.943 0 0 1-1.11-.366A3.734 3.734 0 0 1 .478 25.89a3.938 3.938 0 0 1-.366-1.11 7.785 7.785 0 0 1-.103-1.168 25.569 25.569 0 0 1-.008-.536v-.637L0 20v1.22V6.78 8 5.561l.001-.637c.002-.179.003-.358.009-.536.01-.39.033-.782.102-1.168.07-.391.185-.755.366-1.11A3.73 3.73 0 0 1 2.11.478c.355-.181.719-.296 1.11-.366.385-.07.778-.092 1.168-.103.179-.005.357-.007.536-.008L5.561 0H15.5z" id="c"/><path d="M15.5 0h321.939c.816.002.994.004 1.173.01.39.01.783.033 1.168.102.391.07.755.185 1.11.366a3.728 3.728 0 0 1 1.632 1.632c.181.355.296.719.366 1.11.07.385.092.778.103 1.168.005.178.007.357.008.536v.637L343 8V6.78v14.44V20v2.439l-.001.637c-.002.179-.004.357-.009.536-.01.39-.033.783-.102 1.168-.07.39-.185.755-.366 1.11a3.734 3.734 0 0 1-1.632 1.632c-.355.181-.719.296-1.11.366-.385.07-.778.092-1.168.103-.749.009-.961.009-1.173.009H335h1.22H6.78 8 5.561a50.163 50.163 0 0 1-1.173-.01 7.795 7.795 0 0 1-1.168-.102 3.943 3.943 0 0 1-1.11-.366A3.734 3.734 0 0 1 .478 25.89a3.938 3.938 0 0 1-.366-1.11 7.785 7.785 0 0 1-.103-1.168 25.569 25.569 0 0 1-.008-.536v-.637L0 20v1.22V6.78 8 5.561l.001-.637c.002-.179.003-.358.009-.536.01-.39.033-.782.102-1.168.07-.391.185-.755.366-1.11A3.73 3.73 0 0 1 2.11.478c.355-.181.719-.296 1.11-.366.385-.07.778-.092 1.168-.103C5.136 0 5.349 0 5.56 0H15.5z" id="e"/><circle id="h" cx="14.5" cy="14.5" r="14"/><filter x="-57.1%" y="-39.3%" width="214.3%" height="221.4%" filterUnits="objectBoundingBox" id="g"><feMorphology radius=".5" operator="dilate" in="SourceAlpha" result="shadowSpreadOuter1"/><feOffset dy="3" in="shadowSpreadOuter1" result="shadowOffsetOuter1"/><feGaussianBlur stdDeviation=".5" in="shadowOffsetOuter1" result="shadowBlurOuter1"/><feComposite in="shadowBlurOuter1" in2="SourceAlpha" operator="out" result="shadowBlurOuter1"/><feColorMatrix values="0 0 0 0 0 0 0 0 0 0 0 0 0 0 0 0 0 0 0.1 0" in="shadowBlurOuter1" result="shadowMatrixOuter1"/><feMorphology radius=".5" operator="dilate" in="SourceAlpha" result="shadowSpreadOuter2"/><feOffset dy="1" in="shadowSpreadOuter2" result="shadowOffsetOuter2"/><feGaussianBlur stdDeviation=".5" in="shadowOffsetOuter2" result="shadowBlurOuter2"/><feComposite in="shadowBlurOuter2" in2="SourceAlpha" operator="out" result="shadowBlurOuter2"/><feColorMatrix values="0 0 0 0 0 0 0 0 0 0 0 0 0 0 0 0 0 0 0.16 0" in="shadowBlurOuter2" result="shadowMatrixOuter2"/><feMorphology radius=".5" operator="dilate" in="SourceAlpha" result="shadowSpreadOuter3"/><feOffset dy="3" in="shadowSpreadOuter3" result="shadowOffsetOuter3"/><feGaussianBlur stdDeviation="4" in="shadowOffsetOuter3" result="shadowBlurOuter3"/><feComposite in="shadowBlurOuter3" in2="SourceAlpha" operator="out" result="shadowBlurOuter3"/><feColorMatrix values="0 0 0 0 0 0 0 0 0 0 0 0 0 0 0 0 0 0 0.15 0" in="shadowBlurOuter3" result="shadowMatrixOuter3"/><feMerge><feMergeNode in="shadowMatrixOuter1"/><feMergeNode in="shadowMatrixOuter2"/><feMergeNode in="shadowMatrixOuter3"/></feMerge></filter></defs><g fill="none" fill-rule="evenodd"><g transform="translate(0 125)" fill-rule="nonzero"><path fill="#C7C7CC" d="M0 0h375v51H0z"/><rect fill="#FFF" x="8" y="8" width="359" height="36" rx="10"/><path d="M194.743 31.574l-3.833-3.834a5.426 5.426 0 0 0 1.05-3.232 5.532 5.532 0 0 0-5.5-5.508 5.436 5.436 0 0 0-5.46 5.468 5.532 5.532 0 0 0 5.5 5.508 5.409 5.409 0 0 0 3.242-1.061l.004-.003 3.83 3.831a.826.826 0 1 0 1.167-1.169zm-8.247-2.696a4.425 4.425 0 0 1-4.4-4.406 4.35 4.35 0 0 1 4.368-4.374 4.426 4.426 0 0 1 4.4 4.406 4.35 4.35 0 0 1-4.368 4.374z" fill="#8E8E93"/></g><g transform="translate(15 196)"><rect fill="#C7C7CC" fill-rule="nonzero" y="14" width="345" height="2" rx="1"/><rect fill="#007AFF" fill-rule="nonzero" y="14" width="172" height="2" rx="1"/><g transform="translate(158)"><circle cx="14" cy="14" r="14" transform="translate(1 1)" fill-rule="nonzero" fill="#000"/><g transform="translate(1 1)"><use fill="#000" filter="url(#a)" xlink:href="#b"/><use fill="#FFF" xlink:href="#b"/><circle stroke-opacity=".04" stroke="#000" stroke-width=".5" cx="14" cy="14" r="14.25"/></g><circle stroke-opacity=".04" stroke="#000" stroke-width=".5" cx="15" cy="15" r="14.25"/></g></g><path d="M357.5 74v14.757l-.001.316c-.002.213-.004.371-.008.525a7.16 7.16 0 0 1-.095 1.093 3.436 3.436 0 0 1-.32.972 3.234 3.234 0 0 1-1.413 1.414c-.3.152-.614.255-.971.319a7.17 7.17 0 0 1-1.093.095 24.94 24.94 0 0 1-.842.009H20.243l-.316-.001a24.95 24.95 0 0 1-.526-.008 7.169 7.169 0 0 1-1.093-.095 3.441 3.441 0 0 1-.971-.32 3.234 3.234 0 0 1-1.413-1.413 3.436 3.436 0 0 1-.32-.972 7.157 7.157 0 0 1-.095-1.092 24.535 24.535 0 0 1-.009-.842v-.227V71.56v-.091l.001-.543c.002-.214.004-.372.008-.525a7.16 7.16 0 0 1 .095-1.093c.064-.358.167-.673.32-.972a3.23 3.23 0 0 1 1.413-1.414c.3-.152.614-.255.971-.319a7.17 7.17 0 0 1 1.093-.095c.158-.004.32-.007.526-.008h.316l.318-.001H352.757l.316.001c.205.001.368.004.525.008.448.012.781.039 1.094.095.357.064.672.167.971.32a3.228 3.228 0 0 1 1.413 1.413c.153.3.256.614.32.972.056.312.083.643.095 1.092.004.154.006.312.008.526v.634L357.5 74z" stroke="#007AFF"/><g transform="translate(15 66)"><mask id="d" fill="#fff"><use xlink:href="#c"/></mask><g mask="url(#d)"><path d="M172 0h171v28H172z"/><path d="M248.486 16.972h-4.418V8.84h-1.142V18h5.56v-1.028zm3.714.19c.562 0 1.029-.164 1.4-.492.37-.328.555-.735.555-1.222v-.628l-1.841.12c-.999.068-1.498.44-1.498 1.118 0 .347.131.617.393.812.263.195.593.292.99.292zm-.203.959c-.665 0-1.216-.183-1.654-.55-.438-.366-.657-.862-.657-1.488 0-1.253.832-1.928 2.495-2.025l1.974-.12v-.623c0-.871-.517-1.307-1.55-1.307-.41 0-.75.074-1.021.222-.27.148-.444.358-.52.628h-1.105c.072-.55.355-.99.85-1.323.496-.332 1.107-.498 1.835-.498.834 0 1.476.202 1.926.606.451.404.677.961.677 1.672V18h-1.042v-1.01h-.101a2.25 2.25 0 0 1-.876.839 2.57 2.57 0 0 1-1.231.292zm8.594 0c-.474 0-.904-.107-1.292-.321a2.292 2.292 0 0 1-.904-.892h-.102V18h-1.04V8.44h1.091v3.796h.102c.186-.368.473-.66.86-.876a2.595 2.595 0 0 1 1.285-.323c.872 0 1.568.321 2.089.964.52.644.78 1.503.78 2.578 0 1.07-.26 1.928-.784 2.574-.522.645-1.217.968-2.085.968zm-.254-6.1c-.622 0-1.114.228-1.475.685-.362.457-.543 1.081-.543 1.873 0 .791.18 1.415.543 1.872.361.457.853.686 1.475.686.627 0 1.115-.227 1.467-.68.35-.452.526-1.079.526-1.878 0-.8-.175-1.426-.526-1.88-.352-.452-.84-.678-1.467-.678zm7.49-.02c-.545 0-.994.185-1.345.553-.351.368-.548.855-.59 1.46h3.77c-.013-.605-.186-1.092-.52-1.46-.335-.368-.773-.553-1.314-.553zm1.803 4.228h1.092c-.165.588-.5 1.05-1.003 1.387-.503.336-1.13.505-1.879.505-.948 0-1.699-.319-2.253-.956-.555-.637-.832-1.497-.832-2.58 0-1.075.28-1.935.838-2.58.559-.646 1.308-.968 2.247-.968.923 0 1.649.307 2.178.923.528.616.793 1.455.793 2.517v.419h-4.92v.05c.03.678.222 1.215.575 1.613.353.398.82.597 1.4.597.44 0 .808-.08 1.104-.238.296-.159.516-.389.66-.689zM272.512 18h1.092V8.44h-1.092V18z" fill="#007AFF"/></g></g><g transform="translate(15 66)"><mask id="f" fill="#fff"><use xlink:href="#e"/></mask><g mask="url(#f)"><path fill="#007AFF" d="M0 0h173v28H0z"/><path d="M77.486 16.972h-4.418V8.84h-1.142V18h5.56v-1.028zm3.714.19c.562 0 1.029-.164 1.4-.492.37-.328.555-.735.555-1.222v-.628l-1.841.12c-.999.068-1.498.44-1.498 1.118 0 .347.131.617.393.812.263.195.593.292.99.292zm-.203.959c-.665 0-1.216-.183-1.654-.55-.438-.366-.657-.862-.657-1.488 0-1.253.832-1.928 2.495-2.025l1.974-.12v-.623c0-.871-.517-1.307-1.55-1.307-.41 0-.75.074-1.021.222-.27.148-.444.358-.52.628h-1.105c.072-.55.355-.99.85-1.323.496-.332 1.107-.498 1.835-.498.834 0 1.476.202 1.926.606.451.404.677.961.677 1.672V18h-1.042v-1.01h-.101a2.25 2.25 0 0 1-.876.839 2.57 2.57 0 0 1-1.231.292zm8.594 0c-.474 0-.904-.107-1.292-.321a2.292 2.292 0 0 1-.904-.892h-.102V18h-1.04V8.44h1.091v3.796h.102c.186-.368.473-.66.86-.876a2.595 2.595 0 0 1 1.285-.323c.872 0 1.568.321 2.089.964.52.644.78 1.503.78 2.578 0 1.07-.26 1.928-.784 2.574-.522.645-1.217.968-2.085.968zm-.254-6.1c-.622 0-1.114.228-1.475.685-.362.457-.543 1.081-.543 1.873 0 .791.18 1.415.543 1.872.361.457.853.686 1.475.686.627 0 1.115-.227 1.467-.68.35-.452.526-1.079.526-1.878 0-.8-.175-1.426-.526-1.88-.352-.452-.84-.678-1.467-.678zm7.49-.02c-.545 0-.994.185-1.345.553-.351.368-.548.855-.59 1.46h3.77c-.013-.605-.186-1.092-.52-1.46-.335-.368-.773-.553-1.314-.553zm1.803 4.228h1.092c-.165.588-.5 1.05-1.003 1.387-.503.336-1.13.505-1.879.505-.948 0-1.699-.319-2.253-.956-.555-.637-.832-1.497-.832-2.58 0-1.075.28-1.935.838-2.58.559-.646 1.308-.968 2.247-.968.923 0 1.649.307 2.178.923.528.616.793 1.455.793 2.517v.419h-4.92v.05c.03.678.222 1.215.575 1.613.353.398.82.597 1.4.597.44 0 .808-.08 1.104-.238.296-.159.516-.389.66-.689zM101.512 18h1.092V8.44h-1.092V18z" fill="#FFF"/></g></g><g><g transform="translate(44 6)"><rect width="101" height="28" rx="4" fill="#007AFF" fill-opacity="0"/><rect stroke="#007AFF" x=".5" y=".5" width="100" height="27" rx="4"/></g><path fill="#007AFF" fill-rule="nonzero" d="M94 6h1v28h-1zM119 12v7h-7v2h7v7h2v-7h7v-2h-7v-7zM61 21h16v-2H61z"/><g fill-rule="nonzero" fill="#007AFF"><path d="M288.673 24.978H284V13h4.582c1.101 0 1.967.268 2.598.805.631.537.946 1.265.946 2.183 0 .62-.2 1.179-.601 1.677-.402.498-.89.8-1.465.905v.133c.819.105 1.469.419 1.95.942.482.523.722 1.18.722 1.971 0 1.052-.358 1.875-1.075 2.47-.716.595-1.71.892-2.984.892zm-3.179-10.658v3.843h2.39c.908 0 1.59-.16 2.047-.481.456-.321.685-.8.685-1.436 0-.61-.206-1.082-.619-1.42-.412-.337-.989-.506-1.73-.506h-2.773zm0 9.338h2.955c.902 0 1.586-.18 2.05-.54.465-.359.698-.885.698-1.576 0-.692-.242-1.214-.727-1.565-.484-.352-1.205-.527-2.162-.527h-2.814v4.208zm16.072-7.628h-1.427v5.296c0 .785-.21 1.4-.627 1.842-.418.443-1.022.665-1.814.665-.714 0-1.23-.193-1.548-.577-.318-.385-.477-.978-.477-1.78V16.03h-1.428v5.794c0 1.057.259 1.873.776 2.448.518.576 1.277.864 2.279.864.686 0 1.264-.136 1.735-.407.47-.271.816-.656 1.037-1.154h.133v1.403h1.361V16.03zm2.625-2.316v2.316h-1.444v1.195h1.444v5.429c0 .852.201 1.464.602 1.834.401.371 1.061.556 1.98.556a4.253 4.253 0 0 0 .838-.083v-1.203c-.133.01-.245.02-.336.025a5.53 5.53 0 0 1-.328.008c-.465 0-.802-.119-1.012-.357-.21-.238-.316-.62-.316-1.145v-5.064h1.992V16.03h-1.992v-2.316h-1.428zm5.514 0v2.316h-1.444v1.195h1.444v5.429c0 .852.2 1.464.602 1.834.401.371 1.06.556 1.98.556a4.253 4.253 0 0 0 .838-.083v-1.203c-.133.01-.245.02-.336.025a5.53 5.53 0 0 1-.328.008c-.465 0-.803-.119-1.013-.357-.21-.238-.315-.62-.315-1.145v-5.064h1.992V16.03h-1.992v-2.316h-1.428zm8.469 11.422c-1.273 0-2.279-.414-3.018-1.241-.738-.828-1.108-1.958-1.108-3.391 0-1.439.37-2.57 1.108-3.395.74-.825 1.745-1.237 3.018-1.237 1.273 0 2.278.412 3.017 1.237.739.824 1.108 1.956 1.108 3.395 0 1.433-.37 2.563-1.108 3.39-.739.828-1.744 1.242-3.017 1.242zm0-1.287c.846 0 1.5-.293 1.959-.88.459-.586.689-1.408.689-2.465 0-1.063-.23-1.886-.69-2.47-.459-.583-1.112-.875-1.958-.875-.847 0-1.5.292-1.96.875-.459.584-.688 1.407-.688 2.47 0 1.057.23 1.879.689 2.465.459.587 1.112.88 1.959.88zm5.704 1.129h1.428v-5.296c0-.786.213-1.403.64-1.85.425-.45.995-.673 1.71-.673.713 0 1.243.193 1.589.58.346.388.519.986.519 1.794v5.445h1.427v-5.794c0-1.062-.27-1.88-.81-2.453-.539-.573-1.312-.859-2.32-.859-.685 0-1.248.138-1.688.415-.44.277-.774.661-1 1.154h-.133V16.03h-1.362v8.948z"/></g><g><path d="M193.857 4.092c1.74-.1 3.478-.092 5.218-.092h8.817c1.774 0 3.512-.008 5.251.092 1.581.09 3.121.282 4.654.711 3.227.902 6.045 2.786 8.082 5.457a15.236 15.236 0 0 1 0 18.48c-2.037 2.67-4.855 4.555-8.082 5.457-1.533.43-3.073.62-4.654.711-1.739.1-3.477.091-5.217.091l-8.819.001c-1.772 0-3.51.008-5.25-.092-1.58-.09-3.12-.282-4.653-.71-3.227-.903-6.045-2.788-8.082-5.458a15.234 15.234 0 0 1 0-18.48c2.037-2.67 4.855-4.555 8.082-5.457 1.533-.429 3.073-.62 4.653-.71z" fill="#4CD964" fill-rule="nonzero"/><g transform="translate(199 5)"><circle cx="14.5" cy="14.5" r="14" fill-rule="nonzero" fill="#000"/><use fill="#000" filter="url(#g)" xlink:href="#h"/><use fill="#FFF" xlink:href="#h"/><circle stroke-opacity=".04" stroke="#000" stroke-width=".5" cx="14.5" cy="14.5" r="14.25"/><circle stroke-opacity=".04" stroke="#000" stroke-width=".5" cx="14.5" cy="14.5" r="14.25"/></g></g></g></g></svg>