<svg xmlns="http://www.w3.org/2000/svg" width="334" height="337" viewBox="0 0 334 337" xmlns:xlink="http://www.w3.org/1999/xlink"><defs><rect id="b" width="254" height="250" y="37" rx="38"/><filter id="a" width="151.2%" height="152%" x="-25.6%" y="-22%" filterUnits="objectBoundingBox"><feOffset dy="10" in="SourceAlpha" result="shadowOffsetOuter1"/><feGaussianBlur stdDeviation="20" in="shadowOffsetOuter1" result="shadowBlurOuter1"/><feColorMatrix values="0 0 0 0 0.440703533 0 0 0 0 0.503310129 0 0 0 0 0.68486926 0 0 0 0.384454257 0" in="shadowBlurOuter1"/></filter><filter id="c" width="135.4%" height="136%" x="-17.7%" y="-14%" filterUnits="objectBoundingBox"><feOffset dy="-10" in="SourceAlpha" result="shadowOffsetInner1"/><feComposite in="shadowOffsetInner1" in2="SourceAlpha" operator="arithmetic" k2="-1" k3="1" result="shadowInnerInner1"/><feColorMatrix values="0 0 0 0 0.403921569 0 0 0 0 0.458823529 0 0 0 0 0.631372549 0 0 0 0.06 0" in="shadowInnerInner1"/></filter><linearGradient id="d" x1="21.895%" x2="77.978%" y1="121.561%" y2="8.499%"><stop stop-color="#201C38" offset="0%"/><stop stop-color="#3E396B" offset="100%"/></linearGradient></defs><g fill="none" fill-rule="evenodd" transform="translate(40)"><use fill="#000" filter="url(#a)" xlink:href="#b"/><use fill="#FFF" xlink:href="#b"/><use fill="#000" filter="url(#c)" xlink:href="#b"/><g fill-rule="nonzero"><path fill="#4DBA87" d="M126.4 124.4c2 0 3.9-.4 5.8-1l3.2 5.5 2.2 3.8c.6 1.1 1.7 1.7 2.9 1.7.6 0 1.1-.1 1.7-.4 1.6-.9 2.1-3 1.2-4.6l-2.2-3.8-3.2-5.6c3.7-3.2 6.1-8 6.1-13.3 0-9.7-7.9-17.6-17.6-17.6-9.7 0-17.7 7.9-17.7 17.7 0 9.8 7.9 17.6 17.6 17.6zm0-28.6c6 0 10.9 4.9 10.9 10.9s-4.9 10.9-10.9 10.9-10.9-4.9-10.9-10.9 4.9-10.9 10.9-10.9z"/><path fill="url(#d)" d="M69.3 44.8c-8.6 0-15.7 6.2-17.3 14.3H41.3c-1.8 0-3.3 1.5-3.3 3.3 0 1.8 1.5 3.3 3.3 3.3H52C53.6 73.8 60.7 80 69.3 80c9.7 0 17.6-7.9 17.6-17.6 0-9.7-7.9-17.6-17.6-17.6zm0 28.6c-6 0-10.9-4.9-10.9-10.9s4.9-10.9 10.9-10.9 10.9 4.9 10.9 10.9-4.9 10.9-10.9 10.9zM29.2 49.2c3.7 3.2 6.1 7.9 6 13.3 0 9.7-7.9 17.6-17.6 17.6C7.9 80.1 0 72.3 0 62.5s7.9-17.7 17.6-17.7c2.1 0 4 .4 5.8 1l3.2-5.5 2.2-3.8c1-1.6 3-2.1 4.6-1.2 1.6 1 2.1 3 1.2 4.6l-2.2 3.8-3.2 5.5zM17.6 73.4c6.1 0 11-4.9 10.9-10.9 0-6-4.9-10.9-10.9-10.9S6.7 56.5 6.7 62.5s4.9 10.9 10.9 10.9z" transform="translate(83 89)"/></g><path fill="#3E396B" d="M43.34 196.2h3.792V213H43.34v-16.8zm19.044 5.088c.856.896 1.284 2.096 1.284 3.6V213h-3.696v-7.032c0-.816-.228-1.46-.684-1.932-.456-.472-1.076-.708-1.86-.708-.912.016-1.632.332-2.16.948-.528.616-.792 1.404-.792 2.364V213H50.78v-12.912h3.696v2.256c.896-1.568 2.384-2.368 4.464-2.4 1.44 0 2.588.448 3.444 1.344zm10.524 1.668c-.688-.216-1.304-.324-1.848-.324-.448 0-.808.08-1.08.24a.783.783 0 0 0-.408.72c0 .352.184.624.552.816.368.192.968.408 1.8.648.912.272 1.664.54 2.256.804a4.207 4.207 0 0 1 1.536 1.176c.432.52.648 1.204.648 2.052 0 1.28-.492 2.276-1.476 2.988-.984.712-2.244 1.068-3.78 1.068a9.949 9.949 0 0 1-3.048-.468c-.976-.312-1.824-.756-2.544-1.332l1.2-2.496a7.57 7.57 0 0 0 2.196 1.188c.808.28 1.572.42 2.292.42.496 0 .892-.084 1.188-.252a.817.817 0 0 0 .444-.756c0-.368-.188-.656-.564-.864-.376-.208-.98-.432-1.812-.672-.88-.256-1.612-.512-2.196-.768a3.915 3.915 0 0 1-1.5-1.164c-.416-.52-.624-1.196-.624-2.028 0-1.28.48-2.272 1.44-2.976.96-.704 2.176-1.056 3.648-1.056.88 0 1.76.124 2.64.372.88.248 1.68.604 2.4 1.068l-1.272 2.52c-.704-.4-1.4-.708-2.088-.924zm13.92 9.324a6.04 6.04 0 0 1-1.596.66 6.977 6.977 0 0 1-1.764.228c-1.2 0-2.176-.344-2.928-1.032-.752-.688-1.128-1.672-1.128-2.952v-5.976h-1.8v-2.544h1.8v-3.552h3.672v3.552h3.504v2.568h-3.504v5.328c0 .992.392 1.488 1.176 1.488.544 0 1.144-.16 1.8-.48l.768 2.712zm9.72.72v-1.512c-.432.544-.992.96-1.68 1.248-.688.288-1.48.432-2.376.432-1.36 0-2.44-.372-3.24-1.116-.8-.744-1.2-1.716-1.2-2.916 0-1.216.428-2.164 1.284-2.844.856-.68 2.068-1.028 3.636-1.044h3.552v-.24c0-.688-.228-1.22-.684-1.596-.456-.376-1.124-.564-2.004-.564-1.2 0-2.48.376-3.84 1.128l-1.152-2.544c1.024-.512 1.984-.888 2.88-1.128.896-.24 1.88-.36 2.952-.36 1.728 0 3.068.408 4.02 1.224.952.816 1.436 1.952 1.452 3.408l.024 8.424h-3.624zm-1.032-3.024c.56-.368.896-.832 1.008-1.392v-1.152H93.62c-.72 0-1.252.116-1.596.348-.344.232-.516.604-.516 1.116 0 .496.18.892.54 1.188.36.296.852.444 1.476.444.768 0 1.432-.184 1.992-.552zm19.452-8.688c.856.896 1.284 2.096 1.284 3.6V213h-3.696v-7.032c0-.816-.228-1.46-.684-1.932-.456-.472-1.076-.708-1.86-.708-.912.016-1.632.332-2.16.948-.528.616-.792 1.404-.792 2.364V213h-3.696v-12.912h3.696v2.256c.896-1.568 2.384-2.368 4.464-2.4 1.44 0 2.588.448 3.444 1.344zm12.468 10.992a6.04 6.04 0 0 1-1.596.66 6.977 6.977 0 0 1-1.764.228c-1.2 0-2.176-.344-2.928-1.032-.752-.688-1.128-1.672-1.128-2.952v-5.976h-1.8v-2.544h1.8v-3.552h3.672v3.552h3.504v2.568h-3.504v5.328c0 .992.392 1.488 1.176 1.488.544 0 1.144-.16 1.8-.48l.768 2.712zm10.62-12.66c-.968-.312-1.796-.468-2.484-.468-.656 0-1.176.12-1.56.36-.384.24-.576.592-.576 1.056 0 .592.276 1.044.828 1.356.552.312 1.404.636 2.556.972 1.152.336 2.1.672 2.844 1.008.744.336 1.38.84 1.908 1.512s.792 1.56.792 2.664c0 1.072-.284 1.996-.852 2.772-.568.776-1.348 1.364-2.34 1.764-.992.4-2.12.6-3.384.6-1.36 0-2.696-.24-4.008-.72-1.312-.48-2.448-1.136-3.408-1.968l1.512-3.096a10.222 10.222 0 0 0 2.928 1.848c1.104.464 2.112.696 3.024.696.784 0 1.396-.144 1.836-.432.44-.288.66-.704.66-1.248 0-.432-.148-.788-.444-1.068a3.4 3.4 0 0 0-1.128-.684 21.855 21.855 0 0 0-1.884-.6c-1.152-.32-2.092-.64-2.82-.96a4.962 4.962 0 0 1-1.884-1.464c-.528-.656-.792-1.528-.792-2.616 0-1.008.272-1.892.816-2.652.544-.76 1.304-1.344 2.28-1.752.976-.408 2.112-.612 3.408-.612a11.8 11.8 0 0 1 3.408.504c1.12.336 2.112.784 2.976 1.344l-1.464 3.144a12.754 12.754 0 0 0-2.748-1.26zm17.184 2.148c1.08 1.2 1.62 2.872 1.62 5.016 0 .384-.008.68-.024.888h-9.264c.208.816.608 1.452 1.2 1.908.592.456 1.304.684 2.136.684.608 0 1.192-.116 1.752-.348a4.632 4.632 0 0 0 1.512-1.02l1.944 1.968a6.534 6.534 0 0 1-2.388 1.692c-.936.392-1.98.588-3.132.588-1.36 0-2.548-.272-3.564-.816a5.725 5.725 0 0 1-2.352-2.304c-.552-.992-.828-2.136-.828-3.432 0-1.312.28-2.468.84-3.468a5.88 5.88 0 0 1 2.352-2.328c1.008-.552 2.16-.828 3.456-.828 2.08 0 3.66.6 4.74 1.8zm-1.86 3.72c-.032-.848-.304-1.528-.816-2.04s-1.192-.768-2.04-.768c-.8 0-1.468.252-2.004.756s-.876 1.188-1.02 2.052h5.88zM166.772 213v-1.512c-.432.544-.992.96-1.68 1.248-.688.288-1.48.432-2.376.432-1.36 0-2.44-.372-3.24-1.116-.8-.744-1.2-1.716-1.2-2.916 0-1.216.428-2.164 1.284-2.844.856-.68 2.068-1.028 3.636-1.044h3.552v-.24c0-.688-.228-1.22-.684-1.596-.456-.376-1.124-.564-2.004-.564-1.2 0-2.48.376-3.84 1.128l-1.152-2.544c1.024-.512 1.984-.888 2.88-1.128.896-.24 1.88-.36 2.952-.36 1.728 0 3.068.408 4.02 1.224.952.816 1.436 1.952 1.452 3.408l.024 8.424h-3.624zm-1.032-3.024c.56-.368.896-.832 1.008-1.392v-1.152h-2.904c-.72 0-1.252.116-1.596.348-.344.232-.516.604-.516 1.116 0 .496.18.892.54 1.188.36.296.852.444 1.476.444.768 0 1.432-.184 1.992-.552zm13.296-9.384c.72-.416 1.56-.632 2.52-.648v3.48a5.06 5.06 0 0 0-.576-.024c-1.136 0-2.036.308-2.7.924-.664.616-.996 1.436-.996 2.46V213h-3.696v-12.912h3.696v2.328c.448-.8 1.032-1.408 1.752-1.824zm10.272 2.52c-.928 0-1.684.316-2.268.948-.584.632-.876 1.468-.876 2.508s.288 1.884.864 2.532c.576.648 1.312.972 2.208.972 1.344 0 2.344-.504 3-1.512l2.544 1.728c-.544.912-1.308 1.616-2.292 2.112-.984.496-2.132.744-3.444.744-1.296 0-2.44-.272-3.432-.816a5.783 5.783 0 0 1-2.316-2.304c-.552-.992-.828-2.136-.828-3.432 0-1.312.276-2.468.828-3.468a5.821 5.821 0 0 1 2.328-2.328c1-.552 2.156-.828 3.468-.828 1.232 0 2.328.236 3.288.708a5.776 5.776 0 0 1 2.304 2.004l-2.496 1.8c-.736-.912-1.696-1.368-2.88-1.368zm19.524-1.824c.856.896 1.284 2.096 1.284 3.6V213h-3.696v-7.032c0-.816-.228-1.46-.684-1.932-.456-.472-1.076-.708-1.86-.708-.912.016-1.636.332-2.172.948-.536.616-.804 1.404-.804 2.364V213h-3.696v-17.808h3.696v7.176c.896-1.584 2.384-2.392 4.464-2.424 1.456 0 2.612.448 3.468 1.344z"/><path fill="#8994C6" d="M102.456 226.712c-.256.235-.384.57-.384 1.008v1.104h2.336v1.136h-2.336V237h-1.488v-7.04H99.48v-1.136h1.104v-.912c0-.619.13-1.144.392-1.576a2.554 2.554 0 0 1 1.032-.976 2.974 2.974 0 0 1 1.376-.328c.47 0 .96.128 1.472.384l-.352 1.216c-.384-.181-.747-.272-1.088-.272-.384 0-.704.117-.96.352zm9.08 2.32a3.913 3.913 0 0 1 1.536 1.512c.368.645.552 1.384.552 2.216 0 .832-.184 1.573-.552 2.224a3.898 3.898 0 0 1-1.536 1.52c-.656.363-1.405.544-2.248.544-.853 0-1.608-.181-2.264-.544a3.913 3.913 0 0 1-1.536-1.512c-.368-.645-.552-1.39-.552-2.232 0-.832.184-1.57.552-2.216.368-.645.88-1.15 1.536-1.512.656-.363 1.41-.544 2.264-.544.843 0 1.592.181 2.248.544zm-3.728 1.136c-.432.256-.768.61-1.008 1.064-.24.453-.36.968-.36 1.544 0 .587.12 1.11.36 1.568.24.459.576.813 1.008 1.064.432.25.925.376 1.48.376.544 0 1.032-.125 1.464-.376.432-.25.768-.605 1.008-1.064.24-.459.36-.981.36-1.568 0-.576-.12-1.09-.36-1.544a2.654 2.654 0 0 0-1.008-1.064 2.817 2.817 0 0 0-1.464-.384c-.555 0-1.048.128-1.48.384zm10.568-1.192c.512-.315 1.12-.477 1.824-.488v1.44c-.864-.032-1.563.192-2.096.672-.533.48-.837 1.125-.912 1.936V237h-1.488v-8.464h1.488v1.824c.277-.608.672-1.07 1.184-1.384zm6.256-3.176h1.648l3.696 9.488 3.696-9.488h1.616l-4.544 11.2h-1.6l-4.512-11.2zm19.68 2.736V237h-1.504v-1.792c-.555 1.205-1.6 1.819-3.136 1.84-.981 0-1.75-.29-2.304-.872-.555-.581-.832-1.384-.832-2.408v-5.232h1.504v4.832c0 .715.195 1.272.584 1.672.39.4.925.6 1.608.6.79-.01 1.416-.29 1.88-.84.464-.55.696-1.25.696-2.104v-4.16h1.504zm9.264 1.112c.672.773 1.008 1.848 1.008 3.224 0 .213-.005.373-.016.48h-6.688c.117.757.435 1.36.952 1.808.517.448 1.155.672 1.912.672.501 0 .968-.09 1.4-.272a3.364 3.364 0 0 0 1.128-.768l.816.848a4.275 4.275 0 0 1-1.504 1.04 5.012 5.012 0 0 1-1.952.368c-.832 0-1.57-.179-2.216-.536a3.765 3.765 0 0 1-1.504-1.512c-.357-.65-.536-1.392-.536-2.224 0-.832.179-1.57.536-2.216a3.903 3.903 0 0 1 1.496-1.52c.64-.368 1.37-.552 2.192-.552 1.312 0 2.304.387 2.976 1.16zm-.336 2.552c-.043-.768-.299-1.373-.768-1.816-.47-.443-1.088-.664-1.856-.664-.747 0-1.368.224-1.864.672-.496.448-.792 1.05-.888 1.808h5.376z"/><g transform="translate(217)"><circle cx="37.277" cy="37.277" r="37.277" fill="#4DBA87"/><path fill="#FFF" fill-rule="nonzero" d="M32.99 21.667l4.902 8.49 4.902-8.49h16.324L37.892 58.43 16.667 21.667z"/><path fill="#435466" fill-rule="nonzero" d="M32.834 21.667l4.901 8.49 4.902-8.49h7.834L37.735 43.725 25 21.667z"/></g></g></svg>