<svg xmlns="http://www.w3.org/2000/svg" width="499" height="242" viewBox="0 0 499 242"><defs><linearGradient id="a" x1="49.996%" x2="49.996%" y1="99.989%" y2="0%"><stop offset="0%" stop-color="#3D386B"/><stop offset="100%" stop-color="#211E39"/></linearGradient><linearGradient id="b" x1=".006%" x2="99.989%" y1="50.014%" y2="50.014%"><stop offset="0%" stop-color="#3D386B"/><stop offset="100%" stop-color="#211E39"/></linearGradient><linearGradient id="c" x1=".01%" x2="100.028%" y1="50.056%" y2="50.056%"><stop offset="0%" stop-color="#211E39"/><stop offset="100%" stop-color="#3D386B"/></linearGradient><linearGradient id="d" x1="49.999%" x2="49.999%" y1="99.986%" y2="-.002%"><stop offset="0%" stop-color="#FCFCFE"/><stop offset="100%" stop-color="#EDEDFA"/></linearGradient><linearGradient id="e" x1=".012%" x2="99.995%" y1="50.012%" y2="50.012%"><stop offset="0%" stop-color="#FCFCFE"/><stop offset="96.99%" stop-color="#C6C6EF"/></linearGradient><linearGradient id="f" x1=".062%" x2="100.024%" y1="50.003%" y2="50.003%"><stop offset="0%" stop-color="#A4AECF"/><stop offset="100%" stop-color="#211E39"/></linearGradient><linearGradient id="g" x1=".018%" x2="99.979%" y1="49.953%" y2="49.953%"><stop offset="0%" stop-color="#3D386B"/><stop offset="100%" stop-color="#211E39"/></linearGradient><linearGradient id="h" x1=".015%" x2="100.018%" y1="49.983%" y2="49.983%"><stop offset="0%" stop-color="#6A7599"/><stop offset="100%" stop-color="#211E39"/></linearGradient><linearGradient id="i" x1="50.004%" x2="50.004%" y1="100.018%" y2="-.017%"><stop offset="0%" stop-color="#A4AECF"/><stop offset="100%" stop-color="#211E39"/></linearGradient><linearGradient id="j" x1="-.007%" x2="100.005%" y1="49.999%" y2="49.999%"><stop offset="0%" stop-color="#A4AECF"/><stop offset="100%" stop-color="#211E39"/></linearGradient><linearGradient id="k" x1=".01%" x2="99.993%" y1="49.999%" y2="49.999%"><stop offset="0%" stop-color="#211E39"/><stop offset="100%" stop-color="#6A7599"/></linearGradient><linearGradient id="l" x1="-3.892%" x2="736.707%" y1="50.054%" y2="50.054%"><stop offset="0%" stop-color="#A4AECF"/><stop offset="100%" stop-color="#211E39"/></linearGradient><linearGradient id="m" x1="-159.14%" x2="826.877%" y1="49.488%" y2="49.488%"><stop offset="0%" stop-color="#A4AECF"/><stop offset="100%" stop-color="#211E39"/></linearGradient><linearGradient id="n" x1="-513.414%" x2="1476.124%" y1="49.926%" y2="49.926%"><stop offset="0%" stop-color="#A4AECF"/><stop offset="100%" stop-color="#211E39"/></linearGradient><linearGradient id="o" x1="-338.288%" x2="702.678%" y1="50.082%" y2="50.082%"><stop offset="0%" stop-color="#A4AECF"/><stop offset="100%" stop-color="#211E39"/></linearGradient><linearGradient id="p" x1="-476.613%" x2="625.787%" y1="49.779%" y2="49.779%"><stop offset="0%" stop-color="#A4AECF"/><stop offset="100%" stop-color="#211E39"/></linearGradient><linearGradient id="q" x1="-800.299%" x2="700.737%" y1="49.848%" y2="49.848%"><stop offset="0%" stop-color="#A4AECF"/><stop offset="100%" stop-color="#211E39"/></linearGradient><linearGradient id="r" x1="-2301.854%" x2="1434.056%" y1="49.938%" y2="49.938%"><stop offset="0%" stop-color="#A4AECF"/><stop offset="100%" stop-color="#211E39"/></linearGradient><linearGradient id="s" x1="-668.082%" x2="350.803%" y1="49.992%" y2="49.992%"><stop offset="0%" stop-color="#A4AECF"/><stop offset="100%" stop-color="#211E39"/></linearGradient><linearGradient id="t" x1="-785.346%" x2="255.619%" y1="50.082%" y2="50.082%"><stop offset="0%" stop-color="#A4AECF"/><stop offset="100%" stop-color="#211E39"/></linearGradient><linearGradient id="u" x1="-783.205%" x2="81.144%" y1="49.824%" y2="49.824%"><stop offset="0%" stop-color="#A4AECF"/><stop offset="100%" stop-color="#211E39"/></linearGradient><linearGradient id="v" x1="-.495%" x2="99.64%" y1="53.707%" y2="46.728%"><stop offset="0%" stop-color="#FCFCFE"/><stop offset="100%" stop-color="#EDEDFA"/></linearGradient><linearGradient id="w" x1="-.312%" x2="99.778%" y1="55.755%" y2="47.238%"><stop offset="0%" stop-color="#FCFCFE"/><stop offset="100%" stop-color="#EDEDFA"/></linearGradient><linearGradient id="x" x1="-.559%" x2="99.617%" y1="52.538%" y2="46.496%"><stop offset="0%" stop-color="#FCFCFE"/><stop offset="100%" stop-color="#EDEDFA"/></linearGradient><linearGradient id="y" x1="-.071%" x2="99.934%" y1="53.442%" y2="46.594%"><stop offset="0%" stop-color="#FCFCFE"/><stop offset="100%" stop-color="#EDEDFA"/></linearGradient></defs><g fill="none"><path fill="#15117C" d="M290.94 59.738l-97.036 30.47 97.036 30.471 97.035-30.47z" opacity=".1"/><path fill="url(#a)" d="M97.036 0L.224 30.387C32.528 62.129 64.819 78 97.096 78c32.278 0 64.538-15.871 96.78-47.613L97.036 0z" transform="translate(193.904)"/><path fill="url(#b)" d="M97.036 100.393l96.84-30.386v-39.62L97.036 60.8z" transform="translate(193.904)"/><path fill="#201C38" d="M290.94 100.393l-96.812-30.386v-39.62L290.94 60.8z"/><ellipse cx="243.83" cy="65.322" fill="#3D386B" rx="4.505" ry="6.324" transform="rotate(-16.57 243.83 65.322)"/><ellipse cx="243.83" cy="65.322" fill="#5A578E" rx="2.91" ry="4.113" transform="rotate(-16.57 243.83 65.322)"/><path fill="url(#c)" d="M152.017 98.379c-.98 0-1.875-.616-2.21-1.595a2.35 2.35 0 0 1 1.455-2.938l90.88-30.303a2.35 2.35 0 0 1 2.938 1.455 2.35 2.35 0 0 1-1.455 2.938l-90.88 30.33a2.086 2.086 0 0 1-.728.113z"/><path fill="#15117C" d="M96.812 120.008L.7 150.17l96.112 30.163 96.112-30.163z" opacity=".1"/><path fill="url(#d)" d="M96.812.084L0 30.47l96.812 30.414 96.84-30.414z" transform="translate(0 59.878)"/><path fill="url(#e)" d="M96.812 100.477l96.84-30.386V30.47l-96.84 30.414z" transform="translate(0 59.878)"/><path fill="#D7D7F4" d="M96.812 160.355L0 129.97V90.35l96.812 30.414z"/><path fill="url(#f)" d="M8.282 2.854c3.358-1.063 9.43-.867 13.515.448 4.085 1.315 4.7 3.245 1.343 4.337-3.358 1.063-9.43.867-13.515-.448-4.085-1.343-4.7-3.274-1.343-4.337zm19.53 6.24c1.12-.364 1.903-.784 2.547-1.26l5.54.644 3.833.448c1.091.14 2.099.056 2.77-.14.336-.112.56-.224.672-.392.28-.476-.868-1.035-2.463-1.231l-3.833-.448-5.596-.643c-.112-1.371-2.043-2.826-5.68-4.001C18.971-.056 9.178-.364 3.749 1.37-1.679 3.106-.755 6.24 5.932 8.394c6.715 2.127 16.452 2.434 21.88.7z" transform="translate(64.914 78.905)"/><path fill="url(#g)" d="M39.34 21.993c3.414-1.092 2.798-3.022-1.343-4.337-4.085-1.315-10.185-1.511-13.514-.448-3.358 1.063-2.742 3.022 1.343 4.337s10.157 1.51 13.514.448zm-10.045-7.36c4.253.029 8.786.644 12.424 1.847 6.631 2.127 7.61 5.26 2.182 6.996-5.428 1.734-15.165 1.427-21.852-.7-6.688-2.154-7.667-5.288-2.239-6.995 1.175-.364 2.518-.616 3.917-.812l-1.958-1.762-1.371-1.231c-.532-.532.251-1.008 1.762-1.092 1.567-.056 3.218.28 3.806.784l1.37 1.23 1.96 1.736zm38.921-1.846c-3.358 1.063-9.43.867-13.514-.448-4.086-1.315-4.701-3.245-1.343-4.337 3.357-1.09 9.429-.867 13.514.448 4.085 1.315 4.7 3.274 1.343 4.337zm-19.53-6.24c-4.813 1.54-4.533 4.141.112 6.212l-3.526 1.12-2.462.783c-1.007.307-.812.923.42 1.315 1.23.391 3.077.447 4.085.14l2.462-.784 3.526-1.119c6.435 1.483 14.633 1.567 19.418.056 5.428-1.735 4.449-4.869-2.183-6.995-6.63-2.155-16.424-2.462-21.852-.728z" transform="translate(64.914 78.905)"/><ellipse cx="146.674" cy="126.171" fill="#3D386B" rx="6.323" ry="4.505" transform="rotate(-61.574 146.674 126.171)"/><ellipse cx="146.674" cy="126.171" fill="#5A578E" rx="4.113" ry="2.91" transform="rotate(-61.574 146.674 126.171)"/><path fill="url(#h)" d="M240.127 158.676c-.224 0-.475-.027-.7-.111l-92.754-29.688c-1.231-.391-1.903-1.706-1.511-2.91.392-1.203 1.707-1.874 2.91-1.51l92.727 29.687a2.315 2.315 0 0 1 1.51 2.91 2.3 2.3 0 0 1-2.182 1.622z"/><g><path fill="#15117C" d="M290.408 180.305l-97.036 30.47 97.036 30.471 97.036-30.47z" opacity=".1"/><path fill="url(#i)" d="M97.064.252L.224 30.638l96.932 37.547 96.72-37.547z" transform="translate(193.344 120.315)"/><path fill="url(#j)" d="M97.064 100.645l96.812-30.386v-39.62L97.064 61.024z" transform="translate(193.344 120.315)"/><path fill="url(#k)" d="M97.064 100.645L.224 70.26V30.64l96.84 30.386z" transform="translate(193.344 120.315)"/></g><g fill="#3B3769"><path d="M410.891 44.517c-.643-.196-1.203-.308-1.679-.308-.531 0-.979.112-1.287.308-.307.196-.475.475-.475.84 0 .335.112.615.335.81.224.196.504.392.84.532.336.14.783.308 1.37.476a15.8 15.8 0 0 1 1.988.7 3.41 3.41 0 0 1 1.315 1.063c.363.475.531 1.063.531 1.846 0 .728-.196 1.343-.587 1.903a3.646 3.646 0 0 1-1.623 1.231c-.672.28-1.455.42-2.35.42a7.527 7.527 0 0 1-2.715-.504 7.962 7.962 0 0 1-2.322-1.37l.951-1.932c.588.56 1.287.98 2.015 1.316.755.307 1.455.475 2.098.475.644 0 1.12-.112 1.483-.364.364-.251.532-.56.532-.979 0-.336-.112-.615-.336-.84-.224-.223-.503-.391-.84-.53-.335-.14-.81-.28-1.398-.449a13.796 13.796 0 0 1-1.959-.7 3.335 3.335 0 0 1-1.315-1.034c-.364-.448-.532-1.064-.532-1.819 0-.7.196-1.287.56-1.819.364-.503.895-.923 1.567-1.203.671-.28 1.455-.42 2.322-.42a7.99 7.99 0 0 1 2.295.336 7.391 7.391 0 0 1 2.014.923l-.923 1.987c-.616-.392-1.231-.7-1.875-.895zm3.582.643l2.266-.028 2.21 6.855 2.155-6.855h2.21l2.183 6.855 2.182-6.855h2.21l-3.3 9.094h-2.267l-2.183-6.408-2.154 6.408h-2.267zm18.747-3.553c.223.252.363.56.363.951 0 .364-.112.672-.363.923-.224.252-.532.364-.896.364s-.671-.112-.895-.364a1.363 1.363 0 0 1-.364-.923c0-.392.112-.7.364-.951.224-.252.531-.364.895-.364s.644.112.896.364zm-1.987 3.525h2.21v9.094h-2.21v-9.094zm7.89-1.427c-.223.196-.335.476-.335.868v.923h2.266v1.623h-2.266v7.107h-2.21v-7.107h-1.176v-1.623h1.175v-.867c0-.672.14-1.231.448-1.707s.7-.812 1.175-1.063c.504-.224 1.035-.364 1.595-.364s1.12.14 1.65.392l-.39 1.79c-.449-.168-.84-.28-1.12-.28-.308.028-.588.112-.812.308zm8.73 9.961c-.727.448-1.483.672-2.266.672-.784 0-1.427-.224-1.93-.7-.504-.447-.756-1.147-.756-2.014v-4.477h-1.287l-.028-1.623h1.287v-2.49h2.182v2.49h2.602v1.623h-2.602v4.057c0 .42.084.728.224.895.168.168.392.252.7.252.335 0 .783-.112 1.287-.364l.587 1.68z"/></g><path fill="url(#l)" d="M9.765 1.987a5.94 5.94 0 0 1 2.295 2.182c.56.923.839 1.959.839 3.078 0 1.12-.28 2.154-.84 3.106a6.009 6.009 0 0 1-2.294 2.21 6.62 6.62 0 0 1-3.218.812 6.62 6.62 0 0 1-3.217-.812 6.009 6.009 0 0 1-2.295-2.21c-.56-.924-.84-1.959-.84-3.106 0-1.147.28-2.155.84-3.078A5.94 5.94 0 0 1 3.33 1.987c.979-.532 2.042-.784 3.217-.784 1.176 0 2.239.252 3.218.784zm-5.204 1.79c-.616.364-1.12.84-1.483 1.455-.364.616-.532 1.287-.532 2.043 0 .755.196 1.427.56 2.042.364.616.867 1.12 1.483 1.483a3.877 3.877 0 0 0 2.014.532c.7 0 1.371-.168 1.987-.532a4.107 4.107 0 0 0 1.455-1.483c.364-.615.532-1.315.532-2.042 0-.728-.168-1.427-.532-2.043A4.03 4.03 0 0 0 8.59 3.777a3.849 3.849 0 0 0-1.987-.531 3.66 3.66 0 0 0-2.042.531z" transform="translate(403.197 162.286)"/><path fill="url(#m)" d="M22.384 4.673a3.934 3.934 0 0 1 1.511 1.65c.364.7.532 1.511.532 2.435 0 .895-.168 1.707-.532 2.406-.364.7-.84 1.231-1.483 1.623-.643.392-1.399.588-2.238.588-.672 0-1.287-.14-1.79-.392a3.243 3.243 0 0 1-1.288-1.175v1.483h-2.21V.7h2.21v5.008a3.606 3.606 0 0 1 1.26-1.175c.503-.28 1.118-.392 1.79-.392.84-.056 1.595.14 2.238.532zm-.895 5.96c.476-.504.7-1.176.7-1.987 0-.812-.224-1.455-.7-1.959-.476-.503-1.091-.755-1.847-.755-.755 0-1.37.252-1.847.755-.475.504-.699 1.175-.699 1.959 0 .811.224 1.483.7 1.987.475.503 1.09.755 1.846.755.756.028 1.371-.224 1.847-.755z" transform="translate(403.197 162.286)"/><path fill="url(#n)" d="M25.21 14.746c.364 0 .672-.112.868-.364.196-.252.307-.616.307-1.12v-9.12h2.21v9.484c0 .952-.25 1.68-.755 2.21-.503.532-1.203.784-2.098.784a4.703 4.703 0 0 1-1.763-.335l.476-1.651c.224.056.503.112.755.112zM28.344.616c.224.251.364.56.364.95 0 .365-.112.672-.364.924-.224.252-.532.364-.895.364-.364 0-.672-.112-.896-.364a1.363 1.363 0 0 1-.363-.923c0-.392.112-.7.363-.951.224-.252.532-.364.896-.364.363 0 .671.112.895.364z" transform="translate(403.197 162.286)"/><path fill="url(#o)" d="M38.221 5.316c.728.84 1.091 1.987 1.091 3.47 0 .308 0 .503-.028.671H32.57c.14.644.448 1.148.895 1.511.448.364 1.008.56 1.68.56a3.69 3.69 0 0 0 1.342-.252c.448-.168.784-.42 1.12-.755l1.175 1.23A4.288 4.288 0 0 1 37.13 12.9c-.644.28-1.371.42-2.155.42-.923 0-1.734-.196-2.462-.588-.7-.392-1.259-.923-1.65-1.623-.392-.7-.588-1.483-.588-2.406 0-.895.196-1.707.587-2.406.392-.7.924-1.26 1.651-1.651.7-.392 1.511-.588 2.406-.588 1.483.028 2.575.448 3.302 1.26zm-.923 2.658c-.028-.671-.252-1.203-.672-1.594-.42-.392-.979-.588-1.65-.588-.644 0-1.176.196-1.623.588-.448.391-.7.923-.812 1.594h4.757z" transform="translate(403.197 162.286)"/><path fill="url(#p)" d="M45.104 6.016c-.727 0-1.343.252-1.79.755-.448.504-.7 1.147-.7 1.93 0 .812.224 1.484.7 1.96.447.503 1.063.755 1.79.755 1.092 0 1.903-.364 2.435-1.063l1.37 1.147a4.305 4.305 0 0 1-1.622 1.371c-.672.308-1.455.476-2.323.476-.895 0-1.678-.196-2.378-.588a4.115 4.115 0 0 1-1.623-1.623c-.392-.7-.587-1.483-.587-2.406s.195-1.735.587-2.434c.392-.7.924-1.232 1.623-1.623.7-.392 1.483-.588 2.406-.588.84 0 1.567.14 2.21.42.644.28 1.176.7 1.596 1.231l-1.343 1.287c-.588-.671-1.371-1.007-2.35-1.007z" transform="translate(403.197 162.286)"/><path fill="url(#q)" d="M56.129 12.675c-.728.448-1.483.672-2.267.672-.783 0-1.427-.224-1.93-.7-.504-.448-.756-1.147-.756-2.014V6.156h-1.287l-.028-1.623h1.287v-2.49h2.183v2.49h2.602v1.623H53.33v4.085c0 .42.083.727.223.895.168.168.392.252.7.252.336 0 .783-.112 1.287-.364l.588 1.651z" transform="translate(403.197 162.286)"/><path fill="url(#r)" d="M59.822.616c.224.251.364.56.364.95 0 .365-.112.672-.364.924-.224.252-.532.364-.895.364-.364 0-.672-.112-.896-.364a1.363 1.363 0 0 1-.364-.923c0-.392.112-.7.364-.951.224-.252.532-.364.896-.364.363 0 .671.112.895.364zM57.835 4.14h2.21v9.094h-2.21V4.14z" transform="translate(403.197 162.286)"/><path fill="url(#s)" d="M61.389 4.17l2.322-.029 2.379 6.911 2.322-6.91h2.21l-3.47 9.093h-2.266z" transform="translate(403.197 162.286)"/><path fill="url(#t)" d="M78.625 5.316c.727.84 1.091 1.987 1.091 3.47 0 .308 0 .503-.028.671h-6.715c.14.644.447 1.148.895 1.511.448.364 1.007.56 1.679.56a3.69 3.69 0 0 0 1.343-.252c.448-.168.783-.42 1.12-.755l1.174 1.23a4.288 4.288 0 0 1-1.65 1.148c-.644.28-1.372.42-2.155.42-.923 0-1.735-.196-2.462-.588-.7-.392-1.26-.923-1.651-1.623-.392-.7-.588-1.483-.588-2.406 0-.895.196-1.707.588-2.406.392-.7.923-1.26 1.65-1.651.7-.392 1.512-.588 2.407-.588 1.483.028 2.574.448 3.302 1.26zM77.7 7.974c-.028-.671-.251-1.203-.671-1.594-.42-.392-.98-.588-1.651-.588-.644 0-1.175.196-1.623.588-.448.391-.7.923-.811 1.594H77.7z" transform="translate(403.197 162.286)"/><path fill="url(#u)" d="M93.007 3.637a3.864 3.864 0 0 0-1.735-.42c-.728 0-1.4.169-2.015.532a4.03 4.03 0 0 0-1.455 1.455 3.877 3.877 0 0 0-.531 2.015c0 .727.168 1.399.531 2.042a4.03 4.03 0 0 0 1.455 1.455 3.877 3.877 0 0 0 2.015.532c.56 0 1.147-.112 1.707-.364.56-.251 1.09-.587 1.51-1.035l1.344 1.483a6.637 6.637 0 0 1-2.183 1.511c-.84.364-1.65.56-2.518.56a6.3 6.3 0 0 1-3.134-.812 5.858 5.858 0 0 1-2.238-2.21 6.121 6.121 0 0 1-.812-3.106c0-1.147.28-2.155.84-3.078a6.062 6.062 0 0 1 2.266-2.182c.951-.532 2.015-.784 3.19-.784.84 0 1.679.168 2.49.504a6.413 6.413 0 0 1 2.099 1.399l-1.315 1.65a4.922 4.922 0 0 0-1.511-1.147z" transform="translate(403.197 162.286)"/><path fill="#FFF" d="M262.372 26.525s25.742 1.847 35.423 1.343c0 0-3.862-5.148-21.965-7.722 0 0 25.63-.532 36.57 7.946 0 0 9.15.868 13.18 3.89 0 0-5.261-.924-8.675.111-3.413 1.036-3.861 3.778-9.569 5.345-5.708 1.567-17.6 3.47-34.64.867 0 0 20.818.672 25.966-5.708 0 0-20.314-.783-38.949-3.637 0 0 24.12 1.09 28.317.7 0 0-19.419-2.127-25.658-3.135z"/><g><path fill="url(#v)" d="M28.195 15.131c1.18.469 1.787 1.02 1.894 1.654.108.634-.393 1.213-1.429 1.709s-2.323.744-3.824.744c-1.5 0-2.823-.22-3.966-.69-1.18-.468-1.787-1.019-1.894-1.653-.108-.634.357-1.213 1.43-1.709 1.035-.496 2.322-.744 3.823-.744 1.465 0 2.823.22 3.966.69zM22.8 17.667a5.291 5.291 0 0 0 2.073.413c.75 0 1.358-.11 1.858-.33.5-.248.715-.524.608-.827-.107-.303-.465-.607-1.108-.855a5.339 5.339 0 0 0-2.108-.413c-.75-.028-1.358.083-1.859.33-.5.249-.714.524-.607.827.143.304.5.58 1.143.855z" transform="translate(262.07 136.582)"/><path fill="url(#w)" d="M29.232 11.025c.857-.386 1.965-.58 3.359-.58s2.68.249 3.86.717c1.179.469 1.858 1.02 2.036 1.654.143.634-.178 1.13-1 1.516-.822.386-1.894.551-3.216.496l1.072.413-1.93.91-11.078-4.41 1.93-.91 3.93 1.572c-.142-.524.215-.965 1.037-1.378zm2.072 2.645a6.319 6.319 0 0 0 2.073.414c.715.027 1.322-.083 1.751-.276.465-.22.643-.468.572-.799-.072-.33-.429-.606-1.072-.882a6.534 6.534 0 0 0-2.109-.413c-.75-.028-1.357.082-1.822.275-.465.22-.608.469-.5.8.071.33.464.633 1.107.881z" transform="translate(262.07 136.582)"/><path fill="url(#x)" d="M42.168 12.182l-8.183-3.28 1.93-.91 8.362 3.336c.857.358 1.322.744 1.393 1.157.036.414-.25.772-.929 1.103-.679.303-1.608.496-2.859.523l-.75-1.074c.607.027 1.072-.056 1.393-.193.18-.083.25-.166.18-.304-.072-.11-.251-.22-.537-.358zm-9.041-3.748c-.465 0-.893-.083-1.25-.22-.358-.138-.573-.331-.608-.524-.036-.193.107-.386.429-.524.321-.138.714-.22 1.179-.22.464 0 .893.082 1.25.22.358.138.572.33.608.524.036.193-.107.386-.429.523-.321.138-.714.22-1.179.22z" transform="translate(262.07 136.582)"/><path fill="url(#y)" d="M46.42 19.982c2.252-1.047 3.717-2.122 4.468-3.225.75-1.102 1.036-2.453.893-4.051l9.148.027c1.144 3.997-1.179 7.36-7.004 10.088-5.825 2.728-12.793 4.134-20.977 4.217-8.147.082-15.545-1.213-22.192-3.859C4.146 20.533.572 17.42.071 13.81c-.5-3.613 2.216-6.81 8.184-9.594C14.223 1.406 21.727.083 30.84.248l1.108 4.024c-3.86.055-7.04.303-9.47.744a27.884 27.884 0 0 0-6.969 2.233c-3.895 1.819-5.717 3.94-5.432 6.339.25 2.398 2.645 4.52 7.183 6.311 4.503 1.792 9.613 2.701 15.26 2.674 5.681-.028 10.291-.882 13.9-2.591z" transform="translate(262.07 136.582)"/></g></g></svg>