<svg width="100" height="67" viewBox="0 0 100 67" xmlns="http://www.w3.org/2000/svg"><title>Combined Shape</title><path d="M86.207 37.3H4.06A4.063 4.063 0 0 1 0 33.24a4.063 4.063 0 0 1 4.06-4.062h82.345l-3.823-3.823a4.066 4.066 0 0 1-.003-5.747 4.057 4.057 0 0 1 5.747.003l10.227 10.227c.403.404.704.871.902 1.37a4.04 4.04 0 0 1 .545 2.031c0 1.011-.37 1.936-.981 2.646a4.085 4.085 0 0 1-.466.558L88.326 46.67a4.057 4.057 0 0 1-5.747.003 4.066 4.066 0 0 1 .003-5.747l3.625-3.625zM0 4.062A4.06 4.06 0 0 1 4.066 0h50.35a4.067 4.067 0 0 1 4.066 4.061 4.06 4.06 0 0 1-4.066 4.062H4.066A4.067 4.067 0 0 1 0 4.06zm0 14.59a4.06 4.06 0 0 1 4.066-4.062h50.35a4.067 4.067 0 0 1 4.066 4.061 4.06 4.06 0 0 1-4.066 4.062H4.066A4.067 4.067 0 0 1 0 18.65zm0 29.177a4.06 4.06 0 0 1 4.066-4.061h50.35a4.067 4.067 0 0 1 4.066 4.061 4.06 4.06 0 0 1-4.066 4.062H4.066A4.067 4.067 0 0 1 0 47.828zm0 14.589a4.06 4.06 0 0 1 4.066-4.061h50.35a4.067 4.067 0 0 1 4.066 4.061 4.06 4.06 0 0 1-4.066 4.061H4.066A4.067 4.067 0 0 1 0 62.417z" fill="#FFF" fill-rule="evenodd"/></svg>