<?xml version="1.0" encoding="utf-8"?>
<!-- Generator: Adobe Illustrator 21.0.0, SVG Export Plug-In . SVG Version: 6.00 Build 0)  -->
<svg version="1.1" id="Layer_1" xmlns="http://www.w3.org/2000/svg" xmlns:xlink="http://www.w3.org/1999/xlink" x="0px" y="0px"
	 viewBox="0 0 292.7 320.9" style="enable-background:new 0 0 292.7 320.9;" xml:space="preserve">
<style type="text/css">
	.st0{opacity:0.1;fill:#15117C;}
	.st1{fill:url(#SVGID_1_);}
	.st2{fill:url(#SVGID_2_);}
	.st3{fill:#D7D7F4;}
	.st4{fill:url(#SVGID_3_);}
	.st5{fill:url(#SVGID_4_);}
	.st6{opacity:0.2;fill:#15117C;}
	.st7{fill:url(#SVGID_5_);}
	.st8{fill:url(#SVGID_6_);}
	.st9{fill:#85E8B9;}
	.st10{fill:url(#SVGID_7_);}
	.st11{fill:#4DBA87;}
	.st12{opacity:0.8;}
	.st13{fill:#605E8C;}
	.st14{fill:url(#SVGID_8_);}
	.st15{fill:#2C294F;}
	.st16{fill:url(#SVGID_9_);}
	.st17{fill:url(#SVGID_10_);}
	.st18{fill:url(#SVGID_11_);}
	.st19{fill:url(#SVGID_12_);}
	.st20{fill:#FFFFFF;}
	.st21{fill:url(#SVGID_13_);}
	.st22{fill:url(#SVGID_14_);}
	.st23{fill:url(#SVGID_15_);}
	.st24{fill:url(#SVGID_16_);}
	.st25{fill:url(#SVGID_17_);}
	.st26{fill:url(#SVGID_18_);}
	.st27{fill:url(#SVGID_19_);}
	.st28{fill:url(#SVGID_20_);}
	.st29{fill:url(#SVGID_21_);}
	.st30{fill:url(#SVGID_22_);}
	.st31{fill:url(#SVGID_23_);}
	.st32{fill:url(#SVGID_24_);}
	.st33{fill:url(#SVGID_25_);}
</style>
<g>
	<g>
		<polygon class="st0" points="268.9,228.5 0,313.6 25.3,320.9 292.7,234.3 		"/>
		<g>
			<g>
				<g>
					<linearGradient id="SVGID_1_" gradientUnits="userSpaceOnUse" x1="147.2151" y1="214.1455" x2="147.2151" y2="181.5499">
						<stop  offset="0" style="stop-color:#FCFCFE"/>
						<stop  offset="1" style="stop-color:#EDEDFA"/>
					</linearGradient>
					<polygon class="st1" points="192,181.5 95.5,212.1 102.4,214.1 198.9,183.6 					"/>
					<linearGradient id="SVGID_2_" gradientUnits="userSpaceOnUse" x1="102.3973" y1="232.5383" x2="198.9376" y2="232.5383">
						<stop  offset="0" style="stop-color:#FCFCFE"/>
						<stop  offset="0.9699" style="stop-color:#C6C6EF"/>
					</linearGradient>
					<polygon class="st2" points="102.4,281.5 198.9,250.9 198.9,183.6 102.4,214.1 					"/>
					<polygon class="st3" points="102.4,288.3 95.5,286.3 95.5,212.1 102.4,214.1 					"/>
				</g>
			</g>
			<g>
				<g>
					<linearGradient id="SVGID_3_" gradientUnits="userSpaceOnUse" x1="165.9064" y1="292.6407" x2="165.9064" y2="250.6137">
						<stop  offset="0" style="stop-color:#FCFCFE"/>
						<stop  offset="1" style="stop-color:#EDEDFA"/>
					</linearGradient>
					<polygon class="st4" points="198.8,250.6 102.2,281.1 133,292.6 229.6,262.1 					"/>
					<linearGradient id="SVGID_4_" gradientUnits="userSpaceOnUse" x1="133.0324" y1="280.9786" x2="229.5727" y2="280.9786">
						<stop  offset="0" style="stop-color:#FCFCFE"/>
						<stop  offset="0.9699" style="stop-color:#C6C6EF"/>
					</linearGradient>
					<polygon class="st5" points="133,299.8 229.6,269.3 229.6,262.1 133,292.6 					"/>
					<polygon class="st3" points="133,299.8 102.2,288.3 102.2,281.1 133,292.6 					"/>
				</g>
			</g>
		</g>
		<polygon class="st6" points="205.8,253.2 109.2,283.7 127,290.2 222,259 		"/>
	</g>
	<g>
		<g>
			<linearGradient id="SVGID_5_" gradientUnits="userSpaceOnUse" x1="144.09" y1="90.8056" x2="144.09" y2="0">
				<stop  offset="0" style="stop-color:#FCFCFE"/>
				<stop  offset="1" style="stop-color:#EDEDFA"/>
			</linearGradient>
			<polygon class="st7" points="268.9,0 0,85 19.2,90.8 288.2,5.8 			"/>
			<linearGradient id="SVGID_6_" gradientUnits="userSpaceOnUse" x1="19.2357" y1="142.0449" x2="288.18" y2="142.0449">
				<stop  offset="0" style="stop-color:#FCFCFE"/>
				<stop  offset="0.9699" style="stop-color:#C6C6EF"/>
			</linearGradient>
			<polygon class="st8" points="19.2,278.3 288.2,193.3 288.2,5.8 19.2,90.8 			"/>
			<polygon class="st3" points="19.2,278.3 0,272.5 0,85 19.2,90.8 			"/>
		</g>
	</g>
</g>
<polygon class="st0" points="186,223 234.8,207.3 234.8,149.2 186,165 "/>
<polygon class="st0" points="127.3,241.1 176.1,225.3 176.1,167.3 127.3,183 "/>
<polygon class="st0" points="50.5,248.6 117.8,227.2 117.8,125.2 50.5,146.6 "/>
<polygon class="st0" points="50.8,133.7 234.3,76.1 234.3,36.8 50.8,94.4 "/>
<polygon class="st0" points="186,158 234.8,142.2 234.8,84.2 186,99.9 "/>
<polygon class="st0" points="127.3,176 176.1,160.3 176.1,102.3 127.3,118 "/>
<g>
	<g>
		<g>
			<polygon class="st9" points="252.1,155.2 203.4,171 208.1,172.3 256.8,156.6 			"/>
			<linearGradient id="SVGID_7_" gradientUnits="userSpaceOnUse" x1="232.4236" y1="230.3425" x2="232.4236" y2="156.5799">
				<stop  offset="0" style="stop-color:#4DBA87"/>
				<stop  offset="1" style="stop-color:#85E8B9"/>
			</linearGradient>
			<polygon class="st10" points="208.1,230.3 256.8,214.6 256.8,156.6 208.1,172.3 			"/>
			<polygon class="st11" points="208.1,230.3 203.4,229 203.4,171 208.1,172.3 			"/>
		</g>
	</g>
	<g class="st12">
		<g>
			<polygon class="st13" points="262,159 213.3,174.7 217.9,176.1 266.7,160.3 			"/>
			<linearGradient id="SVGID_8_" gradientUnits="userSpaceOnUse" x1="217.9097" y1="197.2166" x2="266.6532" y2="197.2166">
				<stop  offset="0" style="stop-color:#3D386B"/>
				<stop  offset="1" style="stop-color:#211E39"/>
			</linearGradient>
			<polygon class="st14" points="217.9,234.1 266.7,218.4 266.7,160.3 217.9,176.1 			"/>
			<polygon class="st15" points="217.9,234.1 213.3,232.7 213.3,174.7 217.9,176.1 			"/>
		</g>
	</g>
</g>
<g>
	<g>
		<g>
			<polygon class="st9" points="193.5,173.3 144.7,189 149.4,190.4 198.1,174.7 			"/>
			<linearGradient id="SVGID_9_" gradientUnits="userSpaceOnUse" x1="173.7458" y1="248.4153" x2="173.7458" y2="174.6526">
				<stop  offset="0" style="stop-color:#4DBA87"/>
				<stop  offset="1" style="stop-color:#85E8B9"/>
			</linearGradient>
			<polygon class="st16" points="149.4,248.4 198.1,232.7 198.1,174.7 149.4,190.4 			"/>
			<polygon class="st11" points="149.4,248.4 144.7,247.1 144.7,189 149.4,190.4 			"/>
		</g>
	</g>
</g>
<g>
	<g>
		<polygon class="st13" points="127.7,128.9 60.4,150.3 72.5,153.9 139.8,132.5 		"/>
		<linearGradient id="SVGID_10_" gradientUnits="userSpaceOnUse" x1="72.5445" y1="194.2094" x2="139.7854" y2="194.2094">
			<stop  offset="0" style="stop-color:#3D386B"/>
			<stop  offset="1" style="stop-color:#211E39"/>
		</linearGradient>
		<polygon class="st17" points="72.5,255.9 139.8,234.5 139.8,132.5 72.5,153.9 		"/>
		<polygon class="st15" points="72.5,255.9 60.4,252.3 60.4,150.3 72.5,153.9 		"/>
	</g>
</g>
<g>
	<polygon class="st9" points="131,150.1 98.3,160.5 101.3,161.5 134,151 	"/>
	<linearGradient id="SVGID_11_" gradientUnits="userSpaceOnUse" x1="117.6623" y1="165.6795" x2="117.6623" y2="150.966">
		<stop  offset="0" style="stop-color:#4DBA87"/>
		<stop  offset="1" style="stop-color:#85E8B9"/>
	</linearGradient>
	<polygon class="st18" points="101.3,165.7 134,155.2 134,151 101.3,161.5 	"/>
	<polygon class="st11" points="101.3,165.7 98.3,164.8 98.3,160.5 101.3,161.5 	"/>
</g>
<g>
	<polygon class="st9" points="244.2,40.7 60.7,98.3 72.8,101.7 256.3,44.1 	"/>
	<linearGradient id="SVGID_12_" gradientUnits="userSpaceOnUse" x1="164.5432" y1="141.0619" x2="164.5432" y2="44.115">
		<stop  offset="0" style="stop-color:#4DBA87"/>
		<stop  offset="1" style="stop-color:#85E8B9"/>
	</linearGradient>
	<polygon class="st19" points="72.8,141.1 256.3,83.4 256.3,44.1 72.8,101.7 	"/>
	<g>
		<g>
			<g>
				<path class="st20" d="M88.4,126.4c-2.6,0.8-5.2,0.6-7.2-0.8c-3.9-2.7-3.9-9.2,0-14.3c3.9-5.1,10.4-7.1,14.3-4.4l0,0
					c3.9,2.7,3.9,9.2,0,14.3C93.6,123.8,91,125.6,88.4,126.4z M88.4,110c-1.6,0.5-3.2,1.6-4.4,3.2c-2.4,3.2-2.4,7.2,0,8.9
					c2.4,1.7,6.4,0.5,8.9-2.7c2.4-3.2,2.4-7.2,0-8.9C91.6,109.6,90,109.5,88.4,110z"/>
			</g>
			<g>
				<path class="st20" d="M99.4,125.8c-0.5,0.2-1,0.1-1.4-0.1l-4.6-3.2c-0.7-0.5-0.7-1.7,0-2.7c0.7-1,2-1.3,2.7-0.8l4.6,3.2
					c0.7,0.5,0.7,1.7,0,2.7C100.3,125.3,99.9,125.6,99.4,125.8z"/>
			</g>
		</g>
	</g>
	<polygon class="st11" points="72.8,141.1 60.7,137.7 60.7,98.3 72.8,101.7 	"/>
</g>
<g>
	<polygon class="st9" points="92.4,156.7 81.4,160.1 84.4,161 95.3,157.6 	"/>
	<linearGradient id="SVGID_13_" gradientUnits="userSpaceOnUse" x1="89.8849" y1="175.157" x2="89.8849" y2="157.5917">
		<stop  offset="0" style="stop-color:#4DBA87"/>
		<stop  offset="1" style="stop-color:#85E8B9"/>
	</linearGradient>
	<polygon class="st21" points="84.4,175.2 95.3,171.7 95.3,157.6 84.4,161 	"/>
	<polygon class="st11" points="84.4,175.2 81.4,174.3 81.4,160.1 84.4,161 	"/>
	<path class="st20" d="M86.5,166.9c0.3-0.5,1-0.8,1.3-0.5l1.3,0.9l3.1-3.9c0.4-0.5,1-0.6,1.3-0.3c0.3,0.3,0.2,0.8-0.1,1.2l-3.5,4.5
		c-0.4,0.6-1.2,0.8-1.6,0.5l-1.7-1.2C86.4,167.8,86.3,167.3,86.5,166.9z"/>
</g>
<g>
	<polygon class="st9" points="113.7,175.2 98.3,180.3 101.3,181.2 116.7,176.1 	"/>
	<linearGradient id="SVGID_14_" gradientUnits="userSpaceOnUse" x1="109.0153" y1="185.4346" x2="109.0153" y2="176.0829">
		<stop  offset="0" style="stop-color:#4DBA87"/>
		<stop  offset="1" style="stop-color:#85E8B9"/>
	</linearGradient>
	<polygon class="st22" points="101.3,185.4 116.7,180.3 116.7,176.1 101.3,181.2 	"/>
	<polygon class="st11" points="101.3,185.4 98.3,184.5 98.3,180.3 101.3,181.2 	"/>
</g>
<g>
	<polygon class="st9" points="92.4,176.4 81.4,179.9 84.4,180.8 95.3,177.3 	"/>
	<linearGradient id="SVGID_15_" gradientUnits="userSpaceOnUse" x1="89.8849" y1="194.912" x2="89.8849" y2="177.3468">
		<stop  offset="0" style="stop-color:#4DBA87"/>
		<stop  offset="1" style="stop-color:#85E8B9"/>
	</linearGradient>
	<polygon class="st23" points="84.4,194.9 95.3,191.5 95.3,177.3 84.4,180.8 	"/>
	<polygon class="st11" points="84.4,194.9 81.4,194 81.4,179.9 84.4,180.8 	"/>
	<path class="st20" d="M86.5,186.6c0.3-0.5,1-0.8,1.3-0.5l1.3,0.9l3.1-3.9c0.4-0.5,1-0.6,1.3-0.3c0.3,0.3,0.2,0.8-0.1,1.2l-3.5,4.5
		c-0.4,0.6-1.2,0.8-1.6,0.5l-1.7-1.2C86.4,187.5,86.3,187,86.5,186.6z"/>
</g>
<g>
	<polygon class="st9" points="121.8,192.4 98.3,200.1 101.3,201 124.8,193.3 	"/>
	<linearGradient id="SVGID_16_" gradientUnits="userSpaceOnUse" x1="113.057" y1="205.1896" x2="113.057" y2="193.3417">
		<stop  offset="0" style="stop-color:#4DBA87"/>
		<stop  offset="1" style="stop-color:#85E8B9"/>
	</linearGradient>
	<polygon class="st24" points="101.3,205.2 124.8,197.6 124.8,193.3 101.3,201 	"/>
	<polygon class="st11" points="101.3,205.2 98.3,204.3 98.3,200.1 101.3,201 	"/>
</g>
<g>
	<polygon class="st9" points="92.4,196.2 81.4,199.6 84.4,200.6 95.3,197.1 	"/>
	<linearGradient id="SVGID_17_" gradientUnits="userSpaceOnUse" x1="89.8849" y1="214.6671" x2="89.8849" y2="197.1018">
		<stop  offset="0" style="stop-color:#4DBA87"/>
		<stop  offset="1" style="stop-color:#85E8B9"/>
	</linearGradient>
	<polygon class="st25" points="84.4,214.7 95.3,211.2 95.3,197.1 84.4,200.6 	"/>
	<polygon class="st11" points="84.4,214.7 81.4,213.8 81.4,199.6 84.4,200.6 	"/>
	<path class="st20" d="M86.5,206.4c0.3-0.5,1-0.8,1.3-0.5l1.3,0.9l3.1-3.9c0.4-0.5,1-0.6,1.3-0.3c0.3,0.3,0.2,0.8-0.1,1.2l-3.5,4.5
		c-0.4,0.6-1.2,0.8-1.6,0.5l-1.7-1.2C86.4,207.3,86.3,206.8,86.5,206.4z"/>
</g>
<g>
	<g>
		<g>
			<path class="st11" d="M124.3,215.9c0,3,2.1,4.6,4.7,3.6c2.6-1,4.7-4.2,4.7-7.1c0-3-2.1-4.6-4.7-3.6
				C126.4,209.7,124.3,212.9,124.3,215.9z"/>
			<path class="st11" d="M125.1,216.2c0,3,2.1,4.6,4.7,3.6s4.7-4.2,4.7-7.1c0-3-2.1-4.6-4.7-3.6S125.1,213.3,125.1,216.2z"/>
			<path class="st11" d="M125.9,216.6c0,3,2.1,4.6,4.7,3.6c2.6-1,4.7-4.2,4.7-7.1s-2.1-4.6-4.7-3.6
				C128,210.4,125.9,213.6,125.9,216.6z"/>
			<path class="st11" d="M126.6,216.9c0,3,2.1,4.6,4.7,3.6c2.6-1,4.7-4.2,4.7-7.1c0-3-2.1-4.6-4.7-3.6S126.6,213.9,126.6,216.9z"/>
		</g>
		
			<linearGradient id="SVGID_18_" gradientUnits="userSpaceOnUse" x1="-9311.4072" y1="220.7792" x2="-9311.4072" y2="209.4733" gradientTransform="matrix(-1 0 0 1 -9180.0928 0)">
			<stop  offset="0" style="stop-color:#4DBA87"/>
			<stop  offset="1" style="stop-color:#85E8B9"/>
		</linearGradient>
		<path class="st26" d="M126.6,216.9c0,3,2.1,4.6,4.7,3.6c2.6-1,4.7-4.2,4.7-7.1c0-3-2.1-4.6-4.7-3.6S126.6,213.9,126.6,216.9z"/>
	</g>
	<g>
		<linearGradient id="SVGID_19_" gradientUnits="userSpaceOnUse" x1="94.9169" y1="220.0798" x2="126.3172" y2="220.0798">
			<stop  offset="0" style="stop-color:#FCFCFE"/>
			<stop  offset="1" style="stop-color:#EDEDFA"/>
		</linearGradient>
		<polygon class="st27" points="124.7,215 94.9,224.6 96.5,225.1 126.3,215.5 		"/>
		<linearGradient id="SVGID_20_" gradientUnits="userSpaceOnUse" x1="111.4228" y1="227.4088" x2="111.4228" y2="215.5195">
			<stop  offset="0" style="stop-color:#FCFCFE"/>
			<stop  offset="0.9699" style="stop-color:#C6C6EF"/>
		</linearGradient>
		<polygon class="st28" points="96.5,227.4 126.3,217.8 126.3,215.5 96.5,225.1 		"/>
		<polygon class="st11" points="96.5,227.4 94.9,226.9 94.9,224.6 96.5,225.1 		"/>
	</g>
	<g>
		<g>
			<path class="st11" d="M86.2,229.2c0,3,2.1,4.6,4.7,3.6c2.6-1,4.7-4.2,4.7-7.1s-2.1-4.6-4.7-3.6C88.3,223,86.2,226.2,86.2,229.2z"
				/>
			<path class="st11" d="M87,229.5c0,3,2.1,4.6,4.7,3.6c2.6-1,4.7-4.2,4.7-7.1c0-3-2.1-4.6-4.7-3.6C89.1,223.3,87,226.5,87,229.5z"
				/>
			<path class="st11" d="M87.7,229.8c0,3,2.1,4.6,4.7,3.6c2.6-1,4.7-4.2,4.7-7.1s-2.1-4.6-4.7-3.6C89.8,223.7,87.7,226.9,87.7,229.8
				z"/>
			<path class="st11" d="M88.5,230.2c0,3,2.1,4.6,4.7,3.6c2.6-1,4.7-4.2,4.7-7.1s-2.1-4.6-4.7-3.6C90.6,224,88.5,227.2,88.5,230.2z"
				/>
		</g>
		
			<linearGradient id="SVGID_21_" gradientUnits="userSpaceOnUse" x1="-9273.2588" y1="234.0595" x2="-9273.2588" y2="222.7536" gradientTransform="matrix(-1 0 0 1 -9180.0928 0)">
			<stop  offset="0" style="stop-color:#4DBA87"/>
			<stop  offset="1" style="stop-color:#85E8B9"/>
		</linearGradient>
		<path class="st29" d="M88.5,230.2c0,3,2.1,4.6,4.7,3.6c2.6-1,4.7-4.2,4.7-7.1s-2.1-4.6-4.7-3.6C90.6,224,88.5,227.2,88.5,230.2z"
			/>
	</g>
	<g>
		<linearGradient id="SVGID_22_" gradientUnits="userSpaceOnUse" x1="81.4146" y1="229.5312" x2="87.8433" y2="229.5312">
			<stop  offset="0" style="stop-color:#FCFCFE"/>
			<stop  offset="1" style="stop-color:#EDEDFA"/>
		</linearGradient>
		<polygon class="st30" points="86.2,228.5 81.4,230.1 83,230.6 87.8,229 		"/>
		<linearGradient id="SVGID_23_" gradientUnits="userSpaceOnUse" x1="85.4347" y1="232.836" x2="85.4347" y2="228.9951">
			<stop  offset="0" style="stop-color:#FCFCFE"/>
			<stop  offset="0.9699" style="stop-color:#C6C6EF"/>
		</linearGradient>
		<polygon class="st31" points="83,232.8 87.8,231.3 87.8,229 83,230.6 		"/>
		<polygon class="st3" points="83,232.8 81.4,232.3 81.4,230.1 83,230.6 		"/>
	</g>
</g>
<g>
	<g>
		<g>
			<polygon class="st9" points="252.1,90.2 203.4,105.9 208.1,107.3 256.8,91.5 			"/>
			<linearGradient id="SVGID_24_" gradientUnits="userSpaceOnUse" x1="232.4236" y1="165.2971" x2="232.4236" y2="91.5344">
				<stop  offset="0" style="stop-color:#4DBA87"/>
				<stop  offset="1" style="stop-color:#85E8B9"/>
			</linearGradient>
			<polygon class="st32" points="208.1,165.3 256.8,149.6 256.8,91.5 208.1,107.3 			"/>
			<polygon class="st11" points="208.1,165.3 203.4,163.9 203.4,105.9 208.1,107.3 			"/>
		</g>
	</g>
</g>
<g>
	<g>
		<g>
			<polygon class="st9" points="193.5,108.3 144.7,124 149.4,125.3 198.1,109.6 			"/>
			<linearGradient id="SVGID_25_" gradientUnits="userSpaceOnUse" x1="173.7458" y1="183.3698" x2="173.7458" y2="109.6072">
				<stop  offset="0" style="stop-color:#4DBA87"/>
				<stop  offset="1" style="stop-color:#85E8B9"/>
			</linearGradient>
			<polygon class="st33" points="149.4,183.4 198.1,167.6 198.1,109.6 149.4,125.3 			"/>
			<polygon class="st11" points="149.4,183.4 144.7,182 144.7,124 149.4,125.3 			"/>
		</g>
	</g>
</g>
</svg>
