<?xml version="1.0" encoding="UTF-8" standalone="no"?>
<svg width="136px" height="161px" viewBox="0 0 136 161" version="1.1" xmlns="http://www.w3.org/2000/svg" xmlns:xlink="http://www.w3.org/1999/xlink">
    <!-- Generator: Sketch 39.1 (31720) - http://www.bohemiancoding.com/sketch -->
    <title>helper-logo</title>
    <desc>Created with Sketch.</desc>
    <defs>
        <path d="M7.1164958,105.618814 C-2.38193872,111.255529 -2.37021674,120.37862 7.13460874,125.991044 L39.2195327,144.936597 C48.7279708,150.551153 64.1210716,150.521133 73.6118881,144.863045 L108.295591,124.185852 C117.781526,118.530674 117.735075,109.448276 108.185149,103.895859 L75.8862905,85.1169991 C66.3393599,79.5663237 50.9046858,79.6333163 41.4016064,85.2727878 L7.1164958,105.618814 Z" id="path-1"></path>
        <filter x="-50%" y="-50%" width="200%" height="200%" filterUnits="objectBoundingBox" id="filter-2">
            <feMorphology radius="2.5" operator="dilate" in="SourceAlpha" result="shadowSpreadOuter1"></feMorphology>
            <feOffset dx="0" dy="0" in="shadowSpreadOuter1" result="shadowOffsetOuter1"></feOffset>
            <feGaussianBlur stdDeviation="2.5" in="shadowOffsetOuter1" result="shadowBlurOuter1"></feGaussianBlur>
            <feColorMatrix values="0 0 0 0 0   0 0 0 0 0   0 0 0 0 0  0 0 0 0.1 0" type="matrix" in="shadowBlurOuter1"></feColorMatrix>
        </filter>
        <path d="M50.8816382,123.956106 C52.3819504,124.826597 54.8156039,124.836549 56.3274384,123.972571 L106.67143,95.2021711 C108.17875,94.3407732 109.400675,92.2252836 109.400675,90.4893386 L109.400675,33.2117427 C109.400675,31.470315 108.172747,29.3601609 106.670319,28.5055762 L58.1924112,0.931232246 C56.6844771,0.0735159035 54.2324815,0.0813677756 52.7263503,0.942693877 L3.0314744,29.3621935 C1.52058643,30.2262399 0.295769736,32.3460004 0.295769736,34.0845468 L0.295769736,91.4479778 C0.295769736,93.1920151 1.50921428,95.3098856 3.01232519,96.1820009 L50.8816382,123.956106 Z" id="path-3"></path>
    </defs>
    <g id="Page-2" stroke="none" stroke-width="1" fill="none" fill-rule="evenodd">
        <g id="Artboard-2-Copy-4" transform="translate(-425.000000, -362.000000)">
            <g id="helper-logo" transform="translate(435.000000, 364.000000)">
                <g id="shadow" fill-opacity="1" fill="black">
                    <use filter="url(#filter-2)" xlink:href="#path-1"></use>
                </g>
                <g id="base" transform="translate(3.194043, 0.000000)">
                    <mask id="mask-4" fill="white">
                        <use xlink:href="#path-3"></use>
                    </mask>
                    <use stroke="#634A21" stroke-width="3.93749993" stroke-linecap="round" stroke-linejoin="round" fill="#EEF8FF" xlink:href="#path-3"></use>
                    <path d="M2.26907736,122.573529 L2.26907736,63.4874738 L53.8927138,32.5166961 C53.8927138,32.5166961 54.4545475,33.4621088 54.3444784,34.4690616 C54.3444784,50.8231062 54.3444784,80.6279514 54.3444784,90.3296509 L54.3444784,91.477297 C54.3444784,92.579321 53.5775713,93.9203547 52.6203062,94.4789922 C52.6203062,94.4789922 53.7078202,93.844422 52.5672097,94.5099745 C47.4343004,97.5050551 8.90420834,119.882582 5.04689258,122.097716 C3.77203201,122.894007 2.26907736,122.573529 2.26907736,122.573529 Z" id="left" fill-opacity="0.5" fill="#CAD3D9" transform="translate(28.313924, 77.576981) scale(-1, 1) translate(-28.313924, -77.576981) "></path>
                    <path d="M54.3541461,122.579477 L54.3541461,63.4874738 L107.081416,31.901269 C107.081416,31.901269 107.479706,32.4694458 107.42489,33.8020431 L107.42489,92.4861292 C107.42489,92.4861292 73.119323,112.107826 56.0653623,121.867269 C54.9446281,122.579473 54.3541461,122.579477 54.3541461,122.579477 Z" id="right" fill-opacity="0.25" fill="#000000"></path>
                </g>
                <g id="angle" transform="translate(4.015941, 30.715988)" stroke="#634A22" stroke-width="2.62499996" stroke-linecap="round" stroke-linejoin="round" stroke-dasharray="6.299999892711639,14.96249974519014">
                    <path d="M53.2223176,32.6637146 L0.12053068,0.927290141" id="left"></path>
                    <path d="M54.5039415,32.007442 L108.206878,0.113715945" id="right"></path>
                    <path d="M53.4020789,32.518127 L53.4020789,94.1009305" id="middle"></path>
                </g>
                <g id="dots" transform="translate(30.324841, 12.220670)">
                    <g id="bottom" transform="translate(21.019108, 20.949721)">
                        <ellipse id="Oval" stroke="#634A22" stroke-width="1.39999998" fill="#FFFFFF" cx="6.75614195" cy="3.79888268" rx="6.75614195" ry="3.79888268"></ellipse>
                        <path d="M0.00103854179,3.81994813 L0.00103854179,8.55777925 C0.00103854179,8.55777925 1.81432836,11.5066975 6.69410435,11.5066973 C11.5738803,11.5066971 13.5170944,8.55777944 13.5170944,8.55777944 L13.5170944,3.81994813" id="Path-15" stroke="#634A22" stroke-width="1.39999998"></path>
                        <polygon id="Path-16" fill="#634A22" points="0.005815834 5.98553705 0.005815834 8.63391727 3.00233877 10.8468679 6.73952528 11.5741751 11.6142205 10.3047121 13.4814453 8.25440817 13.4814453 5.19617177 11.1202167 6.46222503 7.02518536 7.51209792 2.1699903 6.45506449"></polygon>
                    </g>
                    <g id="top" transform="translate(21.019108, 0.000000)">
                        <ellipse id="Oval" stroke="#634A22" stroke-width="1.39999998" fill="#FFFFFF" cx="6.75614195" cy="3.79888268" rx="6.75614195" ry="3.79888268"></ellipse>
                        <path d="M0.00103854179,3.81994813 L0.00103854179,8.55777925 C0.00103854179,8.55777925 1.81432836,11.5066975 6.69410435,11.5066973 C11.5738803,11.5066971 13.5170944,8.55777944 13.5170944,8.55777944 L13.5170944,3.81994813" id="Path-15" stroke="#634A22" stroke-width="1.39999998"></path>
                        <polygon id="Path-16" fill="#634A22" points="0.005815834 5.98553705 0.005815834 8.63391727 3.00233877 10.8468679 6.73952528 11.5741751 11.6142205 10.3047121 13.4814453 8.25440817 13.4814453 5.19617177 11.1202167 6.46222503 7.02518536 7.51209792 2.1699903 6.45506449"></polygon>
                    </g>
                    <g id="left" transform="translate(0.000000, 10.474860)">
                        <ellipse id="Oval" stroke="#634A22" stroke-width="1.39999998" fill="#FFFFFF" cx="6.75614195" cy="3.79888268" rx="6.75614195" ry="3.79888268"></ellipse>
                        <path d="M0.00103854179,3.81994813 L0.00103854179,8.55777925 C0.00103854179,8.55777925 1.81432836,11.5066975 6.69410435,11.5066973 C11.5738803,11.5066971 13.5170944,8.55777944 13.5170944,8.55777944 L13.5170944,3.81994813" id="Path-15" stroke="#634A22" stroke-width="1.39999998"></path>
                        <polygon id="Path-16" fill="#634A22" points="0.005815834 5.98553705 0.005815834 8.63391727 3.00233877 10.8468679 6.73952528 11.5741751 11.6142205 10.3047121 13.4814453 8.25440817 13.4814453 5.19617177 11.1202167 6.46222503 7.02518536 7.51209792 2.1699903 6.45506449"></polygon>
                    </g>
                    <g id="right" transform="translate(42.038217, 10.474860)">
                        <ellipse id="Oval" stroke="#634A22" stroke-width="1.39999998" fill="#FFFFFF" cx="6.75614195" cy="3.79888268" rx="6.75614195" ry="3.79888268"></ellipse>
                        <path d="M0.00103854179,3.81994813 L0.00103854179,8.55777925 C0.00103854179,8.55777925 1.81432836,11.5066975 6.69410435,11.5066973 C11.5738803,11.5066971 13.5170944,8.55777944 13.5170944,8.55777944 L13.5170944,3.81994813" id="Path-15" stroke="#634A22" stroke-width="1.39999998"></path>
                        <polygon id="Path-16" fill="#634A22" points="0.005815834 5.98553705 0.005815834 8.63391727 3.00233877 10.8468679 6.73952528 11.5741751 11.6142205 10.3047121 13.4814453 8.25440817 13.4814453 5.19617177 11.1202167 6.46222503 7.02518536 7.51209792 2.1699903 6.45506449"></polygon>
                    </g>
                </g>
            </g>
        </g>
    </g>
</svg>