<svg width="1721" height="405" viewBox="0 0 1721 405" xmlns="http://www.w3.org/2000/svg"><title>Slice</title><defs><linearGradient x1="1.736%" y1="96.745%" y2="2.447%" id="a"><stop stop-color="#00AEFF" offset="0%"/><stop stop-color="#3369E6" offset="34.64%"/><stop stop-color="#8136CE" offset="100%"/></linearGradient><linearGradient x1="14.764%" y1="50%" x2="94.5%" y2="50%" id="b"><stop stop-color="#FFF" stop-opacity="0" offset="0%"/><stop stop-color="#FFF" offset="100%"/></linearGradient></defs><g fill="none" fill-rule="evenodd"><path d="M441.01 37H2169v421.5H441.01V37z" fill="url(#a)" transform="matrix(-1 0 0 1 2166.01 -49)"/><path d="M1138 313h961.037c24.827 0 44.953 20.122 44.953 44.955 0 24.828-20.123 44.955-44.953 44.955H1138V313zM477 118h961.037c24.827 0 44.953 20.122 44.953 44.955 0 24.828-20.123 44.955-44.953 44.955H477V118z" fill="url(#b)" style="mix-blend-mode:overlay" opacity=".2" transform="translate(-444 -49)"/><path d="M732 265h961.037c24.827 0 44.953 20.122 44.953 44.955 0 24.828-20.123 44.955-44.953 44.955H732V265zM0 175h961.037c24.827 0 44.953 20.122 44.953 44.955 0 24.828-20.123 44.955-44.953 44.955H0V175zM184 403h961.037c24.827 0 44.953 20.122 44.953 44.955 0 24.828-20.123 44.955-44.953 44.955H184V403zM1235 146h961.037c24.827 0 44.953 20.122 44.953 44.955 0 24.828-20.123 44.955-44.953 44.955H1235V146zM216 45h961.037c24.827 0 44.953 20.122 44.953 44.955 0 24.828-20.123 44.955-44.953 44.955H216V45z" fill="url(#b)" style="mix-blend-mode:overlay" opacity=".2" transform="translate(-444 -49)"/><path d="M569 372h961.037c24.827 0 44.953 20.122 44.953 44.955 0 24.828-20.123 44.955-44.953 44.955H569V372z" fill="url(#b)" style="mix-blend-mode:overlay" opacity=".2" transform="translate(-444 -49)"/><path d="M980 388h961.037c24.827 0 44.953 20.122 44.953 44.955 0 24.828-20.123 44.955-44.953 44.955H980V388z" fill="url(#b)" style="mix-blend-mode:overlay" opacity=".2" transform="translate(-444 -49)"/><path d="M1291 448h961.037c24.827 0 44.953 20.122 44.953 44.955 0 24.828-20.123 44.955-44.953 44.955H1291V448zM788 45h961.037c24.827 0 44.953 20.122 44.953 44.955 0 24.828-20.123 44.955-44.953 44.955H788V45z" fill="url(#b)" style="mix-blend-mode:overlay" opacity=".2" transform="translate(-444 -49)"/><path d="M1138 0h961.037c24.827 0 44.953 20.122 44.953 44.955 0 24.828-20.123 44.955-44.953 44.955H1138V0z" fill="url(#b)" style="mix-blend-mode:overlay" opacity=".2" transform="translate(-444 -49)"/></g></svg>