<?xml version="1.0" encoding="UTF-8"?>
<svg width="1440px" height="679px" viewBox="0 0 1440 679" version="1.1" xmlns="http://www.w3.org/2000/svg" xmlns:xlink="http://www.w3.org/1999/xlink">
    <!-- Generator: Sketch 42 (36781) - http://www.bohemiancoding.com/sketch -->
    <title>Header-block</title>
    <desc>Created with Sketch.</desc>
    <defs></defs>
    <g id="Community" stroke="none" stroke-width="1" fill="none" fill-rule="evenodd">
        <g id="Community-Instantsearch-React">
            <g id="Group-3" transform="translate(-55.000000, -144.000000)">
                <g id="Nexus-5">
                    <g id="Header-block" transform="translate(55.000000, 0.000000)">
                        <path d="M2.02117046,103.406518 C2.02117046,103.406518 2.02117046,109.555528 2.02117046,117.14019 L2.02117046,206.175491 L2.02117046,308.944464 L0.0211704557,411.713437 L0,514.48241 L0,603.517712 C0,611.102373 8.15328334,617.251384 15.7432158,617.251384 L92.0971744,617.251384 C99.6871068,617.251384 105.84039,611.102373 105.84039,603.517712 L105.84039,528.216082 C105.84039,520.631421 111.993673,514.48241 119.583606,514.48241 L194.937565,514.48241 C202.527497,514.48241 208.68078,508.3334 208.68078,500.748739 L208.68078,425.447109 C208.68078,417.862448 214.834064,411.713437 222.423996,411.713437 L297.777955,411.713437 C305.367887,411.713437 311.52117,417.862448 311.52117,425.447109 L310.542341,617.251384 L310.542341,706.286685 C310.542341,713.871347 316.695624,720.020357 324.285557,720.020357 L399.639515,720.020357 C407.229448,720.020357 411.777955,706.286685 411.777955,706.286685 C411.777955,713.871347 417.931238,720.020357 425.52117,720.020357 L503.875129,720.020357 C511.465061,720.020357 517.618345,713.871347 517.618345,706.286685 L516.223121,630.985056 C516.223121,623.400394 522.376405,617.251384 529.966337,617.251384 L605.320296,617.251384 L706.91081,617.251384 C715.191266,617.251384 721.903902,623.96174 721.903902,632.254328 L721.903902,706.286685 C721.903902,713.871347 728.057185,720.020357 735.647117,720.020357 L811.001076,720.020357 C818.591008,720.020357 824.744292,713.871347 824.744292,706.286685 L824.744292,630.985056 C824.744292,623.400394 830.897575,617.251384 838.487507,617.251384 L913.841466,617.251384 C921.431398,617.251384 927.584682,623.400394 927.584682,630.985056 L927.584682,706.286685 C927.584682,713.871347 933.737965,720.020357 941.327898,720.020357 L1016.68186,720.020357 C1024.27179,720.020357 1030.42507,726.169367 1030.42507,733.754029 L1030.42507,809.055658 C1030.42507,816.64032 1036.57836,822.78933 1044.16829,822.78933 L1119.52225,822.78933 C1127.11218,822.78933 1133.26546,816.64032 1133.26546,809.055658 L1133.26546,720.020357 L1133.26546,630.985056 C1133.26546,623.400394 1139.41875,617.251384 1147.00868,617.251384 L1222.36264,617.251384 C1229.95257,617.251384 1236.10585,611.102373 1236.10585,603.517712 L1236.10585,528.216082 C1236.10585,520.631421 1242.25914,514.48241 1249.84907,514.48241 L1325.20303,514.48241 C1332.79296,514.48241 1338.94624,508.3334 1338.94624,500.748739 L1338.94624,425.447109 C1338.94624,417.862448 1345.09953,411.713437 1352.68946,411.713437 L1428.04342,411.713437 C1435.63335,411.713437 1441.78663,405.564427 1441.78663,397.979765 L1441.78663,308.944464 L1441.78663,206.175491 L1441.78663,117.14019 C1441.78663,109.555528 1442.02117,103.406518 1442.02117,103.406518 L2.02117046,103.406518 Z" id="Page-1-Copy" fill-opacity="0.438066123" fill="#050F2C" transform="translate(721.010585, 463.097924) scale(-1, 1) translate(-721.010585, -463.097924) "></path>
                        <path d="M0,0.637544415 C0,0.637544415 4.62130334e-13,6.78655465 4.62130334e-13,14.3712163 L4.62130334e-13,103.406518 L4.62130334e-13,206.175491 L4.62130334e-13,308.944464 L4.62130334e-13,411.713437 L4.62130334e-13,514.48241 L4.62130334e-13,603.517712 C4.62130334e-13,611.102373 6.15328334,617.251384 13.7432158,617.251384 L89.0971744,617.251384 C96.6871068,617.251384 102.84039,611.102373 102.84039,603.517712 L102.84039,528.216082 C102.84039,520.631421 108.993673,514.48241 116.583606,514.48241 L191.937565,514.48241 C199.527497,514.48241 205.68078,508.3334 205.68078,500.748739 L205.68078,425.447109 C205.68078,417.862448 211.834064,411.713437 219.423996,411.713437 L294.777955,411.713437 C302.367887,411.713437 308.52117,417.862448 308.52117,425.447109 L308.52117,514.48241 L308.52117,603.517712 C308.52117,611.102373 314.674454,617.251384 322.264386,617.251384 L397.618345,617.251384 C405.208277,617.251384 411.361561,623.400394 411.361561,630.985056 L411.361561,706.286685 C411.361561,713.871347 417.514844,720.020357 425.104776,720.020357 L500.458735,720.020357 C508.048667,720.020357 514.201951,713.871347 514.201951,706.286685 L514.201951,617.251384 L514.201951,528.216082 C514.201951,520.631421 520.355234,514.48241 527.945167,514.48241 L603.299125,514.48241 C610.889058,514.48241 617.042341,508.3334 617.042341,500.748739 L617.042341,425.447109 C617.042341,417.862448 623.195624,411.713437 630.785557,411.713437 L706.139515,411.713437 C713.729448,411.713437 719.882731,417.862448 719.882731,425.447109 L719.882731,514.48241 L719.882731,603.517712 C719.882731,611.102373 726.036014,617.251384 733.625947,617.251384 L808.979905,617.251384 C816.569838,617.251384 822.723121,611.102373 822.723121,603.517712 L822.723121,528.216082 C822.723121,520.631421 828.876405,514.48241 836.466337,514.48241 L911.820296,514.48241 C919.410228,514.48241 925.563511,520.631421 925.563511,528.216082 L925.563511,603.517712 C925.563511,611.102373 931.716795,617.251384 939.306727,617.251384 L1014.66069,617.251384 C1022.25062,617.251384 1028.4039,623.400394 1028.4039,630.985056 L1028.4039,706.286685 C1028.4039,713.871347 1034.55718,720.020357 1042.14712,720.020357 L1117.50108,720.020357 C1125.09101,720.020357 1131.24429,713.871347 1131.24429,706.286685 L1131.24429,617.251384 L1131.24429,528.216082 C1131.24429,520.631421 1137.39758,514.48241 1144.98751,514.48241 L1220.34147,514.48241 C1227.9314,514.48241 1234.08468,508.3334 1234.08468,500.748739 L1234.08468,425.447109 C1234.08468,417.862448 1240.23797,411.713437 1247.8279,411.713437 L1323.18186,411.713437 C1330.77179,411.713437 1336.92507,405.564427 1336.92507,397.979765 L1336.92507,322.678136 C1336.92507,315.093474 1343.07836,308.944464 1350.66829,308.944464 L1426.02225,308.944464 C1433.61218,308.944464 1439.76546,302.795454 1439.76546,295.210792 L1439.76546,206.175491 L1439.76546,103.406518 L1439.76546,14.3712163 C1439.76546,6.78655465 1440,0.637544415 1440,0.637544415 L0,0.637544415 Z" id="Page-1" fill="#050F2C" opacity="0.516474185"></path>
                        <path d="M412.777536,0.5 L412.18455,503.196283 C412.18455,510.780945 418.337833,516.929955 425.927766,516.929955 L507.281724,516.929955 C514.871657,516.929955 521.02494,510.780945 521.02494,503.196283 L517.433376,325.125681 C517.433376,317.541019 523.586659,311.392009 531.176592,311.392009 L605.53055,311.392009 L707.121064,311.392009 C715.40152,311.392009 722.114156,318.102365 722.114156,326.394953 L722.114156,400.42731 C722.114156,408.011972 728.267439,414.160982 735.857372,414.160982 L811.211331,414.160982 C818.801263,414.160982 824.954546,408.011972 824.954546,400.42731 L824.954546,325.125681 C824.954546,317.541019 831.10783,311.392009 838.697762,311.392009 L914.051721,311.392009 C921.641653,311.392009 927.794936,317.541019 927.794936,325.125681 L927.794936,400.42731 C927.794936,408.011972 933.94822,414.160982 941.538152,414.160982 L1016.89211,414.160982 C1024.48204,414.160982 1030.63533,420.309992 1030.63533,427.894654 L1030.63533,503.196283 C1030.63533,510.780945 1036.78861,516.929955 1044.37854,516.929955 L1119.7325,516.929955 C1127.32243,516.929955 1133.47572,510.780945 1133.47572,503.196283 L1133.47572,325.125681 C1133.47572,317.541019 1139.629,311.392009 1147.21893,311.392009 L1222.57289,311.392009 C1230.16282,311.392009 1236.31611,305.242998 1236.31611,297.658337 L1236.31611,222.356707 C1236.31611,214.772046 1242.46939,208.623035 1250.05932,208.623035 L1325.41328,208.623035 C1333.00321,208.623035 1339.1565,202.474025 1339.1565,194.889364 L1339.1565,119.587734 C1339.1565,112.003073 1345.30978,105.854062 1352.89971,105.854062 L1428.25367,105.854062 C1435.8436,105.854062 1441.99689,99.705052 1441.99689,92.1203904 L1441.18144,0.5 L412.777536,0.5 Z" id="Page-1-Copy-2" fill="#050F2C" transform="translate(927.090719, 258.714978) scale(-1, 1) translate(-927.090719, -258.714978) "></path>
                        <rect id="Rectangle-8-Copy-6" fill="#0F1A44" x="1149" y="530" width="73.8515625" height="73.8515625" rx="11"></rect>
                        <rect id="Rectangle-8-Copy" fill="#182359" x="422.148438" y="529.820873" width="73.8515625" height="73.8515625" rx="11"></rect>
                        <rect id="Rectangle-8-Copy-5" fill="#0F1A44" x="118" y="629" width="73.8515625" height="73.8515625" rx="11"></rect>
                    </g>
                </g>
            </g>
        </g>
    </g>
</svg>