<?xml version="1.0" encoding="UTF-8"?>
<svg width="348px" height="320px" viewBox="0 0 348 320" version="1.1" xmlns="http://www.w3.org/2000/svg" xmlns:xlink="http://www.w3.org/1999/xlink">
    <!-- Generator: Sketch 44.1 (41455) - http://www.bohemiancoding.com/sketch -->
    <title>logo</title>
    <desc>Created with Sketch.</desc>
    <defs>
        <linearGradient x1="0%" y1="0%" x2="106.528337%" y2="100%" id="linearGradient-1">
            <stop stop-color="#FFFFFF" offset="0%"></stop>
            <stop stop-color="#FFFFFF" stop-opacity="0" offset="100%"></stop>
        </linearGradient>
    </defs>
    <g id="Page-1" stroke="none" stroke-width="1" fill="none" fill-rule="evenodd" opacity="0.400000006">
        <g id="Documentation---instantsearch" transform="translate(-932.000000, 0.000000)" fill-rule="nonzero" fill="url(#linearGradient-1)">
            <g id="Group-5">
                <g id="Group-4" transform="translate(932.000000, 0.000000)">
                    <path d="M173.4,141.2 C181.4,141.2 189,139.6 196.6,137.2 L209.4,159.2 L218.2,174.4 C220.6,178.8 225,181.2 229.8,181.2 C232.2,181.2 234.2,180.8 236.6,179.6 C243,176 245,167.6 241.4,161.2 L232.6,146 L219.8,123.6 C234.6,110.8 244.2,91.6 244.2,70.4 C244.2,31.6 212.6,0 173.8,0 C135,0 103,31.6 103,70.8 C103,110 134.6,141.2 173.4,141.2 Z M173.4,26.8 C197.4,26.8 217,46.4 217,70.4 C217,94.4 197.4,114 173.4,114 C149.4,114 129.8,94.4 129.8,70.4 C129.8,46.4 149.4,26.8 173.4,26.8 Z" id="Shape"></path>
                    <path d="M277.2,178.777778 C242.8,178.777778 214.4,203.577778 208,235.977778 L182.8,235.977778 L165.2,235.977778 C158,235.977778 152,241.977778 152,249.177778 C152,256.377778 158,262.377778 165.2,262.377778 L182.8,262.377778 L208,262.377778 C214.4,294.777778 242.8,319.577778 277.2,319.577778 C316,319.577778 347.6,287.977778 347.6,249.177778 C347.6,210.377778 316,178.777778 277.2,178.777778 Z M277.2,293.177778 C253.2,293.177778 233.6,273.577778 233.6,249.577778 C233.6,225.577778 253.2,205.977778 277.2,205.977778 C301.2,205.977778 320.8,225.577778 320.8,249.577778 C320.8,273.577778 301.2,293.177778 277.2,293.177778 Z M116.8,196.377778 C131.6,209.177778 141.2,227.977778 140.8,249.577778 C140.8,288.377778 109.2,319.977778 70.4,319.977778 C31.6,319.977778 0,288.777778 0,249.577778 C0,210.377778 31.6,178.777778 70.4,178.777778 C78.8,178.777778 86.4,180.377778 93.6,182.777778 L106.4,160.777778 L115.2,145.577778 C119.2,139.177778 127.2,137.177778 133.6,140.777778 C140,144.777778 142,152.777778 138.4,159.177778 L129.6,174.377778 L116.8,196.377778 Z M70.4,293.177778 C94.8,293.177778 114.4,273.577778 114,249.577778 C114,225.577778 94.4,205.977778 70.4,205.977778 C46.4,205.977778 26.8,225.577778 26.8,249.577778 C26.8,273.577778 46.4,293.177778 70.4,293.177778 Z" id="Combined-Shape"></path>
                </g>
            </g>
        </g>
    </g>
</svg>