<?xml version="1.0" encoding="UTF-8" standalone="no"?><!DOCTYPE svg PUBLIC "-//W3C//DTD SVG 1.1//EN" "http://www.w3.org/Graphics/SVG/1.1/DTD/svg11.dtd"><svg width="100%" height="100%" viewBox="0 0 800 801" version="1.1" xmlns="http://www.w3.org/2000/svg" xmlns:xlink="http://www.w3.org/1999/xlink" xml:space="preserve" style="fill-rule:evenodd;clip-rule:evenodd;stroke-linecap:round;stroke-linejoin:round;stroke-miterlimit:1.41421;"><rect id="Events" x="0" y="0.493" width="800" height="800" style="fill:none;"/><g><path d="M311.982,487.053c-74.063,-21.896 -125.634,-70.558 -125.634,-127.015c0,-56.457 51.571,-105.119 125.634,-127.015" style="fill:none;stroke:#46aeda;stroke-width:12px;"/><path d="M488.018,233.023c74.063,21.896 125.634,70.558 125.634,127.015c0,56.457 -51.571,105.119 -125.634,127.015" style="fill:none;stroke:#46aeda;stroke-width:12px;"/></g><g><circle cx="446.973" cy="360.493" r="11.545" style="fill:#f6624e;"/><path d="M458.518,348.948l60.336,-61.022l103.271,0" style="fill:none;stroke:#000;stroke-width:3px;"/><path d="M627.082,282.07c0,-1.32 0.228,-2.568 0.684,-3.744c0.456,-1.176 1.098,-2.202 1.926,-3.078c0.828,-0.876 1.818,-1.566 2.97,-2.07c1.152,-0.504 2.424,-0.756 3.816,-0.756c1.776,0 3.324,0.402 4.644,1.206c1.32,0.804 2.316,1.89 2.988,3.258l-2.376,0.756c-0.528,-0.96 -1.266,-1.71 -2.214,-2.25c-0.948,-0.54 -1.998,-0.81 -3.15,-0.81c-0.96,0 -1.854,0.192 -2.682,0.576c-0.828,0.384 -1.548,0.906 -2.16,1.566c-0.612,0.66 -1.092,1.446 -1.44,2.358c-0.348,0.912 -0.522,1.908 -0.522,2.988c0,1.056 0.18,2.052 0.54,2.988c0.36,0.936 0.852,1.746 1.476,2.43c0.624,0.684 1.35,1.224 2.178,1.62c0.828,0.396 1.71,0.594 2.646,0.594c0.6,0 1.194,-0.084 1.782,-0.252c0.588,-0.168 1.134,-0.402 1.638,-0.702c0.504,-0.3 0.936,-0.642 1.296,-1.026c0.36,-0.384 0.612,-0.792 0.756,-1.224l2.412,0.72c-0.264,0.672 -0.648,1.29 -1.152,1.854c-0.504,0.564 -1.098,1.056 -1.782,1.476c-0.684,0.42 -1.44,0.744 -2.268,0.972c-0.828,0.228 -1.686,0.342 -2.574,0.342c-1.368,0 -2.628,-0.258 -3.78,-0.774c-1.152,-0.516 -2.148,-1.224 -2.988,-2.124c-0.84,-0.9 -1.494,-1.938 -1.962,-3.114c-0.468,-1.176 -0.702,-2.436 -0.702,-3.78Z" style="fill-rule:nonzero;"/><path d="M663.91,291.502l-2.448,0l0,-10.476c0,-2.136 -0.366,-3.732 -1.098,-4.788c-0.732,-1.056 -1.806,-1.584 -3.222,-1.584c-0.696,0 -1.386,0.138 -2.07,0.414c-0.684,0.276 -1.326,0.654 -1.926,1.134c-0.6,0.48 -1.122,1.044 -1.566,1.692c-0.444,0.648 -0.774,1.356 -0.99,2.124l0,11.484l-2.448,0l0,-26.28l2.448,0l0,11.772c0.744,-1.416 1.776,-2.532 3.096,-3.348c1.32,-0.816 2.748,-1.224 4.284,-1.224c1.08,0 1.992,0.198 2.736,0.594c0.744,0.396 1.356,0.948 1.836,1.656c0.48,0.708 0.828,1.56 1.044,2.556c0.216,0.996 0.324,2.094 0.324,3.294l0,10.98Z" style="fill-rule:nonzero;"/><path d="M673.846,291.862c-0.888,0 -1.71,-0.15 -2.466,-0.45c-0.756,-0.3 -1.416,-0.714 -1.98,-1.242c-0.564,-0.528 -1.002,-1.146 -1.314,-1.854c-0.312,-0.708 -0.468,-1.47 -0.468,-2.286c0,-0.816 0.192,-1.572 0.576,-2.268c0.384,-0.696 0.924,-1.296 1.62,-1.8c0.696,-0.504 1.524,-0.894 2.484,-1.17c0.96,-0.276 2.016,-0.414 3.168,-0.414c0.96,0 1.932,0.084 2.916,0.252c0.984,0.168 1.86,0.408 2.628,0.72l0,-1.692c0,-1.656 -0.468,-2.97 -1.404,-3.942c-0.936,-0.972 -2.232,-1.458 -3.888,-1.458c-0.96,0 -1.944,0.192 -2.952,0.576c-1.008,0.384 -2.028,0.936 -3.06,1.656l-0.864,-1.62c2.424,-1.632 4.776,-2.448 7.056,-2.448c2.352,0 4.2,0.66 5.544,1.98c1.344,1.32 2.016,3.144 2.016,5.472l0,8.46c0,0.672 0.3,1.008 0.9,1.008l0,2.16c-0.408,0.072 -0.72,0.108 -0.936,0.108c-0.624,0 -1.11,-0.156 -1.458,-0.468c-0.348,-0.312 -0.534,-0.744 -0.558,-1.296l-0.072,-1.476c-0.864,1.128 -1.95,1.992 -3.258,2.592c-1.308,0.6 -2.718,0.9 -4.23,0.9Zm0.576,-1.872c1.272,0 2.442,-0.24 3.51,-0.72c1.068,-0.48 1.878,-1.116 2.43,-1.908c0.216,-0.216 0.378,-0.45 0.486,-0.702c0.108,-0.252 0.162,-0.486 0.162,-0.702l0,-3.06c-0.816,-0.312 -1.662,-0.552 -2.538,-0.72c-0.876,-0.168 -1.77,-0.252 -2.682,-0.252c-1.728,0 -3.132,0.36 -4.212,1.08c-1.08,0.72 -1.62,1.668 -1.62,2.844c0,0.576 0.114,1.116 0.342,1.62c0.228,0.504 0.54,0.942 0.936,1.314c0.396,0.372 0.87,0.666 1.422,0.882c0.552,0.216 1.14,0.324 1.764,0.324Z" style="fill-rule:nonzero;"/><path d="M704.518,291.502l-2.448,0l0,-10.476c0,-2.232 -0.33,-3.852 -0.99,-4.86c-0.66,-1.008 -1.674,-1.512 -3.042,-1.512c-0.72,0 -1.44,0.132 -2.16,0.396c-0.72,0.264 -1.386,0.636 -1.998,1.116c-0.612,0.48 -1.158,1.05 -1.638,1.71c-0.48,0.66 -0.828,1.374 -1.044,2.142l0,11.484l-2.448,0l0,-18.756l2.232,0l0,4.248c0.768,-1.368 1.866,-2.472 3.294,-3.312c1.428,-0.84 2.982,-1.26 4.662,-1.26c1.032,0 1.908,0.192 2.628,0.576c0.72,0.384 1.296,0.924 1.728,1.62c0.432,0.696 0.744,1.548 0.936,2.556c0.192,1.008 0.288,2.124 0.288,3.348l0,10.98Z" style="fill-rule:nonzero;"/><path d="M717.262,291.754c-1.296,0 -2.478,-0.27 -3.546,-0.81c-1.068,-0.54 -1.992,-1.254 -2.772,-2.142c-0.78,-0.888 -1.386,-1.908 -1.818,-3.06c-0.432,-1.152 -0.648,-2.34 -0.648,-3.564c0,-1.296 0.21,-2.538 0.63,-3.726c0.42,-1.188 1.014,-2.226 1.782,-3.114c0.768,-0.888 1.686,-1.596 2.754,-2.124c1.068,-0.528 2.25,-0.792 3.546,-0.792c1.608,0 3,0.402 4.176,1.206c1.176,0.804 2.184,1.818 3.024,3.042l0,-3.924l2.196,0l0,18.828c0,1.296 -0.246,2.442 -0.738,3.438c-0.492,0.996 -1.152,1.83 -1.98,2.502c-0.828,0.672 -1.8,1.176 -2.916,1.512c-1.116,0.336 -2.298,0.504 -3.546,0.504c-2.16,0 -3.9,-0.384 -5.22,-1.152c-1.32,-0.768 -2.388,-1.8 -3.204,-3.096l1.512,-1.188c0.744,1.2 1.728,2.082 2.952,2.646c1.224,0.564 2.544,0.846 3.96,0.846c0.912,0 1.776,-0.126 2.592,-0.378c0.816,-0.252 1.53,-0.624 2.142,-1.116c0.612,-0.492 1.098,-1.116 1.458,-1.872c0.36,-0.756 0.54,-1.638 0.54,-2.646l0,-3.708c-0.72,1.2 -1.704,2.148 -2.952,2.844c-1.248,0.696 -2.556,1.044 -3.924,1.044Zm0.684,-2.052c0.72,0 1.428,-0.132 2.124,-0.396c0.696,-0.264 1.326,-0.618 1.89,-1.062c0.564,-0.444 1.038,-0.942 1.422,-1.494c0.384,-0.552 0.636,-1.116 0.756,-1.692l0,-5.796c-0.264,-0.672 -0.624,-1.296 -1.08,-1.872c-0.456,-0.576 -0.972,-1.068 -1.548,-1.476c-0.576,-0.408 -1.194,-0.732 -1.854,-0.972c-0.66,-0.24 -1.326,-0.36 -1.998,-0.36c-1.056,0 -1.998,0.222 -2.826,0.666c-0.828,0.444 -1.53,1.026 -2.106,1.746c-0.576,0.72 -1.014,1.536 -1.314,2.448c-0.3,0.912 -0.45,1.836 -0.45,2.772c0,1.008 0.18,1.968 0.54,2.88c0.36,0.912 0.858,1.71 1.494,2.394c0.636,0.684 1.374,1.224 2.214,1.62c0.84,0.396 1.752,0.594 2.736,0.594Z" style="fill-rule:nonzero;"/><path d="M740.086,291.862c-1.368,0 -2.622,-0.258 -3.762,-0.774c-1.14,-0.516 -2.13,-1.224 -2.97,-2.124c-0.84,-0.9 -1.494,-1.938 -1.962,-3.114c-0.468,-1.176 -0.702,-2.436 -0.702,-3.78c0,-1.32 0.234,-2.562 0.702,-3.726c0.468,-1.164 1.116,-2.184 1.944,-3.06c0.828,-0.876 1.818,-1.572 2.97,-2.088c1.152,-0.516 2.4,-0.774 3.744,-0.774c1.368,0 2.622,0.258 3.762,0.774c1.14,0.516 2.118,1.218 2.934,2.106c0.816,0.888 1.452,1.908 1.908,3.06c0.456,1.152 0.684,2.376 0.684,3.672c0,0.192 0,0.384 0,0.576c0,0.192 -0.012,0.324 -0.036,0.396l-16.056,0c0.072,1.008 0.306,1.938 0.702,2.79c0.396,0.852 0.906,1.59 1.53,2.214c0.624,0.624 1.338,1.11 2.142,1.458c0.804,0.348 1.662,0.522 2.574,0.522c0.6,0 1.2,-0.084 1.8,-0.252c0.6,-0.168 1.152,-0.396 1.656,-0.684c0.504,-0.288 0.96,-0.642 1.368,-1.062c0.408,-0.42 0.72,-0.882 0.936,-1.386l2.124,0.576c-0.288,0.696 -0.696,1.326 -1.224,1.89c-0.528,0.564 -1.14,1.056 -1.836,1.476c-0.696,0.42 -1.464,0.744 -2.304,0.972c-0.84,0.228 -1.716,0.342 -2.628,0.342Zm6.912,-10.728c-0.072,-1.008 -0.306,-1.926 -0.702,-2.754c-0.396,-0.828 -0.9,-1.542 -1.512,-2.142c-0.612,-0.6 -1.32,-1.068 -2.124,-1.404c-0.804,-0.336 -1.662,-0.504 -2.574,-0.504c-0.912,0 -1.776,0.168 -2.592,0.504c-0.816,0.336 -1.53,0.804 -2.142,1.404c-0.612,0.6 -1.104,1.32 -1.476,2.16c-0.372,0.84 -0.594,1.752 -0.666,2.736l13.788,0Z" style="fill-rule:nonzero;"/></g><g><circle cx="492.973" cy="523.801" r="11.545" style="fill:#f6624e;"/><path d="M504.518,535.346l43.42,42.919l43.256,-1.167" style="fill:none;stroke:#000;stroke-width:3px;"/><path d="M602.604,581.758c-1.464,0 -2.892,-0.24 -4.284,-0.72c-1.392,-0.48 -2.592,-1.176 -3.6,-2.088l1.116,-1.656c1.056,0.864 2.13,1.512 3.222,1.944c1.092,0.432 2.262,0.648 3.51,0.648c1.512,0 2.718,-0.306 3.618,-0.918c0.9,-0.612 1.35,-1.482 1.35,-2.61c0,-0.528 -0.12,-0.966 -0.36,-1.314c-0.24,-0.348 -0.594,-0.654 -1.062,-0.918c-0.468,-0.264 -1.056,-0.498 -1.764,-0.702c-0.708,-0.204 -1.53,-0.414 -2.466,-0.63c-1.08,-0.264 -2.016,-0.528 -2.808,-0.792c-0.792,-0.264 -1.446,-0.564 -1.962,-0.9c-0.516,-0.336 -0.9,-0.75 -1.152,-1.242c-0.252,-0.492 -0.378,-1.11 -0.378,-1.854c0,-0.936 0.186,-1.764 0.558,-2.484c0.372,-0.72 0.876,-1.314 1.512,-1.782c0.636,-0.468 1.38,-0.822 2.232,-1.062c0.852,-0.24 1.758,-0.36 2.718,-0.36c1.44,0 2.748,0.234 3.924,0.702c1.176,0.468 2.124,1.086 2.844,1.854l-1.188,1.44c-0.696,-0.72 -1.542,-1.26 -2.538,-1.62c-0.996,-0.36 -2.034,-0.54 -3.114,-0.54c-0.648,0 -1.248,0.066 -1.8,0.198c-0.552,0.132 -1.038,0.342 -1.458,0.63c-0.42,0.288 -0.75,0.654 -0.99,1.098c-0.24,0.444 -0.36,0.966 -0.36,1.566c0,0.504 0.084,0.912 0.252,1.224c0.168,0.312 0.444,0.582 0.828,0.81c0.384,0.228 0.87,0.432 1.458,0.612c0.588,0.18 1.302,0.366 2.142,0.558c1.2,0.288 2.256,0.576 3.168,0.864c0.912,0.288 1.674,0.624 2.286,1.008c0.612,0.384 1.074,0.852 1.386,1.404c0.312,0.552 0.468,1.224 0.468,2.016c0,1.728 -0.66,3.096 -1.98,4.104c-1.32,1.008 -3.096,1.512 -5.328,1.512Z" style="fill-rule:nonzero;"/><path d="M622.008,581.758c-1.368,0 -2.622,-0.258 -3.762,-0.774c-1.14,-0.516 -2.13,-1.224 -2.97,-2.124c-0.84,-0.9 -1.494,-1.938 -1.962,-3.114c-0.468,-1.176 -0.702,-2.436 -0.702,-3.78c0,-1.32 0.234,-2.562 0.702,-3.726c0.468,-1.164 1.116,-2.184 1.944,-3.06c0.828,-0.876 1.818,-1.572 2.97,-2.088c1.152,-0.516 2.4,-0.774 3.744,-0.774c1.368,0 2.622,0.258 3.762,0.774c1.14,0.516 2.118,1.218 2.934,2.106c0.816,0.888 1.452,1.908 1.908,3.06c0.456,1.152 0.684,2.376 0.684,3.672c0,0.192 0,0.384 0,0.576c0,0.192 -0.012,0.324 -0.036,0.396l-16.056,0c0.072,1.008 0.306,1.938 0.702,2.79c0.396,0.852 0.906,1.59 1.53,2.214c0.624,0.624 1.338,1.11 2.142,1.458c0.804,0.348 1.662,0.522 2.574,0.522c0.6,0 1.2,-0.084 1.8,-0.252c0.6,-0.168 1.152,-0.396 1.656,-0.684c0.504,-0.288 0.96,-0.642 1.368,-1.062c0.408,-0.42 0.72,-0.882 0.936,-1.386l2.124,0.576c-0.288,0.696 -0.696,1.326 -1.224,1.89c-0.528,0.564 -1.14,1.056 -1.836,1.476c-0.696,0.42 -1.464,0.744 -2.304,0.972c-0.84,0.228 -1.716,0.342 -2.628,0.342Zm6.912,-10.728c-0.072,-1.008 -0.306,-1.926 -0.702,-2.754c-0.396,-0.828 -0.9,-1.542 -1.512,-2.142c-0.612,-0.6 -1.32,-1.068 -2.124,-1.404c-0.804,-0.336 -1.662,-0.504 -2.574,-0.504c-0.912,0 -1.776,0.168 -2.592,0.504c-0.816,0.336 -1.53,0.804 -2.142,1.404c-0.612,0.6 -1.104,1.32 -1.476,2.16c-0.372,0.84 -0.594,1.752 -0.666,2.736l13.788,0Z" style="fill-rule:nonzero;"/><path d="M639.756,581.758c-0.888,0 -1.71,-0.15 -2.466,-0.45c-0.756,-0.3 -1.416,-0.714 -1.98,-1.242c-0.564,-0.528 -1.002,-1.146 -1.314,-1.854c-0.312,-0.708 -0.468,-1.47 -0.468,-2.286c0,-0.816 0.192,-1.572 0.576,-2.268c0.384,-0.696 0.924,-1.296 1.62,-1.8c0.696,-0.504 1.524,-0.894 2.484,-1.17c0.96,-0.276 2.016,-0.414 3.168,-0.414c0.96,0 1.932,0.084 2.916,0.252c0.984,0.168 1.86,0.408 2.628,0.72l0,-1.692c0,-1.656 -0.468,-2.97 -1.404,-3.942c-0.936,-0.972 -2.232,-1.458 -3.888,-1.458c-0.96,0 -1.944,0.192 -2.952,0.576c-1.008,0.384 -2.028,0.936 -3.06,1.656l-0.864,-1.62c2.424,-1.632 4.776,-2.448 7.056,-2.448c2.352,0 4.2,0.66 5.544,1.98c1.344,1.32 2.016,3.144 2.016,5.472l0,8.46c0,0.672 0.3,1.008 0.9,1.008l0,2.16c-0.408,0.072 -0.72,0.108 -0.936,0.108c-0.624,0 -1.11,-0.156 -1.458,-0.468c-0.348,-0.312 -0.534,-0.744 -0.558,-1.296l-0.072,-1.476c-0.864,1.128 -1.95,1.992 -3.258,2.592c-1.308,0.6 -2.718,0.9 -4.23,0.9Zm0.576,-1.872c1.272,0 2.442,-0.24 3.51,-0.72c1.068,-0.48 1.878,-1.116 2.43,-1.908c0.216,-0.216 0.378,-0.45 0.486,-0.702c0.108,-0.252 0.162,-0.486 0.162,-0.702l0,-3.06c-0.816,-0.312 -1.662,-0.552 -2.538,-0.72c-0.876,-0.168 -1.77,-0.252 -2.682,-0.252c-1.728,0 -3.132,0.36 -4.212,1.08c-1.08,0.72 -1.62,1.668 -1.62,2.844c0,0.576 0.114,1.116 0.342,1.62c0.228,0.504 0.54,0.942 0.936,1.314c0.396,0.372 0.87,0.666 1.422,0.882c0.552,0.216 1.14,0.324 1.764,0.324Z" style="fill-rule:nonzero;"/><path d="M664.02,564.802c-1.656,0.048 -3.096,0.504 -4.32,1.368c-1.224,0.864 -2.088,2.052 -2.592,3.564l0,11.664l-2.448,0l0,-18.756l2.304,0l0,4.5c0.696,-1.44 1.632,-2.568 2.808,-3.384c1.176,-0.816 2.436,-1.224 3.78,-1.224c0.192,0 0.348,0.012 0.468,0.036l0,2.232Z" style="fill-rule:nonzero;"/><path d="M665.064,571.966c0,-1.32 0.228,-2.568 0.684,-3.744c0.456,-1.176 1.098,-2.202 1.926,-3.078c0.828,-0.876 1.818,-1.566 2.97,-2.07c1.152,-0.504 2.424,-0.756 3.816,-0.756c1.776,0 3.324,0.402 4.644,1.206c1.32,0.804 2.316,1.89 2.988,3.258l-2.376,0.756c-0.528,-0.96 -1.266,-1.71 -2.214,-2.25c-0.948,-0.54 -1.998,-0.81 -3.15,-0.81c-0.96,0 -1.854,0.192 -2.682,0.576c-0.828,0.384 -1.548,0.906 -2.16,1.566c-0.612,0.66 -1.092,1.446 -1.44,2.358c-0.348,0.912 -0.522,1.908 -0.522,2.988c0,1.056 0.18,2.052 0.54,2.988c0.36,0.936 0.852,1.746 1.476,2.43c0.624,0.684 1.35,1.224 2.178,1.62c0.828,0.396 1.71,0.594 2.646,0.594c0.6,0 1.194,-0.084 1.782,-0.252c0.588,-0.168 1.134,-0.402 1.638,-0.702c0.504,-0.3 0.936,-0.642 1.296,-1.026c0.36,-0.384 0.612,-0.792 0.756,-1.224l2.412,0.72c-0.264,0.672 -0.648,1.29 -1.152,1.854c-0.504,0.564 -1.098,1.056 -1.782,1.476c-0.684,0.42 -1.44,0.744 -2.268,0.972c-0.828,0.228 -1.686,0.342 -2.574,0.342c-1.368,0 -2.628,-0.258 -3.78,-0.774c-1.152,-0.516 -2.148,-1.224 -2.988,-2.124c-0.84,-0.9 -1.494,-1.938 -1.962,-3.114c-0.468,-1.176 -0.702,-2.436 -0.702,-3.78Z" style="fill-rule:nonzero;"/><path d="M701.892,581.398l-2.448,0l0,-10.476c0,-2.136 -0.366,-3.732 -1.098,-4.788c-0.732,-1.056 -1.806,-1.584 -3.222,-1.584c-0.696,0 -1.386,0.138 -2.07,0.414c-0.684,0.276 -1.326,0.654 -1.926,1.134c-0.6,0.48 -1.122,1.044 -1.566,1.692c-0.444,0.648 -0.774,1.356 -0.99,2.124l0,11.484l-2.448,0l0,-26.28l2.448,0l0,11.772c0.744,-1.416 1.776,-2.532 3.096,-3.348c1.32,-0.816 2.748,-1.224 4.284,-1.224c1.08,0 1.992,0.198 2.736,0.594c0.744,0.396 1.356,0.948 1.836,1.656c0.48,0.708 0.828,1.56 1.044,2.556c0.216,0.996 0.324,2.094 0.324,3.294l0,10.98Z" style="fill-rule:nonzero;"/></g><g><path d="M252.501,175.183l-38.022,-36.026l-43.256,1.166" style="fill:none;stroke:#000;stroke-width:3px;"/><g transform="matrix(1,0,0,1,-1609.06,-126.731)"><path d="M1691.53,251.649c-1.656,0.048 -3.096,0.504 -4.32,1.368c-1.224,0.864 -2.088,2.052 -2.592,3.564l0,11.664l-2.448,0l0,-18.756l2.304,0l0,4.5c0.696,-1.44 1.632,-2.568 2.808,-3.384c1.176,-0.816 2.436,-1.224 3.78,-1.224c0.192,0 0.348,0.012 0.468,0.036l0,2.232Z" style="fill-rule:nonzero;"/><path d="M1701.97,268.605c-1.368,0 -2.622,-0.258 -3.762,-0.774c-1.14,-0.516 -2.13,-1.224 -2.97,-2.124c-0.84,-0.9 -1.494,-1.938 -1.962,-3.114c-0.468,-1.176 -0.702,-2.436 -0.702,-3.78c0,-1.32 0.234,-2.562 0.702,-3.726c0.468,-1.164 1.116,-2.184 1.944,-3.06c0.828,-0.876 1.818,-1.572 2.97,-2.088c1.152,-0.516 2.4,-0.774 3.744,-0.774c1.368,0 2.622,0.258 3.762,0.774c1.14,0.516 2.118,1.218 2.934,2.106c0.816,0.888 1.452,1.908 1.908,3.06c0.456,1.152 0.684,2.376 0.684,3.672c0,0.192 0,0.384 0,0.576c0,0.192 -0.012,0.324 -0.036,0.396l-16.056,0c0.072,1.008 0.306,1.938 0.702,2.79c0.396,0.852 0.906,1.59 1.53,2.214c0.624,0.624 1.338,1.11 2.142,1.458c0.804,0.348 1.662,0.522 2.574,0.522c0.6,0 1.2,-0.084 1.8,-0.252c0.6,-0.168 1.152,-0.396 1.656,-0.684c0.504,-0.288 0.96,-0.642 1.368,-1.062c0.408,-0.42 0.72,-0.882 0.936,-1.386l2.124,0.576c-0.288,0.696 -0.696,1.326 -1.224,1.89c-0.528,0.564 -1.14,1.056 -1.836,1.476c-0.696,0.42 -1.464,0.744 -2.304,0.972c-0.84,0.228 -1.716,0.342 -2.628,0.342Zm6.912,-10.728c-0.072,-1.008 -0.306,-1.926 -0.702,-2.754c-0.396,-0.828 -0.9,-1.542 -1.512,-2.142c-0.612,-0.6 -1.32,-1.068 -2.124,-1.404c-0.804,-0.336 -1.662,-0.504 -2.574,-0.504c-0.912,0 -1.776,0.168 -2.592,0.504c-0.816,0.336 -1.53,0.804 -2.142,1.404c-0.612,0.6 -1.104,1.32 -1.476,2.16c-0.372,0.84 -0.594,1.752 -0.666,2.736l13.788,0Z" style="fill-rule:nonzero;"/><path d="M1721.23,268.605c-1.464,0 -2.892,-0.24 -4.284,-0.72c-1.392,-0.48 -2.592,-1.176 -3.6,-2.088l1.116,-1.656c1.056,0.864 2.13,1.512 3.222,1.944c1.092,0.432 2.262,0.648 3.51,0.648c1.512,0 2.718,-0.306 3.618,-0.918c0.9,-0.612 1.35,-1.482 1.35,-2.61c0,-0.528 -0.12,-0.966 -0.36,-1.314c-0.24,-0.348 -0.594,-0.654 -1.062,-0.918c-0.468,-0.264 -1.056,-0.498 -1.764,-0.702c-0.708,-0.204 -1.53,-0.414 -2.466,-0.63c-1.08,-0.264 -2.016,-0.528 -2.808,-0.792c-0.792,-0.264 -1.446,-0.564 -1.962,-0.9c-0.516,-0.336 -0.9,-0.75 -1.152,-1.242c-0.252,-0.492 -0.378,-1.11 -0.378,-1.854c0,-0.936 0.186,-1.764 0.558,-2.484c0.372,-0.72 0.876,-1.314 1.512,-1.782c0.636,-0.468 1.38,-0.822 2.232,-1.062c0.852,-0.24 1.758,-0.36 2.718,-0.36c1.44,0 2.748,0.234 3.924,0.702c1.176,0.468 2.124,1.086 2.844,1.854l-1.188,1.44c-0.696,-0.72 -1.542,-1.26 -2.538,-1.62c-0.996,-0.36 -2.034,-0.54 -3.114,-0.54c-0.648,0 -1.248,0.066 -1.8,0.198c-0.552,0.132 -1.038,0.342 -1.458,0.63c-0.42,0.288 -0.75,0.654 -0.99,1.098c-0.24,0.444 -0.36,0.966 -0.36,1.566c0,0.504 0.084,0.912 0.252,1.224c0.168,0.312 0.444,0.582 0.828,0.81c0.384,0.228 0.87,0.432 1.458,0.612c0.588,0.18 1.302,0.366 2.142,0.558c1.2,0.288 2.256,0.576 3.168,0.864c0.912,0.288 1.674,0.624 2.286,1.008c0.612,0.384 1.074,0.852 1.386,1.404c0.312,0.552 0.468,1.224 0.468,2.016c0,1.728 -0.66,3.096 -1.98,4.104c-1.32,1.008 -3.096,1.512 -5.328,1.512Z" style="fill-rule:nonzero;"/><path d="M1738.4,268.605c-2.04,0 -3.558,-0.678 -4.554,-2.034c-0.996,-1.356 -1.494,-3.378 -1.494,-6.066l0,-11.016l2.448,0l0,10.584c0,4.248 1.452,6.372 4.356,6.372c0.72,0 1.428,-0.12 2.124,-0.36c0.696,-0.24 1.338,-0.588 1.926,-1.044c0.588,-0.456 1.116,-0.996 1.584,-1.62c0.468,-0.624 0.846,-1.332 1.134,-2.124l0,-11.808l2.448,0l0,15.588c0,0.672 0.288,1.008 0.864,1.008l0,2.16c-0.288,0.048 -0.522,0.072 -0.702,0.072c-0.18,0 -0.306,0 -0.378,0c-0.576,-0.024 -1.044,-0.228 -1.404,-0.612c-0.36,-0.384 -0.54,-0.9 -0.54,-1.548l0,-2.16c-0.816,1.464 -1.926,2.598 -3.33,3.402c-1.404,0.804 -2.898,1.206 -4.482,1.206Z" style="fill-rule:nonzero;"/><path d="M1754.02,241.965l2.448,0l0,22.032c0,0.696 0.192,1.242 0.576,1.638c0.384,0.396 0.924,0.594 1.62,0.594c0.264,0 0.576,-0.036 0.936,-0.108c0.36,-0.072 0.696,-0.168 1.008,-0.288l0.432,1.98c-0.456,0.192 -1.014,0.348 -1.674,0.468c-0.66,0.12 -1.23,0.18 -1.71,0.18c-1.128,0 -2.016,-0.318 -2.664,-0.954c-0.648,-0.636 -0.972,-1.53 -0.972,-2.682l0,-22.86Z" style="fill-rule:nonzero;"/><path d="M1772.71,267.345c-0.144,0.072 -0.354,0.168 -0.63,0.288c-0.276,0.12 -0.594,0.24 -0.954,0.36c-0.36,0.12 -0.768,0.228 -1.224,0.324c-0.456,0.096 -0.936,0.144 -1.44,0.144c-0.528,0 -1.032,-0.072 -1.512,-0.216c-0.48,-0.144 -0.9,-0.366 -1.26,-0.666c-0.36,-0.3 -0.648,-0.678 -0.864,-1.134c-0.216,-0.456 -0.324,-0.984 -0.324,-1.584l0,-13.428l-2.592,0l0,-1.944l2.592,0l0,-6.336l2.448,0l0,6.336l4.32,0l0,1.944l-4.32,0l0,12.744c0.048,0.696 0.294,1.206 0.738,1.53c0.444,0.324 0.954,0.486 1.53,0.486c0.696,0 1.308,-0.114 1.836,-0.342c0.528,-0.228 0.864,-0.39 1.008,-0.486l0.648,1.98Z" style="fill-rule:nonzero;"/><path d="M1690.16,304.605c-1.368,0 -2.616,-0.258 -3.744,-0.774c-1.128,-0.516 -2.106,-1.218 -2.934,-2.106c-0.828,-0.888 -1.47,-1.92 -1.926,-3.096c-0.456,-1.176 -0.684,-2.412 -0.684,-3.708c0,-1.32 0.234,-2.568 0.702,-3.744c0.468,-1.176 1.116,-2.208 1.944,-3.096c0.828,-0.888 1.806,-1.596 2.934,-2.124c1.128,-0.528 2.364,-0.792 3.708,-0.792c1.344,0 2.586,0.264 3.726,0.792c1.14,0.528 2.124,1.236 2.952,2.124c0.828,0.888 1.476,1.92 1.944,3.096c0.468,1.176 0.702,2.424 0.702,3.744c0,1.296 -0.228,2.532 -0.684,3.708c-0.456,1.176 -1.098,2.208 -1.926,3.096c-0.828,0.888 -1.812,1.59 -2.952,2.106c-1.14,0.516 -2.394,0.774 -3.762,0.774Zm-6.804,-9.648c0,1.056 0.18,2.034 0.54,2.934c0.36,0.9 0.846,1.692 1.458,2.376c0.612,0.684 1.332,1.218 2.16,1.602c0.828,0.384 1.71,0.576 2.646,0.576c0.936,0 1.818,-0.198 2.646,-0.594c0.828,-0.396 1.554,-0.936 2.178,-1.62c0.624,-0.684 1.116,-1.482 1.476,-2.394c0.36,-0.912 0.54,-1.896 0.54,-2.952c0,-1.032 -0.18,-2.01 -0.54,-2.934c-0.36,-0.924 -0.852,-1.728 -1.476,-2.412c-0.624,-0.684 -1.35,-1.224 -2.178,-1.62c-0.828,-0.396 -1.71,-0.594 -2.646,-0.594c-0.936,0 -1.812,0.198 -2.628,0.594c-0.816,0.396 -1.536,0.942 -2.16,1.638c-0.624,0.696 -1.116,1.506 -1.476,2.43c-0.36,0.924 -0.54,1.914 -0.54,2.97Z" style="fill-rule:nonzero;"/><path d="M1712.95,287.649c-1.656,0.048 -3.096,0.504 -4.32,1.368c-1.224,0.864 -2.088,2.052 -2.592,3.564l0,11.664l-2.448,0l0,-18.756l2.304,0l0,4.5c0.696,-1.44 1.632,-2.568 2.808,-3.384c1.176,-0.816 2.436,-1.224 3.78,-1.224c0.192,0 0.348,0.012 0.468,0.036l0,2.232Z" style="fill-rule:nonzero;"/><path d="M1690.27,340.605c-1.368,0 -2.622,-0.258 -3.762,-0.774c-1.14,-0.516 -2.13,-1.224 -2.97,-2.124c-0.84,-0.9 -1.494,-1.938 -1.962,-3.114c-0.468,-1.176 -0.702,-2.436 -0.702,-3.78c0,-1.32 0.234,-2.562 0.702,-3.726c0.468,-1.164 1.116,-2.184 1.944,-3.06c0.828,-0.876 1.818,-1.572 2.97,-2.088c1.152,-0.516 2.4,-0.774 3.744,-0.774c1.368,0 2.622,0.258 3.762,0.774c1.14,0.516 2.118,1.218 2.934,2.106c0.816,0.888 1.452,1.908 1.908,3.06c0.456,1.152 0.684,2.376 0.684,3.672c0,0.192 0,0.384 0,0.576c0,0.192 -0.012,0.324 -0.036,0.396l-16.056,0c0.072,1.008 0.306,1.938 0.702,2.79c0.396,0.852 0.906,1.59 1.53,2.214c0.624,0.624 1.338,1.11 2.142,1.458c0.804,0.348 1.662,0.522 2.574,0.522c0.6,0 1.2,-0.084 1.8,-0.252c0.6,-0.168 1.152,-0.396 1.656,-0.684c0.504,-0.288 0.96,-0.642 1.368,-1.062c0.408,-0.42 0.72,-0.882 0.936,-1.386l2.124,0.576c-0.288,0.696 -0.696,1.326 -1.224,1.89c-0.528,0.564 -1.14,1.056 -1.836,1.476c-0.696,0.42 -1.464,0.744 -2.304,0.972c-0.84,0.228 -1.716,0.342 -2.628,0.342Zm6.912,-10.728c-0.072,-1.008 -0.306,-1.926 -0.702,-2.754c-0.396,-0.828 -0.9,-1.542 -1.512,-2.142c-0.612,-0.6 -1.32,-1.068 -2.124,-1.404c-0.804,-0.336 -1.662,-0.504 -2.574,-0.504c-0.912,0 -1.776,0.168 -2.592,0.504c-0.816,0.336 -1.53,0.804 -2.142,1.404c-0.612,0.6 -1.104,1.32 -1.476,2.16c-0.372,0.84 -0.594,1.752 -0.666,2.736l13.788,0Z" style="fill-rule:nonzero;"/><path d="M1712.66,323.649c-1.656,0.048 -3.096,0.504 -4.32,1.368c-1.224,0.864 -2.088,2.052 -2.592,3.564l0,11.664l-2.448,0l0,-18.756l2.304,0l0,4.5c0.696,-1.44 1.632,-2.568 2.808,-3.384c1.176,-0.816 2.436,-1.224 3.78,-1.224c0.192,0 0.348,0.012 0.468,0.036l0,2.232Z" style="fill-rule:nonzero;"/><path d="M1725.29,323.649c-1.656,0.048 -3.096,0.504 -4.32,1.368c-1.224,0.864 -2.088,2.052 -2.592,3.564l0,11.664l-2.448,0l0,-18.756l2.304,0l0,4.5c0.696,-1.44 1.632,-2.568 2.808,-3.384c1.176,-0.816 2.436,-1.224 3.78,-1.224c0.192,0 0.348,0.012 0.468,0.036l0,2.232Z" style="fill-rule:nonzero;"/><path d="M1735.63,340.605c-1.368,0 -2.616,-0.258 -3.744,-0.774c-1.128,-0.516 -2.106,-1.218 -2.934,-2.106c-0.828,-0.888 -1.47,-1.92 -1.926,-3.096c-0.456,-1.176 -0.684,-2.412 -0.684,-3.708c0,-1.32 0.234,-2.568 0.702,-3.744c0.468,-1.176 1.116,-2.208 1.944,-3.096c0.828,-0.888 1.806,-1.596 2.934,-2.124c1.128,-0.528 2.364,-0.792 3.708,-0.792c1.344,0 2.586,0.264 3.726,0.792c1.14,0.528 2.124,1.236 2.952,2.124c0.828,0.888 1.476,1.92 1.944,3.096c0.468,1.176 0.702,2.424 0.702,3.744c0,1.296 -0.228,2.532 -0.684,3.708c-0.456,1.176 -1.098,2.208 -1.926,3.096c-0.828,0.888 -1.812,1.59 -2.952,2.106c-1.14,0.516 -2.394,0.774 -3.762,0.774Zm-6.804,-9.648c0,1.056 0.18,2.034 0.54,2.934c0.36,0.9 0.846,1.692 1.458,2.376c0.612,0.684 1.332,1.218 2.16,1.602c0.828,0.384 1.71,0.576 2.646,0.576c0.936,0 1.818,-0.198 2.646,-0.594c0.828,-0.396 1.554,-0.936 2.178,-1.62c0.624,-0.684 1.116,-1.482 1.476,-2.394c0.36,-0.912 0.54,-1.896 0.54,-2.952c0,-1.032 -0.18,-2.01 -0.54,-2.934c-0.36,-0.924 -0.852,-1.728 -1.476,-2.412c-0.624,-0.684 -1.35,-1.224 -2.178,-1.62c-0.828,-0.396 -1.71,-0.594 -2.646,-0.594c-0.936,0 -1.812,0.198 -2.628,0.594c-0.816,0.396 -1.536,0.942 -2.16,1.638c-0.624,0.696 -1.116,1.506 -1.476,2.43c-0.36,0.924 -0.54,1.914 -0.54,2.97Z" style="fill-rule:nonzero;"/><path d="M1758.41,323.649c-1.656,0.048 -3.096,0.504 -4.32,1.368c-1.224,0.864 -2.088,2.052 -2.592,3.564l0,11.664l-2.448,0l0,-18.756l2.304,0l0,4.5c0.696,-1.44 1.632,-2.568 2.808,-3.384c1.176,-0.816 2.436,-1.224 3.78,-1.224c0.192,0 0.348,0.012 0.468,0.036l0,2.232Z" style="fill-rule:nonzero;"/></g><circle cx="264.047" cy="186.728" r="11.545" style="fill:#f6624e;"/></g><g><path d="M400,279.263l0,130.474" style="fill:none;stroke:#13c4a5;stroke-width:12px;"/><path d="M404.072,453.168c-0.771,1.542 -2.348,2.516 -4.072,2.516c-1.724,0 -3.301,-0.974 -4.072,-2.516c-5.095,-10.19 -13.72,-27.441 -18.421,-36.842c-0.706,-1.411 -0.63,-3.087 0.199,-4.429c0.83,-1.343 2.295,-2.16 3.873,-2.16c9.804,0 27.038,0 36.842,0c1.578,0 3.043,0.817 3.873,2.16c0.829,1.342 0.905,3.018 0.199,4.429c-4.701,9.401 -13.326,26.652 -18.421,36.842Z" style="fill:#13c4a5;"/></g><g><path d="M373.373,687.926l0,-27.954" style="fill:none;stroke:#8a63b3;stroke-width:12px;"/><path d="M377.445,616.542c-0.771,-1.542 -2.348,-2.517 -4.072,-2.517c-1.725,0 -3.301,0.975 -4.072,2.517c-5.095,10.19 -13.721,27.44 -18.421,36.842c-0.706,1.411 -0.631,3.087 0.199,4.429c0.83,1.342 2.295,2.159 3.873,2.159c9.803,0 27.038,0 36.842,0c1.577,0 3.043,-0.817 3.872,-2.159c0.83,-1.342 0.905,-3.018 0.2,-4.429c-4.701,-9.402 -13.326,-26.652 -18.421,-36.842Z" style="fill:#8a63b3;"/></g><g><path d="M425.787,620.208l0,27.954" style="fill:none;stroke:#8a63b3;stroke-width:12px;"/><path d="M429.859,691.592c-0.771,1.543 -2.347,2.517 -4.072,2.517c-1.724,0 -3.301,-0.974 -4.072,-2.517c-5.095,-10.19 -13.72,-27.44 -18.421,-36.841c-0.705,-1.412 -0.63,-3.088 0.2,-4.43c0.829,-1.342 2.295,-2.159 3.872,-2.159c9.804,0 27.039,0 36.842,0c1.578,0 3.043,0.817 3.873,2.159c0.83,1.342 0.905,3.018 0.199,4.43c-4.7,9.401 -13.326,26.651 -18.421,36.841Z" style="fill:#8a63b3;"/></g><rect x="332.283" y="78.946" width="135.435" height="184.698" style="fill:#ebebeb;"/><circle cx="400" cy="540.68" r="67.717" style="fill:#ebebeb;"/><path d="M476.803,497.361c-1.721,0.114 -3.358,-0.754 -4.23,-2.242c-0.871,-1.488 -0.827,-3.341 0.114,-4.786c6.218,-9.546 16.745,-25.707 22.482,-34.514c0.861,-1.322 2.345,-2.104 3.923,-2.066c1.577,0.037 3.023,0.889 3.82,2.25c4.954,8.46 13.664,23.332 18.619,31.791c0.797,1.362 0.833,3.039 0.094,4.433c-0.739,1.394 -2.147,2.306 -3.722,2.411c-10.488,0.695 -29.732,1.97 -41.1,2.723Z" style="fill:#46aeda;"/><path d="M317.617,222.169c1.72,-0.114 3.358,0.754 4.229,2.242c0.872,1.488 0.828,3.341 -0.113,4.786c-6.218,9.546 -16.745,25.707 -22.482,34.514c-0.861,1.322 -2.346,2.104 -3.923,2.067c-1.577,-0.038 -3.023,-0.889 -3.82,-2.251c-4.955,-8.459 -13.665,-23.331 -18.619,-31.791c-0.797,-1.361 -0.833,-3.039 -0.094,-4.433c0.739,-1.394 2.147,-2.306 3.722,-2.41c10.488,-0.695 29.732,-1.97 41.1,-2.724Z" style="fill:#46aeda;"/><g><g id="UI"><rect x="341.29" y="89.98" width="118.167" height="18.186" style="fill:#e0e0e0;"/><rect x="387.423" y="116.268" width="72.034" height="15.523" style="fill:#e0e0e0;"/><rect x="387.423" y="141.049" width="72.034" height="15.523" style="fill:#e0e0e0;"/><rect x="387.423" y="165.829" width="72.034" height="15.523" style="fill:#e0e0e0;"/><rect x="387.423" y="190.61" width="72.034" height="15.523" style="fill:#e0e0e0;"/><rect x="387.423" y="215.391" width="72.034" height="15.523" style="fill:#e0e0e0;"/><rect x="341.29" y="116.268" width="36.135" height="136.35" style="fill:#e0e0e0;"/></g><path d="M398.296,64.93c2.144,0 3.928,-0.408 5.352,-1.224c1.424,-0.816 2.56,-1.888 3.408,-3.216c0.848,-1.328 1.44,-2.84 1.776,-4.536c0.336,-1.696 0.504,-3.408 0.504,-5.136l0,-17.184l3.36,0l0,17.184c0,2.304 -0.256,4.488 -0.768,6.552c-0.512,2.064 -1.336,3.88 -2.472,5.448c-1.136,1.568 -2.616,2.816 -4.44,3.744c-1.824,0.928 -4.048,1.392 -6.672,1.392c-2.688,0 -4.952,-0.488 -6.792,-1.464c-1.84,-0.976 -3.32,-2.264 -4.44,-3.864c-1.12,-1.6 -1.92,-3.424 -2.4,-5.472c-0.48,-2.048 -0.72,-4.16 -0.72,-6.336l0,-17.184l3.312,0l0,17.184c0,1.792 0.176,3.536 0.528,5.232c0.352,1.696 0.952,3.2 1.8,4.512c0.848,1.312 1.976,2.368 3.384,3.168c1.408,0.8 3.168,1.2 5.28,1.2Z" style="fill-rule:nonzero;"/><rect x="420.712" y="33.634" width="3.36" height="34.08" style="fill-rule:nonzero;"/></g><path d="M199.299,524.504l0,34.08l-3.312,0l0,-15.936l-20.208,0l0,15.936l-3.36,0l0,-34.08l3.36,0l0,15.168l20.208,0l0,-15.168l3.312,0Z" style="fill-rule:nonzero;"/><path d="M217.635,559.064c-1.824,0 -3.496,-0.344 -5.016,-1.032c-1.52,-0.688 -2.84,-1.632 -3.96,-2.832c-1.12,-1.2 -1.992,-2.584 -2.616,-4.152c-0.624,-1.568 -0.936,-3.248 -0.936,-5.04c0,-1.76 0.312,-3.416 0.936,-4.968c0.624,-1.552 1.488,-2.912 2.592,-4.08c1.104,-1.168 2.424,-2.096 3.96,-2.784c1.536,-0.688 3.2,-1.032 4.992,-1.032c1.824,0 3.496,0.344 5.016,1.032c1.52,0.688 2.824,1.624 3.912,2.808c1.088,1.184 1.936,2.544 2.544,4.08c0.608,1.536 0.912,3.168 0.912,4.896c0,0.256 0,0.512 0,0.768c0,0.256 -0.016,0.432 -0.048,0.528l-21.408,0c0.096,1.344 0.408,2.584 0.936,3.72c0.528,1.136 1.208,2.12 2.04,2.952c0.832,0.832 1.784,1.48 2.856,1.944c1.072,0.464 2.216,0.696 3.432,0.696c0.8,0 1.6,-0.112 2.4,-0.336c0.8,-0.224 1.536,-0.528 2.208,-0.912c0.672,-0.384 1.28,-0.856 1.824,-1.416c0.544,-0.56 0.96,-1.176 1.248,-1.848l2.832,0.768c-0.384,0.928 -0.928,1.768 -1.632,2.52c-0.704,0.752 -1.52,1.408 -2.448,1.968c-0.928,0.56 -1.952,0.992 -3.072,1.296c-1.12,0.304 -2.288,0.456 -3.504,0.456Zm9.216,-14.304c-0.096,-1.344 -0.408,-2.568 -0.936,-3.672c-0.528,-1.104 -1.2,-2.056 -2.016,-2.856c-0.816,-0.8 -1.76,-1.424 -2.832,-1.872c-1.072,-0.448 -2.216,-0.672 -3.432,-0.672c-1.216,0 -2.368,0.224 -3.456,0.672c-1.088,0.448 -2.04,1.072 -2.856,1.872c-0.816,0.8 -1.472,1.76 -1.968,2.88c-0.496,1.12 -0.792,2.336 -0.888,3.648l18.384,0Z" style="fill-rule:nonzero;"/><path d="M235.155,523.544l3.264,0l0,29.376c0,0.928 0.256,1.656 0.768,2.184c0.512,0.528 1.232,0.792 2.16,0.792c0.352,0 0.768,-0.048 1.248,-0.144c0.48,-0.096 0.928,-0.224 1.344,-0.384l0.576,2.64c-0.608,0.256 -1.352,0.464 -2.232,0.624c-0.88,0.16 -1.64,0.24 -2.28,0.24c-1.504,0 -2.688,-0.424 -3.552,-1.272c-0.864,-0.848 -1.296,-2.04 -1.296,-3.576l0,-30.48Z" style="fill-rule:nonzero;"/><path d="M260.835,559.064c-2.112,0 -3.976,-0.536 -5.592,-1.608c-1.616,-1.072 -2.92,-2.424 -3.912,-4.056l0,15.408l-3.264,0l0,-35.232l2.928,0l0,4.848c1.024,-1.568 2.352,-2.84 3.984,-3.816c1.632,-0.976 3.408,-1.464 5.328,-1.464c1.728,0 3.312,0.36 4.752,1.08c1.44,0.72 2.688,1.68 3.744,2.88c1.056,1.2 1.88,2.584 2.472,4.152c0.592,1.568 0.888,3.184 0.888,4.848c0,1.76 -0.272,3.424 -0.816,4.992c-0.544,1.568 -1.32,2.944 -2.328,4.128c-1.008,1.184 -2.208,2.12 -3.6,2.808c-1.392,0.688 -2.92,1.032 -4.584,1.032Zm-0.912,-2.88c1.344,0 2.568,-0.288 3.672,-0.864c1.104,-0.576 2.048,-1.336 2.832,-2.28c0.784,-0.944 1.384,-2.016 1.8,-3.216c0.416,-1.2 0.624,-2.44 0.624,-3.72c0,-1.344 -0.24,-2.624 -0.72,-3.84c-0.48,-1.216 -1.136,-2.288 -1.968,-3.216c-0.832,-0.928 -1.816,-1.664 -2.952,-2.208c-1.136,-0.544 -2.36,-0.816 -3.672,-0.816c-0.832,0 -1.704,0.168 -2.616,0.504c-0.912,0.336 -1.76,0.784 -2.544,1.344c-0.784,0.56 -1.456,1.216 -2.016,1.968c-0.56,0.752 -0.904,1.544 -1.032,2.376l0,7.68c0.384,0.896 0.872,1.728 1.464,2.496c0.592,0.768 1.264,1.432 2.016,1.992c0.752,0.56 1.56,1 2.424,1.32c0.864,0.32 1.76,0.48 2.688,0.48Z" style="fill-rule:nonzero;"/><path d="M288.483,559.064c-1.824,0 -3.496,-0.344 -5.016,-1.032c-1.52,-0.688 -2.84,-1.632 -3.96,-2.832c-1.12,-1.2 -1.992,-2.584 -2.616,-4.152c-0.624,-1.568 -0.936,-3.248 -0.936,-5.04c0,-1.76 0.312,-3.416 0.936,-4.968c0.624,-1.552 1.488,-2.912 2.592,-4.08c1.104,-1.168 2.424,-2.096 3.96,-2.784c1.536,-0.688 3.2,-1.032 4.992,-1.032c1.824,0 3.496,0.344 5.016,1.032c1.52,0.688 2.824,1.624 3.912,2.808c1.088,1.184 1.936,2.544 2.544,4.08c0.608,1.536 0.912,3.168 0.912,4.896c0,0.256 0,0.512 0,0.768c0,0.256 -0.016,0.432 -0.048,0.528l-21.408,0c0.096,1.344 0.408,2.584 0.936,3.72c0.528,1.136 1.208,2.12 2.04,2.952c0.832,0.832 1.784,1.48 2.856,1.944c1.072,0.464 2.216,0.696 3.432,0.696c0.8,0 1.6,-0.112 2.4,-0.336c0.8,-0.224 1.536,-0.528 2.208,-0.912c0.672,-0.384 1.28,-0.856 1.824,-1.416c0.544,-0.56 0.96,-1.176 1.248,-1.848l2.832,0.768c-0.384,0.928 -0.928,1.768 -1.632,2.52c-0.704,0.752 -1.52,1.408 -2.448,1.968c-0.928,0.56 -1.952,0.992 -3.072,1.296c-1.12,0.304 -2.288,0.456 -3.504,0.456Zm9.216,-14.304c-0.096,-1.344 -0.408,-2.568 -0.936,-3.672c-0.528,-1.104 -1.2,-2.056 -2.016,-2.856c-0.816,-0.8 -1.76,-1.424 -2.832,-1.872c-1.072,-0.448 -2.216,-0.672 -3.432,-0.672c-1.216,0 -2.368,0.224 -3.456,0.672c-1.088,0.448 -2.04,1.072 -2.856,1.872c-0.816,0.8 -1.472,1.76 -1.968,2.88c-0.496,1.12 -0.792,2.336 -0.888,3.648l18.384,0Z" style="fill-rule:nonzero;"/><path d="M318.339,536.456c-2.208,0.064 -4.128,0.672 -5.76,1.824c-1.632,1.152 -2.784,2.736 -3.456,4.752l0,15.552l-3.264,0l0,-25.008l3.072,0l0,6c0.928,-1.92 2.176,-3.424 3.744,-4.512c1.568,-1.088 3.248,-1.632 5.04,-1.632c0.256,0 0.464,0.016 0.624,0.048l0,2.976Z" style="fill-rule:nonzero;"/><g><path d="M545.408,733.998l-30.978,-30.979l-228.86,0l-30.978,30.979l0,0.517l30.978,30.978l228.86,0l30.978,-30.978l0,-0.517Z" style="fill:#46aeda;"/><path d="M338.128,713.249l2.832,0l14.16,34.08l-3.552,0l-4.416,-10.656l-15.312,0l-4.368,10.656l-3.6,0l14.256,-34.08Zm8.256,20.784l-6.864,-16.848l-6.96,16.848l13.824,0Z" style="fill:#fff;fill-rule:nonzero;"/><path d="M359.488,712.289l3.264,0l0,29.376c0,0.928 0.256,1.656 0.768,2.184c0.512,0.528 1.232,0.792 2.16,0.792c0.352,0 0.768,-0.048 1.248,-0.144c0.48,-0.096 0.928,-0.224 1.344,-0.384l0.576,2.64c-0.608,0.256 -1.352,0.464 -2.232,0.624c-0.88,0.16 -1.64,0.24 -2.28,0.24c-1.504,0 -2.688,-0.424 -3.552,-1.272c-0.864,-0.848 -1.296,-2.04 -1.296,-3.576l0,-30.48Z" style="fill:#fff;fill-rule:nonzero;"/><path d="M382.432,747.665c-1.728,0 -3.304,-0.36 -4.728,-1.08c-1.424,-0.72 -2.656,-1.672 -3.696,-2.856c-1.04,-1.184 -1.848,-2.544 -2.424,-4.08c-0.576,-1.536 -0.864,-3.12 -0.864,-4.752c0,-1.728 0.28,-3.384 0.84,-4.968c0.56,-1.584 1.352,-2.968 2.376,-4.152c1.024,-1.184 2.248,-2.128 3.672,-2.832c1.424,-0.704 3,-1.056 4.728,-1.056c2.144,0 4,0.536 5.568,1.608c1.568,1.072 2.912,2.424 4.032,4.056l0,-5.232l2.928,0l0,25.104c0,1.728 -0.328,3.256 -0.984,4.584c-0.656,1.328 -1.536,2.44 -2.64,3.336c-1.104,0.896 -2.4,1.568 -3.888,2.016c-1.488,0.448 -3.064,0.672 -4.728,0.672c-2.88,0 -5.2,-0.512 -6.96,-1.536c-1.76,-1.024 -3.184,-2.4 -4.272,-4.128l2.016,-1.584c0.992,1.6 2.304,2.776 3.936,3.528c1.632,0.752 3.392,1.128 5.28,1.128c1.216,0 2.368,-0.168 3.456,-0.504c1.088,-0.336 2.04,-0.832 2.856,-1.488c0.816,-0.656 1.464,-1.488 1.944,-2.496c0.48,-1.008 0.72,-2.184 0.72,-3.528l0,-4.944c-0.96,1.6 -2.272,2.864 -3.936,3.792c-1.664,0.928 -3.408,1.392 -5.232,1.392Zm0.912,-2.736c0.96,0 1.904,-0.176 2.832,-0.528c0.928,-0.352 1.768,-0.824 2.52,-1.416c0.752,-0.592 1.384,-1.256 1.896,-1.992c0.512,-0.736 0.848,-1.488 1.008,-2.256l0,-7.728c-0.352,-0.896 -0.832,-1.728 -1.44,-2.496c-0.608,-0.768 -1.296,-1.424 -2.064,-1.968c-0.768,-0.544 -1.592,-0.976 -2.472,-1.296c-0.88,-0.32 -1.768,-0.48 -2.664,-0.48c-1.408,0 -2.664,0.296 -3.768,0.888c-1.104,0.592 -2.04,1.368 -2.808,2.328c-0.768,0.96 -1.352,2.048 -1.752,3.264c-0.4,1.216 -0.6,2.448 -0.6,3.696c0,1.344 0.24,2.624 0.72,3.84c0.48,1.216 1.144,2.28 1.992,3.192c0.848,0.912 1.832,1.632 2.952,2.16c1.12,0.528 2.336,0.792 3.648,0.792Z" style="fill:#fff;fill-rule:nonzero;"/><path d="M412.72,747.809c-1.824,0 -3.488,-0.344 -4.992,-1.032c-1.504,-0.688 -2.808,-1.624 -3.912,-2.808c-1.104,-1.184 -1.96,-2.56 -2.568,-4.128c-0.608,-1.568 -0.912,-3.216 -0.912,-4.944c0,-1.76 0.312,-3.424 0.936,-4.992c0.624,-1.568 1.488,-2.944 2.592,-4.128c1.104,-1.184 2.408,-2.128 3.912,-2.832c1.504,-0.704 3.152,-1.056 4.944,-1.056c1.792,0 3.448,0.352 4.968,1.056c1.52,0.704 2.832,1.648 3.936,2.832c1.104,1.184 1.968,2.56 2.592,4.128c0.624,1.568 0.936,3.232 0.936,4.992c0,1.728 -0.304,3.376 -0.912,4.944c-0.608,1.568 -1.464,2.944 -2.568,4.128c-1.104,1.184 -2.416,2.12 -3.936,2.808c-1.52,0.688 -3.192,1.032 -5.016,1.032Zm-9.072,-12.864c0,1.408 0.24,2.712 0.72,3.912c0.48,1.2 1.128,2.256 1.944,3.168c0.816,0.912 1.776,1.624 2.88,2.136c1.104,0.512 2.28,0.768 3.528,0.768c1.248,0 2.424,-0.264 3.528,-0.792c1.104,-0.528 2.072,-1.248 2.904,-2.16c0.832,-0.912 1.488,-1.976 1.968,-3.192c0.48,-1.216 0.72,-2.528 0.72,-3.936c0,-1.376 -0.24,-2.68 -0.72,-3.912c-0.48,-1.232 -1.136,-2.304 -1.968,-3.216c-0.832,-0.912 -1.8,-1.632 -2.904,-2.16c-1.104,-0.528 -2.28,-0.792 -3.528,-0.792c-1.248,0 -2.416,0.264 -3.504,0.792c-1.088,0.528 -2.048,1.256 -2.88,2.184c-0.832,0.928 -1.488,2.008 -1.968,3.24c-0.48,1.232 -0.72,2.552 -0.72,3.96Z" style="fill:#fff;fill-rule:nonzero;"/><path d="M430.768,712.289l3.264,0l0,29.376c0,0.928 0.256,1.656 0.768,2.184c0.512,0.528 1.232,0.792 2.16,0.792c0.352,0 0.768,-0.048 1.248,-0.144c0.48,-0.096 0.928,-0.224 1.344,-0.384l0.576,2.64c-0.608,0.256 -1.352,0.464 -2.232,0.624c-0.88,0.16 -1.64,0.24 -2.28,0.24c-1.504,0 -2.688,-0.424 -3.552,-1.272c-0.864,-0.848 -1.296,-2.04 -1.296,-3.576l0,-30.48Z" style="fill:#fff;fill-rule:nonzero;"/><path d="M443.68,747.329l0,-25.008l3.264,0l0,25.008l-3.264,0Zm0,-30.24l0,-4.8l3.264,0l0,4.8l-3.264,0Z" style="fill:#fff;fill-rule:nonzero;"/><path d="M460.432,747.809c-1.184,0 -2.28,-0.2 -3.288,-0.6c-1.008,-0.4 -1.888,-0.952 -2.64,-1.656c-0.752,-0.704 -1.336,-1.528 -1.752,-2.472c-0.416,-0.944 -0.624,-1.96 -0.624,-3.048c0,-1.088 0.256,-2.096 0.768,-3.024c0.512,-0.928 1.232,-1.728 2.16,-2.4c0.928,-0.672 2.032,-1.192 3.312,-1.56c1.28,-0.368 2.688,-0.552 4.224,-0.552c1.28,0 2.576,0.112 3.888,0.336c1.312,0.224 2.48,0.544 3.504,0.96l0,-2.256c0,-2.208 -0.624,-3.96 -1.872,-5.256c-1.248,-1.296 -2.976,-1.944 -5.184,-1.944c-1.28,0 -2.592,0.256 -3.936,0.768c-1.344,0.512 -2.704,1.248 -4.08,2.208l-1.152,-2.16c3.232,-2.176 6.368,-3.264 9.408,-3.264c3.136,0 5.6,0.88 7.392,2.64c1.792,1.76 2.688,4.192 2.688,7.296l0,11.28c0,0.896 0.4,1.344 1.2,1.344l0,2.88c-0.544,0.096 -0.96,0.144 -1.248,0.144c-0.832,0 -1.48,-0.208 -1.944,-0.624c-0.464,-0.416 -0.712,-0.992 -0.744,-1.728l-0.096,-1.968c-1.152,1.504 -2.6,2.656 -4.344,3.456c-1.744,0.8 -3.624,1.2 -5.64,1.2Zm0.768,-2.496c1.696,0 3.256,-0.32 4.68,-0.96c1.424,-0.64 2.504,-1.488 3.24,-2.544c0.288,-0.288 0.504,-0.6 0.648,-0.936c0.144,-0.336 0.216,-0.648 0.216,-0.936l0,-4.08c-1.088,-0.416 -2.216,-0.736 -3.384,-0.96c-1.168,-0.224 -2.36,-0.336 -3.576,-0.336c-2.304,0 -4.176,0.48 -5.616,1.44c-1.44,0.96 -2.16,2.224 -2.16,3.792c0,0.768 0.152,1.488 0.456,2.16c0.304,0.672 0.72,1.256 1.248,1.752c0.528,0.496 1.16,0.888 1.896,1.176c0.736,0.288 1.52,0.432 2.352,0.432Z" style="fill:#fff;fill-rule:nonzero;"/></g></svg>