<?xml version="1.0" encoding="UTF-8" standalone="no"?><!DOCTYPE svg PUBLIC "-//W3C//DTD SVG 1.1//EN" "http://www.w3.org/Graphics/SVG/1.1/DTD/svg11.dtd"><svg width="100%" height="100%" viewBox="0 0 1413 788" version="1.1" xmlns="http://www.w3.org/2000/svg" xmlns:xlink="http://www.w3.org/1999/xlink" xml:space="preserve" style="fill-rule:evenodd;clip-rule:evenodd;stroke-linecap:round;stroke-linejoin:round;stroke-miterlimit:1.41421;"><rect id="Mutli-queries---derive--simplified-" x="0" y="0.169" width="1413" height="787" style="fill:none;"/><g><path d="M292.705,332.792l0,59.541" style="fill:none;stroke:#8a63b3;stroke-width:6.5px;"/><path d="M294.842,399.306c-0.404,0.81 -1.232,1.321 -2.137,1.321c-0.905,0 -1.733,-0.511 -2.138,-1.321c-2.629,-5.257 -7.039,-14.078 -9.465,-18.93c-0.37,-0.741 -0.331,-1.621 0.105,-2.325c0.435,-0.705 1.204,-1.134 2.033,-1.134c5.058,0 13.871,0 18.93,0c0.828,0 1.598,0.429 2.033,1.134c0.435,0.704 0.475,1.584 0.105,2.325c-2.426,4.852 -6.837,13.673 -9.466,18.93Z" style="fill:#8a63b3;"/></g><circle id="helper" cx="292" cy="303.436" r="55.327" style="fill:#ebebeb;"/><circle id="helper1" cx="292.705" cy="435.304" r="32.722" style="fill:#ffe1af;"/><circle cx="305" cy="333.14" r="12.295" style="fill:#dbdbdb;"/><circle cx="453.995" cy="335.273" r="12.295" style="fill:#8191b1;stroke:#8191b1;stroke-width:5px;"/><circle cx="453.995" cy="445.374" r="12.295" style="fill:#fdbd57;stroke:#fdbd57;stroke-width:5px;"/><g><path d="M327.599,333.648l95.934,0" style="fill:none;stroke:#13c4a5;stroke-width:6.5px;"/><path d="M430.506,331.511c0.81,0.404 1.321,1.232 1.321,2.137c0,0.906 -0.511,1.733 -1.321,2.138c-6.319,3.159 -18.028,9.014 -23.841,11.92c-0.741,0.371 -1.62,0.331 -2.325,-0.104c-0.705,-0.436 -1.133,-1.205 -1.133,-2.033c0,-6.071 0,-17.77 0,-23.841c0,-0.828 0.428,-1.598 1.133,-2.033c0.705,-0.435 1.584,-0.475 2.325,-0.105c5.813,2.907 17.522,8.761 23.841,11.921Z" style="fill:#13c4a5;"/></g><g><path d="M453.995,359.754l0,59.541" style="fill:none;stroke:#f6624e;stroke-width:6.5px;"/><path d="M456.133,426.268c-0.405,0.809 -1.232,1.321 -2.138,1.321c-0.905,0 -1.732,-0.512 -2.137,-1.321c-3.16,-6.319 -9.014,-18.028 -11.92,-23.841c-0.371,-0.741 -0.331,-1.621 0.104,-2.325c0.436,-0.705 1.205,-1.134 2.033,-1.134c6.071,0 17.77,0 23.841,0c0.828,0 1.597,0.429 2.033,1.134c0.435,0.704 0.475,1.584 0.104,2.325c-2.906,5.813 -8.761,17.522 -11.92,23.841Z" style="fill:#f6624e;"/></g><g><path d="M938.126,333.648l64.541,0" style="fill:none;stroke:#13c4a5;stroke-width:6.5px;"/><path d="M1009.64,331.511c0.81,0.404 1.321,1.232 1.321,2.137c0,0.906 -0.511,1.733 -1.321,2.138c-6.319,3.159 -18.028,9.014 -23.84,11.92c-0.741,0.371 -1.621,0.331 -2.326,-0.104c-0.704,-0.436 -1.133,-1.205 -1.133,-2.033c0,-6.071 0,-17.77 0,-23.841c0,-0.828 0.429,-1.598 1.133,-2.033c0.705,-0.435 1.585,-0.475 2.326,-0.105c5.812,2.907 17.521,8.761 23.84,11.921Z" style="fill:#13c4a5;"/></g><g><path d="M501.184,392.648l64.541,0" style="fill:none;stroke:#46aeda;stroke-width:6.5px;"/><path d="M572.698,390.511c0.81,0.404 1.321,1.232 1.321,2.137c0,0.906 -0.511,1.733 -1.321,2.138c-6.319,3.159 -18.028,9.014 -23.841,11.92c-0.74,0.371 -1.62,0.331 -2.325,-0.104c-0.704,-0.436 -1.133,-1.205 -1.133,-2.033c0,-6.071 0,-17.77 0,-23.841c0,-0.828 0.429,-1.598 1.133,-2.033c0.705,-0.435 1.585,-0.475 2.325,-0.105c5.813,2.907 17.522,8.761 23.841,11.921Z" style="fill:#46aeda;"/></g><g><path d="M759.789,392.648l-48.54,0" style="fill:none;stroke:#46aeda;stroke-width:6.5px;"/></g><g><path d="M938.126,444.72l64.541,0" style="fill:none;stroke:#13c4a5;stroke-width:6.5px;"/><path d="M1009.64,442.582c0.81,0.405 1.321,1.232 1.321,2.138c0,0.905 -0.511,1.733 -1.321,2.137c-6.319,3.16 -18.028,9.014 -23.84,11.921c-0.741,0.37 -1.621,0.33 -2.326,-0.105c-0.704,-0.435 -1.133,-1.205 -1.133,-2.033c0,-6.071 0,-17.77 0,-23.841c0,-0.828 0.429,-1.597 1.133,-2.033c0.705,-0.435 1.585,-0.475 2.326,-0.104c5.812,2.906 17.521,8.761 23.84,11.92Z" style="fill:#13c4a5;"/></g><rect x="816.529" y="317.861" width="106.575" height="31.575" style="fill:#8191b1;stroke:#8191b1;stroke-width:6.5px;"/><rect x="816.529" y="428.266" width="106.575" height="31.575" style="fill:#fdbd57;stroke:#fdbd57;stroke-width:6.5px;"/><path d="M487,445.374l14,0l0,-111.182l-14,0" style="fill:none;stroke:#46aeda;stroke-width:6.5px;"/><path d="M773.973,444.83l-14,0l0,-111.182l14,0" style="fill:none;stroke:#46aeda;stroke-width:6.5px;"/><text x="586.028px" y="398.732px" style="font-family:'Ubuntu-Medium', 'Ubuntu', sans-serif;font-weight:500;font-size:36px;fill:#1f3b5d;">algolia</text><path d="M801.273,331.511c0.809,0.404 1.321,1.232 1.321,2.137c0,0.906 -0.512,1.733 -1.321,2.138c-6.319,3.159 -18.028,9.014 -23.841,11.92c-0.741,0.371 -1.621,0.331 -2.325,-0.104c-0.705,-0.436 -1.134,-1.205 -1.134,-2.033c0,-6.071 0,-17.77 0,-23.841c0,-0.828 0.429,-1.598 1.134,-2.033c0.704,-0.435 1.584,-0.475 2.325,-0.105c5.813,2.907 17.522,8.761 23.841,11.921Z" style="fill:#46aeda;"/><path d="M801.273,443.295c0.809,0.405 1.321,1.233 1.321,2.138c0,0.905 -0.512,1.733 -1.321,2.138c-6.319,3.159 -18.028,9.014 -23.841,11.92c-0.741,0.371 -1.621,0.331 -2.325,-0.105c-0.705,-0.435 -1.134,-1.204 -1.134,-2.033c0,-6.07 0,-17.769 0,-23.84c0,-0.828 0.429,-1.598 1.134,-2.033c0.704,-0.436 1.584,-0.475 2.325,-0.105c5.813,2.906 17.522,8.761 23.841,11.92Z" style="fill:#46aeda;"/><g><circle cx="1038.91" cy="333.648" r="11.545" style="fill:#f6624e;"/><circle cx="1038.91" cy="444.72" r="11.545" style="fill:#f6624e;"/></g><g transform="matrix(1,0,0,1,-230.04,2.39851)"><text x="382.306px" y="255.878px" style="font-family:'Raleway-Regular', 'Raleway', sans-serif;font-size:36px;">M<tspan x="413.698px " y="255.878px ">a</tspan>in</text><text x="348.934px" y="291.878px" style="font-family:'Raleway-Regular', 'Raleway', sans-serif;font-size:36px;">H<tspan x="375.25px " y="291.878px ">e</tspan>lper</text></g><g transform="matrix(1,0,0,1,-221.94,187.077)"><text x="340.834px" y="255.878px" style="font-family:'Raleway-Regular', 'Raleway', sans-serif;font-size:36px;">Deriv<tspan x="426.73px " y="255.878px ">e</tspan>d</text><text x="357.034px" y="291.878px" style="font-family:'Raleway-Regular', 'Raleway', sans-serif;font-size:36px;">H<tspan x="383.35px " y="291.878px ">e</tspan>lper</text></g><g><path d="M452.485,306.442l-60.335,-133.364l-35.272,0" style="fill:none;stroke:#828282;stroke-width:3px;"/><g transform="matrix(1,0,0,1,-1499.66,-128.527)"><text x="1770.44px" y="268.245px" style="font-family:'Raleway-Regular', 'Raleway', sans-serif;font-size:36px;fill:#828282;">main</text><text x="1770.19px" y="308.745px" style="font-family:'Raleway-Regular', 'Raleway', sans-serif;font-size:36px;fill:#828282;">sta<tspan x="1819.25px 1830.85px " y="308.745px 308.745px ">te</tspan></text></g></g><g><path d="M867.749,306.442l-60.336,-133.364l-35.271,0" style="fill:none;stroke:#828282;stroke-width:3px;"/><g transform="matrix(1,0,0,1,-1084.39,-128.527)"><text x="1770.44px" y="268.245px" style="font-family:'Raleway-Regular', 'Raleway', sans-serif;font-size:36px;fill:#828282;">main</text><text x="1740.85px" y="308.745px" style="font-family:'Raleway-Regular', 'Raleway', sans-serif;font-size:36px;fill:#828282;">r<tspan x="1752.55px " y="308.745px ">e</tspan>sults</text></g></g><g><path d="M452.485,472.026l-60.335,111.022l-35.272,0" style="fill:none;stroke:#828282;stroke-width:3px;"/><g transform="matrix(1,0,0,1,-1453.22,320.892)"><text x="1679.47px" y="268.245px" style="font-family:'Raleway-Regular', 'Raleway', sans-serif;font-size:36px;fill:#828282;">deriv<tspan x="1762.01px " y="268.245px ">e</tspan>d</text><text x="1679.47px" y="308.745px" style="font-family:'Raleway-Regular', 'Raleway', sans-serif;font-size:36px;fill:#828282;">sta<tspan x="1728.53px 1740.13px " y="308.745px 308.745px ">te</tspan></text></g></g><g><path d="M867.749,472.026l-60.336,111.022l-35.271,0" style="fill:none;stroke:#828282;stroke-width:3px;"/><g transform="matrix(1,0,0,1,-1037.95,320.892)"><text x="1679.47px" y="268.245px" style="font-family:'Raleway-Regular', 'Raleway', sans-serif;font-size:36px;fill:#828282;">deriv<tspan x="1762.01px " y="268.245px ">e</tspan>d</text><text x="1679.47px" y="308.745px" style="font-family:'Raleway-Regular', 'Raleway', sans-serif;font-size:36px;fill:#828282;">r<tspan x="1691.17px " y="308.745px ">e</tspan>sults</text></g></g><g transform="matrix(0.626637,0,0,0.626637,-886.788,216.766)"><text x="1679.47px" y="268.245px" style="font-family:'Raleway-Bold', 'Raleway', sans-serif;font-weight:700;font-size:36px;fill:#828282;">.deriv<tspan x="1774.58px " y="268.245px ">e</tspan>(</text><text x="1807.3px" y="268.245px" style="font-family:'Raleway-Bold', 'Raleway', sans-serif;font-weight:700;font-size:36px;fill:#f6624e;">fn</text><text x="1842.37px" y="268.245px" style="font-family:'Raleway-Bold', 'Raleway', sans-serif;font-weight:700;font-size:36px;fill:#828282;">)</text></g><g transform="matrix(1,0,0,1,-4324,-865.806)"><text x="5408.2px" y="1194.03px" style="font-family:'Raleway-Regular', 'Raleway', sans-serif;font-size:36px;fill:#828282;">Fir<tspan x="5448.95px " y="1194.03px ">e</tspan>d on the</text><text x="5408.2px" y="1222.48px" style="font-family:'Raleway-Bold', 'Raleway', sans-serif;font-weight:700;font-size:36px;fill:#828282;">main</text><text x="5502.48px" y="1222.48px" style="font-family:'Raleway-Regular', 'Raleway', sans-serif;font-size:36px;fill:#828282;">helper</text></g><g transform="matrix(1,0,0,1,-4324,-751.076)"><text x="5408.2px" y="1194.03px" style="font-family:'Raleway-Regular', 'Raleway', sans-serif;font-size:36px;fill:#828282;">Fir<tspan x="5448.95px " y="1194.03px ">e</tspan>d on the</text><text x="5408.2px" y="1222.48px" style="font-family:'Raleway-Bold', 'Raleway', sans-serif;font-weight:700;font-size:36px;fill:#828282;">deriv<tspan x="5495.21px " y="1222.48px ">e</tspan>d</text><text x="5549.18px" y="1222.48px" style="font-family:'Raleway-Regular', 'Raleway', sans-serif;font-size:36px;fill:#828282;">helper</text></g><text x="415.991px" y="390.611px" style="font-family:'Raleway-Bold', 'Raleway', sans-serif;font-weight:700;font-size:22.559px;fill:#f6624e;">fn</text></svg>