<?xml version="1.0" encoding="UTF-8" standalone="no"?><!DOCTYPE svg PUBLIC "-//W3C//DTD SVG 1.1//EN" "http://www.w3.org/Graphics/SVG/1.1/DTD/svg11.dtd"><svg width="100%" height="100%" viewBox="0 0 800 801" version="1.1" xmlns="http://www.w3.org/2000/svg" xmlns:xlink="http://www.w3.org/1999/xlink" xml:space="preserve" style="fill-rule:evenodd;clip-rule:evenodd;stroke-linecap:round;stroke-linejoin:round;stroke-miterlimit:1.41421;"><g><path d="M311.982,487.053c-74.063,-21.896 -125.634,-70.558 -125.634,-127.015c0,-56.457 51.571,-105.119 125.634,-127.015" style="fill:none;stroke-width:12px;stroke:#46aeda;"/><path d="M488.018,233.023c74.063,21.896 125.634,70.558 125.634,127.015c0,56.457 -51.571,105.119 -125.634,127.015" style="fill:none;stroke-width:12px;stroke:#46aeda;"/></g><g><circle cx="446.973" cy="360.493" r="11.545" style="fill:#f6624e;"/><path d="M458.518,348.948l60.336,-61.022l103.271,0" style="fill:none;stroke-width:3px;stroke:#000;"/><text x="625.678px" y="291.502px" style="font-family:'Raleway-Regular', 'Raleway', sans-serif;font-size:36px;fill:#000;">change</text></g><g><circle cx="492.973" cy="523.801" r="11.545" style="fill:#f6624e;"/><path d="M504.518,535.346l43.42,42.919l43.256,-1.167" style="fill:none;stroke-width:3px;stroke:#000;"/><text x="593.676px" y="581.398px" style="font-family:'Raleway-Regular', 'Raleway', sans-serif;font-size:36px;fill:#000;">sear<tspan x="663.66px " y="581.398px ">c</tspan>h</text></g><g><path d="M252.501,175.183l-38.022,-36.026l-43.256,1.166" style="fill:none;stroke-width:3px;stroke:#000;"/><g transform="matrix(1,0,0,1,-1609.06,-126.731)"><text x="1679.47px" y="268.245px" style="font-family:'Raleway-Regular', 'Raleway', sans-serif;font-size:36px;fill:#000;">r<tspan x="1691.17px " y="268.245px ">e</tspan>sult</text><text x="1679.47px" y="304.245px" style="font-family:'Raleway-Regular', 'Raleway', sans-serif;font-size:36px;fill:#000;">or</text><text x="1679.47px" y="340.245px" style="font-family:'Raleway-Regular', 'Raleway', sans-serif;font-size:36px;fill:#000;">err<tspan x="1724.93px " y="340.245px ">o</tspan>r</text></g><circle cx="264.047" cy="186.728" r="11.545" style="fill:#f6624e;"/></g><g><path d="M400,279.263l0,130.474" style="fill:none;stroke-width:12px;stroke:#13c4a5;"/><path d="M404.072,453.168c-0.771,1.542 -2.348,2.516 -4.072,2.516c-1.724,0 -3.301,-0.974 -4.072,-2.516c-5.095,-10.19 -13.72,-27.441 -18.421,-36.842c-0.706,-1.411 -0.63,-3.087 0.199,-4.429c0.83,-1.343 2.295,-2.16 3.873,-2.16c9.804,0 27.038,0 36.842,0c1.578,0 3.043,0.817 3.873,2.16c0.829,1.342 0.905,3.018 0.199,4.429c-4.701,9.401 -13.326,26.652 -18.421,36.842Z" style="fill:#13c4a5;"/></g><g><path d="M373.373,687.926l0,-27.954" style="fill:none;stroke-width:12px;stroke:#8a63b3;"/><path d="M377.445,616.542c-0.771,-1.542 -2.348,-2.517 -4.072,-2.517c-1.725,0 -3.301,0.975 -4.072,2.517c-5.095,10.19 -13.721,27.44 -18.421,36.842c-0.706,1.411 -0.631,3.087 0.199,4.429c0.83,1.342 2.295,2.159 3.873,2.159c9.803,0 27.038,0 36.842,0c1.577,0 3.043,-0.817 3.872,-2.159c0.83,-1.342 0.905,-3.018 0.2,-4.429c-4.701,-9.402 -13.326,-26.652 -18.421,-36.842Z" style="fill:#8a63b3;"/></g><g><path d="M425.787,620.208l0,27.954" style="fill:none;stroke-width:12px;stroke:#8a63b3;"/><path d="M429.859,691.592c-0.771,1.543 -2.347,2.517 -4.072,2.517c-1.724,0 -3.301,-0.974 -4.072,-2.517c-5.095,-10.19 -13.72,-27.44 -18.421,-36.841c-0.705,-1.412 -0.63,-3.088 0.2,-4.43c0.829,-1.342 2.295,-2.159 3.872,-2.159c9.804,0 27.039,0 36.842,0c1.578,0 3.043,0.817 3.873,2.159c0.83,1.342 0.905,3.018 0.199,4.43c-4.7,9.401 -13.326,26.651 -18.421,36.841Z" style="fill:#8a63b3;"/></g><rect x="332.283" y="78.946" width="135.435" height="184.698" style="fill:#ebebeb;"/><circle cx="400" cy="540.68" r="67.717" style="fill:#ebebeb;"/><path d="M476.803,497.361c-1.721,0.114 -3.358,-0.754 -4.23,-2.242c-0.871,-1.488 -0.827,-3.341 0.114,-4.786c6.218,-9.546 16.745,-25.707 22.482,-34.514c0.861,-1.322 2.345,-2.104 3.923,-2.066c1.577,0.037 3.023,0.889 3.82,2.25c4.954,8.46 13.664,23.332 18.619,31.791c0.797,1.362 0.833,3.039 0.094,4.433c-0.739,1.394 -2.147,2.306 -3.722,2.411c-10.488,0.695 -29.732,1.97 -41.1,2.723Z" style="fill:#46aeda;"/><path d="M317.617,222.169c1.72,-0.114 3.358,0.754 4.229,2.242c0.872,1.488 0.828,3.341 -0.113,4.786c-6.218,9.546 -16.745,25.707 -22.482,34.514c-0.861,1.322 -2.346,2.104 -3.923,2.067c-1.577,-0.038 -3.023,-0.889 -3.82,-2.251c-4.955,-8.459 -13.665,-23.331 -18.619,-31.791c-0.797,-1.361 -0.833,-3.039 -0.094,-4.433c0.739,-1.394 2.147,-2.306 3.722,-2.41c10.488,-0.695 29.732,-1.97 41.1,-2.724Z" style="fill:#46aeda;"/><g><g id="UI"><rect x="341.29" y="89.98" width="118.167" height="18.186" style="fill:#e0e0e0;"/><rect x="387.423" y="116.268" width="72.034" height="15.523" style="fill:#e0e0e0;"/><rect x="387.423" y="141.049" width="72.034" height="15.523" style="fill:#e0e0e0;"/><rect x="387.423" y="165.829" width="72.034" height="15.523" style="fill:#e0e0e0;"/><rect x="387.423" y="190.61" width="72.034" height="15.523" style="fill:#e0e0e0;"/><rect x="387.423" y="215.391" width="72.034" height="15.523" style="fill:#e0e0e0;"/><rect x="341.29" y="116.268" width="36.135" height="136.35" style="fill:#e0e0e0;"/></g><text x="380.2px" y="67.714px" style="font-family:'Raleway-Regular', 'Raleway', sans-serif;font-size:48px;fill:#000;">UI</text></g><text x="168.147px" y="558.584px" style="font-family:'Raleway-Regular', 'Raleway', sans-serif;font-size:48px;fill:#000;">H<tspan x="203.235px " y="558.584px ">e</tspan>lper</text><g><path d="M545.408,733.998l-30.978,-30.979l-228.86,0l-30.978,30.979l0,0.517l30.978,30.978l228.86,0l30.978,-30.978l0,-0.517Z" style="fill:#46aeda;"/><text x="323.296px" y="747.329px" style="font-family:'Raleway-Regular', 'Raleway', sans-serif;font-size:48px;fill:#fff;">Algolia</text></g></svg>