<?xml version="1.0" encoding="UTF-8" standalone="no"?><!DOCTYPE svg PUBLIC "-//W3C//DTD SVG 1.1//EN" "http://www.w3.org/Graphics/SVG/1.1/DTD/svg11.dtd"><svg width="100%" height="100%" viewBox="0 0 801 800" version="1.1" xmlns="http://www.w3.org/2000/svg" xmlns:xlink="http://www.w3.org/1999/xlink" xml:space="preserve" style="fill-rule:evenodd;clip-rule:evenodd;stroke-linecap:round;stroke-linejoin:round;stroke-miterlimit:1.41421;"><rect x="332.747" y="113.453" width="135.435" height="184.698" style="fill:#ebebeb;"/><circle cx="400.465" cy="619.423" r="67.124" style="fill:#ebebeb;"/><g id="UI"><rect x="341.754" y="124.487" width="118.167" height="18.186" style="fill:#e0e0e0;"/><rect x="387.887" y="150.774" width="72.034" height="15.523" style="fill:#e0e0e0;"/><rect x="387.887" y="175.555" width="72.034" height="15.523" style="fill:#e0e0e0;"/><rect x="387.887" y="200.336" width="72.034" height="15.523" style="fill:#e0e0e0;"/><rect x="387.887" y="225.117" width="72.034" height="15.523" style="fill:#e0e0e0;"/><rect x="387.887" y="249.897" width="72.034" height="15.523" style="fill:#e0e0e0;"/><rect x="341.754" y="150.774" width="36.135" height="136.35" style="fill:#e0e0e0;"/></g><text x="380.665px" y="102.221px" style="font-family:'Raleway-Regular', 'Raleway', sans-serif;font-size:48px;fill:#000;">UI</text><text x="324.985px" y="733.513px" style="font-family:'Raleway-Regular', 'Raleway', sans-serif;font-size:48px;fill:#000;">H<tspan x="360.073px " y="733.513px ">e</tspan>lper</text><g><path d="M367.542,317.935l0,213.116" style="fill:none;stroke-width:12px;stroke:#13c4a5;"/><path d="M371.614,544.155c-0.771,1.543 -2.348,2.517 -4.072,2.517c-1.725,0 -3.301,-0.974 -4.072,-2.517c-5.095,-10.189 -13.721,-27.44 -18.421,-36.841c-0.706,-1.412 -0.63,-3.088 0.199,-4.43c0.83,-1.342 2.295,-2.159 3.873,-2.159c9.803,0 27.038,0 36.842,0c1.577,0 3.043,0.817 3.872,2.159c0.83,1.342 0.905,3.018 0.2,4.43c-4.701,9.401 -13.326,26.652 -18.421,36.841Z" style="fill:#13c4a5;"/></g><g><path d="M426.148,317.935l0,213.116" style="fill:none;stroke-width:12px;stroke:#13c4a5;"/><path d="M430.22,544.155c-0.771,1.543 -2.348,2.517 -4.072,2.517c-1.725,0 -3.301,-0.974 -4.072,-2.517c-5.095,-10.189 -13.721,-27.44 -18.421,-36.841c-0.706,-1.412 -0.63,-3.088 0.199,-4.43c0.83,-1.342 2.295,-2.159 3.873,-2.159c9.803,0 27.038,0 36.842,0c1.577,0 3.043,0.817 3.872,2.159c0.83,1.342 0.905,3.018 0.2,4.43c-4.701,9.401 -13.326,26.652 -18.421,36.841Z" style="fill:#13c4a5;"/></g></svg>