<?xml version="1.0" encoding="UTF-8" standalone="no"?><!DOCTYPE svg PUBLIC "-//W3C//DTD SVG 1.1//EN" "http://www.w3.org/Graphics/SVG/1.1/DTD/svg11.dtd"><svg width="100%" height="100%" viewBox="0 0 801 800" version="1.1" xmlns="http://www.w3.org/2000/svg" xmlns:xlink="http://www.w3.org/1999/xlink" xml:space="preserve" style="fill-rule:evenodd;clip-rule:evenodd;stroke-linecap:round;stroke-linejoin:round;stroke-miterlimit:1.41421;"><clipPath id="_clip1"><rect id="State-is-immutable" x="0.185" y="0" width="800" height="800"/></clipPath><g clip-path="url(#_clip1)"><circle id="helper" cx="400.185" cy="406.221" r="193.327" style="fill:#ebebeb;"/><circle cx="328.977" cy="513.525" r="42.963" style="fill:#dbdbdb;"/><g><path d="M447.661,458.096l-79.901,40.209" style="fill:#fff;stroke-width:6.5px;stroke:#fff;"/><path d="M361.881,499.284c-0.448,0.6 -0.518,1.402 -0.181,2.071c0.336,0.669 1.022,1.09 1.771,1.088c4.948,-0.013 13.324,-0.034 17.889,-0.046c0.685,-0.002 1.32,-0.358 1.679,-0.942c0.359,-0.584 0.39,-1.312 0.082,-1.924c-1.914,-3.803 -5.279,-10.489 -7.193,-14.293c-0.308,-0.612 -0.911,-1.021 -1.593,-1.08c-0.683,-0.06 -1.348,0.238 -1.758,0.787c-2.729,3.659 -7.737,10.373 -10.696,14.339Z" style="fill:#fff;"/></g><circle cx="467.767" cy="449.184" r="42.963" style="fill:#dbdbdb;"/><g><path d="M359.527,370.744l71.014,54.387" style="fill:#fff;stroke-width:6.5px;stroke:#fff;"/><path d="M436.135,427.188c0.328,0.673 0.247,1.474 -0.208,2.068c-0.455,0.595 -1.208,0.881 -1.943,0.74c-4.859,-0.934 -13.084,-2.516 -17.567,-3.378c-0.673,-0.129 -1.231,-0.598 -1.475,-1.238c-0.243,-0.64 -0.138,-1.361 0.279,-1.905c2.588,-3.381 7.139,-9.323 9.728,-12.703c0.417,-0.544 1.086,-0.834 1.767,-0.765c0.682,0.068 1.28,0.485 1.58,1.101c2,4.103 5.671,11.632 7.839,16.08Z" style="fill:#fff;"/></g><circle cx="354.764" cy="373.849" r="42.963" style="fill:#dbdbdb;"/><text x="251.145px" y="733.513px" style="font-family:'Raleway-Regular', 'Raleway', sans-serif;font-size:48px;fill:#000;">Sear<tspan x="350.217px " y="733.513px ">c</tspan>h sta<tspan x="482.217px 497.673px " y="733.513px 733.513px ">te</tspan>s</text><g><path d="M354.764,-177.006l0,468.523" style="fill:none;stroke-width:12px;stroke:#13c4a5;"/><path d="M358.836,321.932c-0.771,1.543 -2.347,2.517 -4.072,2.517c-1.724,0 -3.301,-0.974 -4.072,-2.517c-5.095,-10.189 -13.72,-27.44 -18.421,-36.841c-0.705,-1.412 -0.63,-3.088 0.199,-4.43c0.83,-1.342 2.295,-2.159 3.873,-2.159c9.804,0 27.039,0 36.842,0c1.578,0 3.043,0.817 3.873,2.159c0.829,1.342 0.905,3.018 0.199,4.43c-4.701,9.401 -13.326,26.652 -18.421,36.841Z" style="fill:#13c4a5;"/></g><g><path d="M474.897,-39.709l0,418.46" style="fill:#13c4a5;stroke-width:12px;stroke:#13c4a5;"/><path d="M478.969,391.856c-0.771,1.542 -2.348,2.516 -4.072,2.516c-1.725,0 -3.301,-0.974 -4.072,-2.516c-5.095,-10.19 -13.721,-27.441 -18.421,-36.842c-0.706,-1.411 -0.63,-3.087 0.199,-4.429c0.83,-1.343 2.295,-2.16 3.873,-2.16c9.803,0 27.038,0 36.842,0c1.578,0 3.043,0.817 3.872,2.16c0.83,1.342 0.905,3.018 0.2,4.429c-4.701,9.401 -13.326,26.652 -18.421,36.842Z" style="fill:#13c4a5;"/></g><text x="13.264px" y="282.792px" style="font-family:'Raleway-Regular', 'Raleway', sans-serif;font-size:36px;fill:#000;">Initial<tspan x="99.232px " y="282.792px "> </tspan>sta<tspan x="157.48px 169.072px " y="282.792px 282.792px ">te</tspan></text><text x="595.527px" y="627.609px" style="font-family:'Raleway-Regular', 'Raleway', sans-serif;font-size:36px;fill:#000;">Final<tspan x="673.863px " y="627.609px "> </tspan>sta<tspan x="732.111px 743.703px " y="627.609px 627.609px ">te</tspan></text><path d="M328.977,357.628l-84.13,-84.13l-46.441,0" style="fill:none;stroke-width:3px;stroke:#000;"/><path d="M348.011,540.294l77.567,77.567l159.915,0" style="fill:none;stroke-width:3px;stroke:#000;"/></g></svg>