<svg width="65" height="70" viewBox="0 0 65 70" xmlns="http://www.w3.org/2000/svg"><title>icon-widget-pricerange</title><desc>Created with Sketch.</desc><defs><linearGradient x1="42.966%" y1="14.059%" x2="85.153%" y2="110.153%" id="a"><stop stop-color="#2CA5C3" offset="0%"/><stop stop-color="#136B90" offset="100%"/></linearGradient><linearGradient x1="10.934%" y1="-27.347%" x2="73.434%" y2="79.684%" id="b"><stop stop-color="#51C8E5" offset="0%"/><stop stop-color="#2897C5" offset="100%"/></linearGradient></defs><g fill="none" fill-rule="evenodd"><g transform="translate(.613 .335)"><rect fill="url(#a)" y="5" width="64" height="64" rx="4"/><rect fill="url(#b)" width="64" height="64" rx="4"/></g><path d="M33.07 19.48v2.392c.96.154 1.745.472 2.356.952.61.48 1.192 1.216 1.745 2.21l-2.38 1.33c-.714-1.302-1.65-1.953-2.806-1.953-.716 0-1.31.213-1.782.636-.47.424-.707.953-.707 1.587 0 .578.19 1.058.574 1.44.373.375 1.13.82 2.27 1.33.984.45 1.8.87 2.44 1.265.643.394 1.127.775 1.45 1.14.92.994 1.38 2.194 1.38 3.602 0 1.383-.413 2.603-1.243 3.66-.822 1.05-1.92 1.76-3.296 2.125v2.527h-2.135V41.27c-1.595-.262-2.812-.81-3.65-1.65-.84-.838-1.457-2.132-1.856-3.88l2.685-.563c.366 1.237.814 2.12 1.343 2.65.553.504 1.29.756 2.21.756.894 0 1.643-.29 2.245-.867.594-.57.89-1.306.89-2.21 0-.805-.247-1.452-.743-1.94-.254-.236-.626-.503-1.118-.8-.493-.297-1.12-.62-1.886-.97-1.58-.708-2.617-1.36-3.113-1.953-.79-.887-1.184-1.95-1.184-3.186 0-.586.09-1.13.28-1.636.186-.503.456-.96.81-1.37.354-.41.792-.768 1.313-1.07.52-.3 1.11-.537 1.77-.707V19.48h2.136z" fill="#fff"/></g></svg>