<svg width="35" height="35" viewBox="0 0 35 35" xmlns="http://www.w3.org/2000/svg"><title>icon-widget</title><desc>Created with Sketch.</desc><g transform="translate(-35 -59) translate(20 44)" fill="none" fill-rule="evenodd"><path d="M0 0h64v64H0z"/><path d="M17 17.995v29.01c0 .552.444.995.995.995h29.01c.552 0 .995-.444.995-.995v-29.01c0-.552-.444-.995-.995-.995h-29.01c-.552 0-.995.444-.995.995zm-2 .784c0-2.09 1.688-3.78 3.78-3.78h27.44c2.09 0 3.78 1.687 3.78 3.78v27.44c0 2.09-1.688 3.78-3.78 3.78H18.78C16.69 50 15 48.31 15 46.22V18.78z" fill="#fff"/><circle fill="#fff" cx="21" cy="21" r="2"/><circle fill="#fff" cx="44" cy="21" r="2"/><circle fill="#fff" cx="21" cy="44" r="2"/><circle fill="#fff" cx="44" cy="44" r="2"/></g></svg>