<svg width="113" height="36" viewBox="0 0 113 36" xmlns="http://www.w3.org/2000/svg"><title>logo-algolia</title><desc>Created with Sketch.</desc><g fill="none" fill-rule="evenodd"><path d="M67.915 13.975l-1.47 5.24 4.738-2.61c-.688-1.268-1.863-2.227-3.268-2.63zM58.8 9.697c-.71-.716-1.86-.715-2.57 0l-.32.324c-.71.718-.71 1.878 0 2.594l.342.344c.727-1.178 1.654-2.218 2.73-3.074L58.8 9.7zm11.093-1.793c.002-.04.01-.077.01-.118V6.87c0-1.01-.812-1.83-1.815-1.832H64.91c-1.002 0-1.815.82-1.815 1.832v.9c1.012-.285 2.076-.442 3.178-.442 1.262 0 2.478.204 3.62.576" fill="#46AEDA"/><path d="M66.4 12.064c3.985 0 7.226 3.256 7.226 7.258 0 4.002-3.24 7.258-7.225 7.258-3.98 0-7.222-3.256-7.222-7.258 0-4.002 3.242-7.258 7.225-7.258zm-10.114 7.258c0 5.61 4.528 10.16 10.115 10.16 5.59 0 10.12-4.55 10.12-10.16C76.517 13.71 71.99 9.16 66.4 9.16c-5.586 0-10.114 4.55-10.114 10.162z" fill="#46AEDA"/><path d="M20.11 28.933c-.418-1.114-.81-2.208-1.177-3.284-.368-1.08-.748-2.174-1.14-3.287H6.248L3.932 28.93H.218c.98-2.72 1.9-5.237 2.758-7.55.858-2.312 1.697-4.507 2.52-6.585.82-2.078 1.635-4.062 2.444-5.954.808-1.89 1.654-3.765 2.537-5.62h3.272c.88 1.855 1.725 3.73 2.534 5.62.81 1.893 1.623 3.877 2.445 5.955.82 2.078 1.66 4.273 2.52 6.585.856 2.314 1.776 4.83 2.756 7.55H20.11zm-3.346-9.535c-.785-2.152-1.563-4.236-2.335-6.252-.775-2.016-1.578-3.95-2.41-5.806-.86 1.855-1.674 3.79-2.446 5.806s-1.54 4.1-2.298 6.252h9.486zm16.214 9.905c-2.108-.05-3.603-.507-4.485-1.373-.883-.865-1.324-2.213-1.324-4.044V.736l3.416-.594V23.33c0 .57.05 1.04.147 1.41.1.37.258.668.478.89.22.223.516.39.884.5.368.113.82.206 1.36.28l-.478 2.893M49.266 27.003c-.294.2-.864.45-1.71.76-.845.31-1.832.465-2.96.465-1.152 0-2.236-.186-3.253-.557-1.017-.37-1.906-.943-2.666-1.722-.76-.78-1.36-1.75-1.802-2.912-.44-1.163-.662-2.548-.662-4.156 0-1.41.208-2.703.625-3.878.417-1.173 1.024-2.188 1.82-3.04.797-.854 1.77-1.522 2.924-2.004 1.152-.483 2.45-.724 3.897-.724 1.59 0 2.98.118 4.17.353s2.19.45 2.997.65V27.45c0 2.968-.76 5.12-2.28 6.454-1.52 1.336-3.825 2.003-6.913 2.003-1.2 0-2.335-.098-3.4-.295-1.067-.198-1.993-.432-2.777-.704l.625-3.005c.686.272 1.526.514 2.52.724.99.21 2.027.315 3.105.315 2.035 0 3.5-.41 4.394-1.225.896-.816 1.343-2.115 1.343-3.896v-.815zm-1.415-14.6c-.574-.085-1.352-.13-2.332-.13-1.838 0-3.254.608-4.247 1.82-.993 1.21-1.49 2.82-1.49 4.822 0 1.114.14 2.066.424 2.857.282.792.662 1.447 1.14 1.967.478.515 1.03.9 1.654 1.146.625.248 1.27.37 1.93.37.907 0 1.74-.128 2.5-.388s1.36-.564 1.802-.91V12.683c-.345-.1-.804-.192-1.38-.28zm37.994 16.9c-2.11-.05-3.603-.506-4.486-1.372-.882-.862-1.323-2.21-1.323-4.04V.737l3.42-.595V23.33c0 .57.048 1.04.146 1.41.1.37.26.668.48.89.22.223.515.39.88.502.37.11.824.204 1.364.278l-.478 2.894" fill="#fff"/><path d="M91.837 6.153c-.613 0-1.134-.204-1.562-.612-.43-.405-.644-.955-.644-1.65s.217-1.24.647-1.65c.428-.41.95-.61 1.562-.61.61 0 1.132.203 1.562.61.43.408.644.958.644 1.65s-.215 1.244-.643 1.65c-.43.41-.95.614-1.562.614zm-1.69 3.488h3.418v19.295h-3.42V9.64zm15.477-.482c1.373 0 2.53.18 3.475.538.94.36 1.7.866 2.276 1.52.576.657.987 1.436 1.232 2.34.244.902.367 1.897.367 2.985V28.6c-.294.05-.705.116-1.23.203-.53.086-1.123.167-1.785.24-.662.075-1.38.143-2.15.205-.773.06-1.54.093-2.3.093-1.078 0-2.07-.11-2.977-.33-.907-.224-1.69-.577-2.353-1.058-.662-.482-1.177-1.12-1.544-1.91-.37-.792-.553-1.744-.553-2.857 0-1.063.214-1.98.644-2.745.43-.767 1.01-1.385 1.746-1.855.735-.47 1.593-.817 2.574-1.04.98-.222 2.01-.333 3.09-.333.342 0 .698.017 1.065.054.368.037.718.088 1.048.15.33.06.62.116.865.166s.416.087.514.11v-.963c0-.57-.06-1.133-.185-1.69-.123-.556-.343-1.05-.662-1.483-.318-.433-.753-.78-1.305-1.04-.55-.26-1.267-.39-2.15-.39-1.127 0-2.113.082-2.96.243-.844.16-1.475.328-1.892.5l-.404-2.856c.44-.198 1.177-.39 2.206-.575 1.028-.187 2.143-.28 3.344-.28zm.295 17.29c.805 0 1.523-.02 2.15-.057.623-.034 1.143-.1 1.56-.2v-5.75c-.245-.125-.644-.23-1.195-.317-.552-.085-1.22-.13-2.004-.13-.513 0-1.06.04-1.635.113-.576.074-1.103.23-1.58.463-.48.235-.878.556-1.196.964-.318.41-.478.947-.478 1.615 0 1.236.392 2.095 1.177 2.577.783.483 1.85.724 3.2.724z" fill="#fff"/></g></svg>