<?xml version="1.0" encoding="UTF-8" standalone="no"?><!DOCTYPE svg PUBLIC "-//W3C//DTD SVG 1.1//EN" "http://www.w3.org/Graphics/SVG/1.1/DTD/svg11.dtd"><svg width="100%" height="100%" viewBox="0 0 801 800" version="1.1" xmlns="http://www.w3.org/2000/svg" xmlns:xlink="http://www.w3.org/1999/xlink" xml:space="preserve" style="fill-rule:evenodd;clip-rule:evenodd;stroke-linecap:round;stroke-linejoin:round;stroke-miterlimit:1.41421;"><rect id="The-search-cycle" x="0.744" y="0" width="800" height="800" style="fill:none;"/><g><path d="M312.726,601.374c-74.063,-30.931 -125.634,-99.67 -125.634,-179.422c0,-79.752 51.571,-148.492 125.634,-179.422" style="fill:none;stroke:#46aeda;stroke-width:12px;"/><path d="M488.763,242.53c74.062,30.93 125.634,99.67 125.634,179.422c0,79.752 -51.572,148.491 -125.634,179.422" style="fill:none;stroke:#46aeda;stroke-width:12px;"/></g><rect x="333.027" y="113.453" width="135.435" height="184.698" style="fill:#ebebeb;"/><circle cx="400.744" cy="618.83" r="67.717" style="fill:#ebebeb;"/><path d="M484.787,608.842c-1.721,0.114 -3.358,-0.754 -4.23,-2.242c-0.871,-1.488 -0.827,-3.341 0.114,-4.786c6.218,-9.546 16.745,-25.707 22.482,-34.514c0.861,-1.322 2.345,-2.104 3.923,-2.067c1.577,0.038 3.023,0.89 3.82,2.251c4.954,8.46 13.664,23.332 18.619,31.791c0.797,1.362 0.833,3.039 0.094,4.433c-0.739,1.394 -2.148,2.306 -3.722,2.411c-10.488,0.694 -29.732,1.97 -41.1,2.723Z" style="fill:#46aeda;"/><path d="M318.361,231.676c1.721,-0.114 3.358,0.754 4.23,2.242c0.871,1.488 0.827,3.341 -0.114,4.786c-6.218,9.546 -16.745,25.706 -22.482,34.514c-0.861,1.322 -2.345,2.104 -3.923,2.066c-1.577,-0.037 -3.023,-0.889 -3.82,-2.25c-4.954,-8.46 -13.664,-23.332 -18.619,-31.791c-0.797,-1.362 -0.833,-3.039 -0.094,-4.433c0.739,-1.394 2.147,-2.307 3.722,-2.411c10.488,-0.695 29.732,-1.97 41.1,-2.723Z" style="fill:#46aeda;"/><g id="UI"><rect x="342.034" y="124.487" width="118.167" height="18.186" style="fill:#e0e0e0;"/><rect x="388.167" y="150.774" width="72.034" height="15.523" style="fill:#e0e0e0;"/><rect x="388.167" y="175.555" width="72.034" height="15.523" style="fill:#e0e0e0;"/><rect x="388.167" y="200.336" width="72.034" height="15.523" style="fill:#e0e0e0;"/><rect x="388.167" y="225.117" width="72.034" height="15.523" style="fill:#e0e0e0;"/><rect x="388.167" y="249.897" width="72.034" height="15.523" style="fill:#e0e0e0;"/><rect x="342.034" y="150.774" width="36.135" height="136.35" style="fill:#e0e0e0;"/></g><path d="M399.04,99.437c2.144,0 3.928,-0.408 5.352,-1.224c1.424,-0.816 2.56,-1.888 3.408,-3.216c0.848,-1.328 1.44,-2.84 1.776,-4.536c0.336,-1.696 0.504,-3.408 0.504,-5.136l0,-17.184l3.36,0l0,17.184c0,2.304 -0.256,4.488 -0.768,6.552c-0.512,2.064 -1.336,3.88 -2.472,5.448c-1.136,1.568 -2.616,2.816 -4.44,3.744c-1.824,0.928 -4.048,1.392 -6.672,1.392c-2.688,0 -4.952,-0.488 -6.792,-1.464c-1.84,-0.976 -3.32,-2.264 -4.44,-3.864c-1.12,-1.6 -1.92,-3.424 -2.4,-5.472c-0.48,-2.048 -0.72,-4.16 -0.72,-6.336l0,-17.184l3.312,0l0,17.184c0,1.792 0.176,3.536 0.528,5.232c0.352,1.696 0.952,3.2 1.8,4.512c0.848,1.312 1.976,2.368 3.384,3.168c1.408,0.8 3.168,1.2 5.28,1.2Z" style="fill-rule:nonzero;"/><rect x="421.456" y="68.141" width="3.36" height="34.08" style="fill-rule:nonzero;"/><path d="M356.416,699.433l0,34.08l-3.312,0l0,-15.936l-20.208,0l0,15.936l-3.36,0l0,-34.08l3.36,0l0,15.168l20.208,0l0,-15.168l3.312,0Z" style="fill-rule:nonzero;"/><path d="M374.752,733.993c-1.824,0 -3.496,-0.344 -5.016,-1.032c-1.52,-0.688 -2.84,-1.632 -3.96,-2.832c-1.12,-1.2 -1.992,-2.584 -2.616,-4.152c-0.624,-1.568 -0.936,-3.248 -0.936,-5.04c0,-1.76 0.312,-3.416 0.936,-4.968c0.624,-1.552 1.488,-2.912 2.592,-4.08c1.104,-1.168 2.424,-2.096 3.96,-2.784c1.536,-0.688 3.2,-1.032 4.992,-1.032c1.824,0 3.496,0.344 5.016,1.032c1.52,0.688 2.824,1.624 3.912,2.808c1.088,1.184 1.936,2.544 2.544,4.08c0.608,1.536 0.912,3.168 0.912,4.896c0,0.256 0,0.512 0,0.768c0,0.256 -0.016,0.432 -0.048,0.528l-21.408,0c0.096,1.344 0.408,2.584 0.936,3.72c0.528,1.136 1.208,2.12 2.04,2.952c0.832,0.832 1.784,1.48 2.856,1.944c1.072,0.464 2.216,0.696 3.432,0.696c0.8,0 1.6,-0.112 2.4,-0.336c0.8,-0.224 1.536,-0.528 2.208,-0.912c0.672,-0.384 1.28,-0.856 1.824,-1.416c0.544,-0.56 0.96,-1.176 1.248,-1.848l2.832,0.768c-0.384,0.928 -0.928,1.768 -1.632,2.52c-0.704,0.752 -1.52,1.408 -2.448,1.968c-0.928,0.56 -1.952,0.992 -3.072,1.296c-1.12,0.304 -2.288,0.456 -3.504,0.456Zm9.216,-14.304c-0.096,-1.344 -0.408,-2.568 -0.936,-3.672c-0.528,-1.104 -1.2,-2.056 -2.016,-2.856c-0.816,-0.8 -1.76,-1.424 -2.832,-1.872c-1.072,-0.448 -2.216,-0.672 -3.432,-0.672c-1.216,0 -2.368,0.224 -3.456,0.672c-1.088,0.448 -2.04,1.072 -2.856,1.872c-0.816,0.8 -1.472,1.76 -1.968,2.88c-0.496,1.12 -0.792,2.336 -0.888,3.648l18.384,0Z" style="fill-rule:nonzero;"/><path d="M392.272,698.473l3.264,0l0,29.376c0,0.928 0.256,1.656 0.768,2.184c0.512,0.528 1.232,0.792 2.16,0.792c0.352,0 0.768,-0.048 1.248,-0.144c0.48,-0.096 0.928,-0.224 1.344,-0.384l0.576,2.64c-0.608,0.256 -1.352,0.464 -2.232,0.624c-0.88,0.16 -1.64,0.24 -2.28,0.24c-1.504,0 -2.688,-0.424 -3.552,-1.272c-0.864,-0.848 -1.296,-2.04 -1.296,-3.576l0,-30.48Z" style="fill-rule:nonzero;"/><path d="M417.952,733.993c-2.112,0 -3.976,-0.536 -5.592,-1.608c-1.616,-1.072 -2.92,-2.424 -3.912,-4.056l0,15.408l-3.264,0l0,-35.232l2.928,0l0,4.848c1.024,-1.568 2.352,-2.84 3.984,-3.816c1.632,-0.976 3.408,-1.464 5.328,-1.464c1.728,0 3.312,0.36 4.752,1.08c1.44,0.72 2.688,1.68 3.744,2.88c1.056,1.2 1.88,2.584 2.472,4.152c0.592,1.568 0.888,3.184 0.888,4.848c0,1.76 -0.272,3.424 -0.816,4.992c-0.544,1.568 -1.32,2.944 -2.328,4.128c-1.008,1.184 -2.208,2.12 -3.6,2.808c-1.392,0.688 -2.92,1.032 -4.584,1.032Zm-0.912,-2.88c1.344,0 2.568,-0.288 3.672,-0.864c1.104,-0.576 2.048,-1.336 2.832,-2.28c0.784,-0.944 1.384,-2.016 1.8,-3.216c0.416,-1.2 0.624,-2.44 0.624,-3.72c0,-1.344 -0.24,-2.624 -0.72,-3.84c-0.48,-1.216 -1.136,-2.288 -1.968,-3.216c-0.832,-0.928 -1.816,-1.664 -2.952,-2.208c-1.136,-0.544 -2.36,-0.816 -3.672,-0.816c-0.832,0 -1.704,0.168 -2.616,0.504c-0.912,0.336 -1.76,0.784 -2.544,1.344c-0.784,0.56 -1.456,1.216 -2.016,1.968c-0.56,0.752 -0.904,1.544 -1.032,2.376l0,7.68c0.384,0.896 0.872,1.728 1.464,2.496c0.592,0.768 1.264,1.432 2.016,1.992c0.752,0.56 1.56,1 2.424,1.32c0.864,0.32 1.76,0.48 2.688,0.48Z" style="fill-rule:nonzero;"/><path d="M445.6,733.993c-1.824,0 -3.496,-0.344 -5.016,-1.032c-1.52,-0.688 -2.84,-1.632 -3.96,-2.832c-1.12,-1.2 -1.992,-2.584 -2.616,-4.152c-0.624,-1.568 -0.936,-3.248 -0.936,-5.04c0,-1.76 0.312,-3.416 0.936,-4.968c0.624,-1.552 1.488,-2.912 2.592,-4.08c1.104,-1.168 2.424,-2.096 3.96,-2.784c1.536,-0.688 3.2,-1.032 4.992,-1.032c1.824,0 3.496,0.344 5.016,1.032c1.52,0.688 2.824,1.624 3.912,2.808c1.088,1.184 1.936,2.544 2.544,4.08c0.608,1.536 0.912,3.168 0.912,4.896c0,0.256 0,0.512 0,0.768c0,0.256 -0.016,0.432 -0.048,0.528l-21.408,0c0.096,1.344 0.408,2.584 0.936,3.72c0.528,1.136 1.208,2.12 2.04,2.952c0.832,0.832 1.784,1.48 2.856,1.944c1.072,0.464 2.216,0.696 3.432,0.696c0.8,0 1.6,-0.112 2.4,-0.336c0.8,-0.224 1.536,-0.528 2.208,-0.912c0.672,-0.384 1.28,-0.856 1.824,-1.416c0.544,-0.56 0.96,-1.176 1.248,-1.848l2.832,0.768c-0.384,0.928 -0.928,1.768 -1.632,2.52c-0.704,0.752 -1.52,1.408 -2.448,1.968c-0.928,0.56 -1.952,0.992 -3.072,1.296c-1.12,0.304 -2.288,0.456 -3.504,0.456Zm9.216,-14.304c-0.096,-1.344 -0.408,-2.568 -0.936,-3.672c-0.528,-1.104 -1.2,-2.056 -2.016,-2.856c-0.816,-0.8 -1.76,-1.424 -2.832,-1.872c-1.072,-0.448 -2.216,-0.672 -3.432,-0.672c-1.216,0 -2.368,0.224 -3.456,0.672c-1.088,0.448 -2.04,1.072 -2.856,1.872c-0.816,0.8 -1.472,1.76 -1.968,2.88c-0.496,1.12 -0.792,2.336 -0.888,3.648l18.384,0Z" style="fill-rule:nonzero;"/><path d="M475.456,711.385c-2.208,0.064 -4.128,0.672 -5.76,1.824c-1.632,1.152 -2.784,2.736 -3.456,4.752l0,15.552l-3.264,0l0,-25.008l3.072,0l0,6c0.928,-1.92 2.176,-3.424 3.744,-4.512c1.568,-1.088 3.248,-1.632 5.04,-1.632c0.256,0 0.464,0.016 0.624,0.048l0,2.976Z" style="fill-rule:nonzero;"/><path d="M644.478,436.831c-1.952,0 -3.856,-0.32 -5.712,-0.96c-1.856,-0.64 -3.456,-1.568 -4.8,-2.784l1.488,-2.208c1.408,1.152 2.84,2.016 4.296,2.592c1.456,0.576 3.016,0.864 4.68,0.864c2.016,0 3.624,-0.408 4.824,-1.224c1.2,-0.816 1.8,-1.976 1.8,-3.48c0,-0.704 -0.16,-1.288 -0.48,-1.752c-0.32,-0.464 -0.792,-0.872 -1.416,-1.224c-0.624,-0.352 -1.408,-0.664 -2.352,-0.936c-0.944,-0.272 -2.04,-0.552 -3.288,-0.84c-1.44,-0.352 -2.688,-0.704 -3.744,-1.056c-1.056,-0.352 -1.928,-0.752 -2.616,-1.2c-0.688,-0.448 -1.2,-1 -1.536,-1.656c-0.336,-0.656 -0.504,-1.48 -0.504,-2.472c0,-1.248 0.248,-2.352 0.744,-3.312c0.496,-0.96 1.168,-1.752 2.016,-2.376c0.848,-0.624 1.84,-1.096 2.976,-1.416c1.136,-0.32 2.344,-0.48 3.624,-0.48c1.92,0 3.664,0.312 5.232,0.936c1.568,0.624 2.832,1.448 3.792,2.472l-1.584,1.92c-0.928,-0.96 -2.056,-1.68 -3.384,-2.16c-1.328,-0.48 -2.712,-0.72 -4.152,-0.72c-0.864,0 -1.664,0.088 -2.4,0.264c-0.736,0.176 -1.384,0.456 -1.944,0.84c-0.56,0.384 -1,0.872 -1.32,1.464c-0.32,0.592 -0.48,1.288 -0.48,2.088c0,0.672 0.112,1.216 0.336,1.632c0.224,0.416 0.592,0.776 1.104,1.08c0.512,0.304 1.16,0.576 1.944,0.816c0.784,0.24 1.736,0.488 2.856,0.744c1.6,0.384 3.008,0.768 4.224,1.152c1.216,0.384 2.232,0.832 3.048,1.344c0.816,0.512 1.432,1.136 1.848,1.872c0.416,0.736 0.624,1.632 0.624,2.688c0,2.304 -0.88,4.128 -2.64,5.472c-1.76,1.344 -4.128,2.016 -7.104,2.016Z" style="fill-rule:nonzero;"/><path d="M670.35,436.831c-1.824,0 -3.496,-0.344 -5.016,-1.032c-1.52,-0.688 -2.84,-1.632 -3.96,-2.832c-1.12,-1.2 -1.992,-2.584 -2.616,-4.152c-0.624,-1.568 -0.936,-3.248 -0.936,-5.04c0,-1.76 0.312,-3.416 0.936,-4.968c0.624,-1.552 1.488,-2.912 2.592,-4.08c1.104,-1.168 2.424,-2.096 3.96,-2.784c1.536,-0.688 3.2,-1.032 4.992,-1.032c1.824,0 3.496,0.344 5.016,1.032c1.52,0.688 2.824,1.624 3.912,2.808c1.088,1.184 1.936,2.544 2.544,4.08c0.608,1.536 0.912,3.168 0.912,4.896c0,0.256 0,0.512 0,0.768c0,0.256 -0.016,0.432 -0.048,0.528l-21.408,0c0.096,1.344 0.408,2.584 0.936,3.72c0.528,1.136 1.208,2.12 2.04,2.952c0.832,0.832 1.784,1.48 2.856,1.944c1.072,0.464 2.216,0.696 3.432,0.696c0.8,0 1.6,-0.112 2.4,-0.336c0.8,-0.224 1.536,-0.528 2.208,-0.912c0.672,-0.384 1.28,-0.856 1.824,-1.416c0.544,-0.56 0.96,-1.176 1.248,-1.848l2.832,0.768c-0.384,0.928 -0.928,1.768 -1.632,2.52c-0.704,0.752 -1.52,1.408 -2.448,1.968c-0.928,0.56 -1.952,0.992 -3.072,1.296c-1.12,0.304 -2.288,0.456 -3.504,0.456Zm9.216,-14.304c-0.096,-1.344 -0.408,-2.568 -0.936,-3.672c-0.528,-1.104 -1.2,-2.056 -2.016,-2.856c-0.816,-0.8 -1.76,-1.424 -2.832,-1.872c-1.072,-0.448 -2.216,-0.672 -3.432,-0.672c-1.216,0 -2.368,0.224 -3.456,0.672c-1.088,0.448 -2.04,1.072 -2.856,1.872c-0.816,0.8 -1.472,1.76 -1.968,2.88c-0.496,1.12 -0.792,2.336 -0.888,3.648l18.384,0Z" style="fill-rule:nonzero;"/><path d="M694.014,436.831c-1.184,0 -2.28,-0.2 -3.288,-0.6c-1.008,-0.4 -1.888,-0.952 -2.64,-1.656c-0.752,-0.704 -1.336,-1.528 -1.752,-2.472c-0.416,-0.944 -0.624,-1.96 -0.624,-3.048c0,-1.088 0.256,-2.096 0.768,-3.024c0.512,-0.928 1.232,-1.728 2.16,-2.4c0.928,-0.672 2.032,-1.192 3.312,-1.56c1.28,-0.368 2.688,-0.552 4.224,-0.552c1.28,0 2.576,0.112 3.888,0.336c1.312,0.224 2.48,0.544 3.504,0.96l0,-2.256c0,-2.208 -0.624,-3.96 -1.872,-5.256c-1.248,-1.296 -2.976,-1.944 -5.184,-1.944c-1.28,0 -2.592,0.256 -3.936,0.768c-1.344,0.512 -2.704,1.248 -4.08,2.208l-1.152,-2.16c3.232,-2.176 6.368,-3.264 9.408,-3.264c3.136,0 5.6,0.88 7.392,2.64c1.792,1.76 2.688,4.192 2.688,7.296l0,11.28c0,0.896 0.4,1.344 1.2,1.344l0,2.88c-0.544,0.096 -0.96,0.144 -1.248,0.144c-0.832,0 -1.48,-0.208 -1.944,-0.624c-0.464,-0.416 -0.712,-0.992 -0.744,-1.728l-0.096,-1.968c-1.152,1.504 -2.6,2.656 -4.344,3.456c-1.744,0.8 -3.624,1.2 -5.64,1.2Zm0.768,-2.496c1.696,0 3.256,-0.32 4.68,-0.96c1.424,-0.64 2.504,-1.488 3.24,-2.544c0.288,-0.288 0.504,-0.6 0.648,-0.936c0.144,-0.336 0.216,-0.648 0.216,-0.936l0,-4.08c-1.088,-0.416 -2.216,-0.736 -3.384,-0.96c-1.168,-0.224 -2.36,-0.336 -3.576,-0.336c-2.304,0 -4.176,0.48 -5.616,1.44c-1.44,0.96 -2.16,2.224 -2.16,3.792c0,0.768 0.152,1.488 0.456,2.16c0.304,0.672 0.72,1.256 1.248,1.752c0.528,0.496 1.16,0.888 1.896,1.176c0.736,0.288 1.52,0.432 2.352,0.432Z" style="fill-rule:nonzero;"/><path d="M726.366,414.223c-2.208,0.064 -4.128,0.672 -5.76,1.824c-1.632,1.152 -2.784,2.736 -3.456,4.752l0,15.552l-3.264,0l0,-25.008l3.072,0l0,6c0.928,-1.92 2.176,-3.424 3.744,-4.512c1.568,-1.088 3.248,-1.632 5.04,-1.632c0.256,0 0.464,0.016 0.624,0.048l0,2.976Z" style="fill-rule:nonzero;"/><path d="M727.758,423.775c0,-1.76 0.304,-3.424 0.912,-4.992c0.608,-1.568 1.464,-2.936 2.568,-4.104c1.104,-1.168 2.424,-2.088 3.96,-2.76c1.536,-0.672 3.232,-1.008 5.088,-1.008c2.368,0 4.432,0.536 6.192,1.608c1.76,1.072 3.088,2.52 3.984,4.344l-3.168,1.008c-0.704,-1.28 -1.688,-2.28 -2.952,-3c-1.264,-0.72 -2.664,-1.08 -4.2,-1.08c-1.28,0 -2.472,0.256 -3.576,0.768c-1.104,0.512 -2.064,1.208 -2.88,2.088c-0.816,0.88 -1.456,1.928 -1.92,3.144c-0.464,1.216 -0.696,2.544 -0.696,3.984c0,1.408 0.24,2.736 0.72,3.984c0.48,1.248 1.136,2.328 1.968,3.24c0.832,0.912 1.8,1.632 2.904,2.16c1.104,0.528 2.28,0.792 3.528,0.792c0.8,0 1.592,-0.112 2.376,-0.336c0.784,-0.224 1.512,-0.536 2.184,-0.936c0.672,-0.4 1.248,-0.856 1.728,-1.368c0.48,-0.512 0.816,-1.056 1.008,-1.632l3.216,0.96c-0.352,0.896 -0.864,1.72 -1.536,2.472c-0.672,0.752 -1.464,1.408 -2.376,1.968c-0.912,0.56 -1.92,0.992 -3.024,1.296c-1.104,0.304 -2.248,0.456 -3.432,0.456c-1.824,0 -3.504,-0.344 -5.04,-1.032c-1.536,-0.688 -2.864,-1.632 -3.984,-2.832c-1.12,-1.2 -1.992,-2.584 -2.616,-4.152c-0.624,-1.568 -0.936,-3.248 -0.936,-5.04Z" style="fill-rule:nonzero;"/><path d="M776.862,436.351l-3.264,0l0,-13.968c0,-2.848 -0.488,-4.976 -1.464,-6.384c-0.976,-1.408 -2.408,-2.112 -4.296,-2.112c-0.928,0 -1.848,0.184 -2.76,0.552c-0.912,0.368 -1.768,0.872 -2.568,1.512c-0.8,0.64 -1.496,1.392 -2.088,2.256c-0.592,0.864 -1.032,1.808 -1.32,2.832l0,15.312l-3.264,0l0,-35.04l3.264,0l0,15.696c0.992,-1.888 2.368,-3.376 4.128,-4.464c1.76,-1.088 3.664,-1.632 5.712,-1.632c1.44,0 2.656,0.264 3.648,0.792c0.992,0.528 1.808,1.264 2.448,2.208c0.64,0.944 1.104,2.08 1.392,3.408c0.288,1.328 0.432,2.792 0.432,4.392l0,14.64Z" style="fill-rule:nonzero;"/><g transform="matrix(1,0,0,1,36.5806,-8.61643)"><path d="M38.586,421.447c-1.824,0 -3.488,-0.344 -4.992,-1.032c-1.504,-0.688 -2.808,-1.624 -3.912,-2.808c-1.104,-1.184 -1.96,-2.56 -2.568,-4.128c-0.608,-1.568 -0.912,-3.216 -0.912,-4.944c0,-1.76 0.312,-3.424 0.936,-4.992c0.624,-1.568 1.488,-2.944 2.592,-4.128c1.104,-1.184 2.408,-2.128 3.912,-2.832c1.504,-0.704 3.152,-1.056 4.944,-1.056c1.792,0 3.448,0.352 4.968,1.056c1.52,0.704 2.832,1.648 3.936,2.832c1.104,1.184 1.968,2.56 2.592,4.128c0.624,1.568 0.936,3.232 0.936,4.992c0,1.728 -0.304,3.376 -0.912,4.944c-0.608,1.568 -1.464,2.944 -2.568,4.128c-1.104,1.184 -2.416,2.12 -3.936,2.808c-1.52,0.688 -3.192,1.032 -5.016,1.032Zm-9.072,-12.864c0,1.408 0.24,2.712 0.72,3.912c0.48,1.2 1.128,2.256 1.944,3.168c0.816,0.912 1.776,1.624 2.88,2.136c1.104,0.512 2.28,0.768 3.528,0.768c1.248,0 2.424,-0.264 3.528,-0.792c1.104,-0.528 2.072,-1.248 2.904,-2.16c0.832,-0.912 1.488,-1.976 1.968,-3.192c0.48,-1.216 0.72,-2.528 0.72,-3.936c0,-1.376 -0.24,-2.68 -0.72,-3.912c-0.48,-1.232 -1.136,-2.304 -1.968,-3.216c-0.832,-0.912 -1.8,-1.632 -2.904,-2.16c-1.104,-0.528 -2.28,-0.792 -3.528,-0.792c-1.248,0 -2.416,0.264 -3.504,0.792c-1.088,0.528 -2.048,1.256 -2.88,2.184c-0.832,0.928 -1.488,2.008 -1.968,3.24c-0.48,1.232 -0.72,2.552 -0.72,3.96Z" style="fill-rule:nonzero;"/><path d="M77.514,420.967l-3.264,0l0,-13.968c0,-2.976 -0.44,-5.136 -1.32,-6.48c-0.88,-1.344 -2.232,-2.016 -4.056,-2.016c-0.96,0 -1.92,0.176 -2.88,0.528c-0.96,0.352 -1.848,0.848 -2.664,1.488c-0.816,0.64 -1.544,1.4 -2.184,2.28c-0.64,0.88 -1.104,1.832 -1.392,2.856l0,15.312l-3.264,0l0,-25.008l2.976,0l0,5.664c1.024,-1.824 2.488,-3.296 4.392,-4.416c1.904,-1.12 3.976,-1.68 6.216,-1.68c1.376,0 2.544,0.256 3.504,0.768c0.96,0.512 1.728,1.232 2.304,2.16c0.576,0.928 0.992,2.064 1.248,3.408c0.256,1.344 0.384,2.832 0.384,4.464l0,14.64Z" style="fill-rule:nonzero;"/><path d="M-5.406,446.839c-2.208,0.064 -4.128,0.672 -5.76,1.824c-1.632,1.152 -2.784,2.736 -3.456,4.752l0,15.552l-3.264,0l0,-25.008l3.072,0l0,6c0.928,-1.92 2.176,-3.424 3.744,-4.512c1.568,-1.088 3.248,-1.632 5.04,-1.632c0.256,0 0.464,0.016 0.624,0.048l0,2.976Z" style="fill-rule:nonzero;"/><path d="M8.514,469.447c-1.824,0 -3.496,-0.344 -5.016,-1.032c-1.52,-0.688 -2.84,-1.632 -3.96,-2.832c-1.12,-1.2 -1.992,-2.584 -2.616,-4.152c-0.624,-1.568 -0.936,-3.248 -0.936,-5.04c0,-1.76 0.312,-3.416 0.936,-4.968c0.624,-1.552 1.488,-2.912 2.592,-4.08c1.104,-1.168 2.424,-2.096 3.96,-2.784c1.536,-0.688 3.2,-1.032 4.992,-1.032c1.824,0 3.496,0.344 5.016,1.032c1.52,0.688 2.824,1.624 3.912,2.808c1.088,1.184 1.936,2.544 2.544,4.08c0.608,1.536 0.912,3.168 0.912,4.896c0,0.256 0,0.512 0,0.768c0,0.256 -0.016,0.432 -0.048,0.528l-21.408,0c0.096,1.344 0.408,2.584 0.936,3.72c0.528,1.136 1.208,2.12 2.04,2.952c0.832,0.832 1.784,1.48 2.856,1.944c1.072,0.464 2.216,0.696 3.432,0.696c0.8,0 1.6,-0.112 2.4,-0.336c0.8,-0.224 1.536,-0.528 2.208,-0.912c0.672,-0.384 1.28,-0.856 1.824,-1.416c0.544,-0.56 0.96,-1.176 1.248,-1.848l2.832,0.768c-0.384,0.928 -0.928,1.768 -1.632,2.52c-0.704,0.752 -1.52,1.408 -2.448,1.968c-0.928,0.56 -1.952,0.992 -3.072,1.296c-1.12,0.304 -2.288,0.456 -3.504,0.456Zm9.216,-14.304c-0.096,-1.344 -0.408,-2.568 -0.936,-3.672c-0.528,-1.104 -1.2,-2.056 -2.016,-2.856c-0.816,-0.8 -1.76,-1.424 -2.832,-1.872c-1.072,-0.448 -2.216,-0.672 -3.432,-0.672c-1.216,0 -2.368,0.224 -3.456,0.672c-1.088,0.448 -2.04,1.072 -2.856,1.872c-0.816,0.8 -1.472,1.76 -1.968,2.88c-0.496,1.12 -0.792,2.336 -0.888,3.648l18.384,0Z" style="fill-rule:nonzero;"/><path d="M34.194,469.447c-1.952,0 -3.856,-0.32 -5.712,-0.96c-1.856,-0.64 -3.456,-1.568 -4.8,-2.784l1.488,-2.208c1.408,1.152 2.84,2.016 4.296,2.592c1.456,0.576 3.016,0.864 4.68,0.864c2.016,0 3.624,-0.408 4.824,-1.224c1.2,-0.816 1.8,-1.976 1.8,-3.48c0,-0.704 -0.16,-1.288 -0.48,-1.752c-0.32,-0.464 -0.792,-0.872 -1.416,-1.224c-0.624,-0.352 -1.408,-0.664 -2.352,-0.936c-0.944,-0.272 -2.04,-0.552 -3.288,-0.84c-1.44,-0.352 -2.688,-0.704 -3.744,-1.056c-1.056,-0.352 -1.928,-0.752 -2.616,-1.2c-0.688,-0.448 -1.2,-1 -1.536,-1.656c-0.336,-0.656 -0.504,-1.48 -0.504,-2.472c0,-1.248 0.248,-2.352 0.744,-3.312c0.496,-0.96 1.168,-1.752 2.016,-2.376c0.848,-0.624 1.84,-1.096 2.976,-1.416c1.136,-0.32 2.344,-0.48 3.624,-0.48c1.92,0 3.664,0.312 5.232,0.936c1.568,0.624 2.832,1.448 3.792,2.472l-1.584,1.92c-0.928,-0.96 -2.056,-1.68 -3.384,-2.16c-1.328,-0.48 -2.712,-0.72 -4.152,-0.72c-0.864,0 -1.664,0.088 -2.4,0.264c-0.736,0.176 -1.384,0.456 -1.944,0.84c-0.56,0.384 -1,0.872 -1.32,1.464c-0.32,0.592 -0.48,1.288 -0.48,2.088c0,0.672 0.112,1.216 0.336,1.632c0.224,0.416 0.592,0.776 1.104,1.08c0.512,0.304 1.16,0.576 1.944,0.816c0.784,0.24 1.736,0.488 2.856,0.744c1.6,0.384 3.008,0.768 4.224,1.152c1.216,0.384 2.232,0.832 3.048,1.344c0.816,0.512 1.432,1.136 1.848,1.872c0.416,0.736 0.624,1.632 0.624,2.688c0,2.304 -0.88,4.128 -2.64,5.472c-1.76,1.344 -4.128,2.016 -7.104,2.016Z" style="fill-rule:nonzero;"/><path d="M57.09,469.447c-2.72,0 -4.744,-0.904 -6.072,-2.712c-1.328,-1.808 -1.992,-4.504 -1.992,-8.088l0,-14.688l3.264,0l0,14.112c0,5.664 1.936,8.496 5.808,8.496c0.96,0 1.904,-0.16 2.832,-0.48c0.928,-0.32 1.784,-0.784 2.568,-1.392c0.784,-0.608 1.488,-1.328 2.112,-2.16c0.624,-0.832 1.128,-1.776 1.512,-2.832l0,-15.744l3.264,0l0,20.784c0,0.896 0.384,1.344 1.152,1.344l0,2.88c-0.384,0.064 -0.696,0.096 -0.936,0.096c-0.24,0 -0.408,0 -0.504,0c-0.768,-0.032 -1.392,-0.304 -1.872,-0.816c-0.48,-0.512 -0.72,-1.2 -0.72,-2.064l0,-2.88c-1.088,1.952 -2.568,3.464 -4.44,4.536c-1.872,1.072 -3.864,1.608 -5.976,1.608Z" style="fill-rule:nonzero;"/><path d="M77.922,433.927l3.264,0l0,29.376c0,0.928 0.256,1.656 0.768,2.184c0.512,0.528 1.232,0.792 2.16,0.792c0.352,0 0.768,-0.048 1.248,-0.144c0.48,-0.096 0.928,-0.224 1.344,-0.384l0.576,2.64c-0.608,0.256 -1.352,0.464 -2.232,0.624c-0.88,0.16 -1.64,0.24 -2.28,0.24c-1.504,0 -2.688,-0.424 -3.552,-1.272c-0.864,-0.848 -1.296,-2.04 -1.296,-3.576l0,-30.48Z" style="fill-rule:nonzero;"/><path d="M102.834,467.767c-0.192,0.096 -0.472,0.224 -0.84,0.384c-0.368,0.16 -0.792,0.32 -1.272,0.48c-0.48,0.16 -1.024,0.304 -1.632,0.432c-0.608,0.128 -1.248,0.192 -1.92,0.192c-0.704,0 -1.376,-0.096 -2.016,-0.288c-0.64,-0.192 -1.2,-0.488 -1.68,-0.888c-0.48,-0.4 -0.864,-0.904 -1.152,-1.512c-0.288,-0.608 -0.432,-1.312 -0.432,-2.112l0,-17.904l-3.456,0l0,-2.592l3.456,0l0,-8.448l3.264,0l0,8.448l5.76,0l0,2.592l-5.76,0l0,16.992c0.064,0.928 0.392,1.608 0.984,2.04c0.592,0.432 1.272,0.648 2.04,0.648c0.928,0 1.744,-0.152 2.448,-0.456c0.704,-0.304 1.152,-0.52 1.344,-0.648l0.864,2.64Z" style="fill-rule:nonzero;"/><path d="M115.218,469.447c-1.952,0 -3.856,-0.32 -5.712,-0.96c-1.856,-0.64 -3.456,-1.568 -4.8,-2.784l1.488,-2.208c1.408,1.152 2.84,2.016 4.296,2.592c1.456,0.576 3.016,0.864 4.68,0.864c2.016,0 3.624,-0.408 4.824,-1.224c1.2,-0.816 1.8,-1.976 1.8,-3.48c0,-0.704 -0.16,-1.288 -0.48,-1.752c-0.32,-0.464 -0.792,-0.872 -1.416,-1.224c-0.624,-0.352 -1.408,-0.664 -2.352,-0.936c-0.944,-0.272 -2.04,-0.552 -3.288,-0.84c-1.44,-0.352 -2.688,-0.704 -3.744,-1.056c-1.056,-0.352 -1.928,-0.752 -2.616,-1.2c-0.688,-0.448 -1.2,-1 -1.536,-1.656c-0.336,-0.656 -0.504,-1.48 -0.504,-2.472c0,-1.248 0.248,-2.352 0.744,-3.312c0.496,-0.96 1.168,-1.752 2.016,-2.376c0.848,-0.624 1.84,-1.096 2.976,-1.416c1.136,-0.32 2.344,-0.48 3.624,-0.48c1.92,0 3.664,0.312 5.232,0.936c1.568,0.624 2.832,1.448 3.792,2.472l-1.584,1.92c-0.928,-0.96 -2.056,-1.68 -3.384,-2.16c-1.328,-0.48 -2.712,-0.72 -4.152,-0.72c-0.864,0 -1.664,0.088 -2.4,0.264c-0.736,0.176 -1.384,0.456 -1.944,0.84c-0.56,0.384 -1,0.872 -1.32,1.464c-0.32,0.592 -0.48,1.288 -0.48,2.088c0,0.672 0.112,1.216 0.336,1.632c0.224,0.416 0.592,0.776 1.104,1.08c0.512,0.304 1.16,0.576 1.944,0.816c0.784,0.24 1.736,0.488 2.856,0.744c1.6,0.384 3.008,0.768 4.224,1.152c1.216,0.384 2.232,0.832 3.048,1.344c0.816,0.512 1.432,1.136 1.848,1.872c0.416,0.736 0.624,1.632 0.624,2.688c0,2.304 -0.88,4.128 -2.64,5.472c-1.76,1.344 -4.128,2.016 -7.104,2.016Z" style="fill-rule:nonzero;"/></g></svg>