<?xml version="1.0" encoding="UTF-8" standalone="no"?><!DOCTYPE svg PUBLIC "-//W3C//DTD SVG 1.1//EN" "http://www.w3.org/Graphics/SVG/1.1/DTD/svg11.dtd"><svg width="100%" height="100%" viewBox="0 0 801 801" version="1.1" xmlns="http://www.w3.org/2000/svg" xmlns:xlink="http://www.w3.org/1999/xlink" xml:space="preserve" style="fill-rule:evenodd;clip-rule:evenodd;stroke-linecap:round;stroke-linejoin:round;stroke-miterlimit:1.41421;"><rect id="Search-states" x="0.711" y="0.42" width="800" height="800" style="fill:none;"/><g><g id="UI"><rect x="175.451" y="102.281" width="450.52" height="614.391" style="fill:#ebebeb;"/><rect x="205.413" y="138.986" width="393.078" height="60.496" style="fill:#e0e0e0;"/><rect x="358.873" y="226.431" width="239.618" height="51.637" style="fill:#e0e0e0;"/><rect x="358.873" y="308.863" width="239.618" height="51.637" style="fill:#e0e0e0;"/><rect x="358.873" y="391.296" width="239.618" height="51.637" style="fill:#e0e0e0;"/><rect x="358.873" y="473.728" width="239.618" height="51.637" style="fill:#e0e0e0;"/><rect x="358.873" y="556.16" width="239.618" height="51.637" style="fill:#e0e0e0;"/><rect x="205.413" y="226.431" width="120.203" height="453.564" style="fill:#e0e0e0;"/></g><g><path d="M400.711,169.234l0,83.505" style="fill:none;stroke:#13c4a5;stroke-width:12px;"/><path d="M404.783,303.179c-0.771,1.543 -2.348,2.517 -4.072,2.517c-1.725,0 -3.301,-0.974 -4.072,-2.517c-5.855,-11.709 -16.538,-33.074 -21.926,-43.851c-0.706,-1.411 -0.63,-3.087 0.199,-4.429c0.83,-1.343 2.295,-2.16 3.873,-2.16c11.253,0 32.599,0 43.851,0c1.578,0 3.044,0.817 3.873,2.16c0.83,1.342 0.905,3.018 0.199,4.429c-5.388,10.777 -16.07,32.142 -21.925,43.851Z" style="fill:#13c4a5;"/></g><g><path d="M280.387,588.237l45.607,-69.951" style="fill:#13c4a5;stroke:#13c4a5;stroke-width:12px;"/><path d="M350.13,473.809c1.489,-0.871 3.341,-0.826 4.786,0.116c1.445,0.941 2.233,2.618 2.037,4.332c-1.491,13.006 -4.211,36.738 -5.583,48.708c-0.179,1.568 -1.158,2.93 -2.586,3.602c-1.428,0.671 -3.102,0.555 -4.423,-0.307c-9.427,-6.145 -27.308,-17.803 -36.734,-23.949c-1.322,-0.862 -2.103,-2.346 -2.065,-3.924c0.038,-1.577 0.89,-3.022 2.252,-3.819c10.4,-6.085 31.017,-18.148 42.316,-24.759Z" style="fill:#13c4a5;"/></g><g><circle cx="400.711" cy="395.504" r="84.866" style="fill:#9c4274;"/><path d="M357.519,376.761l0,34.08l-3.312,0l0,-15.936l-20.208,0l0,15.936l-3.36,0l0,-34.08l3.36,0l0,15.168l20.208,0l0,-15.168l3.312,0Z" style="fill:#fff;fill-rule:nonzero;"/><path d="M375.855,411.321c-1.824,0 -3.496,-0.344 -5.016,-1.032c-1.52,-0.688 -2.84,-1.632 -3.96,-2.832c-1.12,-1.2 -1.992,-2.584 -2.616,-4.152c-0.624,-1.568 -0.936,-3.248 -0.936,-5.04c0,-1.76 0.312,-3.416 0.936,-4.968c0.624,-1.552 1.488,-2.912 2.592,-4.08c1.104,-1.168 2.424,-2.096 3.96,-2.784c1.536,-0.688 3.2,-1.032 4.992,-1.032c1.824,0 3.496,0.344 5.016,1.032c1.52,0.688 2.824,1.624 3.912,2.808c1.088,1.184 1.936,2.544 2.544,4.08c0.608,1.536 0.912,3.168 0.912,4.896c0,0.256 0,0.512 0,0.768c0,0.256 -0.016,0.432 -0.048,0.528l-21.408,0c0.096,1.344 0.408,2.584 0.936,3.72c0.528,1.136 1.208,2.12 2.04,2.952c0.832,0.832 1.784,1.48 2.856,1.944c1.072,0.464 2.216,0.696 3.432,0.696c0.8,0 1.6,-0.112 2.4,-0.336c0.8,-0.224 1.536,-0.528 2.208,-0.912c0.672,-0.384 1.28,-0.856 1.824,-1.416c0.544,-0.56 0.96,-1.176 1.248,-1.848l2.832,0.768c-0.384,0.928 -0.928,1.768 -1.632,2.52c-0.704,0.752 -1.52,1.408 -2.448,1.968c-0.928,0.56 -1.952,0.992 -3.072,1.296c-1.12,0.304 -2.288,0.456 -3.504,0.456Zm9.216,-14.304c-0.096,-1.344 -0.408,-2.568 -0.936,-3.672c-0.528,-1.104 -1.2,-2.056 -2.016,-2.856c-0.816,-0.8 -1.76,-1.424 -2.832,-1.872c-1.072,-0.448 -2.216,-0.672 -3.432,-0.672c-1.216,0 -2.368,0.224 -3.456,0.672c-1.088,0.448 -2.04,1.072 -2.856,1.872c-0.816,0.8 -1.472,1.76 -1.968,2.88c-0.496,1.12 -0.792,2.336 -0.888,3.648l18.384,0Z" style="fill:#fff;fill-rule:nonzero;"/><path d="M393.375,375.801l3.264,0l0,29.376c0,0.928 0.256,1.656 0.768,2.184c0.512,0.528 1.232,0.792 2.16,0.792c0.352,0 0.768,-0.048 1.248,-0.144c0.48,-0.096 0.928,-0.224 1.344,-0.384l0.576,2.64c-0.608,0.256 -1.352,0.464 -2.232,0.624c-0.88,0.16 -1.64,0.24 -2.28,0.24c-1.504,0 -2.688,-0.424 -3.552,-1.272c-0.864,-0.848 -1.296,-2.04 -1.296,-3.576l0,-30.48Z" style="fill:#fff;fill-rule:nonzero;"/><path d="M419.055,411.321c-2.112,0 -3.976,-0.536 -5.592,-1.608c-1.616,-1.072 -2.92,-2.424 -3.912,-4.056l0,15.408l-3.264,0l0,-35.232l2.928,0l0,4.848c1.024,-1.568 2.352,-2.84 3.984,-3.816c1.632,-0.976 3.408,-1.464 5.328,-1.464c1.728,0 3.312,0.36 4.752,1.08c1.44,0.72 2.688,1.68 3.744,2.88c1.056,1.2 1.88,2.584 2.472,4.152c0.592,1.568 0.888,3.184 0.888,4.848c0,1.76 -0.272,3.424 -0.816,4.992c-0.544,1.568 -1.32,2.944 -2.328,4.128c-1.008,1.184 -2.208,2.12 -3.6,2.808c-1.392,0.688 -2.92,1.032 -4.584,1.032Zm-0.912,-2.88c1.344,0 2.568,-0.288 3.672,-0.864c1.104,-0.576 2.048,-1.336 2.832,-2.28c0.784,-0.944 1.384,-2.016 1.8,-3.216c0.416,-1.2 0.624,-2.44 0.624,-3.72c0,-1.344 -0.24,-2.624 -0.72,-3.84c-0.48,-1.216 -1.136,-2.288 -1.968,-3.216c-0.832,-0.928 -1.816,-1.664 -2.952,-2.208c-1.136,-0.544 -2.36,-0.816 -3.672,-0.816c-0.832,0 -1.704,0.168 -2.616,0.504c-0.912,0.336 -1.76,0.784 -2.544,1.344c-0.784,0.56 -1.456,1.216 -2.016,1.968c-0.56,0.752 -0.904,1.544 -1.032,2.376l0,7.68c0.384,0.896 0.872,1.728 1.464,2.496c0.592,0.768 1.264,1.432 2.016,1.992c0.752,0.56 1.56,1 2.424,1.32c0.864,0.32 1.76,0.48 2.688,0.48Z" style="fill:#fff;fill-rule:nonzero;"/><path d="M446.703,411.321c-1.824,0 -3.496,-0.344 -5.016,-1.032c-1.52,-0.688 -2.84,-1.632 -3.96,-2.832c-1.12,-1.2 -1.992,-2.584 -2.616,-4.152c-0.624,-1.568 -0.936,-3.248 -0.936,-5.04c0,-1.76 0.312,-3.416 0.936,-4.968c0.624,-1.552 1.488,-2.912 2.592,-4.08c1.104,-1.168 2.424,-2.096 3.96,-2.784c1.536,-0.688 3.2,-1.032 4.992,-1.032c1.824,0 3.496,0.344 5.016,1.032c1.52,0.688 2.824,1.624 3.912,2.808c1.088,1.184 1.936,2.544 2.544,4.08c0.608,1.536 0.912,3.168 0.912,4.896c0,0.256 0,0.512 0,0.768c0,0.256 -0.016,0.432 -0.048,0.528l-21.408,0c0.096,1.344 0.408,2.584 0.936,3.72c0.528,1.136 1.208,2.12 2.04,2.952c0.832,0.832 1.784,1.48 2.856,1.944c1.072,0.464 2.216,0.696 3.432,0.696c0.8,0 1.6,-0.112 2.4,-0.336c0.8,-0.224 1.536,-0.528 2.208,-0.912c0.672,-0.384 1.28,-0.856 1.824,-1.416c0.544,-0.56 0.96,-1.176 1.248,-1.848l2.832,0.768c-0.384,0.928 -0.928,1.768 -1.632,2.52c-0.704,0.752 -1.52,1.408 -2.448,1.968c-0.928,0.56 -1.952,0.992 -3.072,1.296c-1.12,0.304 -2.288,0.456 -3.504,0.456Zm9.216,-14.304c-0.096,-1.344 -0.408,-2.568 -0.936,-3.672c-0.528,-1.104 -1.2,-2.056 -2.016,-2.856c-0.816,-0.8 -1.76,-1.424 -2.832,-1.872c-1.072,-0.448 -2.216,-0.672 -3.432,-0.672c-1.216,0 -2.368,0.224 -3.456,0.672c-1.088,0.448 -2.04,1.072 -2.856,1.872c-0.816,0.8 -1.472,1.76 -1.968,2.88c-0.496,1.12 -0.792,2.336 -0.888,3.648l18.384,0Z" style="fill:#fff;fill-rule:nonzero;"/><path d="M476.559,388.713c-2.208,0.064 -4.128,0.672 -5.76,1.824c-1.632,1.152 -2.784,2.736 -3.456,4.752l0,15.552l-3.264,0l0,-25.008l3.072,0l0,6c0.928,-1.92 2.176,-3.424 3.744,-4.512c1.568,-1.088 3.248,-1.632 5.04,-1.632c0.256,0 0.464,0.016 0.624,0.048l0,2.976Z" style="fill:#fff;fill-rule:nonzero;"/></g></g><path d="M394.735,65.89c2.144,0 3.928,-0.408 5.352,-1.224c1.424,-0.816 2.56,-1.888 3.408,-3.216c0.848,-1.328 1.44,-2.84 1.776,-4.536c0.336,-1.696 0.504,-3.408 0.504,-5.136l0,-17.184l3.36,0l0,17.184c0,2.304 -0.256,4.488 -0.768,6.552c-0.512,2.064 -1.336,3.88 -2.472,5.448c-1.136,1.568 -2.616,2.816 -4.44,3.744c-1.824,0.928 -4.048,1.392 -6.672,1.392c-2.688,0 -4.952,-0.488 -6.792,-1.464c-1.84,-0.976 -3.32,-2.264 -4.44,-3.864c-1.12,-1.6 -1.92,-3.424 -2.4,-5.472c-0.48,-2.048 -0.72,-4.16 -0.72,-6.336l0,-17.184l3.312,0l0,17.184c0,1.792 0.176,3.536 0.528,5.232c0.352,1.696 0.952,3.2 1.8,4.512c0.848,1.312 1.976,2.368 3.384,3.168c1.408,0.8 3.168,1.2 5.28,1.2Z" style="fill-rule:nonzero;"/><rect x="417.151" y="34.594" width="3.36" height="34.08" style="fill-rule:nonzero;"/></svg>