<?xml version="1.0" encoding="UTF-8" standalone="no"?><!DOCTYPE svg PUBLIC "-//W3C//DTD SVG 1.1//EN" "http://www.w3.org/Graphics/SVG/1.1/DTD/svg11.dtd"><svg width="100%" height="100%" viewBox="0 0 801 800" version="1.1" xmlns="http://www.w3.org/2000/svg" xmlns:xlink="http://www.w3.org/1999/xlink" xml:space="preserve" style="fill-rule:evenodd;clip-rule:evenodd;stroke-linecap:round;stroke-linejoin:round;stroke-miterlimit:1.41421;"><rect id="State-is-immutable" x="0.185" y="0" width="800" height="800" style="fill:none;"/><clipPath id="_clip1"><rect x="0.185" y="0" width="800" height="800"/></clipPath><g clip-path="url(#_clip1)"><circle id="helper" cx="400.185" cy="406.221" r="193.327" style="fill:#ebebeb;"/><circle cx="328.977" cy="513.525" r="42.963" style="fill:#dbdbdb;"/><g><path d="M447.661,458.096l-79.901,40.209" style="fill:#fff;stroke:#fff;stroke-width:6.5px;"/><path d="M361.881,499.284c-0.448,0.6 -0.518,1.402 -0.181,2.071c0.336,0.669 1.022,1.09 1.771,1.088c4.948,-0.013 13.324,-0.034 17.889,-0.046c0.685,-0.002 1.32,-0.358 1.679,-0.942c0.359,-0.584 0.39,-1.312 0.082,-1.924c-1.914,-3.803 -5.279,-10.489 -7.193,-14.293c-0.308,-0.612 -0.911,-1.021 -1.593,-1.08c-0.683,-0.06 -1.348,0.238 -1.758,0.787c-2.729,3.659 -7.737,10.373 -10.696,14.339Z" style="fill:#fff;"/></g><circle cx="467.767" cy="449.184" r="42.963" style="fill:#dbdbdb;"/><g><path d="M359.527,370.744l71.014,54.387" style="fill:#fff;stroke:#fff;stroke-width:6.5px;"/><path d="M436.135,427.188c0.328,0.673 0.247,1.474 -0.208,2.068c-0.455,0.595 -1.208,0.881 -1.943,0.74c-4.859,-0.934 -13.084,-2.516 -17.567,-3.378c-0.673,-0.129 -1.231,-0.598 -1.475,-1.238c-0.243,-0.64 -0.138,-1.361 0.279,-1.905c2.588,-3.381 7.139,-9.323 9.728,-12.703c0.417,-0.544 1.086,-0.834 1.767,-0.765c0.682,0.068 1.28,0.485 1.58,1.101c2,4.103 5.671,11.632 7.839,16.08Z" style="fill:#fff;"/></g><circle cx="354.764" cy="373.849" r="42.963" style="fill:#dbdbdb;"/><path d="M275.337,705.817c-0.96,-1.088 -2.24,-1.968 -3.84,-2.64c-1.6,-0.672 -3.424,-1.008 -5.472,-1.008c-3.008,0 -5.2,0.568 -6.576,1.704c-1.376,1.136 -2.064,2.68 -2.064,4.632c0,1.024 0.184,1.864 0.552,2.52c0.368,0.656 0.936,1.224 1.704,1.704c0.768,0.48 1.752,0.896 2.952,1.248c1.2,0.352 2.616,0.704 4.248,1.056c1.824,0.384 3.464,0.816 4.92,1.296c1.456,0.48 2.696,1.08 3.72,1.8c1.024,0.72 1.808,1.592 2.352,2.616c0.544,1.024 0.816,2.304 0.816,3.84c0,1.568 -0.304,2.928 -0.912,4.08c-0.608,1.152 -1.456,2.112 -2.544,2.88c-1.088,0.768 -2.384,1.336 -3.888,1.704c-1.504,0.368 -3.152,0.552 -4.944,0.552c-5.28,0 -9.84,-1.648 -13.68,-4.944l1.68,-2.736c0.608,0.64 1.336,1.248 2.184,1.824c0.848,0.576 1.792,1.08 2.832,1.512c1.04,0.432 2.152,0.768 3.336,1.008c1.184,0.24 2.432,0.36 3.744,0.36c2.72,0 4.84,-0.488 6.36,-1.464c1.52,-0.976 2.28,-2.456 2.28,-4.44c0,-1.056 -0.216,-1.944 -0.648,-2.664c-0.432,-0.72 -1.08,-1.344 -1.944,-1.872c-0.864,-0.528 -1.936,-0.984 -3.216,-1.368c-1.28,-0.384 -2.768,-0.768 -4.464,-1.152c-1.792,-0.416 -3.36,-0.848 -4.704,-1.296c-1.344,-0.448 -2.48,-1.008 -3.408,-1.68c-0.928,-0.672 -1.624,-1.48 -2.088,-2.424c-0.464,-0.944 -0.696,-2.104 -0.696,-3.48c0,-1.568 0.296,-2.968 0.888,-4.2c0.592,-1.232 1.432,-2.256 2.52,-3.072c1.088,-0.816 2.368,-1.44 3.84,-1.872c1.472,-0.432 3.104,-0.648 4.896,-0.648c2.272,0 4.296,0.344 6.072,1.032c1.776,0.688 3.384,1.656 4.824,2.904l-1.632,2.688Z" style="fill-rule:nonzero;"/><path d="M294.681,733.993c-1.824,0 -3.496,-0.344 -5.016,-1.032c-1.52,-0.688 -2.84,-1.632 -3.96,-2.832c-1.12,-1.2 -1.992,-2.584 -2.616,-4.152c-0.624,-1.568 -0.936,-3.248 -0.936,-5.04c0,-1.76 0.312,-3.416 0.936,-4.968c0.624,-1.552 1.488,-2.912 2.592,-4.08c1.104,-1.168 2.424,-2.096 3.96,-2.784c1.536,-0.688 3.2,-1.032 4.992,-1.032c1.824,0 3.496,0.344 5.016,1.032c1.52,0.688 2.824,1.624 3.912,2.808c1.088,1.184 1.936,2.544 2.544,4.08c0.608,1.536 0.912,3.168 0.912,4.896c0,0.256 0,0.512 0,0.768c0,0.256 -0.016,0.432 -0.048,0.528l-21.408,0c0.096,1.344 0.408,2.584 0.936,3.72c0.528,1.136 1.208,2.12 2.04,2.952c0.832,0.832 1.784,1.48 2.856,1.944c1.072,0.464 2.216,0.696 3.432,0.696c0.8,0 1.6,-0.112 2.4,-0.336c0.8,-0.224 1.536,-0.528 2.208,-0.912c0.672,-0.384 1.28,-0.856 1.824,-1.416c0.544,-0.56 0.96,-1.176 1.248,-1.848l2.832,0.768c-0.384,0.928 -0.928,1.768 -1.632,2.52c-0.704,0.752 -1.52,1.408 -2.448,1.968c-0.928,0.56 -1.952,0.992 -3.072,1.296c-1.12,0.304 -2.288,0.456 -3.504,0.456Zm9.216,-14.304c-0.096,-1.344 -0.408,-2.568 -0.936,-3.672c-0.528,-1.104 -1.2,-2.056 -2.016,-2.856c-0.816,-0.8 -1.76,-1.424 -2.832,-1.872c-1.072,-0.448 -2.216,-0.672 -3.432,-0.672c-1.216,0 -2.368,0.224 -3.456,0.672c-1.088,0.448 -2.04,1.072 -2.856,1.872c-0.816,0.8 -1.472,1.76 -1.968,2.88c-0.496,1.12 -0.792,2.336 -0.888,3.648l18.384,0Z" style="fill-rule:nonzero;"/><path d="M318.345,733.993c-1.184,0 -2.28,-0.2 -3.288,-0.6c-1.008,-0.4 -1.888,-0.952 -2.64,-1.656c-0.752,-0.704 -1.336,-1.528 -1.752,-2.472c-0.416,-0.944 -0.624,-1.96 -0.624,-3.048c0,-1.088 0.256,-2.096 0.768,-3.024c0.512,-0.928 1.232,-1.728 2.16,-2.4c0.928,-0.672 2.032,-1.192 3.312,-1.56c1.28,-0.368 2.688,-0.552 4.224,-0.552c1.28,0 2.576,0.112 3.888,0.336c1.312,0.224 2.48,0.544 3.504,0.96l0,-2.256c0,-2.208 -0.624,-3.96 -1.872,-5.256c-1.248,-1.296 -2.976,-1.944 -5.184,-1.944c-1.28,0 -2.592,0.256 -3.936,0.768c-1.344,0.512 -2.704,1.248 -4.08,2.208l-1.152,-2.16c3.232,-2.176 6.368,-3.264 9.408,-3.264c3.136,0 5.6,0.88 7.392,2.64c1.792,1.76 2.688,4.192 2.688,7.296l0,11.28c0,0.896 0.4,1.344 1.2,1.344l0,2.88c-0.544,0.096 -0.96,0.144 -1.248,0.144c-0.832,0 -1.48,-0.208 -1.944,-0.624c-0.464,-0.416 -0.712,-0.992 -0.744,-1.728l-0.096,-1.968c-1.152,1.504 -2.6,2.656 -4.344,3.456c-1.744,0.8 -3.624,1.2 -5.64,1.2Zm0.768,-2.496c1.696,0 3.256,-0.32 4.68,-0.96c1.424,-0.64 2.504,-1.488 3.24,-2.544c0.288,-0.288 0.504,-0.6 0.648,-0.936c0.144,-0.336 0.216,-0.648 0.216,-0.936l0,-4.08c-1.088,-0.416 -2.216,-0.736 -3.384,-0.96c-1.168,-0.224 -2.36,-0.336 -3.576,-0.336c-2.304,0 -4.176,0.48 -5.616,1.44c-1.44,0.96 -2.16,2.224 -2.16,3.792c0,0.768 0.152,1.488 0.456,2.16c0.304,0.672 0.72,1.256 1.248,1.752c0.528,0.496 1.16,0.888 1.896,1.176c0.736,0.288 1.52,0.432 2.352,0.432Z" style="fill-rule:nonzero;"/><path d="M350.697,711.385c-2.208,0.064 -4.128,0.672 -5.76,1.824c-1.632,1.152 -2.784,2.736 -3.456,4.752l0,15.552l-3.264,0l0,-25.008l3.072,0l0,6c0.928,-1.92 2.176,-3.424 3.744,-4.512c1.568,-1.088 3.248,-1.632 5.04,-1.632c0.256,0 0.464,0.016 0.624,0.048l0,2.976Z" style="fill-rule:nonzero;"/><path d="M352.089,720.937c0,-1.76 0.304,-3.424 0.912,-4.992c0.608,-1.568 1.464,-2.936 2.568,-4.104c1.104,-1.168 2.424,-2.088 3.96,-2.76c1.536,-0.672 3.232,-1.008 5.088,-1.008c2.368,0 4.432,0.536 6.192,1.608c1.76,1.072 3.088,2.52 3.984,4.344l-3.168,1.008c-0.704,-1.28 -1.688,-2.28 -2.952,-3c-1.264,-0.72 -2.664,-1.08 -4.2,-1.08c-1.28,0 -2.472,0.256 -3.576,0.768c-1.104,0.512 -2.064,1.208 -2.88,2.088c-0.816,0.88 -1.456,1.928 -1.92,3.144c-0.464,1.216 -0.696,2.544 -0.696,3.984c0,1.408 0.24,2.736 0.72,3.984c0.48,1.248 1.136,2.328 1.968,3.24c0.832,0.912 1.8,1.632 2.904,2.16c1.104,0.528 2.28,0.792 3.528,0.792c0.8,0 1.592,-0.112 2.376,-0.336c0.784,-0.224 1.512,-0.536 2.184,-0.936c0.672,-0.4 1.248,-0.856 1.728,-1.368c0.48,-0.512 0.816,-1.056 1.008,-1.632l3.216,0.96c-0.352,0.896 -0.864,1.72 -1.536,2.472c-0.672,0.752 -1.464,1.408 -2.376,1.968c-0.912,0.56 -1.92,0.992 -3.024,1.296c-1.104,0.304 -2.248,0.456 -3.432,0.456c-1.824,0 -3.504,-0.344 -5.04,-1.032c-1.536,-0.688 -2.864,-1.632 -3.984,-2.832c-1.12,-1.2 -1.992,-2.584 -2.616,-4.152c-0.624,-1.568 -0.936,-3.248 -0.936,-5.04Z" style="fill-rule:nonzero;"/><path d="M401.193,733.513l-3.264,0l0,-13.968c0,-2.848 -0.488,-4.976 -1.464,-6.384c-0.976,-1.408 -2.408,-2.112 -4.296,-2.112c-0.928,0 -1.848,0.184 -2.76,0.552c-0.912,0.368 -1.768,0.872 -2.568,1.512c-0.8,0.64 -1.496,1.392 -2.088,2.256c-0.592,0.864 -1.032,1.808 -1.32,2.832l0,15.312l-3.264,0l0,-35.04l3.264,0l0,15.696c0.992,-1.888 2.368,-3.376 4.128,-4.464c1.76,-1.088 3.664,-1.632 5.712,-1.632c1.44,0 2.656,0.264 3.648,0.792c0.992,0.528 1.808,1.264 2.448,2.208c0.64,0.944 1.104,2.08 1.392,3.408c0.288,1.328 0.432,2.792 0.432,4.392l0,14.64Z" style="fill-rule:nonzero;"/><path d="M428.697,733.993c-1.952,0 -3.856,-0.32 -5.712,-0.96c-1.856,-0.64 -3.456,-1.568 -4.8,-2.784l1.488,-2.208c1.408,1.152 2.84,2.016 4.296,2.592c1.456,0.576 3.016,0.864 4.68,0.864c2.016,0 3.624,-0.408 4.824,-1.224c1.2,-0.816 1.8,-1.976 1.8,-3.48c0,-0.704 -0.16,-1.288 -0.48,-1.752c-0.32,-0.464 -0.792,-0.872 -1.416,-1.224c-0.624,-0.352 -1.408,-0.664 -2.352,-0.936c-0.944,-0.272 -2.04,-0.552 -3.288,-0.84c-1.44,-0.352 -2.688,-0.704 -3.744,-1.056c-1.056,-0.352 -1.928,-0.752 -2.616,-1.2c-0.688,-0.448 -1.2,-1 -1.536,-1.656c-0.336,-0.656 -0.504,-1.48 -0.504,-2.472c0,-1.248 0.248,-2.352 0.744,-3.312c0.496,-0.96 1.168,-1.752 2.016,-2.376c0.848,-0.624 1.84,-1.096 2.976,-1.416c1.136,-0.32 2.344,-0.48 3.624,-0.48c1.92,0 3.664,0.312 5.232,0.936c1.568,0.624 2.832,1.448 3.792,2.472l-1.584,1.92c-0.928,-0.96 -2.056,-1.68 -3.384,-2.16c-1.328,-0.48 -2.712,-0.72 -4.152,-0.72c-0.864,0 -1.664,0.088 -2.4,0.264c-0.736,0.176 -1.384,0.456 -1.944,0.84c-0.56,0.384 -1,0.872 -1.32,1.464c-0.32,0.592 -0.48,1.288 -0.48,2.088c0,0.672 0.112,1.216 0.336,1.632c0.224,0.416 0.592,0.776 1.104,1.08c0.512,0.304 1.16,0.576 1.944,0.816c0.784,0.24 1.736,0.488 2.856,0.744c1.6,0.384 3.008,0.768 4.224,1.152c1.216,0.384 2.232,0.832 3.048,1.344c0.816,0.512 1.432,1.136 1.848,1.872c0.416,0.736 0.624,1.632 0.624,2.688c0,2.304 -0.88,4.128 -2.64,5.472c-1.76,1.344 -4.128,2.016 -7.104,2.016Z" style="fill-rule:nonzero;"/><path d="M455.769,732.313c-0.192,0.096 -0.472,0.224 -0.84,0.384c-0.368,0.16 -0.792,0.32 -1.272,0.48c-0.48,0.16 -1.024,0.304 -1.632,0.432c-0.608,0.128 -1.248,0.192 -1.92,0.192c-0.704,0 -1.376,-0.096 -2.016,-0.288c-0.64,-0.192 -1.2,-0.488 -1.68,-0.888c-0.48,-0.4 -0.864,-0.904 -1.152,-1.512c-0.288,-0.608 -0.432,-1.312 -0.432,-2.112l0,-17.904l-3.456,0l0,-2.592l3.456,0l0,-8.448l3.264,0l0,8.448l5.76,0l0,2.592l-5.76,0l0,16.992c0.064,0.928 0.392,1.608 0.984,2.04c0.592,0.432 1.272,0.648 2.04,0.648c0.928,0 1.744,-0.152 2.448,-0.456c0.704,-0.304 1.152,-0.52 1.344,-0.648l0.864,2.64Z" style="fill-rule:nonzero;"/><path d="M466.137,733.993c-1.184,0 -2.28,-0.2 -3.288,-0.6c-1.008,-0.4 -1.888,-0.952 -2.64,-1.656c-0.752,-0.704 -1.336,-1.528 -1.752,-2.472c-0.416,-0.944 -0.624,-1.96 -0.624,-3.048c0,-1.088 0.256,-2.096 0.768,-3.024c0.512,-0.928 1.232,-1.728 2.16,-2.4c0.928,-0.672 2.032,-1.192 3.312,-1.56c1.28,-0.368 2.688,-0.552 4.224,-0.552c1.28,0 2.576,0.112 3.888,0.336c1.312,0.224 2.48,0.544 3.504,0.96l0,-2.256c0,-2.208 -0.624,-3.96 -1.872,-5.256c-1.248,-1.296 -2.976,-1.944 -5.184,-1.944c-1.28,0 -2.592,0.256 -3.936,0.768c-1.344,0.512 -2.704,1.248 -4.08,2.208l-1.152,-2.16c3.232,-2.176 6.368,-3.264 9.408,-3.264c3.136,0 5.6,0.88 7.392,2.64c1.792,1.76 2.688,4.192 2.688,7.296l0,11.28c0,0.896 0.4,1.344 1.2,1.344l0,2.88c-0.544,0.096 -0.96,0.144 -1.248,0.144c-0.832,0 -1.48,-0.208 -1.944,-0.624c-0.464,-0.416 -0.712,-0.992 -0.744,-1.728l-0.096,-1.968c-1.152,1.504 -2.6,2.656 -4.344,3.456c-1.744,0.8 -3.624,1.2 -5.64,1.2Zm0.768,-2.496c1.696,0 3.256,-0.32 4.68,-0.96c1.424,-0.64 2.504,-1.488 3.24,-2.544c0.288,-0.288 0.504,-0.6 0.648,-0.936c0.144,-0.336 0.216,-0.648 0.216,-0.936l0,-4.08c-1.088,-0.416 -2.216,-0.736 -3.384,-0.96c-1.168,-0.224 -2.36,-0.336 -3.576,-0.336c-2.304,0 -4.176,0.48 -5.616,1.44c-1.44,0.96 -2.16,2.224 -2.16,3.792c0,0.768 0.152,1.488 0.456,2.16c0.304,0.672 0.72,1.256 1.248,1.752c0.528,0.496 1.16,0.888 1.896,1.176c0.736,0.288 1.52,0.432 2.352,0.432Z" style="fill-rule:nonzero;"/><path d="M497.817,732.313c-0.192,0.096 -0.472,0.224 -0.84,0.384c-0.368,0.16 -0.792,0.32 -1.272,0.48c-0.48,0.16 -1.024,0.304 -1.632,0.432c-0.608,0.128 -1.248,0.192 -1.92,0.192c-0.704,0 -1.376,-0.096 -2.016,-0.288c-0.64,-0.192 -1.2,-0.488 -1.68,-0.888c-0.48,-0.4 -0.864,-0.904 -1.152,-1.512c-0.288,-0.608 -0.432,-1.312 -0.432,-2.112l0,-17.904l-3.456,0l0,-2.592l3.456,0l0,-8.448l3.264,0l0,8.448l5.76,0l0,2.592l-5.76,0l0,16.992c0.064,0.928 0.392,1.608 0.984,2.04c0.592,0.432 1.272,0.648 2.04,0.648c0.928,0 1.744,-0.152 2.448,-0.456c0.704,-0.304 1.152,-0.52 1.344,-0.648l0.864,2.64Z" style="fill-rule:nonzero;"/><path d="M512.073,733.993c-1.824,0 -3.496,-0.344 -5.016,-1.032c-1.52,-0.688 -2.84,-1.632 -3.96,-2.832c-1.12,-1.2 -1.992,-2.584 -2.616,-4.152c-0.624,-1.568 -0.936,-3.248 -0.936,-5.04c0,-1.76 0.312,-3.416 0.936,-4.968c0.624,-1.552 1.488,-2.912 2.592,-4.08c1.104,-1.168 2.424,-2.096 3.96,-2.784c1.536,-0.688 3.2,-1.032 4.992,-1.032c1.824,0 3.496,0.344 5.016,1.032c1.52,0.688 2.824,1.624 3.912,2.808c1.088,1.184 1.936,2.544 2.544,4.08c0.608,1.536 0.912,3.168 0.912,4.896c0,0.256 0,0.512 0,0.768c0,0.256 -0.016,0.432 -0.048,0.528l-21.408,0c0.096,1.344 0.408,2.584 0.936,3.72c0.528,1.136 1.208,2.12 2.04,2.952c0.832,0.832 1.784,1.48 2.856,1.944c1.072,0.464 2.216,0.696 3.432,0.696c0.8,0 1.6,-0.112 2.4,-0.336c0.8,-0.224 1.536,-0.528 2.208,-0.912c0.672,-0.384 1.28,-0.856 1.824,-1.416c0.544,-0.56 0.96,-1.176 1.248,-1.848l2.832,0.768c-0.384,0.928 -0.928,1.768 -1.632,2.52c-0.704,0.752 -1.52,1.408 -2.448,1.968c-0.928,0.56 -1.952,0.992 -3.072,1.296c-1.12,0.304 -2.288,0.456 -3.504,0.456Zm9.216,-14.304c-0.096,-1.344 -0.408,-2.568 -0.936,-3.672c-0.528,-1.104 -1.2,-2.056 -2.016,-2.856c-0.816,-0.8 -1.76,-1.424 -2.832,-1.872c-1.072,-0.448 -2.216,-0.672 -3.432,-0.672c-1.216,0 -2.368,0.224 -3.456,0.672c-1.088,0.448 -2.04,1.072 -2.856,1.872c-0.816,0.8 -1.472,1.76 -1.968,2.88c-0.496,1.12 -0.792,2.336 -0.888,3.648l18.384,0Z" style="fill-rule:nonzero;"/><path d="M537.753,733.993c-1.952,0 -3.856,-0.32 -5.712,-0.96c-1.856,-0.64 -3.456,-1.568 -4.8,-2.784l1.488,-2.208c1.408,1.152 2.84,2.016 4.296,2.592c1.456,0.576 3.016,0.864 4.68,0.864c2.016,0 3.624,-0.408 4.824,-1.224c1.2,-0.816 1.8,-1.976 1.8,-3.48c0,-0.704 -0.16,-1.288 -0.48,-1.752c-0.32,-0.464 -0.792,-0.872 -1.416,-1.224c-0.624,-0.352 -1.408,-0.664 -2.352,-0.936c-0.944,-0.272 -2.04,-0.552 -3.288,-0.84c-1.44,-0.352 -2.688,-0.704 -3.744,-1.056c-1.056,-0.352 -1.928,-0.752 -2.616,-1.2c-0.688,-0.448 -1.2,-1 -1.536,-1.656c-0.336,-0.656 -0.504,-1.48 -0.504,-2.472c0,-1.248 0.248,-2.352 0.744,-3.312c0.496,-0.96 1.168,-1.752 2.016,-2.376c0.848,-0.624 1.84,-1.096 2.976,-1.416c1.136,-0.32 2.344,-0.48 3.624,-0.48c1.92,0 3.664,0.312 5.232,0.936c1.568,0.624 2.832,1.448 3.792,2.472l-1.584,1.92c-0.928,-0.96 -2.056,-1.68 -3.384,-2.16c-1.328,-0.48 -2.712,-0.72 -4.152,-0.72c-0.864,0 -1.664,0.088 -2.4,0.264c-0.736,0.176 -1.384,0.456 -1.944,0.84c-0.56,0.384 -1,0.872 -1.32,1.464c-0.32,0.592 -0.48,1.288 -0.48,2.088c0,0.672 0.112,1.216 0.336,1.632c0.224,0.416 0.592,0.776 1.104,1.08c0.512,0.304 1.16,0.576 1.944,0.816c0.784,0.24 1.736,0.488 2.856,0.744c1.6,0.384 3.008,0.768 4.224,1.152c1.216,0.384 2.232,0.832 3.048,1.344c0.816,0.512 1.432,1.136 1.848,1.872c0.416,0.736 0.624,1.632 0.624,2.688c0,2.304 -0.88,4.128 -2.64,5.472c-1.76,1.344 -4.128,2.016 -7.104,2.016Z" style="fill-rule:nonzero;"/><g><path d="M354.764,-177.006l0,468.523" style="fill:none;stroke:#13c4a5;stroke-width:12px;"/><path d="M358.836,321.932c-0.771,1.543 -2.347,2.517 -4.072,2.517c-1.724,0 -3.301,-0.974 -4.072,-2.517c-5.095,-10.189 -13.72,-27.44 -18.421,-36.841c-0.705,-1.412 -0.63,-3.088 0.199,-4.43c0.83,-1.342 2.295,-2.159 3.873,-2.159c9.804,0 27.039,0 36.842,0c1.578,0 3.043,0.817 3.873,2.159c0.829,1.342 0.905,3.018 0.199,4.43c-4.701,9.401 -13.326,26.652 -18.421,36.841Z" style="fill:#13c4a5;"/></g><g><path d="M474.897,-39.709l0,418.46" style="fill:#13c4a5;stroke:#13c4a5;stroke-width:12px;"/><path d="M478.969,391.856c-0.771,1.542 -2.348,2.516 -4.072,2.516c-1.725,0 -3.301,-0.974 -4.072,-2.516c-5.095,-10.19 -13.721,-27.441 -18.421,-36.842c-0.706,-1.411 -0.63,-3.087 0.199,-4.429c0.83,-1.343 2.295,-2.16 3.873,-2.16c9.803,0 27.038,0 36.842,0c1.578,0 3.043,0.817 3.872,2.16c0.83,1.342 0.905,3.018 0.2,4.429c-4.701,9.401 -13.326,26.652 -18.421,36.842Z" style="fill:#13c4a5;"/></g><rect x="16.468" y="257.232" width="2.52" height="25.56" style="fill-rule:nonzero;"/><path d="M40.66,282.792l-2.448,0l0,-10.476c0,-2.232 -0.33,-3.852 -0.99,-4.86c-0.66,-1.008 -1.674,-1.512 -3.042,-1.512c-0.72,0 -1.44,0.132 -2.16,0.396c-0.72,0.264 -1.386,0.636 -1.998,1.116c-0.612,0.48 -1.158,1.05 -1.638,1.71c-0.48,0.66 -0.828,1.374 -1.044,2.142l0,11.484l-2.448,0l0,-18.756l2.232,0l0,4.248c0.768,-1.368 1.866,-2.472 3.294,-3.312c1.428,-0.84 2.982,-1.26 4.662,-1.26c1.032,0 1.908,0.192 2.628,0.576c0.72,0.384 1.296,0.924 1.728,1.62c0.432,0.696 0.744,1.548 0.936,2.556c0.192,1.008 0.288,2.124 0.288,3.348l0,10.98Z" style="fill-rule:nonzero;"/><path d="M45.88,282.792l0,-18.756l2.448,0l0,18.756l-2.448,0Zm0,-22.68l0,-3.6l2.448,0l0,3.6l-2.448,0Z" style="fill-rule:nonzero;"/><path d="M62.728,281.892c-0.144,0.072 -0.354,0.168 -0.63,0.288c-0.276,0.12 -0.594,0.24 -0.954,0.36c-0.36,0.12 -0.768,0.228 -1.224,0.324c-0.456,0.096 -0.936,0.144 -1.44,0.144c-0.528,0 -1.032,-0.072 -1.512,-0.216c-0.48,-0.144 -0.9,-0.366 -1.26,-0.666c-0.36,-0.3 -0.648,-0.678 -0.864,-1.134c-0.216,-0.456 -0.324,-0.984 -0.324,-1.584l0,-13.428l-2.592,0l0,-1.944l2.592,0l0,-6.336l2.448,0l0,6.336l4.32,0l0,1.944l-4.32,0l0,12.744c0.048,0.696 0.294,1.206 0.738,1.53c0.444,0.324 0.954,0.486 1.53,0.486c0.696,0 1.308,-0.114 1.836,-0.342c0.528,-0.228 0.864,-0.39 1.008,-0.486l0.648,1.98Z" style="fill-rule:nonzero;"/><path d="M65.788,282.792l0,-18.756l2.448,0l0,18.756l-2.448,0Zm0,-22.68l0,-3.6l2.448,0l0,3.6l-2.448,0Z" style="fill-rule:nonzero;"/><path d="M78.352,283.152c-0.888,0 -1.71,-0.15 -2.466,-0.45c-0.756,-0.3 -1.416,-0.714 -1.98,-1.242c-0.564,-0.528 -1.002,-1.146 -1.314,-1.854c-0.312,-0.708 -0.468,-1.47 -0.468,-2.286c0,-0.816 0.192,-1.572 0.576,-2.268c0.384,-0.696 0.924,-1.296 1.62,-1.8c0.696,-0.504 1.524,-0.894 2.484,-1.17c0.96,-0.276 2.016,-0.414 3.168,-0.414c0.96,0 1.932,0.084 2.916,0.252c0.984,0.168 1.86,0.408 2.628,0.72l0,-1.692c0,-1.656 -0.468,-2.97 -1.404,-3.942c-0.936,-0.972 -2.232,-1.458 -3.888,-1.458c-0.96,0 -1.944,0.192 -2.952,0.576c-1.008,0.384 -2.028,0.936 -3.06,1.656l-0.864,-1.62c2.424,-1.632 4.776,-2.448 7.056,-2.448c2.352,0 4.2,0.66 5.544,1.98c1.344,1.32 2.016,3.144 2.016,5.472l0,8.46c0,0.672 0.3,1.008 0.9,1.008l0,2.16c-0.408,0.072 -0.72,0.108 -0.936,0.108c-0.624,0 -1.11,-0.156 -1.458,-0.468c-0.348,-0.312 -0.534,-0.744 -0.558,-1.296l-0.072,-1.476c-0.864,1.128 -1.95,1.992 -3.258,2.592c-1.308,0.6 -2.718,0.9 -4.23,0.9Zm0.576,-1.872c1.272,0 2.442,-0.24 3.51,-0.72c1.068,-0.48 1.878,-1.116 2.43,-1.908c0.216,-0.216 0.378,-0.45 0.486,-0.702c0.108,-0.252 0.162,-0.486 0.162,-0.702l0,-3.06c-0.816,-0.312 -1.662,-0.552 -2.538,-0.72c-0.876,-0.168 -1.77,-0.252 -2.682,-0.252c-1.728,0 -3.132,0.36 -4.212,1.08c-1.08,0.72 -1.62,1.668 -1.62,2.844c0,0.576 0.114,1.116 0.342,1.62c0.228,0.504 0.54,0.942 0.936,1.314c0.396,0.372 0.87,0.666 1.422,0.882c0.552,0.216 1.14,0.324 1.764,0.324Z" style="fill-rule:nonzero;"/><path d="M93.364,256.512l2.448,0l0,22.032c0,0.696 0.192,1.242 0.576,1.638c0.384,0.396 0.924,0.594 1.62,0.594c0.264,0 0.576,-0.036 0.936,-0.108c0.36,-0.072 0.696,-0.168 1.008,-0.288l0.432,1.98c-0.456,0.192 -1.014,0.348 -1.674,0.468c-0.66,0.12 -1.23,0.18 -1.71,0.18c-1.128,0 -2.016,-0.318 -2.664,-0.954c-0.648,-0.636 -0.972,-1.53 -0.972,-2.682l0,-22.86Z" style="fill-rule:nonzero;"/><path d="M117.34,283.152c-1.464,0 -2.892,-0.24 -4.284,-0.72c-1.392,-0.48 -2.592,-1.176 -3.6,-2.088l1.116,-1.656c1.056,0.864 2.13,1.512 3.222,1.944c1.092,0.432 2.262,0.648 3.51,0.648c1.512,0 2.718,-0.306 3.618,-0.918c0.9,-0.612 1.35,-1.482 1.35,-2.61c0,-0.528 -0.12,-0.966 -0.36,-1.314c-0.24,-0.348 -0.594,-0.654 -1.062,-0.918c-0.468,-0.264 -1.056,-0.498 -1.764,-0.702c-0.708,-0.204 -1.53,-0.414 -2.466,-0.63c-1.08,-0.264 -2.016,-0.528 -2.808,-0.792c-0.792,-0.264 -1.446,-0.564 -1.962,-0.9c-0.516,-0.336 -0.9,-0.75 -1.152,-1.242c-0.252,-0.492 -0.378,-1.11 -0.378,-1.854c0,-0.936 0.186,-1.764 0.558,-2.484c0.372,-0.72 0.876,-1.314 1.512,-1.782c0.636,-0.468 1.38,-0.822 2.232,-1.062c0.852,-0.24 1.758,-0.36 2.718,-0.36c1.44,0 2.748,0.234 3.924,0.702c1.176,0.468 2.124,1.086 2.844,1.854l-1.188,1.44c-0.696,-0.72 -1.542,-1.26 -2.538,-1.62c-0.996,-0.36 -2.034,-0.54 -3.114,-0.54c-0.648,0 -1.248,0.066 -1.8,0.198c-0.552,0.132 -1.038,0.342 -1.458,0.63c-0.42,0.288 -0.75,0.654 -0.99,1.098c-0.24,0.444 -0.36,0.966 -0.36,1.566c0,0.504 0.084,0.912 0.252,1.224c0.168,0.312 0.444,0.582 0.828,0.81c0.384,0.228 0.87,0.432 1.458,0.612c0.588,0.18 1.302,0.366 2.142,0.558c1.2,0.288 2.256,0.576 3.168,0.864c0.912,0.288 1.674,0.624 2.286,1.008c0.612,0.384 1.074,0.852 1.386,1.404c0.312,0.552 0.468,1.224 0.468,2.016c0,1.728 -0.66,3.096 -1.98,4.104c-1.32,1.008 -3.096,1.512 -5.328,1.512Z" style="fill-rule:nonzero;"/><path d="M137.644,281.892c-0.144,0.072 -0.354,0.168 -0.63,0.288c-0.276,0.12 -0.594,0.24 -0.954,0.36c-0.36,0.12 -0.768,0.228 -1.224,0.324c-0.456,0.096 -0.936,0.144 -1.44,0.144c-0.528,0 -1.032,-0.072 -1.512,-0.216c-0.48,-0.144 -0.9,-0.366 -1.26,-0.666c-0.36,-0.3 -0.648,-0.678 -0.864,-1.134c-0.216,-0.456 -0.324,-0.984 -0.324,-1.584l0,-13.428l-2.592,0l0,-1.944l2.592,0l0,-6.336l2.448,0l0,6.336l4.32,0l0,1.944l-4.32,0l0,12.744c0.048,0.696 0.294,1.206 0.738,1.53c0.444,0.324 0.954,0.486 1.53,0.486c0.696,0 1.308,-0.114 1.836,-0.342c0.528,-0.228 0.864,-0.39 1.008,-0.486l0.648,1.98Z" style="fill-rule:nonzero;"/><path d="M145.42,283.152c-0.888,0 -1.71,-0.15 -2.466,-0.45c-0.756,-0.3 -1.416,-0.714 -1.98,-1.242c-0.564,-0.528 -1.002,-1.146 -1.314,-1.854c-0.312,-0.708 -0.468,-1.47 -0.468,-2.286c0,-0.816 0.192,-1.572 0.576,-2.268c0.384,-0.696 0.924,-1.296 1.62,-1.8c0.696,-0.504 1.524,-0.894 2.484,-1.17c0.96,-0.276 2.016,-0.414 3.168,-0.414c0.96,0 1.932,0.084 2.916,0.252c0.984,0.168 1.86,0.408 2.628,0.72l0,-1.692c0,-1.656 -0.468,-2.97 -1.404,-3.942c-0.936,-0.972 -2.232,-1.458 -3.888,-1.458c-0.96,0 -1.944,0.192 -2.952,0.576c-1.008,0.384 -2.028,0.936 -3.06,1.656l-0.864,-1.62c2.424,-1.632 4.776,-2.448 7.056,-2.448c2.352,0 4.2,0.66 5.544,1.98c1.344,1.32 2.016,3.144 2.016,5.472l0,8.46c0,0.672 0.3,1.008 0.9,1.008l0,2.16c-0.408,0.072 -0.72,0.108 -0.936,0.108c-0.624,0 -1.11,-0.156 -1.458,-0.468c-0.348,-0.312 -0.534,-0.744 -0.558,-1.296l-0.072,-1.476c-0.864,1.128 -1.95,1.992 -3.258,2.592c-1.308,0.6 -2.718,0.9 -4.23,0.9Zm0.576,-1.872c1.272,0 2.442,-0.24 3.51,-0.72c1.068,-0.48 1.878,-1.116 2.43,-1.908c0.216,-0.216 0.378,-0.45 0.486,-0.702c0.108,-0.252 0.162,-0.486 0.162,-0.702l0,-3.06c-0.816,-0.312 -1.662,-0.552 -2.538,-0.72c-0.876,-0.168 -1.77,-0.252 -2.682,-0.252c-1.728,0 -3.132,0.36 -4.212,1.08c-1.08,0.72 -1.62,1.668 -1.62,2.844c0,0.576 0.114,1.116 0.342,1.62c0.228,0.504 0.54,0.942 0.936,1.314c0.396,0.372 0.87,0.666 1.422,0.882c0.552,0.216 1.14,0.324 1.764,0.324Z" style="fill-rule:nonzero;"/><path d="M169.18,281.892c-0.144,0.072 -0.354,0.168 -0.63,0.288c-0.276,0.12 -0.594,0.24 -0.954,0.36c-0.36,0.12 -0.768,0.228 -1.224,0.324c-0.456,0.096 -0.936,0.144 -1.44,0.144c-0.528,0 -1.032,-0.072 -1.512,-0.216c-0.48,-0.144 -0.9,-0.366 -1.26,-0.666c-0.36,-0.3 -0.648,-0.678 -0.864,-1.134c-0.216,-0.456 -0.324,-0.984 -0.324,-1.584l0,-13.428l-2.592,0l0,-1.944l2.592,0l0,-6.336l2.448,0l0,6.336l4.32,0l0,1.944l-4.32,0l0,12.744c0.048,0.696 0.294,1.206 0.738,1.53c0.444,0.324 0.954,0.486 1.53,0.486c0.696,0 1.308,-0.114 1.836,-0.342c0.528,-0.228 0.864,-0.39 1.008,-0.486l0.648,1.98Z" style="fill-rule:nonzero;"/><path d="M179.872,283.152c-1.368,0 -2.622,-0.258 -3.762,-0.774c-1.14,-0.516 -2.13,-1.224 -2.97,-2.124c-0.84,-0.9 -1.494,-1.938 -1.962,-3.114c-0.468,-1.176 -0.702,-2.436 -0.702,-3.78c0,-1.32 0.234,-2.562 0.702,-3.726c0.468,-1.164 1.116,-2.184 1.944,-3.06c0.828,-0.876 1.818,-1.572 2.97,-2.088c1.152,-0.516 2.4,-0.774 3.744,-0.774c1.368,0 2.622,0.258 3.762,0.774c1.14,0.516 2.118,1.218 2.934,2.106c0.816,0.888 1.452,1.908 1.908,3.06c0.456,1.152 0.684,2.376 0.684,3.672c0,0.192 0,0.384 0,0.576c0,0.192 -0.012,0.324 -0.036,0.396l-16.056,0c0.072,1.008 0.306,1.938 0.702,2.79c0.396,0.852 0.906,1.59 1.53,2.214c0.624,0.624 1.338,1.11 2.142,1.458c0.804,0.348 1.662,0.522 2.574,0.522c0.6,0 1.2,-0.084 1.8,-0.252c0.6,-0.168 1.152,-0.396 1.656,-0.684c0.504,-0.288 0.96,-0.642 1.368,-1.062c0.408,-0.42 0.72,-0.882 0.936,-1.386l2.124,0.576c-0.288,0.696 -0.696,1.326 -1.224,1.89c-0.528,0.564 -1.14,1.056 -1.836,1.476c-0.696,0.42 -1.464,0.744 -2.304,0.972c-0.84,0.228 -1.716,0.342 -2.628,0.342Zm6.912,-10.728c-0.072,-1.008 -0.306,-1.926 -0.702,-2.754c-0.396,-0.828 -0.9,-1.542 -1.512,-2.142c-0.612,-0.6 -1.32,-1.068 -2.124,-1.404c-0.804,-0.336 -1.662,-0.504 -2.574,-0.504c-0.912,0 -1.776,0.168 -2.592,0.504c-0.816,0.336 -1.53,0.804 -2.142,1.404c-0.612,0.6 -1.104,1.32 -1.476,2.16c-0.372,0.84 -0.594,1.752 -0.666,2.736l13.788,0Z" style="fill-rule:nonzero;"/><path d="M598.731,627.609l0,-25.56l16.776,0l0,2.232l-14.256,0l0,9.396l12.024,0l0,2.088l-12.024,0l0,11.844l-2.52,0Z" style="fill-rule:nonzero;"/><path d="M619.431,627.609l0,-18.756l2.448,0l0,18.756l-2.448,0Zm0,-22.68l0,-3.6l2.448,0l0,3.6l-2.448,0Z" style="fill-rule:nonzero;"/><path d="M643.047,627.609l-2.448,0l0,-10.476c0,-2.232 -0.33,-3.852 -0.99,-4.86c-0.66,-1.008 -1.674,-1.512 -3.042,-1.512c-0.72,0 -1.44,0.132 -2.16,0.396c-0.72,0.264 -1.386,0.636 -1.998,1.116c-0.612,0.48 -1.158,1.05 -1.638,1.71c-0.48,0.66 -0.828,1.374 -1.044,2.142l0,11.484l-2.448,0l0,-18.756l2.232,0l0,4.248c0.768,-1.368 1.866,-2.472 3.294,-3.312c1.428,-0.84 2.982,-1.26 4.662,-1.26c1.032,0 1.908,0.192 2.628,0.576c0.72,0.384 1.296,0.924 1.728,1.62c0.432,0.696 0.744,1.548 0.936,2.556c0.192,1.008 0.288,2.124 0.288,3.348l0,10.98Z" style="fill-rule:nonzero;"/><path d="M652.983,627.969c-0.888,0 -1.71,-0.15 -2.466,-0.45c-0.756,-0.3 -1.416,-0.714 -1.98,-1.242c-0.564,-0.528 -1.002,-1.146 -1.314,-1.854c-0.312,-0.708 -0.468,-1.47 -0.468,-2.286c0,-0.816 0.192,-1.572 0.576,-2.268c0.384,-0.696 0.924,-1.296 1.62,-1.8c0.696,-0.504 1.524,-0.894 2.484,-1.17c0.96,-0.276 2.016,-0.414 3.168,-0.414c0.96,0 1.932,0.084 2.916,0.252c0.984,0.168 1.86,0.408 2.628,0.72l0,-1.692c0,-1.656 -0.468,-2.97 -1.404,-3.942c-0.936,-0.972 -2.232,-1.458 -3.888,-1.458c-0.96,0 -1.944,0.192 -2.952,0.576c-1.008,0.384 -2.028,0.936 -3.06,1.656l-0.864,-1.62c2.424,-1.632 4.776,-2.448 7.056,-2.448c2.352,0 4.2,0.66 5.544,1.98c1.344,1.32 2.016,3.144 2.016,5.472l0,8.46c0,0.672 0.3,1.008 0.9,1.008l0,2.16c-0.408,0.072 -0.72,0.108 -0.936,0.108c-0.624,0 -1.11,-0.156 -1.458,-0.468c-0.348,-0.312 -0.534,-0.744 -0.558,-1.296l-0.072,-1.476c-0.864,1.128 -1.95,1.992 -3.258,2.592c-1.308,0.6 -2.718,0.9 -4.23,0.9Zm0.576,-1.872c1.272,0 2.442,-0.24 3.51,-0.72c1.068,-0.48 1.878,-1.116 2.43,-1.908c0.216,-0.216 0.378,-0.45 0.486,-0.702c0.108,-0.252 0.162,-0.486 0.162,-0.702l0,-3.06c-0.816,-0.312 -1.662,-0.552 -2.538,-0.72c-0.876,-0.168 -1.77,-0.252 -2.682,-0.252c-1.728,0 -3.132,0.36 -4.212,1.08c-1.08,0.72 -1.62,1.668 -1.62,2.844c0,0.576 0.114,1.116 0.342,1.62c0.228,0.504 0.54,0.942 0.936,1.314c0.396,0.372 0.87,0.666 1.422,0.882c0.552,0.216 1.14,0.324 1.764,0.324Z" style="fill-rule:nonzero;"/><path d="M667.995,601.329l2.448,0l0,22.032c0,0.696 0.192,1.242 0.576,1.638c0.384,0.396 0.924,0.594 1.62,0.594c0.264,0 0.576,-0.036 0.936,-0.108c0.36,-0.072 0.696,-0.168 1.008,-0.288l0.432,1.98c-0.456,0.192 -1.014,0.348 -1.674,0.468c-0.66,0.12 -1.23,0.18 -1.71,0.18c-1.128,0 -2.016,-0.318 -2.664,-0.954c-0.648,-0.636 -0.972,-1.53 -0.972,-2.682l0,-22.86Z" style="fill-rule:nonzero;"/><path d="M691.971,627.969c-1.464,0 -2.892,-0.24 -4.284,-0.72c-1.392,-0.48 -2.592,-1.176 -3.6,-2.088l1.116,-1.656c1.056,0.864 2.13,1.512 3.222,1.944c1.092,0.432 2.262,0.648 3.51,0.648c1.512,0 2.718,-0.306 3.618,-0.918c0.9,-0.612 1.35,-1.482 1.35,-2.61c0,-0.528 -0.12,-0.966 -0.36,-1.314c-0.24,-0.348 -0.594,-0.654 -1.062,-0.918c-0.468,-0.264 -1.056,-0.498 -1.764,-0.702c-0.708,-0.204 -1.53,-0.414 -2.466,-0.63c-1.08,-0.264 -2.016,-0.528 -2.808,-0.792c-0.792,-0.264 -1.446,-0.564 -1.962,-0.9c-0.516,-0.336 -0.9,-0.75 -1.152,-1.242c-0.252,-0.492 -0.378,-1.11 -0.378,-1.854c0,-0.936 0.186,-1.764 0.558,-2.484c0.372,-0.72 0.876,-1.314 1.512,-1.782c0.636,-0.468 1.38,-0.822 2.232,-1.062c0.852,-0.24 1.758,-0.36 2.718,-0.36c1.44,0 2.748,0.234 3.924,0.702c1.176,0.468 2.124,1.086 2.844,1.854l-1.188,1.44c-0.696,-0.72 -1.542,-1.26 -2.538,-1.62c-0.996,-0.36 -2.034,-0.54 -3.114,-0.54c-0.648,0 -1.248,0.066 -1.8,0.198c-0.552,0.132 -1.038,0.342 -1.458,0.63c-0.42,0.288 -0.75,0.654 -0.99,1.098c-0.24,0.444 -0.36,0.966 -0.36,1.566c0,0.504 0.084,0.912 0.252,1.224c0.168,0.312 0.444,0.582 0.828,0.81c0.384,0.228 0.87,0.432 1.458,0.612c0.588,0.18 1.302,0.366 2.142,0.558c1.2,0.288 2.256,0.576 3.168,0.864c0.912,0.288 1.674,0.624 2.286,1.008c0.612,0.384 1.074,0.852 1.386,1.404c0.312,0.552 0.468,1.224 0.468,2.016c0,1.728 -0.66,3.096 -1.98,4.104c-1.32,1.008 -3.096,1.512 -5.328,1.512Z" style="fill-rule:nonzero;"/><path d="M712.275,626.709c-0.144,0.072 -0.354,0.168 -0.63,0.288c-0.276,0.12 -0.594,0.24 -0.954,0.36c-0.36,0.12 -0.768,0.228 -1.224,0.324c-0.456,0.096 -0.936,0.144 -1.44,0.144c-0.528,0 -1.032,-0.072 -1.512,-0.216c-0.48,-0.144 -0.9,-0.366 -1.26,-0.666c-0.36,-0.3 -0.648,-0.678 -0.864,-1.134c-0.216,-0.456 -0.324,-0.984 -0.324,-1.584l0,-13.428l-2.592,0l0,-1.944l2.592,0l0,-6.336l2.448,0l0,6.336l4.32,0l0,1.944l-4.32,0l0,12.744c0.048,0.696 0.294,1.206 0.738,1.53c0.444,0.324 0.954,0.486 1.53,0.486c0.696,0 1.308,-0.114 1.836,-0.342c0.528,-0.228 0.864,-0.39 1.008,-0.486l0.648,1.98Z" style="fill-rule:nonzero;"/><path d="M720.051,627.969c-0.888,0 -1.71,-0.15 -2.466,-0.45c-0.756,-0.3 -1.416,-0.714 -1.98,-1.242c-0.564,-0.528 -1.002,-1.146 -1.314,-1.854c-0.312,-0.708 -0.468,-1.47 -0.468,-2.286c0,-0.816 0.192,-1.572 0.576,-2.268c0.384,-0.696 0.924,-1.296 1.62,-1.8c0.696,-0.504 1.524,-0.894 2.484,-1.17c0.96,-0.276 2.016,-0.414 3.168,-0.414c0.96,0 1.932,0.084 2.916,0.252c0.984,0.168 1.86,0.408 2.628,0.72l0,-1.692c0,-1.656 -0.468,-2.97 -1.404,-3.942c-0.936,-0.972 -2.232,-1.458 -3.888,-1.458c-0.96,0 -1.944,0.192 -2.952,0.576c-1.008,0.384 -2.028,0.936 -3.06,1.656l-0.864,-1.62c2.424,-1.632 4.776,-2.448 7.056,-2.448c2.352,0 4.2,0.66 5.544,1.98c1.344,1.32 2.016,3.144 2.016,5.472l0,8.46c0,0.672 0.3,1.008 0.9,1.008l0,2.16c-0.408,0.072 -0.72,0.108 -0.936,0.108c-0.624,0 -1.11,-0.156 -1.458,-0.468c-0.348,-0.312 -0.534,-0.744 -0.558,-1.296l-0.072,-1.476c-0.864,1.128 -1.95,1.992 -3.258,2.592c-1.308,0.6 -2.718,0.9 -4.23,0.9Zm0.576,-1.872c1.272,0 2.442,-0.24 3.51,-0.72c1.068,-0.48 1.878,-1.116 2.43,-1.908c0.216,-0.216 0.378,-0.45 0.486,-0.702c0.108,-0.252 0.162,-0.486 0.162,-0.702l0,-3.06c-0.816,-0.312 -1.662,-0.552 -2.538,-0.72c-0.876,-0.168 -1.77,-0.252 -2.682,-0.252c-1.728,0 -3.132,0.36 -4.212,1.08c-1.08,0.72 -1.62,1.668 -1.62,2.844c0,0.576 0.114,1.116 0.342,1.62c0.228,0.504 0.54,0.942 0.936,1.314c0.396,0.372 0.87,0.666 1.422,0.882c0.552,0.216 1.14,0.324 1.764,0.324Z" style="fill-rule:nonzero;"/><path d="M743.811,626.709c-0.144,0.072 -0.354,0.168 -0.63,0.288c-0.276,0.12 -0.594,0.24 -0.954,0.36c-0.36,0.12 -0.768,0.228 -1.224,0.324c-0.456,0.096 -0.936,0.144 -1.44,0.144c-0.528,0 -1.032,-0.072 -1.512,-0.216c-0.48,-0.144 -0.9,-0.366 -1.26,-0.666c-0.36,-0.3 -0.648,-0.678 -0.864,-1.134c-0.216,-0.456 -0.324,-0.984 -0.324,-1.584l0,-13.428l-2.592,0l0,-1.944l2.592,0l0,-6.336l2.448,0l0,6.336l4.32,0l0,1.944l-4.32,0l0,12.744c0.048,0.696 0.294,1.206 0.738,1.53c0.444,0.324 0.954,0.486 1.53,0.486c0.696,0 1.308,-0.114 1.836,-0.342c0.528,-0.228 0.864,-0.39 1.008,-0.486l0.648,1.98Z" style="fill-rule:nonzero;"/><path d="M754.503,627.969c-1.368,0 -2.622,-0.258 -3.762,-0.774c-1.14,-0.516 -2.13,-1.224 -2.97,-2.124c-0.84,-0.9 -1.494,-1.938 -1.962,-3.114c-0.468,-1.176 -0.702,-2.436 -0.702,-3.78c0,-1.32 0.234,-2.562 0.702,-3.726c0.468,-1.164 1.116,-2.184 1.944,-3.06c0.828,-0.876 1.818,-1.572 2.97,-2.088c1.152,-0.516 2.4,-0.774 3.744,-0.774c1.368,0 2.622,0.258 3.762,0.774c1.14,0.516 2.118,1.218 2.934,2.106c0.816,0.888 1.452,1.908 1.908,3.06c0.456,1.152 0.684,2.376 0.684,3.672c0,0.192 0,0.384 0,0.576c0,0.192 -0.012,0.324 -0.036,0.396l-16.056,0c0.072,1.008 0.306,1.938 0.702,2.79c0.396,0.852 0.906,1.59 1.53,2.214c0.624,0.624 1.338,1.11 2.142,1.458c0.804,0.348 1.662,0.522 2.574,0.522c0.6,0 1.2,-0.084 1.8,-0.252c0.6,-0.168 1.152,-0.396 1.656,-0.684c0.504,-0.288 0.96,-0.642 1.368,-1.062c0.408,-0.42 0.72,-0.882 0.936,-1.386l2.124,0.576c-0.288,0.696 -0.696,1.326 -1.224,1.89c-0.528,0.564 -1.14,1.056 -1.836,1.476c-0.696,0.42 -1.464,0.744 -2.304,0.972c-0.84,0.228 -1.716,0.342 -2.628,0.342Zm6.912,-10.728c-0.072,-1.008 -0.306,-1.926 -0.702,-2.754c-0.396,-0.828 -0.9,-1.542 -1.512,-2.142c-0.612,-0.6 -1.32,-1.068 -2.124,-1.404c-0.804,-0.336 -1.662,-0.504 -2.574,-0.504c-0.912,0 -1.776,0.168 -2.592,0.504c-0.816,0.336 -1.53,0.804 -2.142,1.404c-0.612,0.6 -1.104,1.32 -1.476,2.16c-0.372,0.84 -0.594,1.752 -0.666,2.736l13.788,0Z" style="fill-rule:nonzero;"/><path d="M328.977,357.628l-84.13,-84.13l-46.441,0" style="fill:none;stroke:#000;stroke-width:3px;"/><path d="M348.011,540.294l77.567,77.567l159.915,0" style="fill:none;stroke:#000;stroke-width:3px;"/></g></svg>