<svg baseProfile="basic" id="Layer_1" xmlns="http://www.w3.org/2000/svg" viewBox="0 0 69 69"><style>.st0{fill:url(#SVGID_1_)}.st1{fill:url(#SVGID_2_)}</style><linearGradient id="SVGID_1_" gradientUnits="userSpaceOnUse" x1="15.6" y1="52.6" x2="53.713" y2="14.487"><stop offset="0" stop-color="#2751af"/><stop offset="1" stop-color="#32c0f9"/></linearGradient><path class="st0" d="M34.5 60.2C19.9 60.2 8 48.3 8 33.7S19.9 7.2 34.5 7.2 61 19.1 61 33.7 49.1 60.2 34.5 60.2zm0-51C21 9.2 10 20.2 10 33.7s11 24.5 24.5 24.5S59 47.2 59 33.7 48 9.2 34.5 9.2z"/><g><linearGradient id="SVGID_2_" gradientUnits="userSpaceOnUse" x1="14.925" y1="51.925" x2="53.038" y2="13.812"><stop offset="0" stop-color="#2751af"/><stop offset="1" stop-color="#32c0f9"/></linearGradient><path class="st1" d="M30.3 42.4c-.2 0-.3 0-.5-.1-.3-.2-.5-.5-.5-.9V26.1c0-.4.2-.7.5-.9.3-.2.7-.2 1 0l13.3 7.6c.3.2.5.5.5.9s-.2.7-.5.9l-13.3 7.7c-.2.1-.3.1-.5.1zm1-14.6v11.8l10.3-6-10.3-5.8z"/></g></svg>