<?xml version="1.0" encoding="UTF-8"?>
<svg width="137px" height="32px" viewBox="0 0 137 32" version="1.1" xmlns="http://www.w3.org/2000/svg" xmlns:xlink="http://www.w3.org/1999/xlink">
    <!-- Generator: Sketch 42 (36781) - http://www.bohemiancoding.com/sketch -->
    <title>Group 3</title>
    <desc>Created with Sketch.</desc>
    <defs></defs>
    <g id="Symbols" stroke="none" stroke-width="1" fill="none" fill-rule="evenodd">
        <g id="community/header" transform="translate(-166.000000, -15.000000)">
            <g id="Group-13">
                <g id="Group-3" transform="translate(166.000000, 15.000000)">
                    <path d="M36.212613,15.9117891 C36.212613,15.153382 36.330099,14.4444299 36.5650709,13.784212 C36.8000429,13.12385 37.1362313,12.5521609 37.5734922,12.0684241 C38.0107531,11.5846872 38.5427515,11.2056279 39.1693433,10.9311018 C39.7959352,10.6565757 40.500851,10.5193127 41.2840909,10.5193127 C42.2501826,10.5193127 43.1638664,10.6957937 44.0254302,11.0487558 L43.5163243,12.9900473 C43.2421904,12.8723933 42.932206,12.7743483 42.5862271,12.6959123 C42.2402481,12.6174762 41.8715207,12.5782582 41.4799008,12.5782582 C40.553115,12.5782582 39.8481992,12.8690771 39.3651533,13.450859 C38.8821074,14.0326408 38.6406565,14.8529028 38.6406565,15.9117891 C38.6406565,16.9314574 38.8691494,17.7385986 39.3259913,18.3335013 C39.7828332,18.9282597 40.553115,19.225711 41.6365488,19.225711 C42.0411267,19.225711 42.4393696,19.186493 42.8309895,19.108057 C43.2226094,19.0296209 43.5619653,18.9315759 43.8492013,18.8139219 L44.1820782,20.7748224 C43.9210462,20.9055972 43.5261148,21.0232512 42.997428,21.1277845 C42.4588328,21.2333229 41.9112225,21.2858636 41.3624148,21.2846565 C40.487749,21.2846565 39.7274017,21.1505655 39.0812289,20.8826719 C38.435056,20.6144899 37.8998901,20.242063 37.4755872,19.7649586 C37.0512843,19.28771 36.7348209,18.7191931 36.5259089,18.0589752 C36.317141,17.3986131 36.212613,16.6830286 36.212613,15.9117891 L36.212613,15.9117891 Z M55.0691117,15.8921801 C55.0691117,16.7024934 54.9516257,17.4412915 54.7166538,18.1079977 C54.4816818,18.7747039 54.1488049,19.343365 53.718023,19.8139811 C53.2872411,20.2845973 52.7683447,20.6506801 52.1613338,20.9120854 C51.554323,21.1734908 50.8852576,21.3042655 50.1542818,21.3042655 C49.423306,21.3042655 48.7576961,21.1734908 48.1570203,20.9120854 C47.5566324,20.6506801 47.0409035,20.2845973 46.6101216,19.8139811 C46.1793397,19.343365 45.8431513,18.7747039 45.6017004,18.1079977 C45.3602494,17.4412915 45.2394519,16.7026376 45.2394519,15.8921801 C45.2394519,15.0818668 45.3603934,14.3465291 45.6017004,13.686167 C45.8431513,13.0258049 46.1826512,12.4606042 46.6199121,11.9899881 C47.057173,11.5193719 47.5759254,11.1566053 48.1766013,10.9016883 C48.7769891,10.6467712 49.436408,10.5193127 50.1542818,10.5193127 C50.8722996,10.5193127 51.534742,10.6467712 52.1417529,10.9016883 C52.7487637,11.1566053 53.2676601,11.5193719 53.698442,11.9899881 C54.1292239,12.4606042 54.4654123,13.0259491 54.7068633,13.686167 C54.9483142,14.3465291 55.0691117,15.0818668 55.0691117,15.8921801 L55.0691117,15.8921801 Z M52.6410682,15.8921801 C52.6410682,14.8725118 52.4222218,14.0653706 51.9851049,13.470468 C51.547844,12.8757095 50.9375216,12.5782582 50.1542818,12.5782582 C49.371042,12.5782582 48.7605757,12.8757095 48.3234587,13.470468 C47.8861978,14.0652264 47.6674954,14.8725118 47.6674954,15.8921801 C47.6674954,16.9249691 47.8863418,17.7420591 48.3234587,18.3433058 C48.7607196,18.9445525 49.371042,19.24532 50.1542818,19.24532 C50.9375216,19.24532 51.547988,18.9446966 51.9851049,18.3433058 C52.4223658,17.7420591 52.6410682,16.9249691 52.6410682,15.8921801 Z M63.3518728,15.637263 C63.3518728,14.565256 63.2179733,13.7907003 62.9504624,13.3135959 C62.6826635,12.8363473 62.183492,12.5978672 61.4525162,12.5978672 C61.1914843,12.5978672 60.9042483,12.6174762 60.5909524,12.6566942 C60.2776565,12.6959123 60.0426845,12.7287862 59.8860366,12.7547393 L59.8860366,21.0297395 L57.5167361,21.0297395 L57.5167361,11.1075828 C57.973578,10.9768081 58.5706544,10.8526658 59.3083972,10.7350117 C60.045996,10.6173577 60.8259244,10.5585307 61.6483262,10.5585307 C62.353242,10.5585307 62.9308814,10.6500874 63.3812443,10.8330568 C63.8316072,11.0161703 64.2069576,11.2579666 64.5071515,11.55859 C64.6506975,11.4540567 64.8335494,11.3428909 65.0554194,11.2252369 C65.2771454,11.1075828 65.5253633,10.9997333 65.7994972,10.9016883 C66.0841817,10.8006678 66.3752796,10.7187817 66.6708515,10.6565757 C66.9775245,10.5912604 67.2876529,10.5585307 67.6009488,10.5585307 C68.3971466,10.5585307 69.053254,10.6728685 69.5688388,10.9016883 C70.0842797,11.1305081 70.4891456,11.4507404 70.7828606,11.8625295 C71.0765755,12.2743186 71.2788645,12.7708879 71.3898714,13.3528139 C71.5007344,13.9345958 71.5563099,14.5718885 71.5563099,15.2646919 L71.5563099,21.0297395 L69.1870094,21.0297395 L69.1870094,15.637263 C69.1870094,14.565256 69.0564215,13.7907003 68.7953895,13.3135959 C68.5343576,12.8363473 68.0317307,12.5978672 67.2876529,12.5978672 C66.908991,12.5978672 66.550054,12.6598663 66.2106981,12.7841528 C65.8713422,12.9081509 65.6167892,13.0292653 65.4470393,13.1469194 C65.5514233,13.4737842 65.6232682,13.820258 65.6624302,14.1861967 C65.7015922,14.5524237 65.7211732,14.9446038 65.7211732,15.362737 L65.7211732,21.0297395 L63.3518728,21.0297395 L63.3518728,15.637263 L63.3518728,15.637263 Z M80.2894339,15.637263 C80.2894339,14.565256 80.1555344,13.7907003 79.8880235,13.3135959 C79.6202246,12.8363473 79.1210531,12.5978672 78.3900773,12.5978672 C78.1290454,12.5978672 77.8418094,12.6174762 77.5285135,12.6566942 C77.2152176,12.6959123 76.9802456,12.7287862 76.8235977,12.7547393 L76.8235977,21.0297395 L74.4542972,21.0297395 L74.4542972,11.1075828 C74.9111391,10.9768081 75.5082155,10.8526658 76.2459583,10.7350117 C76.9835571,10.6173577 77.7634855,10.5585307 78.5858873,10.5585307 C79.2908031,10.5585307 79.8684425,10.6500874 80.3188054,10.8330568 C80.7691683,11.0161703 81.1445187,11.2579666 81.4447126,11.55859 C81.5882586,11.4540567 81.7711105,11.3428909 81.9929805,11.2252369 C82.2147065,11.1075828 82.4629244,10.9997333 82.7370583,10.9016883 C83.0217428,10.8006678 83.3128407,10.7187817 83.6084126,10.6565757 C83.9150856,10.5912604 84.225214,10.5585307 84.5385099,10.5585307 C85.3347077,10.5585307 85.9908151,10.6728685 86.5063999,10.9016883 C87.0218409,11.1305081 87.4267067,11.4507404 87.7204217,11.8625295 C88.0141366,12.2743186 88.2164256,12.7708879 88.3274325,13.3528139 C88.4382955,13.9345958 88.493871,14.5718885 88.493871,15.2646919 L88.493871,21.0297395 L86.1245705,21.0297395 L86.1245705,15.637263 C86.1245705,14.565256 85.9939826,13.7907003 85.7329506,13.3135959 C85.4719187,12.8363473 84.9692918,12.5978672 84.225214,12.5978672 C83.8465521,12.5978672 83.4876151,12.6598663 83.1482592,12.7841528 C82.8089033,12.9081509 82.5543503,13.0292653 82.3846004,13.1469194 C82.4889844,13.4737842 82.5608293,13.820258 82.5999913,14.1861967 C82.6391533,14.5524237 82.6587343,14.9446038 82.6587343,15.362737 L82.6587343,21.0297395 L80.2894339,21.0297395 L80.2894339,15.637263 L80.2894339,15.637263 Z M99.7921054,20.7159954 C99.3352635,20.8336494 98.7410667,20.9546197 98.0102348,21.078762 C97.279259,21.2027601 96.4764381,21.2650475 95.6017723,21.2650475 C94.7793705,21.2650475 94.0907242,21.1473935 93.5359773,20.9120854 C92.9812304,20.6767774 92.5373466,20.3497684 92.2044696,19.9316352 C91.8715927,19.513502 91.6333093,19.013184 91.4897633,18.4315463 C91.3462173,17.8497644 91.2743723,17.2124717 91.2743723,16.5196683 L91.2743723,10.7742297 L93.6436728,10.7742297 L93.6436728,16.1470972 C93.6436728,17.2452015 93.8034883,18.0295617 94.1234072,18.5001778 C94.4430381,18.9707939 95.0012405,19.206102 95.7975823,19.206102 C96.0848182,19.206102 96.3883237,19.1931254 96.7080986,19.166884 C97.0277295,19.1409309 97.266157,19.108057 97.4228049,19.0688389 L97.4228049,10.7742297 L99.7921054,10.7742297 L99.7921054,20.7159954 L99.7921054,20.7159954 Z M102.807579,11.1075828 C103.264421,10.9768081 103.858617,10.8526658 104.589449,10.7350117 C105.320425,10.6173577 106.130013,10.5585307 107.017493,10.5585307 C107.852997,10.5585307 108.551289,10.6728685 109.112659,10.9016883 C109.674173,11.1305081 110.121081,11.4507404 110.453957,11.8625295 C110.786834,12.2743186 111.021806,12.7708879 111.158873,13.3528139 C111.29594,13.9345958 111.364474,14.5718885 111.364474,15.2646919 L111.364474,21.0297395 L108.995173,21.0297395 L108.995173,15.637263 C108.995173,15.0882109 108.959179,14.6207668 108.887478,14.2352192 C108.815489,13.8495273 108.698147,13.5359274 108.53502,13.2939869 C108.371893,13.0521906 108.149879,12.8758537 107.869266,12.7645438 C107.588509,12.6535222 107.245842,12.5978672 106.841264,12.5978672 C106.54107,12.5978672 106.227918,12.6174762 105.901376,12.6566942 C105.574978,12.6959123 105.333527,12.7287862 105.176879,12.7547393 L105.176879,21.0297395 L102.807579,21.0297395 L102.807579,11.1075828 L102.807579,11.1075828 Z M116.651199,21.0297395 L114.281898,21.0297395 L114.281898,10.7742297 L116.651199,10.7742297 L116.651199,21.0297395 Z M116.905751,7.77405195 C116.905751,8.2185708 116.762205,8.57138871 116.47497,8.83293823 C116.187734,9.09434357 115.848378,9.22511834 115.456758,9.22511834 C115.05218,9.22511834 114.706201,9.09434357 114.418965,8.83293823 C114.131729,8.57153289 113.988183,8.21871498 113.988183,7.77405195 C113.988183,7.31655656 114.131729,6.95696201 114.418965,6.69555667 C114.706201,6.43415132 115.052036,6.30337656 115.456758,6.30337656 C115.848378,6.30337656 116.187734,6.43415132 116.47497,6.69555667 C116.762205,6.95696201 116.905751,7.31655656 116.905751,7.77405195 Z M119.549186,8.06818703 L121.918486,7.67600693 L121.918486,10.7742297 L125.560551,10.7742297 L125.560551,12.7547393 L121.918486,12.7547393 L121.918486,16.9314574 C121.918486,17.7550356 122.049074,18.3433058 122.310106,18.6962678 C122.571138,19.0492299 123.015022,19.225711 123.641614,19.225711 C124.072396,19.225711 124.454225,19.1800047 124.787102,19.088448 C125.119979,18.9968912 125.384323,18.9119669 125.580132,18.8335309 L125.971752,20.7159954 C125.697618,20.8336494 125.338682,20.9546197 124.894798,21.078762 C124.450914,21.2027601 123.928706,21.2650475 123.328318,21.2650475 C122.597342,21.2650475 121.98702,21.1670025 121.497495,20.9709125 C121.00797,20.7748224 120.619662,20.4904918 120.332426,20.1179207 C120.04519,19.7453496 119.842901,19.2943425 119.725415,18.7648994 C119.607929,18.2354562 119.549186,17.6308933 119.549186,16.9510664 L119.549186,8.06818703 L119.549186,8.06818703 Z M136.212613,10.7742297 C135.155239,14.6700777 133.928116,18.1996986 132.531386,21.3630926 C132.270354,21.9513627 132.002699,22.4545644 131.728565,22.872986 C131.454431,23.2911192 131.147614,23.6377372 130.808258,23.9122632 C130.472805,24.1847085 130.086823,24.3879721 129.672561,24.5103379 C129.255025,24.634336 128.771835,24.6966234 128.223567,24.6966234 C127.857863,24.6966234 127.495759,24.6574054 127.136822,24.5789694 C126.777885,24.5005334 126.506918,24.4156091 126.32421,24.3240523 L126.754992,22.4219788 C127.224936,22.6050923 127.688401,22.6965049 128.145243,22.6965049 C128.758589,22.6965049 129.238467,22.5494374 129.584446,22.2553023 C129.930425,21.9611672 130.233786,21.506988 130.494962,20.8924764 C129.750885,19.4545308 129.036178,17.8858104 128.350843,16.1863152 C127.665508,14.48682 127.055042,12.6826473 126.52002,10.7742297 L129.045969,10.7742297 C129.176557,11.3232819 129.336372,11.9180403 129.525703,12.5586492 C129.917261,13.8819721 130.358142,15.1901548 130.84742,16.4804503 C131.079389,17.0947765 131.327501,17.7028672 131.591498,18.3040877 C132.009034,17.140524 132.400654,15.9019846 132.766358,14.5881813 C133.119348,13.322231 133.452267,12.0507539 133.764989,10.7742297 L136.212613,10.7742297 L136.212613,10.7742297 Z" id="community" fill="#FFFFFF"></path>
                    <g id="logo/community/mark-sm">
                        <g id="Group-4" stroke-width="1" transform="translate(15.740812, 15.740812) rotate(-315.000000) translate(-15.740812, -15.740812) translate(4.610377, 4.610377)">
                            <rect id="Rectangle-194" fill="#182359" x="-4.94290599e-14" y="-2.69388376e-13" width="22.2608696" height="22.2608696"></rect>
                            <polygon id="Path" fill="#46AEDA" points="1.39130435 4.86956522 1.39130435 1.39130435 5.56521739 1.39130435 5.56521739 2.7826087 2.7826087 2.7826087 2.7826087 4.86956522"></polygon>
                            <polygon id="Path" fill="#FE336F" points="20.8695652 17.3913043 20.8695652 20.8695652 9.04347826 20.8695652 9.04347826 19.4782609 19.4782609 19.4782609 19.4782609 17.3913043"></polygon>
                            <polygon id="Path" fill="#F5A623" points="20.8695652 16 20.8695652 1.39130435 6.95652174 1.39130435 6.95652174 2.7826087 19.4782609 2.7826087 19.4782609 16"></polygon>
                            <polygon id="Path" fill="#50E3C2" points="1.39130435 14.6086957 1.39130435 20.8695652 7.65217391 20.8695652 7.65217391 19.4782609 2.7826087 19.4782609 2.7826087 14.6086957"></polygon>
                            <polygon id="Path" fill="#BD0FE1" points="1.39130435 13.2173913 1.39130435 6.26086957 2.7826087 6.26086957 2.7826087 13.2173913"></polygon>
                        </g>
                        <path d="M15.7695743,11.5416651 C13.1459302,11.5416651 11.0174095,13.6710049 11.0174095,16.3007652 C11.0174095,18.9305254 13.1459302,21.0547589 15.7695743,21.0547589 C18.3932185,21.0547589 20.5217391,18.925419 20.5217391,16.2956588 C20.5217391,13.6658986 18.3983229,11.5416651 15.7695743,11.5416651 Z M15.7695743,19.650518 C13.9217938,19.650518 12.4211102,18.1492568 12.4211102,16.3007652 C12.4211102,14.4522735 13.9217938,12.9510123 15.7695743,12.9510123 C17.6173548,12.9510123 19.1180385,14.4522735 19.1180385,16.3007652 C19.1180385,18.1492568 17.6224592,19.650518 15.7695743,19.650518 Z M15.7695743,13.6352606 L15.7695743,16.1322562 C15.7695743,16.2037449 15.8461398,16.2548082 15.9124966,16.2190639 L18.1277915,15.0701395 C18.1788351,15.0446078 18.1941482,14.9833319 18.1686264,14.9322686 C17.7092334,14.1254684 16.8568043,13.5739847 15.8716617,13.5382403 C15.820618,13.5382403 15.7695743,13.579091 15.7695743,13.6352606 Z M12.6661198,11.802088 L12.3751709,11.5110271 C12.0893264,11.2250726 11.6299335,11.2250726 11.344089,11.5110271 L10.9969921,11.8582576 C10.7111476,12.1442121 10.7111476,12.6037819 10.9969921,12.8897364 L11.2828366,13.1756909 C11.3287759,13.2216478 11.3951326,13.2114352 11.4359676,13.1654782 C11.6044116,12.9356933 11.7881688,12.7161211 11.9923435,12.5118679 C12.2016225,12.3025084 12.4160058,12.1186805 12.6508067,11.9501716 C12.7018503,11.9195336 12.7069547,11.8480449 12.6661198,11.802088 Z M17.326406,11.046351 L17.326406,10.4693357 C17.326406,10.0659356 16.9997266,9.73913043 16.5964816,9.73913043 L14.8967277,9.73913043 C14.4934828,9.73913043 14.1668034,10.0659356 14.1668034,10.4693357 L14.1668034,11.06167 C14.1668034,11.1280523 14.2280558,11.1740093 14.2944125,11.1586903 C14.7691186,11.0208194 15.2693465,10.9493308 15.7746787,10.9493308 C16.2595935,10.9493308 16.7394039,11.0157131 17.2039012,11.1433713 C17.2651536,11.1586903 17.326406,11.1127333 17.326406,11.046351 Z" id="Shape" fill="#FFFFFF"></path>
                    </g>
                </g>
            </g>
        </g>
    </g>
</svg>