<?xml version="1.0" encoding="UTF-8"?>
<svg width="80px" height="80px" viewBox="0 0 80 80" version="1.1" xmlns="http://www.w3.org/2000/svg" xmlns:xlink="http://www.w3.org/1999/xlink">
    <!-- Generator: Sketch 42 (36781) - http://www.bohemiancoding.com/sketch -->
    <title>typotolerant-icon</title>
    <desc>Created with Sketch.</desc>
    <defs></defs>
    <g id="Page-1" stroke="none" stroke-width="1" fill="none" fill-rule="evenodd">
        <g id="typotolerant-icon" stroke-width="2">
            <g id="feature-icons/illus-feat-typo-tolerance" transform="translate(17.000000, 10.000000)">
                <polygon id="Fill-5668" stroke="#182359" points="14.140497 40.6173394 18.8637944 40.6173394 19.1261998 5.5543915 8.43232732 5.5543915 8.16992191 12.2267379 1.6097866 12.2267379 1.87219202 0.191369954 43.5321751 0.191369954 43.7945805 12.2267379 37.2344452 12.2267379 36.9720398 5.5543915 26.4746873 5.5543915 26.2122819 40.6173394 31.5262755 40.6173394 31.5262755 45.9814935 14.140497 45.9814935"></polygon>
                <path d="M0.690746823,59.3604145 C6.10928969,59.3604144 2.49692778,52.6070331 7.61444048,52.6070331 C12.7319532,52.6070331 8.81856112,59.3604145 14.8391643,59.3604145 C20.8597675,59.3604145 17.5484357,52.6070331 22.9669786,52.6070331 C28.3855215,52.6070331 25.1503292,59.3604145 30.3430994,59.3604145 C35.5358697,59.3604145 33.9536975,52.6070331 38.0184866,52.6070331 C42.0832756,52.6070331 39.5236374,59.3604145 45.5442405,59.3604145" id="Path-235" stroke="#2DDE98"></path>
            </g>
        </g>
    </g>
</svg>