<svg xmlns="http://www.w3.org/2000/svg" width="1407" height="448" viewBox="0 0 1407 448">
    <defs>
        <linearGradient id="a" x1="100%" x2="0%" y1="100%" y2="100%">
            <stop offset="0%" stop-color="#00AEFF"/>
            <stop offset="100%" stop-color="#3369E6"/>
        </linearGradient>
        <linearGradient id="b" x1="97.305%" x2="0%" y1="100%" y2="100%">
            <stop offset="0%" stop-color="#FFD141"/>
            <stop offset="100%" stop-color="#FFD141" stop-opacity="0"/>
        </linearGradient>
        <linearGradient id="c" x1="21.895%" x2="77.978%" y1="121.561%" y2="8.499%">
            <stop offset="0%" stop-color="#201C38"/>
            <stop offset="100%" stop-color="#3E396B"/>
        </linearGradient>
    </defs>
    <g fill="none" fill-rule="evenodd">
        <path fill="url(#a)" d="M0 320h163.46c8.839 0 16.004 7.162 16.004 16 0 8.837-7.16 16-16.005 16H0v-32z" opacity=".935"/>
        <path fill="url(#b)" d="M0 352h272.94c8.835 0 15.998 7.162 15.998 16 0 8.837-7.16 16-15.998 16H0v-32z" opacity=".4"/>
        <path fill="url(#b)" d="M0 416h91.674c8.84 0 16.005 7.162 16.005 16 0 8.837-7.17 16-16.005 16H0v-32z" opacity=".2"/>
        <path fill="url(#c)" d="M0 64h276.526c8.837 0 16 7.162 16 16 0 8.837-7.158 16-16 16H0V64z" opacity=".9"/>
        <path fill="url(#a)" d="M0 32h186.797c8.835 0 15.998 7.162 15.998 16 0 8.837-7.158 16-15.998 16H0V32z" opacity=".935"/>
        <path fill="url(#b)" d="M0 0h73.742c8.83 0 15.99 7.162 15.99 16 0 8.837-7.154 16-15.99 16H0V0z" opacity=".2"/>
        <path fill="url(#b)" d="M0 224h1275.24c8.84 0 16.006 7.162 16.006 16 0 8.837-7.163 16-16.006 16H0v-32z"/>
        <path fill="url(#b)" d="M0 192h1347.93c8.836 0 15.999 7.162 15.999 16 0 8.837-7.155 16-15.998 16H0v-32z" opacity=".9"/>
        <path fill="url(#b)" d="M0 192h822.996c8.836 0 16 7.162 16 16 0 8.837-7.159 16-16 16H0v-32zM0 160h1202.57c8.832 0 15.993 7.162 15.993 16 0 8.837-7.157 16-15.994 16H0v-32z" opacity=".9"/>
        <path fill="url(#b)" d="M0 160h1391.002c8.835 0 15.998 7.162 15.998 16 0 8.837-7.173 16-15.998 16H0v-32z" opacity=".4"/>
        <path fill="url(#b)" d="M0 128h1275.24c8.84 0 16.006 7.162 16.006 16 0 8.837-7.163 16-16.006 16H0v-32z" opacity=".2"/>
        <path fill="url(#b)" d="M0 96h835.565c8.833 0 15.993 7.162 15.993 16 0 8.837-7.17 16-15.993 16H0V96z" opacity=".4"/>
        <path fill="url(#b)" d="M0 160h1053.604c8.838 0 16.003 7.162 16.003 16 0 8.837-7.167 16-16.003 16H0v-32z" opacity=".2" style="mix-blend-mode:overlay"/>
        <path fill="url(#a)" d="M0 160h415.61c8.837 0 16.002 7.162 16.002 16 0 8.837-7.154 16-16.003 16H0v-32z" opacity=".935"/>
        <path fill="url(#b)" d="M0 96h480.218c8.837 0 16 7.162 16 16 0 8.837-7.157 16-16 16H0V96zM0 128h718.906c8.837 0 16 7.162 16 16 0 8.837-7.155 16-16 16H0v-32zM0 256h630.08c8.832 0 15.991 7.162 15.991 16 0 8.837-7.172 16-15.99 16H0v-32z" opacity=".9"/>
        <path fill="url(#b)" d="M0 128h247.806c8.84 0 16.006 7.162 16.006 16 0 8.837-7.158 16-16.006 16H0v-32z" opacity=".2" style="mix-blend-mode:overlay"/>
        <path fill="url(#b)" d="M0 256h199.357c8.837 0 16 7.162 16 16 0 8.837-7.165 16-16 16H0v-32z" opacity=".3" style="mix-blend-mode:overlay"/>
        <path fill="url(#b)" d="M0 288h561.873c8.838 0 16.002 7.162 16.002 16 0 8.837-7.163 16-16.002 16H0v-32z" opacity=".4"/>
        <path fill="url(#b)" d="M0 288h701.857c8.837 0 16 7.162 16 16 0 8.837-7.163 16-16 16H0v-32z" opacity=".4"/>
        <path fill="url(#c)" d="M0 288h342.926c8.838 0 16.003 7.162 16.003 16 0 8.837-7.17 16-16.003 16H0v-32z" opacity=".9"/>
    </g>
</svg>
