<svg width="63" height="54" viewBox="0 0 63 54" xmlns="http://www.w3.org/2000/svg"><title>e-commerce</title><defs><linearGradient x1="10.361%" y1="87.361%" x2="82.981%" y2="1.146%" id="a"><stop stop-color="#2EDE98" offset="0%"/><stop stop-color="#1CC7D0" offset="100%"/></linearGradient></defs><path d="M9.8 39h41.6c.4 0 .8-.2.9-.6l10.4-25.9c.1-.3.1-.7-.1-.9-.2-.3-.5-.4-.8-.4H11.4v-.6C11.4 5 6.8.4 1.2.4c-.6 0-1 .4-1 1s.4 1 1 1c4.5 0 8.2 3.7 8.2 8.2V37c-2.5.2-4.4 2.3-4.4 4.8 0 2.6 2.2 4.8 4.8 4.8h.3c0 .3-.1.5-.1.8 0 3.1 2.6 5.7 5.7 5.7s5.7-2.6 5.7-5.7c0-.3 0-.6-.1-.9h22.8c0 .3-.1.6-.1.9 0 3.1 2.6 5.7 5.7 5.7s5.7-2.6 5.7-5.7-2.6-5.7-5.7-5.7c-2.1 0-3.9 1.1-4.9 2.8H20.6c-1-1.7-2.8-2.8-4.9-2.8-2.1 0-4 1.2-5 2.9h-.9c-1.5 0-2.8-1.3-2.8-2.8C7 40.3 8.3 39 9.8 39zm50.5-25.9L50.7 37H11.4V13.1h48.9zM49.7 43.7c2 0 3.7 1.7 3.7 3.7s-1.7 3.7-3.7 3.7-3.7-1.7-3.7-3.7 1.7-3.7 3.7-3.7zm-34 0c2 0 3.7 1.7 3.7 3.7s-1.7 3.7-3.7 3.7-3.7-1.7-3.7-3.7c0-.4.1-.7.2-1.1.2-.2.3-.4.3-.7.6-1.1 1.8-1.9 3.2-1.9z" fill-rule="nonzero" fill="url(#a)"/></svg>