<svg id="Layer_1" xmlns="http://www.w3.org/2000/svg" viewBox="0 0 400 400"><path class="st0" fill="none" stroke="#FFFFFF" stroke-width="8" stroke-linecap="round" stroke-miterlimit="10" d="M237.6 152.1c41.1 6.8 70.5 25 70.5 46.3 0 13.3-11.4 25.4-29.9 34.2"/><path class="st0" fill="none" stroke="#FFFFFF" stroke-width="8" stroke-linecap="round" stroke-miterlimit="10" d="M207.8 116.8c17.8-12.9 35-17.5 47-10.5 18 10.4 19.5 43.3 6.1 80.9M269.4 246.6c1.8 21-2.9 37.3-14.6 44.1-17.8 10.3-46.7-4.5-72.5-34.4"/><g><path class="st0" fill="none" stroke="#FFFFFF" stroke-width="8" stroke-linecap="round" stroke-miterlimit="10" d="M161.4 152.1c-41.1 6.8-70.5 25-70.5 46.3 0 13.3 11.4 25.4 29.9 34.2"/><path class="st0" fill="none" stroke="#FFFFFF" stroke-width="8" stroke-linecap="round" stroke-miterlimit="10" d="M191.3 116.8c-17.8-12.9-35-17.5-47-10.5-18 10.4-19.5 43.3-6.1 80.9M129.6 246.6c-1.8 21 2.9 37.3 14.6 44.1 17.8 10.3 46.7-4.5 72.5-34.4"/></g><g><circle class="st1" fill="none" stroke="#FFFFFF" stroke-width="10" stroke-linecap="round" stroke-miterlimit="10" cx="200" cy="152.9" r="22.6"/><circle class="st1" fill="none" stroke="#FFFFFF" stroke-width="10" stroke-linecap="round" stroke-miterlimit="10" cx="240.8" cy="223.5" r="22.6"/><circle class="st1" fill="none" stroke="#FFFFFF" stroke-width="10" stroke-linecap="round" stroke-miterlimit="10" cx="159.3" cy="223.5" r="22.6"/><path class="st1" fill="none" stroke="#FFFFFF" stroke-width="10" stroke-linecap="round" stroke-miterlimit="10" d="M218.7 185.2l-7.4-12.8M218.7 185.2l3.4 6M203.5 223.5h14.7M170.5 204l7.4-12.8M177.9 191.2l3.5-6M196.6 223.5h6.9"/></g></svg>
