<svg width="91px" height="29px" viewBox="0 0 91 29" version="1.1" xmlns="http://www.w3.org/2000/svg" xmlns:xlink="http://www.w3.org/1999/xlink">
    <!-- Generator: Sketch 40.3 (33839) - http://www.bohemiancoding.com/sketch -->
    <title>logo-algolia</title>
    <desc>Created with Sketch.</desc>
    <defs></defs>
    <g id="Page-1" stroke="none" stroke-width="1" fill="none" fill-rule="evenodd">
        <g id="logo-algolia" fill="#000000">
            <path d="M54.778,11.404 L53.584,15.472 L57.429,13.446 C56.869,12.461 55.917,11.716 54.777,11.404 L54.778,11.404 Z M47.448,8.07 C46.856,7.524 45.893,7.524 45.298,8.07 L45.031,8.317 C44.438,8.863 44.438,9.747 45.031,10.294 L45.317,10.557 C45.937,9.649 46.709,8.855 47.603,8.211 L47.45,8.071 L47.448,8.07 Z M56.188,6.796 C56.188,6.766 56.198,6.736 56.198,6.703 L56.198,5.966 C56.198,5.153 55.538,4.493 54.726,4.493 L52.15,4.493 C51.34,4.493 50.68,5.153 50.68,5.966 L50.68,6.69 C52.487,6.182 54.403,6.22 56.187,6.797 L56.188,6.796 Z M45.456,15.724 C45.456,20.177 49.096,23.788 53.584,23.788 C58.074,23.788 61.712,20.178 61.712,15.725 C61.712,11.272 58.072,7.66 53.584,7.66 C49.094,7.66 45.456,11.272 45.456,15.724 L45.456,15.724 Z M53.584,9.964 C56.784,9.964 59.389,12.548 59.389,15.724 C59.389,18.9 56.784,21.484 53.583,21.484 C50.383,21.484 47.778,18.9 47.778,15.724 C47.778,12.548 50.381,9.964 53.582,9.964 L53.584,9.964 Z" id="Shape"></path>
            <path d="M16.484,23.5 C16.147,22.614 15.834,21.744 15.536,20.888 C15.234,20.016 14.928,19.146 14.618,18.278 L5.32,18.278 L3.455,23.498 L0.465,23.498 C1.195,21.494 1.935,19.493 2.685,17.495 C3.343,15.743 4.019,13.997 4.715,12.259 C5.375,10.604 6.032,9.026 6.683,7.521 C7.333,6.017 8.015,4.527 8.726,3.051 L11.362,3.051 C12.072,4.527 12.752,6.017 13.405,7.521 C14.083,9.091 14.739,10.671 15.373,12.257 C16.068,13.997 16.743,15.741 17.403,17.494 C18.093,19.334 18.833,21.334 19.623,23.498 L16.483,23.498 L16.484,23.5 Z M13.789,15.917 C13.174,14.255 12.547,12.597 11.907,10.945 C11.287,9.342 10.639,7.803 9.967,6.327 C9.26,7.844 8.605,9.384 8,10.945 C7.36,12.595 6.744,14.251 6.15,15.917 L13.79,15.917 L13.789,15.917 Z M26.503,23.5 C24.849,23.46 23.675,23.1 22.983,22.415 C22.289,21.731 21.943,20.667 21.943,19.219 L21.943,0.93 L24.626,0.46 L24.626,18.78 C24.626,19.23 24.666,19.6 24.742,19.893 C24.819,20.186 24.944,20.42 25.117,20.597 C25.29,20.772 25.521,20.904 25.81,20.992 C26.1,21.08 26.456,21.154 26.88,21.212 L26.504,23.498 L26.503,23.5 Z M39.55,21.648 C39.318,21.804 38.866,22.003 38.196,22.246 C37.526,22.49 36.742,22.612 35.848,22.612 C34.935,22.612 34.075,22.465 33.268,22.174 C32.468,21.886 31.746,21.422 31.155,20.814 C30.552,20.204 30.075,19.438 29.725,18.524 C29.375,17.609 29.201,16.519 29.201,15.254 C29.201,14.144 29.367,13.126 29.698,12.201 C30.028,11.278 30.508,10.479 31.141,9.807 C31.771,9.135 32.544,8.61 33.458,8.23 C34.373,7.85 35.403,7.66 36.55,7.66 C37.812,7.66 38.915,7.753 39.858,7.938 C40.8,8.124 41.592,8.293 42.233,8.448 L42.233,22 C42.233,24.337 41.631,26.03 40.426,27.08 C39.22,28.132 37.394,28.657 34.944,28.657 C34.04,28.662 33.138,28.584 32.248,28.425 C31.403,28.268 30.668,28.085 30.048,27.87 L30.543,25.505 C31.087,25.718 31.753,25.909 32.539,26.075 C33.349,26.242 34.174,26.325 35.002,26.323 C36.615,26.323 37.776,26.003 38.486,25.36 C39.196,24.718 39.55,23.695 39.55,22.294 L39.55,21.652 L39.55,21.648 Z M38.43,10.158 C37.97,10.088 37.354,10.055 36.577,10.055 C35.119,10.055 33.997,10.532 33.209,11.485 C32.421,12.44 32.029,13.705 32.029,15.282 C32.029,16.157 32.139,16.907 32.363,17.532 C32.587,18.152 32.888,18.669 33.267,19.078 C33.629,19.475 34.077,19.784 34.579,19.983 C35.075,20.178 35.586,20.275 36.109,20.275 C36.829,20.275 37.489,20.173 38.092,19.969 C38.694,19.763 39.172,19.525 39.522,19.252 L39.522,10.376 C39.249,10.298 38.885,10.226 38.429,10.156 L38.43,10.158 Z M68.884,23.498 C67.229,23.46 66.054,23.1 65.364,22.415 C64.67,21.731 64.324,20.665 64.324,19.219 L64.324,0.93 L67.008,0.46 L67.008,18.78 C67.008,19.23 67.048,19.6 67.124,19.894 C67.201,20.187 67.324,20.422 67.499,20.598 C67.669,20.773 67.899,20.906 68.189,20.994 C68.479,21.081 68.834,21.154 69.259,21.214 L68.883,23.5 L68.884,23.498 Z M73.904,5.193 C73.419,5.193 73.007,5.031 72.669,4.709 C72.329,4.385 72.161,3.949 72.161,3.402 C72.161,2.854 72.331,2.418 72.668,2.096 C73.005,1.773 73.418,1.611 73.9,1.611 C74.384,1.611 74.795,1.771 75.134,2.096 C75.472,2.419 75.642,2.854 75.642,3.401 C75.642,3.948 75.472,4.383 75.134,4.707 C74.794,5.03 74.384,5.191 73.9,5.191 L73.904,5.193 Z M72.567,7.95 L75.267,7.95 L75.267,23.212 L72.567,23.212 L72.567,7.95 L72.567,7.95 Z M84.861,7.66 C85.958,7.66 86.883,7.804 87.638,8.09 C88.39,8.377 88.998,8.782 89.458,9.305 C89.918,9.829 90.248,10.452 90.443,11.175 C90.638,11.895 90.737,12.691 90.737,13.561 L90.737,23.197 L89.752,23.359 C89.278,23.435 88.802,23.499 88.326,23.552 C87.796,23.612 87.223,23.667 86.606,23.716 C85.989,23.766 85.376,23.79 84.77,23.79 C83.908,23.79 83.115,23.7 82.39,23.523 C81.665,23.346 81.038,23.065 80.51,22.679 C79.98,22.294 79.57,21.785 79.275,21.153 C78.98,20.52 78.833,19.759 78.833,18.87 C78.833,18.02 79.003,17.29 79.348,16.676 C79.68,16.074 80.16,15.564 80.743,15.194 C81.331,14.82 82.017,14.544 82.8,14.364 C83.61,14.184 84.438,14.094 85.27,14.098 C85.543,14.098 85.827,14.113 86.12,14.142 C86.415,14.172 86.694,14.212 86.96,14.262 C87.224,14.31 87.454,14.355 87.65,14.395 C87.845,14.435 87.983,14.465 88.06,14.483 L88.06,13.713 C88.06,13.259 88.01,12.809 87.914,12.363 C87.822,11.937 87.642,11.533 87.384,11.179 C87.13,10.834 86.782,10.557 86.341,10.349 C85.901,10.141 85.327,10.037 84.621,10.037 C83.721,10.037 82.933,10.102 82.256,10.231 C81.581,10.359 81.076,10.493 80.744,10.631 L80.421,8.348 C80.774,8.19 81.361,8.036 82.184,7.888 C83.007,7.74 83.899,7.666 84.858,7.666 L84.856,7.666 L84.861,7.66 Z M85.096,21.475 C85.669,21.477 86.243,21.462 86.816,21.43 C87.314,21.4 87.731,21.347 88.064,21.267 L88.064,16.672 C87.867,16.574 87.549,16.49 87.109,16.422 C86.667,16.352 86.134,16.317 85.507,16.317 C85.097,16.317 84.66,16.347 84.2,16.407 C83.74,16.465 83.318,16.589 82.937,16.777 C82.563,16.957 82.237,17.221 81.982,17.547 C81.728,17.873 81.6,18.303 81.6,18.837 C81.6,19.825 81.913,20.511 82.54,20.897 C83.167,21.283 84.02,21.477 85.097,21.477 L85.097,21.475 L85.096,21.475 Z" id="Shape"></path>
        </g>
    </g>
</svg>