<?xml version="1.0" encoding="utf-8"?>
<!-- Generator: Adobe Illustrator 21.0.0, SVG Export Plug-In . SVG Version: 6.00 Build 0)  -->
<svg version="1.1" baseProfile="basic" id="Layer_1"
	 xmlns="http://www.w3.org/2000/svg" xmlns:xlink="http://www.w3.org/1999/xlink" x="0px" y="0px" viewBox="0 0 69 69"
	 xml:space="preserve">
<style type="text/css">
	.st0{fill:url(#SVGID_1_);}
	.st1{fill:url(#SVGID_2_);}
</style>
<g>
	<g>
		<linearGradient id="SVGID_1_" gradientUnits="userSpaceOnUse" x1="15.6001" y1="52.6001" x2="53.7134" y2="14.4868">
			<stop  offset="0" style="stop-color:#2751AF"/>
			<stop  offset="1" style="stop-color:#32C0F9"/>
		</linearGradient>
		<path class="st0" d="M34.5,60.2C19.9,60.2,8,48.3,8,33.7S19.9,7.2,34.5,7.2S61,19.1,61,33.7S49.1,60.2,34.5,60.2z M34.5,9.2
			C21,9.2,10,20.2,10,33.7c0,13.5,11,24.5,24.5,24.5C48,58.2,59,47.2,59,33.7C59,20.2,48,9.2,34.5,9.2z"/>
	</g>
	<g>
		<linearGradient id="SVGID_2_" gradientUnits="userSpaceOnUse" x1="14.9249" y1="51.9249" x2="53.0382" y2="13.8116">
			<stop  offset="0" style="stop-color:#2751AF"/>
			<stop  offset="1" style="stop-color:#32C0F9"/>
		</linearGradient>
		<path class="st1" d="M30.3,42.4c-0.2,0-0.3,0-0.5-0.1c-0.3-0.2-0.5-0.5-0.5-0.9V26.1c0-0.4,0.2-0.7,0.5-0.9c0.3-0.2,0.7-0.2,1,0
			l13.3,7.6c0.3,0.2,0.5,0.5,0.5,0.9s-0.2,0.7-0.5,0.9l-13.3,7.7C30.6,42.4,30.5,42.4,30.3,42.4z M31.3,27.8v11.8l10.3-6L31.3,27.8z
			"/>
	</g>
</g>
</svg>
