<?xml version="1.0" encoding="UTF-8" standalone="no"?>
<svg width="127px" height="28px" viewBox="0 0 127 28" version="1.1" xmlns="http://www.w3.org/2000/svg" xmlns:xlink="http://www.w3.org/1999/xlink">
    <!-- Generator: Sketch 3.8.2 (29753) - http://www.bohemiancoding.com/sketch -->
    <title>medium</title>
    <desc>Created with Sketch.</desc>
    <defs></defs>
    <g id="Page-1" stroke="none" stroke-width="1" fill="none" fill-rule="evenodd" opacity="0.9">
        <g id="medium" fill="#FFFFFF">
            <g id="logo-medium">
                <g id="Page-1">
                    <g id="Group-8">
                        <g id="Group-7">
                            <g id="logo-medium">
                                <g id="Group">
                                    <g id="Group-2">
                                        <path d="M22.5109861,0.326048208 C22.4565248,0.299414682 22.4032074,0.278958931 22.3514662,0.264410481 C22.4058386,0.28032326 22.4592227,0.30082703 22.5110428,0.326087306 L22.5109861,0.326048208 Z M21.6335458,22.9272529 L30.5739649,27.4489735 C31.5577829,27.9463783 32.3553485,27.5981949 32.3553485,26.6711567 L32.3553485,5.44938056 C32.3553485,5.37602116 32.3212146,5.3075636 32.2649844,5.26359524 C32.3068614,5.3018116 32.3178688,5.36630997 32.2868101,5.41736013 L21.6335458,22.9272529 L21.6335458,22.9272529 Z M32.2273267,5.23961 C32.2272794,5.23958596 32.2272321,5.23956193 32.2271848,5.23953791 L22.5242377,0.332639466 L32.2273267,5.23961 L32.2273267,5.23961 Z" id="Combined-Shape" opacity="0.25"></path>
                                        <path d="M14.6233348,11.4047122 L21.1116705,0.739889653 C21.3987327,0.267976841 22.0343264,0.0848696955 22.5242377,0.332639466 L32.2382493,5.24513371 C32.3012554,5.27715414 32.3236918,5.35673891 32.2868101,5.41736013 L21.6335458,22.9272529 L16.2727981,20.2160858 L21.6335458,22.9272529 L14.6233348,11.4047122 L14.6233348,11.4047122 Z" id="Combined-Shape" opacity="0.5"></path>
                                        <path d="M10.9120505,17.5049187 L21.6335458,22.9272529 L10.9351015,5.34243853 C10.9200415,5.31756829 10.8982199,5.29767209 10.8724027,5.28461522 L10.8587304,5.27770054 C10.8914913,5.29643566 10.9120505,5.33139351 10.9120505,5.36948491 L10.9120505,17.5049187 L10.9120505,17.5049187 Z" id="Combined-Shape" opacity="0.75"></path>
                                        <path d="M10.9120505,26.6711567 C10.9120505,27.5944644 10.243878,28.0119736 9.42756415,27.5991276 L1.08093966,23.3777151 C0.591028423,23.1299454 0.190247839,22.4739928 0.190247839,21.9200082 L0.190247839,1.22517022 C0.190247839,0.486524079 0.724724401,0.152330223 1.37783693,0.482793543 L10.8542693,5.27528888 C10.8896142,5.2933198 10.9120505,5.32969253 10.9120505,5.36948491 L10.9120505,26.6711567" id="Fill-4"></path>
                                    </g>
                                    <path d="M124.034492,22.7587476 C124.034492,22.8990728 124.117695,22.9832307 124.256334,22.9832307 L126.585808,22.9832307 C126.724448,22.9832307 126.80765,22.8990728 126.80765,22.7587476 L126.80765,15.3535008 C126.80765,13.922909 126.585808,13.0252554 126.225327,12.2960106 C125.448836,10.8093446 123.95129,10.1641648 122.120937,10.1641648 C120.457079,10.1641648 118.931861,10.7531773 117.73936,11.9312953 C116.851902,10.7531773 115.548525,10.1641648 113.96787,10.1641648 C112.470324,10.1641648 111.277823,10.5568708 110.14085,11.3983571 L108.227386,10.4166385 C107.894578,10.2483227 107.672737,10.4166385 107.672737,10.7251866 L107.672737,22.7587476 C107.672737,22.8990728 107.755939,22.9832307 107.894578,22.9832307 L110.224052,22.9832307 C110.362692,22.9832307 110.445894,22.8990728 110.445894,22.7587476 L110.445894,15.016869 C110.445894,14.2875313 110.501331,13.9509926 110.861904,13.5582866 C111.471991,12.8850232 112.387122,12.5204008 113.330018,12.5204008 C114.883,12.5204008 115.853569,13.4179614 115.853569,15.0729433 L115.853569,22.7587476 C115.853569,22.8990728 115.936771,22.9832307 116.07541,22.9832307 L118.404884,22.9832307 C118.543616,22.9832307 118.626818,22.8990728 118.626818,22.7587476 L118.626818,15.016869 C118.626818,14.2875313 118.682255,13.9509926 119.042736,13.5582866 C119.652823,12.8850232 120.568046,12.5204008 121.51085,12.5204008 C122.536947,12.5204008 123.313439,12.9131068 123.729449,13.6704352 C123.923526,14.0631412 124.034492,14.5680887 124.034492,15.2693428 L124.034492,22.7587476 L124.034492,22.7587476 L124.034492,22.7587476 Z M87.0125137,6.54565278 C87.0125137,7.41522272 87.7335677,8.1164768 88.6486985,8.1164768 C89.5638293,8.1164768 90.2848833,7.41522272 90.2848833,6.54565278 C90.2848833,5.67608284 89.5638293,4.97482876 88.6486985,4.97482876 C87.7335677,4.97482876 87.0125137,5.67608284 87.0125137,6.54565278 L87.0125137,6.54565278 L87.0125137,6.54565278 Z M61.0000534,15.016869 C61.2774243,13.4179614 62.4421613,12.3801686 64.2169856,12.3801686 C65.9918098,12.3801686 67.0733448,13.6143609 67.0733448,15.0729433 C67.0733448,15.1291106 67.0455801,15.1571013 66.9901427,15.1571013 L61.0832555,15.1571013 C60.9723807,15.1571013 61.0000534,15.0449527 61.0000534,15.016869 L61.0000534,15.016869 L61.0000534,15.016869 Z M87.2621199,22.7587476 C87.2621199,22.8990728 87.345322,22.9832307 87.4839615,22.9832307 L89.8134355,22.9832307 C89.952075,22.9832307 90.0352771,22.8990728 90.0352771,22.7587476 L90.0352771,10.5568708 C90.0352771,10.4166385 89.952075,10.3324806 89.8134355,10.3324806 L87.4839615,10.3324806 C87.345322,10.3324806 87.2621199,10.4166385 87.2621199,10.5568708 L87.2621199,22.7587476 L87.2621199,22.7587476 L87.2621199,22.7587476 Z M74.8382583,16.5876931 C74.8382583,13.8948253 76.3080389,12.4923171 78.1660652,12.4923171 C79.1089607,12.4923171 79.9686542,12.7167073 80.6897081,13.3618871 C81.1888286,13.8106674 81.244266,14.2033734 81.244266,15.1571013 L81.244266,18.3268329 C81.244266,19.028087 81.2165933,19.3366351 80.7728182,19.7854154 C79.9132168,20.6269947 78.997994,20.8513848 78.1660652,20.8513848 C76.6962846,20.8513848 74.8382583,19.897657 74.8382583,16.5876931 L74.8382583,16.5876931 L74.8382583,16.5876931 Z M98.4380425,20.8513848 C97.2733055,20.8513848 96.4690494,20.4025115 96.1085684,19.5891089 C95.9421643,19.2243935 95.8589622,18.7475296 95.8589622,18.0182849 L95.8589622,10.5568708 C95.8589622,10.4166385 95.7757602,10.3324806 95.6371207,10.3324806 L93.3076466,10.3324806 C93.1690072,10.3324806 93.0858051,10.4166385 93.0858051,10.5568708 L93.0858051,18.1304334 C93.0858051,19.3085515 93.2522092,20.0939635 93.5294882,20.7391433 C94.2782149,22.3941252 95.8867269,23.1795372 97.9943594,23.1795372 C99.5750149,23.1795372 100.767517,22.7868312 101.959926,21.9453449 L103.873482,22.9270634 C104.206198,23.0953793 104.428132,22.9270634 104.428132,22.6185154 L104.428132,10.5568708 C104.428132,10.4166385 104.34493,10.3324806 104.206198,10.3324806 L101.876724,10.3324806 C101.738085,10.3324806 101.654883,10.4166385 101.654883,10.5568708 L101.654883,18.3268329 C101.654883,19.028087 101.62721,19.3366351 101.183435,19.7854154 C100.323742,20.6269947 99.4086107,20.8513848 98.4380425,20.8513848 L98.4380425,20.8513848 L98.4380425,20.8513848 Z M58.1436942,16.5876931 C58.1436942,21.2720815 61.2496596,23.1795372 64.355625,23.1795372 C66.1582139,23.1795372 67.8498361,22.6745896 69.2918521,21.5806296 C69.4305835,21.468481 69.4582562,21.384323 69.3750542,21.2160072 L68.6263275,19.7854154 C68.5431254,19.6170995 68.4322506,19.6170995 68.2935192,19.7012575 C66.96247,20.4866695 65.8531703,20.8513848 64.5220292,20.8513848 C62.9412818,20.8513848 61.1387848,20.0378892 60.8891786,17.4011887 C60.8891786,17.3731051 60.8891786,17.3170308 60.9723807,17.3170308 L69.652425,17.3170308 C69.929704,17.3170308 69.9020312,16.8401668 69.9020312,16.4193772 C69.9020312,11.9033046 67.2397489,10.1641648 64.272423,10.1641648 C60.8059765,10.1641648 58.1436942,12.4923171 58.1436942,16.5876931 L58.1436942,16.5876931 L58.1436942,16.5876931 Z M84.0175151,5.2552932 C84.0175151,5.11506098 83.934313,5.03090305 83.7956735,5.03090305 L81.4661995,5.03090305 C81.3274681,5.03090305 81.244266,5.11506098 81.244266,5.2552932 L81.244266,10.7812609 C81.244266,10.8654188 81.2165933,10.8935025 81.1333912,10.8654188 C80.1072936,10.4166385 79.1367254,10.1641648 78.0274258,10.1641648 C74.5886521,10.1641648 72.0373365,12.5204008 72.0373365,16.5596094 C72.0373365,21.1037656 74.7272916,23.1795372 77.8055842,23.1795372 C79.2476002,23.1795372 80.3845726,22.7868312 81.5494015,21.9453449 L83.4628652,22.9270634 C83.7956735,23.0953793 84.0175151,22.9270634 84.0175151,22.6185154 L84.0175151,5.2552932 L84.0175151,5.2552932 L84.0175151,5.2552932 Z M47.4946568,19.7012575 C47.6610609,19.7012575 47.744263,19.6451832 47.8274651,19.504951 L51.5712824,12.4362429 C52.0149654,11.5947566 52.4586485,10.6690193 52.680582,10.220239 C52.7082547,10.1360811 52.7914568,10.1641648 52.7914568,10.220239 L52.7914568,22.7587476 C52.7914568,22.8990728 52.8746589,22.9832307 53.0132983,22.9832307 L55.3427724,22.9832307 C55.4815038,22.9832307 55.5646139,22.8990728 55.5646139,22.7587476 L55.5646139,5.90047299 C55.5646139,5.76024077 55.4815038,5.67608284 55.3427724,5.67608284 L52.2923363,5.67608284 C52.0981675,5.67608284 51.9872927,5.76024077 51.9040906,5.90047299 L47.0509737,15.5218166 C47.023209,15.5778909 46.9955363,15.5778909 46.9677716,15.5218166 L42.1147467,5.90047299 C42.0315446,5.76024077 41.9205778,5.67608284 41.726501,5.67608284 L38.675973,5.67608284 C38.5373335,5.67608284 38.4541314,5.76024077 38.4541314,5.90047299 L38.4541314,22.7587476 C38.4541314,22.8990728 38.5373335,22.9832307 38.675973,22.9832307 L41.005447,22.9832307 C41.1440865,22.9832307 41.2272886,22.8990728 41.2272886,22.7587476 L41.2272886,10.220239 C41.2272886,10.1641648 41.3104906,10.1360811 41.3382553,10.220239 C41.5600968,10.6690193 42.0037799,11.5947566 42.447463,12.4362429 L46.1912803,19.504951 C46.2744824,19.6451832 46.3576844,19.7012575 46.5240886,19.7012575 L47.4946568,19.7012575 L47.4946568,19.7012575 L47.4946568,19.7012575 Z" id="Fill-1"></path>
                                </g>
                            </g>
                        </g>
                    </g>
                </g>
            </g>
        </g>
    </g>
</svg>