<?xml version="1.0" encoding="utf-8"?>
<!-- Generator: Adobe Illustrator 20.1.0, SVG Export Plug-In . SVG Version: 6.00 Build 0)  -->
<svg version="1.1" id="Layer_1" xmlns="http://www.w3.org/2000/svg" xmlns:xlink="http://www.w3.org/1999/xlink" x="0px" y="0px"
  viewBox="0 0 1000 164" style="enable-background:new 0 0 1000 164;" xml:space="preserve">
  <style type="text/css">
    .st0{fill:#35489E;}
    .st1{fill:#4C5BA9;}
    .st2{fill:#FFFFFF;}
  </style>
  <g>
    <path class="st0" d="M14.6,11.3h134.8c8,0,14.6,6.5,14.6,14.6v123.6c0,8-6.5,14.6-14.6,14.6H14.6c-8,0-14.6-6.5-14.6-14.6V25.8
      C0,17.8,6.5,11.3,14.6,11.3z"/>
      <path class="st1" d="M14.6,0h134.8c8,0,14.6,6.5,14.6,14.6v123.6c0,8-6.5,14.6-14.6,14.6H14.6c-8,0-14.6-6.5-14.6-14.6V14.6
        C0,6.5,6.5,0,14.6,0z"/>
      </g>
      <g>
        <rect x="221" y="129.6" class="st2" width="267" height="3.2"/>
      </g>
      <g>
        <rect x="731.1" y="129.6" class="st2" width="267" height="3.2"/>
      </g>
      <g>
        <path class="st2" d="M223.9,92.5V31.3H243v61.2H223.9z M223.9,24.3V7.4H243v16.9H223.9z M315.7,92.5h-19.2V58.1c0-4-0.8-7-2.3-8.8
          c-1.6-1.8-3.6-2.7-6.2-2.7c-1.4,0-2.7,0.3-4.1,0.8c-1.4,0.5-2.7,1.3-3.9,2.3c-1.3,1-2.4,2.2-3.4,3.4c-1,1.3-1.8,2.8-2.4,4.3v35.1
          H255V31.3h17.2v10.2c2.3-3.7,5.6-6.5,9.8-8.4c4.2-2,9.1-3,14.6-3c4.1,0,7.4,0.7,9.9,2.1c2.5,1.4,4.4,3.3,5.8,5.6
          c1.4,2.3,2.3,4.8,2.7,7.5c0.4,2.7,0.7,5.4,0.7,7.9L315.7,92.5z M353.4,93.6c-2.6,0-5.4-0.2-8.2-0.6c-2.8-0.4-5.6-0.9-8.4-1.6
          c-2.7-0.6-5.4-1.5-8-2.5c-2.6-1-4.8-2-6.7-3.2l7.5-12.6c4.1,2.3,8.2,4.1,12.1,5.4c3.9,1.2,7.7,1.9,11.3,1.9c2.8,0,4.9-0.4,6.4-1.3
          c1.5-0.9,2.2-2.1,2.2-3.7c0-1.6-1-2.9-3-3.8c-2-0.9-5.4-2-10.3-3.2c-3.6-0.9-7.2-2-10.8-3.3c-3-1.1-5.3-2.3-7.1-3.7
          c-1.8-1.4-3.1-2.9-3.9-4.6c-0.8-1.7-1.2-3.7-1.2-6.1c0-3.1,0.7-5.9,2-8.5c1.3-2.6,3.1-4.7,5.4-6.5c2.3-1.8,5-3.2,8.2-4.2
          c3.2-1,6.6-1.5,10.4-1.5c4.4,0,8.9,0.6,13.5,1.9c4.6,1.3,9.1,3,13.5,5.3l-7.5,11.8c-3.9-2.1-7.4-3.6-10.5-4.6
          c-2.9-0.9-5.9-1.4-8.9-1.5c-2.4,0-4.4,0.4-5.9,1.2c-1.6,0.8-2.3,2.1-2.3,3.9c0,0.9,0.2,1.6,0.6,2.2c0.4,0.6,1.1,1.1,2,1.6
          s2.1,1,3.7,1.4c1.5,0.4,3.4,0.9,5.6,1.5c4.6,1.2,8.5,2.3,11.7,3.5c3.2,1.2,5.8,2.5,7.8,3.9c2,1.4,3.4,3.1,4.3,4.9
          c0.9,1.9,1.3,4.1,1.3,6.6c0,3-0.6,5.8-1.9,8.2c-1.3,2.5-3.1,4.6-5.3,6.2c-2.3,1.7-5.1,3-8.4,4C361.2,93.2,357.5,93.6,353.4,93.6
          L353.4,93.6z M428.3,89.2c-2.9,1.2-5.9,2.2-9,3c-3.4,0.9-6.8,1.4-10.3,1.4c-2.4,0-4.6-0.3-6.8-0.9c-2-0.5-3.9-1.5-5.6-2.8
          c-1.6-1.3-2.9-3-3.8-5.1c-0.9-2.1-1.4-4.6-1.4-7.6V45.4h-8V31.3h8V11.9h19.2v19.5h12.8v14.1h-12.8v25.5c0,2,0.5,3.5,1.6,4.4
          c1.1,0.9,2.4,1.3,4,1.3c1.5,0,2.9-0.3,4.3-0.7c1.4-0.4,2.7-0.9,4.1-1.5L428.3,89.2L428.3,89.2z M452.6,93.6c-3,0-5.9-0.5-8.7-1.5
          c-2.5-0.9-4.9-2.3-6.9-4.1c-1.9-1.7-3.5-3.8-4.5-6.2c-1.1-2.4-1.7-5.1-1.7-7.7c0-3,0.7-5.8,2-8.3c1.3-2.5,3.2-4.6,5.6-6.4
          c2.4-1.8,5.2-3.2,8.5-4.2c3.3-1,6.9-1.5,10.9-1.5c2.6,0,5.2,0.2,7.7,0.6c2.5,0.4,4.6,1.1,6.5,1.9v-2.8c0-7.1-4.2-10.6-12.6-10.6
          c-3.4,0-6.7,0.6-9.8,1.7c-3.1,1.1-6.4,2.8-9.8,5.1l-5.6-11.6c4-2.6,8.4-4.6,12.9-5.9c4.6-1.3,9.4-2,14.2-2c9.5,0,16.8,2.2,22,6.5
          c5.2,4.4,7.8,10.7,7.8,19.1v15.7c0,1.9,0.4,3.2,1.1,3.9c0.7,0.7,2,1.2,3.8,1.3v15.7c-1.8,0.4-3.5,0.6-5.1,0.8
          c-1.4,0.1-2.8,0.2-4.1,0.2c-3.5-0.1-6.2-0.8-8-2.1c-1.8-1.3-3-3.2-3.5-5.7l-0.4-2.8c-2.7,3.4-6.1,6.2-10,8
          C461.1,92.7,456.9,93.7,452.6,93.6L452.6,93.6z M458.2,80.2c2.1,0,4.1-0.3,6-1c1.9-0.7,3.6-1.6,4.8-2.8c1.8-1.4,2.8-2.9,2.8-4.4
          v-5.8c-1.8-0.6-3.6-1.1-5.4-1.5c-1.8-0.3-3.6-0.5-5.4-0.5c-3.5,0-6.4,0.8-8.7,2.3c-2.3,1.6-3.4,3.6-3.4,6.1c0,2.3,0.9,4.1,2.6,5.5
          C453.3,79.5,455.5,80.2,458.2,80.2L458.2,80.2z M565,92.5h-19.2V58.1c0-4-0.8-7-2.3-8.8c-1.6-1.8-3.6-2.7-6.2-2.7
          c-1.4,0-2.7,0.3-4.1,0.8c-1.4,0.5-2.7,1.3-3.9,2.3c-1.3,1-2.4,2.2-3.4,3.4c-1,1.3-1.8,2.8-2.4,4.3v35.1h-19.2V31.3h17.2v10.2
          c2.3-3.7,5.6-6.5,9.8-8.4c4.2-2,9.1-3,14.6-3c4.1,0,7.4,0.7,9.9,2.1c2.5,1.4,4.4,3.3,5.8,5.6c1.4,2.3,2.3,4.8,2.7,7.5
          c0.4,2.7,0.7,5.4,0.7,7.9L565,92.5L565,92.5z M617,89.2c-2.9,1.2-5.9,2.2-9,3c-3.4,0.9-6.8,1.4-10.3,1.4c-2.4,0-4.6-0.3-6.8-0.9
          c-2-0.5-3.9-1.5-5.6-2.8c-1.6-1.3-2.9-3-3.8-5.1c-0.9-2.1-1.4-4.6-1.4-7.6V45.4h-8V31.3h8V11.9h19.2v19.5h12.8v14.1h-12.8v25.5
          c0,2,0.5,3.5,1.6,4.4c1.1,0.9,2.4,1.3,4,1.3c1.5,0,2.9-0.3,4.3-0.7c1.4-0.4,2.7-0.9,4.1-1.5L617,89.2L617,89.2z"/>
          <path class="st2" d="M648.8,94.9c-2.6,0-5.4-0.2-8.2-0.6c-2.8-0.4-5.7-0.9-8.5-1.6c-2.7-0.6-5.4-1.5-8-2.5c-2.3-0.9-4.6-2-6.7-3.3
            l7.6-12.8c4.2,2.4,8.2,4.2,12.1,5.4c3.9,1.3,7.7,1.9,11.3,1.9c2.8,0,4.9-0.4,6.4-1.3c1.5-0.9,2.2-2.1,2.2-3.8s-1-2.9-3-3.8
            c-2-0.9-5.4-2-10.3-3.2c-3.7-0.9-7.3-2-10.8-3.3c-3-1.1-5.3-2.3-7.1-3.7c-1.8-1.4-3.1-2.9-3.9-4.7c-0.8-1.7-1.2-3.8-1.2-6.1
            c0-3.2,0.7-6,2-8.6c1.3-2.6,3.1-4.8,5.5-6.6c2.3-1.8,5.1-3.2,8.2-4.3c3.2-1,6.6-1.5,10.4-1.5c4.4,0,8.9,0.7,13.5,1.9
            c4.6,1.3,9.1,3.1,13.5,5.4l-7.6,11.9c-3.9-2.1-7.4-3.7-10.5-4.7c-2.9-1-5.9-1.5-8.9-1.5c-2.4,0-4.4,0.4-5.9,1.2
            c-1.6,0.8-2.3,2.1-2.3,4c0,0.9,0.2,1.6,0.6,2.2c0.4,0.6,1.1,1.1,2,1.7c0.9,0.5,2.1,1,3.7,1.4c1.5,0.4,3.4,0.9,5.6,1.5
            c4.6,1.2,8.6,2.4,11.8,3.5c3.2,1.2,5.8,2.5,7.8,4c2,1.5,3.4,3.1,4.3,5c0.9,1.9,1.3,4.1,1.3,6.7c0,3.1-0.6,5.9-1.9,8.3
            c-1.2,2.5-3,4.6-5.3,6.3c-2.3,1.7-5.1,3.1-8.4,4C656.6,94.4,652.9,94.9,648.8,94.9L648.8,94.9z M713.7,94.9c-5.3,0-10-0.8-14.2-2.5
            c-4.2-1.7-7.8-4-10.7-6.9c-2.9-2.9-5.2-6.3-6.7-10.1c-1.5-3.8-2.3-7.9-2.3-12c0-4.5,0.8-8.7,2.3-12.7c1.5-3.9,3.7-7.5,6.6-10.5
            c2.9-3,6.4-5.4,10.6-7.1c4.2-1.7,9-2.6,14.3-2.6c5.4,0,10.1,0.9,14.3,2.6c4.2,1.7,7.7,4.1,10.6,7c2.9,2.9,5.1,6.4,6.5,10.2
            c1.5,3.9,2.2,7.9,2.2,12.2c0,1.1,0,2.2-0.1,3.3c-0.1,0.9-0.2,1.9-0.4,2.8h-46.5c0.3,4.2,1.9,7.3,4.6,9.5c2.8,2.2,5.9,3.3,9.4,3.3
            c2.8,0,5.5-0.7,8.1-2c2.6-1.3,4.3-3.2,5.2-5.4l16.3,4.5c-2.5,4.9-6.3,8.9-11.5,11.9C727.2,93.3,721,94.9,713.7,94.9L713.7,94.9z
            M727,56.8c-0.4-3.9-1.8-7.1-4.3-9.3c-2.5-2.3-5.6-3.4-9.2-3.4c-3.8,0-6.9,1.2-9.3,3.5c-2.4,2.3-3.9,5.4-4.3,9.3L727,56.8L727,56.8
            z M772.9,94.9c-3,0-5.9-0.5-8.7-1.5c-2.5-0.9-4.9-2.3-6.9-4.1c-1.9-1.8-3.5-3.9-4.6-6.3c-1.1-2.5-1.7-5.1-1.7-7.9
            c0-3.1,0.7-5.9,2-8.4c1.3-2.6,3.3-4.8,5.6-6.5c2.4-1.8,5.2-3.2,8.5-4.3c3.3-1,6.9-1.5,10.9-1.5c2.6,0,5.2,0.2,7.7,0.6
            c2.5,0.4,4.6,1.1,6.5,2v-2.8c0-7.2-4.2-10.7-12.6-10.7c-3.4,0-6.7,0.6-9.8,1.7c-3.1,1.1-6.4,2.9-9.8,5.1l-5.6-11.8
            c4-2.6,8.4-4.6,13-6c4.5-1.3,9.2-2,14.3-2c9.5,0,16.9,2.2,22.1,6.6c5.2,4.4,7.8,10.9,7.8,19.4v16c0,1.9,0.4,3.2,1.1,4
            c0.7,0.8,2,1.2,3.8,1.4v16c-1.8,0.4-3.5,0.6-5.1,0.8c-1.6,0.1-2.9,0.2-4.1,0.2c-3.5-0.1-6.2-0.8-8-2.1c-1.8-1.3-3-3.3-3.5-5.8
            l-0.4-2.8c-2.7,3.4-6.1,6.2-10,8.2C781.4,93.9,777.2,94.9,772.9,94.9L772.9,94.9z M778.6,81.3c2.1,0,4.1-0.4,6.1-1.1
            c2-0.7,3.6-1.7,4.9-2.8c1.8-1.4,2.8-2.9,2.8-4.5V67c-1.8-0.7-3.6-1.1-5.5-1.5c-1.8-0.3-3.6-0.5-5.5-0.5c-3.5,0-6.4,0.8-8.7,2.4
            c-2.3,1.6-3.4,3.6-3.4,6.1c0,2.3,0.9,4.2,2.6,5.6C773.6,80.6,775.8,81.3,778.6,81.3L778.6,81.3z M864.7,47.8
            c-4.6,0.1-8.8,0.8-12.5,2.2c-3.7,1.4-6.5,3.5-8.2,6.4v37.2h-19.2v-62h17.6v12.5c2.2-4.2,5.1-7.4,8.5-9.7c3.4-2.3,7-3.6,10.9-3.7
            c1.6,0,2.6,0,3,0.1V47.8L864.7,47.8z M868.2,62.6c0-4.3,0.8-8.3,2.3-12.2c1.5-3.8,3.7-7.3,6.6-10.3c2.9-3,6.4-5.3,10.6-7
            c4.2-1.7,9-2.6,14.3-2.6c7.3,0,13.4,1.5,18.4,4.6c5,3,8.7,7,11.2,11.9l-18.7,5.6c-2.5-3.9-6.1-5.9-10.9-5.9c-4,0-7.3,1.5-10,4.4
            c-2.7,2.9-4,6.8-4,11.7c0,2.4,0.4,4.7,1.1,6.7c0.7,2,1.7,3.7,3,5.1c1.3,1.4,2.8,2.5,4.5,3.3c1.7,0.8,3.5,1.2,5.5,1.2
            c2.4,0,4.6-0.6,6.6-1.7c2-1.1,3.5-2.6,4.4-4.4l18.7,5.7c-2.3,4.8-6,8.7-11.1,11.8c-5.1,3.1-11.3,4.6-18.5,4.6
            c-5.3,0-10-0.9-14.2-2.7c-4.2-1.8-7.8-4.1-10.7-7.1c-2.9-3-5.1-6.4-6.7-10.3C869,70.9,868.2,66.8,868.2,62.6L868.2,62.6z
            M1000,93.7h-19.2V58.8c0-4-0.8-7-2.5-8.9c-1.6-1.9-3.9-2.8-6.7-2.8c-1.1,0-2.3,0.3-3.7,0.8c-1.3,0.5-2.6,1.3-3.8,2.2
            c-1.2,1-2.4,2.1-3.4,3.5c-1,1.4-1.9,2.9-2.4,4.5v35.6h-19.2V7.4h19.2v34.6c2.2-3.6,5.4-6.6,9.2-8.6c3.8-2,8-3,12.7-3
            c4.2,0,7.7,0.7,10.3,2.2c2.6,1.5,4.6,3.3,6,5.6c1.4,2.2,2.3,4.8,2.8,7.6c0.5,2.8,0.7,5.5,0.7,8.2L1000,93.7L1000,93.7z"/>
          </g>
          <g>
            <path class="st2" d="M65.8,51.9c-1.5,8.5,4.1,16.5,12.6,18c3.1,0.5,6.3,0.1,9.1-1.2l6.1,8.8c0.4,0.6,1.1,1,1.8,1.2
              c1.5,0.3,3-0.8,3.3-2.3h0c0.1-0.7,0-1.5-0.5-2.1l-6.1-8.8c2.2-2.2,3.7-5.1,4.2-8.2c1.5-8.5-4.1-16.5-12.6-18
              C75.3,37.8,67.3,43.4,65.8,51.9z M71.4,52.9c0.9-5.4,6.1-9,11.4-8c5.4,0.9,8.9,6.1,8,11.5h0c-0.9,5.4-6.1,9-11.4,8
              C74,63.4,70.4,58.2,71.4,52.9z"/>
              <path class="st2" d="M91.3,92.2l-10.7,0c-0.7,0-1.5,0.3-2,0.8l0,0c-1.1,1.1-1.1,2.9,0,4c0.5,0.5,1.3,0.8,2,0.8l10.7,0
                c0.6,3.1,2.1,5.9,4.3,8.2c6.1,6.1,15.9,6,22,0c6.1-6.1,6.1-15.9,0-22c-6.1-6.1-15.9-6-22,0C93.4,86.3,91.9,89.1,91.3,92.2z
                M99.6,88L99.6,88c3.9-3.9,10.1-3.9,14,0c3.8,3.8,3.8,10.1,0,14c-3.9,3.9-10.1,3.9-14,0C95.8,98.2,95.8,91.9,99.6,88z"/>
                <path class="st2" d="M75,73.7L75,73.7c-0.4-1.5-1.9-2.4-3.4-2.1c-0.7,0.2-1.4,0.7-1.7,1.3l-5.5,9.2c-2.9-1.1-6.1-1.3-9.2-0.5
                  c-8.3,2.1-13.4,10.5-11.3,18.9c2.1,8.3,10.5,13.4,18.8,11.4C71,109.8,76,101.3,74,93c-0.8-3.1-2.4-5.8-4.8-7.9l5.5-9.2
                  C75,75.3,75.2,74.5,75,73.7z M61.3,106.3c-5.3,1.3-10.7-1.9-12-7.2c-1.3-5.3,1.9-10.7,7.2-12c5.3-1.3,10.7,1.9,12,7.2
                  C69.8,99.6,66.6,105,61.3,106.3z"/>
                  <path class="st2" d="M125.1,57.7c2.2-15.5-1-27.4-9.3-32.2c-7.8-4.5-18.5-2.2-30.3,6.3c-1.1,0.8-1.3,2.2-0.5,3.3
                    c0.8,1.1,2.2,1.3,3.3,0.5c10-7.3,19.2-9.5,25.2-6.1c6.4,3.7,8.8,13.6,7.1,26.5c-4.8-1.6-10-2.9-15.7-3.8c-1.3-0.2-2.5,0.7-2.7,1.9
                    c-0.2,1.3,0.7,2.5,1.9,2.7c5.7,0.9,11,2.3,15.7,3.9c-0.8,4.3-2.1,8.9-3.8,13.6c-0.4,1.2,0.2,2.6,1.4,3c0.3,0.1,0.5,0.1,0.8,0.1
                    c1,0,1.9-0.6,2.2-1.6c1.7-4.7,2.9-9.2,3.8-13.5c12,5,19.4,12.1,19.4,19.4c0,6.6-5.8,13-16.3,18.1c-1.2,0.6-1.7,2-1.1,3.1
                    c0.4,0.8,1.2,1.3,2.1,1.3c0.3,0,0.7-0.1,1-0.2c12.3-5.9,19-13.8,19-22.3C148.4,72.2,139.7,63.5,125.1,57.7z"/>
                    <path class="st2" d="M123,107.9c-1.3,0.1-2.3,1.3-2.1,2.6c1,11.8-1.7,20.4-7.4,23.7c-6.6,3.8-17,0.6-27.8-8.1
                      c2.8-2.6,5.6-5.4,8.3-8.6c0.9-1,0.7-2.5-0.2-3.3c-1-0.8-2.5-0.7-3.3,0.2c-2.8,3.2-5.5,6.1-8.3,8.6c-2.8-2.5-5.6-5.4-8.3-8.6
                      c-0.9-1-2.3-1.1-3.3-0.2c-1,0.9-1.1,2.3-0.2,3.3c2.7,3.2,5.5,6,8.3,8.6c-10.8,8.7-21.2,11.9-27.8,8.1c-5.8-3.3-8.5-12-7.4-23.7
                      c0.1-1.3-0.8-2.4-2.1-2.6c-1.3-0.1-2.4,0.8-2.6,2.1c-1.2,13.9,2.3,23.9,9.8,28.2c2.6,1.5,5.5,2.2,8.7,2.2c7.4,0,16.2-3.9,25.1-11.3
                      c8.9,7.3,17.7,11.3,25.1,11.3c3.2,0,6.1-0.7,8.7-2.2c7.5-4.3,11-14.4,9.8-28.2C125.4,108.8,124.3,107.8,123,107.9z"/>
                      <path class="st2" d="M36.6,99.9c-10.5-5-16.3-11.4-16.3-18.1c0-7.3,7.4-14.4,19.4-19.4c0.9,4.3,2.2,8.8,3.8,13.5
                        c0.3,1,1.3,1.6,2.2,1.6c0.3,0,0.5,0,0.8-0.1c1.2-0.4,1.9-1.8,1.4-3c-1.7-4.8-3-9.3-3.8-13.6c4.7-1.6,10-3,15.7-3.9
                        c1.3-0.2,2.2-1.4,1.9-2.7c-0.2-1.3-1.4-2.1-2.7-1.9c-5.7,0.9-11,2.2-15.7,3.8c-1.7-12.9,0.7-22.8,7.1-26.5c6-3.4,15.1-1.2,25.2,6.1
                        c1.1,0.8,2.5,0.5,3.3-0.5c0.8-1.1,0.5-2.5-0.5-3.3C66.7,23.2,55.9,21,48.2,25.4c-8.3,4.8-11.5,16.7-9.3,32.2
                        c-14.6,5.8-23.3,14.5-23.3,24.2c0,8.5,6.7,16.5,19,22.3c0.3,0.2,0.7,0.2,1,0.2c0.9,0,1.7-0.5,2.1-1.3
                        C38.3,101.9,37.8,100.5,36.6,99.9z"/>
                      </g>
                      <g>
                        <path class="st2" d="M551.8,152.7l-11.7-17.8h-0.2h-12.1v17.8h-3.1v-41h15.2c4.1,0,7.4,1,9.8,3.1c2.4,2.1,3.6,4.9,3.6,8.5
                          c0,3-0.9,5.5-2.6,7.4c-1.7,2-4.1,3.2-7.1,3.8l11.9,18.1H551.8z M527.8,132h12c3.3,0,5.8-0.7,7.6-2.2c1.8-1.5,2.6-3.6,2.6-6.5
                          c0-2.8-0.9-5-2.6-6.5c-1.8-1.5-4.3-2.3-7.6-2.3h-12V132z"/>
                          <path class="st2" d="M592.9,138.5h-24.7c0.2,3.8,1.3,6.8,3.4,8.9c2,2.1,4.8,3.2,8.2,3.2c2.4,0,4.5-0.5,6.3-1.5s3-2.4,3.8-4.2
                            l2.6,1.4c-1.2,2.3-2.8,4-5,5.2c-2.2,1.2-4.7,1.8-7.8,1.8c-4.6,0-8.2-1.4-10.8-4.3c-2.6-2.9-3.9-6.8-3.9-11.9c0-5,1.3-9,3.8-11.9
                            c2.5-2.9,6-4.3,10.5-4.3c4.2,0,7.5,1.4,9.9,4.2c2.4,2.8,3.6,6.5,3.6,11.2C593,137.1,593,137.8,592.9,138.5z M571.5,126.9
                            c-1.9,2.1-3,5-3.3,8.8h21.9c-0.2-3.7-1.2-6.6-3.1-8.8c-1.8-2.1-4.4-3.2-7.5-3.2C576.1,123.8,573.5,124.8,571.5,126.9z"/>
                            <path class="st2" d="M633.9,150.2l-0.2,2.5c-0.7,0.4-1.8,0.6-3,0.6c-1.4,0-2.6-0.4-3.5-1.2c-0.9-0.8-1.4-2.2-1.6-4.1
                              c-1,1.7-2.5,2.9-4.6,3.9c-2.1,0.9-4.3,1.4-6.6,1.4c-3.1,0-5.5-0.7-7.4-2c-1.8-1.4-2.8-3.3-2.8-5.8c0-4.8,3.9-7.9,11.8-9.3l9.5-1.7
                              v-2.7c0-2.5-0.7-4.4-2.2-5.8c-1.5-1.4-3.5-2.1-6.2-2.1c-4.9,0-8.2,2.2-9.9,6.6l-2.4-1.7c0.9-2.4,2.4-4.3,4.5-5.6
                              c2.1-1.3,4.7-2,7.8-2c3.6,0,6.4,0.9,8.5,2.6c2,1.8,3.1,4.3,3.1,7.7v16c0,2.2,1,3.3,2.9,3.3C632.5,150.7,633.3,150.5,633.9,150.2z
                              M619.8,149.7c1.7-0.6,3-1.5,4.1-2.7s1.6-2.6,1.6-4.3V137l-8.5,1.6c-3.4,0.6-5.8,1.5-7.3,2.6c-1.5,1.1-2.3,2.5-2.3,4.3
                              c0,1.7,0.6,2.9,1.9,3.8c1.3,0.9,3.1,1.3,5.3,1.3C616.4,150.6,618.1,150.3,619.8,149.7z"/>
                              <path class="st2" d="M665.5,123.2c2.2,1.5,3.7,3.5,4.7,6.2l-2.9,1.4c-0.7-2.3-1.9-4-3.5-5.2c-1.7-1.2-3.7-1.8-6.2-1.8
                                c-3.6,0-6.4,1.2-8.4,3.6c-2,2.4-3,5.7-3,9.8c0,4.2,1,7.5,3,9.9c2,2.4,4.8,3.5,8.4,3.5c2.6,0,4.9-0.7,6.7-2s3-3.1,3.4-5.4l2.9,1
                                c-0.8,2.8-2.4,5-4.7,6.7c-2.3,1.6-5,2.5-8.2,2.5c-4.6,0-8.2-1.4-10.7-4.3c-2.6-2.9-3.9-6.8-3.9-11.9c0-5,1.3-9,3.9-11.9
                                c2.6-2.9,6.2-4.3,10.8-4.3C660.7,121,663.3,121.8,665.5,123.2z"/>
                                <path class="st2" d="M700.6,150.7c-0.8,0.8-1.8,1.5-3,1.9c-1.2,0.5-2.5,0.7-4,0.7c-2.5,0-4.5-0.7-5.9-2.1c-1.4-1.4-2.1-3.5-2.1-6.3
                                  v-20.6h-6.2v-2.7h6.2v-7.8l3.1-0.9v8.6h11.7v2.7h-11.7v20.2c0,1.9,0.5,3.4,1.4,4.4c0.9,1,2.3,1.5,4.1,1.5c2.1,0,3.9-0.8,5.4-2.3
                                  L700.6,150.7z"/>
                                </g>
                              </svg>
