<?xml version="1.0" encoding="utf-8"?>
<!-- Generator: Adobe Illustrator 21.0.0, SVG Export Plug-In . SVG Version: 6.00 Build 0)  -->
<svg version="1.1" id="Layer_1" xmlns="http://www.w3.org/2000/svg" xmlns:xlink="http://www.w3.org/1999/xlink" x="0px" y="0px"
	 viewBox="0 0 400 400" style="enable-background:new 0 0 400 400;" xml:space="preserve">
<style type="text/css">
	.st0{fill:url(#SVGID_1_);}
	.st1{fill:url(#SVGID_2_);}
	.st2{fill:url(#SVGID_3_);}
	.st3{fill:url(#SVGID_4_);}
	.st4{fill:url(#SVGID_5_);}
	.st5{fill:url(#SVGID_6_);}
</style>
<g>
	<linearGradient id="SVGID_1_" gradientUnits="userSpaceOnUse" x1="103.3556" y1="337.6324" x2="351.2819" y2="89.7061">
		<stop  offset="0" style="stop-color:#8E43E7"/>
		<stop  offset="1" style="stop-color:#00AEFF"/>
	</linearGradient>
	<path class="st0" d="M358.8,144.3c-8.9-5.8-19.2-11-30.5-15.5c6.4-45.7-3.3-80.8-28.1-95.2c-23.1-13.5-55.3-6.8-90.5,18.7
		c-3.6,2.6-4.4,7.6-1.8,11.2c2.6,3.6,7.6,4.4,11.2,1.8c29.4-21.3,56-27.8,73.1-17.8c18.3,10.6,25.4,38.8,20.8,75.8
		c-13.9-4.5-29.1-8.2-45.4-10.9c-4.4-0.7-8.5,2.2-9.2,6.6c-0.7,4.4,2.2,8.5,6.6,9.2c16.4,2.7,31.7,6.5,45.3,11.1
		c-2.5,12.5-6.2,25.7-11.1,39.4c-1.5,4.2,0.7,8.7,4.9,10.2c0.9,0.3,1.8,0.5,2.7,0.5c3.3,0,6.4-2,7.5-5.3c4.8-13.5,8.5-26.6,11.1-39
		c34.3,14.5,55.5,34.8,55.5,55.8c0,18.9-17.3,38-47.4,52.3c-4,1.9-5.7,6.7-3.8,10.7c1.4,2.9,4.2,4.6,7.2,4.6c1.2,0,2.3-0.2,3.4-0.8
		c36.5-17.3,56.6-41,56.6-66.7C397,180,383.8,160.4,358.8,144.3z"/>
	<linearGradient id="SVGID_2_" gradientUnits="userSpaceOnUse" x1="131.2278" y1="380.0952" x2="391.6431" y2="119.6799">
		<stop  offset="0" style="stop-color:#8E43E7"/>
		<stop  offset="1" style="stop-color:#00AEFF"/>
	</linearGradient>
	<path class="st1" d="M320.9,276.7c-4.4,0.4-7.7,4.2-7.3,8.6c3,34.9-4.7,59.4-21.4,69.1c-5.4,3.1-11.6,4.6-18.4,4.6
		c-17.5,0-39.1-9.8-61.5-27.6c8-7.4,16-15.7,23.8-24.8c2.9-3.3,2.5-8.4-0.8-11.3c-3.3-2.9-8.4-2.5-11.3,0.8
		C216,305.5,208,313.7,200,321c-8-7.3-16-15.6-23.9-24.8c-2.9-3.3-7.9-3.7-11.3-0.8c-3.3,2.9-3.7,7.9-0.8,11.3
		c7.8,9.1,15.8,17.3,23.8,24.8c-22.5,17.8-44.1,27.6-61.5,27.6c-6.8,0-13-1.5-18.4-4.6c-16.8-9.7-24.4-34.2-21.4-69.1
		c0.4-4.4-2.9-8.3-7.3-8.6c-4.4-0.4-8.3,2.9-8.6,7.3c-3.5,41.4,6.9,71.3,29.4,84.3c7.8,4.5,16.7,6.8,26.3,6.8
		c11.9,0,25.1-3.4,39-10.2c11.4-5.5,23.1-13.2,34.8-22.7c11.7,9.5,23.4,17.2,34.8,22.7c14,6.8,27.1,10.2,39,10.2
		c9.7,0,18.5-2.2,26.3-6.8c22.5-13,32.9-42.9,29.4-84.3C329.2,279.6,325.3,276.3,320.9,276.7z"/>
	<linearGradient id="SVGID_3_" gradientUnits="userSpaceOnUse" x1="-10.8144" y1="243.6999" x2="245.4382" y2="-12.5527">
		<stop  offset="0" style="stop-color:#8E43E7"/>
		<stop  offset="1" style="stop-color:#00AEFF"/>
	</linearGradient>
	<path class="st2" d="M66.4,253.1C36.3,238.8,19,219.7,19,200.8c0-21,21.2-41.3,55.6-55.8c2.6,12.4,6.3,25.5,11.1,39
		c1.2,3.3,4.2,5.3,7.5,5.3c0.9,0,1.8-0.1,2.7-0.5c4.2-1.5,6.3-6.1,4.9-10.2c-4.9-13.7-8.6-26.9-11.1-39.4
		c13.6-4.6,28.9-8.4,45.2-11.2c4.4-0.7,7.3-4.8,6.6-9.2c-0.7-4.4-4.9-7.3-9.2-6.6c-16.2,2.7-31.4,6.4-45.3,10.9
		c-4.6-37,2.5-65.2,20.8-75.8c17.1-10,43.7-3.5,73.1,17.9c3.6,2.6,8.6,1.8,11.2-1.8c2.6-3.6,1.8-8.6-1.8-11.2
		C155.1,26.7,123,20.1,99.9,33.6c-24.8,14.4-34.5,49.5-28.1,95.2c-11.3,4.6-21.6,9.8-30.6,15.6C16.2,160.5,3,180,3,200.8
		c0,25.7,20.1,49.4,56.6,66.7c1.1,0.5,2.3,0.8,3.4,0.8c3,0,5.9-1.7,7.2-4.6C72.1,259.7,70.4,255,66.4,253.1z"/>
	<linearGradient id="SVGID_4_" gradientUnits="userSpaceOnUse" x1="47.2383" y1="300.0394" x2="303.8469" y2="43.4309">
		<stop  offset="0" style="stop-color:#8E43E7"/>
		<stop  offset="1" style="stop-color:#00AEFF"/>
	</linearGradient>
	<path class="st3" d="M248.2,121.6c0-26.1-21.2-47.3-47.3-47.3c-26.1,0-47.3,21.2-47.3,47.3c0,26.1,21.2,47.3,47.3,47.3
		c5.8,0,11.3-1,16.4-2.9l9.2,15.8l5.9,10.4c1.5,2.6,4.2,4.1,7,4.1c1.3,0,2.7-0.3,3.9-1c3.9-2.2,5.2-7,3.1-10.9l-5.9-10.5
		c0,0,0,0,0,0c0,0,0,0,0-0.1l-9.2-15.8C241.5,149.3,248.2,136.2,248.2,121.6z M217.2,148.3c-0.2,0.1-0.5,0.2-0.7,0.4
		c-0.2,0.1-0.4,0.3-0.6,0.4c-4.4,2.4-9.5,3.8-15,3.8c-17.3,0-31.3-14-31.3-31.3c0-17.3,14-31.3,31.3-31.3c17.3,0,31.3,14,31.3,31.3
		C232.2,132.9,226.2,142.8,217.2,148.3z"/>
	<linearGradient id="SVGID_5_" gradientUnits="userSpaceOnUse" x1="126.7355" y1="378.9882" x2="387.1744" y2="118.5492">
		<stop  offset="0" style="stop-color:#8E43E7"/>
		<stop  offset="1" style="stop-color:#00AEFF"/>
	</linearGradient>
	<path class="st4" d="M225.3,236.5H207h-12c-4.4,0-8,3.6-8,8s3.6,8,8,8h12h18.3c3.8,22.3,23.3,39.3,46.6,39.3
		c26.1,0,47.3-21.2,47.3-47.3s-21.2-47.3-47.3-47.3C248.5,197.2,229.1,214.2,225.3,236.5z M271.9,213.2c17.3,0,31.3,14,31.3,31.3
		s-14,31.3-31.3,31.3c-17.3,0-31.3-14-31.3-31.3S254.6,213.2,271.9,213.2z"/>
	<linearGradient id="SVGID_6_" gradientUnits="userSpaceOnUse" x1="61.7155" y1="312.7845" x2="317.2392" y2="57.2608">
		<stop  offset="0" style="stop-color:#8E43E7"/>
		<stop  offset="1" style="stop-color:#00AEFF"/>
	</linearGradient>
	<path class="st5" d="M169.3,192.3l6.1-10.5c2.2-3.8,0.9-8.7-2.9-10.9c-3.8-2.2-8.7-0.9-10.9,2.9l-6.1,10.5c0,0,0,0,0,0c0,0,0,0,0,0
		l-9.1,15.8c-5.1-1.9-10.6-2.9-16.3-2.9c-26.1,0-47.3,21.2-47.3,47.3s21.2,47.3,47.3,47.3s47.3-21.2,47.3-47.3
		c0-14.6-6.7-27.7-17.1-36.4L169.3,192.3C169.3,192.3,169.3,192.3,169.3,192.3z M130,275.8c-17.3,0-31.3-14-31.3-31.3
		s14-31.3,31.3-31.3c5.1,0,10,1.3,14.3,3.5c0.4,0.3,0.8,0.6,1.2,0.9c0.4,0.2,0.9,0.4,1.3,0.6c8.7,5.6,14.5,15.3,14.5,26.4
		C161.3,261.8,147.3,275.8,130,275.8z"/>
</g>
</svg>
