<?xml version="1.0" encoding="UTF-8"?>
<svg width="134px" height="118px" viewBox="0 0 134 118" version="1.1" xmlns="http://www.w3.org/2000/svg" xmlns:xlink="http://www.w3.org/1999/xlink">
    <!-- Generator: Sketch 41 (35326) - http://www.bohemiancoding.com/sketch -->
    <title>react-instant-search-logo</title>
    <desc>Created with Sketch.</desc>
    <defs></defs>
    <g id="Page-1" stroke="none" stroke-width="1" fill="none" fill-rule="evenodd">
        <g id="react-instant-search-logo" fill="#FFFFFF">
            <g id="Page-1">
                <g id="react-instant-search-logo-text">
                    <g id="Group">
                        <path d="M50.8,28.9 C49.3,37.4 54.9,45.4 63.4,46.9 C66.5,47.4 69.7,47 72.5,45.7 L78.6,54.5 C79,55.1 79.7,55.5 80.4,55.7 C81.9,56 83.4,54.9 83.7,53.4 L83.7,53.4 C83.8,52.7 83.7,51.9 83.2,51.3 L77.1,42.5 C79.3,40.3 80.8,37.4 81.3,34.3 C82.8,25.8 77.2,17.8 68.7,16.3 C60.3,14.8 52.3,20.4 50.8,28.9 L50.8,28.9 Z M56.4,29.9 C57.3,24.5 62.5,20.9 67.8,21.9 C73.2,22.8 76.7,28 75.8,33.4 L75.8,33.4 C74.9,38.8 69.7,42.4 64.4,41.4 C59,40.4 55.4,35.2 56.4,29.9 L56.4,29.9 Z" id="Shape"></path>
                        <path d="M76.3,69.2 L65.6,69.2 C64.9,69.2 64.1,69.5 63.6,70 L63.6,70 C62.5,71.1 62.5,72.9 63.6,74 C64.1,74.5 64.9,74.8 65.6,74.8 L76.3,74.8 C76.9,77.9 78.4,80.7 80.6,83 C86.7,89.1 96.5,89 102.6,83 C108.7,76.9 108.7,67.1 102.6,61 C96.5,54.9 86.7,55 80.6,61 C78.4,63.3 76.9,66.1 76.3,69.2 L76.3,69.2 Z M84.6,65 L84.6,65 C88.5,61.1 94.7,61.1 98.6,65 C102.4,68.8 102.4,75.1 98.6,79 C94.7,82.9 88.5,82.9 84.6,79 C80.8,75.2 80.8,68.9 84.6,65 L84.6,65 Z" id="Shape"></path>
                        <path d="M60,50.7 L60,50.7 C59.6,49.2 58.1,48.3 56.6,48.6 C55.9,48.8 55.2,49.3 54.9,49.9 L49.4,59.1 C46.5,58 43.3,57.8 40.2,58.6 C31.9,60.7 26.8,69.1 28.9,77.5 C31,85.8 39.4,90.9 47.7,88.9 C56,86.8 61,78.3 59,70 C58.2,66.9 56.6,64.2 54.2,62.1 L59.7,52.9 C60,52.3 60.2,51.5 60,50.7 L60,50.7 Z M46.3,83.3 C41,84.6 35.6,81.4 34.3,76.1 C33,70.8 36.2,65.4 41.5,64.1 C46.8,62.8 52.2,66 53.5,71.3 C54.8,76.6 51.6,82 46.3,83.3 L46.3,83.3 Z" id="Shape"></path>
                        <path d="M110.1,34.7 C112.3,19.2 109.1,7.3 100.8,2.5 C93,-2 82.3,0.3 70.5,8.8 C69.4,9.6 69.2,11 70,12.1 C70.8,13.2 72.2,13.4 73.3,12.6 C83.3,5.3 92.5,3.1 98.5,6.5 C104.9,10.2 107.3,20.1 105.6,33 C100.8,31.4 95.6,30.1 89.9,29.2 C88.6,29 87.4,29.9 87.2,31.1 C87,32.4 87.9,33.6 89.1,33.8 C94.8,34.7 100.1,36.1 104.8,37.7 C104,42 102.7,46.6 101,51.3 C100.6,52.5 101.2,53.9 102.4,54.3 C102.7,54.4 102.9,54.4 103.2,54.4 C104.2,54.4 105.1,53.8 105.4,52.8 C107.1,48.1 108.3,43.6 109.2,39.3 C121.2,44.3 128.6,51.4 128.6,58.7 C128.6,65.3 122.8,71.7 112.3,76.8 C111.1,77.4 110.6,78.8 111.2,79.9 C111.6,80.7 112.4,81.2 113.3,81.2 C113.6,81.2 114,81.1 114.3,81 C126.6,75.1 133.3,67.2 133.3,58.7 C133.4,49.2 124.7,40.5 110.1,34.7 L110.1,34.7 Z" id="Shape"></path>
                        <path d="M108,84.9 C106.7,85 105.7,86.2 105.9,87.5 C106.9,99.3 104.2,107.9 98.5,111.2 C91.9,115 81.5,111.8 70.7,103.1 C73.5,100.5 76.3,97.7 79,94.5 C79.9,93.5 79.7,92 78.8,91.2 C77.8,90.4 76.3,90.5 75.5,91.4 C72.7,94.6 70,97.5 67.2,100 C64.4,97.5 61.6,94.6 58.9,91.4 C58,90.4 56.6,90.3 55.6,91.2 C54.6,92.1 54.5,93.5 55.4,94.5 C58.1,97.7 60.9,100.5 63.7,103.1 C52.9,111.8 42.5,115 35.9,111.2 C30.1,107.9 27.4,99.2 28.5,87.5 C28.6,86.2 27.7,85.1 26.4,84.9 C25.1,84.8 24,85.7 23.8,87 C22.6,100.9 26.1,110.9 33.6,115.2 C36.2,116.7 39.1,117.4 42.3,117.4 C49.7,117.4 58.5,113.5 67.4,106.1 C76.3,113.4 85.1,117.4 92.5,117.4 C95.7,117.4 98.6,116.7 101.2,115.2 C108.7,110.9 112.2,100.8 111,87 C110.4,85.8 109.3,84.8 108,84.9 L108,84.9 Z" id="Shape"></path>
                        <path d="M21.6,76.9 C11.1,71.9 5.3,65.5 5.3,58.8 C5.3,51.5 12.7,44.4 24.7,39.4 C25.6,43.7 26.9,48.2 28.5,52.9 C28.8,53.9 29.8,54.5 30.7,54.5 C31,54.5 31.2,54.5 31.5,54.4 C32.7,54 33.4,52.6 32.9,51.4 C31.2,46.6 29.9,42.1 29.1,37.8 C33.8,36.2 39.1,34.8 44.8,33.9 C46.1,33.7 47,32.5 46.7,31.2 C46.5,29.9 45.3,29.1 44,29.3 C38.3,30.2 33,31.5 28.3,33.1 C26.6,20.2 29,10.3 35.4,6.6 C41.4,3.2 50.5,5.4 60.6,12.7 C61.7,13.5 63.1,13.2 63.9,12.2 C64.7,11.1 64.4,9.7 63.4,8.9 C51.7,0.2 40.9,-2 33.2,2.4 C24.9,7.2 21.7,19.1 23.9,34.6 C9.3,40.4 0.6,49.1 0.6,58.8 C0.6,67.3 7.3,75.3 19.6,81.1 C19.9,81.3 20.3,81.3 20.6,81.3 C21.5,81.3 22.3,80.8 22.7,80 C23.3,78.9 22.8,77.5 21.6,76.9 L21.6,76.9 Z" id="Shape"></path>
                    </g>
                </g>
            </g>
        </g>
    </g>
</svg>