<svg width="64" height="69" viewBox="0 0 64 69" xmlns="http://www.w3.org/2000/svg"><title>icon-widget-stats</title><desc>Created with Sketch.</desc><defs><linearGradient x1="42.966%" y1="14.059%" x2="85.153%" y2="110.153%" id="a"><stop stop-color="#2CA5C3" offset="0%"/><stop stop-color="#136B90" offset="100%"/></linearGradient><linearGradient x1="10.934%" y1="-27.347%" x2="73.434%" y2="79.684%" id="b"><stop stop-color="#51C8E5" offset="0%"/><stop stop-color="#2897C5" offset="100%"/></linearGradient></defs><g fill="none" fill-rule="evenodd"><g><rect fill="url(#a)" y="5" width="64" height="64" rx="4"/><rect fill="url(#b)" width="64" height="64" rx="4"/></g><path d="M34.56 21.378c.57 0 1.01.16 1.318.482.31.32.463.73.463 1.23 0 .594-.23 1.117-.692 1.57-.463.45-1.027.677-1.692.677-.57 0-1.01-.155-1.32-.464-.307-.31-.45-.737-.426-1.284 0-.55.207-1.054.622-1.517.416-.464.992-.696 1.728-.696zm-3.67 17.83c-1.187 0-1.507-1.057-.96-3.173l1.068-4.53c.166-.665.166-.998 0-.998-.143 0-.463.107-.962.32-.5.215-.926.44-1.283.68l-.463-.786c1.07-.925 2.19-1.674 3.367-2.244 1.175-.57 2.072-.856 2.69-.856.926 0 1.14.962.64 2.887L33.74 35.25c-.19.76-.153 1.14.11 1.14.52 0 1.222-.355 2.1-1.07l.535.715c-.998 1.022-2.037 1.806-3.117 2.353-1.08.547-1.906.82-2.476.82z" fill="#fff"/></g></svg>