<svg width="64" height="69" viewBox="0 0 64 69" xmlns="http://www.w3.org/2000/svg"><title>icon-widget-index</title><desc>Created with Sketch.</desc><defs><linearGradient x1="42.966%" y1="14.059%" x2="85.153%" y2="110.153%" id="a"><stop stop-color="#2CA5C3" offset="0%"/><stop stop-color="#136B90" offset="100%"/></linearGradient><linearGradient x1="10.934%" y1="-27.347%" x2="73.434%" y2="79.684%" id="b"><stop stop-color="#51C8E5" offset="0%"/><stop stop-color="#2897C5" offset="100%"/></linearGradient></defs><g fill="none" fill-rule="evenodd"><g><rect fill="url(#a)" y="5" width="64" height="64" rx="4"/><rect fill="url(#b)" width="64" height="64" rx="4"/></g><path d="M24.83 28.25l6.314 7.717c.69.845 1.798.838 2.484 0l6.313-7.717c.694-.845.37-1.518-.706-1.518H25.538c-1.077 0-1.394.68-.708 1.518zm-2.343 1.038c-1.884-2.302-.56-5.142 2.424-5.142h14.95c2.983 0 4.316 2.832 2.426 5.142l-6.892 8.424c-1.604 1.96-4.407 1.965-6.014 0l-6.893-8.424z" fill="#fff"/></g></svg>