<svg width="64" height="69" viewBox="0 0 64 69" xmlns="http://www.w3.org/2000/svg"><title>icon-widget-menu</title><desc>Created with Sketch.</desc><defs><linearGradient x1="42.966%" y1="14.059%" x2="85.153%" y2="110.153%" id="a"><stop stop-color="#2CA5C3" offset="0%"/><stop stop-color="#136B90" offset="100%"/></linearGradient><linearGradient x1="10.934%" y1="-27.347%" x2="73.434%" y2="79.684%" id="b"><stop stop-color="#51C8E5" offset="0%"/><stop stop-color="#2897C5" offset="100%"/></linearGradient></defs><g fill="none" fill-rule="evenodd"><g><rect fill="url(#a)" y="5" width="64" height="64" rx="4"/><rect fill="url(#b)" width="64" height="64" rx="4"/></g><path d="M15.387 20.165c0-.828.68-1.5 1.505-1.5h30.99c.83 0 1.505.666 1.505 1.5 0 .828-.68 1.5-1.505 1.5h-30.99c-.83 0-1.505-.666-1.505-1.5zm0 11c0-.828.68-1.5 1.505-1.5h30.99c.83 0 1.505.666 1.505 1.5 0 .828-.68 1.5-1.505 1.5h-30.99c-.83 0-1.505-.666-1.505-1.5zm0 11c0-.828.68-1.5 1.505-1.5h30.99c.83 0 1.505.666 1.505 1.5 0 .828-.68 1.5-1.505 1.5h-30.99c-.83 0-1.505-.666-1.505-1.5z" fill="#fff"/></g></svg>