<svg width="64" height="69" viewBox="0 0 64 69" xmlns="http://www.w3.org/2000/svg"><title>icon-widget-results</title><desc>Created with Sketch.</desc><defs><linearGradient x1="42.966%" y1="14.059%" x2="85.153%" y2="110.153%" id="a"><stop stop-color="#2CA5C3" offset="0%"/><stop stop-color="#136B90" offset="100%"/></linearGradient><linearGradient x1="10.934%" y1="-27.347%" x2="73.434%" y2="79.684%" id="b"><stop stop-color="#51C8E5" offset="0%"/><stop stop-color="#2897C5" offset="100%"/></linearGradient></defs><g fill="none" fill-rule="evenodd"><g><rect fill="url(#a)" y="5" width="64" height="64" rx="4"/><rect fill="url(#b)" width="64" height="64" rx="4"/></g><path d="M38.324 26.69h-11.79v7.167c0 .346-.14.66-.367.888-.23.226-.548.367-.903.367H13.49c-.702 0-1.27-.56-1.27-1.263 0-.7.56-1.265 1.27-1.265h10.52V25.42c0-.693.56-1.255 1.262-1.255h14.315c.698 0 1.264.57 1.264 1.255v12.22h10.986c.695 0 1.26.56 1.26 1.262 0 .697-.562 1.263-1.26 1.263h-12.25c-.348 0-.662-.14-.892-.372-.228-.228-.37-.54-.37-.883V26.69z" fill="#fff"/></g></svg>