<?xml version="1.0" encoding="UTF-8"?>
<svg width="557px" height="888px" viewBox="0 0 557 888" version="1.1" xmlns="http://www.w3.org/2000/svg" xmlns:xlink="http://www.w3.org/1999/xlink">
    <!-- Generator: Sketch 42 (36781) - http://www.bohemiancoding.com/sketch -->
    <title>Artboard Copy</title>
    <desc>Created with Sketch.</desc>
    <defs>
        <filter x="-50%" y="-50%" width="200%" height="200%" filterUnits="objectBoundingBox" id="filter-1">
            <feOffset dx="0" dy="0" in="SourceAlpha" result="shadowOffsetOuter1"></feOffset>
            <feGaussianBlur stdDeviation="7" in="shadowOffsetOuter1" result="shadowBlurOuter1"></feGaussianBlur>
            <feColorMatrix values="0 0 0 0 0.160784314   0 0 0 0 0.843137255   0 0 0 0 0.611764706  0 0 0 0.2 0" type="matrix" in="shadowBlurOuter1" result="shadowMatrixOuter1"></feColorMatrix>
            <feMerge>
                <feMergeNode in="shadowMatrixOuter1"></feMergeNode>
                <feMergeNode in="SourceGraphic"></feMergeNode>
            </feMerge>
        </filter>
        <linearGradient x1="100%" y1="5.56959385%" x2="0%" y2="94.4304062%" id="linearGradient-2">
            <stop stop-color="#2CDD97" offset="0%"></stop>
            <stop stop-color="#1DC5CE" offset="100%"></stop>
        </linearGradient>
    </defs>
    <g id="Page-1" stroke="none" stroke-width="1" fill="none" fill-rule="evenodd">
        <g id="Artboard-Copy" fill-rule="nonzero">
            <g id="Group-2" filter="url(#filter-1)" transform="translate(204.000000, 414.000000)">
                <rect id="path-1" fill-opacity="0.9" fill="url(#linearGradient-2)" x="0" y="0" width="148" height="148" rx="9"></rect>
                <g id="Group" transform="translate(47.000000, 43.000000)" fill="#FFFFFF">
                    <path d="M10.323366,22.921787 L44.943942,22.921787 C45.546902,22.921787 45.546902,22.921787 45.546902,23.550675 L45.546902,49.754361 C45.546902,51.823142 44.150172,53.532932 42.145395,53.770075 C41.032336,53.901094 39.89638,53.868339 38.771873,53.861788 C38.334282,53.859168 38.2287,54.004598 38.231244,54.436959 C38.246509,57.328536 38.217252,60.218802 38.245237,63.110379 C38.271951,65.641655 36.282438,67.512598 33.789186,67.274145 C32.082072,67.110372 30.469091,65.508016 30.394039,63.765471 C30.301178,61.585325 30.317715,59.399937 30.293546,57.21586 C30.282097,56.267287 30.278281,55.318713 30.298634,54.37014 C30.306267,54.001978 30.20959,53.860478 29.82797,53.865719 C28.358732,53.886682 26.888223,53.886682 25.416441,53.865719 C25.029733,53.860478 24.950864,54.01377 24.952137,54.375381 C24.963585,57.297091 24.980122,60.220113 24.949592,63.140513 C24.933056,64.813619 24.207977,66.118562 22.729835,66.857506 C21.242789,67.601691 19.797721,67.424816 18.483676,66.374048 C17.510544,65.595799 17.029703,64.53848 17.019526,63.289874 C16.995357,60.338029 17.00299,57.384874 17.020799,54.433029 C17.023343,53.994117 16.908857,53.847376 16.47381,53.864409 C15.583363,53.897163 14.691644,53.87489 13.799925,53.87358 C11.475858,53.869649 9.702597,52.040632 9.702597,49.644305 L9.702597,23.579499 C9.702597,22.921787 9.702597,22.921787 10.323366,22.921787 Z" id="Path"></path>
                    <path d="M18.636069,6.67013 C18.19975,5.843404 17.783784,5.057294 17.367818,4.271183 C16.894609,3.375017 16.412496,2.484092 15.95328,1.581375 C15.733212,1.147704 15.861691,0.742857 16.229318,0.562051 C16.539703,0.40745 16.898426,0.55419 17.107045,0.945935 C17.975866,2.571874 18.837056,4.201743 19.699517,5.830302 C19.742768,5.910223 19.788562,5.987524 19.82418,6.049103 C20.85201,5.720247 21.846766,5.327191 22.875869,5.091358 C23.980023,4.837183 25.110891,4.714025 26.234126,4.563354 C28.284698,4.290836 30.303468,4.579076 32.296797,5.038951 C33.212686,5.251201 34.105677,5.595779 34.991035,5.928566 C35.316684,6.050413 35.483325,5.994075 35.635973,5.701904 C36.063388,4.885659 36.502251,4.075966 36.93221,3.261031 C37.341815,2.484092 37.743788,1.707152 38.149578,0.928903 C38.354381,0.534537 38.704199,0.406139 39.078187,0.585635 C39.379667,0.731065 39.509417,1.109708 39.330056,1.490972 C39.028576,2.134272 38.694022,2.763161 38.364557,3.393359 C37.867179,4.343243 37.372345,5.297057 36.853341,6.235149 C36.665075,6.574487 36.774473,6.744811 37.053056,6.930857 C37.942231,7.526991 38.850487,8.099541 39.696411,8.755944 C41.360275,10.043855 42.648879,11.678965 43.676709,13.539426 C44.578605,15.170606 45.161211,16.918392 45.427073,18.767062 C45.539015,19.546621 45.52375,20.347144 45.532655,21.138495 C45.533927,21.24724 45.349477,21.380879 45.226087,21.45818 C45.149763,21.505347 45.023828,21.467351 44.919519,21.467351 L10.433781,21.467351 C9.791387,21.467351 9.799019,21.467351 9.790115,20.830602 C9.743049,17.338961 10.901902,14.282301 12.939753,11.540085 C14.420439,9.545985 16.300554,8.048444 18.403281,6.820802 C18.466884,6.784116 18.526671,6.74088 18.636069,6.67013 Z M19.5,15 C20.3284271,15 21,14.3284271 21,13.5 C21,12.6715729 20.3284271,12 19.5,12 C18.6715729,12 18,12.6715729 18,13.5 C18,14.3284271 18.6715729,15 19.5,15 Z M35.5,15 C36.3284271,15 37,14.3284271 37,13.5 C37,12.6715729 36.3284271,12 35.5,12 C34.6715729,12 34,12.6715729 34,13.5 C34,14.3284271 34.6715729,15 35.5,15 Z" id="Combined-Shape"></path>
                    <path d="M8.291111,34.84394 L8.291111,43.563216 C8.289839,45.392233 6.923639,47.00638 5.174547,47.370611 C2.95479,47.829176 0.89913,46.386663 0.48698,44.253683 C0.40684,43.837044 0.350869,43.409924 0.349597,42.988045 C0.340692,37.541609 0.33306,32.093863 0.350869,26.647427 C0.355957,25.041141 0.866056,23.67986 2.276778,22.774522 C3.553934,21.955657 5.463306,21.998893 6.667954,22.934365 C7.756843,23.782054 8.30256,24.887849 8.294927,26.305469 C8.279663,29.151189 8.291111,31.996909 8.291111,34.84394 Z" id="Path"></path>
                    <path d="M54.906644,34.82599 C54.906644,37.594409 54.918093,40.364139 54.901556,43.133869 C54.895196,44.379854 54.523752,45.476478 53.615496,46.372644 C52.317988,47.654004 50.030811,47.825638 48.587015,46.704121 C47.496854,45.857742 46.957497,44.736224 46.958769,43.330396 C46.961313,37.610132 46.958769,31.888557 46.960041,26.166982 C46.960041,24.505669 47.929356,23.098531 49.532161,22.418545 C50.838574,21.866958 52.601659,22.260013 53.652386,23.30685 C54.512303,24.165021 54.890107,25.230201 54.899012,26.427709 C54.921909,29.227573 54.906644,32.026126 54.906644,34.82599 Z" id="Path"></path>
                </g>
            </g>
            <rect id="path-1" fill-opacity="0.18" fill="#FFFFFF" x="368" y="496" width="148" height="148" rx="9"></rect>
            <rect id="path-1-copy-3" fill-opacity="0.18" fill="#FFFFFF" x="368" y="660" width="148" height="148" rx="9"></rect>
            <rect id="path-1-copy-9" fill-opacity="0.18" fill="#FFFFFF" x="204" y="742" width="148" height="148" rx="9"></rect>
            <rect id="path-1-copy-6" fill-opacity="0.18" fill="#FFFFFF" x="368" y="332" width="148" height="148" rx="9"></rect>
            <rect id="path-1" fill-opacity="0.18" fill="#FFFFFF" x="368" y="4" width="148" height="148" rx="9"></rect>
            <rect id="path-1-copy-3" fill-opacity="0.18" fill="#FFFFFF" x="368" y="168" width="148" height="148" rx="9"></rect>
            <rect id="path-1-copy-2" fill-opacity="0.18" fill="#FFFFFF" x="204" y="578" width="148" height="148" rx="9"></rect>
            <rect id="path-1-copy" fill-opacity="0.18" fill="#FFFFFF" x="40" y="496" width="148" height="148" rx="9"></rect>
            <rect id="path-1-copy-7" fill-opacity="0.18" fill="#FFFFFF" x="204" y="250" width="148" height="148" rx="9"></rect>
            <rect id="path-1-copy-4" fill-opacity="0.18" fill="#FFFFFF" x="40" y="660" width="148" height="148" rx="9"></rect>
            <rect id="path-1-copy-3" fill-opacity="0.18" fill="#FFFFFF" x="368" y="824" width="148" height="148" rx="9"></rect>
            <rect id="path-1-copy-4" fill-opacity="0.18" fill="#FFFFFF" x="40" y="824" width="148" height="148" rx="9"></rect>
            <rect id="path-1-copy-8" fill-opacity="0.18" fill="#FFFFFF" x="40" y="332" width="148" height="148" rx="9"></rect>
            <rect id="path-1-copy" fill-opacity="0.18" fill="#FFFFFF" x="40" y="4" width="148" height="148" rx="9"></rect>
            <rect id="path-1-copy-4" fill-opacity="0.18" fill="#FFFFFF" x="40" y="168" width="148" height="148" rx="9"></rect>
            <rect id="path-1-copy" fill-opacity="0.18" fill="#FFFFFF" x="204" y="-78" width="148" height="148" rx="9"></rect>
            <rect id="path-1-copy-4" fill-opacity="0.18" fill="#FFFFFF" x="204" y="86" width="148" height="148" rx="9"></rect>
        </g>
    </g>
</svg>