<svg width="53" height="54" viewBox="0 0 53 54" xmlns="http://www.w3.org/2000/svg"><title>media</title><defs><linearGradient x1="10.361%" y1="87.361%" x2="82.981%" y2="1.146%" id="a"><stop stop-color="#2EDE98" offset="0%"/><stop stop-color="#1CC7D0" offset="100%"/></linearGradient></defs><g fill-rule="nonzero" fill="url(#a)"><path d="M26.5 53.2C11.9 53.2 0 41.3 0 26.7S11.9.2 26.5.2 53 12.1 53 26.7 41.1 53.2 26.5 53.2zm0-51C13 2.2 2 13.2 2 26.7s11 24.5 24.5 24.5S51 40.2 51 26.7 40 2.2 26.5 2.2z"/><path d="M22.3 35.4c-.2 0-.3 0-.5-.1-.3-.2-.5-.5-.5-.9V19.1c0-.4.2-.7.5-.9.3-.2.7-.2 1 0l13.3 7.6c.3.2.5.5.5.9s-.2.7-.5.9l-13.3 7.7c-.2.1-.3.1-.5.1zm1-14.6v11.8l10.3-6-10.3-5.8z"/></g></svg>