<?xml version="1.0" encoding="UTF-8" standalone="no"?><!DOCTYPE svg PUBLIC "-//W3C//DTD SVG 1.1//EN" "http://www.w3.org/Graphics/SVG/1.1/DTD/svg11.dtd"><svg width="100%" height="100%" viewBox="0 0 801 801" version="1.1" xmlns="http://www.w3.org/2000/svg" xmlns:xlink="http://www.w3.org/1999/xlink" xml:space="preserve" style="fill-rule:evenodd;clip-rule:evenodd;stroke-linejoin:round;stroke-miterlimit:1.41421;"><rect id="conjunctive-facets" x="0.711" y="0.853" width="800" height="800" style="fill:none;"/><clipPath id="_clip1"><rect x="0.711" y="0.853" width="800" height="800"/></clipPath><g clip-path="url(#_clip1)"><g id="UI"><rect x="53.916" y="-70.409" width="697.999" height="107.424" style="fill:#e0e0e0;"/><rect x="326.418" y="84.87" width="425.497" height="91.694" style="fill:#e0e0e0;"/><rect x="326.418" y="231.247" width="425.497" height="91.694" style="fill:#e0e0e0;"/><rect x="326.418" y="377.625" width="425.497" height="91.694" style="fill:#e0e0e0;"/><rect x="326.418" y="524.002" width="425.497" height="91.694" style="fill:#e0e0e0;"/><rect x="326.418" y="670.379" width="425.497" height="91.694" style="fill:#e0e0e0;"/><rect x="53.916" y="84.87" width="213.448" height="384.448" style="fill:#e0e0e0;"/></g><path d="M69.296,113.186c0,-1.536 0.27,-3.066 0.81,-4.59c0.54,-1.524 1.326,-2.886 2.358,-4.086c1.032,-1.2 2.304,-2.178 3.816,-2.934c1.512,-0.756 3.228,-1.134 5.148,-1.134c2.28,0 4.23,0.516 5.85,1.548c1.62,1.032 2.814,2.376 3.582,4.032l-1.98,1.224c-0.408,-0.84 -0.906,-1.548 -1.494,-2.124c-0.588,-0.576 -1.218,-1.044 -1.89,-1.404c-0.672,-0.36 -1.368,-0.618 -2.088,-0.774c-0.72,-0.156 -1.428,-0.234 -2.124,-0.234c-1.536,0 -2.892,0.312 -4.068,0.936c-1.176,0.624 -2.166,1.44 -2.97,2.448c-0.804,1.008 -1.41,2.142 -1.818,3.402c-0.408,1.26 -0.612,2.538 -0.612,3.834c0,1.416 0.246,2.772 0.738,4.068c0.492,1.296 1.164,2.442 2.016,3.438c0.852,0.996 1.86,1.788 3.024,2.376c1.164,0.588 2.43,0.882 3.798,0.882c0.72,0 1.458,-0.09 2.214,-0.27c0.756,-0.18 1.488,-0.468 2.196,-0.864c0.708,-0.396 1.362,-0.888 1.962,-1.476c0.6,-0.588 1.104,-1.302 1.512,-2.142l2.088,1.08c-0.408,0.96 -0.984,1.806 -1.728,2.538c-0.744,0.732 -1.572,1.35 -2.484,1.854c-0.912,0.504 -1.878,0.888 -2.898,1.152c-1.02,0.264 -2.022,0.396 -3.006,0.396c-1.752,0 -3.36,-0.384 -4.824,-1.152c-1.464,-0.768 -2.724,-1.77 -3.78,-3.006c-1.056,-1.236 -1.878,-2.64 -2.466,-4.212c-0.588,-1.572 -0.882,-3.174 -0.882,-4.806Z" style="fill-rule:nonzero;"/><path d="M99.896,126.506c-0.888,0 -1.71,-0.15 -2.466,-0.45c-0.756,-0.3 -1.416,-0.714 -1.98,-1.242c-0.564,-0.528 -1.002,-1.146 -1.314,-1.854c-0.312,-0.708 -0.468,-1.47 -0.468,-2.286c0,-0.816 0.192,-1.572 0.576,-2.268c0.384,-0.696 0.924,-1.296 1.62,-1.8c0.696,-0.504 1.524,-0.894 2.484,-1.17c0.96,-0.276 2.016,-0.414 3.168,-0.414c0.96,0 1.932,0.084 2.916,0.252c0.984,0.168 1.86,0.408 2.628,0.72l0,-1.692c0,-1.656 -0.468,-2.97 -1.404,-3.942c-0.936,-0.972 -2.232,-1.458 -3.888,-1.458c-0.96,0 -1.944,0.192 -2.952,0.576c-1.008,0.384 -2.028,0.936 -3.06,1.656l-0.864,-1.62c2.424,-1.632 4.776,-2.448 7.056,-2.448c2.352,0 4.2,0.66 5.544,1.98c1.344,1.32 2.016,3.144 2.016,5.472l0,8.46c0,0.672 0.3,1.008 0.9,1.008l0,2.16c-0.408,0.072 -0.72,0.108 -0.936,0.108c-0.624,0 -1.11,-0.156 -1.458,-0.468c-0.348,-0.312 -0.534,-0.744 -0.558,-1.296l-0.072,-1.476c-0.864,1.128 -1.95,1.992 -3.258,2.592c-1.308,0.6 -2.718,0.9 -4.23,0.9Zm0.576,-1.872c1.272,0 2.442,-0.24 3.51,-0.72c1.068,-0.48 1.878,-1.116 2.43,-1.908c0.216,-0.216 0.378,-0.45 0.486,-0.702c0.108,-0.252 0.162,-0.486 0.162,-0.702l0,-3.06c-0.816,-0.312 -1.662,-0.552 -2.538,-0.72c-0.876,-0.168 -1.77,-0.252 -2.682,-0.252c-1.728,0 -3.132,0.36 -4.212,1.08c-1.08,0.72 -1.62,1.668 -1.62,2.844c0,0.576 0.114,1.116 0.342,1.62c0.228,0.504 0.54,0.942 0.936,1.314c0.396,0.372 0.87,0.666 1.422,0.882c0.552,0.216 1.14,0.324 1.764,0.324Z" style="fill-rule:nonzero;"/><path d="M123.656,125.246c-0.144,0.072 -0.354,0.168 -0.63,0.288c-0.276,0.12 -0.594,0.24 -0.954,0.36c-0.36,0.12 -0.768,0.228 -1.224,0.324c-0.456,0.096 -0.936,0.144 -1.44,0.144c-0.528,0 -1.032,-0.072 -1.512,-0.216c-0.48,-0.144 -0.9,-0.366 -1.26,-0.666c-0.36,-0.3 -0.648,-0.678 -0.864,-1.134c-0.216,-0.456 -0.324,-0.984 -0.324,-1.584l0,-13.428l-2.592,0l0,-1.944l2.592,0l0,-6.336l2.448,0l0,6.336l4.32,0l0,1.944l-4.32,0l0,12.744c0.048,0.696 0.294,1.206 0.738,1.53c0.444,0.324 0.954,0.486 1.53,0.486c0.696,0 1.308,-0.114 1.836,-0.342c0.528,-0.228 0.864,-0.39 1.008,-0.486l0.648,1.98Z" style="fill-rule:nonzero;"/><path d="M134.348,126.506c-1.368,0 -2.622,-0.258 -3.762,-0.774c-1.14,-0.516 -2.13,-1.224 -2.97,-2.124c-0.84,-0.9 -1.494,-1.938 -1.962,-3.114c-0.468,-1.176 -0.702,-2.436 -0.702,-3.78c0,-1.32 0.234,-2.562 0.702,-3.726c0.468,-1.164 1.116,-2.184 1.944,-3.06c0.828,-0.876 1.818,-1.572 2.97,-2.088c1.152,-0.516 2.4,-0.774 3.744,-0.774c1.368,0 2.622,0.258 3.762,0.774c1.14,0.516 2.118,1.218 2.934,2.106c0.816,0.888 1.452,1.908 1.908,3.06c0.456,1.152 0.684,2.376 0.684,3.672c0,0.192 0,0.384 0,0.576c0,0.192 -0.012,0.324 -0.036,0.396l-16.056,0c0.072,1.008 0.306,1.938 0.702,2.79c0.396,0.852 0.906,1.59 1.53,2.214c0.624,0.624 1.338,1.11 2.142,1.458c0.804,0.348 1.662,0.522 2.574,0.522c0.6,0 1.2,-0.084 1.8,-0.252c0.6,-0.168 1.152,-0.396 1.656,-0.684c0.504,-0.288 0.96,-0.642 1.368,-1.062c0.408,-0.42 0.72,-0.882 0.936,-1.386l2.124,0.576c-0.288,0.696 -0.696,1.326 -1.224,1.89c-0.528,0.564 -1.14,1.056 -1.836,1.476c-0.696,0.42 -1.464,0.744 -2.304,0.972c-0.84,0.228 -1.716,0.342 -2.628,0.342Zm6.912,-10.728c-0.072,-1.008 -0.306,-1.926 -0.702,-2.754c-0.396,-0.828 -0.9,-1.542 -1.512,-2.142c-0.612,-0.6 -1.32,-1.068 -2.124,-1.404c-0.804,-0.336 -1.662,-0.504 -2.574,-0.504c-0.912,0 -1.776,0.168 -2.592,0.504c-0.816,0.336 -1.53,0.804 -2.142,1.404c-0.612,0.6 -1.104,1.32 -1.476,2.16c-0.372,0.84 -0.594,1.752 -0.666,2.736l13.788,0Z" style="fill-rule:nonzero;"/><path d="M154.904,126.398c-1.296,0 -2.478,-0.27 -3.546,-0.81c-1.068,-0.54 -1.992,-1.254 -2.772,-2.142c-0.78,-0.888 -1.386,-1.908 -1.818,-3.06c-0.432,-1.152 -0.648,-2.34 -0.648,-3.564c0,-1.296 0.21,-2.538 0.63,-3.726c0.42,-1.188 1.014,-2.226 1.782,-3.114c0.768,-0.888 1.686,-1.596 2.754,-2.124c1.068,-0.528 2.25,-0.792 3.546,-0.792c1.608,0 3,0.402 4.176,1.206c1.176,0.804 2.184,1.818 3.024,3.042l0,-3.924l2.196,0l0,18.828c0,1.296 -0.246,2.442 -0.738,3.438c-0.492,0.996 -1.152,1.83 -1.98,2.502c-0.828,0.672 -1.8,1.176 -2.916,1.512c-1.116,0.336 -2.298,0.504 -3.546,0.504c-2.16,0 -3.9,-0.384 -5.22,-1.152c-1.32,-0.768 -2.388,-1.8 -3.204,-3.096l1.512,-1.188c0.744,1.2 1.728,2.082 2.952,2.646c1.224,0.564 2.544,0.846 3.96,0.846c0.912,0 1.776,-0.126 2.592,-0.378c0.816,-0.252 1.53,-0.624 2.142,-1.116c0.612,-0.492 1.098,-1.116 1.458,-1.872c0.36,-0.756 0.54,-1.638 0.54,-2.646l0,-3.708c-0.72,1.2 -1.704,2.148 -2.952,2.844c-1.248,0.696 -2.556,1.044 -3.924,1.044Zm0.684,-2.052c0.72,0 1.428,-0.132 2.124,-0.396c0.696,-0.264 1.326,-0.618 1.89,-1.062c0.564,-0.444 1.038,-0.942 1.422,-1.494c0.384,-0.552 0.636,-1.116 0.756,-1.692l0,-5.796c-0.264,-0.672 -0.624,-1.296 -1.08,-1.872c-0.456,-0.576 -0.972,-1.068 -1.548,-1.476c-0.576,-0.408 -1.194,-0.732 -1.854,-0.972c-0.66,-0.24 -1.326,-0.36 -1.998,-0.36c-1.056,0 -1.998,0.222 -2.826,0.666c-0.828,0.444 -1.53,1.026 -2.106,1.746c-0.576,0.72 -1.014,1.536 -1.314,2.448c-0.3,0.912 -0.45,1.836 -0.45,2.772c0,1.008 0.18,1.968 0.54,2.88c0.36,0.912 0.858,1.71 1.494,2.394c0.636,0.684 1.374,1.224 2.214,1.62c0.84,0.396 1.752,0.594 2.736,0.594Z" style="fill-rule:nonzero;"/><path d="M177.62,126.506c-1.368,0 -2.616,-0.258 -3.744,-0.774c-1.128,-0.516 -2.106,-1.218 -2.934,-2.106c-0.828,-0.888 -1.47,-1.92 -1.926,-3.096c-0.456,-1.176 -0.684,-2.412 -0.684,-3.708c0,-1.32 0.234,-2.568 0.702,-3.744c0.468,-1.176 1.116,-2.208 1.944,-3.096c0.828,-0.888 1.806,-1.596 2.934,-2.124c1.128,-0.528 2.364,-0.792 3.708,-0.792c1.344,0 2.586,0.264 3.726,0.792c1.14,0.528 2.124,1.236 2.952,2.124c0.828,0.888 1.476,1.92 1.944,3.096c0.468,1.176 0.702,2.424 0.702,3.744c0,1.296 -0.228,2.532 -0.684,3.708c-0.456,1.176 -1.098,2.208 -1.926,3.096c-0.828,0.888 -1.812,1.59 -2.952,2.106c-1.14,0.516 -2.394,0.774 -3.762,0.774Zm-6.804,-9.648c0,1.056 0.18,2.034 0.54,2.934c0.36,0.9 0.846,1.692 1.458,2.376c0.612,0.684 1.332,1.218 2.16,1.602c0.828,0.384 1.71,0.576 2.646,0.576c0.936,0 1.818,-0.198 2.646,-0.594c0.828,-0.396 1.554,-0.936 2.178,-1.62c0.624,-0.684 1.116,-1.482 1.476,-2.394c0.36,-0.912 0.54,-1.896 0.54,-2.952c0,-1.032 -0.18,-2.01 -0.54,-2.934c-0.36,-0.924 -0.852,-1.728 -1.476,-2.412c-0.624,-0.684 -1.35,-1.224 -2.178,-1.62c-0.828,-0.396 -1.71,-0.594 -2.646,-0.594c-0.936,0 -1.812,0.198 -2.628,0.594c-0.816,0.396 -1.536,0.942 -2.16,1.638c-0.624,0.696 -1.116,1.506 -1.476,2.43c-0.36,0.924 -0.54,1.914 -0.54,2.97Z" style="fill-rule:nonzero;"/><path d="M200.408,109.55c-1.656,0.048 -3.096,0.504 -4.32,1.368c-1.224,0.864 -2.088,2.052 -2.592,3.564l0,11.664l-2.448,0l0,-18.756l2.304,0l0,4.5c0.696,-1.44 1.632,-2.568 2.808,-3.384c1.176,-0.816 2.436,-1.224 3.78,-1.224c0.192,0 0.348,0.012 0.468,0.036l0,2.232Z" style="fill-rule:nonzero;"/><path d="M203.684,126.146l0,-18.756l2.448,0l0,18.756l-2.448,0Zm0,-22.68l0,-3.6l2.448,0l0,3.6l-2.448,0Z" style="fill-rule:nonzero;"/><path d="M219.632,126.506c-1.368,0 -2.622,-0.258 -3.762,-0.774c-1.14,-0.516 -2.13,-1.224 -2.97,-2.124c-0.84,-0.9 -1.494,-1.938 -1.962,-3.114c-0.468,-1.176 -0.702,-2.436 -0.702,-3.78c0,-1.32 0.234,-2.562 0.702,-3.726c0.468,-1.164 1.116,-2.184 1.944,-3.06c0.828,-0.876 1.818,-1.572 2.97,-2.088c1.152,-0.516 2.4,-0.774 3.744,-0.774c1.368,0 2.622,0.258 3.762,0.774c1.14,0.516 2.118,1.218 2.934,2.106c0.816,0.888 1.452,1.908 1.908,3.06c0.456,1.152 0.684,2.376 0.684,3.672c0,0.192 0,0.384 0,0.576c0,0.192 -0.012,0.324 -0.036,0.396l-16.056,0c0.072,1.008 0.306,1.938 0.702,2.79c0.396,0.852 0.906,1.59 1.53,2.214c0.624,0.624 1.338,1.11 2.142,1.458c0.804,0.348 1.662,0.522 2.574,0.522c0.6,0 1.2,-0.084 1.8,-0.252c0.6,-0.168 1.152,-0.396 1.656,-0.684c0.504,-0.288 0.96,-0.642 1.368,-1.062c0.408,-0.42 0.72,-0.882 0.936,-1.386l2.124,0.576c-0.288,0.696 -0.696,1.326 -1.224,1.89c-0.528,0.564 -1.14,1.056 -1.836,1.476c-0.696,0.42 -1.464,0.744 -2.304,0.972c-0.84,0.228 -1.716,0.342 -2.628,0.342Zm6.912,-10.728c-0.072,-1.008 -0.306,-1.926 -0.702,-2.754c-0.396,-0.828 -0.9,-1.542 -1.512,-2.142c-0.612,-0.6 -1.32,-1.068 -2.124,-1.404c-0.804,-0.336 -1.662,-0.504 -2.574,-0.504c-0.912,0 -1.776,0.168 -2.592,0.504c-0.816,0.336 -1.53,0.804 -2.142,1.404c-0.612,0.6 -1.104,1.32 -1.476,2.16c-0.372,0.84 -0.594,1.752 -0.666,2.736l13.788,0Z" style="fill-rule:nonzero;"/><path d="M238.892,126.506c-1.464,0 -2.892,-0.24 -4.284,-0.72c-1.392,-0.48 -2.592,-1.176 -3.6,-2.088l1.116,-1.656c1.056,0.864 2.13,1.512 3.222,1.944c1.092,0.432 2.262,0.648 3.51,0.648c1.512,0 2.718,-0.306 3.618,-0.918c0.9,-0.612 1.35,-1.482 1.35,-2.61c0,-0.528 -0.12,-0.966 -0.36,-1.314c-0.24,-0.348 -0.594,-0.654 -1.062,-0.918c-0.468,-0.264 -1.056,-0.498 -1.764,-0.702c-0.708,-0.204 -1.53,-0.414 -2.466,-0.63c-1.08,-0.264 -2.016,-0.528 -2.808,-0.792c-0.792,-0.264 -1.446,-0.564 -1.962,-0.9c-0.516,-0.336 -0.9,-0.75 -1.152,-1.242c-0.252,-0.492 -0.378,-1.11 -0.378,-1.854c0,-0.936 0.186,-1.764 0.558,-2.484c0.372,-0.72 0.876,-1.314 1.512,-1.782c0.636,-0.468 1.38,-0.822 2.232,-1.062c0.852,-0.24 1.758,-0.36 2.718,-0.36c1.44,0 2.748,0.234 3.924,0.702c1.176,0.468 2.124,1.086 2.844,1.854l-1.188,1.44c-0.696,-0.72 -1.542,-1.26 -2.538,-1.62c-0.996,-0.36 -2.034,-0.54 -3.114,-0.54c-0.648,0 -1.248,0.066 -1.8,0.198c-0.552,0.132 -1.038,0.342 -1.458,0.63c-0.42,0.288 -0.75,0.654 -0.99,1.098c-0.24,0.444 -0.36,0.966 -0.36,1.566c0,0.504 0.084,0.912 0.252,1.224c0.168,0.312 0.444,0.582 0.828,0.81c0.384,0.228 0.87,0.432 1.458,0.612c0.588,0.18 1.302,0.366 2.142,0.558c1.2,0.288 2.256,0.576 3.168,0.864c0.912,0.288 1.674,0.624 2.286,1.008c0.612,0.384 1.074,0.852 1.386,1.404c0.312,0.552 0.468,1.224 0.468,2.016c0,1.728 -0.66,3.096 -1.98,4.104c-1.32,1.008 -3.096,1.512 -5.328,1.512Z" style="fill-rule:nonzero;"/><path d="M82.304,153.681l-5.448,0l0,14.136l-3.288,0l0,-14.136l-5.448,0l0,-2.904l14.184,0l0,2.904Z" style="fill-rule:nonzero;"/><path d="M86.168,150.777l4.608,12.888l4.56,-12.888l3.48,0l-6.648,17.04l-2.784,0l-6.696,-17.04l3.48,0Z" style="fill-rule:nonzero;"/><g transform="matrix(1,0,0,1,-233.017,-1715.13)"><path d="M833.341,1874.79c0,-1.024 0.18,-2.044 0.54,-3.06c0.36,-1.016 0.884,-1.924 1.572,-2.724c0.688,-0.8 1.536,-1.452 2.544,-1.956c1.008,-0.504 2.152,-0.756 3.432,-0.756c1.52,0 2.82,0.344 3.9,1.032c1.08,0.688 1.876,1.584 2.388,2.688l-1.32,0.816c-0.272,-0.56 -0.604,-1.032 -0.996,-1.416c-0.392,-0.384 -0.812,-0.696 -1.26,-0.936c-0.448,-0.24 -0.912,-0.412 -1.392,-0.516c-0.48,-0.104 -0.952,-0.156 -1.416,-0.156c-1.024,0 -1.928,0.208 -2.712,0.624c-0.784,0.416 -1.444,0.96 -1.98,1.632c-0.536,0.672 -0.94,1.428 -1.212,2.268c-0.272,0.84 -0.408,1.692 -0.408,2.556c0,0.944 0.164,1.848 0.492,2.712c0.328,0.864 0.776,1.628 1.344,2.292c0.568,0.664 1.24,1.192 2.016,1.584c0.776,0.392 1.62,0.588 2.532,0.588c0.48,0 0.972,-0.06 1.476,-0.18c0.504,-0.12 0.992,-0.312 1.464,-0.576c0.472,-0.264 0.908,-0.592 1.308,-0.984c0.4,-0.392 0.736,-0.868 1.008,-1.428l1.392,0.72c-0.272,0.64 -0.656,1.204 -1.152,1.692c-0.496,0.488 -1.048,0.9 -1.656,1.236c-0.608,0.336 -1.252,0.592 -1.932,0.768c-0.68,0.176 -1.348,0.264 -2.004,0.264c-1.168,0 -2.24,-0.256 -3.216,-0.768c-0.976,-0.512 -1.816,-1.18 -2.52,-2.004c-0.704,-0.824 -1.252,-1.76 -1.644,-2.808c-0.392,-1.048 -0.588,-2.116 -0.588,-3.204Z" style="fill-rule:nonzero;"/><path d="M853.741,1883.67c-0.592,0 -1.14,-0.1 -1.644,-0.3c-0.504,-0.2 -0.944,-0.476 -1.32,-0.828c-0.376,-0.352 -0.668,-0.764 -0.876,-1.236c-0.208,-0.472 -0.312,-0.98 -0.312,-1.524c0,-0.544 0.128,-1.048 0.384,-1.512c0.256,-0.464 0.616,-0.864 1.08,-1.2c0.464,-0.336 1.016,-0.596 1.656,-0.78c0.64,-0.184 1.344,-0.276 2.112,-0.276c0.64,0 1.288,0.056 1.944,0.168c0.656,0.112 1.24,0.272 1.752,0.48l0,-1.128c0,-1.104 -0.312,-1.98 -0.936,-2.628c-0.624,-0.648 -1.488,-0.972 -2.592,-0.972c-0.64,0 -1.296,0.128 -1.968,0.384c-0.672,0.256 -1.352,0.624 -2.04,1.104l-0.576,-1.08c1.616,-1.088 3.184,-1.632 4.704,-1.632c1.568,0 2.8,0.44 3.696,1.32c0.896,0.88 1.344,2.096 1.344,3.648l0,5.64c0,0.448 0.2,0.672 0.6,0.672l0,1.44c-0.272,0.048 -0.48,0.072 -0.624,0.072c-0.416,0 -0.74,-0.104 -0.972,-0.312c-0.232,-0.208 -0.356,-0.496 -0.372,-0.864l-0.048,-0.984c-0.576,0.752 -1.3,1.328 -2.172,1.728c-0.872,0.4 -1.812,0.6 -2.82,0.6Zm0.384,-1.248c0.848,0 1.628,-0.16 2.34,-0.48c0.712,-0.32 1.252,-0.744 1.62,-1.272c0.144,-0.144 0.252,-0.3 0.324,-0.468c0.072,-0.168 0.108,-0.324 0.108,-0.468l0,-2.04c-0.544,-0.208 -1.108,-0.368 -1.692,-0.48c-0.584,-0.112 -1.18,-0.168 -1.788,-0.168c-1.152,0 -2.088,0.24 -2.808,0.72c-0.72,0.48 -1.08,1.112 -1.08,1.896c0,0.384 0.076,0.744 0.228,1.08c0.152,0.336 0.36,0.628 0.624,0.876c0.264,0.248 0.58,0.444 0.948,0.588c0.368,0.144 0.76,0.216 1.176,0.216Z" style="fill-rule:nonzero;"/><path d="M869.581,1882.83c-0.096,0.048 -0.236,0.112 -0.42,0.192c-0.184,0.08 -0.396,0.16 -0.636,0.24c-0.24,0.08 -0.512,0.152 -0.816,0.216c-0.304,0.064 -0.624,0.096 -0.96,0.096c-0.352,0 -0.688,-0.048 -1.008,-0.144c-0.32,-0.096 -0.6,-0.244 -0.84,-0.444c-0.24,-0.2 -0.432,-0.452 -0.576,-0.756c-0.144,-0.304 -0.216,-0.656 -0.216,-1.056l0,-8.952l-1.728,0l0,-1.296l1.728,0l0,-4.224l1.632,0l0,4.224l2.88,0l0,1.296l-2.88,0l0,8.496c0.032,0.464 0.196,0.804 0.492,1.02c0.296,0.216 0.636,0.324 1.02,0.324c0.464,0 0.872,-0.076 1.224,-0.228c0.352,-0.152 0.576,-0.26 0.672,-0.324l0.432,1.32Z" style="fill-rule:nonzero;"/><path d="M876.709,1883.67c-0.912,0 -1.748,-0.172 -2.508,-0.516c-0.76,-0.344 -1.42,-0.816 -1.98,-1.416c-0.56,-0.6 -0.996,-1.292 -1.308,-2.076c-0.312,-0.784 -0.468,-1.624 -0.468,-2.52c0,-0.88 0.156,-1.708 0.468,-2.484c0.312,-0.776 0.744,-1.456 1.296,-2.04c0.552,-0.584 1.212,-1.048 1.98,-1.392c0.768,-0.344 1.6,-0.516 2.496,-0.516c0.912,0 1.748,0.172 2.508,0.516c0.76,0.344 1.412,0.812 1.956,1.404c0.544,0.592 0.968,1.272 1.272,2.04c0.304,0.768 0.456,1.584 0.456,2.448c0,0.128 0,0.256 0,0.384c0,0.128 -0.008,0.216 -0.024,0.264l-10.704,0c0.048,0.672 0.204,1.292 0.468,1.86c0.264,0.568 0.604,1.06 1.02,1.476c0.416,0.416 0.892,0.74 1.428,0.972c0.536,0.232 1.108,0.348 1.716,0.348c0.4,0 0.8,-0.056 1.2,-0.168c0.4,-0.112 0.768,-0.264 1.104,-0.456c0.336,-0.192 0.64,-0.428 0.912,-0.708c0.272,-0.28 0.48,-0.588 0.624,-0.924l1.416,0.384c-0.192,0.464 -0.464,0.884 -0.816,1.26c-0.352,0.376 -0.76,0.704 -1.224,0.984c-0.464,0.28 -0.976,0.496 -1.536,0.648c-0.56,0.152 -1.144,0.228 -1.752,0.228Zm4.608,-7.152c-0.048,-0.672 -0.204,-1.284 -0.468,-1.836c-0.264,-0.552 -0.6,-1.028 -1.008,-1.428c-0.408,-0.4 -0.88,-0.712 -1.416,-0.936c-0.536,-0.224 -1.108,-0.336 -1.716,-0.336c-0.608,0 -1.184,0.112 -1.728,0.336c-0.544,0.224 -1.02,0.536 -1.428,0.936c-0.408,0.4 -0.736,0.88 -0.984,1.44c-0.248,0.56 -0.396,1.168 -0.444,1.824l9.192,0Z" style="fill-rule:nonzero;"/><path d="M890.413,1883.6c-0.864,0 -1.652,-0.18 -2.364,-0.54c-0.712,-0.36 -1.328,-0.836 -1.848,-1.428c-0.52,-0.592 -0.924,-1.272 -1.212,-2.04c-0.288,-0.768 -0.432,-1.56 -0.432,-2.376c0,-0.864 0.14,-1.692 0.42,-2.484c0.28,-0.792 0.676,-1.484 1.188,-2.076c0.512,-0.592 1.124,-1.064 1.836,-1.416c0.712,-0.352 1.5,-0.528 2.364,-0.528c1.072,0 2,0.268 2.784,0.804c0.784,0.536 1.456,1.212 2.016,2.028l0,-2.616l1.464,0l0,12.552c0,0.864 -0.164,1.628 -0.492,2.292c-0.328,0.664 -0.768,1.22 -1.32,1.668c-0.552,0.448 -1.2,0.784 -1.944,1.008c-0.744,0.224 -1.532,0.336 -2.364,0.336c-1.44,0 -2.6,-0.256 -3.48,-0.768c-0.88,-0.512 -1.592,-1.2 -2.136,-2.064l1.008,-0.792c0.496,0.8 1.152,1.388 1.968,1.764c0.816,0.376 1.696,0.564 2.64,0.564c0.608,0 1.184,-0.084 1.728,-0.252c0.544,-0.168 1.02,-0.416 1.428,-0.744c0.408,-0.328 0.732,-0.744 0.972,-1.248c0.24,-0.504 0.36,-1.092 0.36,-1.764l0,-2.472c-0.48,0.8 -1.136,1.432 -1.968,1.896c-0.832,0.464 -1.704,0.696 -2.616,0.696Zm0.456,-1.368c0.48,0 0.952,-0.088 1.416,-0.264c0.464,-0.176 0.884,-0.412 1.26,-0.708c0.376,-0.296 0.692,-0.628 0.948,-0.996c0.256,-0.368 0.424,-0.744 0.504,-1.128l0,-3.864c-0.176,-0.448 -0.416,-0.864 -0.72,-1.248c-0.304,-0.384 -0.648,-0.712 -1.032,-0.984c-0.384,-0.272 -0.796,-0.488 -1.236,-0.648c-0.44,-0.16 -0.884,-0.24 -1.332,-0.24c-0.704,0 -1.332,0.148 -1.884,0.444c-0.552,0.296 -1.02,0.684 -1.404,1.164c-0.384,0.48 -0.676,1.024 -0.876,1.632c-0.2,0.608 -0.3,1.224 -0.3,1.848c0,0.672 0.12,1.312 0.36,1.92c0.24,0.608 0.572,1.14 0.996,1.596c0.424,0.456 0.916,0.816 1.476,1.08c0.56,0.264 1.168,0.396 1.824,0.396Z" style="fill-rule:nonzero;"/><path d="M905.557,1883.67c-0.912,0 -1.744,-0.172 -2.496,-0.516c-0.752,-0.344 -1.404,-0.812 -1.956,-1.404c-0.552,-0.592 -0.98,-1.28 -1.284,-2.064c-0.304,-0.784 -0.456,-1.608 -0.456,-2.472c0,-0.88 0.156,-1.712 0.468,-2.496c0.312,-0.784 0.744,-1.472 1.296,-2.064c0.552,-0.592 1.204,-1.064 1.956,-1.416c0.752,-0.352 1.576,-0.528 2.472,-0.528c0.896,0 1.724,0.176 2.484,0.528c0.76,0.352 1.416,0.824 1.968,1.416c0.552,0.592 0.984,1.28 1.296,2.064c0.312,0.784 0.468,1.616 0.468,2.496c0,0.864 -0.152,1.688 -0.456,2.472c-0.304,0.784 -0.732,1.472 -1.284,2.064c-0.552,0.592 -1.208,1.06 -1.968,1.404c-0.76,0.344 -1.596,0.516 -2.508,0.516Zm-4.536,-6.432c0,0.704 0.12,1.356 0.36,1.956c0.24,0.6 0.564,1.128 0.972,1.584c0.408,0.456 0.888,0.812 1.44,1.068c0.552,0.256 1.14,0.384 1.764,0.384c0.624,0 1.212,-0.132 1.764,-0.396c0.552,-0.264 1.036,-0.624 1.452,-1.08c0.416,-0.456 0.744,-0.988 0.984,-1.596c0.24,-0.608 0.36,-1.264 0.36,-1.968c0,-0.688 -0.12,-1.34 -0.36,-1.956c-0.24,-0.616 -0.568,-1.152 -0.984,-1.608c-0.416,-0.456 -0.9,-0.816 -1.452,-1.08c-0.552,-0.264 -1.14,-0.396 -1.764,-0.396c-0.624,0 -1.208,0.132 -1.752,0.396c-0.544,0.264 -1.024,0.628 -1.44,1.092c-0.416,0.464 -0.744,1.004 -0.984,1.62c-0.24,0.616 -0.36,1.276 -0.36,1.98Z" style="fill-rule:nonzero;"/><path d="M920.749,1872.37c-1.104,0.032 -2.064,0.336 -2.88,0.912c-0.816,0.576 -1.392,1.368 -1.728,2.376l0,7.776l-1.632,0l0,-12.504l1.536,0l0,3c0.464,-0.96 1.088,-1.712 1.872,-2.256c0.784,-0.544 1.624,-0.816 2.52,-0.816c0.128,0 0.232,0.008 0.312,0.024l0,1.488Z" style="fill-rule:nonzero;"/><path d="M923.653,1887.27c0.128,0.016 0.252,0.028 0.372,0.036c0.12,0.008 0.236,0.012 0.348,0.012c0.288,0 0.516,-0.04 0.684,-0.12c0.168,-0.08 0.332,-0.256 0.492,-0.528c0.16,-0.272 0.34,-0.664 0.54,-1.176c0.2,-0.512 0.484,-1.2 0.852,-2.064l-5.448,-12.504l1.68,0l4.632,10.992l4.296,-10.992l1.56,0l-6.48,16.128c-0.176,0.464 -0.468,0.868 -0.876,1.212c-0.408,0.344 -0.964,0.516 -1.668,0.516c-0.16,0 -0.312,-0.004 -0.456,-0.012c-0.144,-0.008 -0.32,-0.028 -0.528,-0.06l0,-1.44Z" style="fill-rule:nonzero;"/><path d="M935.701,1873.35l0,-2.352l1.392,0l0,2.352l-1.392,0Zm0,10.08l0,-2.352l1.392,0l0,2.352l-1.392,0Z" style="fill-rule:nonzero;"/><path d="M959.293,1869.3l-5.448,0l0,14.136l-3.288,0l0,-14.136l-5.448,0l0,-2.904l14.184,0l0,2.904Z" style="fill-rule:nonzero;"/><path d="M963.157,1866.39l4.608,12.888l4.56,-12.888l3.48,0l-6.648,17.04l-2.784,0l-6.696,-17.04l3.48,0Z" style="fill-rule:nonzero;"/></g><g transform="matrix(1,0,0,1,-233.017,-1570.2)"><path d="M833.341,1874.79c0,-1.024 0.18,-2.044 0.54,-3.06c0.36,-1.016 0.884,-1.924 1.572,-2.724c0.688,-0.8 1.536,-1.452 2.544,-1.956c1.008,-0.504 2.152,-0.756 3.432,-0.756c1.52,0 2.82,0.344 3.9,1.032c1.08,0.688 1.876,1.584 2.388,2.688l-1.32,0.816c-0.272,-0.56 -0.604,-1.032 -0.996,-1.416c-0.392,-0.384 -0.812,-0.696 -1.26,-0.936c-0.448,-0.24 -0.912,-0.412 -1.392,-0.516c-0.48,-0.104 -0.952,-0.156 -1.416,-0.156c-1.024,0 -1.928,0.208 -2.712,0.624c-0.784,0.416 -1.444,0.96 -1.98,1.632c-0.536,0.672 -0.94,1.428 -1.212,2.268c-0.272,0.84 -0.408,1.692 -0.408,2.556c0,0.944 0.164,1.848 0.492,2.712c0.328,0.864 0.776,1.628 1.344,2.292c0.568,0.664 1.24,1.192 2.016,1.584c0.776,0.392 1.62,0.588 2.532,0.588c0.48,0 0.972,-0.06 1.476,-0.18c0.504,-0.12 0.992,-0.312 1.464,-0.576c0.472,-0.264 0.908,-0.592 1.308,-0.984c0.4,-0.392 0.736,-0.868 1.008,-1.428l1.392,0.72c-0.272,0.64 -0.656,1.204 -1.152,1.692c-0.496,0.488 -1.048,0.9 -1.656,1.236c-0.608,0.336 -1.252,0.592 -1.932,0.768c-0.68,0.176 -1.348,0.264 -2.004,0.264c-1.168,0 -2.24,-0.256 -3.216,-0.768c-0.976,-0.512 -1.816,-1.18 -2.52,-2.004c-0.704,-0.824 -1.252,-1.76 -1.644,-2.808c-0.392,-1.048 -0.588,-2.116 -0.588,-3.204Z" style="fill-rule:nonzero;"/><path d="M853.741,1883.67c-0.592,0 -1.14,-0.1 -1.644,-0.3c-0.504,-0.2 -0.944,-0.476 -1.32,-0.828c-0.376,-0.352 -0.668,-0.764 -0.876,-1.236c-0.208,-0.472 -0.312,-0.98 -0.312,-1.524c0,-0.544 0.128,-1.048 0.384,-1.512c0.256,-0.464 0.616,-0.864 1.08,-1.2c0.464,-0.336 1.016,-0.596 1.656,-0.78c0.64,-0.184 1.344,-0.276 2.112,-0.276c0.64,0 1.288,0.056 1.944,0.168c0.656,0.112 1.24,0.272 1.752,0.48l0,-1.128c0,-1.104 -0.312,-1.98 -0.936,-2.628c-0.624,-0.648 -1.488,-0.972 -2.592,-0.972c-0.64,0 -1.296,0.128 -1.968,0.384c-0.672,0.256 -1.352,0.624 -2.04,1.104l-0.576,-1.08c1.616,-1.088 3.184,-1.632 4.704,-1.632c1.568,0 2.8,0.44 3.696,1.32c0.896,0.88 1.344,2.096 1.344,3.648l0,5.64c0,0.448 0.2,0.672 0.6,0.672l0,1.44c-0.272,0.048 -0.48,0.072 -0.624,0.072c-0.416,0 -0.74,-0.104 -0.972,-0.312c-0.232,-0.208 -0.356,-0.496 -0.372,-0.864l-0.048,-0.984c-0.576,0.752 -1.3,1.328 -2.172,1.728c-0.872,0.4 -1.812,0.6 -2.82,0.6Zm0.384,-1.248c0.848,0 1.628,-0.16 2.34,-0.48c0.712,-0.32 1.252,-0.744 1.62,-1.272c0.144,-0.144 0.252,-0.3 0.324,-0.468c0.072,-0.168 0.108,-0.324 0.108,-0.468l0,-2.04c-0.544,-0.208 -1.108,-0.368 -1.692,-0.48c-0.584,-0.112 -1.18,-0.168 -1.788,-0.168c-1.152,0 -2.088,0.24 -2.808,0.72c-0.72,0.48 -1.08,1.112 -1.08,1.896c0,0.384 0.076,0.744 0.228,1.08c0.152,0.336 0.36,0.628 0.624,0.876c0.264,0.248 0.58,0.444 0.948,0.588c0.368,0.144 0.76,0.216 1.176,0.216Z" style="fill-rule:nonzero;"/><path d="M869.581,1882.83c-0.096,0.048 -0.236,0.112 -0.42,0.192c-0.184,0.08 -0.396,0.16 -0.636,0.24c-0.24,0.08 -0.512,0.152 -0.816,0.216c-0.304,0.064 -0.624,0.096 -0.96,0.096c-0.352,0 -0.688,-0.048 -1.008,-0.144c-0.32,-0.096 -0.6,-0.244 -0.84,-0.444c-0.24,-0.2 -0.432,-0.452 -0.576,-0.756c-0.144,-0.304 -0.216,-0.656 -0.216,-1.056l0,-8.952l-1.728,0l0,-1.296l1.728,0l0,-4.224l1.632,0l0,4.224l2.88,0l0,1.296l-2.88,0l0,8.496c0.032,0.464 0.196,0.804 0.492,1.02c0.296,0.216 0.636,0.324 1.02,0.324c0.464,0 0.872,-0.076 1.224,-0.228c0.352,-0.152 0.576,-0.26 0.672,-0.324l0.432,1.32Z" style="fill-rule:nonzero;"/><path d="M876.709,1883.67c-0.912,0 -1.748,-0.172 -2.508,-0.516c-0.76,-0.344 -1.42,-0.816 -1.98,-1.416c-0.56,-0.6 -0.996,-1.292 -1.308,-2.076c-0.312,-0.784 -0.468,-1.624 -0.468,-2.52c0,-0.88 0.156,-1.708 0.468,-2.484c0.312,-0.776 0.744,-1.456 1.296,-2.04c0.552,-0.584 1.212,-1.048 1.98,-1.392c0.768,-0.344 1.6,-0.516 2.496,-0.516c0.912,0 1.748,0.172 2.508,0.516c0.76,0.344 1.412,0.812 1.956,1.404c0.544,0.592 0.968,1.272 1.272,2.04c0.304,0.768 0.456,1.584 0.456,2.448c0,0.128 0,0.256 0,0.384c0,0.128 -0.008,0.216 -0.024,0.264l-10.704,0c0.048,0.672 0.204,1.292 0.468,1.86c0.264,0.568 0.604,1.06 1.02,1.476c0.416,0.416 0.892,0.74 1.428,0.972c0.536,0.232 1.108,0.348 1.716,0.348c0.4,0 0.8,-0.056 1.2,-0.168c0.4,-0.112 0.768,-0.264 1.104,-0.456c0.336,-0.192 0.64,-0.428 0.912,-0.708c0.272,-0.28 0.48,-0.588 0.624,-0.924l1.416,0.384c-0.192,0.464 -0.464,0.884 -0.816,1.26c-0.352,0.376 -0.76,0.704 -1.224,0.984c-0.464,0.28 -0.976,0.496 -1.536,0.648c-0.56,0.152 -1.144,0.228 -1.752,0.228Zm4.608,-7.152c-0.048,-0.672 -0.204,-1.284 -0.468,-1.836c-0.264,-0.552 -0.6,-1.028 -1.008,-1.428c-0.408,-0.4 -0.88,-0.712 -1.416,-0.936c-0.536,-0.224 -1.108,-0.336 -1.716,-0.336c-0.608,0 -1.184,0.112 -1.728,0.336c-0.544,0.224 -1.02,0.536 -1.428,0.936c-0.408,0.4 -0.736,0.88 -0.984,1.44c-0.248,0.56 -0.396,1.168 -0.444,1.824l9.192,0Z" style="fill-rule:nonzero;"/><path d="M890.413,1883.6c-0.864,0 -1.652,-0.18 -2.364,-0.54c-0.712,-0.36 -1.328,-0.836 -1.848,-1.428c-0.52,-0.592 -0.924,-1.272 -1.212,-2.04c-0.288,-0.768 -0.432,-1.56 -0.432,-2.376c0,-0.864 0.14,-1.692 0.42,-2.484c0.28,-0.792 0.676,-1.484 1.188,-2.076c0.512,-0.592 1.124,-1.064 1.836,-1.416c0.712,-0.352 1.5,-0.528 2.364,-0.528c1.072,0 2,0.268 2.784,0.804c0.784,0.536 1.456,1.212 2.016,2.028l0,-2.616l1.464,0l0,12.552c0,0.864 -0.164,1.628 -0.492,2.292c-0.328,0.664 -0.768,1.22 -1.32,1.668c-0.552,0.448 -1.2,0.784 -1.944,1.008c-0.744,0.224 -1.532,0.336 -2.364,0.336c-1.44,0 -2.6,-0.256 -3.48,-0.768c-0.88,-0.512 -1.592,-1.2 -2.136,-2.064l1.008,-0.792c0.496,0.8 1.152,1.388 1.968,1.764c0.816,0.376 1.696,0.564 2.64,0.564c0.608,0 1.184,-0.084 1.728,-0.252c0.544,-0.168 1.02,-0.416 1.428,-0.744c0.408,-0.328 0.732,-0.744 0.972,-1.248c0.24,-0.504 0.36,-1.092 0.36,-1.764l0,-2.472c-0.48,0.8 -1.136,1.432 -1.968,1.896c-0.832,0.464 -1.704,0.696 -2.616,0.696Zm0.456,-1.368c0.48,0 0.952,-0.088 1.416,-0.264c0.464,-0.176 0.884,-0.412 1.26,-0.708c0.376,-0.296 0.692,-0.628 0.948,-0.996c0.256,-0.368 0.424,-0.744 0.504,-1.128l0,-3.864c-0.176,-0.448 -0.416,-0.864 -0.72,-1.248c-0.304,-0.384 -0.648,-0.712 -1.032,-0.984c-0.384,-0.272 -0.796,-0.488 -1.236,-0.648c-0.44,-0.16 -0.884,-0.24 -1.332,-0.24c-0.704,0 -1.332,0.148 -1.884,0.444c-0.552,0.296 -1.02,0.684 -1.404,1.164c-0.384,0.48 -0.676,1.024 -0.876,1.632c-0.2,0.608 -0.3,1.224 -0.3,1.848c0,0.672 0.12,1.312 0.36,1.92c0.24,0.608 0.572,1.14 0.996,1.596c0.424,0.456 0.916,0.816 1.476,1.08c0.56,0.264 1.168,0.396 1.824,0.396Z" style="fill-rule:nonzero;"/><path d="M905.557,1883.67c-0.912,0 -1.744,-0.172 -2.496,-0.516c-0.752,-0.344 -1.404,-0.812 -1.956,-1.404c-0.552,-0.592 -0.98,-1.28 -1.284,-2.064c-0.304,-0.784 -0.456,-1.608 -0.456,-2.472c0,-0.88 0.156,-1.712 0.468,-2.496c0.312,-0.784 0.744,-1.472 1.296,-2.064c0.552,-0.592 1.204,-1.064 1.956,-1.416c0.752,-0.352 1.576,-0.528 2.472,-0.528c0.896,0 1.724,0.176 2.484,0.528c0.76,0.352 1.416,0.824 1.968,1.416c0.552,0.592 0.984,1.28 1.296,2.064c0.312,0.784 0.468,1.616 0.468,2.496c0,0.864 -0.152,1.688 -0.456,2.472c-0.304,0.784 -0.732,1.472 -1.284,2.064c-0.552,0.592 -1.208,1.06 -1.968,1.404c-0.76,0.344 -1.596,0.516 -2.508,0.516Zm-4.536,-6.432c0,0.704 0.12,1.356 0.36,1.956c0.24,0.6 0.564,1.128 0.972,1.584c0.408,0.456 0.888,0.812 1.44,1.068c0.552,0.256 1.14,0.384 1.764,0.384c0.624,0 1.212,-0.132 1.764,-0.396c0.552,-0.264 1.036,-0.624 1.452,-1.08c0.416,-0.456 0.744,-0.988 0.984,-1.596c0.24,-0.608 0.36,-1.264 0.36,-1.968c0,-0.688 -0.12,-1.34 -0.36,-1.956c-0.24,-0.616 -0.568,-1.152 -0.984,-1.608c-0.416,-0.456 -0.9,-0.816 -1.452,-1.08c-0.552,-0.264 -1.14,-0.396 -1.764,-0.396c-0.624,0 -1.208,0.132 -1.752,0.396c-0.544,0.264 -1.024,0.628 -1.44,1.092c-0.416,0.464 -0.744,1.004 -0.984,1.62c-0.24,0.616 -0.36,1.276 -0.36,1.98Z" style="fill-rule:nonzero;"/><path d="M920.749,1872.37c-1.104,0.032 -2.064,0.336 -2.88,0.912c-0.816,0.576 -1.392,1.368 -1.728,2.376l0,7.776l-1.632,0l0,-12.504l1.536,0l0,3c0.464,-0.96 1.088,-1.712 1.872,-2.256c0.784,-0.544 1.624,-0.816 2.52,-0.816c0.128,0 0.232,0.008 0.312,0.024l0,1.488Z" style="fill-rule:nonzero;"/><path d="M923.653,1887.27c0.128,0.016 0.252,0.028 0.372,0.036c0.12,0.008 0.236,0.012 0.348,0.012c0.288,0 0.516,-0.04 0.684,-0.12c0.168,-0.08 0.332,-0.256 0.492,-0.528c0.16,-0.272 0.34,-0.664 0.54,-1.176c0.2,-0.512 0.484,-1.2 0.852,-2.064l-5.448,-12.504l1.68,0l4.632,10.992l4.296,-10.992l1.56,0l-6.48,16.128c-0.176,0.464 -0.468,0.868 -0.876,1.212c-0.408,0.344 -0.964,0.516 -1.668,0.516c-0.16,0 -0.312,-0.004 -0.456,-0.012c-0.144,-0.008 -0.32,-0.028 -0.528,-0.06l0,-1.44Z" style="fill-rule:nonzero;"/><path d="M935.701,1873.35l0,-2.352l1.392,0l0,2.352l-1.392,0Zm0,10.08l0,-2.352l1.392,0l0,2.352l-1.392,0Z" style="fill-rule:nonzero;"/><path d="M959.293,1869.3l-5.448,0l0,14.136l-3.288,0l0,-14.136l-5.448,0l0,-2.904l14.184,0l0,2.904Z" style="fill-rule:nonzero;"/><path d="M963.157,1866.39l4.608,12.888l4.56,-12.888l3.48,0l-6.648,17.04l-2.784,0l-6.696,-17.04l3.48,0Z" style="fill-rule:nonzero;"/></g><g transform="matrix(1,0,0,1,-233.017,-1425.26)"><path d="M833.341,1874.79c0,-1.024 0.18,-2.044 0.54,-3.06c0.36,-1.016 0.884,-1.924 1.572,-2.724c0.688,-0.8 1.536,-1.452 2.544,-1.956c1.008,-0.504 2.152,-0.756 3.432,-0.756c1.52,0 2.82,0.344 3.9,1.032c1.08,0.688 1.876,1.584 2.388,2.688l-1.32,0.816c-0.272,-0.56 -0.604,-1.032 -0.996,-1.416c-0.392,-0.384 -0.812,-0.696 -1.26,-0.936c-0.448,-0.24 -0.912,-0.412 -1.392,-0.516c-0.48,-0.104 -0.952,-0.156 -1.416,-0.156c-1.024,0 -1.928,0.208 -2.712,0.624c-0.784,0.416 -1.444,0.96 -1.98,1.632c-0.536,0.672 -0.94,1.428 -1.212,2.268c-0.272,0.84 -0.408,1.692 -0.408,2.556c0,0.944 0.164,1.848 0.492,2.712c0.328,0.864 0.776,1.628 1.344,2.292c0.568,0.664 1.24,1.192 2.016,1.584c0.776,0.392 1.62,0.588 2.532,0.588c0.48,0 0.972,-0.06 1.476,-0.18c0.504,-0.12 0.992,-0.312 1.464,-0.576c0.472,-0.264 0.908,-0.592 1.308,-0.984c0.4,-0.392 0.736,-0.868 1.008,-1.428l1.392,0.72c-0.272,0.64 -0.656,1.204 -1.152,1.692c-0.496,0.488 -1.048,0.9 -1.656,1.236c-0.608,0.336 -1.252,0.592 -1.932,0.768c-0.68,0.176 -1.348,0.264 -2.004,0.264c-1.168,0 -2.24,-0.256 -3.216,-0.768c-0.976,-0.512 -1.816,-1.18 -2.52,-2.004c-0.704,-0.824 -1.252,-1.76 -1.644,-2.808c-0.392,-1.048 -0.588,-2.116 -0.588,-3.204Z" style="fill-rule:nonzero;"/><path d="M853.741,1883.67c-0.592,0 -1.14,-0.1 -1.644,-0.3c-0.504,-0.2 -0.944,-0.476 -1.32,-0.828c-0.376,-0.352 -0.668,-0.764 -0.876,-1.236c-0.208,-0.472 -0.312,-0.98 -0.312,-1.524c0,-0.544 0.128,-1.048 0.384,-1.512c0.256,-0.464 0.616,-0.864 1.08,-1.2c0.464,-0.336 1.016,-0.596 1.656,-0.78c0.64,-0.184 1.344,-0.276 2.112,-0.276c0.64,0 1.288,0.056 1.944,0.168c0.656,0.112 1.24,0.272 1.752,0.48l0,-1.128c0,-1.104 -0.312,-1.98 -0.936,-2.628c-0.624,-0.648 -1.488,-0.972 -2.592,-0.972c-0.64,0 -1.296,0.128 -1.968,0.384c-0.672,0.256 -1.352,0.624 -2.04,1.104l-0.576,-1.08c1.616,-1.088 3.184,-1.632 4.704,-1.632c1.568,0 2.8,0.44 3.696,1.32c0.896,0.88 1.344,2.096 1.344,3.648l0,5.64c0,0.448 0.2,0.672 0.6,0.672l0,1.44c-0.272,0.048 -0.48,0.072 -0.624,0.072c-0.416,0 -0.74,-0.104 -0.972,-0.312c-0.232,-0.208 -0.356,-0.496 -0.372,-0.864l-0.048,-0.984c-0.576,0.752 -1.3,1.328 -2.172,1.728c-0.872,0.4 -1.812,0.6 -2.82,0.6Zm0.384,-1.248c0.848,0 1.628,-0.16 2.34,-0.48c0.712,-0.32 1.252,-0.744 1.62,-1.272c0.144,-0.144 0.252,-0.3 0.324,-0.468c0.072,-0.168 0.108,-0.324 0.108,-0.468l0,-2.04c-0.544,-0.208 -1.108,-0.368 -1.692,-0.48c-0.584,-0.112 -1.18,-0.168 -1.788,-0.168c-1.152,0 -2.088,0.24 -2.808,0.72c-0.72,0.48 -1.08,1.112 -1.08,1.896c0,0.384 0.076,0.744 0.228,1.08c0.152,0.336 0.36,0.628 0.624,0.876c0.264,0.248 0.58,0.444 0.948,0.588c0.368,0.144 0.76,0.216 1.176,0.216Z" style="fill-rule:nonzero;"/><path d="M869.581,1882.83c-0.096,0.048 -0.236,0.112 -0.42,0.192c-0.184,0.08 -0.396,0.16 -0.636,0.24c-0.24,0.08 -0.512,0.152 -0.816,0.216c-0.304,0.064 -0.624,0.096 -0.96,0.096c-0.352,0 -0.688,-0.048 -1.008,-0.144c-0.32,-0.096 -0.6,-0.244 -0.84,-0.444c-0.24,-0.2 -0.432,-0.452 -0.576,-0.756c-0.144,-0.304 -0.216,-0.656 -0.216,-1.056l0,-8.952l-1.728,0l0,-1.296l1.728,0l0,-4.224l1.632,0l0,4.224l2.88,0l0,1.296l-2.88,0l0,8.496c0.032,0.464 0.196,0.804 0.492,1.02c0.296,0.216 0.636,0.324 1.02,0.324c0.464,0 0.872,-0.076 1.224,-0.228c0.352,-0.152 0.576,-0.26 0.672,-0.324l0.432,1.32Z" style="fill-rule:nonzero;"/><path d="M876.709,1883.67c-0.912,0 -1.748,-0.172 -2.508,-0.516c-0.76,-0.344 -1.42,-0.816 -1.98,-1.416c-0.56,-0.6 -0.996,-1.292 -1.308,-2.076c-0.312,-0.784 -0.468,-1.624 -0.468,-2.52c0,-0.88 0.156,-1.708 0.468,-2.484c0.312,-0.776 0.744,-1.456 1.296,-2.04c0.552,-0.584 1.212,-1.048 1.98,-1.392c0.768,-0.344 1.6,-0.516 2.496,-0.516c0.912,0 1.748,0.172 2.508,0.516c0.76,0.344 1.412,0.812 1.956,1.404c0.544,0.592 0.968,1.272 1.272,2.04c0.304,0.768 0.456,1.584 0.456,2.448c0,0.128 0,0.256 0,0.384c0,0.128 -0.008,0.216 -0.024,0.264l-10.704,0c0.048,0.672 0.204,1.292 0.468,1.86c0.264,0.568 0.604,1.06 1.02,1.476c0.416,0.416 0.892,0.74 1.428,0.972c0.536,0.232 1.108,0.348 1.716,0.348c0.4,0 0.8,-0.056 1.2,-0.168c0.4,-0.112 0.768,-0.264 1.104,-0.456c0.336,-0.192 0.64,-0.428 0.912,-0.708c0.272,-0.28 0.48,-0.588 0.624,-0.924l1.416,0.384c-0.192,0.464 -0.464,0.884 -0.816,1.26c-0.352,0.376 -0.76,0.704 -1.224,0.984c-0.464,0.28 -0.976,0.496 -1.536,0.648c-0.56,0.152 -1.144,0.228 -1.752,0.228Zm4.608,-7.152c-0.048,-0.672 -0.204,-1.284 -0.468,-1.836c-0.264,-0.552 -0.6,-1.028 -1.008,-1.428c-0.408,-0.4 -0.88,-0.712 -1.416,-0.936c-0.536,-0.224 -1.108,-0.336 -1.716,-0.336c-0.608,0 -1.184,0.112 -1.728,0.336c-0.544,0.224 -1.02,0.536 -1.428,0.936c-0.408,0.4 -0.736,0.88 -0.984,1.44c-0.248,0.56 -0.396,1.168 -0.444,1.824l9.192,0Z" style="fill-rule:nonzero;"/><path d="M890.413,1883.6c-0.864,0 -1.652,-0.18 -2.364,-0.54c-0.712,-0.36 -1.328,-0.836 -1.848,-1.428c-0.52,-0.592 -0.924,-1.272 -1.212,-2.04c-0.288,-0.768 -0.432,-1.56 -0.432,-2.376c0,-0.864 0.14,-1.692 0.42,-2.484c0.28,-0.792 0.676,-1.484 1.188,-2.076c0.512,-0.592 1.124,-1.064 1.836,-1.416c0.712,-0.352 1.5,-0.528 2.364,-0.528c1.072,0 2,0.268 2.784,0.804c0.784,0.536 1.456,1.212 2.016,2.028l0,-2.616l1.464,0l0,12.552c0,0.864 -0.164,1.628 -0.492,2.292c-0.328,0.664 -0.768,1.22 -1.32,1.668c-0.552,0.448 -1.2,0.784 -1.944,1.008c-0.744,0.224 -1.532,0.336 -2.364,0.336c-1.44,0 -2.6,-0.256 -3.48,-0.768c-0.88,-0.512 -1.592,-1.2 -2.136,-2.064l1.008,-0.792c0.496,0.8 1.152,1.388 1.968,1.764c0.816,0.376 1.696,0.564 2.64,0.564c0.608,0 1.184,-0.084 1.728,-0.252c0.544,-0.168 1.02,-0.416 1.428,-0.744c0.408,-0.328 0.732,-0.744 0.972,-1.248c0.24,-0.504 0.36,-1.092 0.36,-1.764l0,-2.472c-0.48,0.8 -1.136,1.432 -1.968,1.896c-0.832,0.464 -1.704,0.696 -2.616,0.696Zm0.456,-1.368c0.48,0 0.952,-0.088 1.416,-0.264c0.464,-0.176 0.884,-0.412 1.26,-0.708c0.376,-0.296 0.692,-0.628 0.948,-0.996c0.256,-0.368 0.424,-0.744 0.504,-1.128l0,-3.864c-0.176,-0.448 -0.416,-0.864 -0.72,-1.248c-0.304,-0.384 -0.648,-0.712 -1.032,-0.984c-0.384,-0.272 -0.796,-0.488 -1.236,-0.648c-0.44,-0.16 -0.884,-0.24 -1.332,-0.24c-0.704,0 -1.332,0.148 -1.884,0.444c-0.552,0.296 -1.02,0.684 -1.404,1.164c-0.384,0.48 -0.676,1.024 -0.876,1.632c-0.2,0.608 -0.3,1.224 -0.3,1.848c0,0.672 0.12,1.312 0.36,1.92c0.24,0.608 0.572,1.14 0.996,1.596c0.424,0.456 0.916,0.816 1.476,1.08c0.56,0.264 1.168,0.396 1.824,0.396Z" style="fill-rule:nonzero;"/><path d="M905.557,1883.67c-0.912,0 -1.744,-0.172 -2.496,-0.516c-0.752,-0.344 -1.404,-0.812 -1.956,-1.404c-0.552,-0.592 -0.98,-1.28 -1.284,-2.064c-0.304,-0.784 -0.456,-1.608 -0.456,-2.472c0,-0.88 0.156,-1.712 0.468,-2.496c0.312,-0.784 0.744,-1.472 1.296,-2.064c0.552,-0.592 1.204,-1.064 1.956,-1.416c0.752,-0.352 1.576,-0.528 2.472,-0.528c0.896,0 1.724,0.176 2.484,0.528c0.76,0.352 1.416,0.824 1.968,1.416c0.552,0.592 0.984,1.28 1.296,2.064c0.312,0.784 0.468,1.616 0.468,2.496c0,0.864 -0.152,1.688 -0.456,2.472c-0.304,0.784 -0.732,1.472 -1.284,2.064c-0.552,0.592 -1.208,1.06 -1.968,1.404c-0.76,0.344 -1.596,0.516 -2.508,0.516Zm-4.536,-6.432c0,0.704 0.12,1.356 0.36,1.956c0.24,0.6 0.564,1.128 0.972,1.584c0.408,0.456 0.888,0.812 1.44,1.068c0.552,0.256 1.14,0.384 1.764,0.384c0.624,0 1.212,-0.132 1.764,-0.396c0.552,-0.264 1.036,-0.624 1.452,-1.08c0.416,-0.456 0.744,-0.988 0.984,-1.596c0.24,-0.608 0.36,-1.264 0.36,-1.968c0,-0.688 -0.12,-1.34 -0.36,-1.956c-0.24,-0.616 -0.568,-1.152 -0.984,-1.608c-0.416,-0.456 -0.9,-0.816 -1.452,-1.08c-0.552,-0.264 -1.14,-0.396 -1.764,-0.396c-0.624,0 -1.208,0.132 -1.752,0.396c-0.544,0.264 -1.024,0.628 -1.44,1.092c-0.416,0.464 -0.744,1.004 -0.984,1.62c-0.24,0.616 -0.36,1.276 -0.36,1.98Z" style="fill-rule:nonzero;"/><path d="M920.749,1872.37c-1.104,0.032 -2.064,0.336 -2.88,0.912c-0.816,0.576 -1.392,1.368 -1.728,2.376l0,7.776l-1.632,0l0,-12.504l1.536,0l0,3c0.464,-0.96 1.088,-1.712 1.872,-2.256c0.784,-0.544 1.624,-0.816 2.52,-0.816c0.128,0 0.232,0.008 0.312,0.024l0,1.488Z" style="fill-rule:nonzero;"/><path d="M923.653,1887.27c0.128,0.016 0.252,0.028 0.372,0.036c0.12,0.008 0.236,0.012 0.348,0.012c0.288,0 0.516,-0.04 0.684,-0.12c0.168,-0.08 0.332,-0.256 0.492,-0.528c0.16,-0.272 0.34,-0.664 0.54,-1.176c0.2,-0.512 0.484,-1.2 0.852,-2.064l-5.448,-12.504l1.68,0l4.632,10.992l4.296,-10.992l1.56,0l-6.48,16.128c-0.176,0.464 -0.468,0.868 -0.876,1.212c-0.408,0.344 -0.964,0.516 -1.668,0.516c-0.16,0 -0.312,-0.004 -0.456,-0.012c-0.144,-0.008 -0.32,-0.028 -0.528,-0.06l0,-1.44Z" style="fill-rule:nonzero;"/><path d="M935.701,1873.35l0,-2.352l1.392,0l0,2.352l-1.392,0Zm0,10.08l0,-2.352l1.392,0l0,2.352l-1.392,0Z" style="fill-rule:nonzero;"/><path d="M959.293,1869.3l-5.448,0l0,14.136l-3.288,0l0,-14.136l-5.448,0l0,-2.904l14.184,0l0,2.904Z" style="fill-rule:nonzero;"/><path d="M963.157,1866.39l4.608,12.888l4.56,-12.888l3.48,0l-6.648,17.04l-2.784,0l-6.696,-17.04l3.48,0Z" style="fill-rule:nonzero;"/></g><g transform="matrix(1,0,0,1,-233.017,-1280.33)"><path d="M833.341,1874.79c0,-1.024 0.18,-2.044 0.54,-3.06c0.36,-1.016 0.884,-1.924 1.572,-2.724c0.688,-0.8 1.536,-1.452 2.544,-1.956c1.008,-0.504 2.152,-0.756 3.432,-0.756c1.52,0 2.82,0.344 3.9,1.032c1.08,0.688 1.876,1.584 2.388,2.688l-1.32,0.816c-0.272,-0.56 -0.604,-1.032 -0.996,-1.416c-0.392,-0.384 -0.812,-0.696 -1.26,-0.936c-0.448,-0.24 -0.912,-0.412 -1.392,-0.516c-0.48,-0.104 -0.952,-0.156 -1.416,-0.156c-1.024,0 -1.928,0.208 -2.712,0.624c-0.784,0.416 -1.444,0.96 -1.98,1.632c-0.536,0.672 -0.94,1.428 -1.212,2.268c-0.272,0.84 -0.408,1.692 -0.408,2.556c0,0.944 0.164,1.848 0.492,2.712c0.328,0.864 0.776,1.628 1.344,2.292c0.568,0.664 1.24,1.192 2.016,1.584c0.776,0.392 1.62,0.588 2.532,0.588c0.48,0 0.972,-0.06 1.476,-0.18c0.504,-0.12 0.992,-0.312 1.464,-0.576c0.472,-0.264 0.908,-0.592 1.308,-0.984c0.4,-0.392 0.736,-0.868 1.008,-1.428l1.392,0.72c-0.272,0.64 -0.656,1.204 -1.152,1.692c-0.496,0.488 -1.048,0.9 -1.656,1.236c-0.608,0.336 -1.252,0.592 -1.932,0.768c-0.68,0.176 -1.348,0.264 -2.004,0.264c-1.168,0 -2.24,-0.256 -3.216,-0.768c-0.976,-0.512 -1.816,-1.18 -2.52,-2.004c-0.704,-0.824 -1.252,-1.76 -1.644,-2.808c-0.392,-1.048 -0.588,-2.116 -0.588,-3.204Z" style="fill-rule:nonzero;"/><path d="M853.741,1883.67c-0.592,0 -1.14,-0.1 -1.644,-0.3c-0.504,-0.2 -0.944,-0.476 -1.32,-0.828c-0.376,-0.352 -0.668,-0.764 -0.876,-1.236c-0.208,-0.472 -0.312,-0.98 -0.312,-1.524c0,-0.544 0.128,-1.048 0.384,-1.512c0.256,-0.464 0.616,-0.864 1.08,-1.2c0.464,-0.336 1.016,-0.596 1.656,-0.78c0.64,-0.184 1.344,-0.276 2.112,-0.276c0.64,0 1.288,0.056 1.944,0.168c0.656,0.112 1.24,0.272 1.752,0.48l0,-1.128c0,-1.104 -0.312,-1.98 -0.936,-2.628c-0.624,-0.648 -1.488,-0.972 -2.592,-0.972c-0.64,0 -1.296,0.128 -1.968,0.384c-0.672,0.256 -1.352,0.624 -2.04,1.104l-0.576,-1.08c1.616,-1.088 3.184,-1.632 4.704,-1.632c1.568,0 2.8,0.44 3.696,1.32c0.896,0.88 1.344,2.096 1.344,3.648l0,5.64c0,0.448 0.2,0.672 0.6,0.672l0,1.44c-0.272,0.048 -0.48,0.072 -0.624,0.072c-0.416,0 -0.74,-0.104 -0.972,-0.312c-0.232,-0.208 -0.356,-0.496 -0.372,-0.864l-0.048,-0.984c-0.576,0.752 -1.3,1.328 -2.172,1.728c-0.872,0.4 -1.812,0.6 -2.82,0.6Zm0.384,-1.248c0.848,0 1.628,-0.16 2.34,-0.48c0.712,-0.32 1.252,-0.744 1.62,-1.272c0.144,-0.144 0.252,-0.3 0.324,-0.468c0.072,-0.168 0.108,-0.324 0.108,-0.468l0,-2.04c-0.544,-0.208 -1.108,-0.368 -1.692,-0.48c-0.584,-0.112 -1.18,-0.168 -1.788,-0.168c-1.152,0 -2.088,0.24 -2.808,0.72c-0.72,0.48 -1.08,1.112 -1.08,1.896c0,0.384 0.076,0.744 0.228,1.08c0.152,0.336 0.36,0.628 0.624,0.876c0.264,0.248 0.58,0.444 0.948,0.588c0.368,0.144 0.76,0.216 1.176,0.216Z" style="fill-rule:nonzero;"/><path d="M869.581,1882.83c-0.096,0.048 -0.236,0.112 -0.42,0.192c-0.184,0.08 -0.396,0.16 -0.636,0.24c-0.24,0.08 -0.512,0.152 -0.816,0.216c-0.304,0.064 -0.624,0.096 -0.96,0.096c-0.352,0 -0.688,-0.048 -1.008,-0.144c-0.32,-0.096 -0.6,-0.244 -0.84,-0.444c-0.24,-0.2 -0.432,-0.452 -0.576,-0.756c-0.144,-0.304 -0.216,-0.656 -0.216,-1.056l0,-8.952l-1.728,0l0,-1.296l1.728,0l0,-4.224l1.632,0l0,4.224l2.88,0l0,1.296l-2.88,0l0,8.496c0.032,0.464 0.196,0.804 0.492,1.02c0.296,0.216 0.636,0.324 1.02,0.324c0.464,0 0.872,-0.076 1.224,-0.228c0.352,-0.152 0.576,-0.26 0.672,-0.324l0.432,1.32Z" style="fill-rule:nonzero;"/><path d="M876.709,1883.67c-0.912,0 -1.748,-0.172 -2.508,-0.516c-0.76,-0.344 -1.42,-0.816 -1.98,-1.416c-0.56,-0.6 -0.996,-1.292 -1.308,-2.076c-0.312,-0.784 -0.468,-1.624 -0.468,-2.52c0,-0.88 0.156,-1.708 0.468,-2.484c0.312,-0.776 0.744,-1.456 1.296,-2.04c0.552,-0.584 1.212,-1.048 1.98,-1.392c0.768,-0.344 1.6,-0.516 2.496,-0.516c0.912,0 1.748,0.172 2.508,0.516c0.76,0.344 1.412,0.812 1.956,1.404c0.544,0.592 0.968,1.272 1.272,2.04c0.304,0.768 0.456,1.584 0.456,2.448c0,0.128 0,0.256 0,0.384c0,0.128 -0.008,0.216 -0.024,0.264l-10.704,0c0.048,0.672 0.204,1.292 0.468,1.86c0.264,0.568 0.604,1.06 1.02,1.476c0.416,0.416 0.892,0.74 1.428,0.972c0.536,0.232 1.108,0.348 1.716,0.348c0.4,0 0.8,-0.056 1.2,-0.168c0.4,-0.112 0.768,-0.264 1.104,-0.456c0.336,-0.192 0.64,-0.428 0.912,-0.708c0.272,-0.28 0.48,-0.588 0.624,-0.924l1.416,0.384c-0.192,0.464 -0.464,0.884 -0.816,1.26c-0.352,0.376 -0.76,0.704 -1.224,0.984c-0.464,0.28 -0.976,0.496 -1.536,0.648c-0.56,0.152 -1.144,0.228 -1.752,0.228Zm4.608,-7.152c-0.048,-0.672 -0.204,-1.284 -0.468,-1.836c-0.264,-0.552 -0.6,-1.028 -1.008,-1.428c-0.408,-0.4 -0.88,-0.712 -1.416,-0.936c-0.536,-0.224 -1.108,-0.336 -1.716,-0.336c-0.608,0 -1.184,0.112 -1.728,0.336c-0.544,0.224 -1.02,0.536 -1.428,0.936c-0.408,0.4 -0.736,0.88 -0.984,1.44c-0.248,0.56 -0.396,1.168 -0.444,1.824l9.192,0Z" style="fill-rule:nonzero;"/><path d="M890.413,1883.6c-0.864,0 -1.652,-0.18 -2.364,-0.54c-0.712,-0.36 -1.328,-0.836 -1.848,-1.428c-0.52,-0.592 -0.924,-1.272 -1.212,-2.04c-0.288,-0.768 -0.432,-1.56 -0.432,-2.376c0,-0.864 0.14,-1.692 0.42,-2.484c0.28,-0.792 0.676,-1.484 1.188,-2.076c0.512,-0.592 1.124,-1.064 1.836,-1.416c0.712,-0.352 1.5,-0.528 2.364,-0.528c1.072,0 2,0.268 2.784,0.804c0.784,0.536 1.456,1.212 2.016,2.028l0,-2.616l1.464,0l0,12.552c0,0.864 -0.164,1.628 -0.492,2.292c-0.328,0.664 -0.768,1.22 -1.32,1.668c-0.552,0.448 -1.2,0.784 -1.944,1.008c-0.744,0.224 -1.532,0.336 -2.364,0.336c-1.44,0 -2.6,-0.256 -3.48,-0.768c-0.88,-0.512 -1.592,-1.2 -2.136,-2.064l1.008,-0.792c0.496,0.8 1.152,1.388 1.968,1.764c0.816,0.376 1.696,0.564 2.64,0.564c0.608,0 1.184,-0.084 1.728,-0.252c0.544,-0.168 1.02,-0.416 1.428,-0.744c0.408,-0.328 0.732,-0.744 0.972,-1.248c0.24,-0.504 0.36,-1.092 0.36,-1.764l0,-2.472c-0.48,0.8 -1.136,1.432 -1.968,1.896c-0.832,0.464 -1.704,0.696 -2.616,0.696Zm0.456,-1.368c0.48,0 0.952,-0.088 1.416,-0.264c0.464,-0.176 0.884,-0.412 1.26,-0.708c0.376,-0.296 0.692,-0.628 0.948,-0.996c0.256,-0.368 0.424,-0.744 0.504,-1.128l0,-3.864c-0.176,-0.448 -0.416,-0.864 -0.72,-1.248c-0.304,-0.384 -0.648,-0.712 -1.032,-0.984c-0.384,-0.272 -0.796,-0.488 -1.236,-0.648c-0.44,-0.16 -0.884,-0.24 -1.332,-0.24c-0.704,0 -1.332,0.148 -1.884,0.444c-0.552,0.296 -1.02,0.684 -1.404,1.164c-0.384,0.48 -0.676,1.024 -0.876,1.632c-0.2,0.608 -0.3,1.224 -0.3,1.848c0,0.672 0.12,1.312 0.36,1.92c0.24,0.608 0.572,1.14 0.996,1.596c0.424,0.456 0.916,0.816 1.476,1.08c0.56,0.264 1.168,0.396 1.824,0.396Z" style="fill-rule:nonzero;"/><path d="M905.557,1883.67c-0.912,0 -1.744,-0.172 -2.496,-0.516c-0.752,-0.344 -1.404,-0.812 -1.956,-1.404c-0.552,-0.592 -0.98,-1.28 -1.284,-2.064c-0.304,-0.784 -0.456,-1.608 -0.456,-2.472c0,-0.88 0.156,-1.712 0.468,-2.496c0.312,-0.784 0.744,-1.472 1.296,-2.064c0.552,-0.592 1.204,-1.064 1.956,-1.416c0.752,-0.352 1.576,-0.528 2.472,-0.528c0.896,0 1.724,0.176 2.484,0.528c0.76,0.352 1.416,0.824 1.968,1.416c0.552,0.592 0.984,1.28 1.296,2.064c0.312,0.784 0.468,1.616 0.468,2.496c0,0.864 -0.152,1.688 -0.456,2.472c-0.304,0.784 -0.732,1.472 -1.284,2.064c-0.552,0.592 -1.208,1.06 -1.968,1.404c-0.76,0.344 -1.596,0.516 -2.508,0.516Zm-4.536,-6.432c0,0.704 0.12,1.356 0.36,1.956c0.24,0.6 0.564,1.128 0.972,1.584c0.408,0.456 0.888,0.812 1.44,1.068c0.552,0.256 1.14,0.384 1.764,0.384c0.624,0 1.212,-0.132 1.764,-0.396c0.552,-0.264 1.036,-0.624 1.452,-1.08c0.416,-0.456 0.744,-0.988 0.984,-1.596c0.24,-0.608 0.36,-1.264 0.36,-1.968c0,-0.688 -0.12,-1.34 -0.36,-1.956c-0.24,-0.616 -0.568,-1.152 -0.984,-1.608c-0.416,-0.456 -0.9,-0.816 -1.452,-1.08c-0.552,-0.264 -1.14,-0.396 -1.764,-0.396c-0.624,0 -1.208,0.132 -1.752,0.396c-0.544,0.264 -1.024,0.628 -1.44,1.092c-0.416,0.464 -0.744,1.004 -0.984,1.62c-0.24,0.616 -0.36,1.276 -0.36,1.98Z" style="fill-rule:nonzero;"/><path d="M920.749,1872.37c-1.104,0.032 -2.064,0.336 -2.88,0.912c-0.816,0.576 -1.392,1.368 -1.728,2.376l0,7.776l-1.632,0l0,-12.504l1.536,0l0,3c0.464,-0.96 1.088,-1.712 1.872,-2.256c0.784,-0.544 1.624,-0.816 2.52,-0.816c0.128,0 0.232,0.008 0.312,0.024l0,1.488Z" style="fill-rule:nonzero;"/><path d="M923.653,1887.27c0.128,0.016 0.252,0.028 0.372,0.036c0.12,0.008 0.236,0.012 0.348,0.012c0.288,0 0.516,-0.04 0.684,-0.12c0.168,-0.08 0.332,-0.256 0.492,-0.528c0.16,-0.272 0.34,-0.664 0.54,-1.176c0.2,-0.512 0.484,-1.2 0.852,-2.064l-5.448,-12.504l1.68,0l4.632,10.992l4.296,-10.992l1.56,0l-6.48,16.128c-0.176,0.464 -0.468,0.868 -0.876,1.212c-0.408,0.344 -0.964,0.516 -1.668,0.516c-0.16,0 -0.312,-0.004 -0.456,-0.012c-0.144,-0.008 -0.32,-0.028 -0.528,-0.06l0,-1.44Z" style="fill-rule:nonzero;"/><path d="M935.701,1873.35l0,-2.352l1.392,0l0,2.352l-1.392,0Zm0,10.08l0,-2.352l1.392,0l0,2.352l-1.392,0Z" style="fill-rule:nonzero;"/><path d="M959.293,1869.3l-5.448,0l0,14.136l-3.288,0l0,-14.136l-5.448,0l0,-2.904l14.184,0l0,2.904Z" style="fill-rule:nonzero;"/><path d="M963.157,1866.39l4.608,12.888l4.56,-12.888l3.48,0l-6.648,17.04l-2.784,0l-6.696,-17.04l3.48,0Z" style="fill-rule:nonzero;"/></g><g transform="matrix(1,0,0,1,-233.017,-1135.39)"><path d="M833.341,1874.79c0,-1.024 0.18,-2.044 0.54,-3.06c0.36,-1.016 0.884,-1.924 1.572,-2.724c0.688,-0.8 1.536,-1.452 2.544,-1.956c1.008,-0.504 2.152,-0.756 3.432,-0.756c1.52,0 2.82,0.344 3.9,1.032c1.08,0.688 1.876,1.584 2.388,2.688l-1.32,0.816c-0.272,-0.56 -0.604,-1.032 -0.996,-1.416c-0.392,-0.384 -0.812,-0.696 -1.26,-0.936c-0.448,-0.24 -0.912,-0.412 -1.392,-0.516c-0.48,-0.104 -0.952,-0.156 -1.416,-0.156c-1.024,0 -1.928,0.208 -2.712,0.624c-0.784,0.416 -1.444,0.96 -1.98,1.632c-0.536,0.672 -0.94,1.428 -1.212,2.268c-0.272,0.84 -0.408,1.692 -0.408,2.556c0,0.944 0.164,1.848 0.492,2.712c0.328,0.864 0.776,1.628 1.344,2.292c0.568,0.664 1.24,1.192 2.016,1.584c0.776,0.392 1.62,0.588 2.532,0.588c0.48,0 0.972,-0.06 1.476,-0.18c0.504,-0.12 0.992,-0.312 1.464,-0.576c0.472,-0.264 0.908,-0.592 1.308,-0.984c0.4,-0.392 0.736,-0.868 1.008,-1.428l1.392,0.72c-0.272,0.64 -0.656,1.204 -1.152,1.692c-0.496,0.488 -1.048,0.9 -1.656,1.236c-0.608,0.336 -1.252,0.592 -1.932,0.768c-0.68,0.176 -1.348,0.264 -2.004,0.264c-1.168,0 -2.24,-0.256 -3.216,-0.768c-0.976,-0.512 -1.816,-1.18 -2.52,-2.004c-0.704,-0.824 -1.252,-1.76 -1.644,-2.808c-0.392,-1.048 -0.588,-2.116 -0.588,-3.204Z" style="fill-rule:nonzero;"/><path d="M853.741,1883.67c-0.592,0 -1.14,-0.1 -1.644,-0.3c-0.504,-0.2 -0.944,-0.476 -1.32,-0.828c-0.376,-0.352 -0.668,-0.764 -0.876,-1.236c-0.208,-0.472 -0.312,-0.98 -0.312,-1.524c0,-0.544 0.128,-1.048 0.384,-1.512c0.256,-0.464 0.616,-0.864 1.08,-1.2c0.464,-0.336 1.016,-0.596 1.656,-0.78c0.64,-0.184 1.344,-0.276 2.112,-0.276c0.64,0 1.288,0.056 1.944,0.168c0.656,0.112 1.24,0.272 1.752,0.48l0,-1.128c0,-1.104 -0.312,-1.98 -0.936,-2.628c-0.624,-0.648 -1.488,-0.972 -2.592,-0.972c-0.64,0 -1.296,0.128 -1.968,0.384c-0.672,0.256 -1.352,0.624 -2.04,1.104l-0.576,-1.08c1.616,-1.088 3.184,-1.632 4.704,-1.632c1.568,0 2.8,0.44 3.696,1.32c0.896,0.88 1.344,2.096 1.344,3.648l0,5.64c0,0.448 0.2,0.672 0.6,0.672l0,1.44c-0.272,0.048 -0.48,0.072 -0.624,0.072c-0.416,0 -0.74,-0.104 -0.972,-0.312c-0.232,-0.208 -0.356,-0.496 -0.372,-0.864l-0.048,-0.984c-0.576,0.752 -1.3,1.328 -2.172,1.728c-0.872,0.4 -1.812,0.6 -2.82,0.6Zm0.384,-1.248c0.848,0 1.628,-0.16 2.34,-0.48c0.712,-0.32 1.252,-0.744 1.62,-1.272c0.144,-0.144 0.252,-0.3 0.324,-0.468c0.072,-0.168 0.108,-0.324 0.108,-0.468l0,-2.04c-0.544,-0.208 -1.108,-0.368 -1.692,-0.48c-0.584,-0.112 -1.18,-0.168 -1.788,-0.168c-1.152,0 -2.088,0.24 -2.808,0.72c-0.72,0.48 -1.08,1.112 -1.08,1.896c0,0.384 0.076,0.744 0.228,1.08c0.152,0.336 0.36,0.628 0.624,0.876c0.264,0.248 0.58,0.444 0.948,0.588c0.368,0.144 0.76,0.216 1.176,0.216Z" style="fill-rule:nonzero;"/><path d="M869.581,1882.83c-0.096,0.048 -0.236,0.112 -0.42,0.192c-0.184,0.08 -0.396,0.16 -0.636,0.24c-0.24,0.08 -0.512,0.152 -0.816,0.216c-0.304,0.064 -0.624,0.096 -0.96,0.096c-0.352,0 -0.688,-0.048 -1.008,-0.144c-0.32,-0.096 -0.6,-0.244 -0.84,-0.444c-0.24,-0.2 -0.432,-0.452 -0.576,-0.756c-0.144,-0.304 -0.216,-0.656 -0.216,-1.056l0,-8.952l-1.728,0l0,-1.296l1.728,0l0,-4.224l1.632,0l0,4.224l2.88,0l0,1.296l-2.88,0l0,8.496c0.032,0.464 0.196,0.804 0.492,1.02c0.296,0.216 0.636,0.324 1.02,0.324c0.464,0 0.872,-0.076 1.224,-0.228c0.352,-0.152 0.576,-0.26 0.672,-0.324l0.432,1.32Z" style="fill-rule:nonzero;"/><path d="M876.709,1883.67c-0.912,0 -1.748,-0.172 -2.508,-0.516c-0.76,-0.344 -1.42,-0.816 -1.98,-1.416c-0.56,-0.6 -0.996,-1.292 -1.308,-2.076c-0.312,-0.784 -0.468,-1.624 -0.468,-2.52c0,-0.88 0.156,-1.708 0.468,-2.484c0.312,-0.776 0.744,-1.456 1.296,-2.04c0.552,-0.584 1.212,-1.048 1.98,-1.392c0.768,-0.344 1.6,-0.516 2.496,-0.516c0.912,0 1.748,0.172 2.508,0.516c0.76,0.344 1.412,0.812 1.956,1.404c0.544,0.592 0.968,1.272 1.272,2.04c0.304,0.768 0.456,1.584 0.456,2.448c0,0.128 0,0.256 0,0.384c0,0.128 -0.008,0.216 -0.024,0.264l-10.704,0c0.048,0.672 0.204,1.292 0.468,1.86c0.264,0.568 0.604,1.06 1.02,1.476c0.416,0.416 0.892,0.74 1.428,0.972c0.536,0.232 1.108,0.348 1.716,0.348c0.4,0 0.8,-0.056 1.2,-0.168c0.4,-0.112 0.768,-0.264 1.104,-0.456c0.336,-0.192 0.64,-0.428 0.912,-0.708c0.272,-0.28 0.48,-0.588 0.624,-0.924l1.416,0.384c-0.192,0.464 -0.464,0.884 -0.816,1.26c-0.352,0.376 -0.76,0.704 -1.224,0.984c-0.464,0.28 -0.976,0.496 -1.536,0.648c-0.56,0.152 -1.144,0.228 -1.752,0.228Zm4.608,-7.152c-0.048,-0.672 -0.204,-1.284 -0.468,-1.836c-0.264,-0.552 -0.6,-1.028 -1.008,-1.428c-0.408,-0.4 -0.88,-0.712 -1.416,-0.936c-0.536,-0.224 -1.108,-0.336 -1.716,-0.336c-0.608,0 -1.184,0.112 -1.728,0.336c-0.544,0.224 -1.02,0.536 -1.428,0.936c-0.408,0.4 -0.736,0.88 -0.984,1.44c-0.248,0.56 -0.396,1.168 -0.444,1.824l9.192,0Z" style="fill-rule:nonzero;"/><path d="M890.413,1883.6c-0.864,0 -1.652,-0.18 -2.364,-0.54c-0.712,-0.36 -1.328,-0.836 -1.848,-1.428c-0.52,-0.592 -0.924,-1.272 -1.212,-2.04c-0.288,-0.768 -0.432,-1.56 -0.432,-2.376c0,-0.864 0.14,-1.692 0.42,-2.484c0.28,-0.792 0.676,-1.484 1.188,-2.076c0.512,-0.592 1.124,-1.064 1.836,-1.416c0.712,-0.352 1.5,-0.528 2.364,-0.528c1.072,0 2,0.268 2.784,0.804c0.784,0.536 1.456,1.212 2.016,2.028l0,-2.616l1.464,0l0,12.552c0,0.864 -0.164,1.628 -0.492,2.292c-0.328,0.664 -0.768,1.22 -1.32,1.668c-0.552,0.448 -1.2,0.784 -1.944,1.008c-0.744,0.224 -1.532,0.336 -2.364,0.336c-1.44,0 -2.6,-0.256 -3.48,-0.768c-0.88,-0.512 -1.592,-1.2 -2.136,-2.064l1.008,-0.792c0.496,0.8 1.152,1.388 1.968,1.764c0.816,0.376 1.696,0.564 2.64,0.564c0.608,0 1.184,-0.084 1.728,-0.252c0.544,-0.168 1.02,-0.416 1.428,-0.744c0.408,-0.328 0.732,-0.744 0.972,-1.248c0.24,-0.504 0.36,-1.092 0.36,-1.764l0,-2.472c-0.48,0.8 -1.136,1.432 -1.968,1.896c-0.832,0.464 -1.704,0.696 -2.616,0.696Zm0.456,-1.368c0.48,0 0.952,-0.088 1.416,-0.264c0.464,-0.176 0.884,-0.412 1.26,-0.708c0.376,-0.296 0.692,-0.628 0.948,-0.996c0.256,-0.368 0.424,-0.744 0.504,-1.128l0,-3.864c-0.176,-0.448 -0.416,-0.864 -0.72,-1.248c-0.304,-0.384 -0.648,-0.712 -1.032,-0.984c-0.384,-0.272 -0.796,-0.488 -1.236,-0.648c-0.44,-0.16 -0.884,-0.24 -1.332,-0.24c-0.704,0 -1.332,0.148 -1.884,0.444c-0.552,0.296 -1.02,0.684 -1.404,1.164c-0.384,0.48 -0.676,1.024 -0.876,1.632c-0.2,0.608 -0.3,1.224 -0.3,1.848c0,0.672 0.12,1.312 0.36,1.92c0.24,0.608 0.572,1.14 0.996,1.596c0.424,0.456 0.916,0.816 1.476,1.08c0.56,0.264 1.168,0.396 1.824,0.396Z" style="fill-rule:nonzero;"/><path d="M905.557,1883.67c-0.912,0 -1.744,-0.172 -2.496,-0.516c-0.752,-0.344 -1.404,-0.812 -1.956,-1.404c-0.552,-0.592 -0.98,-1.28 -1.284,-2.064c-0.304,-0.784 -0.456,-1.608 -0.456,-2.472c0,-0.88 0.156,-1.712 0.468,-2.496c0.312,-0.784 0.744,-1.472 1.296,-2.064c0.552,-0.592 1.204,-1.064 1.956,-1.416c0.752,-0.352 1.576,-0.528 2.472,-0.528c0.896,0 1.724,0.176 2.484,0.528c0.76,0.352 1.416,0.824 1.968,1.416c0.552,0.592 0.984,1.28 1.296,2.064c0.312,0.784 0.468,1.616 0.468,2.496c0,0.864 -0.152,1.688 -0.456,2.472c-0.304,0.784 -0.732,1.472 -1.284,2.064c-0.552,0.592 -1.208,1.06 -1.968,1.404c-0.76,0.344 -1.596,0.516 -2.508,0.516Zm-4.536,-6.432c0,0.704 0.12,1.356 0.36,1.956c0.24,0.6 0.564,1.128 0.972,1.584c0.408,0.456 0.888,0.812 1.44,1.068c0.552,0.256 1.14,0.384 1.764,0.384c0.624,0 1.212,-0.132 1.764,-0.396c0.552,-0.264 1.036,-0.624 1.452,-1.08c0.416,-0.456 0.744,-0.988 0.984,-1.596c0.24,-0.608 0.36,-1.264 0.36,-1.968c0,-0.688 -0.12,-1.34 -0.36,-1.956c-0.24,-0.616 -0.568,-1.152 -0.984,-1.608c-0.416,-0.456 -0.9,-0.816 -1.452,-1.08c-0.552,-0.264 -1.14,-0.396 -1.764,-0.396c-0.624,0 -1.208,0.132 -1.752,0.396c-0.544,0.264 -1.024,0.628 -1.44,1.092c-0.416,0.464 -0.744,1.004 -0.984,1.62c-0.24,0.616 -0.36,1.276 -0.36,1.98Z" style="fill-rule:nonzero;"/><path d="M920.749,1872.37c-1.104,0.032 -2.064,0.336 -2.88,0.912c-0.816,0.576 -1.392,1.368 -1.728,2.376l0,7.776l-1.632,0l0,-12.504l1.536,0l0,3c0.464,-0.96 1.088,-1.712 1.872,-2.256c0.784,-0.544 1.624,-0.816 2.52,-0.816c0.128,0 0.232,0.008 0.312,0.024l0,1.488Z" style="fill-rule:nonzero;"/><path d="M923.653,1887.27c0.128,0.016 0.252,0.028 0.372,0.036c0.12,0.008 0.236,0.012 0.348,0.012c0.288,0 0.516,-0.04 0.684,-0.12c0.168,-0.08 0.332,-0.256 0.492,-0.528c0.16,-0.272 0.34,-0.664 0.54,-1.176c0.2,-0.512 0.484,-1.2 0.852,-2.064l-5.448,-12.504l1.68,0l4.632,10.992l4.296,-10.992l1.56,0l-6.48,16.128c-0.176,0.464 -0.468,0.868 -0.876,1.212c-0.408,0.344 -0.964,0.516 -1.668,0.516c-0.16,0 -0.312,-0.004 -0.456,-0.012c-0.144,-0.008 -0.32,-0.028 -0.528,-0.06l0,-1.44Z" style="fill-rule:nonzero;"/><path d="M935.701,1873.35l0,-2.352l1.392,0l0,2.352l-1.392,0Zm0,10.08l0,-2.352l1.392,0l0,2.352l-1.392,0Z" style="fill-rule:nonzero;"/><path d="M959.293,1869.3l-5.448,0l0,14.136l-3.288,0l0,-14.136l-5.448,0l0,-2.904l14.184,0l0,2.904Z" style="fill-rule:nonzero;"/><path d="M963.157,1866.39l4.608,12.888l4.56,-12.888l3.48,0l-6.648,17.04l-2.784,0l-6.696,-17.04l3.48,0Z" style="fill-rule:nonzero;"/></g></g></svg>