<?xml version="1.0" encoding="UTF-8" standalone="no"?><!DOCTYPE svg PUBLIC "-//W3C//DTD SVG 1.1//EN" "http://www.w3.org/Graphics/SVG/1.1/DTD/svg11.dtd"><svg width="100%" height="100%" viewBox="0 0 801 801" version="1.1" xmlns="http://www.w3.org/2000/svg" xmlns:xlink="http://www.w3.org/1999/xlink" xml:space="preserve" style="fill-rule:evenodd;clip-rule:evenodd;stroke-linejoin:round;stroke-miterlimit:1.41421;"><clipPath id="_clip1"><rect id="conjunctive-facets" x="0.711" y="0.853" width="800" height="800"/></clipPath><g clip-path="url(#_clip1)"><g id="UI"><rect x="53.916" y="-70.409" width="697.999" height="107.424" style="fill:#e0e0e0;"/><rect x="326.418" y="84.87" width="425.497" height="91.694" style="fill:#e0e0e0;"/><rect x="326.418" y="231.247" width="425.497" height="91.694" style="fill:#e0e0e0;"/><rect x="326.418" y="377.625" width="425.497" height="91.694" style="fill:#e0e0e0;"/><rect x="326.418" y="524.002" width="425.497" height="91.694" style="fill:#e0e0e0;"/><rect x="326.418" y="670.379" width="425.497" height="91.694" style="fill:#e0e0e0;"/><rect x="53.916" y="84.87" width="213.448" height="384.448" style="fill:#e0e0e0;"/></g><text x="67.784px" y="126.146px" style="font-family:'Raleway-Regular', 'Raleway', sans-serif;font-size:36px;fill:#000;">Ca<tspan x="111.956px 123.548px " y="126.146px 126.146px ">te</tspan>gories</text><text x="67.784px" y="167.817px" style="font-family:'Raleway-Bold', 'Raleway', sans-serif;font-weight:700;font-size:24px;fill:#000;">TV</text><g transform="matrix(1,0,0,1,-233.017,-1715.13)"><text x="832.333px" y="1883.43px" style="font-family:'Raleway-Regular', 'Raleway', sans-serif;font-size:24px;fill:#000;">Cat<tspan x="869.509px " y="1883.43px ">e</tspan>gory:</text><text x="944.773px" y="1883.43px" style="font-family:'Raleway-Bold', 'Raleway', sans-serif;font-weight:700;font-size:24px;fill:#000;">TV</text></g><g transform="matrix(1,0,0,1,-233.017,-1570.2)"><text x="832.333px" y="1883.43px" style="font-family:'Raleway-Regular', 'Raleway', sans-serif;font-size:24px;fill:#000;">Cat<tspan x="869.509px " y="1883.43px ">e</tspan>gory:</text><text x="944.773px" y="1883.43px" style="font-family:'Raleway-Bold', 'Raleway', sans-serif;font-weight:700;font-size:24px;fill:#000;">TV</text></g><g transform="matrix(1,0,0,1,-233.017,-1425.26)"><text x="832.333px" y="1883.43px" style="font-family:'Raleway-Regular', 'Raleway', sans-serif;font-size:24px;fill:#000;">Cat<tspan x="869.509px " y="1883.43px ">e</tspan>gory:</text><text x="944.773px" y="1883.43px" style="font-family:'Raleway-Bold', 'Raleway', sans-serif;font-weight:700;font-size:24px;fill:#000;">TV</text></g><g transform="matrix(1,0,0,1,-233.017,-1280.33)"><text x="832.333px" y="1883.43px" style="font-family:'Raleway-Regular', 'Raleway', sans-serif;font-size:24px;fill:#000;">Cat<tspan x="869.509px " y="1883.43px ">e</tspan>gory:</text><text x="944.773px" y="1883.43px" style="font-family:'Raleway-Bold', 'Raleway', sans-serif;font-weight:700;font-size:24px;fill:#000;">TV</text></g><g transform="matrix(1,0,0,1,-233.017,-1135.39)"><text x="832.333px" y="1883.43px" style="font-family:'Raleway-Regular', 'Raleway', sans-serif;font-size:24px;fill:#000;">Cat<tspan x="869.509px " y="1883.43px ">e</tspan>gory:</text><text x="944.773px" y="1883.43px" style="font-family:'Raleway-Bold', 'Raleway', sans-serif;font-weight:700;font-size:24px;fill:#000;">TV</text></g></g></svg>