<?xml version="1.0" encoding="UTF-8" standalone="no"?><!DOCTYPE svg PUBLIC "-//W3C//DTD SVG 1.1//EN" "http://www.w3.org/Graphics/SVG/1.1/DTD/svg11.dtd"><svg width="100%" height="100%" viewBox="0 0 801 801" version="1.1" xmlns="http://www.w3.org/2000/svg" xmlns:xlink="http://www.w3.org/1999/xlink" xml:space="preserve" style="fill-rule:evenodd;clip-rule:evenodd;stroke-linecap:round;stroke-linejoin:round;stroke-miterlimit:1.41421;"><g><g id="UI"><rect x="175.451" y="102.281" width="450.52" height="614.391" style="fill:#ebebeb;"/><rect x="205.413" y="138.986" width="393.078" height="60.496" style="fill:#e0e0e0;"/><rect x="358.873" y="226.431" width="239.618" height="51.637" style="fill:#e0e0e0;"/><rect x="358.873" y="308.863" width="239.618" height="51.637" style="fill:#e0e0e0;"/><rect x="358.873" y="391.296" width="239.618" height="51.637" style="fill:#e0e0e0;"/><rect x="358.873" y="473.728" width="239.618" height="51.637" style="fill:#e0e0e0;"/><rect x="358.873" y="556.16" width="239.618" height="51.637" style="fill:#e0e0e0;"/><rect x="205.413" y="226.431" width="120.203" height="453.564" style="fill:#e0e0e0;"/></g><g><path d="M400.711,169.234l0,83.505" style="fill:none;stroke-width:12px;stroke:#13c4a5;"/><path d="M404.783,303.179c-0.771,1.543 -2.348,2.517 -4.072,2.517c-1.725,0 -3.301,-0.974 -4.072,-2.517c-5.855,-11.709 -16.538,-33.074 -21.926,-43.851c-0.706,-1.411 -0.63,-3.087 0.199,-4.429c0.83,-1.343 2.295,-2.16 3.873,-2.16c11.253,0 32.599,0 43.851,0c1.578,0 3.044,0.817 3.873,2.16c0.83,1.342 0.905,3.018 0.199,4.429c-5.388,10.777 -16.07,32.142 -21.925,43.851Z" style="fill:#13c4a5;"/></g><g><path d="M280.387,588.237l45.607,-69.951" style="fill:#13c4a5;stroke-width:12px;stroke:#13c4a5;"/><path d="M350.13,473.809c1.489,-0.871 3.341,-0.826 4.786,0.116c1.445,0.941 2.233,2.618 2.037,4.332c-1.491,13.006 -4.211,36.738 -5.583,48.708c-0.179,1.568 -1.158,2.93 -2.586,3.602c-1.428,0.671 -3.102,0.555 -4.423,-0.307c-9.427,-6.145 -27.308,-17.803 -36.734,-23.949c-1.322,-0.862 -2.103,-2.346 -2.065,-3.924c0.038,-1.577 0.89,-3.022 2.252,-3.819c10.4,-6.085 31.017,-18.148 42.316,-24.759Z" style="fill:#13c4a5;"/></g><g><circle cx="400.711" cy="395.504" r="84.866" style="fill:#9c4274;"/><text x="326.367px" y="410.841px" style="font-family:'Raleway-Regular', 'Raleway', sans-serif;font-size:48px;fill:#fff;">H<tspan x="361.455px " y="410.841px ">e</tspan>lper</text></g></g><text x="376.639px" y="68.674px" style="font-family:'Raleway-Regular', 'Raleway', sans-serif;font-size:48px;fill:#000;">UI</text></svg>