<?xml version="1.0" encoding="UTF-8" standalone="no"?><!DOCTYPE svg PUBLIC "-//W3C//DTD SVG 1.1//EN" "http://www.w3.org/Graphics/SVG/1.1/DTD/svg11.dtd"><svg width="100%" height="100%" viewBox="0 0 801 800" version="1.1" xmlns="http://www.w3.org/2000/svg" xmlns:xlink="http://www.w3.org/1999/xlink" xml:space="preserve" style="fill-rule:evenodd;clip-rule:evenodd;stroke-linecap:round;stroke-linejoin:round;stroke-miterlimit:1.41421;"><g><path d="M312.726,601.374c-74.063,-30.931 -125.634,-99.67 -125.634,-179.422c0,-79.752 51.571,-148.492 125.634,-179.422" style="fill:none;stroke-width:12px;stroke:#46aeda;"/><path d="M488.763,242.53c74.062,30.93 125.634,99.67 125.634,179.422c0,79.752 -51.572,148.491 -125.634,179.422" style="fill:none;stroke-width:12px;stroke:#46aeda;"/></g><rect x="333.027" y="113.453" width="135.435" height="184.698" style="fill:#ebebeb;"/><circle cx="400.744" cy="618.83" r="67.717" style="fill:#ebebeb;"/><path d="M484.787,608.842c-1.721,0.114 -3.358,-0.754 -4.23,-2.242c-0.871,-1.488 -0.827,-3.341 0.114,-4.786c6.218,-9.546 16.745,-25.707 22.482,-34.514c0.861,-1.322 2.345,-2.104 3.923,-2.067c1.577,0.038 3.023,0.89 3.82,2.251c4.954,8.46 13.664,23.332 18.619,31.791c0.797,1.362 0.833,3.039 0.094,4.433c-0.739,1.394 -2.148,2.306 -3.722,2.411c-10.488,0.694 -29.732,1.97 -41.1,2.723Z" style="fill:#46aeda;"/><path d="M318.361,231.676c1.721,-0.114 3.358,0.754 4.23,2.242c0.871,1.488 0.827,3.341 -0.114,4.786c-6.218,9.546 -16.745,25.706 -22.482,34.514c-0.861,1.322 -2.345,2.104 -3.923,2.066c-1.577,-0.037 -3.023,-0.889 -3.82,-2.25c-4.954,-8.46 -13.664,-23.332 -18.619,-31.791c-0.797,-1.362 -0.833,-3.039 -0.094,-4.433c0.739,-1.394 2.147,-2.307 3.722,-2.411c10.488,-0.695 29.732,-1.97 41.1,-2.723Z" style="fill:#46aeda;"/><g id="UI"><rect x="342.034" y="124.487" width="118.167" height="18.186" style="fill:#e0e0e0;"/><rect x="388.167" y="150.774" width="72.034" height="15.523" style="fill:#e0e0e0;"/><rect x="388.167" y="175.555" width="72.034" height="15.523" style="fill:#e0e0e0;"/><rect x="388.167" y="200.336" width="72.034" height="15.523" style="fill:#e0e0e0;"/><rect x="388.167" y="225.117" width="72.034" height="15.523" style="fill:#e0e0e0;"/><rect x="388.167" y="249.897" width="72.034" height="15.523" style="fill:#e0e0e0;"/><rect x="342.034" y="150.774" width="36.135" height="136.35" style="fill:#e0e0e0;"/></g><text x="380.944px" y="102.221px" style="font-family:'Raleway-Regular', 'Raleway', sans-serif;font-size:48px;fill:#000;">UI</text><text x="325.264px" y="733.513px" style="font-family:'Raleway-Regular', 'Raleway', sans-serif;font-size:48px;fill:#000;">H<tspan x="360.352px " y="733.513px ">e</tspan>lper</text><text x="632.574px" y="436.351px" style="font-family:'Raleway-Regular', 'Raleway', sans-serif;font-size:48px;fill:#000;">sear<tspan x="725.886px " y="436.351px ">c</tspan>h</text><g transform="matrix(1,0,0,1,36.5806,-8.61643)"><text x="24.33px" y="420.967px" style="font-family:'Raleway-Regular', 'Raleway', sans-serif;font-size:48px;fill:#000;">on</text><text x="-21.486px" y="468.967px" style="font-family:'Raleway-Regular', 'Raleway', sans-serif;font-size:48px;fill:#000;">r<tspan x="-5.886px " y="468.967px ">e</tspan>sults</text></g></svg>