<?xml version="1.0" encoding="UTF-8"?>
<svg width="352px" height="200px" viewBox="0 0 352 200" version="1.1" xmlns="http://www.w3.org/2000/svg" xmlns:xlink="http://www.w3.org/1999/xlink">
    <!-- Generator: Sketch 42 (36781) - http://www.bohemiancoding.com/sketch -->
    <title>autocomplete-dropdown-simple</title>
    <desc>Created with Sketch.</desc>
    <defs>
        <rect id="path-1" x="0" y="0.302072256" width="350" height="194.560076" rx="2.94"></rect>
        <filter x="-50%" y="-50%" width="200%" height="200%" filterUnits="objectBoundingBox" id="filter-2">
            <feMorphology radius="0.98" operator="dilate" in="SourceAlpha" result="shadowSpreadOuter1"></feMorphology>
            <feOffset dx="0" dy="3" in="shadowSpreadOuter1" result="shadowOffsetOuter1"></feOffset>
            <feComposite in="shadowOffsetOuter1" in2="SourceAlpha" operator="out" result="shadowOffsetOuter1"></feComposite>
            <feColorMatrix values="0 0 0 0 0.91372549   0 0 0 0 0.91372549   0 0 0 0 0.91372549  0 0 0 1 0" type="matrix" in="shadowOffsetOuter1"></feColorMatrix>
        </filter>
        <mask id="mask-3" maskContentUnits="userSpaceOnUse" maskUnits="objectBoundingBox" x="-0.98" y="-0.98" width="351.96" height="196.520076">
            <rect x="-0.98" y="-0.677927744" width="351.96" height="196.520076" fill="white"></rect>
            <use xlink:href="#path-1" fill="black"></use>
        </mask>
        <rect id="path-4" x="0" y="49.1914721" width="350" height="0.978672398"></rect>
        <mask id="mask-5" maskContentUnits="userSpaceOnUse" maskUnits="objectBoundingBox" x="0" y="0" width="350" height="1" fill="white">
            <use xlink:href="#path-4"></use>
        </mask>
        <rect id="path-6" x="0" y="97.1464196" width="350" height="0.978672398"></rect>
        <mask id="mask-7" maskContentUnits="userSpaceOnUse" maskUnits="objectBoundingBox" x="0" y="0" width="350" height="1" fill="white">
            <use xlink:href="#path-6"></use>
        </mask>
        <rect id="path-8" x="0" y="145.101367" width="350" height="0.978672398"></rect>
        <mask id="mask-9" maskContentUnits="userSpaceOnUse" maskUnits="objectBoundingBox" x="0" y="0" width="350" height="1" fill="white">
            <use xlink:href="#path-8"></use>
        </mask>
    </defs>
    <g id="Community" stroke="none" stroke-width="1" fill="none" fill-rule="evenodd">
        <g id="Community-Instantsearch-React" transform="translate(-544.000000, -579.000000)">
            <g id="Group-3" transform="translate(-55.000000, -144.000000)">
                <g id="autocomplete-simple" transform="translate(582.000000, 659.072742)">
                    <g id="autocomplete-dropdown-simple" transform="translate(18.000000, 65.105821)">
                        <g id="Rectangle-350-Copy-8">
                            <use fill="black" fill-opacity="1" filter="url(#filter-2)" xlink:href="#path-1"></use>
                            <use fill="#FFFFFF" fill-rule="evenodd" xlink:href="#path-1"></use>
                            <use stroke="#D4D8E3" mask="url(#mask-3)" stroke-width="1.96" xlink:href="#path-1"></use>
                        </g>
                        <rect id="Rectangle-350-Copy-23" fill-opacity="0.0878057065" fill="#9D9DBD" style="mix-blend-mode: multiply;" x="0" y="0.302072256" width="350" height="49.9122923" rx="2.94"></rect>
                        <use id="Rectangle-350-Copy-14" stroke="#9D9DBD" mask="url(#mask-5)" stroke-width="3.92" fill="#D4D9DE" opacity="0.301460598" xlink:href="#path-4"></use>
                        <use id="Rectangle-350-Copy-15" stroke="#9D9DBD" mask="url(#mask-7)" stroke-width="3.92" fill="#D4D9DE" opacity="0.301460598" xlink:href="#path-6"></use>
                        <use id="Rectangle-350-Copy-16" stroke="#9D9DBD" mask="url(#mask-9)" stroke-width="3.92" fill="#D4D9DE" opacity="0.301460598" xlink:href="#path-8"></use>
                        <path d="M55.4713944,28.5984569 C55.4713944,29.3398408 55.7293117,29.9394149 56.2451541,30.3971971 C56.7609966,30.8549794 57.4230961,31.0838671 58.2314725,31.0838671 C59.1068415,31.0838671 59.794621,30.8270662 60.2948319,30.3134569 C60.7950427,29.7998476 61.0451444,29.0830383 61.0451444,28.1630077 L61.0451444,21.189121 L59.839285,21.189121 L59.839285,28.1563085 C59.839285,28.7503088 59.6997193,29.2013851 59.4205838,29.5095507 C59.1414483,29.8177163 58.7428488,29.9717967 58.2247733,29.9717967 C57.7692241,29.9717967 57.3996543,29.8445129 57.1160526,29.5899413 C56.8324509,29.3353697 56.683953,29.0048782 56.6705545,28.5984569 L55.4713944,28.5984569 Z M66.2035428,30.9833788 C65.1763241,30.9833788 64.3646102,30.6495377 63.7683768,29.9818456 C63.1721434,29.3141534 62.8740311,28.4019523 62.8740311,27.2452147 C62.8740311,26.084011 63.1721434,25.1706933 63.7683768,24.5052342 C64.3646102,23.8397752 65.1763241,23.5070507 66.2035428,23.5070507 C67.2307615,23.5070507 68.0424754,23.8397752 68.6387088,24.5052342 C69.2349423,25.1706933 69.5330545,26.084011 69.5330545,27.2452147 C69.5330545,28.4019523 69.2349423,29.3141534 68.6387088,29.9818456 C68.0424754,30.6495377 67.2307615,30.9833788 66.2035428,30.9833788 Z M66.2035428,29.9449999 C66.8868665,29.9449999 67.4138665,29.7082965 67.7845584,29.2348827 C68.1552504,28.7614689 68.3405936,28.0982528 68.3405936,27.2452147 C68.3405936,26.3877104 68.1552504,25.7233779 67.7845584,25.2521971 C67.4138665,24.7810164 66.8868665,24.5454296 66.2035428,24.5454296 C65.5202191,24.5454296 64.9932191,24.7810164 64.6225272,25.2521971 C64.2518352,25.7233779 64.066492,26.3877104 64.066492,27.2452147 C64.066492,28.0982528 64.2518352,28.7614689 64.6225272,29.2348827 C64.9932191,29.7082965 65.5202191,29.9449999 66.2035428,29.9449999 Z M71.2815506,30.8560936 L72.4338163,30.8560936 L72.4338163,26.5819921 C72.4338163,25.970127 72.6057611,25.4777394 72.9496561,25.1048143 C73.293551,24.7318893 73.7892883,24.5454296 74.4368827,24.5454296 C74.9817552,24.5454296 75.3959861,24.7050927 75.6795877,25.0244237 C75.9631894,25.3437547 76.1049881,25.8227441 76.1049881,26.4614061 L76.1049881,30.8560936 L77.2572538,30.8560936 L77.2572538,26.1800389 C77.2572538,25.331467 77.0328322,24.6738336 76.5839823,24.207119 C76.1351324,23.7404044 75.5288591,23.5070507 74.7651444,23.5070507 C74.2113395,23.5070507 73.7479815,23.6187032 73.3750565,23.8420116 C73.0021314,24.06532 72.7241166,24.375714 72.5410038,24.773203 L72.4338163,24.773203 L72.4338163,20.7670702 L71.2815506,20.7670702 L71.2815506,30.8560936 Z M79.2335233,30.8560936 L80.3857889,30.8560936 L80.3857889,26.5819921 C80.3857889,25.9477962 80.5577338,25.4498259 80.9016288,25.0880663 C81.2455237,24.7263067 81.7055321,24.5454296 82.2816678,24.5454296 C82.8578035,24.5454296 83.2854327,24.7017431 83.5645682,25.0143749 C83.8437037,25.3270066 83.9832694,25.8093456 83.9832694,26.4614061 L83.9832694,30.8560936 L85.135535,30.8560936 L85.135535,26.1800389 C85.135535,25.3225346 84.9178126,24.6626682 84.4823612,24.2004198 C84.0469098,23.7381714 83.4227721,23.5070507 82.6099295,23.5070507 C82.0561247,23.5070507 81.6016989,23.6187032 81.2466385,23.8420116 C80.8915781,24.06532 80.6224956,24.375714 80.4393827,24.773203 L80.3321952,24.773203 L80.3321952,23.6343358 L79.2335233,23.6343358 L79.2335233,30.8560936 Z M91.0040506,21.189121 L94.3201639,21.189121 C95.7538039,21.189121 96.8725622,21.6134006 97.6764725,22.4619725 C98.4803828,23.3105445 98.8823319,24.4962943 98.8823319,26.0192577 C98.8823319,27.542221 98.4814993,28.7290874 97.6798221,29.5798925 C96.8781449,30.4306975 95.7582701,30.8560936 94.3201639,30.8560936 L91.0040506,30.8560936 L91.0040506,21.189121 Z M92.20991,22.2743944 L92.20991,29.7708202 L94.2397733,29.7708202 C95.320586,29.7708202 96.1590965,29.4425617 96.7553299,28.786035 C97.3515634,28.1295083 97.6496756,27.2117245 97.6496756,26.0326561 C97.6496756,24.8491216 97.3493303,23.9268717 96.7486307,23.2658788 C96.1479311,22.6048859 95.3116536,22.2743944 94.2397733,22.2743944 L92.20991,22.2743944 Z M103.658875,30.9833788 C102.631656,30.9833788 101.819942,30.6495377 101.223709,29.9818456 C100.627475,29.3141534 100.329363,28.4019523 100.329363,27.2452147 C100.329363,26.084011 100.627475,25.1706933 101.223709,24.5052342 C101.819942,23.8397752 102.631656,23.5070507 103.658875,23.5070507 C104.686094,23.5070507 105.497807,23.8397752 106.094041,24.5052342 C106.690274,25.1706933 106.988387,26.084011 106.988387,27.2452147 C106.988387,28.4019523 106.690274,29.3141534 106.094041,29.9818456 C105.497807,30.6495377 104.686094,30.9833788 103.658875,30.9833788 Z M103.658875,29.9449999 C104.342199,29.9449999 104.869199,29.7082965 105.23989,29.2348827 C105.610582,28.7614689 105.795926,28.0982528 105.795926,27.2452147 C105.795926,26.3877104 105.610582,25.7233779 105.23989,25.2521971 C104.869199,24.7810164 104.342199,24.5454296 103.658875,24.5454296 C102.975551,24.5454296 102.448551,24.7810164 102.077859,25.2521971 C101.707167,25.7233779 101.521824,26.3877104 101.521824,27.2452147 C101.521824,28.0982528 101.707167,28.7614689 102.077859,29.2348827 C102.448551,29.7082965 102.975551,29.9449999 103.658875,29.9449999 Z M111.550555,24.5253319 C110.974419,24.5253319 110.501012,24.7196073 110.13032,25.1081639 C109.759628,25.4967206 109.551954,26.0103222 109.507293,26.6489842 L113.486629,26.6489842 C113.47323,26.0103222 113.29012,25.4967206 112.937293,25.1081639 C112.584466,24.7196073 112.122224,24.5253319 111.550555,24.5253319 Z M113.453133,28.9870116 L114.605398,28.9870116 C114.431218,29.607809 114.078396,30.0957305 113.546922,30.4507909 C113.015448,30.8058513 112.354465,30.9833788 111.563953,30.9833788 C110.563531,30.9833788 109.770798,30.6473047 109.18573,29.9751464 C108.600662,29.302988 108.308133,28.395253 108.308133,27.2519139 C108.308133,26.1175072 108.602895,25.2097722 109.19243,24.5286815 C109.781964,23.8475909 110.572464,23.5070507 111.563953,23.5070507 C112.537578,23.5070507 113.303514,23.8319595 113.861785,24.481787 C114.420056,25.1316145 114.699187,26.017019 114.699187,27.1380272 L114.699187,27.5801757 L109.507293,27.5801757 L109.507293,27.6337694 C109.538556,28.3483563 109.740647,28.9155512 110.113572,29.335371 C110.486497,29.7551908 110.978885,29.9650975 111.59075,29.9650975 C112.055231,29.9650975 112.443782,29.8813581 112.756414,29.7138768 C113.069046,29.5463955 113.301283,29.3041095 113.453133,28.9870116 Z" id="John-Doe" fill="#182359"></path>
                        <path d="M55.4713944,76.2121733 C55.4713944,76.9535572 55.7293117,77.5531313 56.2451541,78.0109136 C56.7609966,78.4686958 57.4230961,78.6975835 58.2314725,78.6975835 C59.1068415,78.6975835 59.794621,78.4407827 60.2948319,77.9271733 C60.7950427,77.413564 61.0451444,76.6967547 61.0451444,75.7767241 L61.0451444,68.8028374 L59.839285,68.8028374 L59.839285,75.7700249 C59.839285,76.3640252 59.6997193,76.8151015 59.4205838,77.1232671 C59.1414483,77.4314327 58.7428488,77.5855132 58.2247733,77.5855132 C57.7692241,77.5855132 57.3996543,77.4582293 57.1160526,77.2036577 C56.8324509,76.9490861 56.683953,76.6185946 56.6705545,76.2121733 L55.4713944,76.2121733 Z M66.2035428,78.5970952 C65.1763241,78.5970952 64.3646102,78.2632541 63.7683768,77.595562 C63.1721434,76.9278698 62.8740311,76.0156687 62.8740311,74.8589311 C62.8740311,73.6977274 63.1721434,72.7844097 63.7683768,72.1189507 C64.3646102,71.4534916 65.1763241,71.1207671 66.2035428,71.1207671 C67.2307615,71.1207671 68.0424754,71.4534916 68.6387088,72.1189507 C69.2349423,72.7844097 69.5330545,73.6977274 69.5330545,74.8589311 C69.5330545,76.0156687 69.2349423,76.9278698 68.6387088,77.595562 C68.0424754,78.2632541 67.2307615,78.5970952 66.2035428,78.5970952 Z M66.2035428,77.5587163 C66.8868665,77.5587163 67.4138665,77.3220129 67.7845584,76.8485991 C68.1552504,76.3751853 68.3405936,75.7119692 68.3405936,74.8589311 C68.3405936,74.0014268 68.1552504,73.3370943 67.7845584,72.8659136 C67.4138665,72.3947328 66.8868665,72.159146 66.2035428,72.159146 C65.5202191,72.159146 64.9932191,72.3947328 64.6225272,72.8659136 C64.2518352,73.3370943 64.066492,74.0014268 64.066492,74.8589311 C64.066492,75.7119692 64.2518352,76.3751853 64.6225272,76.8485991 C64.9932191,77.3220129 65.5202191,77.5587163 66.2035428,77.5587163 Z M71.2815506,78.46981 L72.4338163,78.46981 L72.4338163,74.1957085 C72.4338163,73.5838434 72.6057611,73.0914558 72.9496561,72.7185307 C73.293551,72.3456057 73.7892883,72.159146 74.4368827,72.159146 C74.9817552,72.159146 75.3959861,72.3188091 75.6795877,72.6381401 C75.9631894,72.9574711 76.1049881,73.4364605 76.1049881,74.0751225 L76.1049881,78.46981 L77.2572538,78.46981 L77.2572538,73.7937553 C77.2572538,72.9451834 77.0328322,72.28755 76.5839823,71.8208354 C76.1351324,71.3541209 75.5288591,71.1207671 74.7651444,71.1207671 C74.2113395,71.1207671 73.7479815,71.2324196 73.3750565,71.455728 C73.0021314,71.6790364 72.7241166,71.9894304 72.5410038,72.3869194 L72.4338163,72.3869194 L72.4338163,68.3807866 L71.2815506,68.3807866 L71.2815506,78.46981 Z M79.2335233,78.46981 L80.3857889,78.46981 L80.3857889,74.1957085 C80.3857889,73.5615126 80.5577338,73.0635423 80.9016288,72.7017827 C81.2455237,72.3400231 81.7055321,72.159146 82.2816678,72.159146 C82.8578035,72.159146 83.2854327,72.3154595 83.5645682,72.6280913 C83.8437037,72.9407231 83.9832694,73.423062 83.9832694,74.0751225 L83.9832694,78.46981 L85.135535,78.46981 L85.135535,73.7937553 C85.135535,72.9362511 84.9178126,72.2763846 84.4823612,71.8141362 C84.0469098,71.3518878 83.4227721,71.1207671 82.6099295,71.1207671 C82.0561247,71.1207671 81.6016989,71.2324196 81.2466385,71.455728 C80.8915781,71.6790364 80.6224956,71.9894304 80.4393827,72.3869194 L80.3321952,72.3869194 L80.3321952,71.2480522 L79.2335233,71.2480522 L79.2335233,78.46981 Z M91.0040506,68.8028374 L94.3201639,68.8028374 C95.7538039,68.8028374 96.8725622,69.227117 97.6764725,70.0756889 C98.4803828,70.9242609 98.8823319,72.1100108 98.8823319,73.6329741 C98.8823319,75.1559374 98.4814993,76.3428038 97.6798221,77.1936089 C96.8781449,78.0444139 95.7582701,78.46981 94.3201639,78.46981 L91.0040506,78.46981 L91.0040506,68.8028374 Z M92.20991,69.8881108 L92.20991,77.3845366 L94.2397733,77.3845366 C95.320586,77.3845366 96.1590965,77.0562782 96.7553299,76.3997514 C97.3515634,75.7432247 97.6496756,74.8254409 97.6496756,73.6463725 C97.6496756,72.462838 97.3493303,71.5405881 96.7486307,70.8795952 C96.1479311,70.2186023 95.3116536,69.8881108 94.2397733,69.8881108 L92.20991,69.8881108 Z M103.658875,78.5970952 C102.631656,78.5970952 101.819942,78.2632541 101.223709,77.595562 C100.627475,76.9278698 100.329363,76.0156687 100.329363,74.8589311 C100.329363,73.6977274 100.627475,72.7844097 101.223709,72.1189507 C101.819942,71.4534916 102.631656,71.1207671 103.658875,71.1207671 C104.686094,71.1207671 105.497807,71.4534916 106.094041,72.1189507 C106.690274,72.7844097 106.988387,73.6977274 106.988387,74.8589311 C106.988387,76.0156687 106.690274,76.9278698 106.094041,77.595562 C105.497807,78.2632541 104.686094,78.5970952 103.658875,78.5970952 Z M103.658875,77.5587163 C104.342199,77.5587163 104.869199,77.3220129 105.23989,76.8485991 C105.610582,76.3751853 105.795926,75.7119692 105.795926,74.8589311 C105.795926,74.0014268 105.610582,73.3370943 105.23989,72.8659136 C104.869199,72.3947328 104.342199,72.159146 103.658875,72.159146 C102.975551,72.159146 102.448551,72.3947328 102.077859,72.8659136 C101.707167,73.3370943 101.521824,74.0014268 101.521824,74.8589311 C101.521824,75.7119692 101.707167,76.3751853 102.077859,76.8485991 C102.448551,77.3220129 102.975551,77.5587163 103.658875,77.5587163 Z M111.550555,72.1390483 C110.974419,72.1390483 110.501012,72.3333237 110.13032,72.7218803 C109.759628,73.110437 109.551954,73.6240386 109.507293,74.2627007 L113.486629,74.2627007 C113.47323,73.6240386 113.29012,73.110437 112.937293,72.7218803 C112.584466,72.3333237 112.122224,72.1390483 111.550555,72.1390483 Z M113.453133,76.600728 L114.605398,76.600728 C114.431218,77.2215254 114.078396,77.7094469 113.546922,78.0645073 C113.015448,78.4195677 112.354465,78.5970952 111.563953,78.5970952 C110.563531,78.5970952 109.770798,78.2610211 109.18573,77.5888628 C108.600662,76.9167045 108.308133,76.0089694 108.308133,74.8656303 C108.308133,73.7312236 108.602895,72.8234886 109.19243,72.1423979 C109.781964,71.4613073 110.572464,71.1207671 111.563953,71.1207671 C112.537578,71.1207671 113.303514,71.4456759 113.861785,72.0955034 C114.420056,72.7453309 114.699187,73.6307354 114.699187,74.7517436 L114.699187,75.1938921 L109.507293,75.1938921 L109.507293,75.2474858 C109.538556,75.9620727 109.740647,76.5292676 110.113572,76.9490874 C110.486497,77.3689072 110.978885,77.5788139 111.59075,77.5788139 C112.055231,77.5788139 112.443782,77.4950745 112.756414,77.3275932 C113.069046,77.1601119 113.301283,76.9178259 113.453133,76.600728 Z" id="John-Doe" fill="#182359"></path>
                        <path d="M55.4713944,124.167121 C55.4713944,124.908505 55.7293117,125.508079 56.2451541,125.965861 C56.7609966,126.423643 57.4230961,126.652531 58.2314725,126.652531 C59.1068415,126.652531 59.794621,126.39573 60.2948319,125.882121 C60.7950427,125.368511 61.0451444,124.651702 61.0451444,123.731672 L61.0451444,116.757785 L59.839285,116.757785 L59.839285,123.724972 C59.839285,124.318973 59.6997193,124.770049 59.4205838,125.078215 C59.1414483,125.38638 58.7428488,125.540461 58.2247733,125.540461 C57.7692241,125.540461 57.3996543,125.413177 57.1160526,125.158605 C56.8324509,124.904034 56.683953,124.573542 56.6705545,124.167121 L55.4713944,124.167121 Z M66.2035428,126.552043 C65.1763241,126.552043 64.3646102,126.218202 63.7683768,125.550509 C63.1721434,124.882817 62.8740311,123.970616 62.8740311,122.813879 C62.8740311,121.652675 63.1721434,120.739357 63.7683768,120.073898 C64.3646102,119.408439 65.1763241,119.075715 66.2035428,119.075715 C67.2307615,119.075715 68.0424754,119.408439 68.6387088,120.073898 C69.2349423,120.739357 69.5330545,121.652675 69.5330545,122.813879 C69.5330545,123.970616 69.2349423,124.882817 68.6387088,125.550509 C68.0424754,126.218202 67.2307615,126.552043 66.2035428,126.552043 Z M66.2035428,125.513664 C66.8868665,125.513664 67.4138665,125.27696 67.7845584,124.803547 C68.1552504,124.330133 68.3405936,123.666917 68.3405936,122.813879 C68.3405936,121.956374 68.1552504,121.292042 67.7845584,120.820861 C67.4138665,120.34968 66.8868665,120.114093 66.2035428,120.114093 C65.5202191,120.114093 64.9932191,120.34968 64.6225272,120.820861 C64.2518352,121.292042 64.066492,121.956374 64.066492,122.813879 C64.066492,123.666917 64.2518352,124.330133 64.6225272,124.803547 C64.9932191,125.27696 65.5202191,125.513664 66.2035428,125.513664 Z M71.2815506,126.424758 L72.4338163,126.424758 L72.4338163,122.150656 C72.4338163,121.538791 72.6057611,121.046403 72.9496561,120.673478 C73.293551,120.300553 73.7892883,120.114093 74.4368827,120.114093 C74.9817552,120.114093 75.3959861,120.273757 75.6795877,120.593088 C75.9631894,120.912419 76.1049881,121.391408 76.1049881,122.03007 L76.1049881,126.424758 L77.2572538,126.424758 L77.2572538,121.748703 C77.2572538,120.900131 77.0328322,120.242497 76.5839823,119.775783 C76.1351324,119.309068 75.5288591,119.075715 74.7651444,119.075715 C74.2113395,119.075715 73.7479815,119.187367 73.3750565,119.410675 C73.0021314,119.633984 72.7241166,119.944378 72.5410038,120.341867 L72.4338163,120.341867 L72.4338163,116.335734 L71.2815506,116.335734 L71.2815506,126.424758 Z M79.2335233,126.424758 L80.3857889,126.424758 L80.3857889,122.150656 C80.3857889,121.51646 80.5577338,121.01849 80.9016288,120.65673 C81.2455237,120.294971 81.7055321,120.114093 82.2816678,120.114093 C82.8578035,120.114093 83.2854327,120.270407 83.5645682,120.583039 C83.8437037,120.895671 83.9832694,121.378009 83.9832694,122.03007 L83.9832694,126.424758 L85.135535,126.424758 L85.135535,121.748703 C85.135535,120.891199 84.9178126,120.231332 84.4823612,119.769084 C84.0469098,119.306835 83.4227721,119.075715 82.6099295,119.075715 C82.0561247,119.075715 81.6016989,119.187367 81.2466385,119.410675 C80.8915781,119.633984 80.6224956,119.944378 80.4393827,120.341867 L80.3321952,120.341867 L80.3321952,119.203 L79.2335233,119.203 L79.2335233,126.424758 Z M91.0040506,116.757785 L94.3201639,116.757785 C95.7538039,116.757785 96.8725622,117.182064 97.6764725,118.030636 C98.4803828,118.879208 98.8823319,120.064958 98.8823319,121.587922 C98.8823319,123.110885 98.4814993,124.297751 97.6798221,125.148556 C96.8781449,125.999361 95.7582701,126.424758 94.3201639,126.424758 L91.0040506,126.424758 L91.0040506,116.757785 Z M92.20991,117.843058 L92.20991,125.339484 L94.2397733,125.339484 C95.320586,125.339484 96.1590965,125.011226 96.7553299,124.354699 C97.3515634,123.698172 97.6496756,122.780388 97.6496756,121.60132 C97.6496756,120.417785 97.3493303,119.495536 96.7486307,118.834543 C96.1479311,118.17355 95.3116536,117.843058 94.2397733,117.843058 L92.20991,117.843058 Z M103.658875,126.552043 C102.631656,126.552043 101.819942,126.218202 101.223709,125.550509 C100.627475,124.882817 100.329363,123.970616 100.329363,122.813879 C100.329363,121.652675 100.627475,120.739357 101.223709,120.073898 C101.819942,119.408439 102.631656,119.075715 103.658875,119.075715 C104.686094,119.075715 105.497807,119.408439 106.094041,120.073898 C106.690274,120.739357 106.988387,121.652675 106.988387,122.813879 C106.988387,123.970616 106.690274,124.882817 106.094041,125.550509 C105.497807,126.218202 104.686094,126.552043 103.658875,126.552043 Z M103.658875,125.513664 C104.342199,125.513664 104.869199,125.27696 105.23989,124.803547 C105.610582,124.330133 105.795926,123.666917 105.795926,122.813879 C105.795926,121.956374 105.610582,121.292042 105.23989,120.820861 C104.869199,120.34968 104.342199,120.114093 103.658875,120.114093 C102.975551,120.114093 102.448551,120.34968 102.077859,120.820861 C101.707167,121.292042 101.521824,121.956374 101.521824,122.813879 C101.521824,123.666917 101.707167,124.330133 102.077859,124.803547 C102.448551,125.27696 102.975551,125.513664 103.658875,125.513664 Z M111.550555,120.093996 C110.974419,120.093996 110.501012,120.288271 110.13032,120.676828 C109.759628,121.065384 109.551954,121.578986 109.507293,122.217648 L113.486629,122.217648 C113.47323,121.578986 113.29012,121.065384 112.937293,120.676828 C112.584466,120.288271 112.122224,120.093996 111.550555,120.093996 Z M113.453133,124.555675 L114.605398,124.555675 C114.431218,125.176473 114.078396,125.664394 113.546922,126.019455 C113.015448,126.374515 112.354465,126.552043 111.563953,126.552043 C110.563531,126.552043 109.770798,126.215969 109.18573,125.54381 C108.600662,124.871652 108.308133,123.963917 108.308133,122.820578 C108.308133,121.686171 108.602895,120.778436 109.19243,120.097345 C109.781964,119.416255 110.572464,119.075715 111.563953,119.075715 C112.537578,119.075715 113.303514,119.400623 113.861785,120.050451 C114.420056,120.700278 114.699187,121.585683 114.699187,122.706691 L114.699187,123.14884 L109.507293,123.14884 L109.507293,123.202433 C109.538556,123.91702 109.740647,124.484215 110.113572,124.904035 C110.486497,125.323855 110.978885,125.533761 111.59075,125.533761 C112.055231,125.533761 112.443782,125.450022 112.756414,125.282541 C113.069046,125.115059 113.301283,124.872773 113.453133,124.555675 Z" id="John-Doe" fill="#182359"></path>
                        <path d="M55.4713944,174.079413 C55.4713944,174.820797 55.7293117,175.420371 56.2451541,175.878153 C56.7609966,176.335936 57.4230961,176.564823 58.2314725,176.564823 C59.1068415,176.564823 59.794621,176.308022 60.2948319,175.794413 C60.7950427,175.280804 61.0451444,174.563994 61.0451444,173.643964 L61.0451444,166.670077 L59.839285,166.670077 L59.839285,173.637265 C59.839285,174.231265 59.6997193,174.682341 59.4205838,174.990507 C59.1414483,175.298672 58.7428488,175.452753 58.2247733,175.452753 C57.7692241,175.452753 57.3996543,175.325469 57.1160526,175.070897 C56.8324509,174.816326 56.683953,174.485834 56.6705545,174.079413 L55.4713944,174.079413 Z M66.2035428,176.464335 C65.1763241,176.464335 64.3646102,176.130494 63.7683768,175.462802 C63.1721434,174.79511 62.8740311,173.882908 62.8740311,172.726171 C62.8740311,171.564967 63.1721434,170.651649 63.7683768,169.98619 C64.3646102,169.320731 65.1763241,168.988007 66.2035428,168.988007 C67.2307615,168.988007 68.0424754,169.320731 68.6387088,169.98619 C69.2349423,170.651649 69.5330545,171.564967 69.5330545,172.726171 C69.5330545,173.882908 69.2349423,174.79511 68.6387088,175.462802 C68.0424754,176.130494 67.2307615,176.464335 66.2035428,176.464335 Z M66.2035428,175.425956 C66.8868665,175.425956 67.4138665,175.189253 67.7845584,174.715839 C68.1552504,174.242425 68.3405936,173.579209 68.3405936,172.726171 C68.3405936,171.868667 68.1552504,171.204334 67.7845584,170.733153 C67.4138665,170.261973 66.8868665,170.026386 66.2035428,170.026386 C65.5202191,170.026386 64.9932191,170.261973 64.6225272,170.733153 C64.2518352,171.204334 64.066492,171.868667 64.066492,172.726171 C64.066492,173.579209 64.2518352,174.242425 64.6225272,174.715839 C64.9932191,175.189253 65.5202191,175.425956 66.2035428,175.425956 Z M71.2815506,176.33705 L72.4338163,176.33705 L72.4338163,172.062948 C72.4338163,171.451083 72.6057611,170.958696 72.9496561,170.58577 C73.293551,170.212845 73.7892883,170.026386 74.4368827,170.026386 C74.9817552,170.026386 75.3959861,170.186049 75.6795877,170.50538 C75.9631894,170.824711 76.1049881,171.3037 76.1049881,171.942362 L76.1049881,176.33705 L77.2572538,176.33705 L77.2572538,171.660995 C77.2572538,170.812423 77.0328322,170.15479 76.5839823,169.688075 C76.1351324,169.221361 75.5288591,168.988007 74.7651444,168.988007 C74.2113395,168.988007 73.7479815,169.099659 73.3750565,169.322968 C73.0021314,169.546276 72.7241166,169.85667 72.5410038,170.254159 L72.4338163,170.254159 L72.4338163,166.248026 L71.2815506,166.248026 L71.2815506,176.33705 Z M79.2335233,176.33705 L80.3857889,176.33705 L80.3857889,172.062948 C80.3857889,171.428752 80.5577338,170.930782 80.9016288,170.569022 C81.2455237,170.207263 81.7055321,170.026386 82.2816678,170.026386 C82.8578035,170.026386 83.2854327,170.182699 83.5645682,170.495331 C83.8437037,170.807963 83.9832694,171.290302 83.9832694,171.942362 L83.9832694,176.33705 L85.135535,176.33705 L85.135535,171.660995 C85.135535,170.803491 84.9178126,170.143624 84.4823612,169.681376 C84.0469098,169.219128 83.4227721,168.988007 82.6099295,168.988007 C82.0561247,168.988007 81.6016989,169.099659 81.2466385,169.322968 C80.8915781,169.546276 80.6224956,169.85667 80.4393827,170.254159 L80.3321952,170.254159 L80.3321952,169.115292 L79.2335233,169.115292 L79.2335233,176.33705 Z M91.0040506,166.670077 L94.3201639,166.670077 C95.7538039,166.670077 96.8725622,167.094357 97.6764725,167.942929 C98.4803828,168.791501 98.8823319,169.977251 98.8823319,171.500214 C98.8823319,173.023177 98.4814993,174.210044 97.6798221,175.060849 C96.8781449,175.911654 95.7582701,176.33705 94.3201639,176.33705 L91.0040506,176.33705 L91.0040506,166.670077 Z M92.20991,167.755351 L92.20991,175.251776 L94.2397733,175.251776 C95.320586,175.251776 96.1590965,174.923518 96.7553299,174.266991 C97.3515634,173.610464 97.6496756,172.692681 97.6496756,171.513612 C97.6496756,170.330078 97.3493303,169.407828 96.7486307,168.746835 C96.1479311,168.085842 95.3116536,167.755351 94.2397733,167.755351 L92.20991,167.755351 Z M103.658875,176.464335 C102.631656,176.464335 101.819942,176.130494 101.223709,175.462802 C100.627475,174.79511 100.329363,173.882908 100.329363,172.726171 C100.329363,171.564967 100.627475,170.651649 101.223709,169.98619 C101.819942,169.320731 102.631656,168.988007 103.658875,168.988007 C104.686094,168.988007 105.497807,169.320731 106.094041,169.98619 C106.690274,170.651649 106.988387,171.564967 106.988387,172.726171 C106.988387,173.882908 106.690274,174.79511 106.094041,175.462802 C105.497807,176.130494 104.686094,176.464335 103.658875,176.464335 Z M103.658875,175.425956 C104.342199,175.425956 104.869199,175.189253 105.23989,174.715839 C105.610582,174.242425 105.795926,173.579209 105.795926,172.726171 C105.795926,171.868667 105.610582,171.204334 105.23989,170.733153 C104.869199,170.261973 104.342199,170.026386 103.658875,170.026386 C102.975551,170.026386 102.448551,170.261973 102.077859,170.733153 C101.707167,171.204334 101.521824,171.868667 101.521824,172.726171 C101.521824,173.579209 101.707167,174.242425 102.077859,174.715839 C102.448551,175.189253 102.975551,175.425956 103.658875,175.425956 Z M111.550555,170.006288 C110.974419,170.006288 110.501012,170.200563 110.13032,170.58912 C109.759628,170.977677 109.551954,171.491278 109.507293,172.12994 L113.486629,172.12994 C113.47323,171.491278 113.29012,170.977677 112.937293,170.58912 C112.584466,170.200563 112.122224,170.006288 111.550555,170.006288 Z M113.453133,174.467968 L114.605398,174.467968 C114.431218,175.088765 114.078396,175.576687 113.546922,175.931747 C113.015448,176.286807 112.354465,176.464335 111.563953,176.464335 C110.563531,176.464335 109.770798,176.128261 109.18573,175.456103 C108.600662,174.783944 108.308133,173.876209 108.308133,172.73287 C108.308133,171.598463 108.602895,170.690728 109.19243,170.009638 C109.781964,169.328547 110.572464,168.988007 111.563953,168.988007 C112.537578,168.988007 113.303514,169.312916 113.861785,169.962743 C114.420056,170.612571 114.699187,171.497975 114.699187,172.618983 L114.699187,173.061132 L109.507293,173.061132 L109.507293,173.114726 C109.538556,173.829312 109.740647,174.396507 110.113572,174.816327 C110.486497,175.236147 110.978885,175.446054 111.59075,175.446054 C112.055231,175.446054 112.443782,175.362314 112.756414,175.194833 C113.069046,175.027352 113.301283,174.785066 113.453133,174.467968 Z" id="John-Doe" fill="#182359"></path>
                        <path d="M188.882373,30.8560936 L188.73499,30.4373925 C188.636735,30.1582569 188.523966,29.8366977 188.39668,29.472705 C188.269394,29.1087122 188.156625,28.787153 188.058369,28.5080175 L187.910987,28.0893163 L184.065635,28.0893163 L183.094248,30.8560936 L181.828096,30.8560936 L185.39208,21.189121 L186.584541,21.189121 L190.148526,30.8560936 L188.882373,30.8560936 Z M185.934717,22.7500389 L185.780635,23.1854882 C185.677913,23.4757891 185.551746,23.8353102 185.402129,24.2640624 L184.953281,25.5503124 C184.803665,25.9790645 184.677497,26.3385857 184.574776,26.6288866 L184.420694,27.0643358 L187.555928,27.0643358 L186.041904,22.7500389 L185.934717,22.7500389 Z M191.635752,30.8560936 L192.788018,30.8560936 L192.788018,20.7670702 L191.635752,20.7670702 L191.635752,30.8560936 Z M197.819131,29.7306249 C198.489056,29.7306249 199.013823,29.495038 199.393447,29.0238573 C199.773072,28.5526766 199.962881,27.9240728 199.962881,27.1380272 C199.962881,26.3519816 199.771955,25.7233779 199.390098,25.2521971 C199.00824,24.7810164 198.48459,24.5454296 197.819131,24.5454296 C197.149206,24.5454296 196.633371,24.7810164 196.271612,25.2521971 C195.909852,25.7233779 195.728975,26.3519816 195.728975,27.1380272 C195.728975,27.9240728 195.909852,28.5526766 196.271612,29.0238573 C196.633371,29.495038 197.149206,29.7306249 197.819131,29.7306249 Z M197.872725,33.6295702 C197.001822,33.6295702 196.301761,33.4498096 195.77252,33.0902831 C195.243279,32.7307565 194.934001,32.2517672 194.844678,31.6533007 L196.063936,31.6533007 C196.126462,31.9480678 196.314038,32.1836546 196.62667,32.3600682 C196.939302,32.5364819 197.354649,32.6246874 197.872725,32.6246874 C198.520319,32.6246874 199.026105,32.4739565 199.390098,32.1724901 C199.754091,31.8710238 199.936084,31.4545598 199.936084,30.9230858 L199.936084,29.5028514 L199.828897,29.5028514 C199.601122,29.9003404 199.290728,30.2073849 198.897705,30.423994 C198.504682,30.6406032 198.060305,30.7489061 197.564561,30.7489061 C196.631132,30.7489061 195.893108,30.4172981 195.350469,29.7540721 C194.80783,29.0908462 194.536514,28.2188399 194.536514,27.1380272 C194.536514,26.0572145 194.808946,25.1818587 195.353819,24.5119335 C195.898691,23.8420082 196.635598,23.5070507 197.564561,23.5070507 C198.069238,23.5070507 198.530363,23.6220528 198.947949,23.8520604 C199.365536,24.0820681 199.677047,24.3913456 199.88249,24.7799022 L199.989678,24.7799022 L199.989678,23.6343358 L201.08835,23.6343358 L201.08835,30.9833788 C201.08835,31.7917552 200.79917,32.4348738 200.220801,32.9127538 C199.642432,33.3906338 198.859748,33.6295702 197.872725,33.6295702 Z M206.099365,30.9833788 C205.072147,30.9833788 204.260433,30.6495377 203.664199,29.9818456 C203.067966,29.3141534 202.769854,28.4019523 202.769854,27.2452147 C202.769854,26.084011 203.067966,25.1706933 203.664199,24.5052342 C204.260433,23.8397752 205.072147,23.5070507 206.099365,23.5070507 C207.126584,23.5070507 207.938298,23.8397752 208.534531,24.5052342 C209.130765,25.1706933 209.428877,26.084011 209.428877,27.2452147 C209.428877,28.4019523 209.130765,29.3141534 208.534531,29.9818456 C207.938298,30.6495377 207.126584,30.9833788 206.099365,30.9833788 Z M206.099365,29.9449999 C206.782689,29.9449999 207.309689,29.7082965 207.680381,29.2348827 C208.051073,28.7614689 208.236416,28.0982528 208.236416,27.2452147 C208.236416,26.3877104 208.051073,25.7233779 207.680381,25.2521971 C207.309689,24.7810164 206.782689,24.5454296 206.099365,24.5454296 C205.416042,24.5454296 204.889042,24.7810164 204.51835,25.2521971 C204.147658,25.7233779 203.962315,26.3877104 203.962315,27.2452147 C203.962315,28.0982528 204.147658,28.7614689 204.51835,29.2348827 C204.889042,29.7082965 205.416042,29.9449999 206.099365,29.9449999 Z M211.177373,30.8560936 L212.329639,30.8560936 L212.329639,20.7670702 L211.177373,20.7670702 L211.177373,30.8560936 Z M214.46669,30.8560936 L215.618955,30.8560936 L215.618955,23.6343358 L214.46669,23.6343358 L214.46669,30.8560936 Z M215.042822,22.1672069 C215.266131,22.1672069 215.45594,22.0879336 215.612256,21.9293846 C215.768572,21.7708357 215.846729,21.5821429 215.846729,21.3633007 C215.846729,21.1399922 215.768572,20.9501829 215.612256,20.7938671 C215.45594,20.6375512 215.266131,20.5593944 215.042822,20.5593944 C214.82398,20.5593944 214.635287,20.6375512 214.476738,20.7938671 C214.31819,20.9501829 214.238916,21.1399922 214.238916,21.3633007 C214.238916,21.5821429 214.31819,21.7708357 214.476738,21.9293846 C214.635287,22.0879336 214.82398,22.1672069 215.042822,22.1672069 Z M219.913154,29.9717967 C220.507155,29.9717967 220.999543,29.7987353 221.390332,29.4526073 C221.781122,29.1064793 221.976514,28.676617 221.976514,28.1630077 L221.976514,27.499785 L220.03374,27.6270702 C218.979725,27.6985289 218.452725,28.0915458 218.452725,28.8061327 C218.452725,29.1723585 218.591174,29.458189 218.868076,29.6636327 C219.144979,29.8690764 219.493335,29.9717967 219.913154,29.9717967 Z M219.698779,30.9833788 C218.997591,30.9833788 218.415881,30.7902199 217.953633,30.4038964 C217.491385,30.0175728 217.260264,29.4939224 217.260264,28.8329296 C217.260264,27.5109438 218.137853,26.7986006 219.893057,26.6958788 L221.976514,26.5685936 L221.976514,25.9120702 C221.976514,24.9920395 221.43165,24.5320311 220.341904,24.5320311 C219.908686,24.5320311 219.549165,24.6101879 219.26333,24.7665038 C218.977496,24.9228197 218.794385,25.1438917 218.713994,25.4297264 L217.54833,25.4297264 C217.624255,24.8491246 217.923484,24.3835335 218.446026,24.0329393 C218.968567,23.6823451 219.613919,23.5070507 220.3821,23.5070507 C221.261935,23.5070507 221.939666,23.720307 222.415313,24.146826 C222.89096,24.5733451 223.128779,25.1617539 223.128779,25.9120702 L223.128779,30.8560936 L222.030108,30.8560936 L222.030108,29.7909178 L221.92292,29.7909178 C221.690679,30.1750083 221.382518,30.469771 220.998428,30.6752147 C220.614337,30.8806585 220.181126,30.9833788 219.698779,30.9833788 Z" id="Algolia" fill="#182359"></path>
                        <path d="M291.128204,28.5938694 L292.334063,28.5938694 L292.334063,18.9268968 L291.134903,18.9268968 L290.746348,19.2049144 C290.48731,19.3902603 290.188082,19.6057497 289.848653,19.851389 C289.509224,20.0970282 289.209995,20.3125176 288.950957,20.4978636 L288.562403,20.7758812 L288.562403,22.0487327 L288.934209,21.780764 C289.182082,21.6021172 289.467912,21.3944435 289.791709,21.1577366 C290.115507,20.9210297 290.401337,20.713356 290.649209,20.5347093 L291.021016,20.2667405 L291.128204,20.2667405 L291.128204,28.5938694 Z M295.027149,21.6467796 L295.027149,21.6534788 L296.192813,21.6534788 L296.192813,21.6467796 C296.192813,21.0751101 296.366991,20.6162182 296.715352,20.2700901 C297.063713,19.9239621 297.521488,19.7509007 298.088692,19.7509007 C298.620166,19.7509007 299.067892,19.9150299 299.431885,20.2432933 C299.795878,20.5715566 299.977871,20.9768553 299.977871,21.4592015 C299.977871,21.8477581 299.876268,22.217328 299.673057,22.5679222 C299.469846,22.9185164 299.055615,23.4332345 298.430352,24.1120921 L295.087442,27.7631663 L295.087442,28.5938694 L301.344512,28.5938694 L301.344512,27.508596 L296.81584,27.508596 L296.81584,27.4014085 L299.140469,24.9025999 C299.935447,24.0495618 300.474729,23.3796466 300.75833,22.8928343 C301.041932,22.406022 301.183731,21.9125178 301.183731,21.4123069 C301.183731,20.644126 300.890085,19.9998909 300.302784,19.4795823 C299.715482,18.9592737 298.988625,18.6991233 298.122188,18.6991233 C297.224488,18.6991233 296.484232,18.9760216 295.901397,19.5298265 C295.318562,20.0836313 295.027149,20.7892753 295.027149,21.6467796 Z M306.33543,28.8149437 C305.513655,28.8149437 304.819176,28.588289 304.251973,28.134973 C303.68477,27.6816569 303.323015,27.0664514 303.1667,26.2893382 L304.406055,26.2893382 C304.535574,26.7404212 304.773394,27.0954762 305.119522,27.354514 C305.46565,27.6135517 305.875415,27.7430687 306.348829,27.7430687 C307.134874,27.7430687 307.745613,27.403645 308.181065,26.7247874 C308.616516,26.0459298 308.84987,25.0633876 308.881133,23.7771312 L308.773946,23.7771312 C308.537239,24.2460788 308.193349,24.6111826 307.742266,24.8724534 C307.291183,25.1337243 306.777581,25.2643577 306.201446,25.2643577 C305.281415,25.2643577 304.522178,24.9595463 303.923711,24.3499144 C303.325245,23.7402824 303.026016,22.9665304 303.026016,22.0286351 C303.026016,21.0550104 303.343109,20.2566948 303.977305,19.6336644 C304.611501,19.0106339 305.424331,18.6991233 306.415821,18.6991233 C307.907521,18.6991233 308.963754,19.4315639 309.584551,20.8964671 C309.897183,21.6289187 310.053496,22.526605 310.053496,23.589553 C310.053496,25.2509676 309.729704,26.5372047 309.08211,27.448303 C308.434515,28.3594013 307.518965,28.8149437 306.33543,28.8149437 Z M306.415821,24.2192796 C307.054483,24.2192796 307.580366,24.0138389 307.993487,23.6029515 C308.406607,23.192064 308.613164,22.6672971 308.613164,22.0286351 C308.613164,21.3810407 308.404374,20.8406424 307.986787,20.4074241 C307.569201,19.9742058 307.050017,19.7575999 306.429219,19.7575999 C305.808422,19.7575999 305.289237,19.9708562 304.871651,20.3973753 C304.454064,20.8238944 304.245274,21.3542439 304.245274,21.9884398 C304.245274,22.6494326 304.447365,23.1864813 304.851553,23.5996019 C305.255741,24.0127224 305.777159,24.2192796 306.415821,24.2192796 Z" id="129" fill="#182359"></path>
                        <path d="M291.128204,77.5274893 L292.334063,77.5274893 L292.334063,67.8605167 L291.134903,67.8605167 L290.746348,68.1385342 C290.48731,68.3238802 290.188082,68.5393696 289.848653,68.7850088 C289.509224,69.0306481 289.209995,69.2461375 288.950957,69.4314835 L288.562403,69.709501 L288.562403,70.9823526 L288.934209,70.7143838 C289.182082,70.5357371 289.467912,70.3280634 289.791709,70.0913565 C290.115507,69.8546496 290.401337,69.6469759 290.649209,69.4683292 L291.021016,69.2003604 L291.128204,69.2003604 L291.128204,77.5274893 Z M298.336563,77.7552628 C297.246818,77.7552628 296.402725,77.3131187 295.804258,76.4288174 C295.205792,75.5445161 294.906563,74.2984739 294.906563,72.6906534 C294.906563,71.0962313 295.208025,69.8546552 295.810957,68.9658878 C296.41389,68.0771203 297.25575,67.6327432 298.336563,67.6327432 C299.412909,67.6327432 300.25142,68.0782368 300.85212,68.9692374 C301.452819,69.8602379 301.753164,71.1073967 301.753164,72.710751 C301.753164,74.3141054 301.455052,75.5556815 300.858819,76.4355167 C300.262585,77.3153518 299.421842,77.7552628 298.336563,77.7552628 Z M298.336563,76.7034854 C299.05115,76.7034854 299.597131,76.3584791 299.974522,75.6684561 C300.351913,74.9784331 300.540606,73.9858421 300.540606,72.6906534 C300.540606,71.4088631 300.34968,70.4218548 299.967823,69.7295987 C299.585965,69.0373426 299.042217,68.6912198 298.336563,68.6912198 C297.630908,68.6912198 297.084927,69.0384592 296.698604,69.7329483 C296.31228,70.4274375 296.119121,71.4133293 296.119121,72.6906534 C296.119121,73.981376 296.310047,74.9728504 296.691905,75.6651065 C297.073762,76.3573626 297.621976,76.7034854 298.336563,76.7034854 Z M303.541856,70.5803995 L303.541856,70.5870987 L304.70752,70.5870987 L304.70752,70.5803995 C304.70752,70.0087299 304.881698,69.5498381 305.230059,69.20371 C305.57842,68.857582 306.036195,68.6845206 306.603399,68.6845206 C307.134873,68.6845206 307.582599,68.8486498 307.946592,69.1769131 C308.310585,69.5051765 308.492579,69.9104752 308.492579,70.3928213 C308.492579,70.781378 308.390975,71.1509479 308.187764,71.5015421 C307.984553,71.8521363 307.570323,72.3668544 306.945059,73.045712 L303.602149,76.6967862 L303.602149,77.5274893 L309.859219,77.5274893 L309.859219,76.4422159 L305.330547,76.4422159 L305.330547,76.3350284 L307.655176,73.8362198 C308.450154,72.9831817 308.989436,72.3132665 309.273037,71.8264542 C309.556639,71.3396418 309.698438,70.8461377 309.698438,70.3459268 C309.698438,69.5777459 309.404792,68.9335108 308.817491,68.4132022 C308.23019,67.8928936 307.503332,67.6327432 306.636895,67.6327432 C305.739195,67.6327432 304.998939,67.9096415 304.416104,68.4634463 C303.833269,69.0172512 303.541856,69.7228952 303.541856,70.5803995 Z" id="102" fill="#182359"></path>
                        <path d="M328.744318,29.7571865 L333.175236,25.497335 C333.239247,25.4334373 334.803937,24.006387 334.803937,22.3024465 C334.803937,20.222219 333.530848,18.9797623 331.404292,18.9797623 C330.159652,18.9797623 328.993246,19.9595282 328.43138,20.5133088 C327.869514,19.9595282 326.703109,18.9797623 325.458469,18.9797623 C323.331912,18.9797623 322.058824,20.222219 322.058824,22.3024465 C322.058824,24.006387 323.623514,25.4334373 323.680412,25.4831355 L328.118442,29.7571865 C328.203789,29.8423835 328.317584,29.884982 328.43138,29.884982 C328.545176,29.884982 328.658971,29.8423835 328.744318,29.7571865 Z" id="-" fill="#FB366E"></path>
                        <path d="M328.744318,78.6908064 L333.175236,74.4309549 C333.239247,74.3670571 334.803937,72.9400069 334.803937,71.2360663 C334.803937,69.1558389 333.530848,67.9133822 331.404292,67.9133822 C330.159652,67.9133822 328.993246,68.893148 328.43138,69.4469287 C327.869514,68.893148 326.703109,67.9133822 325.458469,67.9133822 C323.331912,67.9133822 322.058824,69.1558389 322.058824,71.2360663 C322.058824,72.9400069 323.623514,74.3670571 323.680412,74.4167554 L328.118442,78.6908064 C328.203789,78.7760034 328.317584,78.8186019 328.43138,78.8186019 C328.545176,78.8186019 328.658971,78.7760034 328.744318,78.6908064 Z" id="--copy" fill="#FB366E"></path>
                        <path d="M300.624727,126.461109 L300.624727,124.458043 L295.915176,124.458043 L295.915176,123.359371 C296.129552,122.97528 296.38412,122.539836 296.678887,122.053023 C296.973654,121.566211 297.299679,121.041444 297.656973,120.478707 C298.014266,119.91597 298.395001,119.324211 298.799189,118.703414 C299.203378,118.082617 299.622075,117.446197 300.055293,116.794137 L301.803789,116.794137 L301.803789,123.379469 L303.177129,123.379469 L303.177129,124.458043 L301.803789,124.458043 L301.803789,126.461109 L300.624727,126.461109 Z M297.147832,123.305777 L297.147832,123.386168 L300.631426,123.386168 L300.631426,117.912906 L300.551035,117.912906 C300.305396,118.274666 300.044129,118.666566 299.767227,119.088619 C299.490324,119.510672 299.204494,119.952816 298.909727,120.415064 C298.614959,120.877313 298.320197,121.351836 298.02543,121.838648 C297.730663,122.325461 297.438133,122.814499 297.147832,123.305777 Z M304.851934,119.514019 L304.851934,119.520719 L306.017598,119.520719 L306.017598,119.514019 C306.017598,118.94235 306.191776,118.483458 306.540137,118.13733 C306.888498,117.791202 307.346273,117.61814 307.913477,117.61814 C308.444951,117.61814 308.892677,117.78227 309.25667,118.110533 C309.620663,118.438796 309.802656,118.844095 309.802656,119.326441 C309.802656,119.714998 309.701052,120.084568 309.497842,120.435162 C309.294631,120.785756 308.8804,121.300474 308.255137,121.979332 L304.912227,125.630406 L304.912227,126.461109 L311.169297,126.461109 L311.169297,125.375836 L306.640625,125.375836 L306.640625,125.268648 L308.965254,122.76984 C309.760232,121.916802 310.299514,121.246886 310.583115,120.760074 C310.866717,120.273262 311.008516,119.779758 311.008516,119.279547 C311.008516,118.511366 310.714869,117.867131 310.127568,117.346822 C309.540267,116.826513 308.813409,116.566363 307.946973,116.566363 C307.049273,116.566363 306.309017,116.843261 305.726182,117.397066 C305.143347,117.950871 304.851934,118.656515 304.851934,119.514019 Z" id="42" fill="#182359"></path>
                        <path d="M328.744318,127.624426 L333.175236,123.364575 C333.239247,123.300677 334.803937,121.873627 334.803937,120.169686 C334.803937,118.089459 333.530848,116.847002 331.404292,116.847002 C330.159652,116.847002 328.993246,117.826768 328.43138,118.380549 C327.869514,117.826768 326.703109,116.847002 325.458469,116.847002 C323.331912,116.847002 322.058824,118.089459 322.058824,120.169686 C322.058824,121.873627 323.623514,123.300677 323.680412,123.350375 L328.118442,127.624426 C328.203789,127.709623 328.317584,127.752222 328.43138,127.752222 C328.545176,127.752222 328.658971,127.709623 328.744318,127.624426 Z" id="--copy-2" fill="#FB366E"></path>
                        <path d="M297.990949,175.394729 L299.196808,175.394729 L299.196808,165.727756 L297.997648,165.727756 L297.609093,166.005774 C297.350055,166.19112 297.050827,166.406609 296.711398,166.652249 C296.371969,166.897888 296.07274,167.113377 295.813703,167.298723 L295.425148,167.576741 L295.425148,168.849592 L295.796954,168.581624 C296.044827,168.402977 296.330657,168.195303 296.654454,167.958596 C296.978252,167.721889 297.264082,167.514216 297.511954,167.335569 L297.883761,167.0676 L297.990949,167.0676 L297.990949,175.394729 Z M302.35214,175.394729 L303.618292,175.394729 L307.919191,166.846526 L307.919191,165.727756 L301.521437,165.727756 L301.521437,166.806331 L306.693234,166.806331 L306.693234,166.90012 L306.37837,167.513098 C306.168461,167.921753 305.899378,168.448753 305.571115,169.094114 C305.242851,169.739475 304.893379,170.423905 304.522687,171.147424 C304.151995,171.870944 303.802523,172.555374 303.474259,173.200735 C303.145996,173.846096 302.876913,174.373096 302.667003,174.781751 L302.35214,175.394729 Z" id="17" fill="#182359"></path>
                        <path d="M328.744318,176.558046 L333.175236,172.298195 C333.239247,172.234297 334.803937,170.807247 334.803937,169.103306 C334.803937,167.023079 333.530848,165.780622 331.404292,165.780622 C330.159652,165.780622 328.993246,166.760388 328.43138,167.314168 C327.869514,166.760388 326.703109,165.780622 325.458469,165.780622 C323.331912,165.780622 322.058824,167.023079 322.058824,169.103306 C322.058824,170.807247 323.623514,172.234297 323.680412,172.283995 L328.118442,176.558046 C328.203789,176.643243 328.317584,176.685842 328.43138,176.685842 C328.545176,176.685842 328.658971,176.643243 328.744318,176.558046 Z" id="--copy-3" fill="#FB366E"></path>
                        <path d="M190.71126,74.731646 L190.71126,73.5525835 L186.792217,73.5525835 L186.792217,74.61106 L189.5121,74.61106 L189.5121,74.8455327 C189.5121,75.6628415 189.24525,76.3238244 188.711543,76.8285014 C188.177836,77.3331784 187.477775,77.5855132 186.611338,77.5855132 C185.64218,77.5855132 184.875127,77.2315746 184.310156,76.523687 C183.745186,75.8157993 183.462705,74.852238 183.462705,73.6329741 C183.462705,72.4315749 183.747419,71.4735962 184.316856,70.7590093 C184.886292,70.0444223 185.648879,69.6871343 186.604639,69.6871343 C187.323692,69.6871343 187.922149,69.8568461 188.400029,70.1962749 C188.877909,70.5357037 189.219566,71.0314409 189.42501,71.6835014 L190.650967,71.6835014 C190.476786,70.7232753 190.026827,69.9651546 189.301074,69.4091167 C188.575322,68.8530787 187.676519,68.5750639 186.604639,68.5750639 C185.282653,68.5750639 184.221954,69.0361889 183.42251,69.9584526 C182.623066,70.8807163 182.22335,72.1055446 182.22335,73.6329741 C182.22335,75.1782683 182.619716,76.4086792 183.412461,77.3242436 C184.205206,78.2398081 185.269255,78.6975835 186.604639,78.6975835 C187.841767,78.6975835 188.835475,78.3347128 189.585791,77.6089604 C190.336107,76.8832081 190.71126,75.9241129 190.71126,74.731646 Z M195.534697,78.5970952 C194.507479,78.5970952 193.695765,78.2632541 193.099531,77.595562 C192.503298,76.9278698 192.205186,76.0156687 192.205186,74.8589311 C192.205186,73.6977274 192.503298,72.7844097 193.099531,72.1189507 C193.695765,71.4534916 194.507479,71.1207671 195.534697,71.1207671 C196.561916,71.1207671 197.37363,71.4534916 197.969863,72.1189507 C198.566097,72.7844097 198.864209,73.6977274 198.864209,74.8589311 C198.864209,76.0156687 198.566097,76.9278698 197.969863,77.595562 C197.37363,78.2632541 196.561916,78.5970952 195.534697,78.5970952 Z M195.534697,77.5587163 C196.218021,77.5587163 196.745021,77.3220129 197.115713,76.8485991 C197.486405,76.3751853 197.671748,75.7119692 197.671748,74.8589311 C197.671748,74.0014268 197.486405,73.3370943 197.115713,72.8659136 C196.745021,72.3947328 196.218021,72.159146 195.534697,72.159146 C194.851374,72.159146 194.324374,72.3947328 193.953682,72.8659136 C193.58299,73.3370943 193.397647,74.0014268 193.397647,74.8589311 C193.397647,75.7119692 193.58299,76.3751853 193.953682,76.8485991 C194.324374,77.3220129 194.851374,77.5587163 195.534697,77.5587163 Z M203.513467,78.5970952 C202.486248,78.5970952 201.674534,78.2632541 201.078301,77.595562 C200.482068,76.9278698 200.183955,76.0156687 200.183955,74.8589311 C200.183955,73.6977274 200.482068,72.7844097 201.078301,72.1189507 C201.674534,71.4534916 202.486248,71.1207671 203.513467,71.1207671 C204.540686,71.1207671 205.3524,71.4534916 205.948633,72.1189507 C206.544866,72.7844097 206.842979,73.6977274 206.842979,74.8589311 C206.842979,76.0156687 206.544866,76.9278698 205.948633,77.595562 C205.3524,78.2632541 204.540686,78.5970952 203.513467,78.5970952 Z M203.513467,77.5587163 C204.196791,77.5587163 204.723791,77.3220129 205.094483,76.8485991 C205.465175,76.3751853 205.650518,75.7119692 205.650518,74.8589311 C205.650518,74.0014268 205.465175,73.3370943 205.094483,72.8659136 C204.723791,72.3947328 204.196791,72.159146 203.513467,72.159146 C202.830143,72.159146 202.303143,72.3947328 201.932451,72.8659136 C201.561759,73.3370943 201.376416,74.0014268 201.376416,74.8589311 C201.376416,75.7119692 201.561759,76.3751853 201.932451,76.8485991 C202.303143,77.3220129 202.830143,77.5587163 203.513467,77.5587163 Z M211.445342,77.3443413 C212.115267,77.3443413 212.640034,77.1087544 213.019658,76.6375737 C213.399283,76.166393 213.589092,75.5377892 213.589092,74.7517436 C213.589092,73.965698 213.398166,73.3370943 213.016309,72.8659136 C212.634451,72.3947328 212.110801,72.159146 211.445342,72.159146 C210.775417,72.159146 210.259582,72.3947328 209.897822,72.8659136 C209.536063,73.3370943 209.355186,73.965698 209.355186,74.7517436 C209.355186,75.5377892 209.536063,76.166393 209.897822,76.6375737 C210.259582,77.1087544 210.775417,77.3443413 211.445342,77.3443413 Z M211.498936,81.2432866 C210.628033,81.2432866 209.927972,81.063526 209.398731,80.7039995 C208.86949,80.344473 208.560212,79.8654836 208.470889,79.2670171 L209.690147,79.2670171 C209.752673,79.5617842 209.940249,79.797371 210.252881,79.9737846 C210.565513,80.1501983 210.98086,80.2384038 211.498936,80.2384038 C212.14653,80.2384038 212.652316,80.0876729 213.016309,79.7862065 C213.380301,79.4847402 213.562295,79.0682762 213.562295,78.5368022 L213.562295,77.1165678 L213.455108,77.1165678 C213.227333,77.5140568 212.916939,77.8211013 212.523916,78.0377104 C212.130893,78.2543196 211.686516,78.3626225 211.190772,78.3626225 C210.257343,78.3626225 209.519319,78.0310145 208.97668,77.3677886 C208.43404,76.7045626 208.162725,75.8325563 208.162725,74.7517436 C208.162725,73.6709309 208.435157,72.7955751 208.980029,72.1256499 C209.524902,71.4557247 210.261809,71.1207671 211.190772,71.1207671 C211.695449,71.1207671 212.156574,71.2357692 212.57416,71.4657768 C212.991747,71.6957845 213.303258,72.005062 213.508701,72.3936186 L213.615889,72.3936186 L213.615889,71.2480522 L214.714561,71.2480522 L214.714561,78.5970952 C214.714561,79.4054716 214.425381,80.0485902 213.847012,80.5264702 C213.268643,81.0043502 212.485959,81.2432866 211.498936,81.2432866 Z M216.824815,78.46981 L217.97708,78.46981 L217.97708,68.3807866 L216.824815,68.3807866 L216.824815,78.46981 Z M222.967998,72.1390483 C222.391863,72.1390483 221.918456,72.3333237 221.547764,72.7218803 C221.177072,73.110437 220.969398,73.6240386 220.924737,74.2627007 L224.904072,74.2627007 C224.890674,73.6240386 224.707564,73.110437 224.354737,72.7218803 C224.001909,72.3333237 223.539668,72.1390483 222.967998,72.1390483 Z M224.870576,76.600728 L226.022842,76.600728 C225.848661,77.2215254 225.495839,77.7094469 224.964365,78.0645073 C224.432891,78.4195677 223.771908,78.5970952 222.981397,78.5970952 C221.980975,78.5970952 221.188242,78.2610211 220.603174,77.5888628 C220.018106,76.9167045 219.725576,76.0089694 219.725576,74.8656303 C219.725576,73.7312236 220.020339,72.8234886 220.609873,72.1423979 C221.199407,71.4613073 221.989907,71.1207671 222.981397,71.1207671 C223.955021,71.1207671 224.720958,71.4456759 225.279229,72.0955034 C225.8375,72.7453309 226.116631,73.6307354 226.116631,74.7517436 L226.116631,75.1938921 L220.924737,75.1938921 L220.924737,75.2474858 C220.956,75.9620727 221.158091,76.5292676 221.531016,76.9490874 C221.903941,77.3689072 222.396329,77.5788139 223.008194,77.5788139 C223.472675,77.5788139 223.861226,77.4950745 224.173858,77.3275932 C224.486489,77.1601119 224.718727,76.9178259 224.870576,76.600728 Z" id="Google" fill="#182359"></path>
                        <path d="M188.882373,126.424758 L188.73499,126.006056 C188.636735,125.726921 188.523966,125.405362 188.39668,125.041369 C188.269394,124.677376 188.156625,124.355817 188.058369,124.076681 L187.910987,123.65798 L184.065635,123.65798 L183.094248,126.424758 L181.828096,126.424758 L185.39208,116.757785 L186.584541,116.757785 L190.148526,126.424758 L188.882373,126.424758 Z M185.934717,118.318703 L185.780635,118.754152 C185.677913,119.044453 185.551746,119.403974 185.402129,119.832726 L184.953281,121.118976 C184.803665,121.547728 184.677497,121.90725 184.574776,122.19755 L184.420694,122.633 L187.555928,122.633 L186.041904,118.318703 L185.934717,118.318703 Z M191.56876,126.424758 L192.721026,126.424758 L192.721026,121.949679 C192.721026,121.440536 192.881805,121.007324 193.203369,120.650031 C193.524933,120.292738 193.922416,120.114093 194.39583,120.114093 C194.851379,120.114093 195.216483,120.241377 195.491153,120.495949 C195.765822,120.750521 195.903154,121.092177 195.903154,121.520929 L195.903154,126.424758 L197.05542,126.424758 L197.05542,121.782199 C197.05542,121.322184 197.209501,120.929167 197.517666,120.603136 C197.825832,120.277106 198.230014,120.114093 198.730225,120.114093 C199.239368,120.114093 199.620103,120.245843 199.872442,120.509347 C200.12478,120.772851 200.250947,121.170334 200.250947,121.701808 L200.250947,126.424758 L201.403213,126.424758 L201.403213,121.43384 C201.403213,120.674591 201.204472,120.091765 200.806983,119.685343 C200.409494,119.278922 199.842299,119.075715 199.105381,119.075715 C198.60517,119.075715 198.160793,119.190717 197.772237,119.420724 C197.38368,119.650732 197.09115,119.957776 196.894639,120.341867 L196.787451,120.341867 C196.622203,119.966709 196.370985,119.661897 196.033789,119.427424 C195.696594,119.19295 195.282363,119.075715 194.791084,119.075715 C194.308738,119.075715 193.893391,119.186251 193.545029,119.407326 C193.196668,119.628401 192.939868,119.939912 192.774619,120.341867 L192.667432,120.341867 L192.667432,119.203 L191.56876,119.203 L191.56876,126.424758 Z M205.603623,125.540461 C206.197624,125.540461 206.690011,125.367399 207.080801,125.021271 C207.471591,124.675143 207.666983,124.245281 207.666983,123.731672 L207.666983,123.068449 L205.724209,123.195734 C204.670193,123.267193 204.143194,123.66021 204.143194,124.374797 C204.143194,124.741022 204.281643,125.026853 204.558545,125.232297 C204.835448,125.43774 205.183803,125.540461 205.603623,125.540461 Z M205.389248,126.552043 C204.68806,126.552043 204.10635,126.358884 203.644102,125.97256 C203.181853,125.586237 202.950733,125.062586 202.950733,124.401593 C202.950733,123.079608 203.828321,122.367265 205.583526,122.264543 L207.666983,122.137258 L207.666983,121.480734 C207.666983,120.560703 207.122118,120.100695 206.032373,120.100695 C205.599155,120.100695 205.239634,120.178852 204.953799,120.335168 C204.667964,120.491484 204.484854,120.712556 204.404463,120.99839 L203.238799,120.99839 C203.314724,120.417788 203.613953,119.952197 204.136494,119.601603 C204.659036,119.251009 205.304388,119.075715 206.072569,119.075715 C206.952404,119.075715 207.630135,119.288971 208.105781,119.71549 C208.581428,120.142009 208.819248,120.730418 208.819248,121.480734 L208.819248,126.424758 L207.720576,126.424758 L207.720576,125.359582 L207.613389,125.359582 C207.381148,125.743672 207.072987,126.038435 206.688897,126.243879 C206.304806,126.449322 205.871594,126.552043 205.389248,126.552043 Z M210.654834,126.424758 L216.215186,126.424758 L216.215186,125.46007 L212.048272,125.46007 L212.048272,125.352883 L216.195088,120.067199 L216.195088,119.203 L210.661533,119.203 L210.661533,120.167687 L214.821748,120.167687 L214.821748,120.274875 L210.654834,125.580656 L210.654834,126.424758 Z M220.857744,126.552043 C219.830526,126.552043 219.018812,126.218202 218.422578,125.550509 C217.826345,124.882817 217.528233,123.970616 217.528233,122.813879 C217.528233,121.652675 217.826345,120.739357 218.422578,120.073898 C219.018812,119.408439 219.830526,119.075715 220.857744,119.075715 C221.884963,119.075715 222.696677,119.408439 223.29291,120.073898 C223.889144,120.739357 224.187256,121.652675 224.187256,122.813879 C224.187256,123.970616 223.889144,124.882817 223.29291,125.550509 C222.696677,126.218202 221.884963,126.552043 220.857744,126.552043 Z M220.857744,125.513664 C221.541068,125.513664 222.068068,125.27696 222.43876,124.803547 C222.809452,124.330133 222.994795,123.666917 222.994795,122.813879 C222.994795,121.956374 222.809452,121.292042 222.43876,120.820861 C222.068068,120.34968 221.541068,120.114093 220.857744,120.114093 C220.174421,120.114093 219.647421,120.34968 219.276729,120.820861 C218.906037,121.292042 218.720694,121.956374 218.720694,122.813879 C218.720694,123.666917 218.906037,124.330133 219.276729,124.803547 C219.647421,125.27696 220.174421,125.513664 220.857744,125.513664 Z M225.86876,126.424758 L227.021026,126.424758 L227.021026,122.150656 C227.021026,121.51646 227.19297,121.01849 227.536865,120.65673 C227.88076,120.294971 228.340769,120.114093 228.916904,120.114093 C229.49304,120.114093 229.920669,120.270407 230.199805,120.583039 C230.47894,120.895671 230.618506,121.378009 230.618506,122.03007 L230.618506,126.424758 L231.770772,126.424758 L231.770772,121.748703 C231.770772,120.891199 231.553049,120.231332 231.117598,119.769084 C230.682146,119.306835 230.058009,119.075715 229.245166,119.075715 C228.691361,119.075715 228.236936,119.187367 227.881875,119.410675 C227.526815,119.633984 227.257732,119.944378 227.074619,120.341867 L226.967432,120.341867 L226.967432,119.203 L225.86876,119.203 L225.86876,126.424758 Z" id="Amazon" fill="#182359"></path>
                        <path d="M188.882373,176.33705 L188.73499,175.918349 C188.636735,175.639213 188.523966,175.317654 188.39668,174.953661 C188.269394,174.589668 188.156625,174.268109 188.058369,173.988974 L187.910987,173.570272 L184.065635,173.570272 L183.094248,176.33705 L181.828096,176.33705 L185.39208,166.670077 L186.584541,166.670077 L190.148526,176.33705 L188.882373,176.33705 Z M185.934717,168.230995 L185.780635,168.666444 C185.677913,168.956745 185.551746,169.316266 185.402129,169.745019 L184.953281,171.031269 C184.803665,171.460021 184.677497,171.819542 184.574776,172.109843 L184.420694,172.545292 L187.555928,172.545292 L186.041904,168.230995 L185.934717,168.230995 Z M195.08585,168.988007 C196.00588,168.988007 196.741671,169.327431 197.293242,170.006288 C197.844814,170.685146 198.120596,171.591764 198.120596,172.726171 C198.120596,173.856111 197.844814,174.761613 197.293242,175.442704 C196.741671,176.123795 196.00588,176.464335 195.08585,176.464335 C194.57224,176.464335 194.116698,176.357149 193.719209,176.142772 C193.32172,175.928396 193.024724,175.631401 192.828213,175.251776 L192.721026,175.251776 L192.721026,178.748769 L191.56876,178.748769 L191.56876,169.115292 L192.667432,169.115292 L192.667432,170.321151 L192.774619,170.321151 C193.00686,169.905798 193.327303,169.579772 193.735957,169.343065 C194.144612,169.106359 194.594571,168.988007 195.08585,168.988007 Z M194.811182,175.425956 C195.476641,175.425956 195.995825,175.18702 196.36875,174.70914 C196.741675,174.23126 196.928135,173.570277 196.928135,172.726171 C196.928135,171.882065 196.741675,171.221082 196.36875,170.743202 C195.995825,170.265322 195.478874,170.026386 194.817881,170.026386 C194.16582,170.026386 193.647753,170.268672 193.263662,170.753251 C192.879572,171.23783 192.687529,171.895464 192.687529,172.726171 C192.687529,173.552412 192.879572,174.208929 193.263662,174.695741 C193.647753,175.182554 194.163587,175.425956 194.811182,175.425956 Z M203.31919,168.988007 C204.23922,168.988007 204.97501,169.327431 205.526582,170.006288 C206.078154,170.685146 206.353936,171.591764 206.353936,172.726171 C206.353936,173.856111 206.078154,174.761613 205.526582,175.442704 C204.97501,176.123795 204.23922,176.464335 203.31919,176.464335 C202.80558,176.464335 202.350038,176.357149 201.952549,176.142772 C201.55506,175.928396 201.258064,175.631401 201.061553,175.251776 L200.954365,175.251776 L200.954365,178.748769 L199.8021,178.748769 L199.8021,169.115292 L200.900772,169.115292 L200.900772,170.321151 L201.007959,170.321151 C201.2402,169.905798 201.560643,169.579772 201.969297,169.343065 C202.377951,169.106359 202.827911,168.988007 203.31919,168.988007 Z M203.044522,175.425956 C203.709981,175.425956 204.229165,175.18702 204.60209,174.70914 C204.975015,174.23126 205.161475,173.570277 205.161475,172.726171 C205.161475,171.882065 204.975015,171.221082 204.60209,170.743202 C204.229165,170.265322 203.712214,170.026386 203.051221,170.026386 C202.39916,170.026386 201.881093,170.268672 201.497002,170.753251 C201.112912,171.23783 200.920869,171.895464 200.920869,172.726171 C200.920869,173.552412 201.112912,174.208929 201.497002,174.695741 C201.881093,175.182554 202.396927,175.425956 203.044522,175.425956 Z M208.102432,176.33705 L209.254697,176.33705 L209.254697,166.248026 L208.102432,166.248026 L208.102432,176.33705 Z M214.245615,170.006288 C213.66948,170.006288 213.196073,170.200563 212.825381,170.58912 C212.454689,170.977677 212.247015,171.491278 212.202354,172.12994 L216.18169,172.12994 C216.168291,171.491278 215.985181,170.977677 215.632354,170.58912 C215.279526,170.200563 214.817285,170.006288 214.245615,170.006288 Z M216.148194,174.467968 L217.300459,174.467968 C217.126279,175.088765 216.773457,175.576687 216.241983,175.931747 C215.710509,176.286807 215.049526,176.464335 214.259014,176.464335 C213.258592,176.464335 212.465859,176.128261 211.880791,175.456103 C211.295723,174.783944 211.003194,173.876209 211.003194,172.73287 C211.003194,171.598463 211.297956,170.690728 211.88749,170.009638 C212.477025,169.328547 213.267525,168.988007 214.259014,168.988007 C215.232639,168.988007 215.998575,169.312916 216.556846,169.962743 C217.115117,170.612571 217.394248,171.497975 217.394248,172.618983 L217.394248,173.061132 L212.202354,173.061132 L212.202354,173.114726 C212.233617,173.829312 212.435708,174.396507 212.808633,174.816327 C213.181558,175.236147 213.673946,175.446054 214.285811,175.446054 C214.750292,175.446054 215.138843,175.362314 215.451475,175.194833 C215.764107,175.027352 215.996344,174.785066 216.148194,174.467968 Z" id="Apple" fill="#182359"></path>
                        <ellipse id="Oval-286" fill="#2DDE98" cx="25" cy="25.0615241" rx="12.254902" ry="12.233405"></ellipse>
                        <ellipse id="Oval-286-Copy" fill="#2DDE98" cx="25" cy="72.6752405" rx="12.254902" ry="12.233405"></ellipse>
                        <ellipse id="Oval-286-Copy-2" fill="#2DDE98" cx="25" cy="120.630188" rx="12.254902" ry="12.233405"></ellipse>
                        <ellipse id="Oval-286-Copy-3" fill="#2DDE98" cx="25" cy="170.54248" rx="12.254902" ry="12.233405"></ellipse>
                    </g>
                </g>
            </g>
        </g>
    </g>
</svg>