<svg id="Layer_1" xmlns="http://www.w3.org/2000/svg" viewBox="0 0 69 69"><style>.st0{fill:url(#SVGID_1_)}</style><linearGradient id="SVGID_1_" gradientUnits="userSpaceOnUse" x1="9.682" y1="53.439" x2="55.118" y2="8.004"><stop offset="0" stop-color="#2751af"/><stop offset="1" stop-color="#32c0f9"/></linearGradient><path class="st0" d="M12.8 46h41.6c.4 0 .8-.2.9-.6l10.4-25.9c.1-.3.1-.7-.1-.9-.2-.3-.5-.4-.8-.4H14.4v-.6C14.4 12 9.8 7.4 4.2 7.4c-.6 0-1 .4-1 1s.4 1 1 1c4.5 0 8.2 3.7 8.2 8.2V44c-2.5.2-4.4 2.3-4.4 4.8 0 2.6 2.2 4.8 4.8 4.8h.3c0 .3-.1.5-.1.8 0 3.1 2.6 5.7 5.7 5.7s5.7-2.6 5.7-5.7c0-.3 0-.6-.1-.9h22.8c0 .3-.1.6-.1.9 0 3.1 2.6 5.7 5.7 5.7s5.7-2.6 5.7-5.7-2.6-5.7-5.7-5.7c-2.1 0-3.9 1.1-4.9 2.8H23.6c-1-1.7-2.8-2.8-4.9-2.8-2.1 0-4 1.2-5 2.9h-.9c-1.5 0-2.8-1.3-2.8-2.8s1.3-2.8 2.8-2.8zm50.5-25.9L53.7 44H14.4V20.1h48.9zM52.7 50.7c2 0 3.7 1.7 3.7 3.7s-1.7 3.7-3.7 3.7-3.7-1.7-3.7-3.7 1.7-3.7 3.7-3.7zm-34 0c2 0 3.7 1.7 3.7 3.7s-1.7 3.7-3.7 3.7-3.7-1.7-3.7-3.7c0-.4.1-.7.2-1.1.2-.2.3-.4.3-.7.6-1.1 1.8-1.9 3.2-1.9z"/></svg>