<svg id="Layer_1" xmlns="http://www.w3.org/2000/svg" viewBox="0 0 15073.9 4399.9"><style>.st0{opacity:.1;fill:#15117c}.st1{opacity:.15}.st2{fill:url(#SVGID_1_)}.st3{fill:url(#SVGID_2_)}.st4{fill:url(#SVGID_3_)}.st5{opacity:.5}.st6{fill:#fff}.st7{fill:#0b38ff}.st7,.st8{opacity:.2}.st9{fill:url(#SVGID_4_)}.st10{fill:url(#SVGID_5_)}.st11{fill:url(#SVGID_6_)}.st12{fill:#201c38}.st13{opacity:.75;fill:#fff}.st14{fill:url(#SVGID_7_)}.st15{fill:#3d386b}.st16{fill:#5a578e}.st17{fill:url(#SVGID_8_)}.st18{fill:url(#SVGID_9_)}.st19{fill:url(#SVGID_10_)}.st20{fill:#d7d7f4}.st21{fill:url(#SVGID_11_)}.st22{fill:url(#SVGID_12_)}.st23{fill:url(#SVGID_13_)}.st24{fill:url(#SVGID_14_)}.st25{fill:url(#SVGID_15_)}.st26{fill:url(#SVGID_16_)}.st27{fill:url(#SVGID_17_)}.st28{fill:url(#SVGID_18_)}.st29{fill:url(#SVGID_19_)}.st30{fill:#3b3769}.st31{fill:#aaaae0}.st32{fill:#fcb43a}</style><path class="st0" d="M4440.9 1090.9l-1757.8 551.9 1757.8 551.8 1757.8-551.8z"/><g class="st1"><linearGradient id="SVGID_1_" gradientUnits="userSpaceOnUse" x1="4440.894" y1="1107.065" x2="4440.894"><stop offset="0" stop-color="#211e39" stop-opacity="0"/><stop offset="1" stop-color="#0b38ff"/></linearGradient><path class="st2" d="M4440.9 0L2677.7 553.5l1763.2 553.6 1763.2-553.6z"/><linearGradient id="SVGID_2_" gradientUnits="userSpaceOnUse" x1="4440.894" y1="1190.925" x2="6204.053" y2="1190.925"><stop offset="0" stop-color="#211e39" stop-opacity="0"/><stop offset="1" stop-color="#0b38ff"/></linearGradient><path class="st3" d="M4440.9 1828.3l1763.2-553.5V553.5l-1763.2 553.6z"/><linearGradient id="SVGID_3_" gradientUnits="userSpaceOnUse" x1="2677.734" y1="1190.925" x2="4440.893" y2="1190.925"><stop offset="0" stop-color="#211e39" stop-opacity="0"/><stop offset="1" stop-color="#0b38ff"/></linearGradient><path class="st4" d="M4440.9 1828.3l-1763.2-553.5V553.5l1763.2 553.6z"/><g class="st5"><path class="st6" d="M4709.1 84.2l-58.5 957 130.4-40.9 122.2-855.2zM5251.8 254.6L5043 189l-123.7 767.9 158.5-49.8z"/></g></g><ellipse transform="rotate(-61.574 5343.495 1189.852)" class="st7" cx="5343.3" cy="1189.8" rx="115.1" ry="82"/><ellipse transform="rotate(-61.574 5343.495 1189.852)" class="st7" cx="5343.3" cy="1189.8" rx="74.7" ry="53.2"/><g class="st8"><linearGradient id="SVGID_4_" gradientUnits="userSpaceOnUse" x1="5313.849" y1="16031.085" x2="7087.037" y2="16031.085" gradientTransform="matrix(1 0 0 -1 0 17500.416)"><stop offset="0" stop-color="#0b38ff"/><stop offset="1" stop-color="#211e39" stop-opacity="0"/></linearGradient><path class="st9" d="M7044.8 1781.8c-4.3 0-8.6-.7-12.9-2l-1688.7-540.4c-22.2-7.1-34.4-30.9-27.3-53.1 7.1-22.2 30.9-34.5 53.1-27.3l1688.7 540.4c22.2 7.1 34.4 30.9 27.3 53.1-5.7 17.8-22.3 29.3-40.2 29.3z"/></g><path class="st0" d="M11482.9 1095l-1767.1 554.8 1767.1 554.7 1767-554.7z"/><linearGradient id="SVGID_5_" gradientUnits="userSpaceOnUse" x1="11482.895" y1="1835.312" x2="11482.895" y2="6.994"><stop offset=".239" stop-color="#3d386b"/><stop offset="1" stop-color="#211e39"/></linearGradient><path class="st10" d="M11482.9 7L9719.7 560.5l1763.2 1274.8 1763.2-1274.8z"/><linearGradient id="SVGID_6_" gradientUnits="userSpaceOnUse" x1="11482.895" y1="1197.92" x2="13246.054" y2="1197.92"><stop offset="0" stop-color="#3d386b"/><stop offset="1" stop-color="#211e39"/></linearGradient><path class="st11" d="M11482.9 1835.3l1763.2-553.5V560.5l-1763.2 553.6z"/><path class="st12" d="M11482.9 1835.3l-1763.2-553.5V560.5l1763.2 553.6z"/><path class="st13" d="M10820.9 365.5l-270.7 221.6 864.2 229 690.6-40.4 129.5-219.8-716.6-275.9z"/><path class="st6" d="M10820.9 365.5l142.5 45.5-.6-.2 650.4 207.8 491.8 157.1 129.5-219.8-716.6-275.9z"/><linearGradient id="SVGID_7_" gradientUnits="userSpaceOnUse" x1="10962.77" y1="592.597" x2="12102.1" y2="592.597"><stop offset="0" stop-color="#3d386b"/><stop offset="1" stop-color="#211e39"/></linearGradient><path class="st14" d="M10962.8 410.8l535.5 363.6 112.8-35.8-126.7-79.2L11741 578l248.3 40.6 112.8-35.8-1139.3-172zm623.2 142.8l-176.7 56.1-174.3-112 351 55.9z"/><ellipse transform="rotate(-16.57 10626.763 1196.013)" class="st15" cx="10624.8" cy="1196.1" rx="82" ry="115.1"/><ellipse transform="rotate(-16.57 10626.763 1196.013)" class="st16" cx="10624.8" cy="1196.1" rx="53.2" ry="74.7"/><linearGradient id="SVGID_8_" gradientUnits="userSpaceOnUse" x1="8910.843" y1="1480.608" x2="10650.257" y2="1480.608"><stop offset="0" stop-color="#211e39"/><stop offset="1" stop-color="#3d386b"/></linearGradient><path class="st17" d="M8953.1 1798.7c-17.7 0-34.1-11.2-40-28.9-7.4-22.1 4.6-46 26.7-53.4l1655-551.7c22.1-7.3 46 4.6 53.4 26.7 7.4 22.1-4.6 46-26.7 53.4l-1655 551.7c-4.5 1.4-9 2.2-13.4 2.2z"/><path class="st0" d="M7947.9 2192.2l-1750.1 549.4 1750.1 549.5 1750.2-549.5z"/><linearGradient id="SVGID_9_" gradientUnits="userSpaceOnUse" x1="7947.939" y1="2927.194" x2="7947.939" y2="1098.875"><stop offset=".488" stop-color="#fcfcfe"/><stop offset="1" stop-color="#ededfa"/></linearGradient><path class="st18" d="M7947.9 1098.9l-1763.1 553.5 1763.1 1274.8 1763.2-1274.8z"/><linearGradient id="SVGID_10_" gradientUnits="userSpaceOnUse" x1="7947.939" y1="2289.801" x2="9711.098" y2="2289.801"><stop offset="0" stop-color="#fcfcfe"/><stop offset=".97" stop-color="#c6c6ef"/></linearGradient><path class="st19" d="M7947.9 2927.2l1763.2-553.5v-721.3l-1763.2 553.5z"/><path class="st20" d="M7947.9 2927.2l-1763.1-553.5v-721.3l1763.1 553.5z"/><g><linearGradient id="SVGID_11_" gradientUnits="userSpaceOnUse" x1="7371.417" y1="1539.133" x2="8154.021" y2="1539.133"><stop offset="0" stop-color="#fcb43a"/><stop offset="1" stop-color="#fedd4e"/></linearGradient><path class="st21" d="M7517.7 1495.6c61-19.5 171.8-15.9 246.4 8s85.6 59.3 24.6 78.7c-61 19.5-171.8 15.9-246.4-8-74.5-23.8-85.6-59.2-24.6-78.7zm355.5 113.9c20.3-6.5 34.7-14.2 46.6-22.8l100.9 11.5 69.6 8c19.8 2.4 38.4 1.3 50.6-2.6 6.1-1.9 9.9-4 12.3-7.1 5.1-8.8-15.9-18.8-45-22.2l-69.6-8-102.2-11.9c-2.1-24.7-37.4-51.6-103.3-72.7-120.6-38.6-299.1-44.4-397.8-13s-81.8 88.9 40 127.9c122 38.9 299.3 44.4 397.9 12.9z"/><linearGradient id="SVGID_12_" gradientUnits="userSpaceOnUse" x1="7664.006" y1="1717.063" x2="8754.782" y2="1717.063"><stop offset="0" stop-color="#3d386b"/><stop offset="1" stop-color="#211e39"/></linearGradient><path class="st22" d="M8083.1 1844.4c62-19.8 51-55.2-24.6-78.7-74.6-23.9-185.3-27.5-246.4-8-61 19.5-50 54.9 24.6 78.7 74.7 23.9 185.4 27.5 246.4 8zm-182.8-133.9c77.4.7 160.2 11.7 226.3 33.5 120.6 38.6 138.4 95.7 39.8 127.1s-276 26-397.8-13c-121.8-39-139.7-96.1-41-127.5 21.4-6.8 45.7-11.4 71.4-14.8l-35.8-32.3-24.9-22.3c-9.7-9.6 4.4-18.1 31.9-19.7 28.7-1.2 58.6 5.1 69.4 14.4l24.9 22.3 35.8 32.3zm708.7-33.8c-61 19.5-171.8 15.9-246.4-8s-85.6-59.3-24.6-78.7c61-19.5 171.8-15.9 246.4 8s85.6 59.3 24.6 78.7zm-355.5-113.8c-87.5 27.9-82.6 75.6 1.8 113l-64.1 20.4-44.8 14.3c-18.3 5.8-14.9 16.7 7.5 23.8 22.4 7.2 56.3 8.3 74.6 2.4l44.8-14.3 64.1-20.4c117 27.1 266.2 28.7 353.7.8 98.7-31.5 80.8-88.5-39.8-127.1-120.6-38.6-299.1-44.4-397.8-12.9z"/></g><ellipse transform="rotate(-61.574 8856.16 2304.466)" class="st15" cx="8855.9" cy="2304.4" rx="115.1" ry="82"/><ellipse transform="rotate(-61.574 8856.16 2304.466)" class="st16" cx="8855.9" cy="2304.4" rx="74.7" ry="53.2"/><g><linearGradient id="SVGID_13_" gradientUnits="userSpaceOnUse" x1="8826.406" y1="14916.498" x2="10599.595" y2="14916.498" gradientTransform="matrix(1 0 0 -1 0 17500.416)"><stop offset="0" stop-color="#211e39"/><stop offset="1" stop-color="#3d386b"/></linearGradient><path class="st23" d="M10557.4 2896.3c-4.3 0-8.6-.7-12.9-2l-1688.7-540.4c-22.2-7.1-34.4-30.9-27.3-53.1 7.1-22.2 30.9-34.4 53.1-27.3l1688.7 540.4c22.2 7.1 34.4 30.9 27.3 53.1-5.8 17.9-22.4 29.3-40.2 29.3z"/></g><g><path class="st0" d="M11432.2 3290.3l-1767 554.8 1767 554.8 1767.1-554.8z"/><linearGradient id="SVGID_14_" gradientUnits="userSpaceOnUse" x1="11432.232" y1="4030.66" x2="11432.232" y2="2202.342"><stop offset=".25" stop-color="#3d386b"/><stop offset="1" stop-color="#211e39"/></linearGradient><path class="st24" d="M11432.2 2202.3l-1763.1 553.6 1763.1 1274.8 1763.2-1274.8z"/><linearGradient id="SVGID_15_" gradientUnits="userSpaceOnUse" x1="11432.233" y1="3393.268" x2="13195.392" y2="3393.268"><stop offset="0" stop-color="#3d386b"/><stop offset="1" stop-color="#211e39"/></linearGradient><path class="st25" d="M11432.2 4030.7l1763.2-553.6v-721.2l-1763.2 553.5z"/><path class="st12" d="M11432.2 4030.7l-1763.1-553.6v-721.2l1763.1 553.5z"/><g><path class="st6" d="M11646.1 2573.9c-17.3 2.3-34.3 4.7-51 7.3-8-3.9-16.2-7.6-24.6-11.4-135.6-60.7-285.7-96.6-391.6-90.4-101.6 5.9-156.2 50.8-151.5 115.1.5 6.3 1.5 12.7 3 19.1-13.5-.3-26.8-.5-40.2-.6-214.7-2.1-365.4 16.1-384.4 49.8-18.1 32.2 88 77.1 268.2 118.2 17.9 4.1 36 8 54.3 11.8-9.7 6.3-18.5 12.5-26.4 18.6-70.6 54.9-68.2 104.9 14.8 131.1 85.7 27.1 255.1 27.8 434 4.1 14.5-1.9 28.7-4 42.8-6.2 13 6.3 26.4 12.4 40.4 18.5 128.3 55.9 268 88.2 369.3 82.3 104.5-6.1 164.1-52.9 158.8-118.5-.4-5.2-1.3-10.6-2.6-16 21.8.5 43.5.8 65.1.9 198.8 1 336.1-16.8 354.2-48.9 18.7-33.2-91.2-80.7-275.4-122.5-14.1-3.2-28.7-6.3-43.9-9.5 4.7-3.1 9.2-6.3 13.3-9.3 79.2-58.5 80-112.6-6.9-140.1-83.4-26.6-244.1-26.6-419.7-3.4zm-542 24.3c-4-55.1 40.2-91.4 101.4-94.9 65.2-3.8 187.9 25.6 304.9 78 7.7 3.4 15 6.9 22.4 10.3-60.9 11-122.5 24.3-182.8 39.6-85.7-7.1-167.6-12.3-243-15.3-1.6-5.9-2.4-11.8-2.9-17.7zm222.7 258.7c34.5 4.3 69.3 8.4 104.2 12.3 35.6 3.9 71.3 7.6 107.1 11-42.7 10.4-85 19.5-126.4 27.2-29.4-15.7-57.9-32.7-84.9-50.5zm-139.1-43.9c-55.1-8.4-107.4-17.2-156.2-26.3 24-13.2 51.7-26.6 82.7-39.9 10.7 11.1 22.2 22.2 34.5 33.3 12.2 10.9 25.2 21.9 39 32.9zm95.6 13.6c-22.8-16.8-43.7-33.7-62.6-50.8-19-17.1-36-34.2-51-51.5 31-11.9 64.4-23.5 99.9-34.8 35.6-11.3 72.3-21.9 109.6-31.8 54.1 4.8 108.1 10.1 161.7 16.1 53.9 5.9 107.3 12.4 160.5 19.4 22.6 16.9 43.5 34 62.6 51.1 19 17.1 36.3 34.2 51.9 51.4-31.2 11.8-64.9 23.4-100.8 34.9-35.8 11.4-71.9 22-108 31.8-54.7-4.7-109.2-10.1-163.4-16.1-53.8-5.9-107.3-12.5-160.4-19.7zm552.8-86.4c-12.6-11.3-25.9-22.6-39.9-33.8 57.5 8.4 111.3 17.2 160.3 26.2-24.2 13.5-52.8 27.3-85.2 41-11.2-11.1-22.9-22.3-35.2-33.4zm-177.3-77c-34.9-4.3-69.9-8.4-105-12.3-34.6-3.8-69.3-7.4-104.1-10.8 42.2-9.9 84.8-18.7 126.8-26.3 28.3 15.3 55.9 31.8 82.3 49.4zm-544.1-23c52.2 2.1 107.8 5.4 165.9 9.6-47.8 13.6-93.1 28-135.9 43.1-13.1-18.3-23.2-35.9-30-52.7zm-433.2 30.8c11.7-20.7 134.9-35.6 320.2-33.8 11.9.1 24 .3 36.4.6 9.7 24.3 25.9 50.3 47.9 77.3-48 19.1-90 38.6-124.6 57.8-17-3.5-33.9-7.2-50.5-11-154.5-35.2-240.4-71.5-229.4-90.9zm668 247c-12.8 2-25.8 3.9-39.1 5.6-79.1 10.5-155.3 15.7-219.7 15.5-57.9-.3-101.5-4.9-125.2-12.4-50.3-15.9-52.2-56.1 8.2-103 7.6-5.9 15.8-11.7 24.5-17.3 70.7 13.2 148.4 25.9 230.7 37.5 37.5 26.4 78.2 51.4 120.6 74.1zm535.3.7c2.3 29-9.1 53.7-31.7 71.6-20.3 16-48.1 25.1-76.9 26.8-61.4 3.6-173.6-22.4-283.4-70.2-13-5.7-25.5-11.4-37.6-17.2 59.6-11 120.7-24.7 181.8-40.7 85.6 6.9 168.5 12 245.3 15.1 1.4 4.8 2.1 9.7 2.5 14.6zm-10.6-39c-53.5-2.2-110.1-5.4-168.8-9.5 23-6.6 46-13.6 68.8-20.9 23.4-7.4 45.9-15 67.5-22.6 14.3 18.7 25.1 36.5 32.5 53zm380.3-68.7c37.6 16.2 53.4 30 48.3 39.1-10.9 19.5-121.3 33.7-291.3 32.9-19.5-.1-39.7-.4-60.6-.9-10.2-23.8-27.5-49.8-50.9-77.2 49.6-19.5 92.5-39.3 126.7-58.6 13.8 2.9 27 5.7 39.7 8.6 81.4 18.6 146.2 38 188.1 56.1zm-253.5-106.7c-3.8 2.8-7.8 5.6-12 8.4-69.9-12.9-148.5-25.3-233.4-37-36.5-26.1-75.8-50.5-116.8-72.4 15.8-2.5 31.6-4.7 47.1-6.8 150.4-19.9 280.4-19.8 330.6-4 53.6 17.1 52.9 61.3-15.5 111.8z"/><path class="st6" d="M11368.9 2721c56.7-18 157.9-15.1 226.1 6.5s77.6 53.7 20.9 71.7c-56.7 18-157.9 15.1-226.1-6.5-68.3-21.6-77.6-53.7-20.9-71.7"/></g></g><ellipse transform="rotate(-16.57 7016.492 2285.548)" class="st15" cx="7015.2" cy="2285.4" rx="82" ry="115.1"/><ellipse transform="rotate(-16.57 7016.492 2285.548)" class="st16" cx="7015.2" cy="2285.4" rx="53.2" ry="74.7"/><g><linearGradient id="SVGID_16_" gradientUnits="userSpaceOnUse" x1="5296.961" y1="2571.926" x2="7040.597" y2="2571.926"><stop offset="0" stop-color="#fcb43a"/><stop offset="1" stop-color="#fedd4e"/></linearGradient><path class="st26" d="M5339.2 2892.1c-17.7 0-34.1-11.2-40-28.8-7.4-22.1 4.5-46 26.6-53.4L6985 2254c22.1-7.5 46 4.5 53.4 26.6 7.4 22.1-4.5 46-26.6 53.4l-1659.2 555.9c-4.4 1.5-9 2.2-13.4 2.2z"/></g><ellipse transform="rotate(-16.57 5323.256 2851.425)" class="st15" cx="5322.2" cy="2851.1" rx="82" ry="115.1"/><ellipse transform="rotate(-16.57 5323.256 2851.425)" class="st16" cx="5322.2" cy="2851.1" rx="53.2" ry="74.7"/><g><path class="st0" d="M4424 3286.3l-1757.8 551.8L4424 4390l1757.8-551.9z"/><linearGradient id="SVGID_17_" gradientUnits="userSpaceOnUse" x1="4424.006" y1="4023.666" x2="4424.006" y2="2195.348"><stop offset=".359" stop-color="#ffef8f"/><stop offset="1" stop-color="#fece5b"/></linearGradient><path class="st27" d="M4424 2195.3l-1763.2 553.6L4424 4023.7l1763.2-1274.8z"/><linearGradient id="SVGID_18_" gradientUnits="userSpaceOnUse" x1="4424.007" y1="3386.273" x2="6187.165" y2="3386.273"><stop offset="0" stop-color="#ffef8f"/><stop offset="1" stop-color="#fece5b"/></linearGradient><path class="st28" d="M4424 4023.7l1763.2-553.6v-721.2L4424 3302.4z"/><linearGradient id="SVGID_19_" gradientUnits="userSpaceOnUse" x1="2660.847" y1="3386.273" x2="4424.005" y2="3386.273"><stop offset="0" stop-color="#fcb43a"/><stop offset="1" stop-color="#fedd4e"/></linearGradient><path class="st29" d="M4424 4023.7l-1763.2-553.6v-721.2L4424 3302.4z"/></g><g><path class="st30" d="M13725.3 994.2l-19.2-45.7h-105.7l-19.2 45.7h-43l94.9-216.4h43l93.7 216.4h-44.5zm-110.1-81.2h76l-37.7-90.9-38.3 90.9zM13938.9 844.5c10.9 11.4 16.4 26.9 16.4 46.5v103.2h-40.5v-91.5c0-11.5-3.3-20.7-9.9-27.4-6.6-6.7-15.6-10-26.9-10-13.4.2-24 4.7-31.7 13.6-7.7 8.9-11.6 20.2-11.6 34v81.3h-40.2V828.9h40.2v30.9c11.3-21.2 31.1-32 59.3-32.5 19 0 33.9 5.7 44.9 17.2zM14151.5 828.9v149.6c0 15.7-3.6 29.3-10.7 41-7.1 11.6-17.2 20.6-30.3 26.9-13.1 6.3-28.3 9.4-45.6 9.4-25.1 0-48.4-7.3-69.9-21.9l16.1-29.1c15.7 11.5 32.9 17.3 51.6 17.3 14.8 0 26.6-3.8 35.4-11.4 8.8-7.6 13.1-18 13.1-31.2V960c-5.6 8.5-12.8 14.9-21.6 19.3-8.9 4.4-19.2 6.6-30.9 6.6-14.4 0-27.2-3.3-38.3-10-11.1-6.7-19.8-16.1-26-28.1s-9.3-25.9-9.3-41.6c0-15.5 3.1-29.1 9.3-41 6.2-11.8 14.8-21.1 26-27.7 11.1-6.6 23.9-9.9 38.3-9.9 11.5 0 21.8 2.3 30.8 6.8s16.2 10.9 21.8 19.2v-24.7h40.2zm-52.4 112.3c8.1-8.8 12.2-20.1 12.2-34.2 0-14-4.1-25.4-12.2-34.2-8.1-8.8-18.7-13.1-31.7-13.1s-23.5 4.4-31.7 13.3c-8.1 8.9-12.3 20.2-12.5 34 .2 14 4.4 25.4 12.5 34.2 8.1 8.8 18.7 13.1 31.7 13.1 13 .1 23.6-4.3 31.7-13.1zM14351.5 828.9v165.4h-40.5v-30.6c-11.1 21.4-30.3 32.1-57.5 32.1-18.5 0-33.2-5.7-43.9-17-10.7-11.3-16.1-26.8-16.1-46.4V828.9h40.5v91.8c0 11.5 3.1 20.6 9.4 27.2 6.3 6.6 15 9.9 26.1 9.9 12.8-.2 22.9-4.7 30.3-13.6 7.4-8.9 11.1-20.1 11.1-33.7v-81.6h40.6zM14403.1 764.9h40.2v229.4h-40.2V764.9zM14592.6 994.2v-20.1c-5.8 7.2-13.2 12.7-22.3 16.4-9.1 3.7-19.5 5.6-31.2 5.6-11.5 0-21.7-2.2-30.4-6.6-8.8-4.4-15.5-10.6-20.2-18.4-4.7-7.8-7.1-16.6-7.1-26.3 0-15.5 5.5-27.6 16.4-36.3 10.9-8.8 26.4-13.2 46.4-13.4h48.2v-4.3c0-9.7-3.2-17.2-9.6-22.6-6.4-5.4-15.7-8-27.8-8-15.7 0-32 5.2-49.1 15.5l-14.5-27.8c13-7.2 24.8-12.4 35.4-15.6 10.6-3.2 23-4.8 37.2-4.8 21.4 0 38.1 5.2 49.9 15.5 11.8 10.3 17.9 24.7 18.1 43.3l.3 108.2h-39.7zm-14.2-37.2c8.2-5.5 12.9-12.2 13.9-20.2V922h-41.7c-10.7 0-18.6 1.6-23.6 4.8-5.1 3.2-7.6 8.4-7.6 15.6 0 7 2.6 12.6 7.9 16.7 5.3 4.1 12.4 6.2 21.5 6.2 11.5-.1 21.4-2.8 29.6-8.3zM14740.2 836.1c9.6-5.7 20.8-8.6 33.5-8.8v38.9c-17.1-1-30.8 2.9-41 11.9s-15.3 21.1-15.3 36.3v79.8h-40.2V828.9h40.2v31.8c5.7-10.7 13.2-18.9 22.8-24.6zM14826.8 958.7c4 4.1 6 9.4 6 15.8 0 6.6-2 12-6 16.2-4 4.2-9.1 6.3-15.3 6.3-6 0-11-2.2-15-6.5s-6-9.7-6-16.1c0-6.4 2-11.6 6-15.8 4-4.1 9-6.2 15-6.2 6.2.1 11.3 2.2 15.3 6.3zM14850.4 1022.1c6.8.2 12-2 15.6-6.6 3.6-4.6 5.4-11.4 5.4-20.2V828.9h40.2v172.5c0 17.1-4.6 30.4-13.8 40-9.2 9.6-21.9 14.4-38.2 14.4-11.3 0-22-2.1-32.1-6.2l8.7-30.3c4.7 1.6 9.5 2.6 14.2 2.8zm57.2-257.5c4.3 4.5 6.5 10.3 6.5 17.3 0 6.8-2.2 12.5-6.5 17s-9.8 6.8-16.4 6.8c-6.6 0-12.1-2.3-16.4-6.8-4.3-4.5-6.5-10.2-6.5-17 0-7 2.2-12.8 6.5-17.3s9.8-6.8 16.4-6.8c6.6 0 12.1 2.3 16.4 6.8zM15032.3 862.6c-8.6-2.7-16.4-4-23.6-4-6.8 0-12.2 1.2-16.2 3.6-4 2.4-6 6-6 11 0 5.2 2.5 9.1 7.6 11.9 5 2.8 13 5.7 24 8.8 11.5 3.5 21 7 28.4 10.4s13.9 8.5 19.3 15.1c5.5 6.7 8.2 15.5 8.2 26.4 0 16.1-6.2 28.4-18.5 37.1-12.4 8.7-27.9 13-46.7 13-12.8 0-25.2-2-37.4-6s-22.5-9.7-30.9-17.2l13.9-28.1c7.4 6.4 16.3 11.4 26.6 15 10.3 3.6 20.1 5.4 29.4 5.4 7.4 0 13.3-1.3 17.8-3.9 4.4-2.6 6.6-6.4 6.6-11.6 0-5.8-2.6-10.1-7.7-13-5.2-2.9-13.5-6.1-25-9.6-11.1-3.3-20.2-6.5-27.2-9.7-7-3.2-13.1-8-18.2-14.5-5.2-6.5-7.7-15-7.7-25.5 0-16.3 5.9-28.7 17.8-37.2 11.8-8.5 26.7-12.8 44.7-12.8 10.9 0 21.7 1.5 32.3 4.6 10.6 3.1 20 7.4 28.3 13l-14.5 29.1c-8.4-4.9-16.7-8.7-25.3-11.3z"/></g><g><path class="st30" d="M13683.4 3203.1l-37.4-64c-1.7.2-4.2.3-7.7.3h-48.8v63.7h-41.4v-216.4h90.3c28 0 49.7 6.5 64.9 19.5 15.2 13 22.9 31.3 22.9 55 0 16.9-3.7 31.3-11 43.3-7.3 12-18 20.9-32 26.9l47.6 71.7h-47.4zm-94-100.2h48.8c15.7 0 27.6-3.4 35.9-10.2 8.2-6.8 12.4-16.9 12.4-30.3 0-13.2-4.1-23.1-12.4-29.7-8.2-6.6-20.2-9.9-35.9-9.9h-48.8v80.1zM13898.4 3059c13.3 15 19.9 36.2 19.9 63.4 0 5.4-.1 9.4-.3 12.1h-122.1c2.7 11.7 8.2 21 16.5 27.7 8.3 6.7 18.6 10 30.8 10 8.4 0 16.5-1.6 24.3-4.8 7.7-3.2 14.5-7.8 20.2-13.8l21.6 22.6c-8.2 9.1-18.3 16.1-30.1 21-11.9 4.9-25 7.4-39.4 7.4-16.9 0-31.8-3.5-44.7-10.5-12.9-7-22.8-16.8-29.8-29.5s-10.5-27.2-10.5-43.7c0-16.5 3.6-31.1 10.7-43.9 7.1-12.8 17-22.7 29.8-29.8 12.8-7.1 27.3-10.7 43.6-10.7 26.3 0 46.2 7.5 59.5 22.5zm-16.9 48.6c-.4-12.2-4.4-21.8-12.1-29.1-7.6-7.2-17.7-10.8-30.3-10.8-11.7 0-21.6 3.6-29.5 10.7-7.9 7.1-12.8 16.8-14.7 29.2h86.6zM14050.6 3203.1V3183c-5.8 7.2-13.2 12.7-22.3 16.4-9.1 3.7-19.5 5.6-31.2 5.6-11.5 0-21.7-2.2-30.4-6.6-8.8-4.4-15.5-10.6-20.2-18.4-4.7-7.8-7.1-16.6-7.1-26.3 0-15.5 5.5-27.6 16.4-36.3 10.9-8.8 26.4-13.2 46.4-13.4h48.2v-4.3c0-9.7-3.2-17.2-9.6-22.6-6.4-5.4-15.7-8-27.8-8-15.7 0-32 5.2-49.1 15.5l-14.5-27.8c13-7.2 24.8-12.4 35.4-15.6 10.6-3.2 23-4.8 37.2-4.8 21.4 0 38.1 5.2 49.9 15.5 11.8 10.3 17.9 24.7 18.1 43.3l.3 108.2h-39.7zm-14.2-37.3c8.2-5.5 12.9-12.2 13.9-20.2v-14.8h-41.7c-10.7 0-18.6 1.6-23.6 4.8-5.1 3.2-7.6 8.4-7.6 15.6 0 7 2.6 12.6 7.9 16.7 5.3 4.1 12.4 6.2 21.5 6.2 11.4-.1 21.3-2.8 29.6-8.3zM14205.8 3071.7c-13.4 0-24.3 4.5-32.6 13.6s-12.5 20.8-12.5 35.2c0 14.8 4.2 26.8 12.5 35.9 8.3 9.1 19.2 13.6 32.6 13.6 19.8 0 34.6-6.5 44.5-19.5l25 20.7c-7.4 10.7-17.2 19-29.4 24.7-12.2 5.8-26.3 8.7-42.3 8.7-16.3 0-30.8-3.5-43.4-10.5-12.7-7-22.5-16.8-29.5-29.5s-10.5-27.2-10.5-43.7c0-16.7 3.6-31.4 10.7-44.2 7.1-12.8 17-22.7 29.7-29.7s27.2-10.5 43.7-10.5c15 0 28.5 2.6 40.3 7.9 11.8 5.3 21.5 12.7 28.9 22.4l-24.4 23.2c-11.2-12.2-25.6-18.3-43.3-18.3zM14406.4 3192.9c-13.2 8-27 12.1-41.4 12.1-14.2 0-25.9-4.2-34.9-12.5-9.1-8.3-13.6-20.7-13.6-36.9V3074h-23.2l-.3-29.4h23.5v-45.4h39.9v45.4h47.3v29.4h-47.3v74.5c0 7.6 1.4 13 4.3 16.2 2.9 3.2 7.2 4.8 13 4.8 6.2 0 14-2.3 23.5-6.8l9.2 30.2zM14462.8 3167.5c4 4.1 6 9.4 6 15.8 0 6.6-2 12-6 16.2-4 4.2-9.1 6.3-15.3 6.3-6 0-11-2.2-15-6.5s-6-9.7-6-16.1c0-6.4 2-11.6 6-15.8 4-4.1 9-6.2 15-6.2 6.2.2 11.3 2.2 15.3 6.3zM14486.4 3230.9c6.8.2 12-2 15.6-6.6 3.6-4.6 5.4-11.4 5.4-20.2v-166.3h40.2v172.5c0 17.1-4.6 30.4-13.8 40-9.2 9.6-21.9 14.4-38.2 14.4-11.3 0-22-2.1-32.1-6.2l8.7-30.3c4.8 1.6 9.5 2.5 14.2 2.7zm57.2-257.5c4.3 4.5 6.5 10.3 6.5 17.3 0 6.8-2.2 12.5-6.5 17s-9.8 6.8-16.4 6.8c-6.6 0-12.1-2.3-16.4-6.8-4.3-4.5-6.5-10.2-6.5-17 0-7 2.2-12.8 6.5-17.3s9.8-6.8 16.4-6.8c6.6 0 12.1 2.3 16.4 6.8zM14668.3 3071.4c-8.6-2.7-16.4-4-23.6-4-6.8 0-12.2 1.2-16.2 3.6-4 2.4-6 6-6 11 0 5.2 2.5 9.1 7.6 11.9 5 2.8 13 5.7 24 8.8 11.5 3.5 21 7 28.4 10.4 7.4 3.4 13.9 8.5 19.3 15.1 5.5 6.7 8.2 15.5 8.2 26.4 0 16.1-6.2 28.4-18.5 37.1-12.4 8.7-27.9 13-46.7 13-12.8 0-25.2-2-37.4-6s-22.5-9.7-30.9-17.2l13.9-28.1c7.4 6.4 16.3 11.4 26.6 15 10.3 3.6 20.1 5.4 29.4 5.4 7.4 0 13.3-1.3 17.8-3.9 4.4-2.6 6.6-6.4 6.6-11.6 0-5.8-2.6-10.1-7.7-13-5.2-2.9-13.5-6.1-25-9.6-11.1-3.3-20.2-6.5-27.2-9.7-7-3.2-13.1-8-18.2-14.5-5.2-6.5-7.7-15-7.7-25.5 0-16.3 5.9-28.7 17.8-37.2 11.8-8.5 26.7-12.8 44.7-12.8 10.9 0 21.7 1.5 32.3 4.6 10.6 3.1 20 7.4 28.3 13l-14.5 29.1c-8.4-4.9-16.7-8.6-25.3-11.3z"/></g><g><path class="st31" d="M424.6 777.9h40.2v216.4h-39.3l-111.3-149v149h-40.5V777.9H313l111.6 149.3V777.9zM634 838.1c13.1 7 23.3 16.8 30.6 29.5 7.3 12.7 11 27.3 11 43.7 0 16.7-3.7 31.4-11 44.2-7.3 12.8-17.5 22.7-30.6 29.7-13.1 7-28.2 10.5-45.3 10.5-17.3 0-32.6-3.5-45.7-10.5-13.2-7-23.4-16.9-30.8-29.7-7.3-12.8-11-27.5-11-44.2 0-16.5 3.7-31.1 11-43.7 7.3-12.7 17.6-22.5 30.8-29.5s28.4-10.5 45.7-10.5c17.1 0 32.2 3.5 45.3 10.5zm-79.3 37.8c-8.7 9.3-13 21.3-13 36.2s4.3 26.9 13 36.2c8.7 9.3 20 13.9 34 13.9 13.6 0 24.7-4.6 33.4-13.9s13-21.3 13-36.2-4.3-26.9-13-36.2c-8.7-9.3-19.8-13.9-33.4-13.9-14 0-25.3 4.6-34 13.9zM839.9 802.9c-4 3.5-6 8.8-6 15.8v17h41.4V865h-41.4v129.2h-40.2V865H772v-29.4h21.6v-15.8c0-12.2 2.7-22.5 8-31.1 5.4-8.5 12.5-15 21.5-19.3 9-4.3 18.7-6.5 29.2-6.5 10.3 0 20.4 2.4 30.3 7.1l-7.1 32.5c-8.2-3.3-15-4.9-20.4-4.9-6.1.1-11.2 1.8-15.2 5.3zM962 836.1c9.6-5.7 20.8-8.6 33.5-8.8v38.9c-17.1-1-30.8 2.9-41 11.9s-15.3 21.1-15.3 36.3v79.8H899V828.9h40.2v31.8c5.6-10.7 13.2-18.9 22.8-24.6zM1115.4 994.2v-20.1c-5.8 7.2-13.2 12.7-22.3 16.4-9.1 3.7-19.5 5.6-31.2 5.6-11.5 0-21.7-2.2-30.4-6.6-8.8-4.4-15.5-10.6-20.2-18.4-4.7-7.8-7.1-16.6-7.1-26.3 0-15.5 5.5-27.6 16.4-36.3 10.9-8.8 26.4-13.2 46.4-13.4h48.2v-4.3c0-9.7-3.2-17.2-9.6-22.6-6.4-5.4-15.7-8-27.8-8-15.7 0-32 5.2-49.1 15.5l-14.5-27.8c13-7.2 24.8-12.4 35.4-15.6 10.6-3.2 23-4.8 37.2-4.8 21.4 0 38.1 5.2 49.9 15.5 11.8 10.3 17.9 24.7 18.1 43.3l.3 108.2h-39.7zm-14.2-37.2c8.2-5.5 12.9-12.2 13.9-20.2V922h-41.7c-10.7 0-18.6 1.6-23.6 4.8-5.1 3.2-7.6 8.4-7.6 15.6 0 7 2.6 12.6 7.9 16.7 5.3 4.1 12.4 6.2 21.5 6.2 11.5-.1 21.4-2.8 29.6-8.3zM1461 844.5c10.7 11.4 16.1 26.9 16.1 46.5v103.2h-40.5v-91.5c0-11.7-3.2-21-9.7-27.7-6.5-6.7-15.3-10-26.4-10-12.8.4-22.9 5.1-30.4 13.9-7.5 8.9-11.3 20.1-11.3 33.7v81.6h-40.5v-91.5c0-11.7-3.2-21-9.6-27.7-6.4-6.7-15.1-10-26.3-10-13 .4-23.2 5.1-30.8 13.9-7.5 8.9-11.3 20.1-11.3 33.7v81.6h-40.2V828.9h40.2v30.6c10.9-21 30.3-31.7 58.1-32.1 14.4 0 26.5 3.5 36.3 10.4 9.8 6.9 16.6 16.6 20.6 29.2 10.5-26 31-39.2 61.5-39.6 18.8-.1 33.5 5.6 44.2 17.1zM1650.3 850.2c13.3 15 19.9 36.2 19.9 63.4 0 5.4-.1 9.4-.3 12.1h-122.1c2.7 11.7 8.2 21 16.5 27.7 8.3 6.7 18.6 10 30.8 10 8.4 0 16.5-1.6 24.3-4.8 7.7-3.2 14.5-7.8 20.2-13.8l21.6 22.6c-8.2 9.1-18.3 16.1-30.1 21-11.9 4.9-25 7.4-39.4 7.4-16.9 0-31.8-3.5-44.7-10.5-12.9-7-22.8-16.8-29.8-29.5s-10.5-27.2-10.5-43.7c0-16.5 3.6-31.1 10.7-43.9 7.1-12.8 17-22.7 29.8-29.8 12.8-7.1 27.3-10.7 43.6-10.7 26.4-.1 46.2 7.5 59.5 22.5zm-16.8 48.5c-.4-12.2-4.4-21.8-12.1-29.1-7.6-7.2-17.7-10.8-30.3-10.8-11.7 0-21.6 3.6-29.5 10.7-7.9 7.1-12.8 16.8-14.7 29.2h86.6zM1673.7 829.2l41.4-.3 40.5 124.9 39.3-124.9h40.5l39.9 124.9 39.6-124.9h40.5l-60 165.4h-41.1l-39.6-116.5-39.3 116.5h-41.1l-60.6-165.1zM2090.5 838.1c13.1 7 23.3 16.8 30.6 29.5 7.3 12.7 11 27.3 11 43.7 0 16.7-3.7 31.4-11 44.2-7.3 12.8-17.5 22.7-30.6 29.7-13.1 7-28.2 10.5-45.3 10.5-17.3 0-32.6-3.5-45.7-10.5-13.2-7-23.4-16.9-30.8-29.7-7.3-12.8-11-27.5-11-44.2 0-16.5 3.7-31.1 11-43.7 7.3-12.7 17.6-22.5 30.8-29.5s28.4-10.5 45.7-10.5c17.1 0 32.2 3.5 45.3 10.5zm-79.3 37.8c-8.7 9.3-13 21.3-13 36.2s4.3 26.9 13 36.2c8.7 9.3 20 13.9 34 13.9 13.6 0 24.7-4.6 33.4-13.9s13-21.3 13-36.2-4.3-26.9-13-36.2c-8.7-9.3-19.8-13.9-33.4-13.9-14 0-25.3 4.6-34 13.9zM2229.9 836.1c9.6-5.7 20.8-8.6 33.5-8.8v38.9c-17.1-1-30.8 2.9-41 11.9s-15.3 21.1-15.3 36.3v79.8H2167V828.9h40.2v31.8c5.6-10.7 13.1-18.9 22.7-24.6zM2403.5 994.2l-44.8-72.3-25.3 26.6v45.7h-40.2V764.9h40.2v132.9l68-68.6h46.4l-61.2 63.7 64.9 101.4h-48z"/></g><g><path class="st32" d="M187 3203.1l-19.2-45.7H62.1L43 3203.1H0l94.9-216.4h43l93.7 216.4H187zm-110-81.3h76l-37.7-90.9-38.3 90.9zM400.6 3053.3c10.9 11.4 16.4 26.9 16.4 46.5V3203h-40.5v-91.5c0-11.5-3.3-20.7-9.9-27.4-6.6-6.7-15.6-10-26.9-10-13.4.2-24 4.7-31.7 13.6-7.7 8.9-11.6 20.2-11.6 34v81.3h-40.2v-165.4h40.2v30.9c11.3-21.2 31.1-32 59.3-32.5 19 .2 34 5.9 44.9 17.3zM506.5 3254.6c-9.6 6.9-21 10.4-34.2 10.4-8 0-15.3-1.2-21.8-3.6-6.5-2.4-12.9-6.1-19.3-11.3l17.3-30.6c3.9 2.9 7.5 5 10.8 6.3 3.3 1.3 6.8 2 10.5 2 10.9 0 19-5.6 24.1-16.7l4.9-10.8-68.3-162.6h41.7l47 120.2 43-120.2h40.5l-74.2 186.1c-5.1 13.6-12.4 23.9-22 30.8zM703.2 2986.7h149.3l-.3 36.2H744.6v58.4h98v36.2h-98v85.6h-41.4v-216.4zM944.8 3045c9.6-5.7 20.8-8.6 33.5-8.8v38.9c-17.1-1-30.8 2.9-41 11.9s-15.3 21.1-15.3 36.3v79.8h-40.2v-165.4H922v31.8c5.6-10.7 13.2-18.8 22.8-24.5zM1098.3 3203.1V3183c-5.8 7.2-13.2 12.7-22.3 16.4-9.1 3.7-19.5 5.6-31.2 5.6-11.5 0-21.7-2.2-30.4-6.6-8.8-4.4-15.5-10.6-20.2-18.4-4.7-7.8-7.1-16.6-7.1-26.3 0-15.5 5.5-27.6 16.4-36.3 10.9-8.8 26.4-13.2 46.4-13.4h48.2v-4.3c0-9.7-3.2-17.2-9.6-22.6-6.4-5.4-15.7-8-27.8-8-15.7 0-32 5.2-49.1 15.5l-14.5-27.8c13-7.2 24.8-12.4 35.4-15.6 10.6-3.2 23-4.8 37.2-4.8 21.4 0 38.1 5.2 49.9 15.5 11.8 10.3 17.9 24.7 18.1 43.3l.3 108.2h-39.7zm-14.3-37.3c8.2-5.5 12.9-12.2 13.9-20.2v-14.8h-41.7c-10.7 0-18.6 1.6-23.6 4.8-5.1 3.2-7.6 8.4-7.6 15.6 0 7 2.6 12.6 7.9 16.7 5.3 4.1 12.4 6.2 21.5 6.2 11.5-.1 21.4-2.8 29.6-8.3zM1443.8 3053.3c10.7 11.4 16.1 26.9 16.1 46.5V3203h-40.5v-91.5c0-11.7-3.2-21-9.7-27.7-6.5-6.7-15.3-10-26.4-10-12.8.4-22.9 5.1-30.4 13.9-7.5 8.9-11.3 20.1-11.3 33.7v81.6H1301v-91.5c0-11.7-3.2-21-9.6-27.7-6.4-6.7-15.1-10-26.3-10-13 .4-23.2 5.1-30.8 13.9-7.5 8.9-11.3 20.1-11.3 33.7v81.6h-40v-165.4h40.2v30.6c10.9-21 30.3-31.7 58.1-32.1 14.4 0 26.5 3.5 36.3 10.4 9.8 6.9 16.6 16.6 20.6 29.2 10.5-26 31-39.2 61.5-39.6 18.7.1 33.4 5.8 44.1 17.2zM1633.2 3059c13.3 15 19.9 36.2 19.9 63.4 0 5.4-.1 9.4-.3 12.1h-122.1c2.7 11.7 8.2 21 16.5 27.7 8.3 6.7 18.6 10 30.8 10 8.4 0 16.5-1.6 24.3-4.8 7.7-3.2 14.5-7.8 20.2-13.8l21.6 22.6c-8.2 9.1-18.3 16.1-30.1 21-11.9 4.9-25 7.4-39.4 7.4-16.9 0-31.8-3.5-44.7-10.5-12.9-7-22.8-16.8-29.8-29.5s-10.5-27.2-10.5-43.7c0-16.5 3.6-31.1 10.7-43.9 7.1-12.8 17-22.7 29.8-29.8 12.8-7.1 27.3-10.7 43.6-10.7 26.3 0 46.2 7.5 59.5 22.5zm-16.9 48.6c-.4-12.2-4.4-21.8-12.1-29.1-7.6-7.2-17.7-10.8-30.3-10.8-11.7 0-21.6 3.6-29.5 10.7-7.9 7.1-12.8 16.8-14.7 29.2h86.6zM1656.5 3038l41.4-.3 40.5 124.9 39.3-124.9h40.5l39.9 124.9 39.6-124.9h40.5l-60 165.4H1837l-39.6-116.5-39.3 116.5H1717l-60.5-165.1zM2073.3 3047c13.1 7 23.3 16.8 30.6 29.5 7.3 12.7 11 27.3 11 43.7 0 16.7-3.7 31.4-11 44.2-7.3 12.8-17.5 22.7-30.6 29.7-13.1 7-28.2 10.5-45.3 10.5-17.3 0-32.6-3.5-45.7-10.5-13.2-7-23.4-16.9-30.8-29.7-7.3-12.8-11-27.5-11-44.2 0-16.5 3.7-31.1 11-43.7 7.3-12.7 17.6-22.5 30.8-29.5s28.4-10.5 45.7-10.5c17.2 0 32.2 3.5 45.3 10.5zm-79.2 37.7c-8.7 9.3-13 21.3-13 36.2 0 14.8 4.3 26.9 13 36.2s20 13.9 34 13.9c13.6 0 24.7-4.6 33.4-13.9s13-21.3 13-36.2c0-14.8-4.3-26.9-13-36.2s-19.8-13.9-33.4-13.9c-14.1 0-25.4 4.6-34 13.9zM2212.7 3045c9.6-5.7 20.8-8.6 33.5-8.8v38.9c-17.1-1-30.8 2.9-41 11.9s-15.3 21.1-15.3 36.3v79.8h-40.2v-165.4h40.2v31.8c5.7-10.7 13.3-18.8 22.8-24.5zM2386.3 3203.1l-44.8-72.3-25.3 26.6v45.7H2276v-229.4h40.2v132.9l68-68.6h46.4l-61.2 63.7 64.9 101.4h-48z"/></g></svg>