<?xml version="1.0" encoding="UTF-8"?>
<svg width="80px" height="84px" viewBox="0 0 80 84" version="1.1" xmlns="http://www.w3.org/2000/svg" xmlns:xlink="http://www.w3.org/1999/xlink">
    <!-- Generator: Sketch 42 (36781) - http://www.bohemiancoding.com/sketch -->
    <title>highlighting</title>
    <desc>Created with Sketch.</desc>
    <defs>
        <linearGradient x1="42.966%" y1="14.059%" x2="85.153%" y2="110.153%" id="linearGradient-1">
            <stop stop-color="#1CC7D0" offset="0%"></stop>
            <stop stop-color="#136B90" offset="100%"></stop>
        </linearGradient>
        <linearGradient x1="10.934%" y1="-27.347%" x2="73.434%" y2="79.684%" id="linearGradient-2">
            <stop stop-color="#2EDE98" offset="0%"></stop>
            <stop stop-color="#1CC7D0" offset="100%"></stop>
        </linearGradient>
    </defs>
    <g id="Page-1" stroke="none" stroke-width="1" fill="none" fill-rule="evenodd">
        <g id="highlighting" fill-rule="nonzero">
            <g id="icon-isInfinite" transform="translate(8.000000, 7.000000)">
                <g id="Group">
                    <g id="Rectangle-path">
                        <rect fill="url(#linearGradient-1)" x="0" y="5" width="64" height="64" rx="4"></rect>
                        <rect fill="url(#linearGradient-2)" x="0" y="0" width="64" height="64" rx="4"></rect>
                    </g>
                </g>
            </g>
            <g id="noun_673723_cc" transform="translate(20.000000, 21.000000)" fill="#FFFFFF">
                <g id="Group" transform="translate(0.608696, 0.863636)">
                    <g transform="translate(0.830040, 0.000000)" id="Shape">
                        <path d="M19.8627866,18.2624862 C19.4691996,17.8726376 18.8306917,17.8726376 18.4376087,18.2624862 C18.0440217,18.6523349 18.0440217,19.284279 18.4376087,19.6741276 L29.101749,30.2369787 C29.3537253,30.018344 29.60167,29.7937193 29.8405435,29.5571147 C30.079417,29.32051 30.3061957,29.0749204 30.5269269,28.8253374 L19.8627866,18.2624862 Z"></path>
                        <path d="M19.1501976,0 C8.59087945,0 0,8.50928232 0,18.9683069 C0,29.4273315 8.59087945,37.9366138 19.1501976,37.9366138 C24.3877767,37.9366138 29.1390415,35.8416143 32.6001877,32.4547731 C32.6309289,32.4308132 32.6631818,32.4088499 32.6919071,32.3808966 C32.7206324,32.3529433 32.7423024,32.3209967 32.7664921,32.2900484 C36.1853063,28.8622756 38.3003953,24.1561389 38.3003953,18.9683069 C38.3003953,8.50928232 29.7095158,0 19.1501976,0 Z M31.2657213,30.968756 C28.0298419,34.1743999 23.7270949,35.93995 19.1501976,35.93995 C14.5733004,35.93995 10.2705534,34.1743999 7.03416996,30.968756 C4.00440711,27.9682694 2.24964427,24.0418299 2.03798419,19.8338607 C2.03798419,19.8313649 2.03748024,19.8293682 2.03748024,19.8268724 C2.02336957,19.5418486 2.01581028,19.2558265 2.01581028,18.9683069 C2.01581028,18.6787907 2.02336957,18.3902727 2.03798419,18.1032523 C2.04,18.0628198 2.04453557,18.0228866 2.04705534,17.9824541 C2.06116601,17.7333703 2.0793083,17.4847857 2.10450593,17.2376985 C2.10551383,17.2297118 2.10652174,17.2222244 2.10752964,17.2142377 C2.50615613,13.3437048 4.21959486,9.75569975 7.03467391,6.96735863 C9.84975296,4.17901751 13.472164,2.48185321 17.3798123,2.08701293 C17.3878755,2.0860146 17.3954348,2.08501626 17.403498,2.08401793 C17.6529545,2.05905963 17.9039229,2.04158882 18.1553953,2.02711301 C18.1962154,2.02461718 18.2365316,2.02012469 18.2773518,2.01812802 C18.5666206,2.00415138 18.8579051,1.99666389 19.1501976,1.99666389 C19.4404743,1.99666389 19.7292391,2.00415138 20.016996,2.01812802 C20.0195158,2.01812802 20.0215316,2.01862719 20.0240514,2.01862719 C24.2728755,2.22877606 28.2369664,3.96687198 31.2657213,6.96735863 C34.5021047,10.1730025 36.284585,14.4348816 36.284585,18.9683069 C36.284585,23.5017323 34.5021047,27.7636113 31.2657213,30.968756 Z"></path>
                        <path d="M26.5008498,10.2758307 C26.1072628,10.6656793 26.1072628,11.2976234 26.5008498,11.6874721 L34.2586957,19.371633 C34.2622233,19.2373574 34.2687747,19.1035809 34.2687747,18.9683069 C34.2687747,18.0713057 34.1856225,17.1872827 34.0304051,16.3222281 L27.9260277,10.2758307 C27.5324407,9.88598207 26.8944368,9.88598207 26.5008498,10.2758307 Z"></path>
                        <path d="M23.9886462,33.1590963 C24.6775494,32.92948 25.3478063,32.6504462 25.9953854,32.3234925 L15.831166,22.255814 C15.438083,21.8659654 14.7990711,21.8659654 14.4059881,22.255814 C14.0124012,22.6456626 14.0124012,23.2776068 14.4059881,23.6674554 L23.9886462,33.1590963 Z"></path>
                        <path d="M11.7995455,26.2491418 C11.4064625,25.8592932 10.7674506,25.8592932 10.3743676,26.2491418 C9.98078063,26.6389904 9.98078063,27.2709345 10.3743676,27.6607832 L16.4787451,33.7071806 C17.3520949,33.8604245 18.2445949,33.9432861 19.1501976,33.9432861 C19.2867688,33.9432861 19.4218281,33.9367969 19.5573913,33.9333028 L11.7995455,26.2491418 Z"></path>
                        <path d="M23.8944071,14.2691585 C23.5008202,13.8793098 22.8628162,13.8793098 22.4692292,14.2691585 C22.0756423,14.6590071 22.0756423,15.2909512 22.4692292,15.6807998 L32.6334486,25.7484783 C32.9630336,25.1065509 33.245247,24.4426601 33.4770652,23.7607994 L23.8944071,14.2691585 Z"></path>
                    </g>
                </g>
            </g>
        </g>
    </g>
</svg>