<svg id="Layer_1" xmlns="http://www.w3.org/2000/svg" viewBox="0 0 1001.8 654.8"><style>.st0{opacity:0.1;fill:url(#SVGID_1_);} .st1{fill:url(#SVGID_2_);} .st2{fill:url(#SVGID_3_);} .st3{fill:#201C38;} .st4{fill:#726AC9;} .st5{opacity:0.5;fill:#17142D;} .st6{fill:url(#SVGID_4_);} .st7{fill:url(#SVGID_5_);} .st8{fill:#D7D7F4;} .st9{opacity:0.3;} .st10{fill:#908FAB;} .st11{opacity:0.3;fill:#908FAB;} .st12{opacity:0.2;fill:#4744A5;} .st13{fill:url(#SVGID_6_);} .st14{fill:url(#SVGID_7_);} .st15{fill:url(#SVGID_8_);} .st16{opacity:0.75;} .st17{opacity:0.5;} .st18{fill:none;stroke:#201C38;stroke-linecap:round;stroke-miterlimit:10;} .st19{fill:none;stroke:#201C38;stroke-linecap:round;stroke-miterlimit:10;stroke-dasharray:0,4.0169;} .st20{fill:url(#SVGID_9_);} .st21{fill:url(#SVGID_10_);} .st22{fill:url(#SVGID_11_);} .st23{fill:url(#SVGID_12_);} .st24{fill:url(#SVGID_13_);} .st25{fill:url(#SVGID_14_);} .st26{fill:url(#SVGID_15_);} .st27{fill:url(#SVGID_16_);} .st28{fill:url(#SVGID_17_);} .st29{fill:url(#SVGID_18_);} .st30{fill:url(#SVGID_19_);} .st31{opacity:0.3;fill:url(#SVGID_20_);} .st32{opacity:0.3;fill:url(#SVGID_21_);} .st33{fill:url(#SVGID_22_);} .st34{opacity:0.3;fill:url(#SVGID_23_);} .st35{fill:url(#SVGID_24_);} .st36{opacity:0.3;fill:url(#SVGID_25_);} .st37{opacity:0.3;fill:url(#SVGID_26_);} .st38{fill:url(#SVGID_27_);} .st39{fill:url(#SVGID_28_);} .st40{fill:#FFFFFF;} .st41{fill:#FCB43A;} .st42{fill:#AAAAE0;} .st43{fill:#3B3769;}</style><linearGradient id="SVGID_1_" gradientUnits="userSpaceOnUse" x1="394.123" y1="654.778" x2="394.123" y2="416.129"><stop offset="0" stop-color="#3D386B"/><stop offset="1" stop-color="#211E39"/></linearGradient><path class="st0" d="M330.9 416.1L14.4 515.5l442.9 139.3 316.6-99.4z"/><linearGradient id="SVGID_2_" gradientUnits="userSpaceOnUse" x1="394.123" y1="603.523" x2="394.123" y2="336.774"><stop offset="0" stop-color="#3D386B"/><stop offset="1" stop-color="#211E39"/></linearGradient><path class="st1" d="M328.6 336.8L0 439.9l459.7 163.6 328.5-122.2z"/><linearGradient id="SVGID_3_" gradientUnits="userSpaceOnUse" x1="459.69" y1="542.415" x2="788.246" y2="542.415"><stop offset="0" stop-color="#3D386B"/><stop offset="1" stop-color="#211E39"/></linearGradient><path class="st2" d="M459.7 603.5l328.5-103.1v-19.1L459.7 584.5z"/><path class="st3" d="M459.7 603.5L0 459v-19.1l459.7 144.6z"/><path class="st4" d="M146.1 416.6l-47.4 14.9c-.9.3-2.6.2-3.7-.1-1.1-.3-1.3-.8-.4-1.1l47.4-14.9c.9-.3 2.6-.2 3.7.1 1.2.3 1.3.8.4 1.1zM137.8 425.4l-9.4 3c-.9.3-2.6.2-3.7-.1-1.1-.3-1.3-.8-.4-1.1l9.4-3c.9-.3 2.6-.2 3.7.1 1.1.3 1.3.8.4 1.1zM293.7 376.4l-35.3 11.1c-.9.3-2.6.2-3.7-.1-1.1-.3-1.3-.8-.4-1.1l35.3-11.1c.9-.3 2.6-.2 3.7.1 1.2.3 1.3.8.4 1.1zM248.5 396.8l-23.4 7.3c-.9.3-2.6.2-3.7-.1-1.1-.3-1.3-.8-.4-1.1l23.4-7.3c.9-.3 2.6-.2 3.7.1 1.1.3 1.3.8.4 1.1zM220.9 417.9l-19 6c-.9.3-2.6.2-3.7-.1-1.1-.3-1.3-.8-.4-1.1l19-6c.9-.3 2.6-.2 3.7.1 1.2.3 1.3.8.4 1.1zM367.2 371.9L331.9 383c-.9.3-2.6.2-3.7-.1-1.1-.3-1.3-.8-.4-1.1l35.3-11.1c.9-.3 2.6-.2 3.7.1 1.2.3 1.3.8.4 1.1zM305.9 397.4l-50.6 15.9c-.9.3-2.6.2-3.7-.1-1.1-.3-1.3-.8-.4-1.1l50.6-15.9c.9-.3 2.6-.2 3.7.1 1.1.3 1.3.8.4 1.1zM191.7 439.5l-13.1 4.1c-.9.3-2.6.2-3.7-.1-1.1-.3-1.3-.8-.4-1.1l13.1-4.1c.9-.3 2.6-.2 3.7.1 1.2.3 1.3.8.4 1.1zM387.3 378l-13.7 4.3c-.9.3-2.6.2-3.7-.1-1.1-.3-1.3-.8-.4-1.1l13.7-4.3c.9-.3 2.6-.2 3.7.1 1.2.3 1.3.8.4 1.1zM207.7 440.7l-37.8 11.9c-.9.3-2.6.2-3.7-.1-1.1-.3-1.3-.8-.4-1.1l37.8-11.9c.9-.3 2.6-.2 3.7.1 1.1.3 1.3.8.4 1.1zM181.7 461.5l-15.7 4.9c-.9.3-2.6.2-3.7-.1-1.1-.3-1.3-.8-.4-1.1l15.7-4.9c.9-.3 2.6-.2 3.7.1 1.1.3 1.3.8.4 1.1zM272.8 432.9l-27.7 8.7c-.9.3-2.6.2-3.7-.1-1.1-.3-1.3-.8-.4-1.1l27.7-8.7c.9-.3 2.6-.2 3.7.1 1.1.3 1.3.8.4 1.1zM384.7 403.9L349.3 415c-.9.3-2.6.2-3.7-.1-1.1-.3-1.3-.8-.4-1.1l35.3-11.1c.9-.3 2.6-.2 3.7.1 1.2.3 1.4.8.5 1.1zM249.3 452.7l-19.9 6.2c-.9.3-2.6.2-3.7-.1-1.1-.3-1.3-.8-.4-1.1l19.9-6.2c.9-.3 2.6-.2 3.7.1 1.1.3 1.3.8.4 1.1zM360.1 417.8l-12.6 4c-.9.3-2.6.2-3.7-.1-1.1-.3-1.3-.8-.4-1.1l12.6-4c.9-.3 2.6-.2 3.7.1 1.1.3 1.3.8.4 1.1zM311.9 445.4l-19 6c-.9.3-2.6.2-3.7-.1-1.1-.3-1.3-.8-.4-1.1l19-6c.9-.3 2.6-.2 3.7.1 1.1.3 1.3.8.4 1.1zM458.2 399.4l-35.3 11.1c-.9.3-2.6.2-3.7-.1-1.1-.3-1.3-.8-.4-1.1l35.3-11.1c.9-.3 2.6-.2 3.7.1 1.1.3 1.3.8.4 1.1zM338.2 443.3l-35.3 11.1c-.9.3-2.6.2-3.7-.1-1.1-.3-1.3-.8-.4-1.1l35.3-11.1c.9-.3 2.6-.2 3.7.1 1.2.3 1.3.8.4 1.1zM424.9 416.1l-20.1 6.3c-.9.3-2.6.2-3.7-.1-1.1-.3-1.3-.8-.4-1.1l20.1-6.3c.9-.3 2.6-.2 3.7.1 1.1.3 1.3.8.4 1.1zM478.3 405.5l-13.7 4.3c-.9.3-2.6.2-3.7-.1-1.1-.3-1.3-.8-.4-1.1l13.7-4.3c.9-.3 2.6-.2 3.7.1 1.1.3 1.3.8.4 1.1zM358.3 449.4l-51.7 16.3c-.9.3-2.6.2-3.7-.1-1.1-.3-1.3-.8-.4-1.1l51.7-16.3c.9-.3 2.6-.2 3.7.1 1.2.3 1.3.8.4 1.1zM90.7 434L75 438.9c-.9.3-2.6.2-3.7-.1-1.1-.3-1.3-.8-.4-1.1l15.7-4.9c.9-.3 2.6-.2 3.7.1 1.2.3 1.3.8.4 1.1zM181.8 405.4l-27.7 8.7c-.9.3-2.6.2-3.7-.1-1.1-.3-1.3-.8-.4-1.1l27.7-8.7c.9-.3 2.6-.2 3.7.1 1.2.3 1.3.8.4 1.1zM240.3 387l-50.5 15.9c-.9.3-2.6.2-3.7-.1-1.1-.3-1.3-.8-.4-1.1l50.5-15.9c.9-.3 2.6-.2 3.7.1 1.2.3 1.3.8.4 1.1zM62.2 441.7c1.6.5 1.8 1.2.5 1.6s-3.6.4-5.2-.1-1.8-1.2-.5-1.6 3.6-.4 5.2.1zM199.8 405.9l-54 17c-.9.3-2.6.2-3.7-.1-1.1-.3-1.3-.8-.4-1.1l54-17c.9-.3 2.6-.2 3.7.1 1.1.3 1.3.8.4 1.1zM250.4 390l-42.6 13.4c-.9.3-2.6.2-3.7-.1-1.1-.3-1.3-.8-.4-1.1l42.6-13.4c.9-.3 2.6-.2 3.7.1 1.1.3 1.3.8.4 1.1zM72.3 444.8c1.6.5 1.8 1.2.5 1.6-1.3.4-3.6.4-5.2-.1s-1.8-1.2-.5-1.6c1.3-.5 3.6-.4 5.2.1zM158.3 425.2l-19.9 6.2c-.9.3-2.6.2-3.7-.1-1.1-.3-1.3-.8-.4-1.1l19.9-6.2c.9-.3 2.6-.2 3.7.1 1.2.3 1.3.8.4 1.1zM217.1 406.7l-50.8 16c-.9.3-2.6.2-3.7-.1-1.1-.3-1.3-.8-.4-1.1l50.8-16c.9-.3 2.6-.2 3.7.1 1.2.3 1.3.8.4 1.1zM303.8 379.4l-47.3 14.9c-.9.3-2.6.2-3.7-.1-1.1-.3-1.3-.8-.4-1.1l47.3-14.9c.9-.3 2.6-.2 3.7.1 1.1.3 1.3.8.4 1.1zM82.3 447.8c1.6.5 1.8 1.2.5 1.6-1.3.4-3.6.4-5.2-.1s-1.8-1.2-.5-1.6c1.3-.4 3.6-.4 5.2.1zM227.2 409.7l-35.3 11.1c-.9.3-2.6.2-3.7-.1-1.1-.3-1.3-.8-.4-1.1l35.3-11.1c.9-.3 2.6-.2 3.7.1 1.1.3 1.3.8.4 1.1zM270.5 396.1l-35.3 11.1c-.9.3-2.6.2-3.7-.1-1.1-.3-1.3-.8-.4-1.1l35.3-11.1c.9-.3 2.6-.2 3.7.1 1.1.3 1.3.8.4 1.1zM92.4 450.8c1.6.5 1.8 1.2.5 1.6-1.3.4-3.6.4-5.2-.1s-1.8-1.2-.5-1.6c1.3-.4 3.6-.3 5.2.1zM268.6 402.9l-39.7 12.5c-.9.3-2.6.2-3.7-.1-1.1-.3-1.3-.8-.4-1.1l39.7-12.5c.9-.3 2.6-.2 3.7.1 1.1.3 1.3.8.4 1.1zM323.9 385.5l-47.3 14.9c-.9.3-2.6.2-3.7-.1-1.1-.3-1.3-.8-.4-1.1l47.3-14.9c.9-.3 2.6-.2 3.7.1 1.1.3 1.3.8.4 1.1zM102.4 453.9c1.6.5 1.8 1.2.5 1.6-1.3.4-3.6.4-5.2-.1s-1.8-1.2-.5-1.6c1.3-.4 3.7-.4 5.2.1zM247.3 415.8L212 426.9c-.9.3-2.6.2-3.7-.1-1.1-.3-1.3-.8-.4-1.1l35.3-11.1c.9-.3 2.6-.2 3.7.1 1.1.3 1.3.8.4 1.1zM333.9 388.5l-20.1 6.3c-.9.3-2.6.2-3.7-.1-1.1-.3-1.3-.8-.4-1.1l20.1-6.3c.9-.3 2.6-.2 3.7.1 1.2.4 1.4.9.4 1.1zM112.5 456.9c1.6.5 1.8 1.2.5 1.6-1.3.4-3.6.4-5.2-.1s-1.8-1.2-.5-1.6 3.6-.3 5.2.1zM245.8 422.5L199.7 437c-.9.3-2.6.2-3.7-.1-1.1-.3-1.3-.8-.4-1.1l46.1-14.5c.9-.3 2.6-.2 3.7.1 1.2.3 1.3.8.4 1.1zM300.7 405.2l-46.8 14.7c-.9.3-2.6.2-3.7-.1-1.1-.3-1.3-.8-.4-1.1l46.8-14.7c.9-.3 2.6-.2 3.7.1 1.1.3 1.3.8.4 1.1zM365.6 384.8l-57 17.9c-.9.3-2.6.2-3.7-.1-1.1-.3-1.3-.8-.4-1.1l57-17.9c.9-.3 2.6-.2 3.7.1 1.2.3 1.3.8.4 1.1zM122.5 460c1.6.5 1.8 1.2.5 1.6-1.3.4-3.6.4-5.2-.1s-1.8-1.2-.5-1.6c1.3-.5 3.7-.4 5.2.1zM161.8 455.1l-16.5 5.2c-.9.3-2.6.2-3.7-.1-1.1-.3-1.3-.8-.4-1.1l16.5-5.2c.9-.3 2.6-.2 3.7.1 1.2.3 1.4.8.4 1.1zM267.4 421.9l-51.7 16.3c-.9.3-2.6.2-3.7-.1-1.1-.3-1.3-.8-.4-1.1l51.7-16.3c.9-.3 2.6-.2 3.7.1 1.1.3 1.3.8.4 1.1zM132.6 463c1.6.5 1.8 1.2.5 1.6-1.3.4-3.6.4-5.2-.1s-1.8-1.2-.5-1.6 3.6-.4 5.2.1zM142.7 466.1c1.6.5 1.8 1.2.5 1.6s-3.6.4-5.2-.1-1.8-1.2-.5-1.6c1.3-.5 3.6-.4 5.2.1zM237.1 444.1L189.7 459c-.9.3-2.6.2-3.7-.1-1.1-.3-1.3-.8-.4-1.1l47.4-14.9c.9-.3 2.6-.2 3.7.1 1.1.3 1.3.8.4 1.1zM331.3 414.5l-50.5 15.9c-.9.3-2.6.2-3.7-.1-1.1-.3-1.3-.8-.4-1.1l50.5-15.9c.9-.3 2.6-.2 3.7.1 1.1.3 1.3.8.4 1.1zM153.2 469.2c1.6.5 1.8 1.2.5 1.6-1.3.4-3.6.4-5.2-.1s-1.8-1.2-.5-1.6 3.6-.3 5.2.1zM228.7 452.9l-9.4 3c-.9.3-2.6.2-3.7-.1-1.1-.3-1.3-.8-.4-1.1l9.4-3c.9-.3 2.6-.2 3.7.1 1.2.3 1.3.8.4 1.1zM290.7 433.4l-54 17c-.9.3-2.6.2-3.7-.1-1.1-.3-1.3-.8-.4-1.1l54-17c.9-.3 2.6-.2 3.7.1 1.2.3 1.3.8.4 1.1zM341.3 417.5l-42.6 13.4c-.9.3-2.6.2-3.7-.1-1.1-.3-1.3-.8-.4-1.1l42.6-13.4c.9-.3 2.6-.2 3.7.1 1.2.3 1.3.8.4 1.1zM163.2 472.3c1.6.5 1.8 1.2.5 1.6-1.3.4-3.6.4-5.2-.1s-1.8-1.2-.5-1.6c1.3-.4 3.6-.4 5.2.1zM308.1 434.2l-50.8 16c-.9.3-2.6.2-3.7-.1-1.1-.3-1.3-.8-.4-1.1l50.8-16c.9-.3 2.6-.2 3.7.1 1.1.3 1.3.8.4 1.1zM339.4 424.3l-23.4 7.3c-.9.3-2.6.2-3.7-.1-1.1-.3-1.3-.8-.4-1.1l23.4-7.3c.9-.3 2.6-.2 3.7.1 1.2.3 1.3.8.4 1.1zM173.3 475.3c1.6.5 1.8 1.2.5 1.6s-3.6.4-5.2-.1-1.8-1.2-.5-1.6 3.6-.3 5.2.1zM318.1 437.2l-35.3 11.1c-.9.3-2.6.2-3.7-.1-1.1-.3-1.3-.8-.4-1.1L314 436c.9-.3 2.6-.2 3.7.1 1.2.3 1.3.8.4 1.1zM361.4 423.6l-35.3 11.1c-.9.3-2.6.2-3.7-.1-1.1-.3-1.3-.8-.4-1.1l35.3-11.1c.9-.3 2.6-.2 3.7.1 1.2.3 1.4.8.4 1.1zM183.3 478.4c1.6.5 1.8 1.2.5 1.6-1.3.4-3.6.4-5.2-.1s-1.8-1.2-.5-1.6 3.7-.4 5.2.1zM359.5 430.4l-39.7 12.5c-.9.3-2.6.2-3.7-.1-1.1-.3-1.3-.8-.4-1.1l39.7-12.5c.9-.3 2.6-.2 3.7.1 1.2.3 1.4.8.4 1.1zM414.8 413l-47.3 14.9c-.9.3-2.6.2-3.7-.1-1.1-.3-1.3-.8-.4-1.1l47.3-14.9c.9-.3 2.6-.2 3.7.1 1.2.3 1.3.8.4 1.1zM193.4 481.4c1.6.5 1.8 1.2.5 1.6s-3.6.4-5.2-.1-1.8-1.2-.5-1.6c1.3-.4 3.6-.4 5.2.1zM396.8 424.9l-50.6 15.9c-.9.3-2.6.2-3.7-.1-1.1-.3-1.3-.8-.4-1.1l50.6-15.9c.9-.3 2.6-.2 3.7.1 1.2.3 1.3.8.4 1.1zM203.4 484.5c1.6.5 1.8 1.2.5 1.6s-3.6.4-5.2-.1-1.8-1.2-.5-1.6c1.3-.5 3.7-.4 5.2.1zM282.7 467l-13.1 4.1c-.9.3-2.6.2-3.7-.1-1.1-.3-1.3-.8-.4-1.1l13.1-4.1c.9-.3 2.6-.2 3.7.1 1.1.3 1.3.8.4 1.1zM336.8 450l-46.1 14.5c-.9.3-2.6.2-3.7-.1-1.1-.3-1.3-.8-.4-1.1l46.1-14.5c.9-.3 2.6-.2 3.7.1 1.1.3 1.3.8.4 1.1zM391.6 432.7l-46.8 14.7c-.9.3-2.6.2-3.7-.1-1.1-.3-1.3-.8-.4-1.1l46.8-14.7c.9-.3 2.6-.2 3.7.1 1.2.3 1.3.9.4 1.1zM456.6 412.3l-57 17.9c-.9.3-2.6.2-3.7-.1-1.1-.3-1.3-.8-.4-1.1l57-17.9c.9-.3 2.6-.2 3.7.1 1.1.3 1.3.8.4 1.1zM213.5 487.5c1.6.5 1.8 1.2.5 1.6-1.3.4-3.6.4-5.2-.1s-1.8-1.2-.5-1.6 3.6-.4 5.2.1zM252.8 482.6l-16.5 5.2c-.9.3-2.6.2-3.7-.1-1.1-.3-1.3-.8-.4-1.1l16.5-5.2c.9-.3 2.6-.2 3.7.1 1.2.3 1.3.8.4 1.1zM298.6 468.2l-37.8 11.9c-.9.3-2.6.2-3.7-.1-1.1-.3-1.3-.8-.4-1.1l37.8-11.9c.9-.3 2.6-.2 3.7.1 1.2.3 1.3.8.4 1.1zM223.6 490.5c1.6.5 1.8 1.2.5 1.6-1.3.4-3.6.4-5.2-.1s-1.8-1.2-.5-1.6c1.3-.4 3.6-.3 5.2.1zM233.6 493.6c1.6.5 1.8 1.2.5 1.6s-3.6.4-5.2-.1-1.8-1.2-.5-1.6 3.6-.4 5.2.1zM268.5 489.4l-13.1 4.1c-.9.3-2.6.2-3.7-.1-1.1-.3-1.3-.8-.4-1.1l13.1-4.1c.9-.3 2.6-.2 3.7.1 1.2.4 1.3.9.4 1.1zM322.6 472.4l-46.1 14.5c-.9.3-2.6.2-3.7-.1-1.1-.3-1.3-.8-.4-1.1l46.1-14.5c.9-.3 2.6-.2 3.7.1 1.2.3 1.3.9.4 1.1zM242.7 496.3c1.6.5 1.8 1.2.5 1.6s-3.6.4-5.2-.1-1.8-1.2-.5-1.6c1.3-.4 3.6-.3 5.2.1zM282 491.4l-16.5 5.2c-.9.3-2.6.2-3.7-.1-1.1-.3-1.3-.8-.4-1.1l16.5-5.2c.9-.3 2.6-.2 3.7.1 1.1.3 1.3.8.4 1.1zM358.8 467.3L290 488.9c-.9.3-2.6.2-3.7-.1-1.1-.3-1.3-.8-.4-1.1l68.8-21.6c.9-.3 2.6-.2 3.7.1 1.2.3 1.3.8.4 1.1zM387.5 458.2l-20.7 6.5c-.9.3-2.6.2-3.7-.1-1.1-.3-1.3-.8-.4-1.1l20.7-6.5c.9-.3 2.6-.2 3.7.1 1.2.3 1.3.9.4 1.1z"/><g><path class="st4" d="M252.7 499.4c1.6.5 1.8 1.2.5 1.6-1.3.4-3.6.4-5.2-.1s-1.8-1.2-.5-1.6 3.7-.4 5.2.1z"/></g><g><path class="st4" d="M346.7 477.3l-47.4 14.9c-.9.3-2.6.2-3.7-.1-1.1-.3-1.3-.8-.4-1.1l47.4-14.9c.9-.3 2.6-.2 3.7.1 1.1.3 1.3.8.4 1.1zM338.3 486.1l-9.4 3c-.9.3-2.6.2-3.7-.1-1.1-.3-1.3-.8-.4-1.1l9.4-3c.9-.3 2.6-.2 3.7.1 1.2.3 1.4.8.4 1.1zM494.3 437.1L459 448.2c-.9.3-2.6.2-3.7-.1-1.1-.3-1.3-.8-.4-1.1l35.3-11.1c.9-.3 2.6-.2 3.7.1 1.1.3 1.3.8.4 1.1zM449.1 457.5l-23.4 7.3c-.9.3-2.6.2-3.7-.1-1.1-.3-1.3-.8-.4-1.1l23.4-7.3c.9-.3 2.6-.2 3.7.1 1.1.3 1.3.8.4 1.1zM421.5 478.6l-19 6c-.9.3-2.6.2-3.7-.1-1.1-.3-1.3-.8-.4-1.1l19-6c.9-.3 2.6-.2 3.7.1 1.2.3 1.3.8.4 1.1zM567.8 432.6l-35.3 11.1c-.9.3-2.6.2-3.7-.1-1.1-.3-1.3-.8-.4-1.1l35.3-11.1c.9-.3 2.6-.2 3.7.1 1.2.3 1.3.8.4 1.1zM506.5 458.1L455.9 474c-.9.3-2.6.2-3.7-.1-1.1-.3-1.3-.8-.4-1.1l50.6-15.9c.9-.3 2.6-.2 3.7.1 1.1.3 1.3.8.4 1.1zM392.3 500.2l-13.1 4.1c-.9.3-2.6.2-3.7-.1-1.1-.3-1.3-.8-.4-1.1l13.1-4.1c.9-.3 2.6-.2 3.7.1 1.2.3 1.3.8.4 1.1zM587.9 438.7l-13.7 4.3c-.9.3-2.6.2-3.7-.1-1.1-.3-1.3-.8-.4-1.1l13.7-4.3c.9-.3 2.6-.2 3.7.1 1.2.3 1.3.8.4 1.1zM408.2 501.4l-37.8 11.9c-.9.3-2.6.2-3.7-.1-1.1-.3-1.3-.8-.4-1.1l37.8-11.9c.9-.3 2.6-.2 3.7.1 1.2.3 1.4.8.4 1.1zM382.2 522.2l-15.7 4.9c-.9.3-2.6.2-3.7-.1-1.1-.3-1.3-.8-.4-1.1l15.7-4.9c.9-.3 2.6-.2 3.7.1 1.2.3 1.4.8.4 1.1zM473.3 493.6l-27.7 8.7c-.9.3-2.6.2-3.7-.1-1.1-.3-1.3-.8-.4-1.1l27.7-8.7c.9-.3 2.6-.2 3.7.1 1.2.3 1.4.8.4 1.1zM585.2 464.6l-35.3 11.1c-.9.3-2.6.2-3.7-.1-1.1-.3-1.3-.8-.4-1.1l35.3-11.1c.9-.3 2.6-.2 3.7.1 1.2.3 1.4.8.4 1.1zM449.8 513.4l-19.9 6.2c-.9.3-2.6.2-3.7-.1-1.1-.3-1.3-.8-.4-1.1l19.9-6.2c.9-.3 2.6-.2 3.7.1 1.2.3 1.4.8.4 1.1zM560.7 478.5l-12.6 4c-.9.3-2.6.2-3.7-.1-1.1-.3-1.3-.8-.4-1.1l12.6-4c.9-.3 2.6-.2 3.7.1 1.1.3 1.3.8.4 1.1zM512.5 506.1l-19 6c-.9.3-2.6.2-3.7-.1-1.1-.3-1.3-.8-.4-1.1l19-6c.9-.3 2.6-.2 3.7.1 1.1.3 1.3.8.4 1.1zM658.7 460.1l-35.3 11.1c-.9.3-2.6.2-3.7-.1-1.1-.3-1.3-.8-.4-1.1l35.3-11.1c.9-.3 2.6-.2 3.7.1 1.2.3 1.4.8.4 1.1zM538.8 504l-35.3 11.1c-.9.3-2.6.2-3.7-.1-1.1-.3-1.3-.8-.4-1.1l35.3-11.1c.9-.3 2.6-.2 3.7.1 1.2.3 1.3.8.4 1.1zM625.5 476.8l-20.1 6.3c-.9.3-2.6.2-3.7-.1-1.1-.3-1.3-.8-.4-1.1l20.1-6.3c.9-.3 2.6-.2 3.7.1 1.1.3 1.3.8.4 1.1zM678.9 466.2l-13.7 4.3c-.9.3-2.6.2-3.7-.1-1.1-.3-1.3-.8-.4-1.1l13.7-4.3c.9-.3 2.6-.2 3.7.1 1.1.3 1.3.8.4 1.1zM558.9 510.1l-51.7 16.3c-.9.3-2.6.2-3.7-.1-1.1-.3-1.3-.8-.4-1.1l51.7-16.3c.9-.3 2.6-.2 3.7.1 1.2.3 1.3.8.4 1.1zM291.3 494.7l-15.7 4.9c-.9.3-2.6.2-3.7-.1-1.1-.3-1.3-.8-.4-1.1l15.7-4.9c.9-.3 2.6-.2 3.7.1 1.2.3 1.3.8.4 1.1zM382.4 466.1l-27.7 8.7c-.9.3-2.6.2-3.7-.1-1.1-.3-1.3-.8-.4-1.1l27.7-8.7c.9-.3 2.6-.2 3.7.1 1.1.3 1.3.8.4 1.1zM440.9 447.7l-50.5 15.9c-.9.3-2.6.2-3.7-.1-1.1-.3-1.3-.8-.4-1.1l50.5-15.9c.9-.3 2.6-.2 3.7.1 1.2.3 1.3.8.4 1.1zM262.8 502.4c1.6.5 1.8 1.2.5 1.6-1.3.4-3.6.4-5.2-.1s-1.8-1.2-.5-1.6c1.3-.4 3.6-.4 5.2.1zM400.4 466.6l-54 17c-.9.3-2.6.2-3.7-.1-1.1-.3-1.3-.8-.4-1.1l54-17c.9-.3 2.6-.2 3.7.1 1.1.3 1.3.8.4 1.1zM451 450.7l-42.6 13.4c-.9.3-2.6.2-3.7-.1-1.1-.3-1.3-.8-.4-1.1l42.6-13.4c.9-.3 2.6-.2 3.7.1 1.1.3 1.3.8.4 1.1zM272.8 505.5c1.6.5 1.8 1.2.5 1.6-1.3.4-3.6.4-5.2-.1s-1.8-1.2-.5-1.6c1.3-.5 3.7-.4 5.2.1zM358.9 485.9l-19.9 6.2c-.9.3-2.6.2-3.7-.1-1.1-.3-1.3-.8-.4-1.1l19.9-6.2c.9-.3 2.6-.2 3.7.1 1.1.3 1.3.8.4 1.1zM417.7 467.4l-50.8 16c-.9.3-2.6.2-3.7-.1-1.1-.3-1.3-.8-.4-1.1l50.8-16c.9-.3 2.6-.2 3.7.1 1.1.3 1.3.8.4 1.1zM504.3 440.1L457.1 455c-.9.3-2.6.2-3.7-.1-1.1-.3-1.3-.8-.4-1.1l47.3-14.9c.9-.3 2.6-.2 3.7.1 1.1.3 1.3.8.3 1.1zM282.9 508.5c1.6.5 1.8 1.2.5 1.6-1.3.4-3.6.4-5.2-.1s-1.8-1.2-.5-1.6c1.3-.4 3.6-.4 5.2.1zM427.7 470.4l-35.3 11.1c-.9.3-2.6.2-3.7-.1-1.1-.3-1.3-.8-.4-1.1l35.3-11.1c.9-.3 2.6-.2 3.7.1 1.2.3 1.3.8.4 1.1zM471.1 456.8l-35.3 11.1c-.9.3-2.6.2-3.7-.1-1.1-.3-1.3-.8-.4-1.1l35.3-11.1c.9-.3 2.6-.2 3.7.1 1.1.3 1.3.8.4 1.1zM293 511.5c1.6.5 1.8 1.2.5 1.6-1.3.4-3.6.4-5.2-.1s-1.8-1.2-.5-1.6c1.3-.4 3.6-.3 5.2.1zM469.2 463.6l-39.7 12.5c-.9.3-2.6.2-3.7-.1-1.1-.3-1.3-.8-.4-1.1l39.7-12.5c.9-.3 2.6-.2 3.7.1 1.1.3 1.3.8.4 1.1zM524.5 446.2l-47.3 14.9c-.9.3-2.6.2-3.7-.1-1.1-.3-1.3-.8-.4-1.1l47.3-14.9c.9-.3 2.6-.2 3.7.1 1.1.3 1.3.8.4 1.1zM303 514.6c1.6.5 1.8 1.2.5 1.6-1.3.4-3.6.4-5.2-.1s-1.8-1.2-.5-1.6c1.3-.4 3.6-.4 5.2.1zM447.8 476.5l-35.3 11.1c-.9.3-2.6.2-3.7-.1-1.1-.3-1.3-.8-.4-1.1l35.3-11.1c.9-.3 2.6-.2 3.7.1 1.2.3 1.4.8.4 1.1zM534.5 449.2l-20.1 6.3c-.9.3-2.6.2-3.7-.1-1.1-.3-1.3-.8-.4-1.1l20.1-6.3c.9-.3 2.6-.2 3.7.1 1.2.4 1.3.9.4 1.1zM313.1 517.6c1.6.5 1.8 1.2.5 1.6-1.3.4-3.6.4-5.2-.1s-1.8-1.2-.5-1.6c1.3-.4 3.6-.3 5.2.1zM446.4 483.2l-46.1 14.5c-.9.3-2.6.2-3.7-.1-1.1-.3-1.3-.8-.4-1.1l46.1-14.5c.9-.3 2.6-.2 3.7.1 1.2.3 1.3.8.4 1.1zM501.2 465.9l-46.8 14.7c-.9.3-2.6.2-3.7-.1-1.1-.3-1.3-.8-.4-1.1l46.8-14.7c.9-.3 2.6-.2 3.7.1 1.2.3 1.4.8.4 1.1zM566.2 445.5l-57 17.9c-.9.3-2.6.2-3.7-.1-1.1-.3-1.3-.8-.4-1.1l57-17.9c.9-.3 2.6-.2 3.7.1 1.2.3 1.3.8.4 1.1zM323.1 520.7c1.6.5 1.8 1.2.5 1.6-1.3.4-3.6.4-5.2-.1s-1.8-1.2-.5-1.6c1.3-.5 3.7-.4 5.2.1zM362.4 515.8l-16.5 5.2c-.9.3-2.6.2-3.7-.1-1.1-.3-1.3-.8-.4-1.1l16.5-5.2c.9-.3 2.6-.2 3.7.1 1.2.3 1.3.8.4 1.1zM468 482.6l-51.7 16.3c-.9.3-2.6.2-3.7-.1-1.1-.3-1.3-.8-.4-1.1l51.7-16.3c.9-.3 2.6-.2 3.7.1 1.1.3 1.3.8.4 1.1zM333.2 523.7c1.6.5 1.8 1.2.5 1.6-1.3.4-3.6.4-5.2-.1s-1.8-1.2-.5-1.6c1.3-.4 3.6-.4 5.2.1zM343.2 526.8c1.6.5 1.8 1.2.5 1.6-1.3.4-3.6.4-5.2-.1s-1.8-1.2-.5-1.6c1.3-.5 3.7-.4 5.2.1zM437.6 504.8l-47.4 14.9c-.9.3-2.6.2-3.7-.1-1.1-.3-1.3-.8-.4-1.1l47.4-14.9c.9-.3 2.6-.2 3.7.1 1.2.3 1.4.8.4 1.1zM531.9 475.2l-50.5 15.9c-.9.3-2.6.2-3.7-.1-1.1-.3-1.3-.8-.4-1.1l50.5-15.9c.9-.3 2.6-.2 3.7.1 1.1.3 1.3.8.4 1.1zM353.7 529.9c1.6.5 1.8 1.2.5 1.6s-3.6.4-5.2-.1-1.8-1.2-.5-1.6c1.3-.4 3.7-.3 5.2.1zM429.3 513.6l-9.4 3c-.9.3-2.6.2-3.7-.1-1.1-.3-1.3-.8-.4-1.1l9.4-3c.9-.3 2.6-.2 3.7.1 1.1.3 1.3.8.4 1.1zM491.3 494.1l-54 17c-.9.3-2.6.2-3.7-.1-1.1-.3-1.3-.8-.4-1.1l54-17c.9-.3 2.6-.2 3.7.1 1.2.3 1.3.8.4 1.1zM541.9 478.2l-42.6 13.4c-.9.3-2.6.2-3.7-.1-1.1-.3-1.3-.8-.4-1.1l42.6-13.4c.9-.3 2.6-.2 3.7.1 1.2.3 1.3.8.4 1.1zM363.8 533c1.6.5 1.8 1.2.5 1.6-1.3.4-3.6.4-5.2-.1s-1.8-1.2-.5-1.6 3.6-.4 5.2.1zM508.6 494.9l-50.8 16c-.9.3-2.6.2-3.7-.1-1.1-.3-1.3-.8-.4-1.1l50.8-16c.9-.3 2.6-.2 3.7.1 1.2.3 1.3.8.4 1.1zM540 485l-23.4 7.3c-.9.3-2.6.2-3.7-.1-1.1-.3-1.3-.8-.4-1.1l23.4-7.3c.9-.3 2.6-.2 3.7.1 1.2.3 1.3.8.4 1.1zM373.9 536c1.6.5 1.8 1.2.5 1.6-1.3.4-3.6.4-5.2-.1s-1.8-1.2-.5-1.6c1.3-.4 3.6-.3 5.2.1zM518.7 497.9L483.4 509c-.9.3-2.6.2-3.7-.1-1.1-.3-1.3-.8-.4-1.1l35.3-11.1c.9-.3 2.6-.2 3.7.1 1.1.3 1.3.8.4 1.1zM562 484.3l-35.3 11.1c-.9.3-2.6.2-3.7-.1-1.1-.3-1.3-.8-.4-1.1l35.3-11.1c.9-.3 2.6-.2 3.7.1 1.2.3 1.3.8.4 1.1zM383.9 539.1c1.6.5 1.8 1.2.5 1.6s-3.6.4-5.2-.1-1.8-1.2-.5-1.6c1.3-.5 3.6-.4 5.2.1zM560.1 491.1l-39.7 12.5c-.9.3-2.6.2-3.7-.1-1.1-.3-1.3-.8-.4-1.1l39.7-12.5c.9-.3 2.6-.2 3.7.1 1.2.3 1.3.8.4 1.1zM615.4 473.7l-47.3 14.9c-.9.3-2.6.2-3.7-.1-1.1-.3-1.3-.8-.4-1.1l47.3-14.9c.9-.3 2.6-.2 3.7.1 1.2.3 1.3.8.4 1.1zM394 542.1c1.6.5 1.8 1.2.5 1.6-1.3.4-3.6.4-5.2-.1s-1.8-1.2-.5-1.6 3.6-.4 5.2.1zM597.4 485.6l-50.6 15.9c-.9.3-2.6.2-3.7-.1-1.1-.3-1.3-.8-.4-1.1l50.6-15.9c.9-.3 2.6-.2 3.7.1 1.2.3 1.3.8.4 1.1zM404 545.2c1.6.5 1.8 1.2.5 1.6-1.3.4-3.6.4-5.2-.1s-1.8-1.2-.5-1.6c1.3-.5 3.6-.4 5.2.1zM483.3 527.7l-13.1 4.1c-.9.3-2.6.2-3.7-.1-1.1-.3-1.3-.8-.4-1.1l13.1-4.1c.9-.3 2.6-.2 3.7.1 1.1.3 1.3.8.4 1.1zM537.4 510.7l-46.1 14.5c-.9.3-2.6.2-3.7-.1-1.1-.3-1.3-.8-.4-1.1l46.1-14.5c.9-.3 2.6-.2 3.7.1 1.1.3 1.3.8.4 1.1zM592.2 493.4l-46.8 14.7c-.9.3-2.6.2-3.7-.1-1.1-.3-1.3-.8-.4-1.1l46.8-14.7c.9-.3 2.6-.2 3.7.1 1.1.3 1.3.9.4 1.1zM657.1 473l-57 17.9c-.9.3-2.6.2-3.7-.1-1.1-.3-1.3-.8-.4-1.1l57-17.9c.9-.3 2.6-.2 3.7.1 1.2.3 1.4.8.4 1.1zM414.1 548.2c1.6.5 1.8 1.2.5 1.6s-3.6.4-5.2-.1-1.8-1.2-.5-1.6c1.3-.4 3.6-.4 5.2.1zM453.4 543.3l-16.5 5.2c-.9.3-2.6.2-3.7-.1-1.1-.3-1.3-.8-.4-1.1l16.5-5.2c.9-.3 2.6-.2 3.7.1 1.1.3 1.3.8.4 1.1zM499.2 528.9l-37.8 11.9c-.9.3-2.6.2-3.7-.1-1.1-.3-1.3-.8-.4-1.1l37.8-11.9c.9-.3 2.6-.2 3.7.1 1.2.3 1.3.8.4 1.1zM424.1 551.2c1.6.5 1.8 1.2.5 1.6-1.3.4-3.6.4-5.2-.1s-1.8-1.2-.5-1.6 3.7-.3 5.2.1zM434.2 554.3c1.6.5 1.8 1.2.5 1.6-1.3.4-3.6.4-5.2-.1s-1.8-1.2-.5-1.6c1.3-.4 3.6-.4 5.2.1zM469.1 550.1l-13.1 4.1c-.9.3-2.6.2-3.7-.1-1.1-.3-1.3-.8-.4-1.1l13.1-4.1c.9-.3 2.6-.2 3.7.1 1.2.4 1.3.9.4 1.1zM523.2 533.1l-46.1 14.5c-.9.3-2.6.2-3.7-.1-1.1-.3-1.3-.8-.4-1.1l46.1-14.5c.9-.3 2.6-.2 3.7.1 1.2.3 1.3.9.4 1.1zM443.3 557c1.6.5 1.8 1.2.5 1.6-1.3.4-3.6.4-5.2-.1s-1.8-1.2-.5-1.6c1.3-.4 3.6-.3 5.2.1zM482.6 552.1l-16.5 5.2c-.9.3-2.6.2-3.7-.1-1.1-.3-1.3-.8-.4-1.1l16.5-5.2c.9-.3 2.6-.2 3.7.1 1.1.3 1.3.8.4 1.1zM559.4 528l-68.8 21.6c-.9.3-2.6.2-3.7-.1-1.1-.3-1.3-.8-.4-1.1l68.8-21.6c.9-.3 2.6-.2 3.7.1 1.1.3 1.3.8.4 1.1zM588.1 518.9l-20.7 6.5c-.9.3-2.6.2-3.7-.1-1.1-.3-1.3-.8-.4-1.1l20.7-6.5c.9-.3 2.6-.2 3.7.1 1.1.3 1.3.9.4 1.1zM453.3 560.1c1.6.5 1.8 1.2.5 1.6-1.3.4-3.6.4-5.2-.1s-1.8-1.2-.5-1.6c1.3-.5 3.6-.4 5.2.1z"/><g><path class="st4" d="M463.4 563.1c1.6.5 1.8 1.2.5 1.6-1.3.4-3.6.4-5.2-.1s-1.8-1.2-.5-1.6c1.3-.4 3.6-.4 5.2.1z"/></g></g><path class="st5" d="M328.7 338.7L171 388l294.7 92.8 157.7-49.2z"/><g><linearGradient id="SVGID_4_" gradientUnits="userSpaceOnUse" x1="394.123" y1="431.264" x2="394.123" y2="164.516"><stop offset="0" stop-color="#FCFCFE"/><stop offset=".97" stop-color="#C6C6EF"/></linearGradient><path class="st6" d="M328.6 164.5L0 267.7l459.7 163.6L788.2 309z"/><linearGradient id="SVGID_5_" gradientUnits="userSpaceOnUse" x1="459.69" y1="370.157" x2="788.246" y2="370.157"><stop offset="0" stop-color="#FCFCFE"/><stop offset=".97" stop-color="#C6C6EF"/></linearGradient><path class="st7" d="M459.7 431.3l328.5-103.2V309L459.7 412.2z"/><path class="st8" d="M459.7 431.3L0 286.7v-19l459.7 144.5z"/></g><g><g class="st9"><path class="st10" d="M447.6 268.1l-34.3 10.2c-1.1.3-3.2.2-4.7-.3s-1.8-1.1-.7-1.5l34.3-10.2c1.1-.3 3.2-.2 4.7.3 1.5.6 1.8 1.2.7 1.5zM441.4 276.1l-18.1 5.4c-1.1.3-3.2.2-4.7-.3s-1.8-1.1-.7-1.5l18.1-5.4c1.1-.3 3.2-.2 4.7.3 1.5.6 1.8 1.2.7 1.5z"/></g><path class="st10" d="M383.9 258.5l6.1 1.9c17.1-5.1 50.2-3.2 73.8 4.3l4.4-1.3c-27-8.5-64.7-10.7-84.3-4.9z"/><path class="st11" d="M463.8 264.7c23.6 7.5 28.8 17.6 11.7 22.7-16.4 4.9-47.5 3.3-70.8-3.4-1.7-.5-3.9-.6-5.1-.3-1.3.4-.8 1.2 1 1.7 26.7 7.7 62.2 9.5 81 3.9 19.6-5.8 13.6-17.4-13.4-26l-4.4 1.4z"/><g class="st9"><path class="st10" d="M472.8 346.6l-34.3 10.2c-1.1.3-3.2.2-4.7-.3s-1.8-1.1-.7-1.5l34.3-10.2c1.1-.3 3.2-.2 4.7.3 1.4.6 1.8 1.2.7 1.5zM466.5 354.6l-18.1 5.4c-1.1.3-3.2.2-4.7-.3s-1.8-1.1-.7-1.5l18.1-5.4c1.1-.3 3.2-.2 4.7.3s1.8 1.2.7 1.5z"/></g><path class="st10" d="M409 337l6.1 1.9c17.1-5.1 50.2-3.2 73.8 4.3l4.4-1.3c-26.9-8.5-64.7-10.7-84.3-4.9z"/><path class="st11" d="M488.9 343.2c23.6 7.5 28.8 17.6 11.7 22.7-16.4 4.9-47.5 3.3-70.8-3.4-1.7-.5-3.9-.6-5.1-.3-1.3.4-.8 1.2 1 1.7 26.7 7.7 62.2 9.5 81 3.9 19.6-5.8 13.6-17.4-13.4-26l-4.4 1.4z"/><g><g class="st9"><path class="st10" d="M313.3 225.7L279 235.9c-1.1.3-3.2.2-4.7-.3s-1.8-1.1-.7-1.5l34.3-10.2c1.1-.3 3.2-.2 4.7.3s1.8 1.2.7 1.5zM307.1 233.7l-18.1 5.4c-1.1.3-3.2.2-4.7-.3s-1.8-1.1-.7-1.5l18.1-5.4c1.1-.3 3.2-.2 4.7.3s1.8 1.2.7 1.5z"/></g><path class="st11" d="M267.4 240.8c-10.8-3.4-17.7-7.4-20.4-11.2-.4-.6-2.3-1.2-4.3-1.3-2.2-.1-3.6.3-3.1 1 3.1 4.3 11.1 8.9 23.4 12.8 27 8.5 64.7 10.7 84.3 4.9l-6.1-1.9c-17.2 5-50.2 3.1-73.8-4.3z"/><path class="st10" d="M249.6 216.1l6.1 1.9c17.1-5.1 50.2-3.2 73.8 4.3 11.8 3.7 19 8.1 21.1 12.2 2.1 4.1-.9 7.9-9.4 10.5l6.1 1.9c9.8-2.9 13.2-7.3 10.8-12-2.4-4.7-10.7-9.7-24.1-14-27.1-8.4-64.8-10.6-84.4-4.8z"/></g><g><g class="st9"><path class="st10" d="M582.8 310.9L548.5 321c-1.1.3-3.2.2-4.7-.3s-1.8-1.1-.7-1.5l34.3-10.2c1.1-.3 3.2-.2 4.7.3 1.4.6 1.8 1.2.7 1.6zM576.6 318.8l-18.1 5.4c-1.1.3-3.2.2-4.7-.3s-1.8-1.1-.7-1.5l18.1-5.4c1.1-.3 3.2-.2 4.7.3 1.4.6 1.8 1.2.7 1.5z"/></g><path class="st11" d="M536.9 325.9c-10.8-3.4-17.7-7.4-20.4-11.2-.4-.6-2.3-1.2-4.3-1.3-2.2-.1-3.6.3-3.1 1 3.1 4.3 11.1 8.9 23.4 12.8 27 8.5 64.7 10.7 84.3 4.9l-6.1-1.9c-17.2 5.1-50.3 3.1-73.8-4.3z"/><path class="st10" d="M519.1 301.2l6.1 1.9c17.1-5.1 50.2-3.2 73.8 4.3 11.8 3.7 19 8.1 21.1 12.2 2.1 4.1-.9 7.9-9.4 10.5l6.1 1.9c9.8-2.9 13.2-7.3 10.8-12-2.4-4.7-10.7-9.7-24.1-14-27.1-8.4-64.8-10.6-84.4-4.8z"/></g><g><g class="st9"><path class="st10" d="M338 303.9l-34.3 10.2c-1.1.3-3.2.2-4.7-.3s-1.8-1.1-.7-1.5l34.3-10.2c1.1-.3 3.2-.2 4.7.3 1.4.5 1.8 1.2.7 1.5zM331.8 311.9l-18.1 5.4c-1.1.3-3.2.2-4.7-.3s-1.8-1.1-.7-1.5l18.1-5.4c1.1-.3 3.2-.2 4.7.3 1.4.5 1.8 1.1.7 1.5z"/></g><path class="st10" d="M354.1 300.5c11.8 3.7 19 8.1 21.1 12.2l7.5.4c-2.4-4.7-10.7-9.7-24.1-14-27-8.5-64.7-10.7-84.3-4.9l6.1 1.9c17.1-5 50.1-3.1 73.7 4.4z"/><path class="st11" d="M375.2 312.7c1.9 3.8-.4 7.3-7.4 9.8-1.1.4-.7 1.1 1 1.6 1.8.6 4.2.7 5.4.3 8.1-2.9 10.8-6.9 8.5-11.2l-7.5-.5z"/></g><g><path class="st10" d="M178.9 259.2l-5.2 1c-1.3-.3-2.6-.5-3.9-.7l-2.2-2.3c-.4-.4-1.6-.8-2.9-.8l-4.3-.3c-1.3-.1-2.2.1-2.2.5l.1 2.2c-1.2 0-2.4.1-3.5.3l-6.6-1.7c-1.1-.3-2.6-.3-3.3-.1l-2.6.8c-.8.2-.6.7.3 1l5.3 2.1c-.5.3-.8.7-.9 1l-7.1-.1c-1.2 0-2 .3-1.8.7l.7 1.3c.2.4 1.3.8 2.6.9l7.4.8c.6.4 1.3.8 2.1 1.2l-3.5 1.6c-.6.3-.3.7.8 1l3.6 1.1c1 .3 2.5.4 3.4.3l5.2-1c1.3.3 2.6.5 3.9.7l2.2 2.3c.4.4 1.6.8 2.9.8l4.3.3c1.3.1 2.2-.1 2.2-.5l-.1-2.2c1.2 0 2.4-.1 3.5-.3l6.6 1.7c1.1.3 2.6.3 3.3.1l2.6-.8c.8-.2.6-.7-.3-1l-5.3-2.1c.5-.3.8-.7.9-1l7.1.1c1.2 0 2-.3 1.8-.7l-.7-1.3c-.2-.4-1.3-.8-2.6-.9l-7.4-.8c-.6-.4-1.3-.8-2.1-1.2l3.5-1.6c.6-.3.3-.7-.8-1l-3.6-1.1c-1.1-.4-2.5-.5-3.4-.3zm-2.4 8.9c-3.8 1.1-11.2.7-16.4-1-5.3-1.7-6.4-3.9-2.6-5.1 3.8-1.1 11.2-.7 16.4 1s6.4 3.9 2.6 5.1z"/><path class="st10" d="M241.8 264.8l-6.8.2c-1-.4-2.1-.7-3.3-1l.6-2.1c.1-.4-.8-.8-2-1l-4.3-.7c-1.3-.2-2.5-.1-3 .2l-2.7 1.7c-1.3-.1-2.7-.2-4-.2l-4.8-2.1c-.8-.4-2.3-.6-3.4-.5l-3.7.3c-1.1.1-1.5.4-1 .8l3 2.3c-.9.2-1.7.5-2.3.7l-7.4-.9c-1.3-.2-2.5 0-2.7.3l-1 1.2c-.3.3.4.8 1.6 1l6.9 1.5c.1.4.3.8.7 1.2l-5.6.8c-1 .1-1.2.5-.5.9l2.4 1.3c.7.4 2.1.7 3.2.6l6.8-.2c1 .4 2.1.7 3.3 1l-.6 2.1c-.1.4.8.8 2 1l4.3.7c1.3.2 2.5.1 3-.2l2.7-1.7c1.3.1 2.7.2 4 .2l4.8 2.1c.8.4 2.3.6 3.4.5l3.7-.3c1.1-.1 1.5-.4 1-.8l-3-2.3c.9-.2 1.7-.5 2.3-.7l7.4.9c1.3.2 2.5 0 2.7-.3l1-1.2c.3-.3-.4-.8-1.6-1l-6.9-1.5c-.1-.4-.3-.8-.7-1.2l5.6-.8c1-.1 1.2-.5.5-.9l-2.4-1.3c-.6-.4-2-.7-3.2-.6zm-13.7 6.8c-5.5.4-12.8-.8-16.2-2.7-3.5-2-1.9-3.9 3.6-4.4 5.5-.4 12.8.8 16.2 2.7 3.5 2 1.9 3.9-3.6 4.4z"/></g></g><path class="st12" d="M328.7 166.5L171 215.7l294.7 92.9 157.7-49.3z"/><g><linearGradient id="SVGID_6_" gradientUnits="userSpaceOnUse" x1="394.123" y1="266.873" x2="394.123"><stop offset="0" stop-color="#FFEF8F"/><stop offset="1" stop-color="#FECE5B"/></linearGradient><path class="st13" d="M328.6 0L0 103.1l459.7 163.8 328.5-122.4z"/><linearGradient id="SVGID_7_" gradientUnits="userSpaceOnUse" x1="459.69" y1="205.641" x2="788.246" y2="205.641"><stop offset="0" stop-color="#FFEF8F"/><stop offset="1" stop-color="#FECE5B"/></linearGradient><path class="st14" d="M459.7 266.7l328.5-103.1v-19.1L459.7 247.7z"/><linearGradient id="SVGID_8_" gradientUnits="userSpaceOnUse" y1="184.948" x2="459.69" y2="184.948"><stop offset="0" stop-color="#FCB43A"/><stop offset="1" stop-color="#FEDD4E"/></linearGradient><path class="st15" d="M459.7 266.7L0 122.2v-19.1l459.7 144.6z"/></g><g class="st16"><g class="st17"><path class="st18" d="M788.2 494.6"/><path class="st19" d="M788.2 490.6V167.2"/><path class="st18" d="M788.2 165.2"/></g><g class="st17"><path class="st18" d="M459.7 268.3"/><path class="st19" d="M459.7 272.3v323.4"/><path class="st18" d="M459.7 597.7"/></g><path class="st18" d="M0 453.2"/><path class="st19" d="M0 449.2V125.8"/><path class="st18" d="M0 123.8"/></g><g><linearGradient id="SVGID_9_" gradientUnits="userSpaceOnUse" x1="402.834" y1="34.778" x2="402.834" y2="234.795"><stop offset="0" stop-color="#FCB43A"/><stop offset="1" stop-color="#FEDD4E"/></linearGradient><path class="st20" d="M439.7 177.3l-57.6 17.6c-2.6.8-6.2 1-8 .5l-9.5-2.8c-1.8-.5-1.2-1.6 1.4-2.4l57.6-17.6c2.6-.8 6.2-1 8-.5l9.5 2.8c1.8.5 1.2 1.6-1.4 2.4z"/><linearGradient id="SVGID_10_" gradientUnits="userSpaceOnUse" x1="504.601" y1="34.778" x2="504.601" y2="234.795"><stop offset="0" stop-color="#FCB43A"/><stop offset="1" stop-color="#FEDD4E"/></linearGradient><path class="st21" d="M551 143.2l-76.7 23.5c-2.6.8-6.2 1-8 .5l-9.5-2.8c-1.8-.5-1.2-1.6 1.4-2.4l76.7-23.5c2.6-.8 6.2-1 8-.5l9.5 2.8c1.8.5 1.2 1.6-1.4 2.4z"/><linearGradient id="SVGID_11_" gradientUnits="userSpaceOnUse" x1="597.977" y1="34.778" x2="597.977" y2="234.795"><stop offset="0" stop-color="#FCB43A"/><stop offset="1" stop-color="#FEDD4E"/></linearGradient><path class="st22" d="M630.3 118.9l-48.6 14.9c-2.6.8-6.2 1-8 .5l-9.5-2.8c-1.8-.5-1.2-1.6 1.4-2.4l48.6-14.9c2.6-.8 6.2-1 8-.5l9.5 2.8c1.9.5 1.3 1.6-1.4 2.4z"/><linearGradient id="SVGID_12_" gradientUnits="userSpaceOnUse" x1="424.692" y1="34.778" x2="424.692" y2="234.795"><stop offset="0" stop-color="#FCB43A"/><stop offset="1" stop-color="#FEDD4E"/></linearGradient><path class="st23" d="M455.1 189.6l-44.8 13.7c-2.6.8-6.2 1-8 .5l-9.5-2.8c-1.8-.5-1.2-1.6 1.4-2.4l44.8-13.7c2.6-.8 6.2-1 8-.5l9.5 2.8c1.9.5 1.2 1.6-1.4 2.4z"/><linearGradient id="SVGID_13_" gradientUnits="userSpaceOnUse" x1="494.554" y1="34.778" x2="494.554" y2="234.795"><stop offset="0" stop-color="#FCB43A"/><stop offset="1" stop-color="#FEDD4E"/></linearGradient><path class="st24" d="M520.3 169.6L485 180.4c-2.6.8-6.2 1-8 .5l-9.5-2.8c-1.8-.5-1.2-1.6 1.4-2.4l35.3-10.8c2.6-.8 6.2-1 8-.5l9.5 2.8c1.8.5 1.2 1.6-1.4 2.4z"/><linearGradient id="SVGID_14_" gradientUnits="userSpaceOnUse" x1="571.623" y1="34.778" x2="571.623" y2="234.795"><stop offset="0" stop-color="#FCB43A"/><stop offset="1" stop-color="#FEDD4E"/></linearGradient><path class="st25" d="M609.3 142.4L550 160.5c-2.6.8-6.2 1-8 .5l-9.5-2.8c-1.8-.5-1.2-1.6 1.4-2.4l59.2-18.1c2.6-.8 6.2-1 8-.5l9.5 2.8c2 .5 1.3 1.6-1.3 2.4z"/><g><linearGradient id="SVGID_15_" gradientUnits="userSpaceOnUse" x1="476.819" y1="34.778" x2="476.819" y2="234.795"><stop offset="0" stop-color="#FCB43A"/><stop offset="1" stop-color="#FEDD4E"/></linearGradient><path class="st26" d="M531.1 183.3l-92.5 28.3c-2.6.8-6.2 1-8 .5l-9.5-2.8c-1.8-.5-1.2-1.6 1.4-2.4l92.5-28.3c2.6-.8 6.2-1 8-.5l9.5 2.8c1.9.6 1.2 1.6-1.4 2.4z"/><linearGradient id="SVGID_16_" gradientUnits="userSpaceOnUse" x1="601.864" y1="34.778" x2="601.864" y2="234.795"><stop offset="0" stop-color="#FCB43A"/><stop offset="1" stop-color="#FEDD4E"/></linearGradient><path class="st27" d="M657 144.8l-94.2 28.8c-2.6.8-6.2 1-8 .5l-9.5-2.8c-1.8-.5-1.2-1.6 1.4-2.4l94.2-28.8c2.6-.8 6.2-1 8-.5l9.5 2.8c1.8.5 1.2 1.6-1.4 2.4z"/></g><g><linearGradient id="SVGID_17_" gradientUnits="userSpaceOnUse" x1="201.406" y1="34.778" x2="201.406" y2="234.795"><stop offset="0" stop-color="#FCB43A"/><stop offset="1" stop-color="#FEDD4E"/></linearGradient><path class="st28" d="M190.8 128.2l9.9.5c.7 0 1.5-.1 2.2-.2L213 126c1.7-.4 3.7-.2 3.4.4l-2.2 3.4c-.1.2.1.4.6.5l7.9 1.4c1.4.2.5 1-1.4 1.3l-11.2 1.6c-.8.1-1.4.3-1.8.6l-5.2 3.4c-.9.6-3.4.8-4.2.4l-4.8-2.4c-.3-.2-1-.2-1.7-.2l-11.2.7c-1.9.1-2.6-.5-1.2-1l8.3-3.1c.6-.2.8-.5.7-.7l-1.7-3c-.2-.6 1.8-1.2 3.5-1.1z"/><linearGradient id="SVGID_18_" gradientUnits="userSpaceOnUse" x1="254.434" y1="34.778" x2="254.434" y2="234.795"><stop offset="0" stop-color="#FCB43A"/><stop offset="1" stop-color="#FEDD4E"/></linearGradient><path class="st29" d="M243.9 111.9l9.9.5c.7 0 1.5-.1 2.2-.2l10.1-2.5c1.7-.4 3.7-.2 3.4.4l-2.2 3.4c-.1.2.1.4.6.5l7.9 1.4c1.4.2.5 1-1.4 1.3l-11.2 1.6c-.8.1-1.4.3-1.8.6l-5.2 3.4c-.9.6-3.4.8-4.2.4l-4.8-2.4c-.3-.2-1-.2-1.7-.2l-11.2.7c-1.9.1-2.6-.5-1.2-1l8.3-3.1c.6-.2.8-.5.7-.7l-1.7-3c-.3-.5 1.8-1.1 3.5-1.1z"/><linearGradient id="SVGID_19_" gradientUnits="userSpaceOnUse" x1="307.462" y1="34.778" x2="307.462" y2="234.795"><stop offset="0" stop-color="#FCB43A"/><stop offset="1" stop-color="#FEDD4E"/></linearGradient><path class="st30" d="M296.9 95.7l9.9.5c.7 0 1.5-.1 2.2-.2l10.1-2.5c1.7-.4 3.7-.2 3.4.4l-2.2 3.4c-.1.2.1.4.6.5l7.9 1.4c1.4.2.5 1-1.4 1.3l-11.2 1.6c-.8.1-1.4.3-1.8.6l-5.2 3.4c-.9.6-3.4.8-4.2.4l-4.8-2.4c-.3-.2-1-.2-1.7-.2l-11.2.7c-1.9.1-2.6-.5-1.2-1l8.3-3.1c.6-.2.8-.5.7-.7l-1.7-3c-.3-.5 1.8-1.2 3.5-1.1z"/><linearGradient id="SVGID_20_" gradientUnits="userSpaceOnUse" x1="360.491" y1="34.778" x2="360.491" y2="234.795"><stop offset="0" stop-color="#FCB43A"/><stop offset="1" stop-color="#FEDD4E"/></linearGradient><path class="st31" d="M349.9 79.5l9.9.5c.7 0 1.5-.1 2.2-.2l10.1-2.5c1.7-.4 3.7-.2 3.4.4l-2.2 3.4c-.1.2.1.4.6.5l7.9 1.4c1.4.2.5 1-1.4 1.3l-11.2 1.6c-.8.1-1.4.3-1.8.6l-5.2 3.4c-.9.6-3.4.8-4.2.4l-4.8-2.4c-.3-.2-1-.2-1.7-.2l-11.2.7c-1.9.1-2.6-.5-1.2-1l8.3-3.1c.6-.2.8-.5.7-.7l-1.7-3c-.2-.6 1.8-1.2 3.5-1.1z"/><linearGradient id="SVGID_21_" gradientUnits="userSpaceOnUse" x1="413.519" y1="34.778" x2="413.519" y2="234.795"><stop offset="0" stop-color="#FCB43A"/><stop offset="1" stop-color="#FEDD4E"/></linearGradient><path class="st32" d="M402.9 63.3l9.9.5c.7 0 1.5-.1 2.2-.2l10.1-2.5c1.7-.4 3.7-.2 3.4.4l-2.2 3.4c-.1.2.1.4.6.5l7.9 1.4c1.4.2.5 1-1.4 1.3l-11.2 1.6c-.8.1-1.4.3-1.8.6l-5.2 3.4c-.9.6-3.4.8-4.2.4l-4.8-2.4c-.3-.2-1-.2-1.7-.2l-11.2.7c-1.9.1-2.6-.5-1.2-1l8.3-3.1c.6-.2.8-.5.7-.7l-1.7-3c-.2-.6 1.8-1.2 3.5-1.1z"/></g><g><linearGradient id="SVGID_22_" gradientUnits="userSpaceOnUse" x1="287.676" y1="34.778" x2="287.676" y2="234.795"><stop offset="0" stop-color="#FCB43A"/><stop offset="1" stop-color="#FEDD4E"/></linearGradient><path class="st33" d="M305.4 160.8l-15.5 4.7c-3.7 1.1-8.7 1.4-11.3.7l-10.7-3.2c-2.5-.8-1.6-2.3 2-3.4l15.5-4.7c3.7-1.1 8.7-1.4 11.3-.7l10.7 3.2c2.6.7 1.7 2.3-2 3.4z"/><linearGradient id="SVGID_23_" gradientUnits="userSpaceOnUse" x1="370.196" y1="34.778" x2="370.196" y2="234.795"><stop offset="0" stop-color="#FCB43A"/><stop offset="1" stop-color="#FEDD4E"/></linearGradient><path class="st34" d="M426.6 119.5l-106.7 32.7c-2.4.7-5.8.9-7.4.4-1.7-.5-1.1-1.5 1.3-2.2l106.7-32.7c2.4-.7 5.8-.9 7.4-.4 1.7.5 1.1 1.5-1.3 2.2z"/></g><g><linearGradient id="SVGID_24_" gradientUnits="userSpaceOnUse" x1="321.193" y1="34.778" x2="321.193" y2="234.795"><stop offset="0" stop-color="#FCB43A"/><stop offset="1" stop-color="#FEDD4E"/></linearGradient><path class="st35" d="M338.9 170.7l-15.5 4.7c-3.7 1.1-8.7 1.4-11.3.7l-10.7-3.2c-2.5-.8-1.6-2.3 2-3.4l15.5-4.7c3.7-1.1 8.7-1.4 11.3-.7l10.7 3.2c2.6.8 1.7 2.3-2 3.4z"/><linearGradient id="SVGID_25_" gradientUnits="userSpaceOnUse" x1="417.62" y1="34.778" x2="417.62" y2="234.795"><stop offset="0" stop-color="#FCB43A"/><stop offset="1" stop-color="#FEDD4E"/></linearGradient><path class="st36" d="M488 120.9l-134.6 41.2c-2.4.7-5.8.9-7.4.4-1.7-.5-1.1-1.5 1.3-2.2l134.6-41.2c2.4-.7 5.8-.9 7.4-.4 1.7.5 1.1 1.5-1.3 2.2z"/></g><g><linearGradient id="SVGID_26_" gradientUnits="userSpaceOnUse" x1="360.76" y1="34.778" x2="360.76" y2="234.795"><stop offset="0" stop-color="#FCB43A"/><stop offset="1" stop-color="#FEDD4E"/></linearGradient><path class="st37" d="M441.3 94.8l-154.9 47.4c-2.4.7-5.8.9-7.4.4-1.7-.5-1.1-1.5 1.3-2.2L435.2 93c2.4-.7 5.8-.9 7.4-.4 1.7.5 1.1 1.5-1.3 2.2z"/><linearGradient id="SVGID_27_" gradientUnits="userSpaceOnUse" x1="254.16" y1="34.778" x2="254.16" y2="234.795"><stop offset="0" stop-color="#FCB43A"/><stop offset="1" stop-color="#FEDD4E"/></linearGradient><path class="st38" d="M251.9 144.9l-15.5 4.7c-3.7 1.1-4.6 2.6-2 3.4l10.7 3.2c2.5.8 7.6.5 11.3-.7l15.5-4.7c3.7-1.1 4.6-2.6 2-3.4l-10.7-3.2c-2.6-.7-7.6-.4-11.3.7zm8.6 1.6l-3.6 6-11.9.7c-1.2.1-2-.2-1.8-.5.2-.4 1.4-.7 2.5-.8l7.6-.4 2.8-4.7c.2-.4 1.4-.7 2.5-.8 1.4-.1 2.1.1 1.9.5z"/></g><linearGradient id="SVGID_28_" gradientUnits="userSpaceOnUse" x1="246.22" y1="34.778" x2="246.22" y2="234.795"><stop offset="0" stop-color="#FCB43A"/><stop offset="1" stop-color="#FEDD4E"/></linearGradient><path class="st39" d="M369.9 50.6l-210.8 64.5c-14.5 4.4-34.6 5.6-44.6 2.6-10.1-3-6.4-9 8-13.5l210.8-64.5c14.5-4.4 34.6-5.6 44.6-2.6 10.1 3 6.5 9.1-8 13.5z"/><g><path class="st40" d="M150.6 111.1c-2.9.9-6.6 1.6-10.4 1.8-7.5.4-12.6-1-11.2-3.3 1.4-2.3 8.6-4.5 16.1-4.9 7.5-.4 12.6 1 11.2 3.3-.6 1.1-2.8 2.2-5.7 3.1zm-12.8-3.8c-1.8.6-3.1 1.3-3.6 2-.8 1.4 2.3 2.3 7 2.1 4.7-.3 9.2-1.7 10-3.1.8-1.4-2.3-2.3-7-2.1-2.3.2-4.6.6-6.4 1.1z"/><path class="st40" d="M165.1 108c-.6.2-1.3.3-2 .3l-8.8.5c-1.4.1-2.4-.2-2.1-.6.3-.4 1.6-.9 3.1-.9l8.8-.5c1.4-.1 2.4.2 2.1.6-.2.2-.6.4-1.1.6z"/></g></g><g><path class="st41" d="M823.8 144.6c1.3.7 2.4 1.7 3.1 3 .8 1.3 1.1 2.7 1.1 4.2s-.4 3-1.1 4.2c-.8 1.3-1.8 2.3-3.1 3-1.3.7-2.8 1.1-4.4 1.1-1.6 0-3.1-.4-4.4-1.1-1.3-.7-2.4-1.8-3.1-3-.8-1.3-1.1-2.7-1.1-4.2s.4-3 1.1-4.2c.8-1.3 1.8-2.3 3.1-3 1.3-.7 2.8-1.1 4.4-1.1 1.6 0 3.1.3 4.4 1.1zm-7.1 2.4c-.9.5-1.5 1.2-2 2s-.7 1.8-.7 2.8.3 2 .8 2.8c.5.9 1.2 1.5 2 2s1.8.7 2.8.7c1 0 1.9-.2 2.7-.7.8-.5 1.5-1.2 2-2 .5-.9.7-1.8.7-2.8s-.2-2-.7-2.8c-.5-.8-1.1-1.5-2-2-.8-.5-1.7-.7-2.7-.7-1.1 0-2.1.2-2.9.7zM842.2 147.5v12.4h-3v-2.3c-.8 1.6-2.3 2.4-4.3 2.4-1.4 0-2.5-.4-3.3-1.3-.8-.9-1.2-2-1.2-3.5v-7.8h3v6.9c0 .9.2 1.5.7 2 .5.5 1.1.7 2 .7 1 0 1.7-.4 2.3-1 .6-.7.8-1.5.8-2.5v-6.1h3zM853.2 159.2c-1 .6-2 .9-3.1.9s-1.9-.3-2.6-.9c-.7-.6-1-1.6-1-2.8v-6.1h-1.7v-2.2h1.8v-3.4h3v3.4h3.6v2.2h-3.6v5.6c0 .6.1 1 .3 1.2.2.2.5.4 1 .4s1.1-.2 1.8-.5l.5 2.2zM870.1 148.2c1 .5 1.7 1.3 2.3 2.2.5 1 .8 2 .8 3.3 0 1.3-.3 2.4-.8 3.3-.5 1-1.3 1.7-2.3 2.2-1 .5-2.1.8-3.4.8-1.3 0-2.4-.3-3.4-.8s-1.8-1.3-2.3-2.2c-.6-1-.8-2.1-.8-3.3 0-1.2.3-2.3.8-3.3s1.3-1.7 2.3-2.2c1-.5 2.1-.8 3.4-.8 1.3 0 2.4.3 3.4.8zm-6 2.8c-.7.7-1 1.6-1 2.7s.3 2 1 2.7 1.5 1 2.6 1c1 0 1.9-.3 2.5-1s1-1.6 1-2.7-.3-2-1-2.7c-.7-.7-1.5-1-2.5-1-1.1 0-1.9.3-2.6 1zM879.7 145.6c-.3.3-.5.7-.5 1.2v1.3h3.1v2.2h-3.1v9.7h-3v-9.7h-1.6V148h1.6v-1.2c0-.9.2-1.7.6-2.3.4-.6.9-1.1 1.6-1.5.7-.3 1.4-.5 2.2-.5.8 0 1.5.2 2.3.5l-.5 2.4c-.6-.2-1.1-.4-1.5-.4-.5.2-.9.3-1.2.6zM897.1 159.2c-1 .6-2 .9-3.1.9s-1.9-.3-2.6-.9c-.7-.6-1-1.6-1-2.8v-6.1h-1.7v-2.2h1.8v-3.4h3v3.4h3.6v2.2h-3.6v5.6c0 .6.1 1 .3 1.2.2.2.5.4 1 .4s1.1-.2 1.8-.5l.5 2.2zM910.5 148.7c.8.9 1.2 2 1.2 3.5v7.8h-3v-6.9c0-.9-.2-1.6-.7-2.1-.5-.5-1.2-.8-2-.8-1 0-1.8.4-2.4 1-.6.7-.9 1.5-.9 2.6v6.1h-3v-17.2h3v7.2c.9-1.6 2.3-2.5 4.5-2.5 1.3 0 2.5.4 3.3 1.3zM924.8 149.1c1 1.1 1.5 2.7 1.5 4.8v.9h-9.2c.2.9.6 1.6 1.2 2.1s1.4.8 2.3.8c.6 0 1.2-.1 1.8-.4.6-.2 1.1-.6 1.5-1l1.6 1.7c-.6.7-1.4 1.2-2.3 1.6-.9.4-1.9.6-3 .6-1.3 0-2.4-.3-3.4-.8s-1.7-1.3-2.2-2.2-.8-2-.8-3.3c0-1.2.3-2.3.8-3.3s1.3-1.7 2.2-2.2c1-.5 2.1-.8 3.3-.8 2.2-.2 3.7.4 4.7 1.5zm-1.3 3.7c0-.9-.3-1.6-.9-2.2s-1.3-.8-2.3-.8c-.9 0-1.6.3-2.2.8-.6.5-1 1.3-1.1 2.2h6.5zM944.9 148.2c.9.5 1.6 1.3 2.1 2.2.5 1 .7 2.1.7 3.3 0 1.2-.2 2.3-.7 3.3-.5.9-1.2 1.7-2 2.2-.9.5-1.9.8-3.1.8-.9 0-1.7-.2-2.5-.5-.7-.4-1.3-.9-1.8-1.6v2h-3v-17.2h3v6.9c.4-.7 1-1.2 1.7-1.6.7-.4 1.5-.5 2.5-.5 1.2-.1 2.3.2 3.1.7zm-1.2 8.2c.7-.7 1-1.6 1-2.7s-.3-2-1-2.7c-.7-.7-1.5-1-2.5-1s-1.9.3-2.5 1c-.7.7-1 1.6-1 2.7s.3 2 1 2.7c.7.7 1.5 1 2.5 1 1 .1 1.8-.3 2.5-1zM959.2 148.2c1 .5 1.8 1.3 2.3 2.2.5 1 .8 2 .8 3.3 0 1.3-.3 2.4-.8 3.3-.5 1-1.3 1.7-2.3 2.2-1 .5-2.1.8-3.4.8-1.3 0-2.4-.3-3.4-.8s-1.8-1.3-2.3-2.2c-.5-1-.8-2.1-.8-3.3 0-1.2.3-2.3.8-3.3.6-1 1.3-1.7 2.3-2.2 1-.5 2.1-.8 3.4-.8 1.3 0 2.4.3 3.4.8zm-6 2.8c-.7.7-1 1.6-1 2.7s.3 2 1 2.7 1.5 1 2.6 1c1 0 1.9-.3 2.5-1s1-1.6 1-2.7-.3-2-1-2.7c-.7-.7-1.5-1-2.5-1-1.1 0-1.9.3-2.6 1zM962.9 147.5h3.5l2.6 4 2.6-4h3.3l-3.9 6.1 4.2 6.4h-3.5l-2.8-4.3-3 4.3h-3.4l4.3-6.4-3.9-6.1z"/></g><g><path class="st42" d="M820.5 312c-.8-.4-1.6-.6-2.4-.6-1 0-1.9.2-2.8.7-.8.5-1.5 1.1-2 2-.5.8-.7 1.8-.7 2.8 0 1 .2 1.9.7 2.8.5.8 1.1 1.5 2 2 .8.5 1.8.7 2.8.7.8 0 1.6-.2 2.3-.5.8-.3 1.5-.8 2.1-1.4l1.8 2c-.9.9-1.8 1.6-3 2.1-1.1.5-2.3.8-3.4.8-1.6 0-3-.4-4.3-1.1-1.3-.7-2.3-1.8-3.1-3-.7-1.3-1.1-2.7-1.1-4.2s.4-3 1.1-4.2c.8-1.3 1.8-2.3 3.1-3 1.3-.7 2.8-1.1 4.4-1.1 1.2 0 2.3.2 3.4.7 1.1.5 2.1 1.1 2.9 1.9l-1.8 2.3c-.6-.8-1.3-1.3-2-1.7zM838.2 312.7v12.4h-3v-2.3c-.8 1.6-2.3 2.4-4.3 2.4-1.4 0-2.5-.4-3.3-1.3-.8-.9-1.2-2-1.2-3.5v-7.8h3v6.9c0 .9.2 1.5.7 2s1.1.7 2 .7c1 0 1.7-.4 2.3-1 .6-.7.8-1.5.8-2.5v-6.1h3zM847.5 315.2c-.6-.2-1.2-.3-1.8-.3-.5 0-.9.1-1.2.3-.3.2-.5.5-.5.8 0 .4.2.7.6.9.4.2 1 .4 1.8.7.9.3 1.6.5 2.1.8.6.3 1 .6 1.5 1.1.4.5.6 1.2.6 2 0 1.2-.5 2.1-1.4 2.8-.9.7-2.1 1-3.5 1-1 0-1.9-.1-2.8-.5-.9-.3-1.7-.7-2.3-1.3l1-2.1c.6.5 1.2.9 2 1.1.8.3 1.5.4 2.2.4.6 0 1-.1 1.3-.3.3-.2.5-.5.5-.9s-.2-.8-.6-1c-.4-.2-1-.5-1.9-.7-.8-.2-1.5-.5-2-.7-.5-.2-1-.6-1.4-1.1-.4-.5-.6-1.1-.6-1.9 0-1.2.4-2.2 1.3-2.8.9-.6 2-1 3.4-1 .8 0 1.6.1 2.4.3.8.2 1.5.6 2.1 1l-1.1 2.2c-.4-.3-1.1-.6-1.7-.8zM860.5 324.3c-1 .6-2 .9-3.1.9s-1.9-.3-2.6-.9c-.7-.6-1-1.6-1-2.8v-6.1H852v-2.2h1.8v-3.4h3v3.4h3.6v2.2h-3.6v5.6c0 .6.1 1 .3 1.2.2.2.5.4 1 .4s1.1-.2 1.8-.5l.6 2.2zM871.6 313.4c1 .5 1.7 1.3 2.3 2.2.5 1 .8 2 .8 3.3 0 1.3-.3 2.4-.8 3.3-.6 1-1.3 1.7-2.3 2.2-1 .5-2.1.8-3.4.8-1.3 0-2.4-.3-3.4-.8s-1.8-1.3-2.3-2.2c-.6-1-.8-2.1-.8-3.3 0-1.2.3-2.3.8-3.3s1.3-1.7 2.3-2.2c1-.5 2.1-.8 3.4-.8 1.2 0 2.4.2 3.4.8zm-6 2.8c-.7.7-1 1.6-1 2.7s.3 2 1 2.7 1.5 1 2.6 1c1 0 1.9-.3 2.5-1 .7-.7 1-1.6 1-2.7s-.3-2-1-2.7c-.7-.7-1.5-1-2.5-1-1.1 0-1.9.3-2.6 1zM896.9 313.8c.8.9 1.2 2 1.2 3.5v7.8h-3v-6.9c0-.9-.2-1.6-.7-2.1-.5-.5-1.1-.8-2-.8-1 0-1.7.4-2.3 1-.6.7-.8 1.5-.8 2.5v6.1h-3V318c0-.9-.2-1.6-.7-2.1s-1.1-.8-2-.8c-1 0-1.7.4-2.3 1-.6.7-.8 1.5-.8 2.5v6.1h-3v-12.4h3v2.3c.8-1.6 2.3-2.4 4.4-2.4 1.1 0 2 .3 2.7.8.7.5 1.3 1.3 1.5 2.2.8-2 2.3-2.9 4.6-3 1.3.4 2.4.8 3.2 1.6zM904.2 307.8c.3.3.5.8.5 1.3s-.2.9-.5 1.3c-.3.3-.7.5-1.2.5s-.9-.2-1.2-.5c-.3-.3-.5-.8-.5-1.3s.2-1 .5-1.3c.3-.3.7-.5 1.2-.5s.9.2 1.2.5zm-2.7 4.9h3v12.4h-3v-12.4zM913.7 315.2c-.6-.2-1.2-.3-1.8-.3-.5 0-.9.1-1.2.3-.3.2-.5.5-.5.8 0 .4.2.7.6.9.4.2 1 .4 1.8.7.9.3 1.6.5 2.1.8.6.3 1 .6 1.5 1.1.4.5.6 1.2.6 2 0 1.2-.5 2.1-1.4 2.8-.9.7-2.1 1-3.5 1-1 0-1.9-.1-2.8-.5-.9-.3-1.7-.7-2.3-1.3l1-2.1c.6.5 1.2.9 2 1.1.8.3 1.5.4 2.2.4.6 0 1-.1 1.3-.3.3-.2.5-.5.5-.9s-.2-.8-.6-1c-.4-.2-1-.5-1.9-.7-.8-.2-1.5-.5-2-.7-.5-.2-1-.6-1.4-1.1-.4-.5-.6-1.1-.6-1.9 0-1.2.4-2.2 1.3-2.8s2-1 3.4-1c.8 0 1.6.1 2.4.3.8.2 1.5.6 2.1 1l-1.1 2.2c-.4-.3-1-.6-1.7-.8zM926.8 325.1v-1.5c-.4.5-1 1-1.7 1.2-.7.3-1.5.4-2.3.4-.9 0-1.6-.2-2.3-.5-.7-.3-1.2-.8-1.5-1.4-.4-.6-.5-1.2-.5-2 0-1.2.4-2.1 1.2-2.7.8-.7 2-1 3.5-1h3.6v-.3c0-.7-.2-1.3-.7-1.7-.5-.4-1.2-.6-2.1-.6-1.2 0-2.4.4-3.7 1.2l-1.1-2.1c1-.5 1.9-.9 2.7-1.2.8-.2 1.7-.4 2.8-.4 1.6 0 2.9.4 3.7 1.2.9.8 1.3 1.9 1.4 3.3v8.1h-3zm-1.1-2.8c.6-.4 1-.9 1-1.5v-1.1h-3.1c-.8 0-1.4.1-1.8.4-.4.2-.6.6-.6 1.2 0 .5.2.9.6 1.3.4.3.9.5 1.6.5.9-.2 1.7-.4 2.3-.8zM940.4 324.3c-1 .6-2 .9-3.1.9s-1.9-.3-2.6-.9c-.7-.6-1-1.6-1-2.8v-6.1H932v-2.2h1.8v-3.4h3v3.4h3.6v2.2h-3.6v5.6c0 .6.1 1 .3 1.2.2.2.5.4 1 .4s1.1-.2 1.8-.5l.5 2.2zM945.5 307.8c.3.3.5.8.5 1.3s-.2.9-.5 1.3c-.3.3-.7.5-1.2.5s-.9-.2-1.2-.5c-.3-.3-.5-.8-.5-1.3s.2-1 .5-1.3c.3-.3.7-.5 1.2-.5s.9.2 1.2.5zm-2.7 4.9h3v12.4h-3v-12.4zM958.4 313.4c1 .5 1.8 1.3 2.3 2.2.6 1 .8 2 .8 3.3 0 1.3-.3 2.4-.8 3.3s-1.3 1.7-2.3 2.2c-1 .5-2.1.8-3.4.8-1.3 0-2.4-.3-3.4-.8s-1.8-1.3-2.3-2.2c-.5-1-.8-2.1-.8-3.3 0-1.2.3-2.3.8-3.3.6-1 1.3-1.7 2.3-2.2 1-.5 2.1-.8 3.4-.8 1.3 0 2.4.2 3.4.8zm-6 2.8c-.7.7-1 1.6-1 2.7s.3 2 1 2.7 1.5 1 2.6 1c1 0 1.9-.3 2.5-1 .7-.7 1-1.6 1-2.7s-.3-2-1-2.7c-.7-.7-1.5-1-2.5-1-1.1 0-1.9.3-2.6 1zM975 313.8c.8.9 1.2 2 1.2 3.5v7.8h-3v-6.9c0-.9-.2-1.6-.7-2.1-.5-.5-1.2-.8-2-.8-1 0-1.8.4-2.4 1-.6.7-.9 1.5-.9 2.6v6.1h-3v-12.4h3v2.3c.9-1.6 2.3-2.4 4.5-2.4 1.3.1 2.4.5 3.3 1.3z"/></g><g><path class="st43" d="M810.7 484.3h11.2v2.7h-8.1v4.4h7.4v2.7h-7.4v6.4h-3.1v-16.2zM835.6 488.2v12.4h-3v-2.3c-.8 1.6-2.3 2.4-4.3 2.4-1.4 0-2.5-.4-3.3-1.3s-1.2-2-1.2-3.5v-7.8h3v6.9c0 .9.2 1.5.7 2 .5.5 1.1.7 2 .7 1 0 1.7-.4 2.3-1 .6-.7.8-1.5.8-2.5v-6.1h3zM839.5 483.3h3v17.2h-3v-17.2zM846.5 483.3h3v17.2h-3v-17.2zM864.4 490.7c-1 0-1.8.3-2.5 1-.6.7-.9 1.6-.9 2.6 0 1.1.3 2 .9 2.7.6.7 1.4 1 2.5 1 1.5 0 2.6-.5 3.3-1.5l1.9 1.6c-.6.8-1.3 1.4-2.2 1.9-.9.4-2 .7-3.2.7-1.2 0-2.3-.3-3.3-.8s-1.7-1.3-2.2-2.2c-.5-1-.8-2-.8-3.3 0-1.3.3-2.4.8-3.3.5-1 1.3-1.7 2.2-2.2 1-.5 2-.8 3.3-.8 1.1 0 2.1.2 3 .6.9.4 1.6 1 2.2 1.7l-1.8 1.7c-.8-.9-1.9-1.4-3.2-1.4zM883.7 488.2v12.4h-3v-2.3c-.8 1.6-2.3 2.4-4.3 2.4-1.4 0-2.5-.4-3.3-1.3-.8-.9-1.2-2-1.2-3.5v-7.8h3v6.9c0 .9.2 1.5.7 2s1.1.7 2 .7c1 0 1.7-.4 2.3-1 .6-.7.8-1.5.8-2.5v-6.1h3zM892.9 490.7c-.6-.2-1.2-.3-1.8-.3-.5 0-.9.1-1.2.3s-.5.4-.5.8.2.7.6.9c.4.2 1 .4 1.8.7.9.3 1.6.5 2.1.8.6.3 1 .6 1.5 1.1.4.5.6 1.2.6 2 0 1.2-.5 2.1-1.4 2.8-.9.7-2.1 1-3.5 1-1 0-1.9-.2-2.8-.5-.9-.3-1.7-.7-2.3-1.3l1-2.1c.6.5 1.2.9 2 1.1.8.3 1.5.4 2.2.4.6 0 1-.1 1.3-.3.3-.2.5-.5.5-.9s-.2-.8-.6-1c-.4-.2-1-.5-1.9-.7-.8-.2-1.5-.5-2-.7-.5-.2-1-.6-1.4-1.1-.4-.5-.6-1.1-.6-1.9 0-1.2.4-2.2 1.3-2.8s2-1 3.4-1c.8 0 1.6.1 2.4.4.8.2 1.5.6 2.1 1l-1.1 2.2c-.4-.4-1-.7-1.7-.9zM905.9 499.8c-1 .6-2 .9-3.1.9s-1.9-.3-2.6-.9c-.7-.6-1-1.5-1-2.8v-6.1h-1.7v-2.2h1.8v-3.4h3v3.4h3.6v2.2h-3.6v5.6c0 .6.1 1 .3 1.2.2.2.5.4 1 .4s1.1-.2 1.8-.5l.5 2.2zM917 488.9c1 .5 1.7 1.3 2.3 2.2.5 1 .8 2 .8 3.3 0 1.3-.3 2.4-.8 3.3-.6 1-1.3 1.7-2.3 2.2-1 .5-2.1.8-3.4.8-1.3 0-2.4-.3-3.4-.8s-1.8-1.3-2.3-2.2c-.6-1-.8-2.1-.8-3.3 0-1.2.3-2.3.8-3.3.6-1 1.3-1.7 2.3-2.2 1-.5 2.1-.8 3.4-.8 1.3 0 2.4.2 3.4.8zm-6 2.8c-.7.7-1 1.6-1 2.7s.3 2 1 2.7c.7.7 1.5 1 2.6 1 1 0 1.9-.3 2.5-1 .7-.7 1-1.6 1-2.7s-.3-2-1-2.7-1.5-1-2.5-1c-1.1-.1-1.9.3-2.6 1zM942.3 489.3c.8.9 1.2 2 1.2 3.5v7.8h-3v-6.9c0-.9-.2-1.6-.7-2.1-.5-.5-1.1-.8-2-.8-1 0-1.7.4-2.3 1-.6.7-.8 1.5-.8 2.5v6.1h-3v-6.9c0-.9-.2-1.6-.7-2.1-.5-.5-1.1-.8-2-.8-1 0-1.7.4-2.3 1-.6.7-.8 1.5-.8 2.5v6.1h-3v-12.4h3v2.3c.8-1.6 2.3-2.4 4.4-2.4 1.1 0 2 .3 2.7.8.7.5 1.3 1.3 1.5 2.2.8-2 2.3-2.9 4.6-3 1.3.3 2.4.8 3.2 1.6zM952.7 483.3h3v17.2h-3v-17.2zM969.3 489.8c1 1.1 1.5 2.7 1.5 4.8v.9h-9.2c.2.9.6 1.6 1.2 2.1s1.4.8 2.3.8c.6 0 1.2-.1 1.8-.4.6-.2 1.1-.6 1.5-1l1.6 1.7c-.6.7-1.4 1.2-2.3 1.6-.9.4-1.9.6-3 .6-1.3 0-2.4-.3-3.4-.8s-1.7-1.3-2.2-2.2c-.5-1-.8-2-.8-3.3 0-1.2.3-2.3.8-3.3s1.3-1.7 2.2-2.2c1-.5 2.1-.8 3.3-.8 2.2-.2 3.7.3 4.7 1.5zm-1.3 3.6c0-.9-.3-1.6-.9-2.2-.6-.5-1.3-.8-2.3-.8-.9 0-1.6.3-2.2.8-.6.5-1 1.3-1.1 2.2h6.5zM971 488.2h3.2l3.3 9.5 3.2-9.5h3l-4.7 12.4h-3.1l-4.9-12.4zM994.6 489.8c1 1.1 1.5 2.7 1.5 4.8v.9h-9.2c.2.9.6 1.6 1.2 2.1s1.4.8 2.3.8c.6 0 1.2-.1 1.8-.4.6-.2 1.1-.6 1.5-1l1.6 1.7c-.6.7-1.4 1.2-2.3 1.6-.9.4-1.9.6-3 .6-1.3 0-2.4-.3-3.4-.8s-1.7-1.3-2.2-2.2c-.5-1-.8-2-.8-3.3 0-1.2.3-2.3.8-3.3s1.3-1.7 2.2-2.2c1-.5 2.1-.8 3.3-.8 2.2-.2 3.7.3 4.7 1.5zm-1.3 3.6c0-.9-.3-1.6-.9-2.2-.6-.5-1.3-.8-2.3-.8-.9 0-1.6.3-2.2.8-.6.5-1 1.3-1.1 2.2h6.5zM998.8 483.3h3v17.2h-3v-17.2z"/></g></svg>