<?xml version="1.0" encoding="UTF-8"?>
<svg width="386px" height="51px" viewBox="0 0 386 51" version="1.1" xmlns="http://www.w3.org/2000/svg" xmlns:xlink="http://www.w3.org/1999/xlink">
    <!-- Generator: Sketch 42 (36781) - http://www.bohemiancoding.com/sketch -->
    <title>Group 2</title>
    <desc>Created with Sketch.</desc>
    <defs></defs>
    <g id="Community" stroke="none" stroke-width="1" fill="none" fill-rule="evenodd">
        <g id="Community-Instantsearch-React" transform="translate(-380.000000, -161.000000)" fill="#FFFFFF">
            <g id="Group" transform="translate(380.000000, 160.000000)">
                <g id="algolia-logo-dargkbg">
                    <g id="logos/logo-instantsearchjs-dark" transform="translate(0.000000, 1.000000)">
                        <g id="Group-2">
                            <path d="M73.6418919,42.4330026 L73.6418919,17.8133774 L81.3487209,17.8133774 L81.3487209,42.4330026 L73.6418919,42.4330026 Z M73.6418919,14.999706 L73.6418919,8.2 L81.3487209,8.2 L81.3487209,14.999706 L73.6418919,14.999706 Z M110.570447,42.4330026 L102.863618,42.4330026 L102.863618,28.599118 C102.863618,26.973433 102.550532,25.793266 101.924349,25.0585814 C101.298166,24.3238969 100.471295,23.9565601 99.443713,23.9565601 C98.8978099,23.9565601 98.3438871,24.0659796 97.781928,24.2848218 C97.219969,24.503664 96.6901298,24.8084753 96.1923946,25.199265 C95.6946594,25.5900546 95.237071,26.0511795 94.8196157,26.5826534 C94.4021603,27.1141274 94.0810457,27.6924874 93.856262,28.3177508 L93.856262,42.4330026 L86.1494331,42.4330026 L86.1494331,17.8133774 L93.0855791,17.8133774 L93.0855791,21.9400956 C94.0168256,20.4707265 95.3333957,19.3374535 97.035329,18.5402426 C98.7372622,17.7430317 100.696062,17.3444322 102.911786,17.3444322 C104.549495,17.3444322 105.874093,17.6336122 106.88562,18.2119809 C107.897146,18.7903496 108.675849,19.5406545 109.221752,20.462918 C109.767655,21.3851816 110.128909,22.3934038 110.305525,23.4876148 C110.482141,24.5818259 110.570447,25.6447578 110.570447,26.6764425 L110.570447,42.4330026 Z M125.775379,42.9019478 C124.715684,42.9019478 123.615867,42.8237911 122.475893,42.6674752 C121.335918,42.5111593 120.203989,42.3001361 119.080071,42.0343991 C117.956153,41.7686622 116.880419,41.4404038 115.852836,41.0496141 C114.825254,40.6588245 113.926133,40.2289623 113.155446,39.7600147 L116.19001,34.6954061 C117.859831,35.6333013 119.48146,36.3523435 121.054946,36.8525542 C122.628431,37.352765 124.13767,37.6028666 125.582708,37.6028666 C126.706626,37.6028666 127.565608,37.4309217 128.159679,37.0870268 C128.75375,36.7431319 129.050781,36.2429287 129.050781,35.5864021 C129.050781,34.9298754 128.649388,34.4218565 127.846589,34.06233 C127.04379,33.7028035 125.662997,33.2729414 123.704168,32.7727306 C122.002235,32.3350462 120.557219,31.8973684 119.369077,31.4596839 C118.180935,31.0219995 117.225619,30.5296119 116.5031,29.9825064 C115.780581,29.4354009 115.25877,28.8179625 114.93765,28.1301727 C114.616531,27.4423829 114.455974,26.6295526 114.455974,25.6916575 C114.455974,24.4411306 114.720893,23.3000419 115.25074,22.2683572 C115.780588,21.2366725 116.511123,20.3613168 117.44237,19.6422639 C118.373616,18.9232109 119.473434,18.3604822 120.741856,17.954061 C122.010278,17.5476398 123.399099,17.3444322 124.90836,17.3444322 C126.674518,17.3444322 128.480788,17.6023495 130.327225,18.1181918 C132.173662,18.6340342 133.979931,19.3452607 135.746089,20.2518927 L132.711525,24.9882396 C131.138039,24.144134 129.733163,23.5266956 128.496853,23.1359059 C127.260543,22.7451163 126.064391,22.5497244 124.90836,22.5497244 C123.945002,22.5497244 123.150243,22.7138536 122.52406,23.0421169 C121.897877,23.3703802 121.58479,23.8940305 121.58479,24.6130834 C121.58479,24.9569783 121.665069,25.2461583 121.825629,25.4806321 C121.986189,25.7151059 122.251108,25.9339448 122.620396,26.1371555 C122.989683,26.3403661 123.479383,26.5279423 124.08951,26.6998897 C124.699637,26.8718372 125.454256,27.0672291 126.353391,27.2860713 C128.215884,27.7550189 129.789346,28.2239594 131.073824,28.692907 C132.358301,29.1618546 133.401924,29.6855049 134.204723,30.2638736 C135.007522,30.8422423 135.585528,31.5065747 135.938759,32.2568908 C136.291991,33.007207 136.468604,33.898194 136.468604,34.9298787 C136.468604,36.1491424 136.21974,37.2511527 135.722005,38.2359427 C135.22427,39.2207326 134.509789,40.0570099 133.578543,40.7447997 C132.647296,41.4325895 131.523395,41.9640555 130.206805,42.3392135 C128.890215,42.7143716 127.413088,42.9019478 125.775379,42.9019478 L125.775379,42.9019478 Z M155.912291,41.1199559 C154.852597,41.5576403 153.648417,41.9640555 152.299715,42.3392135 C150.951013,42.7143716 149.57022,42.9019478 148.157294,42.9019478 C147.193936,42.9019478 146.286787,42.7847127 145.43582,42.5502389 C144.584854,42.3157651 143.838262,41.9406126 143.196023,41.4247703 C142.553784,40.908928 142.048029,40.2289642 141.678741,39.3848585 C141.309454,38.5407529 141.124813,37.524715 141.124813,36.3367144 L141.124813,23.4876148 L137.897578,23.4876148 L137.897578,17.8133774 L141.124813,17.8133774 L141.124813,9.98199191 L148.831642,9.98199191 L148.831642,17.8133774 L153.985584,17.8133774 L153.985584,23.4876148 L148.831642,23.4876148 L148.831642,33.7575156 C148.831642,34.5703581 149.048394,35.1565338 149.481906,35.5160603 C149.915417,35.8755868 150.453284,36.0553473 151.095523,36.0553473 C151.641426,36.0553473 152.219433,35.9615592 152.82956,35.7739802 C153.439687,35.5864011 153.985581,35.3831935 154.467261,35.1643513 L155.912291,41.1199559 Z M165.674274,42.9019478 C164.421908,42.9019478 163.257868,42.7065559 162.182118,42.3157663 C161.106367,41.9249766 160.183163,41.3778793 159.412476,40.6744579 C158.641789,39.9710365 158.031671,39.1425749 157.582104,38.1890481 C157.132537,37.2355214 156.907757,36.1960365 156.907757,35.0705623 C156.907757,33.8512986 157.172676,32.7414726 157.702523,31.7410511 C158.23237,30.7406296 158.978962,29.8809052 159.94232,29.1618523 C160.905679,28.4427993 162.045636,27.8800706 163.362226,27.4736494 C164.678816,27.0672282 166.139887,26.8640206 167.745485,26.8640206 C168.805179,26.8640206 169.832746,26.949993 170.828216,27.1219405 C171.823687,27.2938879 172.690696,27.5518052 173.429271,27.8957001 L173.429271,26.7702315 C173.429271,23.9252828 171.743419,22.5028298 168.371665,22.5028298 C166.990851,22.5028298 165.674281,22.7294844 164.421915,23.1828004 C163.169549,23.6361164 161.852979,24.3160802 160.472165,25.2227122 L158.208284,20.5332598 C159.878105,19.470312 161.612124,18.673113 163.410393,18.1416391 C165.208663,17.6101652 167.119295,17.3444322 169.142347,17.3444322 C172.963669,17.3444322 175.917924,18.2197879 178.005201,19.9705255 C180.092477,21.7212632 181.1361,24.2848049 181.1361,27.6612275 L181.1361,33.9919882 C181.1361,34.7423044 181.280602,35.2659547 181.569609,35.5629548 C181.858617,35.8599549 182.3724,36.0397155 183.110975,36.1022418 L183.110975,42.4330026 C182.3724,42.5893184 181.690032,42.6909222 181.063849,42.737817 C180.437666,42.7847117 179.883743,42.8081588 179.402064,42.8081588 C177.989138,42.7768956 176.913404,42.4955313 176.174829,41.9640573 C175.436254,41.4325834 174.970638,40.6666472 174.777966,39.6662257 L174.633463,38.5407571 C173.509545,39.9475998 172.168891,41.0261631 170.611462,41.7764792 C169.054032,42.5267954 167.40832,42.9019478 165.674274,42.9019478 L165.674274,42.9019478 Z M167.938155,37.5090775 C168.773066,37.5090775 169.583881,37.3683954 170.370623,37.0870268 C171.157366,36.8056583 171.807623,36.4305058 172.321414,35.9615583 C173.059989,35.3988211 173.429271,34.8048298 173.429271,34.1795663 L173.429271,31.8348401 C172.75492,31.5847348 172.024384,31.3893429 171.237642,31.2486586 C170.450899,31.1079743 169.720363,31.0376332 169.046012,31.0376332 C167.633086,31.0376332 166.469046,31.3502603 165.553855,31.9755237 C164.638665,32.6007872 164.181076,33.4136174 164.181076,34.414039 C164.181076,35.320671 164.534302,36.0631602 165.240765,36.6415288 C165.947228,37.2198975 166.846349,37.5090775 167.938155,37.5090775 L167.938155,37.5090775 Z M210.887671,42.4330026 L203.180842,42.4330026 L203.180842,28.599118 C203.180842,26.973433 202.867755,25.793266 202.241572,25.0585814 C201.615389,24.3238969 200.788519,23.9565601 199.760937,23.9565601 C199.215034,23.9565601 198.661111,24.0659796 198.099152,24.2848218 C197.537193,24.503664 197.007353,24.8084753 196.509618,25.199265 C196.011883,25.5900546 195.554295,26.0511795 195.136839,26.5826534 C194.719384,27.1141274 194.398269,27.6924874 194.173486,28.3177508 L194.173486,42.4330026 L186.466657,42.4330026 L186.466657,17.8133774 L193.402803,17.8133774 L193.402803,21.9400956 C194.334049,20.4707265 195.650619,19.3374535 197.352553,18.5402426 C199.054486,17.7430317 201.013285,17.3444322 203.22901,17.3444322 C204.866719,17.3444322 206.191317,17.6336122 207.202843,18.2119809 C208.21437,18.7903496 208.993073,19.5406545 209.538976,20.462918 C210.084879,21.3851816 210.446133,22.3934038 210.622749,23.4876148 C210.799365,24.5818259 210.887671,25.6447578 210.887671,26.6764425 L210.887671,42.4330026 Z M231.824556,41.1199559 C230.764862,41.5576403 229.560682,41.9640555 228.21198,42.3392135 C226.863279,42.7143716 225.482485,42.9019478 224.06956,42.9019478 C223.106201,42.9019478 222.199052,42.7847127 221.348086,42.5502389 C220.497119,42.3157651 219.750528,41.9406126 219.108289,41.4247703 C218.46605,40.908928 217.960294,40.2289642 217.591007,39.3848585 C217.221719,38.5407529 217.037078,37.524715 217.037078,36.3367144 L217.037078,23.4876148 L213.809844,23.4876148 L213.809844,17.8133774 L217.037078,17.8133774 L217.037078,9.98199191 L224.743907,9.98199191 L224.743907,17.8133774 L229.897849,17.8133774 L229.897849,23.4876148 L224.743907,23.4876148 L224.743907,33.7575156 C224.743907,34.5703581 224.96066,35.1565338 225.394171,35.5160603 C225.827682,35.8755868 226.365549,36.0553473 227.007788,36.0553473 C227.553691,36.0553473 228.131698,35.9615592 228.741825,35.7739802 C229.351952,35.5864011 229.897847,35.3831935 230.379526,35.1643513 L231.824556,41.1199559 Z" id="instantsearch.js"></path>
                            <path d="M244.640278,43.4 C243.578308,43.4 242.476128,43.3207215 241.333706,43.1621622 C240.191283,43.0036028 239.056923,42.7895509 237.930591,42.52 C236.80426,42.2504491 235.726215,41.9174795 234.696426,41.5210811 C233.666637,41.1246827 232.765585,40.688651 231.993243,40.212973 L235.034324,35.0756757 C236.707731,36.0270318 238.332843,36.7563939 239.909707,37.2637838 C241.486572,37.7711737 242.999052,38.0248649 244.447193,38.0248649 C245.573525,38.0248649 246.434351,37.8504522 247.029698,37.5016216 C247.625045,37.152791 247.922714,36.6454087 247.922714,35.9794595 C247.922714,35.3135102 247.520459,34.7982 246.715936,34.4335135 C245.911413,34.068827 244.527655,33.6327953 242.564619,33.1254054 C240.859031,32.6814392 239.410912,32.2374797 238.220218,31.7935135 C237.029524,31.3495473 236.072157,30.8500929 235.348086,30.2951351 C234.624016,29.7401774 234.101084,29.1138774 233.779275,28.4162162 C233.457466,27.7185551 233.296564,26.8940588 233.296564,25.9427027 C233.296564,24.6742279 233.562052,23.516762 234.093037,22.4702703 C234.624022,21.4237786 235.356127,20.5358595 236.289373,19.8064865 C237.22262,19.0771135 238.324799,18.5063084 239.595945,18.0940541 C240.867091,17.6817997 242.258895,17.4756757 243.771397,17.4756757 C245.541347,17.4756757 247.351496,17.7372947 249.201899,18.2605405 C251.052301,18.7837864 252.86245,19.5052206 254.6324,20.4248649 L251.591319,25.2291892 C250.014455,24.3729687 248.606561,23.7466686 247.367596,23.3502703 C246.128631,22.9538719 244.92991,22.7556757 243.771397,22.7556757 C242.80597,22.7556757 242.009504,22.9221605 241.381977,23.2551351 C240.754449,23.5881098 240.44069,24.1192756 240.44069,24.8486486 C240.44069,25.1974792 240.521141,25.4908096 240.682045,25.7286486 C240.84295,25.9664877 241.108439,26.1884674 241.478519,26.3945946 C241.848599,26.6007218 242.339351,26.7909901 242.950788,26.9654054 C243.562226,27.1398207 244.318466,27.3380169 245.219531,27.56 C247.086024,28.0356781 248.662865,28.511349 249.950101,28.987027 C251.237338,29.4627051 252.283201,29.9938709 253.087724,30.5805405 C253.892247,31.1672101 254.471495,31.8410773 254.825485,32.6021622 C255.179475,33.363247 255.356467,34.2670218 255.356467,35.3135135 C255.356467,36.5502765 255.107069,37.6681031 254.608265,38.667027 C254.10946,39.6659509 253.393446,40.5142307 252.4602,41.2118919 C251.526953,41.909553 250.400638,42.4486467 249.081221,42.8291892 C247.761804,43.2097316 246.281504,43.4 244.640278,43.4 Z M270.738865,43.4 C268.614925,43.4 266.708235,43.0591025 265.018737,42.3772973 C263.329239,41.6954921 261.89721,40.7679338 260.722607,39.5945946 C259.548004,38.4212554 258.654997,37.0655933 258.043559,35.5275676 C257.432122,33.9895419 257.126408,32.3801886 257.126408,30.6994595 C257.126408,28.8918829 257.432122,27.1873954 258.043559,25.5859459 C258.654997,23.9844965 259.539959,22.5812673 260.698471,21.3762162 C261.856984,20.1711651 263.280968,19.2198233 264.970466,18.5221622 C266.659963,17.824501 268.582744,17.4756757 270.738865,17.4756757 C272.894986,17.4756757 274.809721,17.824501 276.483129,18.5221622 C278.156536,19.2198233 279.572475,20.1632373 280.730987,21.3524324 C281.8895,22.5416276 282.766417,23.9131454 283.361764,25.467027 C283.95711,27.0209087 284.254779,28.6540455 284.254779,30.3664865 C284.254779,30.8104527 284.238689,31.2464843 284.206508,31.6745946 C284.174327,32.1027048 284.126057,32.4753137 284.061695,32.7924324 L265.332499,32.7924324 C265.461223,34.4731616 266.080696,35.7495452 267.190937,36.6216216 C268.301179,37.4936981 269.56426,37.9297297 270.980221,37.9297297 C272.106552,37.9297297 273.192642,37.6601829 274.238521,37.1210811 C275.284401,36.5819793 275.984325,35.8526172 276.338315,34.932973 L282.903188,36.7405405 C281.90558,38.7066765 280.360919,40.3081019 278.26916,41.5448649 C276.177401,42.7816278 273.667328,43.4 270.738865,43.4 Z M276.09696,28.0832432 C275.936055,26.4976497 275.356807,25.2450496 274.359199,24.3254054 C273.361591,23.4057612 272.122645,22.9459459 270.642323,22.9459459 C269.12982,22.9459459 267.882828,23.413689 266.901311,24.3491892 C265.919793,25.2846894 265.34859,26.5293616 265.187686,28.0832432 L276.09696,28.0832432 Z M294.568709,43.4 C293.313654,43.4 292.147114,43.2018038 291.069053,42.8054054 C289.990993,42.409007 289.065805,41.8540576 288.293463,41.1405405 C287.521122,40.4270235 286.909693,39.5866715 286.459161,38.6194595 C286.008628,37.6522474 285.783365,36.5978435 285.783365,35.4562162 C285.783365,34.2194533 286.048854,33.0936988 286.579839,32.0789189 C287.110824,31.0641391 287.859018,30.1920757 288.824446,29.4627027 C289.789873,28.7333297 290.932278,28.1625246 292.251696,27.7502703 C293.571113,27.338016 295.035322,27.1318919 296.644368,27.1318919 C297.706338,27.1318919 298.736111,27.2190982 299.73372,27.3935135 C300.731328,27.5679288 301.600199,27.8295478 302.34036,28.1783784 L302.34036,27.0367568 C302.34036,24.1509766 300.650888,22.7081081 297.271892,22.7081081 C295.888113,22.7081081 294.568716,22.9380157 293.31366,23.3978378 C292.058605,23.85766 290.739207,24.5473828 289.355428,25.467027 L287.086685,20.7102703 C288.760093,19.6320667 290.497836,18.8234261 292.299967,18.2843243 C294.102098,17.7452225 296.016833,17.4756757 298.04423,17.4756757 C301.873759,17.4756757 304.834358,18.3635947 306.926117,20.1394595 C309.017876,21.9153242 310.06374,24.5156586 310.06374,27.9405405 L310.06374,34.3621622 C310.06374,35.123247 310.208552,35.6544129 310.49818,35.9556757 C310.787808,36.2569384 311.302695,36.439279 312.042856,36.5027027 L312.042856,42.9243243 C311.302695,43.0828837 310.618861,43.1859457 309.991333,43.2335135 C309.363806,43.2810813 308.808693,43.3048649 308.32598,43.3048649 C306.91002,43.273153 305.831975,42.9877504 305.091814,42.4486486 C304.351653,41.9095469 303.885037,41.1326177 303.691952,40.1178378 L303.547138,38.9762162 C302.420807,40.4032504 301.077274,41.4972935 299.5165,42.2583784 C297.955725,43.0194633 296.306479,43.4 294.568709,43.4 Z M296.837452,37.9297297 C297.674156,37.9297297 298.486712,37.7870285 299.275144,37.5016216 C300.063576,37.2162148 300.71523,36.8356781 301.230124,36.36 C301.970285,35.7891863 302.34036,35.1866698 302.34036,34.5524324 L302.34036,32.1740541 C301.664561,31.9203591 300.932456,31.7221629 300.144024,31.5794595 C299.355592,31.436756 298.623487,31.3654054 297.947688,31.3654054 C296.531728,31.3654054 295.365188,31.6825194 294.448032,32.3167568 C293.530876,32.9509942 293.072305,33.7754904 293.072305,34.7902703 C293.072305,35.7099145 293.426289,36.4630601 294.134269,37.0497297 C294.842249,37.6363993 295.743301,37.9297297 296.837452,37.9297297 Z M331.480028,24.4681081 C329.613536,24.49982 327.932108,24.8010782 326.435696,25.3718919 C324.939284,25.9427056 323.837104,26.7989132 323.129124,27.9405405 L323.129124,42.9243243 L315.405744,42.9243243 L315.405744,17.9513514 L322.5016,17.9513514 L322.5016,22.9935135 C323.402665,21.3127844 324.537025,20.0046894 325.904714,19.0691892 C327.272402,18.133689 328.728567,17.6342346 330.27325,17.5708108 C330.916869,17.5708108 331.319124,17.5866665 331.480028,17.6183784 L331.480028,24.4681081 Z M332.912072,30.4140541 C332.912072,28.7016131 333.217786,27.0605484 333.829223,25.4908108 C334.44066,23.9210732 335.325622,22.5416276 336.484135,21.3524324 C337.642648,20.1632373 339.066632,19.2198233 340.756129,18.5221622 C342.445627,17.824501 344.368408,17.4756757 346.524529,17.4756757 C349.452991,17.4756757 351.914794,18.08612 353.91001,19.307027 C355.905227,20.527934 357.401617,22.1214316 358.399225,24.0875676 L350.86893,26.3232432 C349.871321,24.7376497 348.407112,23.9448649 346.476257,23.9448649 C344.867212,23.9448649 343.523679,24.5315257 342.445619,25.7048649 C341.367558,26.8782041 340.828536,28.4479181 340.828536,30.4140541 C340.828536,31.397122 340.973348,32.2929689 341.262976,33.1016216 C341.552604,33.9102743 341.95486,34.5999971 342.469754,35.1708108 C342.984649,35.7416245 343.588032,36.185584 344.279921,36.5027027 C344.971811,36.8198214 345.703916,36.9783784 346.476257,36.9783784 C347.441685,36.9783784 348.326646,36.7484708 349.131169,36.2886486 C349.935692,35.8288265 350.53103,35.2342379 350.917201,34.5048649 L358.447496,36.7881081 C357.51425,38.7225322 356.025905,40.3081019 353.982417,41.5448649 C351.938929,42.7816278 349.452991,43.4 346.524529,43.4 C344.400589,43.4 342.493898,43.0432468 340.8044,42.3297297 C339.114903,41.6162126 337.682874,40.6648708 336.50827,39.4756757 C335.333667,38.2864805 334.44066,36.9070349 333.829223,35.3372973 C333.217786,33.7675597 332.912072,32.126495 332.912072,30.4140541 Z M385.945946,42.9243243 L378.222566,42.9243243 L378.222566,28.8918919 C378.222566,27.2745865 377.892717,26.0854092 377.233008,25.3243243 C376.5733,24.5632394 375.680293,24.1827027 374.553961,24.1827027 C374.103428,24.1827027 373.612677,24.2857647 373.081692,24.4918919 C372.550707,24.698019 372.03582,24.9992773 371.537016,25.3956757 C371.038212,25.7920741 370.57964,26.2598171 370.161289,26.7989189 C369.742937,27.3380207 369.421133,27.9405372 369.195866,28.6064865 L369.195866,42.9243243 L361.472486,42.9243243 L361.472486,8.2 L369.195866,8.2 L369.195866,22.1372973 C370.129113,20.6468394 371.360014,19.4973013 372.888607,18.6886486 C374.4172,17.879996 376.114718,17.4756757 377.981211,17.4756757 C379.686799,17.4756757 381.062512,17.7690061 382.108392,18.3556757 C383.154271,18.9423453 383.958782,19.687563 384.521948,20.5913514 C385.085114,21.4951397 385.463234,22.5099043 385.656319,23.6356757 C385.849405,24.7614471 385.945946,25.863418 385.945946,26.9416216 L385.945946,42.9243243 Z" id="Path"></path>
                            <path d="M36.0890617,26.4221639 C35.9046491,27.4680199 34.91939,28.1878012 33.9146969,28.0106467 C33.4267031,27.9246002 32.9899446,27.6319133 32.7230584,27.2151262 L28.7010495,21.2373155 C26.808385,22.1514192 24.6857167,22.4395646 22.647625,22.080194 C17.0644019,21.0957211 13.3731397,15.5921738 14.397947,9.78020254 C15.4227544,3.96823126 20.7737302,0.0590744611 26.3569534,1.04354734 C31.9401765,2.02802022 35.6314387,7.53156755 34.6066313,13.3435388 C34.2325371,15.4651325 33.2465433,17.448021 31.7757373,18.9911016 L35.7951116,24.9838531 C36.0646323,25.3856994 36.1786336,25.9141767 36.0890617,26.4221639 Z M30.9193759,12.6827232 C31.570089,8.99234553 29.2147122,5.48055819 25.6695808,4.85545587 C22.1244494,4.23035355 18.7100172,6.72476789 18.0593041,10.4151455 C17.4085909,14.1055232 19.7639677,17.6173105 23.3090991,18.2424128 C26.8542305,18.8675152 30.2686627,16.3731008 30.9193759,12.6827232 Z M22.6158271,37.8574843 C22.9805696,37.4927418 23.4788613,37.283004 23.9626252,37.2732929 L31.1770183,37.1284706 C31.5974162,35.0385822 32.6561606,33.0935651 34.1794967,31.570229 C38.3525795,27.3971462 44.9780426,27.264146 48.9868808,31.2729842 C52.995719,35.2818225 52.8627188,41.9072855 48.689636,46.0803683 C44.5165532,50.2534511 37.8910902,50.3864512 33.882252,46.377613 C32.4188715,44.9142325 31.4373939,43.010171 31.100596,40.9354826 L23.8969306,41.0695773 C23.402439,41.0900161 22.9121695,40.9001228 22.5617826,40.5497359 C21.8403978,39.8283512 21.8648868,38.6084246 22.6158271,37.8574843 Z M36.7649738,34.2611137 C34.1152271,36.9108603 34.0303604,41.1385368 36.5758181,43.6839944 C39.1212758,46.2294521 43.3489522,46.1445854 45.9986988,43.4948387 C48.6484455,40.845092 48.7333123,36.6174156 46.1878546,34.0719579 C43.6423969,31.5265003 39.4147205,31.611367 36.7649738,34.2611137 Z M21.1346885,24.4000868 C21.2594776,24.9005884 21.1826188,25.4357307 20.941786,25.8553989 L17.3502358,32.1139298 C18.9250989,33.5506532 20.0470102,35.4599321 20.5681881,37.5502622 C21.9959217,43.2765888 18.6975593,49.0242192 13.1966099,50.3957599 C7.6956606,51.7673006 2.08503047,48.2409316 0.657296878,42.5146049 C-0.770436712,36.7882782 2.52792566,31.0406478 8.028875,29.6691071 C10.0369336,29.1684419 12.1745312,29.3078155 14.1263499,30.0876669 L17.7215703,23.8438567 C17.9587329,23.4094678 18.3740107,23.0870271 18.8548134,22.9671495 C19.8447015,22.7203427 20.8777699,23.3696424 21.1346885,24.4000868 Z M16.9299855,38.4708925 C16.0234298,34.8348958 12.4433134,32.5847365 8.95042268,33.455612 C5.45753197,34.3264875 3.35286264,37.994023 4.25941842,41.6300197 C5.1659742,45.2660163 8.74609057,47.5161756 12.2389813,46.6453001 C15.731872,45.7744247 17.8365413,42.1068891 16.9299855,38.4708925 Z" id="Icons/Search"></path>
                        </g>
                    </g>
                </g>
            </g>
        </g>
    </g>
</svg>