<?xml version="1.0" encoding="utf-8"?>
<!-- Generator: Adobe Illustrator 20.1.0, SVG Export Plug-In . SVG Version: 6.00 Build 0)  -->
<svg version="1.1" id="Layer_1" xmlns="http://www.w3.org/2000/svg" xmlns:xlink="http://www.w3.org/1999/xlink" x="0px" y="0px"
	 viewBox="0 0 1000 1000" style="enable-background:new 0 0 1000 1000;" xml:space="preserve">
<style type="text/css">
	.st0{fill:#63B546;}
	.st1{fill:#FFFFFF;}
	.st2{fill:#B3B3B7;}
	.st3{fill:#434343;}
</style>
<g>
	<path class="st0" d="M198.4,567.9H6.9c-3.8,0-6.9-3.1-6.9-6.9V369.5c0-3.8,3.1-6.9,6.9-6.9h191.5c3.8,0,6.9,3.1,6.9,6.9V561
		C205.3,564.8,202.2,567.9,198.4,567.9z"/>
	<g>
		<path class="st1" d="M123.7,449.3c5-4.2,8.6-9.9,10.2-16.2c0.8-2.8,1.1-5.6,1.1-8.4h-11.5c0,5.3-2,10.5-6.1,14.5
			c-8,8-21.1,8.1-29.1,0.1c-4-4-6-9.3-6-14.6H70.3c0,14.3,9.6,27.3,24,31.2c6.3,1.7,13,1.4,19.2-0.7l11.2,19.3
			c0.7,1.3,2.1,2.3,3.6,2.7l0,0c3.1,0.8,6.3-1,7.2-4.1c0.4-1.5,0.2-3.1-0.6-4.4L123.7,449.3z"/>
		<path class="st1" d="M174.6,487.4c-12.6-12.6-33.1-12.6-45.7,0.1c-4.6,4.6-7.8,10.6-9,17l-22.3,0c-1.5,0-3,0.6-4.1,1.7l0,0
			c-2.3,2.3-2.3,6,0,8.3c1.1,1.1,2.6,1.7,4.2,1.7l22.2,0c1.2,6.4,4.3,12.3,8.9,17c12.6,12.6,33.1,12.6,45.7-0.1
			C187.2,520.4,187.3,500,174.6,487.4z M166.2,524.8c-8,8-21.1,8.1-29.1,0.1c-8-8-8-21.1,0.1-29.1l0,0c8-8,21.1-8.1,29.1-0.1
			C174.3,503.7,174.3,516.8,166.2,524.8z"/>
		<path class="st1" d="M62.1,541.5c17.2-4.6,27.4-22.4,22.8-39.6c-1.7-6.3-5.3-12-10.2-16.3l11.1-19.3c0.7-1.3,1-2.9,0.6-4.4l0,0
			c-0.9-3.1-4.1-5-7.2-4.2c-1.5,0.4-2.8,1.4-3.5,2.8l-11.1,19.3c-6.2-2.2-12.8-2.5-19.1-0.8c-17.2,4.6-27.4,22.4-22.8,39.6
			C27.2,535.9,44.9,546.1,62.1,541.5z M33.9,515.5c-2.9-11,3.6-22.3,14.5-25.2c10.9-2.9,22.2,3.6,25.2,14.6l0,0
			c2.9,11-3.6,22.3-14.5,25.2C48.1,533,36.8,526.5,33.9,515.5z"/>
		<path class="st1" d="M122.5,399.3l5.8-8.8c0.6-0.9,0.3-2.1-0.6-2.7c-0.9-0.6-2.1-0.3-2.7,0.6l-5.8,8.8c-2.5-1.5-5.3-2.7-8.2-3.5
			c-8.7-2.3-17.5-0.9-24.7,3.3l-5.7-8.6c-0.6-0.9-1.8-1.2-2.7-0.6c-0.9,0.6-1.2,1.8-0.6,2.7L83,399c-5.5,4.2-9.7,10.1-11.6,17.3
			c-0.1,0.3-0.1,0.5-0.2,0.8h63C132.4,410.1,128.3,403.8,122.5,399.3z M88.3,410.2c-2.1,0-3.8-1.7-3.8-3.8c0-2.1,1.7-3.8,3.8-3.8
			c2.1,0,3.8,1.7,3.8,3.8C92.1,408.5,90.4,410.2,88.3,410.2z M117.2,410.2c-2.1,0-3.8-1.7-3.8-3.8c0-2.1,1.7-3.8,3.8-3.8
			c2.1,0,3.8,1.7,3.8,3.8C121,408.5,119.3,410.2,117.2,410.2z"/>
	</g>
</g>
<g>
	<g>
		<path class="st2" d="M278.4,465.2v-76.9h17.8v76.9H278.4z"/>
		<path class="st2" d="M364.3,465.2H347v-31.9c0-3.8-0.7-6.5-2.1-8.2c-1.4-1.7-3.3-2.5-5.6-2.5c-1.2,0-2.5,0.3-3.7,0.8
			c-1.2,0.5-2.4,1.2-3.6,2.1c-1.2,0.9-2.2,2-3.1,3.2c-0.9,1.2-1.6,2.6-2.1,4v32.6h-17.3v-56.9h15.6v9.5c2.1-3.4,5.1-6,8.9-7.9
			c3.8-1.8,8.2-2.8,13.2-2.8c3.7,0,6.6,0.7,8.9,2c2.2,1.3,4,3.1,5.2,5.2c1.2,2.1,2,4.5,2.4,7c0.4,2.5,0.6,5,0.6,7.4V465.2z"/>
		<path class="st2" d="M398.2,466.3c-4.8,0-9.6-0.8-14.3-2.3c-4.7-1.6-8.7-3.8-11.9-6.8l6.2-10.6c3.5,2.4,6.8,4.2,10.1,5.5
			c3.3,1.3,6.4,1.9,9.5,1.9c2.2,0,4-0.4,5.2-1.2c1.2-0.8,1.8-1.9,1.8-3.5s-0.8-2.7-2.3-3.6c-1.6-0.9-4.3-1.9-8.2-2.9
			c-3.8-1.1-7.1-2.1-9.7-3.1c-2.6-1-4.8-2.1-6.4-3.4c-1.7-1.2-2.9-2.6-3.6-4.2c-0.7-1.6-1.1-3.5-1.1-5.6c0-2.9,0.6-5.5,1.7-7.9
			c1.2-2.4,2.7-4.4,4.8-6.1c2-1.7,4.4-3,7.2-3.9c2.8-0.9,5.8-1.4,9-1.4c4.3,0,8.2,0.6,12,1.7c3.7,1.2,7.3,3.2,10.8,6.3l-6.7,10.4
			c-3.2-2.2-6.1-3.9-8.7-4.9c-2.5-1-5-1.5-7.4-1.5c-1.9,0-3.5,0.4-4.8,1.1c-1.3,0.8-2,2-2,3.6c0,1.6,0.7,2.8,2.1,3.6
			c1.4,0.8,4,1.7,7.9,2.6c4,1.1,7.5,2.2,10.2,3.2c2.8,1.1,5,2.3,6.8,3.6c1.7,1.3,3,2.9,3.8,4.6c0.8,1.7,1.2,3.8,1.2,6.2
			c0,5.6-2.1,10.1-6.3,13.4C411,464.7,405.3,466.3,398.2,466.3z"/>
		<path class="st2" d="M466.6,462.2c-2.4,1-5.1,1.9-8.2,2.8c-3.1,0.9-6.2,1.3-9.3,1.3c-2.2,0-4.2-0.3-6.1-0.8
			c-1.9-0.5-3.6-1.4-5-2.6c-1.4-1.2-2.6-2.8-3.4-4.7c-0.8-1.9-1.2-4.3-1.2-7v-29.7h-7.3v-13.1h7.3v-18.1h17.3v18.1h11.6v13.1h-11.6
			v23.7c0,1.9,0.5,3.2,1.4,4.1c0.9,0.8,2.1,1.2,3.6,1.2c1.3,0,2.6-0.2,4-0.6c1.4-0.4,2.6-0.9,3.6-1.4L466.6,462.2z"/>
		<path class="st2" d="M489.5,466.3c-2.8,0-5.4-0.5-7.9-1.4c-2.4-0.9-4.5-2.2-6.2-3.8c-1.7-1.6-3.1-3.5-4.1-5.7
			c-1-2.2-1.5-4.6-1.5-7.2c0-2.8,0.6-5.4,1.8-7.7c1.2-2.3,2.9-4.3,5-6c2.2-1.7,4.7-3,7.7-3.9c3-0.9,6.2-1.4,9.9-1.4
			c2.4,0,4.7,0.2,6.9,0.6c2.2,0.4,4.2,1,5.8,1.8v-2.6c0-6.6-3.8-9.9-11.4-9.9c-3.1,0-6.1,0.5-8.9,1.6c-2.8,1-5.8,2.6-8.9,4.7
			l-5.1-10.8c3.8-2.5,7.7-4.3,11.7-5.5c4-1.2,8.3-1.8,12.9-1.8c8.6,0,15.2,2,19.9,6.1c4.7,4,7,10,7,17.8v14.6c0,1.7,0.3,2.9,0.8,3.6
			c0.5,0.7,1.5,1.1,2.9,1.2v14.6c-1.5,0.4-2.9,0.6-4.1,0.7c-1.2,0.1-2.3,0.2-3.4,0.2c-3.2,0-5.7-0.6-7.4-1.9c-1.7-1.3-2.7-3-3.1-5.4
			l-0.3-2.6c-2.5,3.2-5.5,5.7-9,7.5C497.1,465.4,493.4,466.3,489.5,466.3z M494.6,453.9c1.9,0,3.7-0.3,5.5-1
			c1.8-0.6,3.2-1.5,4.4-2.6c1.7-1.3,2.5-2.7,2.5-4.1v-5.4c-1.5-0.6-3.2-1-4.9-1.4c-1.8-0.3-3.4-0.5-4.9-0.5c-3.2,0-5.8,0.7-7.9,2.2
			c-2.1,1.4-3.1,3.3-3.1,5.6c0,2.1,0.8,3.8,2.4,5.1C490.1,453.2,492.1,453.9,494.6,453.9z"/>
		<path class="st2" d="M591.6,465.2h-17.3v-31.9c0-3.8-0.7-6.5-2.1-8.2c-1.4-1.7-3.3-2.5-5.6-2.5c-1.2,0-2.5,0.3-3.7,0.8
			c-1.2,0.5-2.4,1.2-3.6,2.1c-1.2,0.9-2.2,2-3.1,3.2c-0.9,1.2-1.6,2.6-2.1,4v32.6h-17.3v-56.9h15.6v9.5c2.1-3.4,5.1-6,8.9-7.9
			c3.8-1.8,8.2-2.8,13.2-2.8c3.7,0,6.6,0.7,8.9,2c2.2,1.3,4,3.1,5.2,5.2c1.2,2.1,2,4.5,2.4,7c0.4,2.5,0.6,5,0.6,7.4V465.2z"/>
		<path class="st2" d="M639.3,462.2c-2.4,1-5.1,1.9-8.2,2.8c-3.1,0.9-6.2,1.3-9.3,1.3c-2.2,0-4.2-0.3-6.1-0.8
			c-1.9-0.5-3.6-1.4-5-2.6s-2.6-2.8-3.4-4.7c-0.8-1.9-1.2-4.3-1.2-7v-29.7h-7.3v-13.1h7.3v-18.1h17.3v18.1H635v13.1h-11.6v23.7
			c0,1.9,0.5,3.2,1.4,4.1c0.9,0.8,2.1,1.2,3.6,1.2c1.3,0,2.6-0.2,4-0.6c1.4-0.4,2.6-0.9,3.6-1.4L639.3,462.2z"/>
		<path class="st0" d="M693.6,410.9c-0.2-0.3-1-0.8-2.3-1.6c-1.3-0.8-2.9-1.6-4.9-2.5c-2-0.9-4.1-1.6-6.4-2.3c-2.3-0.6-4.6-1-6.9-1
			c-6.4,0-9.5,2.1-9.5,6.4c0,1.3,0.3,2.4,1,3.2c0.7,0.9,1.7,1.6,3,2.3c1.3,0.7,3,1.3,5,1.9c2,0.6,4.4,1.2,7,1.9c3.7,1,7,2.1,10,3.3
			c3,1.2,5.5,2.7,7.5,4.4c2.1,1.8,3.6,3.9,4.8,6.4c1.1,2.5,1.7,5.6,1.7,9.1c0,4.3-0.8,8-2.4,11c-1.6,3-3.8,5.4-6.4,7.3
			c-2.7,1.8-5.7,3.2-9.2,4c-3.5,0.8-7,1.2-10.7,1.2c-2.8,0-5.7-0.2-8.7-0.6c-3-0.4-5.8-1.1-8.7-1.9c-2.8-0.8-5.5-1.8-8.2-3
			c-2.6-1.2-5.1-2.5-7.3-4l7.8-15.5c0.3,0.4,1.2,1,2.8,2.1c1.6,1,3.6,2,5.9,3c2.3,1,5,1.9,7.9,2.7c2.9,0.8,5.8,1.2,8.8,1.2
			c6.3,0,9.4-1.9,9.4-5.7c0-1.4-0.5-2.6-1.4-3.6c-0.9-0.9-2.2-1.8-3.9-2.5c-1.7-0.8-3.6-1.5-5.9-2.1c-2.3-0.6-4.7-1.4-7.4-2.2
			c-3.5-1.1-6.6-2.3-9.2-3.5c-2.6-1.3-4.7-2.7-6.4-4.4c-1.7-1.7-3-3.6-3.8-5.7c-0.8-2.2-1.2-4.7-1.2-7.6c0-4,0.8-7.6,2.3-10.7
			c1.5-3.1,3.6-5.7,6.2-7.9c2.6-2.1,5.6-3.7,9-4.8c3.4-1.1,7.1-1.6,10.9-1.6c2.7,0,5.3,0.3,7.9,0.8c2.6,0.5,5.1,1.2,7.5,1.9
			c2.4,0.8,4.6,1.7,6.7,2.7c2.1,1,4,2,5.7,3L693.6,410.9z"/>
		<path class="st0" d="M739.8,466.3c-4.8,0-9-0.8-12.8-2.3c-3.8-1.6-7-3.7-9.6-6.3c-2.6-2.7-4.6-5.8-6-9.3c-1.4-3.5-2.1-7.2-2.1-11
			c0-4.1,0.7-8,2.1-11.6c1.4-3.6,3.4-6.8,6-9.6c2.6-2.7,5.8-4.9,9.6-6.5c3.8-1.6,8.1-2.4,12.9-2.4c4.8,0,9.1,0.8,12.9,2.4
			c3.8,1.6,6.9,3.7,9.5,6.4c2.6,2.7,4.6,5.8,5.9,9.4c1.3,3.5,2,7.3,2,11.2c0,1,0,2-0.1,3c-0.1,1-0.2,1.8-0.3,2.5h-42
			c0.3,3.8,1.7,6.7,4.2,8.7c2.5,2,5.3,3,8.5,3c2.5,0,5-0.6,7.3-1.8c2.3-1.2,3.9-2.9,4.7-5l14.7,4.1c-2.2,4.5-5.7,8.1-10.4,10.9
			C752,464.9,746.4,466.3,739.8,466.3z M751.9,431.4c-0.4-3.6-1.7-6.5-3.9-8.6c-2.2-2.1-5-3.1-8.3-3.1c-3.4,0-6.2,1.1-8.4,3.2
			c-2.2,2.1-3.5,5-3.8,8.5H751.9z"/>
		<path class="st0" d="M794.2,466.3c-2.8,0-5.4-0.5-7.9-1.4c-2.4-0.9-4.5-2.2-6.2-3.8c-1.7-1.6-3.1-3.5-4.1-5.7
			c-1-2.2-1.5-4.6-1.5-7.2c0-2.8,0.6-5.4,1.8-7.7c1.2-2.3,2.9-4.3,5-6c2.2-1.7,4.7-3,7.7-3.9c3-0.9,6.2-1.4,9.9-1.4
			c2.4,0,4.7,0.2,6.9,0.6c2.2,0.4,4.2,1,5.8,1.8v-2.6c0-6.6-3.8-9.9-11.4-9.9c-3.1,0-6.1,0.5-8.9,1.6c-2.8,1-5.8,2.6-8.9,4.7
			l-5.1-10.8c3.8-2.5,7.7-4.3,11.7-5.5c4-1.2,8.3-1.8,12.9-1.8c8.6,0,15.2,2,19.9,6.1c4.7,4,7,10,7,17.8v14.6c0,1.7,0.3,2.9,0.8,3.6
			c0.5,0.7,1.5,1.1,2.9,1.2v14.6c-1.5,0.4-2.9,0.6-4.1,0.7c-1.2,0.1-2.3,0.2-3.4,0.2c-3.2,0-5.7-0.6-7.4-1.9c-1.7-1.3-2.7-3-3.1-5.4
			l-0.3-2.6c-2.5,3.2-5.5,5.7-9,7.5C801.8,465.4,798.1,466.3,794.2,466.3z M799.3,453.9c1.9,0,3.7-0.3,5.5-1
			c1.8-0.6,3.2-1.5,4.4-2.6c1.7-1.3,2.5-2.7,2.5-4.1v-5.4c-1.5-0.6-3.2-1-4.9-1.4c-1.8-0.3-3.4-0.5-4.9-0.5c-3.2,0-5.8,0.7-7.9,2.2
			c-2.1,1.4-3.1,3.3-3.1,5.6c0,2.1,0.8,3.8,2.4,5.1C794.8,453.2,796.8,453.9,799.3,453.9z"/>
		<path class="st0" d="M877.6,423.2c-4.2,0.1-8,0.8-11.4,2.1c-3.4,1.3-5.8,3.2-7.4,5.8v34.1h-17.3v-56.9h15.9v11.5
			c1.9-3.8,4.5-6.8,7.5-9c3.1-2.2,6.3-3.3,9.8-3.4c0.8,0,1.4,0,1.7,0c0.4,0,0.7,0,1.1,0.1V423.2z"/>
		<path class="st0" d="M878.7,436.7c0-3.9,0.7-7.6,2.1-11.2c1.4-3.6,3.4-6.7,6-9.4c2.6-2.7,5.8-4.9,9.6-6.4
			c3.8-1.6,8.1-2.4,12.9-2.4c6.6,0,12.1,1.4,16.6,4.2c4.5,2.8,7.8,6.4,10.1,10.9l-16.9,5.1c-2.2-3.6-5.5-5.4-9.9-5.4
			c-3.6,0-6.6,1.3-9,4c-2.4,2.7-3.6,6.2-3.6,10.7c0,2.2,0.3,4.3,1,6.1c0.7,1.8,1.6,3.4,2.7,4.7c1.2,1.3,2.5,2.3,4.1,3
			c1.6,0.7,3.2,1.1,4.9,1.1c2.2,0,4.2-0.5,6-1.6c1.8-1,3.1-2.4,4-4.1l16.9,5.2c-2.1,4.4-5.4,8-10,10.8c-4.6,2.8-10.2,4.2-16.7,4.2
			c-4.8,0-9-0.8-12.8-2.4c-3.8-1.6-7-3.8-9.6-6.5c-2.6-2.7-4.6-5.8-6-9.4C879.3,444.4,878.7,440.6,878.7,436.7z"/>
		<path class="st0" d="M998.5,465.2h-17.3v-31.9c0-3.7-0.7-6.4-2.2-8.1c-1.4-1.7-3.4-2.6-6-2.6c-1,0-2.1,0.2-3.3,0.7
			c-1.2,0.5-2.3,1.2-3.5,2.1c-1.1,0.9-2.1,2-3.1,3.2c-0.9,1.2-1.7,2.6-2.2,4.1v32.6h-17.3v-79h17.3v31.7c2.1-3.4,4.9-6,8.3-7.9
			c3.4-1.8,7.2-2.8,11.3-2.8c3.8,0,6.9,0.7,9.3,2c2.3,1.3,4.2,3,5.4,5.1c1.3,2.1,2.1,4.4,2.5,6.9c0.4,2.6,0.6,5.1,0.6,7.5V465.2z"/>
	</g>
	<g>
		<path class="st3" d="M514.4,528.2h-17.2l-3.9,10.7h-3.4l14.4-37.9h3l14.4,37.9h-3.3L514.4,528.2z M498.1,525.5h15.2l-7.6-20.7
			L498.1,525.5z"/>
		<path class="st3" d="M566.1,538.8h-3.2l-21.8-32.5v32.5h-3.2v-37.9h3.2l21.8,32.5v-32.5h3.2V538.8z"/>
		<path class="st3" d="M586.4,538.8v-37.9h10.6c3.1,0,5.9,0.7,8.4,2.1c2.5,1.4,4.4,3.4,5.8,6.1c1.4,2.6,2.1,5.6,2.1,9v3.5
			c0,3.4-0.7,6.4-2.1,9c-1.4,2.6-3.3,4.6-5.8,6.1c-2.5,1.4-5.4,2.1-8.6,2.1H586.4z M589.7,503.6v32.5h7.2c4,0,7.2-1.3,9.6-4
			c2.4-2.7,3.6-6.2,3.6-10.8v-3.3c0-4.4-1.2-7.9-3.6-10.5c-2.4-2.6-5.5-3.9-9.4-4H589.7z"/>
		<path class="st3" d="M646.2,523h-11v15.8H632v-37.9h12.3c4,0,7.2,1,9.5,2.9c2.3,2,3.4,4.7,3.4,8.2c0,2.4-0.7,4.6-2.1,6.4
			c-1.4,1.9-3.3,3.1-5.7,3.9l9.5,16.2v0.3h-3.4L646.2,523z M635.2,520.3h9.8c2.7,0,4.9-0.8,6.5-2.3c1.6-1.5,2.4-3.5,2.4-6
			c0-2.7-0.9-4.8-2.6-6.2c-1.7-1.5-4.1-2.2-7.2-2.2h-9V520.3z"/>
		<path class="st3" d="M704.6,521.9c0,3.5-0.6,6.6-1.8,9.2c-1.2,2.6-2.9,4.7-5.2,6.1c-2.2,1.4-4.8,2.1-7.8,2.1
			c-4.4,0-8-1.6-10.7-4.8c-2.7-3.2-4.1-7.4-4.1-12.8v-3.9c0-3.5,0.6-6.5,1.8-9.2c1.2-2.7,3-4.7,5.2-6.1c2.2-1.4,4.8-2.1,7.7-2.1
			c2.9,0,5.5,0.7,7.7,2.1s4,3.4,5.2,6c1.2,2.6,1.9,5.6,1.9,8.9V521.9z M701.4,517.8c0-4.6-1-8.1-3.1-10.7c-2.1-2.6-4.9-3.9-8.5-3.9
			c-3.5,0-6.3,1.3-8.4,3.9c-2.1,2.6-3.1,6.2-3.1,10.9v4c0,4.5,1,8.1,3.1,10.7c2.1,2.6,4.9,3.9,8.5,3.9c3.6,0,6.5-1.3,8.5-3.9
			c2-2.6,3-6.2,3-10.9V517.8z"/>
		<path class="st3" d="M727.3,538.8h-3.2v-37.9h3.2V538.8z"/>
		<path class="st3" d="M748.3,538.8v-37.9h10.6c3.1,0,5.9,0.7,8.4,2.1c2.5,1.4,4.4,3.4,5.8,6.1c1.4,2.6,2.1,5.6,2.1,9v3.5
			c0,3.4-0.7,6.4-2.1,9c-1.4,2.6-3.3,4.6-5.8,6.1c-2.5,1.4-5.4,2.1-8.6,2.1H748.3z M751.5,503.6v32.5h7.2c4,0,7.2-1.3,9.6-4
			c2.4-2.7,3.6-6.2,3.6-10.8v-3.3c0-4.4-1.2-7.9-3.6-10.5c-2.4-2.6-5.5-3.9-9.4-4H751.5z"/>
	</g>
	<rect x="272.2" y="517.2" class="st3" width="197.9" height="3"/>
	<rect x="802.1" y="517.2" class="st3" width="197.9" height="3"/>
</g>
</svg>
