<svg xmlns="http://www.w3.org/2000/svg" width="334" height="338" viewBox="0 0 334 338" xmlns:xlink="http://www.w3.org/1999/xlink"><defs><rect id="b" width="254" height="250" y="38" rx="38"/><filter id="a" width="151.2%" height="152%" x="-25.6%" y="-22%" filterUnits="objectBoundingBox"><feOffset dy="10" in="SourceAlpha" result="shadowOffsetOuter1"/><feGaussianBlur stdDeviation="20" in="shadowOffsetOuter1" result="shadowBlurOuter1"/><feColorMatrix values="0 0 0 0 0.440703533 0 0 0 0 0.503310129 0 0 0 0 0.68486926 0 0 0 0.384454257 0" in="shadowBlurOuter1"/></filter><filter id="c" width="135.4%" height="136%" x="-17.7%" y="-14%" filterUnits="objectBoundingBox"><feOffset dy="-10" in="SourceAlpha" result="shadowOffsetInner1"/><feComposite in="shadowOffsetInner1" in2="SourceAlpha" operator="arithmetic" k2="-1" k3="1" result="shadowInnerInner1"/><feColorMatrix values="0 0 0 0 0.403921569 0 0 0 0 0.458823529 0 0 0 0 0.631372549 0 0 0 0.06 0" in="shadowInnerInner1"/></filter><linearGradient id="d" x1="21.895%" x2="77.978%" y1="121.561%" y2="8.499%"><stop stop-color="#201C38" offset="0%"/><stop stop-color="#3E396B" offset="100%"/></linearGradient></defs><g fill="none" fill-rule="evenodd" transform="translate(40)"><use fill="#000" filter="url(#a)" xlink:href="#b"/><use fill="#FFF" xlink:href="#b"/><use fill="#000" filter="url(#c)" xlink:href="#b"/><circle cx="254" cy="37" r="35" fill="#3E396B"/><path fill="#FFD141" d="M254.5 75c20.71 0 37.5-16.79 37.5-37.5S275.21 0 254.5 0 217 16.79 217 37.5 233.79 75 254.5 75zm24.94-23.336c-.435-2.71-2.204-4.988-7.444-7.114-1.819-.836-3.848-1.436-4.452-2.814-.215-.803-.244-1.253-.108-1.74.39-1.578 2.272-2.069 3.764-1.619.96.322 1.871 1.063 2.419 2.245 2.566-1.66 2.56-1.65 4.352-2.792-.656-1.018-1.007-1.487-1.436-1.922-1.543-1.725-3.645-2.611-7.007-2.544-.583.075-1.17.152-1.753.225-1.678.426-3.279 1.307-4.216 2.488-2.814 3.193-2.011 8.783 1.414 11.083 3.373 2.532 8.33 3.107 8.963 5.475.616 2.9-2.132 3.838-4.861 3.504-2.011-.418-3.131-1.44-4.34-3.3-2.228 1.288-2.228 1.288-4.516 2.605.542 1.187 1.115 1.725 2.023 2.754 4.307 4.367 15.086 4.153 17.017-2.46.079-.224.6-1.74.182-4.075l-.001.001zm-22.267-17.946h-5.56c0 4.803-.022 9.572-.022 14.376 0 3.057.156 5.861-.34 6.718-.815 1.693-2.922 1.482-3.883 1.155-.978-.482-1.475-1.164-2.051-2.132-.16-.275-.279-.49-.318-.508-1.509.922-3.011 1.848-4.522 2.77.752 1.543 1.86 2.882 3.279 3.752 2.119 1.27 4.967 1.66 7.945.977 1.938-.566 3.611-1.736 4.487-3.514 1.266-2.336.994-5.161.983-8.287.028-5.097 0-10.194 0-15.31l.002.003z"/><g fill-rule="nonzero"><path fill="#FFD141" d="M126.4 125.4c2 0 3.9-.4 5.8-1l3.2 5.5 2.2 3.8c.6 1.1 1.7 1.7 2.9 1.7.6 0 1.1-.1 1.7-.4 1.6-.9 2.1-3 1.2-4.6l-2.2-3.8-3.2-5.6c3.7-3.2 6.1-8 6.1-13.3 0-9.7-7.9-17.6-17.6-17.6-9.7 0-17.7 7.9-17.7 17.7 0 9.8 7.9 17.6 17.6 17.6zm0-28.6c6 0 10.9 4.9 10.9 10.9s-4.9 10.9-10.9 10.9-10.9-4.9-10.9-10.9 4.9-10.9 10.9-10.9z"/><path fill="url(#d)" d="M69.3 44.8c-8.6 0-15.7 6.2-17.3 14.3H41.3c-1.8 0-3.3 1.5-3.3 3.3 0 1.8 1.5 3.3 3.3 3.3H52C53.6 73.8 60.7 80 69.3 80c9.7 0 17.6-7.9 17.6-17.6 0-9.7-7.9-17.6-17.6-17.6zm0 28.6c-6 0-10.9-4.9-10.9-10.9s4.9-10.9 10.9-10.9 10.9 4.9 10.9 10.9-4.9 10.9-10.9 10.9zM29.2 49.2c3.7 3.2 6.1 7.9 6 13.3 0 9.7-7.9 17.6-17.6 17.6C7.9 80.1 0 72.3 0 62.5s7.9-17.7 17.6-17.7c2.1 0 4 .4 5.8 1l3.2-5.5 2.2-3.8c1-1.6 3-2.1 4.6-1.2 1.6 1 2.1 3 1.2 4.6l-2.2 3.8-3.2 5.5zM17.6 73.4c6.1 0 11-4.9 10.9-10.9 0-6-4.9-10.9-10.9-10.9S6.7 56.5 6.7 62.5s4.9 10.9 10.9 10.9z" transform="translate(83 90)"/></g><path fill="#3E396B" d="M43.34 197.2h3.792V214H43.34v-16.8zm19.044 5.088c.856.896 1.284 2.096 1.284 3.6V214h-3.696v-7.032c0-.816-.228-1.46-.684-1.932-.456-.472-1.076-.708-1.86-.708-.912.016-1.632.332-2.16.948-.528.616-.792 1.404-.792 2.364V214H50.78v-12.912h3.696v2.256c.896-1.568 2.384-2.368 4.464-2.4 1.44 0 2.588.448 3.444 1.344zm10.524 1.668c-.688-.216-1.304-.324-1.848-.324-.448 0-.808.08-1.08.24a.783.783 0 0 0-.408.72c0 .352.184.624.552.816.368.192.968.408 1.8.648.912.272 1.664.54 2.256.804a4.207 4.207 0 0 1 1.536 1.176c.432.52.648 1.204.648 2.052 0 1.28-.492 2.276-1.476 2.988-.984.712-2.244 1.068-3.78 1.068a9.949 9.949 0 0 1-3.048-.468c-.976-.312-1.824-.756-2.544-1.332l1.2-2.496a7.57 7.57 0 0 0 2.196 1.188c.808.28 1.572.42 2.292.42.496 0 .892-.084 1.188-.252a.817.817 0 0 0 .444-.756c0-.368-.188-.656-.564-.864-.376-.208-.98-.432-1.812-.672-.88-.256-1.612-.512-2.196-.768a3.915 3.915 0 0 1-1.5-1.164c-.416-.52-.624-1.196-.624-2.028 0-1.28.48-2.272 1.44-2.976.96-.704 2.176-1.056 3.648-1.056.88 0 1.76.124 2.64.372.88.248 1.68.604 2.4 1.068l-1.272 2.52c-.704-.4-1.4-.708-2.088-.924zm13.92 9.324a6.04 6.04 0 0 1-1.596.66 6.977 6.977 0 0 1-1.764.228c-1.2 0-2.176-.344-2.928-1.032-.752-.688-1.128-1.672-1.128-2.952v-5.976h-1.8v-2.544h1.8v-3.552h3.672v3.552h3.504v2.568h-3.504v5.328c0 .992.392 1.488 1.176 1.488.544 0 1.144-.16 1.8-.48l.768 2.712zm9.72.72v-1.512c-.432.544-.992.96-1.68 1.248-.688.288-1.48.432-2.376.432-1.36 0-2.44-.372-3.24-1.116-.8-.744-1.2-1.716-1.2-2.916 0-1.216.428-2.164 1.284-2.844.856-.68 2.068-1.028 3.636-1.044h3.552v-.24c0-.688-.228-1.22-.684-1.596-.456-.376-1.124-.564-2.004-.564-1.2 0-2.48.376-3.84 1.128l-1.152-2.544c1.024-.512 1.984-.888 2.88-1.128.896-.24 1.88-.36 2.952-.36 1.728 0 3.068.408 4.02 1.224.952.816 1.436 1.952 1.452 3.408l.024 8.424h-3.624zm-1.032-3.024c.56-.368.896-.832 1.008-1.392v-1.152H93.62c-.72 0-1.252.116-1.596.348-.344.232-.516.604-.516 1.116 0 .496.18.892.54 1.188.36.296.852.444 1.476.444.768 0 1.432-.184 1.992-.552zm19.452-8.688c.856.896 1.284 2.096 1.284 3.6V214h-3.696v-7.032c0-.816-.228-1.46-.684-1.932-.456-.472-1.076-.708-1.86-.708-.912.016-1.632.332-2.16.948-.528.616-.792 1.404-.792 2.364V214h-3.696v-12.912h3.696v2.256c.896-1.568 2.384-2.368 4.464-2.4 1.44 0 2.588.448 3.444 1.344zm12.468 10.992a6.04 6.04 0 0 1-1.596.66 6.977 6.977 0 0 1-1.764.228c-1.2 0-2.176-.344-2.928-1.032-.752-.688-1.128-1.672-1.128-2.952v-5.976h-1.8v-2.544h1.8v-3.552h3.672v3.552h3.504v2.568h-3.504v5.328c0 .992.392 1.488 1.176 1.488.544 0 1.144-.16 1.8-.48l.768 2.712zm10.62-12.66c-.968-.312-1.796-.468-2.484-.468-.656 0-1.176.12-1.56.36-.384.24-.576.592-.576 1.056 0 .592.276 1.044.828 1.356.552.312 1.404.636 2.556.972 1.152.336 2.1.672 2.844 1.008.744.336 1.38.84 1.908 1.512s.792 1.56.792 2.664c0 1.072-.284 1.996-.852 2.772-.568.776-1.348 1.364-2.34 1.764-.992.4-2.12.6-3.384.6-1.36 0-2.696-.24-4.008-.72-1.312-.48-2.448-1.136-3.408-1.968l1.512-3.096a10.222 10.222 0 0 0 2.928 1.848c1.104.464 2.112.696 3.024.696.784 0 1.396-.144 1.836-.432.44-.288.66-.704.66-1.248 0-.432-.148-.788-.444-1.068a3.4 3.4 0 0 0-1.128-.684 21.855 21.855 0 0 0-1.884-.6c-1.152-.32-2.092-.64-2.82-.96a4.962 4.962 0 0 1-1.884-1.464c-.528-.656-.792-1.528-.792-2.616 0-1.008.272-1.892.816-2.652.544-.76 1.304-1.344 2.28-1.752.976-.408 2.112-.612 3.408-.612a11.8 11.8 0 0 1 3.408.504c1.12.336 2.112.784 2.976 1.344l-1.464 3.144a12.754 12.754 0 0 0-2.748-1.26zm17.184 2.148c1.08 1.2 1.62 2.872 1.62 5.016 0 .384-.008.68-.024.888h-9.264c.208.816.608 1.452 1.2 1.908.592.456 1.304.684 2.136.684.608 0 1.192-.116 1.752-.348a4.632 4.632 0 0 0 1.512-1.02l1.944 1.968a6.534 6.534 0 0 1-2.388 1.692c-.936.392-1.98.588-3.132.588-1.36 0-2.548-.272-3.564-.816a5.725 5.725 0 0 1-2.352-2.304c-.552-.992-.828-2.136-.828-3.432 0-1.312.28-2.468.84-3.468a5.88 5.88 0 0 1 2.352-2.328c1.008-.552 2.16-.828 3.456-.828 2.08 0 3.66.6 4.74 1.8zm-1.86 3.72c-.032-.848-.304-1.528-.816-2.04s-1.192-.768-2.04-.768c-.8 0-1.468.252-2.004.756s-.876 1.188-1.02 2.052h5.88zM166.772 214v-1.512c-.432.544-.992.96-1.68 1.248-.688.288-1.48.432-2.376.432-1.36 0-2.44-.372-3.24-1.116-.8-.744-1.2-1.716-1.2-2.916 0-1.216.428-2.164 1.284-2.844.856-.68 2.068-1.028 3.636-1.044h3.552v-.24c0-.688-.228-1.22-.684-1.596-.456-.376-1.124-.564-2.004-.564-1.2 0-2.48.376-3.84 1.128l-1.152-2.544c1.024-.512 1.984-.888 2.88-1.128.896-.24 1.88-.36 2.952-.36 1.728 0 3.068.408 4.02 1.224.952.816 1.436 1.952 1.452 3.408l.024 8.424h-3.624zm-1.032-3.024c.56-.368.896-.832 1.008-1.392v-1.152h-2.904c-.72 0-1.252.116-1.596.348-.344.232-.516.604-.516 1.116 0 .496.18.892.54 1.188.36.296.852.444 1.476.444.768 0 1.432-.184 1.992-.552zm13.296-9.384c.72-.416 1.56-.632 2.52-.648v3.48a5.06 5.06 0 0 0-.576-.024c-1.136 0-2.036.308-2.7.924-.664.616-.996 1.436-.996 2.46V214h-3.696v-12.912h3.696v2.328c.448-.8 1.032-1.408 1.752-1.824zm10.272 2.52c-.928 0-1.684.316-2.268.948-.584.632-.876 1.468-.876 2.508s.288 1.884.864 2.532c.576.648 1.312.972 2.208.972 1.344 0 2.344-.504 3-1.512l2.544 1.728c-.544.912-1.308 1.616-2.292 2.112-.984.496-2.132.744-3.444.744-1.296 0-2.44-.272-3.432-.816a5.783 5.783 0 0 1-2.316-2.304c-.552-.992-.828-2.136-.828-3.432 0-1.312.276-2.468.828-3.468a5.821 5.821 0 0 1 2.328-2.328c1-.552 2.156-.828 3.468-.828 1.232 0 2.328.236 3.288.708a5.776 5.776 0 0 1 2.304 2.004l-2.496 1.8c-.736-.912-1.696-1.368-2.88-1.368zm19.524-1.824c.856.896 1.284 2.096 1.284 3.6V214h-3.696v-7.032c0-.816-.228-1.46-.684-1.932-.456-.472-1.076-.708-1.86-.708-.912.016-1.636.332-2.172.948-.536.616-.804 1.404-.804 2.364V214h-3.696v-17.808h3.696v7.176c.896-1.584 2.384-2.392 4.464-2.424 1.456 0 2.612.448 3.468 1.344z"/><path fill="#8995C7" d="M77.192 227.712c-.256.235-.384.57-.384 1.008v1.104h2.336v1.136h-2.336V238H75.32v-7.04h-1.104v-1.136h1.104v-.912c0-.619.13-1.144.392-1.576a2.554 2.554 0 0 1 1.032-.976 2.974 2.974 0 0 1 1.376-.328c.47 0 .96.128 1.472.384l-.352 1.216c-.384-.181-.747-.272-1.088-.272-.384 0-.704.117-.96.352zm9.08 2.32a3.913 3.913 0 0 1 1.536 1.512c.368.645.552 1.384.552 2.216 0 .832-.184 1.573-.552 2.224a3.898 3.898 0 0 1-1.536 1.52c-.656.363-1.405.544-2.248.544-.853 0-1.608-.181-2.264-.544a3.913 3.913 0 0 1-1.536-1.512c-.368-.645-.552-1.39-.552-2.232 0-.832.184-1.57.552-2.216.368-.645.88-1.15 1.536-1.512.656-.363 1.41-.544 2.264-.544.843 0 1.592.181 2.248.544zm-3.728 1.136c-.432.256-.768.61-1.008 1.064-.24.453-.36.968-.36 1.544 0 .587.12 1.11.36 1.568.24.459.576.813 1.008 1.064.432.25.925.376 1.48.376.544 0 1.032-.125 1.464-.376.432-.25.768-.605 1.008-1.064.24-.459.36-.981.36-1.568 0-.576-.12-1.09-.36-1.544a2.654 2.654 0 0 0-1.008-1.064 2.817 2.817 0 0 0-1.464-.384c-.555 0-1.048.128-1.48.384zm10.568-1.192c.512-.315 1.12-.477 1.824-.488v1.44c-.864-.032-1.563.192-2.096.672-.533.48-.837 1.125-.912 1.936V238H90.44v-8.464h1.488v1.824c.277-.608.672-1.07 1.184-1.384zm11.792 7.184c-.587.603-1.403.904-2.448.904a3.82 3.82 0 0 1-1.76-.416 4.297 4.297 0 0 1-1.424-1.184l.752-1.184c.352.416.739.733 1.16.952.421.219.84.328 1.256.328.576 0 1.019-.173 1.328-.52.31-.347.464-.84.464-1.48v-6.352h-3.952V226.8h5.504v7.808c0 1.099-.293 1.95-.88 2.552zm8.848.84v-1.184c-.63.832-1.616 1.248-2.96 1.248-.587 0-1.101-.112-1.544-.336a2.473 2.473 0 0 1-1.024-.928 2.505 2.505 0 0 1-.36-1.328c0-.757.28-1.357.84-1.8.56-.443 1.341-.67 2.344-.68h2.688v-.4c0-.597-.184-1.059-.552-1.384-.368-.325-.904-.488-1.608-.488-.853 0-1.723.304-2.608.912l-.624-1.024c.608-.395 1.17-.68 1.688-.856.517-.176 1.133-.264 1.848-.264 1.056 0 1.872.259 2.448.776.576.517.87 1.24.88 2.168l.016 5.568h-1.472zm-.888-1.672c.485-.336.776-.781.872-1.336v-.848h-2.48c-.672 0-1.17.101-1.496.304-.325.203-.488.523-.488.96 0 .437.165.784.496 1.04.33.256.773.384 1.328.384.693 0 1.283-.168 1.768-.504zm3.608-6.792h1.584l2.544 6.992 2.528-6.992h1.504L121.336 238h-1.552l-3.312-8.464zM131.208 238v-1.184c-.63.832-1.616 1.248-2.96 1.248-.587 0-1.101-.112-1.544-.336a2.473 2.473 0 0 1-1.024-.928 2.505 2.505 0 0 1-.36-1.328c0-.757.28-1.357.84-1.8.56-.443 1.341-.67 2.344-.68h2.688v-.4c0-.597-.184-1.059-.552-1.384-.368-.325-.904-.488-1.608-.488-.853 0-1.723.304-2.608.912l-.624-1.024c.608-.395 1.17-.68 1.688-.856.517-.176 1.133-.264 1.848-.264 1.056 0 1.872.259 2.448.776.576.517.87 1.24.88 2.168l.016 5.568h-1.472zm-.888-1.672c.485-.336.776-.781.872-1.336v-.848h-2.48c-.672 0-1.17.101-1.496.304-.325.203-.488.523-.488.96 0 .437.165.784.496 1.04.33.256.773.384 1.328.384.693 0 1.283-.168 1.768-.504zm10.08-7.936a5.487 5.487 0 0 0-1.544-.248c-.65 0-1.17.125-1.56.376-.39.25-.584.595-.584 1.032 0 .395.117.717.352.968.235.25.523.448.864.592.341.144.816.312 1.424.504.757.235 1.37.459 1.84.672.47.213.87.53 1.2.952.33.421.496.979.496 1.672 0 .64-.173 1.2-.52 1.68-.347.48-.832.85-1.456 1.112-.624.261-1.341.392-2.152.392-.821 0-1.621-.16-2.4-.48a6.508 6.508 0 0 1-2.016-1.28l.688-1.328a5.777 5.777 0 0 0 1.8 1.208c.667.283 1.315.424 1.944.424.747 0 1.336-.147 1.768-.44.432-.293.648-.69.648-1.192 0-.395-.117-.72-.352-.976a2.482 2.482 0 0 0-.888-.608 15.11 15.11 0 0 0-1.448-.496c-.747-.224-1.355-.443-1.824-.656a3.15 3.15 0 0 1-1.192-.944c-.325-.416-.488-.965-.488-1.648 0-.597.165-1.125.496-1.584.33-.459.795-.81 1.392-1.056.597-.245 1.29-.368 2.08-.368.672 0 1.33.099 1.976.296a6.62 6.62 0 0 1 1.72.792l-.64 1.376a6.443 6.443 0 0 0-1.624-.744zm8.312 2.424c-.555 0-1.048.123-1.48.368-.432.245-.77.592-1.016 1.04-.245.448-.368.965-.368 1.552 0 .587.12 1.104.36 1.552.24.448.57.797.992 1.048.421.25.904.376 1.448.376a3.81 3.81 0 0 0 1.472-.272c.437-.181.8-.443 1.088-.784l.848.864c-.384.48-.872.848-1.464 1.104-.592.256-1.261.384-2.008.384-.821 0-1.552-.181-2.192-.544a3.847 3.847 0 0 1-1.496-1.512c-.357-.645-.536-1.384-.536-2.216 0-.832.179-1.573.536-2.224a3.833 3.833 0 0 1 1.496-1.52c.64-.363 1.37-.544 2.192-.544.715 0 1.357.11 1.928.328a3.73 3.73 0 0 1 1.432.952l-.816 1.024a3.35 3.35 0 0 0-2.416-.976zm8.144-.84c.512-.315 1.12-.477 1.824-.488v1.44c-.864-.032-1.563.192-2.096.672-.533.48-.837 1.125-.912 1.936V238h-1.488v-8.464h1.488v1.824c.277-.608.672-1.07 1.184-1.384zm3.44-.44h1.488V238h-1.488v-8.464zm1.4-3.104c.176.181.264.41.264.688a.948.948 0 0 1-.264.688.887.887 0 0 1-.664.272.887.887 0 0 1-.664-.272.948.948 0 0 1-.264-.688c0-.277.088-.507.264-.688a.887.887 0 0 1 .664-.272c.267 0 .488.09.664.272zm9.8 3.6c.619.363 1.099.87 1.44 1.52.341.65.512 1.397.512 2.24 0 .832-.168 1.57-.504 2.216a3.655 3.655 0 0 1-1.424 1.504c-.613.357-1.315.536-2.104.536-.715 0-1.344-.15-1.888-.448a3.213 3.213 0 0 1-1.28-1.28v4.784h-1.488v-11.568h1.488v1.68c.31-.555.733-.981 1.272-1.28.539-.299 1.16-.448 1.864-.448.79 0 1.493.181 2.112.544zm-.936 6.336a2.642 2.642 0 0 0 1.008-1.072c.24-.459.36-.976.36-1.552 0-.565-.123-1.077-.368-1.536a2.714 2.714 0 0 0-1.008-1.072 2.775 2.775 0 0 0-1.456-.384c-.544 0-1.032.128-1.464.384-.432.256-.77.613-1.016 1.072-.245.459-.368.97-.368 1.536 0 .587.123 1.107.368 1.56a2.71 2.71 0 0 0 1.016 1.064c.432.256.92.384 1.464.384.544 0 1.032-.128 1.464-.384zm9.512 1.072c-.65.416-1.312.624-1.984.624-.672 0-1.216-.2-1.632-.6-.416-.4-.624-1.005-.624-1.816v-4.688h-1.2v-1.136h1.2v-2.272h1.504v2.272h2.592v1.136h-2.592v4.416c0 .47.085.805.256 1.008.17.203.427.304.768.304.405 0 .843-.133 1.312-.4l.4 1.152z"/></g></svg>