<svg xmlns="http://www.w3.org/2000/svg" width="334" height="338" viewBox="0 0 334 338" xmlns:xlink="http://www.w3.org/1999/xlink">
  <defs>
    <rect id="b" width="254" height="250" y="38" rx="38"/>
    <filter id="a" width="151.2%" height="152%" x="-25.6%" y="-22%" filterUnits="objectBoundingBox">
      <feOffset dy="10" in="SourceAlpha" result="shadowOffsetOuter1"/>
      <feGaussianBlur stdDeviation="20" in="shadowOffsetOuter1" result="shadowBlurOuter1"/>
      <feColorMatrix values="0 0 0 0 0.440703533 0 0 0 0 0.503310129 0 0 0 0 0.68486926 0 0 0 0.384454257 0" in="shadowBlurOuter1"/>
    </filter>
    <filter id="c" width="135.4%" height="136%" x="-17.7%" y="-14%" filterUnits="objectBoundingBox">
      <feOffset dy="-10" in="SourceAlpha" result="shadowOffsetInner1"/>
      <feComposite in="shadowOffsetInner1" in2="SourceAlpha" operator="arithmetic" k2="-1" k3="1" result="shadowInnerInner1"/>
      <feColorMatrix values="0 0 0 0 0.403921569 0 0 0 0 0.458823529 0 0 0 0 0.631372549 0 0 0 0.06 0" in="shadowInnerInner1"/>
    </filter>
    <linearGradient id="d" x1="21.895%" x2="77.978%" y1="121.561%" y2="8.499%">
      <stop stop-color="#201C38" offset="0%"/>
      <stop stop-color="#3E396B" offset="100%"/>
    </linearGradient>
  </defs>
  <g fill="none" fill-rule="evenodd" transform="translate(40)">
    <use fill="black" filter="url(#a)" xlink:href="#b"/>
    <use fill="#FFFFFF" xlink:href="#b"/>
    <use fill="black" filter="url(#c)" xlink:href="#b"/>
    <circle cx="254" cy="37" r="35" fill="#3E396B"/>
    <path fill="#FFD141" d="M254.5,75 C275.210714,75 292,58.2107143 292,37.5 C292,16.7892857 275.210714,0 254.5,0 C233.789286,0 217,16.7892857 217,37.5 C217,58.2107143 233.789286,75 254.5,75 Z M279.439643,51.6642857 C279.004643,48.9535714 277.235714,46.6757143 271.996429,44.55 C270.177143,43.7142857 268.147857,43.1142857 267.543571,41.7364286 C267.329286,40.9328571 267.300357,40.4828571 267.436429,39.9953571 C267.826429,38.4182143 269.707857,37.9275 271.200357,38.3775 C272.160357,38.6989286 273.071071,39.4403571 273.618571,40.6221429 C276.184643,38.9614286 276.179286,38.9721429 277.970714,37.83 C277.315,36.8121429 276.963571,36.3428571 276.535,35.9078571 C274.992143,34.1828571 272.89,33.2967857 269.527857,33.3642857 C268.945,33.4392857 268.357857,33.5164286 267.775,33.5892857 C266.097143,34.0146429 264.496429,34.8964286 263.558929,36.0771429 C260.745357,39.27 261.547857,44.8596429 264.973214,47.16 C268.346071,49.6917857 273.3025,50.2671429 273.935714,52.635 C274.551786,55.5353571 271.803571,56.4728571 269.074643,56.1385714 C267.063571,55.7207143 265.943929,54.6985714 264.735357,52.8385714 C262.506786,54.1275 262.506786,54.1275 260.219286,55.4442857 C260.761429,56.6314286 261.333571,57.1692857 262.242143,58.1978571 C266.549286,62.565 277.327857,62.3507143 279.258571,55.7389286 C279.337857,55.5139286 279.858571,53.9978571 279.440714,51.6632143 L279.439643,51.6642857 Z M257.173214,33.7178571 L251.6125,33.7178571 C251.6125,38.5210714 251.591071,43.29 251.591071,48.0942857 C251.591071,51.1510714 251.7475,53.955 251.250357,54.8121429 C250.436071,56.505 248.328571,56.2939286 247.3675,55.9671429 C246.390357,55.485 245.893214,54.8025 245.316786,53.835 C245.156071,53.5596429 245.038214,53.3442857 244.998571,53.3271429 C243.49,54.2485714 241.987857,55.1753571 240.477143,56.0967857 C241.229286,57.6396429 242.337143,58.9789286 243.755714,59.8489286 C245.875,61.1196429 248.722857,61.5096429 251.701429,60.8260714 C253.638571,60.2603571 255.312143,59.0903571 256.1875,57.3117857 C257.453929,54.9760714 257.181786,52.1507143 257.171071,49.0253571 C257.198929,43.9275 257.171071,38.8307143 257.171071,33.7146429 L257.173214,33.7178571 Z"/>
    <g transform="translate(43 90)">
      <g fill-rule="nonzero" transform="translate(40)">
        <path fill="#FFD141" d="M43.4,35.4 C45.4,35.4 47.3,35 49.2,34.4 L52.4,39.9 L54.6,43.7 C55.2,44.8 56.3,45.4 57.5,45.4 C58.1,45.4 58.6,45.3 59.2,45 C60.8,44.1 61.3,42 60.4,40.4 L58.2,36.6 L55,31 C58.7,27.8 61.1,23 61.1,17.7 C61.1,8 53.2,0.1 43.5,0.1 C33.8,0.1 25.8,8 25.8,17.8 C25.8,27.6 33.7,35.4 43.4,35.4 Z M43.4,6.8 C49.4,6.8 54.3,11.7 54.3,17.7 C54.3,23.7 49.4,28.6 43.4,28.6 C37.4,28.6 32.5,23.7 32.5,17.7 C32.5,11.7 37.4,6.8 43.4,6.8 Z"/>
        <path fill="url(#d)" d="M69.3,44.8 C60.7,44.8 53.6,51 52,59.1 L45.7,59.1 L41.3,59.1 C39.5,59.1 38,60.6 38,62.4 C38,64.2 39.5,65.7 41.3,65.7 L45.7,65.7 L52,65.7 C53.6,73.8 60.7,80 69.3,80 C79,80 86.9,72.1 86.9,62.4 C86.9,52.7 79,44.8 69.3,44.8 Z M69.3,73.4 C63.3,73.4 58.4,68.5 58.4,62.5 C58.4,56.5 63.3,51.6 69.3,51.6 C75.3,51.6 80.2,56.5 80.2,62.5 C80.2,68.5 75.3,73.4 69.3,73.4 Z M29.2,49.2 C32.9,52.4 35.3,57.1 35.2,62.5 C35.2,72.2 27.3,80.1 17.6,80.1 C7.9,80.1 0,72.3 0,62.5 C0,52.7 7.9,44.8 17.6,44.8 C19.7,44.8 21.6,45.2 23.4,45.8 L26.6,40.3 L28.8,36.5 C29.8,34.9 31.8,34.4 33.4,35.3 C35,36.3 35.5,38.3 34.6,39.9 L32.4,43.7 L29.2,49.2 Z M17.6,73.4 C23.7,73.4 28.6,68.5 28.5,62.5 C28.5,56.5 23.6,51.6 17.6,51.6 C11.6,51.6 6.7,56.5 6.7,62.5 C6.7,68.5 11.6,73.4 17.6,73.4 Z"/>
      </g>
      <path fill="#3E396B" d="M0.34,107.2 L4.132,107.2 L4.132,124 L0.34,124 L0.34,107.2 Z M19.384,112.288 C20.2400043,113.184004 20.668,114.383992 20.668,115.888 L20.668,124 L16.972,124 L16.972,116.968 C16.972,116.151996 16.7440023,115.508002 16.288,115.036 C15.8319977,114.563998 15.2120039,114.328 14.428,114.328 C13.5159954,114.344 12.7960026,114.659997 12.268,115.276 C11.7399974,115.892003 11.476,116.679995 11.476,117.64 L11.476,124 L7.78,124 L7.78,111.088 L11.476,111.088 L11.476,113.344 C12.3720045,111.775992 13.8599896,110.976 15.94,110.944 C17.3800072,110.944 18.5279957,111.391996 19.384,112.288 Z M29.908,113.956 C29.2199966,113.739999 28.6040027,113.632 28.06,113.632 C27.6119978,113.632 27.2520014,113.711999 26.98,113.872 C26.7079986,114.032001 26.572,114.271998 26.572,114.592 C26.572,114.944002 26.7559982,115.215999 27.124,115.408 C27.4920018,115.600001 28.0919958,115.815999 28.924,116.056 C29.8360046,116.328001 30.587997,116.595999 31.18,116.86 C31.772003,117.124001 32.2839978,117.515997 32.716,118.036 C33.1480022,118.556003 33.364,119.239996 33.364,120.088 C33.364,121.368006 32.8720049,122.363996 31.888,123.076 C30.9039951,123.788004 29.6440077,124.144 28.108,124.144 C27.0519947,124.144 26.0360049,123.988002 25.06,123.676 C24.0839951,123.363998 23.2360036,122.920003 22.516,122.344 L23.716,119.848 C24.3720033,120.360003 25.103996,120.755999 25.912,121.036 C26.720004,121.316001 27.4839964,121.456 28.204,121.456 C28.7000025,121.456 29.0959985,121.372001 29.392,121.204 C29.6880015,121.035999 29.836,120.784002 29.836,120.448 C29.836,120.079998 29.6480019,119.792001 29.272,119.584 C28.8959981,119.375999 28.2920042,119.152001 27.46,118.912 C26.5799956,118.655999 25.8480029,118.400001 25.264,118.144 C24.6799971,117.887999 24.1800021,117.500003 23.764,116.98 C23.3479979,116.459997 23.14,115.784004 23.14,114.952 C23.14,113.671994 23.6199952,112.680004 24.58,111.976 C25.5400048,111.271996 26.7559926,110.92 28.228,110.92 C29.1080044,110.92 29.9879956,111.043999 30.868,111.292 C31.7480044,111.540001 32.5479964,111.895998 33.268,112.36 L31.996,114.88 C31.2919965,114.479998 30.5960034,114.172001 29.908,113.956 Z M43.828,123.28 C43.3479976,123.568001 42.8160029,123.787999 42.232,123.94 C41.6479971,124.092001 41.060003,124.168 40.468,124.168 C39.267994,124.168 38.2920038,123.824003 37.54,123.136 C36.7879962,122.447997 36.412,121.464006 36.412,120.184 L36.412,114.208 L34.612,114.208 L34.612,111.664 L36.412,111.664 L36.412,108.112 L40.084,108.112 L40.084,111.664 L43.588,111.664 L43.588,114.232 L40.084,114.232 L40.084,119.56 C40.084,120.552005 40.4759961,121.048 41.26,121.048 C41.8040027,121.048 42.4039967,120.888002 43.06,120.568 L43.828,123.28 Z M53.548,124 L53.548,122.488 C53.1159978,123.032003 52.5560034,123.447999 51.868,123.736 C51.1799966,124.024001 50.3880045,124.168 49.492,124.168 C48.1319932,124.168 47.052004,123.796004 46.252,123.052 C45.451996,122.307996 45.052,121.336006 45.052,120.136 C45.052,118.919994 45.4799957,117.972003 46.336,117.292 C47.1920043,116.611997 48.4039922,116.264 49.972,116.248 L53.524,116.248 L53.524,116.008 C53.524,115.319997 53.2960023,114.788002 52.84,114.412 C52.3839977,114.035998 51.7160044,113.848 50.836,113.848 C49.635994,113.848 48.3560068,114.223996 46.996,114.976 L45.844,112.432 C46.8680051,111.919997 47.8279955,111.544001 48.724,111.304 C49.6200045,111.063999 50.6039946,110.944 51.676,110.944 C53.4040086,110.944 54.7439952,111.351996 55.696,112.168 C56.6480048,112.984004 57.1319999,114.119993 57.148,115.576 L57.172,124 L53.548,124 Z M52.516,120.976 C53.0760028,120.607998 53.4119994,120.144003 53.524,119.584 L53.524,118.432 L50.62,118.432 C49.8999964,118.432 49.3680017,118.547999 49.024,118.78 C48.6799983,119.012001 48.508,119.383997 48.508,119.896 C48.508,120.392002 48.6879982,120.787999 49.048,121.084 C49.4080018,121.380001 49.8999969,121.528 50.524,121.528 C51.2920038,121.528 51.9559972,121.344002 52.516,120.976 Z M71.968,112.288 C72.8240043,113.184004 73.252,114.383992 73.252,115.888 L73.252,124 L69.556,124 L69.556,116.968 C69.556,116.151996 69.3280023,115.508002 68.872,115.036 C68.4159977,114.563998 67.7960039,114.328 67.012,114.328 C66.0999954,114.344 65.3800026,114.659997 64.852,115.276 C64.3239974,115.892003 64.06,116.679995 64.06,117.64 L64.06,124 L60.364,124 L60.364,111.088 L64.06,111.088 L64.06,113.344 C64.9560045,111.775992 66.4439896,110.976 68.524,110.944 C69.9640072,110.944 71.1119957,111.391996 71.968,112.288 Z M84.436,123.28 C83.9559976,123.568001 83.4240029,123.787999 82.84,123.94 C82.2559971,124.092001 81.668003,124.168 81.076,124.168 C79.875994,124.168 78.9000038,123.824003 78.148,123.136 C77.3959962,122.447997 77.02,121.464006 77.02,120.184 L77.02,114.208 L75.22,114.208 L75.22,111.664 L77.02,111.664 L77.02,108.112 L80.692,108.112 L80.692,111.664 L84.196,111.664 L84.196,114.232 L80.692,114.232 L80.692,119.56 C80.692,120.552005 81.0839961,121.048 81.868,121.048 C82.4120027,121.048 83.0119967,120.888002 83.668,120.568 L84.436,123.28 Z M95.056,110.62 C94.0879952,110.307998 93.2600034,110.152 92.572,110.152 C91.9159967,110.152 91.3960019,110.271999 91.012,110.512 C90.6279981,110.752001 90.436,111.103998 90.436,111.568 C90.436,112.160003 90.7119972,112.611998 91.264,112.924 C91.8160028,113.236002 92.6679942,113.559998 93.82,113.896 C94.9720058,114.232002 95.9199963,114.567998 96.664,114.904 C97.4080037,115.240002 98.0439974,115.743997 98.572,116.416 C99.1000026,117.088003 99.364,117.975994 99.364,119.08 C99.364,120.152005 99.0800028,121.075996 98.512,121.852 C97.9439972,122.628004 97.164005,123.215998 96.172,123.616 C95.179995,124.016002 94.0520063,124.216 92.788,124.216 C91.4279932,124.216 90.0920066,123.976002 88.78,123.496 C87.4679934,123.015998 86.3320048,122.360004 85.372,121.528 L86.884,118.432 C87.7320042,119.200004 88.7079945,119.815998 89.812,120.28 C90.9160055,120.744002 91.9239954,120.976 92.836,120.976 C93.6200039,120.976 94.2319978,120.832001 94.672,120.544 C95.1120022,120.255999 95.332,119.840003 95.332,119.296 C95.332,118.863998 95.1840015,118.508001 94.888,118.228 C94.5919985,117.947999 94.2160023,117.720001 93.76,117.544 C93.3039977,117.367999 92.676004,117.168001 91.876,116.944 C90.7239942,116.623998 89.7840036,116.304002 89.056,115.984 C88.3279964,115.663998 87.7000026,115.176003 87.172,114.52 C86.6439974,113.863997 86.38,112.992005 86.38,111.904 C86.38,110.895995 86.6519973,110.012004 87.196,109.252 C87.7400027,108.491996 88.4999951,107.908002 89.476,107.5 C90.4520049,107.091998 91.5879935,106.888 92.884,106.888 C94.0360058,106.888 95.1719944,107.055998 96.292,107.392 C97.4120056,107.728002 98.4039957,108.175997 99.268,108.736 L97.804,111.88 C96.9399957,111.351997 96.0240048,110.932002 95.056,110.62 Z M112.24,112.768 C113.320005,113.968006 113.86,115.639989 113.86,117.784 C113.86,118.168002 113.852,118.463999 113.836,118.672 L104.572,118.672 C104.780001,119.488004 105.179997,120.123998 105.772,120.58 C106.364003,121.036002 107.075996,121.264 107.908,121.264 C108.516003,121.264 109.099997,121.148001 109.66,120.916 C110.220003,120.683999 110.723998,120.344002 111.172,119.896 L113.116,121.864 C112.459997,122.600004 111.664005,123.163998 110.728,123.556 C109.791995,123.948002 108.748006,124.144 107.596,124.144 C106.235993,124.144 105.048005,123.872003 104.032,123.328 C103.015995,122.783997 102.232003,122.016005 101.68,121.024 C101.127997,120.031995 100.852,118.888006 100.852,117.592 C100.852,116.279993 101.131997,115.124005 101.692,114.124 C102.252003,113.123995 103.035995,112.348003 104.044,111.796 C105.052005,111.243997 106.203994,110.968 107.5,110.968 C109.58001,110.968 111.159995,111.567994 112.24,112.768 Z M110.38,116.488 C110.348,115.639996 110.076003,114.960003 109.564,114.448 C109.051997,113.935997 108.372004,113.68 107.524,113.68 C106.723996,113.68 106.056003,113.931997 105.52,114.436 C104.983997,114.940003 104.644001,115.623996 104.5,116.488 L110.38,116.488 Z M123.772,124 L123.772,122.488 C123.339998,123.032003 122.780003,123.447999 122.092,123.736 C121.403997,124.024001 120.612004,124.168 119.716,124.168 C118.355993,124.168 117.276004,123.796004 116.476,123.052 C115.675996,122.307996 115.276,121.336006 115.276,120.136 C115.276,118.919994 115.703996,117.972003 116.56,117.292 C117.416004,116.611997 118.627992,116.264 120.196,116.248 L123.748,116.248 L123.748,116.008 C123.748,115.319997 123.520002,114.788002 123.064,114.412 C122.607998,114.035998 121.940004,113.848 121.06,113.848 C119.859994,113.848 118.580007,114.223996 117.22,114.976 L116.068,112.432 C117.092005,111.919997 118.051996,111.544001 118.948,111.304 C119.844004,111.063999 120.827995,110.944 121.9,110.944 C123.628009,110.944 124.967995,111.351996 125.92,112.168 C126.872005,112.984004 127.356,114.119993 127.372,115.576 L127.396,124 L123.772,124 Z M122.74,120.976 C123.300003,120.607998 123.635999,120.144003 123.748,119.584 L123.748,118.432 L120.844,118.432 C120.123996,118.432 119.592002,118.547999 119.248,118.78 C118.903998,119.012001 118.732,119.383997 118.732,119.896 C118.732,120.392002 118.911998,120.787999 119.272,121.084 C119.632002,121.380001 120.123997,121.528 120.748,121.528 C121.516004,121.528 122.179997,121.344002 122.74,120.976 Z M136.036,111.592 C136.756004,111.175998 137.595995,110.96 138.556,110.944 L138.556,114.424 C138.427999,114.408 138.236001,114.4 137.98,114.4 C136.843994,114.4 135.944003,114.707997 135.28,115.324 C134.615997,115.940003 134.284,116.759995 134.284,117.784 L134.284,124 L130.588,124 L130.588,111.088 L134.284,111.088 L134.284,113.416 C134.732002,112.615996 135.315996,112.008002 136.036,111.592 Z M146.308,114.112 C145.379995,114.112 144.624003,114.427997 144.04,115.06 C143.455997,115.692003 143.164,116.527995 143.164,117.568 C143.164,118.608005 143.451997,119.451997 144.028,120.1 C144.604003,120.748003 145.339996,121.072 146.236,121.072 C147.580007,121.072 148.579997,120.568005 149.236,119.56 L151.78,121.288 C151.235997,122.200005 150.472005,122.903998 149.488,123.4 C148.503995,123.896002 147.356007,124.144 146.044,124.144 C144.747994,124.144 143.604005,123.872003 142.612,123.328 C141.619995,122.783997 140.848003,122.016005 140.296,121.024 C139.743997,120.031995 139.468,118.888006 139.468,117.592 C139.468,116.279993 139.743997,115.124005 140.296,114.124 C140.848003,113.123995 141.623995,112.348003 142.624,111.796 C143.624005,111.243997 144.779993,110.968 146.092,110.968 C147.324006,110.968 148.419995,111.203998 149.38,111.676 C150.340005,112.148002 151.107997,112.815996 151.684,113.68 L149.188,115.48 C148.451996,114.567995 147.492006,114.112 146.308,114.112 Z M165.832,112.288 C166.688004,113.184004 167.116,114.383992 167.116,115.888 L167.116,124 L163.42,124 L163.42,116.968 C163.42,116.151996 163.192002,115.508002 162.736,115.036 C162.279998,114.563998 161.660004,114.328 160.876,114.328 C159.963995,114.344 159.240003,114.659997 158.704,115.276 C158.167997,115.892003 157.9,116.679995 157.9,117.64 L157.9,124 L154.204,124 L154.204,106.192 L157.9,106.192 L157.9,113.368 C158.796004,111.783992 160.28399,110.976 162.364,110.944 C163.820007,110.944 164.975996,111.391996 165.832,112.288 Z"/>
      <path fill="#8995C7" d="M34.192,137.712 C33.9359987,137.946668 33.808,138.282664 33.808,138.72 L33.808,139.824 L36.144,139.824 L36.144,140.96 L33.808,140.96 L33.808,148 L32.32,148 L32.32,140.96 L31.216,140.96 L31.216,139.824 L32.32,139.824 L32.32,138.912 C32.32,138.29333 32.4506654,137.768002 32.712,137.336 C32.9733346,136.903998 33.3173312,136.578668 33.744,136.36 C34.1706688,136.141332 34.6293309,136.032 35.12,136.032 C35.5893357,136.032 36.0799974,136.159999 36.592,136.416 L36.24,137.632 C35.8559981,137.450666 35.493335,137.36 35.152,137.36 C34.7679981,137.36 34.4480013,137.477332 34.192,137.712 Z M43.272,140.032 C43.9280033,140.394668 44.4399982,140.898663 44.808,141.544 C45.1760018,142.189337 45.36,142.927996 45.36,143.76 C45.36,144.592004 45.1760018,145.33333 44.808,145.984 C44.4399982,146.63467 43.9280033,147.141332 43.272,147.504 C42.6159967,147.866668 41.8666709,148.048 41.024,148.048 C40.1706624,148.048 39.4160033,147.866668 38.76,147.504 C38.1039967,147.141332 37.5920018,146.637337 37.224,145.992 C36.8559982,145.346663 36.672,144.602671 36.672,143.76 C36.672,142.927996 36.8559982,142.189337 37.224,141.544 C37.5920018,140.898663 38.1039967,140.394668 38.76,140.032 C39.4160033,139.669332 40.1706624,139.488 41.024,139.488 C41.8666709,139.488 42.6159967,139.669332 43.272,140.032 Z M39.544,141.168 C39.1119978,141.424001 38.7760012,141.778664 38.536,142.232 C38.2959988,142.685336 38.176,143.199997 38.176,143.776 C38.176,144.36267 38.2959988,144.885331 38.536,145.344 C38.7760012,145.802669 39.1119978,146.157332 39.544,146.408 C39.9760022,146.658668 40.4693306,146.784 41.024,146.784 C41.5680027,146.784 42.0559978,146.658668 42.488,146.408 C42.9200022,146.157332 43.2559988,145.802669 43.496,145.344 C43.7360012,144.885331 43.856,144.36267 43.856,143.776 C43.856,143.199997 43.7360012,142.685336 43.496,142.232 C43.2559988,141.778664 42.9200022,141.424001 42.488,141.168 C42.0559978,140.911999 41.5680027,140.784 41.024,140.784 C40.4693306,140.784 39.9760022,140.911999 39.544,141.168 Z M50.112,139.976 C50.6240026,139.661332 51.2319965,139.498667 51.936,139.488 L51.936,140.928 C51.0719957,140.896 50.373336,141.119998 49.84,141.6 C49.306664,142.080002 49.002667,142.725329 48.928,143.536 L48.928,148 L47.44,148 L47.44,139.536 L48.928,139.536 L48.928,141.36 C49.2053347,140.751997 49.5999974,140.290668 50.112,139.976 Z M61.904,147.16 C61.3173304,147.76267 60.5013386,148.064 59.456,148.064 C58.8266635,148.064 58.2400027,147.925335 57.696,147.648 C57.1519973,147.370665 56.6773354,146.976003 56.272,146.464 L57.024,145.28 C57.3760018,145.696002 57.7626646,146.013332 58.184,146.232 C58.6053354,146.450668 59.0239979,146.56 59.44,146.56 C60.0160029,146.56 60.4586651,146.386668 60.768,146.04 C61.0773349,145.693332 61.232,145.200003 61.232,144.56 L61.232,138.208 L57.28,138.208 L57.28,136.8 L62.784,136.8 L62.784,144.608 C62.784,145.706672 62.4906696,146.55733 61.904,147.16 Z M70.752,148 L70.752,146.816 C70.1226635,147.648004 69.1360067,148.064 67.792,148.064 C67.2053304,148.064 66.6906689,147.952001 66.248,147.728 C65.8053311,147.503999 65.4640012,147.194669 65.224,146.8 C64.9839988,146.405331 64.864,145.962669 64.864,145.472 C64.864,144.714663 65.1439972,144.114669 65.704,143.672 C66.2640028,143.229331 67.0453283,143.002667 68.048,142.992 L70.736,142.992 L70.736,142.592 C70.736,141.994664 70.5520018,141.533335 70.184,141.208 C69.8159982,140.882665 69.2800035,140.72 68.576,140.72 C67.7226624,140.72 66.8533378,141.023997 65.968,141.632 L65.344,140.608 C65.952003,140.213331 66.5146641,139.928001 67.032,139.752 C67.5493359,139.575999 68.1653298,139.488 68.88,139.488 C69.9360053,139.488 70.7519971,139.746664 71.328,140.264 C71.9040029,140.781336 72.1973333,141.503995 72.208,142.432 L72.224,148 L70.752,148 Z M69.864,146.328 C70.3493358,145.991998 70.6399995,145.546669 70.736,144.992 L70.736,144.144 L68.256,144.144 C67.5839966,144.144 67.085335,144.245332 66.76,144.448 C66.434665,144.650668 66.272,144.970664 66.272,145.408 C66.272,145.845336 66.4373317,146.191999 66.768,146.448 C67.0986683,146.704001 67.5413306,146.832 68.096,146.832 C68.7893368,146.832 69.3786642,146.664002 69.864,146.328 Z M73.472,139.536 L75.056,139.536 L77.6,146.528 L80.128,139.536 L81.632,139.536 L78.336,148 L76.784,148 L73.472,139.536 Z M88.208,148 L88.208,146.816 C87.5786635,147.648004 86.5920067,148.064 85.248,148.064 C84.6613304,148.064 84.1466689,147.952001 83.704,147.728 C83.2613311,147.503999 82.9200012,147.194669 82.68,146.8 C82.4399988,146.405331 82.32,145.962669 82.32,145.472 C82.32,144.714663 82.5999972,144.114669 83.16,143.672 C83.7200028,143.229331 84.5013283,143.002667 85.504,142.992 L88.192,142.992 L88.192,142.592 C88.192,141.994664 88.0080018,141.533335 87.64,141.208 C87.2719982,140.882665 86.7360035,140.72 86.032,140.72 C85.1786624,140.72 84.3093378,141.023997 83.424,141.632 L82.8,140.608 C83.408003,140.213331 83.9706641,139.928001 84.488,139.752 C85.0053359,139.575999 85.6213298,139.488 86.336,139.488 C87.3920053,139.488 88.2079971,139.746664 88.784,140.264 C89.3600029,140.781336 89.6533333,141.503995 89.664,142.432 L89.68,148 L88.208,148 Z M87.32,146.328 C87.8053358,145.991998 88.0959995,145.546669 88.192,144.992 L88.192,144.144 L85.712,144.144 C85.0399966,144.144 84.541335,144.245332 84.216,144.448 C83.890665,144.650668 83.728,144.970664 83.728,145.408 C83.728,145.845336 83.8933317,146.191999 84.224,146.448 C84.5546683,146.704001 84.9973306,146.832 85.552,146.832 C86.2453368,146.832 86.8346642,146.664002 87.32,146.328 Z M97.4,138.392 C96.8399972,138.226666 96.3253357,138.144 95.856,138.144 C95.2053301,138.144 94.6853353,138.269332 94.296,138.52 C93.9066647,138.770668 93.712,139.114664 93.712,139.552 C93.712,139.946669 93.8293322,140.269332 94.064,140.52 C94.2986678,140.770668 94.586665,140.967999 94.928,141.112 C95.269335,141.256001 95.743997,141.423999 96.352,141.616 C97.1093371,141.850668 97.7226643,142.074666 98.192,142.288 C98.6613357,142.501334 99.0613317,142.818665 99.392,143.24 C99.7226683,143.661335 99.888,144.218663 99.888,144.912 C99.888,145.552003 99.7146684,146.111998 99.368,146.592 C99.0213316,147.072002 98.5360031,147.442665 97.912,147.704 C97.2879969,147.965335 96.5706707,148.096 95.76,148.096 C94.9386626,148.096 94.1386706,147.936002 93.36,147.616 C92.5813294,147.295998 91.9093362,146.869336 91.344,146.336 L92.032,145.008 C92.565336,145.530669 93.16533,145.933332 93.832,146.216 C94.49867,146.498668 95.1466635,146.64 95.776,146.64 C96.5226704,146.64 97.1119978,146.493335 97.544,146.2 C97.9760022,145.906665 98.192,145.509336 98.192,145.008 C98.192,144.613331 98.0746678,144.288001 97.84,144.032 C97.6053322,143.775999 97.3093351,143.573334 96.952,143.424 C96.5946649,143.274666 96.112003,143.109334 95.504,142.928 C94.7573296,142.703999 94.1493357,142.485334 93.68,142.272 C93.2106643,142.058666 92.813335,141.744002 92.488,141.328 C92.162665,140.911998 92,140.36267 92,139.68 C92,139.082664 92.1653317,138.554669 92.496,138.096 C92.8266683,137.637331 93.2906637,137.285335 93.888,137.04 C94.4853363,136.794665 95.1786627,136.672 95.968,136.672 C96.6400034,136.672 97.2986634,136.770666 97.944,136.968 C98.5893366,137.165334 99.1626642,137.429332 99.664,137.76 L99.024,139.136 C98.5013307,138.805332 97.9600028,138.557334 97.4,138.392 Z M105.712,140.816 C105.157331,140.816 104.664002,140.938665 104.232,141.184 C103.799998,141.429335 103.461335,141.775998 103.216,142.224 C102.970665,142.672002 102.848,143.18933 102.848,143.776 C102.848,144.36267 102.967999,144.879998 103.208,145.328 C103.448001,145.776002 103.778665,146.125332 104.2,146.376 C104.621335,146.626668 105.103997,146.752 105.648,146.752 C106.192003,146.752 106.682664,146.661334 107.12,146.48 C107.557336,146.298666 107.919999,146.037335 108.208,145.696 L109.056,146.56 C108.671998,147.040002 108.184003,147.407999 107.592,147.664 C106.999997,147.920001 106.33067,148.048 105.584,148.048 C104.762663,148.048 104.032003,147.866668 103.392,147.504 C102.751997,147.141332 102.253335,146.637337 101.896,145.992 C101.538665,145.346663 101.36,144.608004 101.36,143.776 C101.36,142.943996 101.538665,142.20267 101.896,141.552 C102.253335,140.90133 102.751997,140.394668 103.392,140.032 C104.032003,139.669332 104.762663,139.488 105.584,139.488 C106.29867,139.488 106.94133,139.597332 107.512,139.816 C108.08267,140.034668 108.559998,140.351998 108.944,140.768 L108.128,141.792 C107.455997,141.14133 106.650671,140.816 105.712,140.816 Z M113.856,139.976 C114.368003,139.661332 114.975996,139.498667 115.68,139.488 L115.68,140.928 C114.815996,140.896 114.117336,141.119998 113.584,141.6 C113.050664,142.080002 112.746667,142.725329 112.672,143.536 L112.672,148 L111.184,148 L111.184,139.536 L112.672,139.536 L112.672,141.36 C112.949335,140.751997 113.343997,140.290668 113.856,139.976 Z M117.296,139.536 L118.784,139.536 L118.784,148 L117.296,148 L117.296,139.536 Z M118.696,136.432 C118.872001,136.613334 118.96,136.842665 118.96,137.12 C118.96,137.397335 118.872001,137.626666 118.696,137.808 C118.519999,137.989334 118.298668,138.08 118.032,138.08 C117.765332,138.08 117.544001,137.989334 117.368,137.808 C117.191999,137.626666 117.104,137.397335 117.104,137.12 C117.104,136.842665 117.191999,136.613334 117.368,136.432 C117.544001,136.250666 117.765332,136.16 118.032,136.16 C118.298668,136.16 118.519999,136.250666 118.696,136.432 Z M128.496,140.032 C129.11467,140.394668 129.594665,140.90133 129.936,141.552 C130.277335,142.20267 130.448,142.949329 130.448,143.792 C130.448,144.624004 130.280002,145.362663 129.944,146.008 C129.607998,146.653337 129.133336,147.154665 128.52,147.512 C127.906664,147.869335 127.205337,148.048 126.416,148.048 C125.70133,148.048 125.072003,147.898668 124.528,147.6 C123.983997,147.301332 123.557335,146.874669 123.248,146.32 L123.248,151.104 L121.76,151.104 L121.76,139.536 L123.248,139.536 L123.248,141.216 C123.557335,140.661331 123.981331,140.234668 124.52,139.936 C125.058669,139.637332 125.679996,139.488 126.384,139.488 C127.173337,139.488 127.87733,139.669332 128.496,140.032 Z M127.56,146.368 C127.992002,146.111999 128.327999,145.754669 128.568,145.296 C128.808001,144.837331 128.928,144.320003 128.928,143.744 C128.928,143.178664 128.805335,142.666669 128.56,142.208 C128.314665,141.749331 127.978669,141.392001 127.552,141.136 C127.125331,140.879999 126.640003,140.752 126.096,140.752 C125.551997,140.752 125.064002,140.879999 124.632,141.136 C124.199998,141.392001 123.861335,141.749331 123.616,142.208 C123.370665,142.666669 123.248,143.178664 123.248,143.744 C123.248,144.33067 123.370665,144.850664 123.616,145.304 C123.861335,145.757336 124.199998,146.111999 124.632,146.368 C125.064002,146.624001 125.551997,146.752 126.096,146.752 C126.640003,146.752 127.127998,146.624001 127.56,146.368 Z M137.072,147.44 C136.42133,147.856002 135.760003,148.064 135.088,148.064 C134.415997,148.064 133.872002,147.864002 133.456,147.464 C133.039998,147.063998 132.832,146.458671 132.832,145.648 L132.832,140.96 L131.632,140.96 L131.632,139.824 L132.832,139.824 L132.832,137.552 L134.336,137.552 L134.336,139.824 L136.928,139.824 L136.928,140.96 L134.336,140.96 L134.336,145.376 C134.336,145.845336 134.421332,146.181332 134.592,146.384 C134.762668,146.586668 135.018665,146.688 135.36,146.688 C135.765335,146.688 136.202664,146.554668 136.672,146.288 L137.072,147.44 Z"/>
    </g>
  </g>
</svg>
