<svg width="738" height="358" viewBox="0 0 738 358" xmlns="http://www.w3.org/2000/svg"><title>instantsearch-components</title><defs><linearGradient x1="47.479%" y1="132.183%" x2="53.55%" y2="-16.118%" id="a"><stop stop-color="#3E396B" offset="0%"/><stop stop-color="#050F2C" offset="100%"/></linearGradient><linearGradient x1="-33.157%" y1="134.936%" x2="126.039%" y2="-27.7%" id="b"><stop stop-color="#FEC168" offset="0%"/><stop stop-color="#FEC168" offset="100%"/></linearGradient></defs><g fill="none" fill-rule="evenodd"><path d="M398.818 5.28V19h2.176V8.75l4.332 8.82h1.509l4.331-8.82.02 10.25h2.136V5.28h-2.724l-4.508 9.114-4.528-9.114h-2.744zM425.278 19h-2.214v-1.274c-.745.921-1.94 1.372-3.45 1.372-2.254 0-3.665-1.392-3.665-3.234 0-1.901 1.43-3.116 3.94-3.136h3.155v-.314c0-1.313-.843-2.097-2.49-2.097-.999 0-2.038.353-3.076 1.059l-.922-1.568c1.45-.863 2.51-1.314 4.489-1.314 2.685 0 4.194 1.372 4.214 3.666l.02 6.84zm-5.194-1.686c1.608 0 2.842-.842 2.96-1.98v-.96h-2.822c-1.47 0-2.156.392-2.156 1.392 0 .94.764 1.548 2.018 1.548zm13.544-.705c-.608.294-1.098.45-1.568.45-.706 0-1.117-.333-1.117-1.41V10.65h3.077V8.965h-3.077V6.103h-2.235v2.862h-1.47v1.685h1.47v5.41c0 2.136 1.353 3.038 2.92 3.038.883 0 1.745-.274 2.568-.764l-.568-1.725zm9.878-4.959l1.235-1.45c-.96-1.098-2.43-1.706-4.312-1.706-3.097 0-5.253 2.156-5.253 5.312 0 3.136 2.156 5.272 5.253 5.272 1.98 0 3.489-.705 4.43-1.94l-1.255-1.254c-.705.823-1.764 1.254-3.077 1.254-1.803 0-3.097-1.352-3.097-3.332 0-1.98 1.294-3.332 3.097-3.332 1.255-.02 2.254.431 2.98 1.176zm9.918-3.156c-1.784 0-3.116.647-3.861 2.117V4.457h-2.254V19h2.254v-5.135c0-1.843 1.117-3.234 2.979-3.254 1.568 0 2.509.96 2.509 2.529V19h2.254v-6.488c0-2.489-1.45-4.018-3.881-4.018zm8.016-4.253c-.744 0-1.313.569-1.313 1.353 0 .764.569 1.332 1.313 1.332.745 0 1.314-.568 1.314-1.332 0-.784-.569-1.353-1.314-1.353zm-1.117 4.332V19h2.235V8.573h-2.235zm11.662-.079c-1.764 0-3.097.628-3.841 2.078v-2h-2.254V19h2.254v-5.547c.156-1.627 1.234-2.822 2.96-2.842 1.567 0 2.508.96 2.508 2.529V19h2.254v-6.488c0-2.489-1.45-4.018-3.88-4.018zm14.073.079h2.234v9.408c0 2.999-2.136 4.88-5.41 4.88-1.626 0-3.057-.51-4.33-1.372l.96-1.627c.98.726 1.999 1.137 3.273 1.137 1.98 0 3.273-1.156 3.273-2.96v-1.313c-.706 1.137-1.882 1.764-3.45 1.764-2.822 0-4.704-2.038-4.704-5.037 0-2.94 1.862-4.939 4.626-4.959 1.607-.02 2.803.628 3.528 1.764V8.573zm-2.999 8.153c1.764 0 2.999-1.332 2.999-3.214s-1.235-3.195-2.999-3.195c-1.783 0-3.018 1.333-3.038 3.195.02 1.882 1.235 3.214 3.038 3.214zM497.72 5.26v2.078h2.96V19h2.312V5.26h-5.272zm16.072-.058c3.312 0 5.155 2.47 5.155 6.918 0 4.47-1.843 6.939-5.155 6.939-3.332 0-5.174-2.47-5.174-6.939 0-4.449 1.842-6.918 5.174-6.918zm0 1.803c-1.92 0-2.881 1.627-2.881 5.115 0 3.49.96 5.136 2.881 5.136 1.901 0 2.862-1.647 2.862-5.136 0-3.488-.96-5.115-2.862-5.115zm8.173 9.623c-.705 0-1.215.53-1.215 1.255 0 .411.176.784.53 1.019l-.746 1.705h1.157l1.117-1.685c.216-.314.353-.647.353-1.04 0-.783-.569-1.254-1.196-1.254zm8.115-11.426c3.312 0 5.154 2.47 5.154 6.918 0 4.47-1.842 6.939-5.154 6.939-3.332 0-5.175-2.47-5.175-6.939 0-4.449 1.843-6.918 5.175-6.918zm0 1.803c-1.921 0-2.882 1.627-2.882 5.115 0 3.49.96 5.136 2.882 5.136 1.9 0 2.861-1.647 2.861-5.136 0-3.488-.96-5.115-2.861-5.115zm12.093-1.803c3.312 0 5.155 2.47 5.155 6.918 0 4.47-1.843 6.939-5.155 6.939-3.332 0-5.175-2.47-5.175-6.939 0-4.449 1.843-6.918 5.175-6.918zm0 1.803c-1.921 0-2.881 1.627-2.881 5.115 0 3.49.96 5.136 2.88 5.136 1.902 0 2.862-1.647 2.862-5.136 0-3.488-.96-5.115-2.861-5.115zm12.093-1.803c3.312 0 5.155 2.47 5.155 6.918 0 4.47-1.843 6.939-5.155 6.939-3.332 0-5.174-2.47-5.174-6.939 0-4.449 1.842-6.918 5.174-6.918zm0 1.803c-1.92 0-2.881 1.627-2.881 5.115 0 3.49.96 5.136 2.881 5.136 1.901 0 2.862-1.647 2.862-5.136 0-3.488-.96-5.115-2.862-5.115zm19.796 1.49c-1.784 0-3.116.646-3.861 2.116V4.457h-2.254V19h2.254v-5.135c0-1.843 1.117-3.234 2.979-3.254 1.568 0 2.509.96 2.509 2.529V19h2.254v-6.488c0-2.489-1.45-4.018-3.881-4.018zm8.016-4.254c-.744 0-1.313.569-1.313 1.353 0 .764.569 1.332 1.313 1.332.745 0 1.314-.568 1.314-1.332 0-.784-.569-1.353-1.314-1.353zm-1.117 4.332V19h2.235V8.573h-2.235zm10.898 8.036c-.608.294-1.098.45-1.568.45-.706 0-1.117-.333-1.117-1.41V10.65h3.077V8.965h-3.077V6.103h-2.235v2.862h-1.47v1.685h1.47v5.41c0 2.136 1.353 3.038 2.92 3.038.883 0 1.745-.274 2.568-.764l-.568-1.725zm8.585-5.41l.823-1.666c-.941-.666-2.333-1.058-3.646-1.058-1.999 0-3.841.901-3.841 3.018-.02 3.763 5.468 2.568 5.468 4.704 0 .784-.745 1.117-1.705 1.117-1.137 0-2.587-.49-3.489-1.293l-.804 1.607c1.04.94 2.666 1.45 4.195 1.45 2.097 0 3.998-.96 3.998-3.096.02-3.783-5.527-2.744-5.527-4.665 0-.745.647-1.039 1.529-1.039.921 0 2.077.353 2.999.921zm10.27-6.958c-.745 0-1.313.569-1.313 1.353 0 .764.568 1.332 1.313 1.332s1.313-.568 1.313-1.332c0-.784-.568-1.353-1.313-1.353zm-1.117 4.332V19h2.234V8.573h-2.234zm11.662-.079c-1.764 0-3.097.628-3.842 2.078v-2h-2.254V19h2.254v-5.547c.157-1.627 1.235-2.822 2.96-2.842 1.568 0 2.509.96 2.509 2.529V19h2.254v-6.488c0-2.489-1.45-4.018-3.881-4.018zm13.19-3.234v2.078h2.96V19h2.313V5.26h-5.272zm31.165 3.234c-1.902 0-3.293.765-3.96 2.51-.49-1.588-1.764-2.51-3.626-2.51-1.724 0-3.057.628-3.782 2.098v-2.02h-2.235V19h2.235v-5.155c0-1.823 1.097-3.195 2.9-3.253 1.53 0 2.45.96 2.45 2.548V19h2.254v-5.155c0-1.823 1.078-3.195 2.862-3.253 1.529 0 2.47.96 2.47 2.548V19h2.254v-6.488c0-2.489-1.431-4.018-3.822-4.018zm12.779 2.705l.823-1.666c-.94-.666-2.332-1.058-3.646-1.058-1.999 0-3.841.901-3.841 3.018-.02 3.763 5.468 2.568 5.468 4.704 0 .784-.745 1.117-1.705 1.117-1.137 0-2.587-.49-3.489-1.293l-.803 1.607c1.038.94 2.665 1.45 4.194 1.45 2.097 0 3.998-.96 3.998-3.096.02-3.783-5.527-2.744-5.527-4.665 0-.745.647-1.039 1.529-1.039.921 0 2.078.353 2.999.921z" opacity=".6" fill-rule="nonzero" fill="#9D9DBD"/><g transform="translate(162)" fill-rule="nonzero"><rect fill="url(#a)" width="180" height="37" rx="6.72"/><path d="M27.498 14.119l.968-1.17c-1.35-1.27-3.226-2.056-5.161-2.056-4.092 0-7.358 3.125-7.358 7.076 0 3.992 3.225 7.137 7.298 7.137 1.955 0 3.85-.827 5.241-2.137l-.988-1.069c-1.109 1.049-2.62 1.694-4.173 1.694-3.185 0-5.745-2.52-5.745-5.625 0-3.125 2.56-5.604 5.745-5.604 1.552 0 3.085.665 4.173 1.754zm7.64.262c3.146 0 5.384 2.197 5.384 5.342 0 3.165-2.238 5.383-5.383 5.383-3.165 0-5.383-2.218-5.383-5.383 0-3.145 2.218-5.342 5.383-5.342zm0 1.39c-2.237 0-3.81 1.634-3.81 3.972 0 2.38 1.573 3.992 3.81 3.992 2.219 0 3.811-1.613 3.811-3.992 0-2.338-1.592-3.971-3.81-3.971zm8.246-5.684v14.958h1.573V10.087h-1.573zm9.818 4.294c3.145 0 5.383 2.197 5.383 5.342 0 3.165-2.238 5.383-5.383 5.383-3.165 0-5.382-2.218-5.382-5.383 0-3.145 2.217-5.342 5.382-5.342zm0 1.39c-2.237 0-3.81 1.634-3.81 3.972 0 2.38 1.573 3.992 3.81 3.992 2.218 0 3.81-1.613 3.81-3.992 0-2.338-1.592-3.971-3.81-3.971zM62.92 16.8v-2.359h-1.572v10.604h1.572v-5.644c.182-2.137 1.573-3.528 3.81-3.488v-1.532c-1.794.02-3.104.867-3.81 2.419zm6.028.363c-.564 0-.988.443-.988 1.028s.424 1.028.988 1.028c.545 0 .968-.443.968-1.028s-.423-1.028-.968-1.028zm0 5.987c-.564 0-.988.444-.988 1.029 0 .584.424 1.028.988 1.028.545 0 .968-.444.968-1.028 0-.585-.423-1.029-.968-1.029zm16.128-12.217c2.843 0 4.577 1.31 4.577 3.528 0 1.654-.988 2.843-2.621 3.186 2.036.302 3.225 1.633 3.225 3.568 0 2.4-1.895 3.83-5.1 3.83h-6.028V10.933h5.947zm-.08 6.109c1.895 0 3.003-.847 3.003-2.339 0-1.451-1.108-2.278-3.003-2.278H80.74v4.617h4.254zm0 6.512c2.298.02 3.628-.908 3.628-2.54 0-1.573-1.33-2.5-3.628-2.48H80.74v5.02h4.254zm8.447-13.467v14.958h1.572V10.087h-1.572zm13.628 14.958h-1.532v-1.653c-.847 1.15-2.198 1.714-3.891 1.714-2.198 0-3.609-1.391-3.609-3.206 0-1.854 1.472-3.024 3.972-3.044h3.487v-.665c0-1.552-.967-2.5-2.842-2.5-1.17 0-2.258.444-3.367 1.23l-.665-1.109c1.37-.907 2.52-1.431 4.334-1.431 2.62 0 4.072 1.39 4.093 3.649l.02 7.015zm-5.12-1.25c1.793 0 3.164-.887 3.567-2.399v-1.29h-3.306c-1.774 0-2.701.545-2.701 1.734 0 1.17.947 1.956 2.44 1.956zm16.047-6.753l.866-1.089c-.967-.988-2.378-1.572-4.092-1.572-3.064 0-5.262 2.217-5.262 5.362 0 3.165 2.177 5.363 5.262 5.363 1.834 0 3.306-.686 4.254-1.835l-.908-.927c-.745.887-1.895 1.37-3.286 1.37-2.197 0-3.77-1.612-3.77-3.97 0-2.34 1.573-3.952 3.77-3.952 1.29 0 2.36.464 3.166 1.25zm11.43 8.003h1.875l-4.395-6.511 3.972-4.093h-1.855l-5.463 5.504v-9.858h-1.573v14.958h1.573v-3.064l2.237-2.318 3.63 5.382zM158.924 17.095l6.593-6.592a1.553 1.553 0 0 1 2.202-.003 1.553 1.553 0 0 1 0 2.2l-6.598 6.593 6.593 6.591c.614.614.61 1.595.003 2.202a1.554 1.554 0 0 1-2.2 0l-6.593-6.597-6.593 6.592a1.553 1.553 0 0 1-2.202.003 1.553 1.553 0 0 1 0-2.2l6.598-6.591-6.594-6.592a1.554 1.554 0 1 1 2.193-2.203l6.598 6.598v-.001z" fill="#FFF"/></g><g fill-rule="nonzero"><rect fill="url(#a)" width="126" height="37" rx="6.72"/><path d="M30.838 14.119l.968-1.17c-1.351-1.27-3.226-2.056-5.161-2.056-4.093 0-7.359 3.125-7.359 7.076 0 3.992 3.226 7.137 7.298 7.137 1.956 0 3.85-.827 5.242-2.137l-.988-1.069c-1.109 1.049-2.62 1.694-4.173 1.694-3.185 0-5.746-2.52-5.746-5.625 0-3.125 2.56-5.604 5.746-5.604 1.552 0 3.084.665 4.173 1.754zm3.77-4.032v14.958h1.572V10.087h-1.572zm9.697 4.294c3.427 0 5.12 2.359 4.96 5.947h-8.67c.263 2.097 1.775 3.468 3.851 3.468 1.31 0 2.46-.484 3.286-1.351l.867.907c-1.008 1.109-2.5 1.754-4.274 1.754-3.125 0-5.282-2.198-5.282-5.363 0-3.165 2.177-5.342 5.262-5.362zm-3.71 4.697h7.258c-.1-2.056-1.472-3.387-3.548-3.387-2.036 0-3.488 1.33-3.71 3.387zm19.495 5.967h-1.532v-1.653c-.847 1.15-2.197 1.714-3.89 1.714-2.198 0-3.61-1.391-3.61-3.206 0-1.854 1.472-3.024 3.972-3.044h3.488v-.665c0-1.552-.968-2.5-2.843-2.5-1.17 0-2.258.444-3.367 1.23l-.665-1.109c1.371-.907 2.52-1.431 4.335-1.431 2.62 0 4.072 1.39 4.092 3.649l.02 7.015zm-5.12-1.25c1.794 0 3.165-.887 3.568-2.399v-1.29h-3.306c-1.774 0-2.702.545-2.702 1.734 0 1.17.948 1.956 2.44 1.956zm10.2-6.995v-2.359h-1.572v10.604h1.573v-5.644c.181-2.137 1.572-3.528 3.81-3.488v-1.532c-1.794.02-3.105.867-3.81 2.419zm22.7 8.245l-1.592-3.608h-7.68l-1.573 3.608H75.31l6.33-14.112h1.674l6.31 14.112H87.87zm-8.608-5.1h6.371l-3.205-7.258-3.166 7.258zm12.46-9.858v14.958h1.572V10.087H91.72zm5.604 0v14.958h1.572V10.087h-1.572z" fill="#FFF"/></g><g transform="translate(1 90)"><ellipse stroke-opacity=".374" stroke="#9D9DBD" stroke-width="1.4" cx="13.6" cy="16.963" rx="12.9" ry="12.993"/><path d="M52.034 6.071l-8.757 3.906v1.533l8.757 3.906v-1.344l-7.623-3.318 7.623-3.339V6.071zm10.437.42c0-1.26 1.239-2.016 3.129-2.016 1.176 0 2.73.357 4.053 1.218l.714-1.491c-1.092-.735-2.604-1.26-4.137-1.344l-.021-2.52h-1.281v2.541c-2.604.231-4.305 1.638-4.305 3.738 0 5.271 8.274 3.192 8.253 7.119 0 1.428-1.323 2.289-3.444 2.289-1.659 0-3.528-.756-4.893-2.058l-.756 1.449c1.281 1.218 3.171 2.1 5.145 2.226v2.751h1.281l.021-2.772c2.688-.252 4.494-1.743 4.494-3.969.021-5.334-8.253-3.339-8.253-7.161zm11.865-3.612v1.554h3.465V17.6h1.68V2.879h-5.145zm17.052-.042c3.486 0 5.439 2.646 5.439 7.392 0 4.767-1.953 7.413-5.439 7.413-3.507 0-5.46-2.646-5.46-7.413 0-4.746 1.953-7.392 5.46-7.392zm0 1.386c-2.499 0-3.78 1.995-3.78 6.006s1.281 6.048 3.78 6.048c2.457 0 3.759-2.037 3.759-6.048s-1.302-6.006-3.759-6.006z" fill="#182359" fill-rule="nonzero"/></g><g transform="translate(1 143.062)"><ellipse stroke-opacity=".374" stroke="#9D9DBD" stroke-width="1.4" cx="13.6" cy="16.963" rx="12.9" ry="12.993"/><path d="M45.86 6.491c0-1.26 1.239-2.016 3.129-2.016 1.176 0 2.73.357 4.053 1.218l.714-1.491c-1.092-.735-2.604-1.26-4.137-1.344l-.021-2.52h-1.281v2.541c-2.604.231-4.305 1.638-4.305 3.738 0 5.271 8.274 3.192 8.253 7.119 0 1.428-1.323 2.289-3.444 2.289-1.659 0-3.528-.756-4.893-2.058l-.756 1.449c1.281 1.218 3.171 2.1 5.145 2.226v2.751h1.281l.021-2.772c2.688-.252 4.494-1.743 4.494-3.969.021-5.334-8.253-3.339-8.253-7.161zm11.865-3.612v1.554h3.465V17.6h1.68V2.879h-5.145zm17.052-.042c3.486 0 5.439 2.646 5.439 7.392 0 4.767-1.953 7.413-5.439 7.413-3.507 0-5.46-2.646-5.46-7.413 0-4.746 1.953-7.392 5.46-7.392zm0 1.386c-2.499 0-3.78 1.995-3.78 6.006s1.281 6.048 3.78 6.048c2.457 0 3.759-2.037 3.759-6.048s-1.302-6.006-3.759-6.006zm14.112 6.426v1.197h4.935v-1.197h-4.935zm15.96-4.158c0-1.26 1.239-2.016 3.129-2.016 1.176 0 2.73.357 4.053 1.218l.714-1.491c-1.092-.735-2.604-1.26-4.137-1.344l-.021-2.52h-1.281v2.541c-2.604.231-4.305 1.638-4.305 3.738 0 5.271 8.274 3.192 8.253 7.119 0 1.428-1.323 2.289-3.444 2.289-1.659 0-3.528-.756-4.893-2.058l-.756 1.449c1.281 1.218 3.171 2.1 5.145 2.226v2.751h1.281l.021-2.772c2.688-.252 4.494-1.743 4.494-3.969.021-5.334-8.253-3.339-8.253-7.161zm11.865-3.612v1.554h3.465V17.6h1.68V2.879h-5.145zm17.052-.042c3.486 0 5.439 2.646 5.439 7.392 0 4.767-1.953 7.413-5.439 7.413-3.507 0-5.46-2.646-5.46-7.413 0-4.746 1.953-7.392 5.46-7.392zm0 1.386c-2.499 0-3.78 1.995-3.78 6.006s1.281 6.048 3.78 6.048c2.457 0 3.759-2.037 3.759-6.048s-1.302-6.006-3.759-6.006zm12.957-1.386c3.486 0 5.439 2.646 5.439 7.392 0 4.767-1.953 7.413-5.439 7.413-3.507 0-5.46-2.646-5.46-7.413 0-4.746 1.953-7.392 5.46-7.392zm0 1.386c-2.499 0-3.78 1.995-3.78 6.006s1.281 6.048 3.78 6.048c2.457 0 3.759-2.037 3.759-6.048s-1.302-6.006-3.759-6.006z" fill="#182359" fill-rule="nonzero"/></g><g transform="translate(1 249.186)"><ellipse stroke-opacity=".374" stroke="#9D9DBD" stroke-width="1.4" cx="13.6" cy="16.963" rx="12.9" ry="12.993"/><path d="M46.677 15.353l8.757-3.906V9.914l-8.757-3.906v1.344L54.3 10.67l-7.623 3.339v1.344zm19.194-8.862c0-1.26 1.239-2.016 3.129-2.016 1.176 0 2.73.357 4.053 1.218l.714-1.491c-1.092-.735-2.604-1.26-4.137-1.344l-.021-2.52h-1.281v2.541c-2.604.231-4.305 1.638-4.305 3.738 0 5.271 8.274 3.192 8.253 7.119 0 1.428-1.323 2.289-3.444 2.289-1.659 0-3.528-.756-4.893-2.058l-.756 1.449c1.281 1.218 3.171 2.1 5.145 2.226v2.751h1.281l.021-2.772c2.688-.252 4.494-1.743 4.494-3.969.021-5.334-8.253-3.339-8.253-7.161zm13.083 2.184V4.433h7.413V2.879h-8.988v7.518c1.134-.252 2.982-.399 4.011-.399 2.331 0 3.822 1.134 3.822 2.898 0 1.995-1.491 3.234-3.864 3.234-1.407 0-3.066-.546-4.347-1.449l-.693 1.365c1.47.966 3.486 1.596 5.208 1.596 3.318 0 5.46-1.911 5.46-4.851 0-2.52-2.079-4.326-5.334-4.326-.735 0-1.848.063-2.688.21zm15.834-5.838c3.486 0 5.439 2.646 5.439 7.392 0 4.767-1.953 7.413-5.439 7.413-3.507 0-5.46-2.646-5.46-7.413 0-4.746 1.953-7.392 5.46-7.392zm0 1.386c-2.499 0-3.78 1.995-3.78 6.006s1.281 6.048 3.78 6.048c2.457 0 3.759-2.037 3.759-6.048s-1.302-6.006-3.759-6.006zm12.957-1.386c3.486 0 5.439 2.646 5.439 7.392 0 4.767-1.953 7.413-5.439 7.413-3.507 0-5.46-2.646-5.46-7.413 0-4.746 1.953-7.392 5.46-7.392zm0 1.386c-2.499 0-3.78 1.995-3.78 6.006s1.281 6.048 3.78 6.048c2.457 0 3.759-2.037 3.759-6.048s-1.302-6.006-3.759-6.006z" fill="#182359" fill-rule="nonzero"/></g><g transform="translate(1 199.394)"><ellipse fill="url(#a)" fill-rule="nonzero" cx="13.6" cy="13.693" rx="13.6" ry="13.693"/><path stroke="#FFF" stroke-width="2.24" stroke-linecap="round" stroke-linejoin="round" d="M6.8 15.198l4.042 4.17 9.636-9.783"/></g><path d="M48.336 206.314c0-1.176 1.156-1.882 2.92-1.882 1.098 0 2.548.334 3.783 1.137l.667-1.391c-1.02-.686-2.43-1.176-3.862-1.255l-.02-2.352H50.63v2.372c-2.43.215-4.018 1.529-4.018 3.489 0 4.92 7.723 2.979 7.703 6.644 0 1.333-1.235 2.136-3.214 2.136-1.549 0-3.293-.705-4.567-1.92l-.706 1.352c1.196 1.137 2.96 1.96 4.802 2.078v2.567h1.196l.02-2.587c2.508-.235 4.194-1.627 4.194-3.704.02-4.979-7.703-3.117-7.703-6.684zm11.074-3.371v1.45h3.234v12.29h1.568v-13.74H59.41zm15.915-.04c3.254 0 5.077 2.47 5.077 6.9 0 4.449-1.823 6.919-5.077 6.919-3.273 0-5.096-2.47-5.096-6.92 0-4.429 1.823-6.898 5.096-6.898zm0 1.294c-2.332 0-3.528 1.862-3.528 5.606 0 3.743 1.196 5.645 3.528 5.645 2.293 0 3.509-1.902 3.509-5.645 0-3.744-1.216-5.606-3.509-5.606zm12.093-1.293c3.254 0 5.077 2.47 5.077 6.899 0 4.449-1.823 6.919-5.077 6.919-3.273 0-5.096-2.47-5.096-6.92 0-4.429 1.823-6.898 5.096-6.898zm0 1.293c-2.332 0-3.528 1.862-3.528 5.606 0 3.743 1.196 5.645 3.528 5.645 2.294 0 3.509-1.902 3.509-5.645 0-3.744-1.215-5.606-3.509-5.606zm13.172 5.998v1.117h4.606v-1.117h-4.606zm14.896-3.881c0-1.176 1.156-1.882 2.92-1.882 1.098 0 2.548.334 3.783 1.137l.666-1.391c-1.019-.686-2.43-1.176-3.861-1.255l-.02-2.352h-1.195v2.372c-2.43.215-4.018 1.529-4.018 3.489 0 4.92 7.722 2.979 7.703 6.644 0 1.333-1.235 2.136-3.215 2.136-1.548 0-3.293-.705-4.567-1.92l-.705 1.352c1.195 1.137 2.96 1.96 4.802 2.078v2.567h1.195l.02-2.587c2.509-.235 4.194-1.627 4.194-3.704.02-4.979-7.702-3.117-7.702-6.684zm12.21 2.038v-3.959h6.92v-1.45h-8.39v7.017c1.059-.236 2.784-.373 3.744-.373 2.176 0 3.567 1.059 3.567 2.705 0 1.862-1.391 3.018-3.606 3.018-1.313 0-2.862-.51-4.057-1.352l-.647 1.274c1.372.902 3.253 1.49 4.86 1.49 3.097 0 5.097-1.784 5.097-4.528 0-2.352-1.94-4.038-4.979-4.038-.686 0-1.725.06-2.509.196zm14.779-5.448c3.253 0 5.076 2.47 5.076 6.899 0 4.449-1.823 6.919-5.076 6.919-3.273 0-5.096-2.47-5.096-6.92 0-4.429 1.823-6.898 5.096-6.898zm0 1.293c-2.333 0-3.528 1.862-3.528 5.606 0 3.743 1.195 5.645 3.528 5.645 2.293 0 3.508-1.902 3.508-5.645 0-3.744-1.215-5.606-3.508-5.606zm12.093-1.293c3.254 0 5.076 2.47 5.076 6.899 0 4.449-1.822 6.919-5.076 6.919-3.273 0-5.096-2.47-5.096-6.92 0-4.429 1.823-6.898 5.096-6.898zm0 1.293c-2.332 0-3.528 1.862-3.528 5.606 0 3.743 1.196 5.645 3.528 5.645 2.293 0 3.508-1.902 3.508-5.645 0-3.744-1.215-5.606-3.508-5.606z" fill="#182359" fill-rule="nonzero"/><g><g transform="translate(1 310.653)"><rect width="164.9" height="46.215" rx="5.6" fill-rule="nonzero" fill="#000"/><rect width="164.9" height="46.215" rx="5.6" fill="#FFF"/><rect stroke="#D4D8E3" stroke-width="1.4" x=".7" y=".7" width="163.5" height="44.815" rx="5.6"/></g><path d="M40.003 327.423l.674-1.405c-1.149-.773-2.792-1.287-4.396-1.287-2.871 0-4.792 1.386-4.792 3.564 0 4.97 7.802 3.01 7.782 6.712 0 1.346-1.248 2.158-3.247 2.158-1.565 0-3.327-.713-4.614-1.94l-.713 1.366c1.307 1.247 3.287 2.118 5.307 2.118 2.97 0 5.01-1.485 5.01-3.781.019-5.03-7.782-3.149-7.782-6.752 0-1.188 1.168-1.901 2.95-1.901 1.109 0 2.574.337 3.821 1.148zm9.742.753c-1.92.02-3.346.772-4.06 2.396v-6.614h-1.543v14.692h1.544v-5.108c0-2.277 1.307-3.861 3.524-3.881 1.842 0 2.95 1.109 2.95 2.97v6.019h1.545v-6.415c0-2.535-1.465-4.06-3.96-4.06zm11.642 0c3.09 0 5.287 2.158 5.287 5.247 0 3.108-2.198 5.286-5.287 5.286-3.108 0-5.286-2.178-5.286-5.286 0-3.089 2.178-5.247 5.286-5.247zm0 1.366c-2.197 0-3.742 1.604-3.742 3.9 0 2.337 1.545 3.921 3.742 3.921 2.178 0 3.743-1.584 3.743-3.92 0-2.297-1.565-3.901-3.743-3.901zm5.861-1.307l3.9 10.415h1.605l3.049-8.534 3.069 8.534h1.604l3.86-10.415h-1.603l-3.05 8.85-3.068-8.85H74.99l-3.03 8.85-3.088-8.85h-1.624zm25.067-3.445v13.86h1.505v-11.524l5.029 10.059h.95l5.05-10.059.02 11.524h1.464v-13.86h-1.94l-5.05 10.058-5.068-10.058h-1.96zm22.255 3.386c3.089 0 5.287 2.158 5.287 5.247 0 3.108-2.198 5.286-5.287 5.286-3.108 0-5.286-2.178-5.286-5.286 0-3.089 2.178-5.247 5.286-5.247zm0 1.366c-2.198 0-3.742 1.604-3.742 3.9 0 2.337 1.544 3.921 3.742 3.921 2.178 0 3.742-1.584 3.742-3.92 0-2.297-1.564-3.901-3.742-3.901zm9.544 1.01v-2.317h-1.545v10.415h1.545v-5.544c.178-2.099 1.544-3.465 3.742-3.425v-1.505c-1.762.02-3.05.851-3.742 2.376zm9.94-2.376c3.365 0 5.029 2.316 4.87 5.84h-8.514c.258 2.06 1.743 3.406 3.782 3.406 1.287 0 2.416-.475 3.227-1.326l.852.89c-.99 1.09-2.455 1.723-4.198 1.723-3.069 0-5.187-2.158-5.187-5.266 0-3.109 2.138-5.247 5.167-5.267zm-3.644 4.613h7.128c-.099-2.02-1.445-3.326-3.485-3.326-2 0-3.425 1.307-3.643 3.326z" fill="#182359" fill-rule="nonzero"/></g><g><g transform="translate(211 90)"><rect y=".199" width="26.824" height="28.795" rx="4.48" fill="#FFF"/><rect stroke="#D4D8E3" stroke-width="1.4" x=".7" y=".899" width="25.424" height="27.395" rx="4.48"/></g><path d="M249.685 95.9l4.914 14.7h1.722l4.01-12.453 3.97 12.453h1.722l4.935-14.7h-1.743l-3.99 12.81-4.032-12.81h-1.68l-3.99 12.81-4.032-12.81h-1.806zm29.274 3.591c-2.037.021-3.55.819-4.305 2.541v-7.014h-1.638V110.6h1.638v-5.418c0-2.415 1.386-4.095 3.738-4.116 1.953 0 3.129 1.176 3.129 3.15v6.384h1.638v-6.804c0-2.688-1.554-4.305-4.2-4.305zm8.652-4.221c-.61 0-1.071.462-1.071 1.113 0 .63.462 1.113 1.07 1.113.61 0 1.072-.483 1.072-1.113 0-.651-.462-1.113-1.071-1.113zm-.798 4.284V110.6h1.617V99.554h-1.617zm10.857 9.03c-.61.357-1.197.546-1.764.567-.945 0-1.47-.546-1.47-1.89v-6.09h3.507V99.89h-3.507v-2.898h-1.617v2.898h-1.596v1.281h1.596v6.363c0 2.184 1.197 3.15 2.814 3.129.882 0 1.722-.294 2.499-.819l-.462-1.26zm7.308-9.093c3.57 0 5.334 2.457 5.166 6.195h-9.03c.273 2.184 1.848 3.612 4.01 3.612 1.366 0 2.563-.504 3.424-1.407l.903.945c-1.05 1.155-2.604 1.827-4.452 1.827-3.255 0-5.502-2.289-5.502-5.586s2.268-5.565 5.48-5.586zm-3.864 4.893h7.56c-.105-2.142-1.533-3.528-3.696-3.528-2.121 0-3.633 1.386-3.864 3.528z" fill="#182359" fill-rule="nonzero"/><g transform="translate(211 145.79)"><rect stroke-opacity=".374" stroke="#9D9DBD" stroke-width="1.4" x=".7" y=".899" width="25.424" height="27.395" rx="4.48"/><path d="M46.98 6.9c2.96 0 4.767 1.365 4.767 3.675 0 1.722-1.03 2.961-2.73 3.318 2.12.315 3.36 1.701 3.36 3.717 0 2.499-1.974 3.99-5.313 3.99h-6.28V6.9h6.196zm-.084 6.363c1.974 0 3.129-.882 3.129-2.436 0-1.512-1.155-2.373-3.13-2.373h-4.43v4.809h4.43zm0 6.783c2.394.021 3.78-.945 3.78-2.646 0-1.638-1.386-2.604-3.78-2.583h-4.431v5.229h4.43zm8.799-14.028V21.6h1.638V6.018h-1.638zM69.89 21.6h-1.596v-1.722c-.882 1.197-2.29 1.785-4.053 1.785-2.29 0-3.76-1.449-3.76-3.339 0-1.932 1.534-3.15 4.138-3.171h3.633v-.693c0-1.617-1.008-2.604-2.961-2.604-1.218 0-2.352.462-3.507 1.281l-.693-1.155c1.428-.945 2.625-1.491 4.515-1.491 2.73 0 4.242 1.449 4.263 3.801l.02 7.308zm-5.334-1.302c1.869 0 3.297-.924 3.717-2.499v-1.344H64.83c-1.848 0-2.814.567-2.814 1.806 0 1.218.987 2.037 2.54 2.037zm16.716-7.035l.903-1.134c-1.008-1.029-2.478-1.638-4.263-1.638-3.192 0-5.481 2.31-5.481 5.586 0 3.297 2.268 5.586 5.48 5.586 1.912 0 3.445-.714 4.432-1.911l-.945-.966c-.777.924-1.974 1.428-3.423 1.428-2.29 0-3.927-1.68-3.927-4.137 0-2.436 1.638-4.116 3.927-4.116 1.344 0 2.457.483 3.297 1.302zM93.18 21.6h1.953l-4.578-6.783 4.137-4.263H92.76l-5.691 5.733V6.018H85.43V21.6h1.638v-3.192l2.33-2.415 3.78 5.607z" fill="#182359" fill-rule="nonzero"/></g><g transform="translate(211 257.37)"><rect y=".199" width="26.824" height="28.795" rx="4.48" fill="#FFF"/><rect stroke="#D4D8E3" stroke-width="1.4" x=".7" y=".899" width="25.424" height="27.395" rx="4.48"/></g><path d="M263.71 276.261c-1.135.777-2.542 1.239-3.865 1.239-3.36 0-6.069-2.604-6.069-5.88 0-3.255 2.688-5.859 6.048-5.859 1.638 0 3.255.63 4.452 1.701l.966-1.218c-1.407-1.239-3.38-2.016-5.418-2.016-4.326 0-7.749 3.255-7.749 7.392 0 4.137 3.402 7.413 7.665 7.413 1.974 0 4.011-.756 5.46-1.911v-5.334h-1.49v4.473zm6.971-5.88v-2.457h-1.638v11.046h1.638v-5.88c.19-2.226 1.638-3.675 3.97-3.633v-1.596c-1.87.021-3.235.903-3.97 2.52zm14.637 8.589h-1.596v-1.722c-.882 1.197-2.289 1.785-4.053 1.785-2.289 0-3.759-1.449-3.759-3.339 0-1.932 1.533-3.15 4.137-3.171h3.633v-.693c0-1.617-1.008-2.604-2.96-2.604-1.219 0-2.353.462-3.508 1.281l-.693-1.155c1.428-.945 2.625-1.491 4.515-1.491 2.73 0 4.242 1.449 4.263 3.801l.021 7.308zm-5.334-1.302c1.87 0 3.297-.924 3.717-2.499v-1.344h-3.444c-1.848 0-2.814.567-2.814 1.806 0 1.218.987 2.037 2.541 2.037zm12.516 2.877l5.082-12.621h-1.68l-3.507 9.198-3.675-9.198h-1.722l4.578 10.962-.462 1.05c-.44 1.05-1.155 1.596-2.016 1.596-.546 0-1.05-.168-1.554-.525l-.693 1.302c.672.546 1.407.798 2.331.798 1.47 0 2.625-.882 3.318-2.562z" fill="#182359" fill-rule="nonzero"/><g><g transform="translate(211 201.779)"><rect fill="url(#a)" fill-rule="nonzero" width="26.824" height="28.795" rx="4.48"/><path stroke="#FFF" stroke-width="2.24" stroke-linecap="round" stroke-linejoin="round" d="M6.706 15.98l3.986 4.383 9.503-10.285"/></g><path d="M258.468 209.059c3.39 0 5.35 1.685 5.35 4.606 0 3.018-1.96 4.762-5.35 4.762h-3.587v4.352h-1.568v-13.72h5.155zm-.06 7.918c2.47 0 3.901-1.117 3.901-3.273 0-2.097-1.43-3.195-3.9-3.195h-3.528v6.468h3.528zm8.546-8.506c-.568 0-1 .43-1 1.038 0 .588.432 1.04 1 1.04.569 0 1-.452 1-1.04 0-.607-.431-1.038-1-1.038zm-.744 3.998v10.31h1.509v-10.31h-1.51zm10.76-.059c-1.882.02-3.273.765-3.998 2.333v-2.274h-1.53v10.31h1.53v-5.528c.176-1.999 1.43-3.351 3.469-3.37 1.823 0 2.92 1.097 2.92 2.94v5.958h1.53v-6.35c0-2.51-1.451-4.019-3.92-4.019zm14.66 10.369h1.824l-4.273-6.331 3.861-3.979h-1.803l-5.312 5.35v-9.584h-1.529v14.544h1.53v-2.98l2.175-2.254 3.528 5.234z" fill="#182359" fill-rule="nonzero"/></g></g><g fill-rule="nonzero"><path fill="#FEC168" d="M552.517 155.616l-11.263-.995-4.402-10.626-4.401 10.642-11.263.98 8.553 7.592-2.57 11.284 9.681-5.987 9.68 5.987-2.552-11.284zM513.454 155.616l-11.263-.995-4.401-10.626-4.402 10.642-11.263.98 8.553 7.592-2.569 11.284 9.68-5.987 9.681 5.987-2.553-11.284zM474.391 155.616l-11.262-.995-4.402-10.626-4.402 10.642-11.262.98 8.552 7.592-2.569 11.284 9.681-5.987 9.68 5.987-2.553-11.284zM435.329 155.616l-11.263-.995-4.402-10.626-4.401 10.642-11.263.98 8.553 7.592-2.57 11.284 9.681-5.987 9.68 5.987-2.553-11.284z"/><path fill-opacity=".147" fill="#182359" d="M589.72 155.616l-11.263-.995-4.402-10.626-4.402 10.642-11.262.98 8.552 7.592-2.568 11.284 9.68-5.987 9.68 5.987-2.553-11.284z"/><path d="M612.037 168.407l-.824.823-2.293-2.273c-1.254 1.352-2.705 2.097-4.253 2.097-2.274 0-4.077-1.588-4.077-3.744 0-1.98 1.51-3.018 3.117-3.88-.941-1.235-1.412-2.274-1.412-3.274 0-1.705 1.353-2.94 3.352-2.94 1.901 0 3.175 1.137 3.175 2.744 0 1.862-1.685 2.823-3.41 3.744.843.98 1.96 2.117 3.371 3.489.51-.745.98-1.647 1.392-2.666l1.038.784c-.45 1.039-.98 1.98-1.548 2.764l2.372 2.332zm-8.487-10.25c0 .803.411 1.665 1.195 2.724 1.51-.784 2.823-1.529 2.823-2.92 0-1.02-.745-1.725-1.92-1.725-1.275 0-2.098.842-2.098 1.92zm1.176 9.701c1.176 0 2.332-.627 3.332-1.744-1.529-1.529-2.764-2.783-3.685-3.861-1.352.745-2.49 1.587-2.49 2.96 0 1.548 1.255 2.645 2.843 2.645zm16.66-4.508v-8.075h-1.568v8.075c0 3.587 2.175 5.704 5.782 5.704 3.587 0 5.743-2.117 5.743-5.704v-8.075h-1.568v8.075c0 2.705-1.568 4.273-4.175 4.273-2.607 0-4.214-1.568-4.214-4.273zm19.188-4.723c2.92 0 4.96 2.156 4.96 5.233 0 3.058-2 5.194-4.92 5.194-1.843 0-3.254-.843-4.019-2.274v6.018h-1.528v-14.112h1.528v2.214c.765-1.43 2.176-2.273 3.98-2.273zm-.274 9.075c2.156 0 3.685-1.627 3.685-3.881 0-2.235-1.53-3.881-3.685-3.881-2.176 0-3.705 1.627-3.705 3.88 0 2.274 1.53 3.882 3.705 3.882z" fill="#182359"/><path d="M676.077 154.452h-2.038c-1.549 2.234-2.391 5.233-2.391 8.487 0 3.253.842 6.252 2.39 8.487h2.04c-1.432-2.235-2.314-5.234-2.314-8.487 0-3.254.882-6.253 2.313-8.487zm2.391.804v2.077h2.96v11.662h2.313v-13.74h-5.273zm22.148 6.624l-5.233 5.41v1.705h10.055v-2.077h-7.017l3.763-3.803c1.51-1.568 2.588-3.116 2.588-4.488 0-2.117-1.823-3.47-4.508-3.47-1.804 0-3.587.745-5.116 1.96l.94 1.784c1.177-1.058 2.627-1.705 3.862-1.705 1.51 0 2.41.647 2.41 1.764 0 .784-.705 1.882-1.744 2.92zm9.742-1.568v-2.979h6.566v-2.077h-8.703v7.271c.98-.117 2.901-.196 3.783-.196 1.882 0 3.038.863 3.038 2.274 0 1.529-1.156 2.47-3.077 2.47-1.294 0-2.725-.53-3.881-1.451l-.94 1.882c1.41.94 3.39 1.568 5.076 1.568 3.214 0 5.292-1.823 5.292-4.626 0-2.391-2-4.155-5.116-4.155-.53 0-1.43 0-2.038.02zm14.249-5.115c3.312 0 5.155 2.47 5.155 6.919 0 4.468-1.843 6.938-5.155 6.938-3.332 0-5.175-2.47-5.175-6.938 0-4.45 1.843-6.92 5.175-6.92zm0 1.803c-1.921 0-2.881 1.627-2.881 5.116 0 3.488.96 5.135 2.88 5.135 1.902 0 2.862-1.647 2.862-5.135 0-3.49-.96-5.116-2.861-5.116zm8.369-2.548c1.43 2.234 2.313 5.233 2.313 8.487 0 3.253-.882 6.252-2.313 8.487h2.038c1.549-2.235 2.392-5.234 2.392-8.487 0-3.254-.843-6.253-2.392-8.487h-2.038z" fill="#9D9DBD"/><g><g fill="#FEC168"><path d="M552.517 94.621l-11.263-.995L536.852 83l-4.401 10.642-11.263.98 8.553 7.591-2.57 11.285 9.681-5.988 9.68 5.988-2.552-11.285zM589.72 94.621l-11.263-.995L574.055 83l-4.402 10.642-11.262.98 8.552 7.591-2.568 11.285 9.68-5.988 9.68 5.988-2.553-11.285zM513.454 94.621l-11.263-.995L497.79 83l-4.402 10.642-11.263.98 8.553 7.591-2.569 11.285 9.68-5.988 9.681 5.988-2.553-11.285zM474.391 94.621l-11.262-.995L458.727 83l-4.402 10.642-11.262.98 8.552 7.591-2.569 11.285 9.681-5.988 9.68 5.988-2.553-11.285zM435.329 94.621l-11.263-.995L419.664 83l-4.401 10.642-11.263.98 8.553 7.591-2.57 11.285 9.681-5.988 9.68 5.988-2.553-11.285z"/></g><path d="M604.392 95.457h-2.038c-1.549 2.234-2.391 5.233-2.391 8.487 0 3.253.842 6.252 2.39 8.486h2.04c-1.432-2.234-2.314-5.233-2.314-8.486 0-3.254.882-6.253 2.313-8.487zm6.801 6.585l-.803-.058 4.41-4.254v-1.45h-9.016l.02 2.058h6.115l-4.018 3.861v1.333h1.999c2.097 0 3.332.764 3.332 2.254 0 1.43-1.215 2.372-3.293 2.372a5.993 5.993 0 0 1-3.861-1.431l-.96 1.881c1.254.902 3.155 1.49 4.978 1.49 3.312 0 5.39-1.784 5.39-4.351 0-2.176-1.725-3.489-4.293-3.705zm11.074-5.782l-4.802 8.644v1.725h6.684V110h2.156v-3.371h2.038v-2.078h-2.018l-.02-3.234h-2.156l.02 3.234h-4.214l4.547-8.29h-2.235zm10.526 5.057v-2.979h6.566V96.26h-8.703v7.272c.98-.118 2.901-.196 3.783-.196 1.882 0 3.038.862 3.038 2.274 0 1.528-1.156 2.47-3.077 2.47-1.294 0-2.725-.53-3.88-1.451l-.942 1.881c1.411.941 3.391 1.568 5.077 1.568 3.214 0 5.292-1.822 5.292-4.625 0-2.391-2-4.155-5.116-4.155-.53 0-1.43 0-2.038.02zm10.525-5.86c1.43 2.234 2.313 5.233 2.313 8.487 0 3.253-.882 6.252-2.313 8.486h2.038c1.549-2.234 2.391-5.233 2.391-8.486 0-3.254-.842-6.253-2.39-8.487h-2.04z" fill="#9D9DBD"/></g><g><path fill="#FEC168" d="M513.454 216.612l-11.263-.996-4.401-10.626-4.402 10.642-11.263.98 8.553 7.592-2.569 11.284 9.68-5.987 9.681 5.987-2.553-11.284zM474.391 216.612l-11.262-.996-4.402-10.626-4.402 10.642-11.262.98 8.552 7.592-2.569 11.284 9.681-5.987 9.68 5.987-2.553-11.284zM435.329 216.612l-11.263-.996-4.402-10.626-4.401 10.642-11.263.98 8.553 7.592-2.57 11.284 9.681-5.987 9.68 5.987-2.553-11.284z"/><path fill-opacity=".147" fill="#182359" d="M589.72 216.612l-11.263-.996-4.402-10.626-4.402 10.642-11.262.98 8.552 7.592-2.568 11.284 9.68-5.987 9.68 5.987-2.553-11.284zM552.517 216.612l-11.263-.996-4.402-10.626-4.401 10.642-11.263.98 8.553 7.592-2.57 11.284 9.681-5.987 9.68 5.987-2.552-11.284z"/><path d="M612.037 229.402l-.824.824-2.293-2.274c-1.254 1.352-2.705 2.097-4.253 2.097-2.274 0-4.077-1.587-4.077-3.743 0-1.98 1.51-3.019 3.117-3.881-.941-1.235-1.412-2.274-1.412-3.273 0-1.706 1.353-2.94 3.352-2.94 1.901 0 3.175 1.136 3.175 2.744 0 1.862-1.685 2.822-3.41 3.743.843.98 1.96 2.117 3.371 3.489.51-.745.98-1.646 1.392-2.666l1.038.784c-.45 1.04-.98 1.98-1.548 2.764l2.372 2.332zm-8.487-10.25c0 .803.411 1.666 1.195 2.724 1.51-.784 2.823-1.529 2.823-2.92 0-1.02-.745-1.725-1.92-1.725-1.275 0-2.098.843-2.098 1.92zm1.176 9.702c1.176 0 2.332-.628 3.332-1.745-1.529-1.529-2.764-2.783-3.685-3.861-1.352.745-2.49 1.588-2.49 2.96 0 1.548 1.255 2.646 2.843 2.646zm16.66-4.508v-8.076h-1.568v8.076c0 3.586 2.175 5.703 5.782 5.703 3.587 0 5.743-2.117 5.743-5.703v-8.076h-1.568v8.076c0 2.704-1.568 4.272-4.175 4.272-2.607 0-4.214-1.568-4.214-4.272zm19.188-4.724c2.92 0 4.96 2.156 4.96 5.233 0 3.058-2 5.194-4.92 5.194-1.843 0-3.254-.843-4.019-2.273v6.017h-1.528V219.68h1.528v2.215c.765-1.431 2.176-2.274 3.98-2.274zm-.274 9.075c2.156 0 3.685-1.627 3.685-3.881 0-2.234-1.53-3.88-3.685-3.88-2.176 0-3.705 1.626-3.705 3.88 0 2.274 1.53 3.88 3.705 3.88z" fill="#182359"/><path d="M676.077 215.447h-2.038c-1.549 2.235-2.391 5.233-2.391 8.487 0 3.254.842 6.252 2.39 8.487h2.04c-1.432-2.235-2.314-5.233-2.314-8.487 0-3.254.882-6.252 2.313-8.487zm6.801 6.586l-.803-.06 4.41-4.252v-1.45h-9.016l.02 2.057h6.115l-4.018 3.862v1.332h1.999c2.097 0 3.332.765 3.332 2.254 0 1.431-1.215 2.372-3.293 2.372a5.993 5.993 0 0 1-3.861-1.43l-.96 1.88c1.254.902 3.155 1.49 4.978 1.49 3.312 0 5.39-1.783 5.39-4.35 0-2.176-1.725-3.49-4.293-3.705zm12.427-5.782v3.998h2.058l.02-1.92h5.801l-5.664 11.661h2.45l5.782-11.975v-1.764h-10.447zm21.227 2.685c-.843-.549-2-.862-3.038-.862-2.666 0-3.92 1.999-3.822 4.978.725-1.294 2.018-1.96 3.743-1.96 2.744 0 4.43 1.705 4.43 4.39 0 2.842-1.921 4.606-4.841 4.606-3.47 0-5.586-2.47-5.586-6.683 0-4.39 2.293-7.252 5.919-7.252 1.352 0 2.979.411 4.096 1.039l-.901 1.744zm-3.548 3.979c-1.862 0-2.96 1.215-2.94 2.626-.02 1.196.862 2.568 2.842 2.568 1.666 0 2.803-.98 2.803-2.646 0-1.568-1.039-2.548-2.705-2.548zm7.644-6.664v2.077h2.96v11.662h2.312v-13.74h-5.272zm12.348-.804c1.43 2.235 2.313 5.233 2.313 8.487 0 3.254-.882 6.252-2.313 8.487h2.038c1.549-2.235 2.392-5.233 2.392-8.487 0-3.254-.843-6.252-2.392-8.487h-2.038z" fill="#9D9DBD"/></g><g><path fill="#FEC168" d="M474.391 277.607l-11.262-.995-4.402-10.626-4.402 10.642-11.262.979 8.552 7.592-2.569 11.284 9.681-5.987 9.68 5.987-2.553-11.284zM435.329 277.607l-11.263-.995-4.402-10.626-4.401 10.642-11.263.979 8.553 7.592-2.57 11.284 9.681-5.987 9.68 5.987-2.553-11.284z"/><path fill-opacity=".147" fill="#182359" d="M589.72 277.607l-11.263-.995-4.402-10.626-4.402 10.642-11.262.979 8.552 7.592-2.568 11.284 9.68-5.987 9.68 5.987-2.553-11.284zM552.517 277.607l-11.263-.995-4.402-10.626-4.401 10.642-11.263.979 8.553 7.592-2.57 11.284 9.681-5.987 9.68 5.987-2.552-11.284zM513.454 277.607l-11.263-.995-4.401-10.626-4.402 10.642-11.263.979 8.553 7.592-2.569 11.284 9.68-5.987 9.681 5.987-2.553-11.284z"/><path d="M612.037 290.398l-.824.823-2.293-2.274c-1.254 1.353-2.705 2.097-4.253 2.097-2.274 0-4.077-1.587-4.077-3.743 0-1.98 1.51-3.019 3.117-3.881-.941-1.235-1.412-2.274-1.412-3.273 0-1.705 1.353-2.94 3.352-2.94 1.901 0 3.175 1.137 3.175 2.744 0 1.862-1.685 2.822-3.41 3.743.843.98 1.96 2.117 3.371 3.49.51-.746.98-1.647 1.392-2.666l1.038.784c-.45 1.038-.98 1.98-1.548 2.763l2.372 2.333zm-8.487-10.251c0 .803.411 1.666 1.195 2.724 1.51-.784 2.823-1.529 2.823-2.92 0-1.02-.745-1.725-1.92-1.725-1.275 0-2.098.843-2.098 1.92zm1.176 9.702c1.176 0 2.332-.627 3.332-1.745-1.529-1.528-2.764-2.783-3.685-3.86-1.352.744-2.49 1.587-2.49 2.959 0 1.548 1.255 2.646 2.843 2.646zm16.66-4.508v-8.075h-1.568v8.075c0 3.587 2.175 5.703 5.782 5.703 3.587 0 5.743-2.116 5.743-5.703v-8.075h-1.568v8.075c0 2.705-1.568 4.273-4.175 4.273-2.607 0-4.214-1.568-4.214-4.273zm19.188-4.724c2.92 0 4.96 2.156 4.96 5.233 0 3.058-2 5.194-4.92 5.194-1.843 0-3.254-.842-4.019-2.273v6.017h-1.528v-14.112h1.528v2.215c.765-1.431 2.176-2.274 3.98-2.274zm-.274 9.075c2.156 0 3.685-1.627 3.685-3.88 0-2.235-1.53-3.882-3.685-3.882-2.176 0-3.705 1.627-3.705 3.881 0 2.274 1.53 3.88 3.705 3.88z" fill="#182359"/><path d="M676.077 276.442h-2.038c-1.549 2.235-2.391 5.234-2.391 8.487 0 3.254.842 6.253 2.39 8.487h2.04c-1.432-2.234-2.314-5.233-2.314-8.487 0-3.253.882-6.252 2.313-8.487zm5.782.804l-4.802 8.644v1.724h6.684v3.372h2.156v-3.372h2.038v-2.077h-2.019l-.02-3.234h-2.155l.02 3.234h-4.215l4.548-8.291h-2.235zm14.602 11.054c.843.55 1.98.863 3.019.863 2.646 0 3.88-2 3.802-4.979-.725 1.294-2 1.96-3.724 1.96-2.724 0-4.39-1.724-4.39-4.39 0-2.842 1.9-4.606 4.802-4.606 3.45 0 5.566 2.47 5.566 6.684 0 4.39-2.293 7.252-5.9 7.252-1.352 0-2.96-.412-4.076-1.04l.901-1.744zm3.626-9.172c-1.646 0-2.763.98-2.763 2.646 0 1.568 1.019 2.548 2.665 2.548 1.862 0 2.94-1.216 2.92-2.627.02-1.195-.842-2.567-2.822-2.567zm10.27 3.175v-2.98h6.567v-2.077h-8.703v7.272c.98-.118 2.901-.196 3.783-.196 1.882 0 3.038.862 3.038 2.273 0 1.529-1.156 2.47-3.077 2.47-1.294 0-2.725-.53-3.881-1.45l-.94 1.88c1.41.942 3.39 1.569 5.076 1.569 3.214 0 5.292-1.823 5.292-4.626 0-2.39-2-4.155-5.116-4.155-.53 0-1.43 0-2.038.02zm18.268-2.372c-.843-.549-2-.862-3.038-.862-2.666 0-3.92 1.999-3.822 4.978.725-1.293 2.019-1.96 3.743-1.96 2.744 0 4.43 1.705 4.43 4.39 0 2.843-1.92 4.607-4.841 4.607-3.47 0-5.586-2.47-5.586-6.684 0-4.39 2.293-7.252 5.919-7.252 1.352 0 2.98.412 4.096 1.039l-.901 1.744zm-3.548 3.979c-1.862 0-2.96 1.215-2.94 2.626-.02 1.196.863 2.568 2.842 2.568 1.666 0 2.803-.98 2.803-2.646 0-1.568-1.039-2.548-2.705-2.548zm7.899-7.468c1.43 2.235 2.313 5.234 2.313 8.487 0 3.254-.882 6.253-2.313 8.487h2.038c1.549-2.234 2.392-5.233 2.392-8.487 0-3.253-.843-6.252-2.392-8.487h-2.038z" fill="#9D9DBD"/></g><g><path fill="url(#b)" d="M31.329 11.621l-11.263-.995L15.664 0l-4.401 10.642L0 11.622l8.553 7.591-2.57 11.285 9.681-5.988 9.68 5.988-2.553-11.285z" transform="translate(404 326.98)"/><path fill-opacity=".398" fill="#9D9DBD" d="M589.72 338.602l-11.263-.995-4.402-10.626-4.402 10.642-11.262.979 8.552 7.592-2.568 11.284 9.68-5.987 9.68 5.987-2.553-11.284zM552.517 338.602l-11.263-.995-4.402-10.626-4.401 10.642-11.263.979 8.553 7.592-2.57 11.284 9.681-5.987 9.68 5.987-2.552-11.284zM513.454 338.602l-11.263-.995-4.401-10.626-4.402 10.642-11.263.979 8.553 7.592-2.569 11.284 9.68-5.987 9.681 5.987-2.553-11.284zM474.391 338.602l-11.262-.995-4.402-10.626-4.402 10.642-11.262.979 8.552 7.592-2.569 11.284 9.681-5.987 9.68 5.987-2.553-11.284z"/><path d="M612.037 351.393l-.824.823-2.293-2.274c-1.254 1.353-2.705 2.097-4.253 2.097-2.274 0-4.077-1.587-4.077-3.743 0-1.98 1.51-3.019 3.117-3.88-.941-1.236-1.412-2.275-1.412-3.274 0-1.705 1.353-2.94 3.352-2.94 1.901 0 3.175 1.137 3.175 2.744 0 1.862-1.685 2.822-3.41 3.743.843.98 1.96 2.117 3.371 3.49.51-.746.98-1.647 1.392-2.666l1.038.784c-.45 1.038-.98 1.98-1.548 2.763l2.372 2.333zm-8.487-10.251c0 .803.411 1.666 1.195 2.724 1.51-.784 2.823-1.529 2.823-2.92 0-1.02-.745-1.725-1.92-1.725-1.275 0-2.098.843-2.098 1.92zm1.176 9.702c1.176 0 2.332-.627 3.332-1.745-1.529-1.528-2.764-2.783-3.685-3.86-1.352.744-2.49 1.587-2.49 2.959 0 1.548 1.255 2.646 2.843 2.646zm16.66-4.508v-8.075h-1.568v8.075c0 3.587 2.175 5.703 5.782 5.703 3.587 0 5.743-2.116 5.743-5.703v-8.075h-1.568v8.075c0 2.705-1.568 4.273-4.175 4.273-2.607 0-4.214-1.568-4.214-4.273zm19.188-4.724c2.92 0 4.96 2.156 4.96 5.233 0 3.058-2 5.194-4.92 5.194-1.843 0-3.254-.842-4.019-2.273v6.017h-1.528v-14.112h1.528v2.215c.765-1.43 2.176-2.274 3.98-2.274zm-.274 9.075c2.156 0 3.685-1.627 3.685-3.88 0-2.235-1.53-3.882-3.685-3.882-2.176 0-3.705 1.627-3.705 3.881 0 2.274 1.53 3.881 3.705 3.881zM675.568 337.437h-1.392c-1.51 2.196-2.332 5.194-2.332 8.487s.823 6.292 2.332 8.487h1.392c-1.431-2.195-2.274-5.194-2.274-8.487s.843-6.291 2.274-8.487zm10.603 2.94c-.921-.529-2.117-.842-3.195-.842-2.998 0-4.488 2.45-4.253 6.252.608-1.666 2.097-2.587 4.155-2.587 2.725 0 4.41 1.666 4.41 4.331 0 2.784-1.862 4.508-4.704 4.508-3.37 0-5.429-2.39-5.429-6.605 0-4.39 2.195-7.252 5.723-7.252 1.274 0 2.784.392 3.92.98l-.627 1.215zm-3.567 4.097c-2.215 0-3.528 1.49-3.528 3.136 0 1.333 1.02 3.057 3.41 3.057 1.96 0 3.332-1.195 3.332-3.175 0-1.862-1.254-3.018-3.214-3.018zm13.661-6.233v1.45h3.234v12.29h1.568v-13.74h-4.802zm19.973 2.136c-.922-.529-2.117-.842-3.195-.842-2.999 0-4.489 2.45-4.253 6.252.607-1.666 2.097-2.587 4.155-2.587 2.724 0 4.41 1.666 4.41 4.331 0 2.784-1.862 4.508-4.704 4.508-3.371 0-5.43-2.39-5.43-6.605 0-4.39 2.196-7.252 5.724-7.252 1.274 0 2.783.392 3.92.98l-.627 1.215zm-3.568 4.097c-2.214 0-3.528 1.49-3.528 3.136 0 1.333 1.02 3.057 3.41 3.057 1.96 0 3.333-1.195 3.333-3.175 0-1.862-1.255-3.018-3.215-3.018zm11.584-6.292c2.724 0 4.41 1.294 4.41 3.45 0 1.43-.843 2.47-2.215 2.999 1.784.529 2.881 1.783 2.881 3.508 0 2.43-1.94 3.9-5.056 3.9-3.117 0-5.057-1.45-5.057-3.88 0-1.745 1.117-3 2.94-3.528-1.431-.55-2.293-1.608-2.293-3.058 0-2.097 1.705-3.39 4.39-3.39zm.02 1.196c-1.921 0-3.058.862-3.058 2.352 0 1.47 1.137 2.352 3.058 2.352 1.92 0 3.038-.882 3.038-2.352 0-1.49-1.118-2.352-3.038-2.352zm-.02 5.978c-2.234 0-3.567 1-3.567 2.646 0 1.744 1.333 2.763 3.587 2.763 2.234 0 3.567-1.019 3.567-2.744 0-1.646-1.333-2.665-3.587-2.665zm7.781-7.919c1.431 2.196 2.274 5.194 2.274 8.487s-.843 6.292-2.274 8.487h1.392c1.509-2.195 2.332-5.194 2.332-8.487s-.823-6.291-2.332-8.487h-1.392z" fill="#182359"/></g></g></g></svg>