<?xml version="1.0" encoding="UTF-8"?>
<svg width="245px" height="51px" viewBox="0 0 245 51" version="1.1" xmlns="http://www.w3.org/2000/svg" xmlns:xlink="http://www.w3.org/1999/xlink">
    <!-- Generator: Sketch 44.1 (41455) - http://www.bohemiancoding.com/sketch -->
    <title>InstantSearch-JavaScript</title>
    <desc>Created with Sketch.</desc>
    <defs>
        <linearGradient x1="42.4428508%" y1="121.561%" x2="57.5230002%" y2="8.499%" id="linearGradient-1">
            <stop stop-color="#201C38" offset="0%"></stop>
            <stop stop-color="#3E396B" offset="100%"></stop>
        </linearGradient>
    </defs>
    <g id="Page-1" stroke="none" stroke-width="1" fill="none" fill-rule="evenodd">
        <g id="InstantSearch-JavaScript">
            <g id="Group" fill-rule="nonzero">
                <path d="M27.4367816,22.2888889 C28.7011494,22.2888889 29.9022989,22.037037 31.1034483,21.6592593 L33.1264368,25.1222222 L34.5172414,27.5148148 C34.8965517,28.2074074 35.591954,28.5851852 36.3505747,28.5851852 C36.7298851,28.5851852 37.045977,28.5222222 37.4252874,28.3333333 C38.4367816,27.7666667 38.7528736,26.4444444 38.183908,25.437037 L36.7931034,23.0444444 L34.7701149,19.5185185 C37.1091954,17.5037037 38.6264368,14.4814815 38.6264368,11.1444444 C38.6264368,5.03703704 33.6321839,0.062962963 27.5,0.062962963 C21.3678161,0.062962963 16.3103448,5.03703704 16.3103448,11.2074074 C16.3103448,17.3777778 21.3045977,22.2888889 27.4367816,22.2888889 Z M27.4367816,4.28148148 C31.2298851,4.28148148 34.3275862,7.36666667 34.3275862,11.1444444 C34.3275862,14.9222222 31.2298851,18.0074074 27.4367816,18.0074074 C23.6436782,18.0074074 20.545977,14.9222222 20.545977,11.1444444 C20.545977,7.36666667 23.6436782,4.28148148 27.4367816,4.28148148 Z" id="Shape" fill="#FFD32B"></path>
                <path d="M43.8103448,28.2074074 C38.3735632,28.2074074 33.8850575,32.1111111 32.8735632,37.2111111 L28.8908046,37.2111111 L26.1091954,37.2111111 C24.9712644,37.2111111 24.0229885,38.1555556 24.0229885,39.2888889 C24.0229885,40.4222222 24.9712644,41.3666667 26.1091954,41.3666667 L28.8908046,41.3666667 L32.8735632,41.3666667 C33.8850575,46.4666667 38.3735632,50.3703704 43.8103448,50.3703704 C49.9425287,50.3703704 54.9367816,45.3962963 54.9367816,39.2888889 C54.9367816,33.1814815 49.9425287,28.2074074 43.8103448,28.2074074 Z M43.8103448,46.2148148 C40.0172414,46.2148148 36.9195402,43.1296296 36.9195402,39.3518519 C36.9195402,35.5740741 40.0172414,32.4888889 43.8103448,32.4888889 C47.6034483,32.4888889 50.7011494,35.5740741 50.7011494,39.3518519 C50.7011494,43.1296296 47.6034483,46.2148148 43.8103448,46.2148148 Z M18.4597701,30.9777778 C20.7988506,32.9925926 22.316092,35.9518519 22.2528736,39.3518519 C22.2528736,45.4592593 17.2586207,50.4333333 11.1264368,50.4333333 C4.99425287,50.4333333 0,45.5222222 0,39.3518519 C0,33.1814815 4.99425287,28.2074074 11.1264368,28.2074074 C12.454023,28.2074074 13.6551724,28.4592593 14.7931034,28.837037 L16.816092,25.3740741 L18.2068966,22.9814815 C18.8390805,21.9740741 20.1034483,21.6592593 21.1149425,22.2259259 C22.1264368,22.8555556 22.4425287,24.1148148 21.8735632,25.1222222 L20.4827586,27.5148148 L18.4597701,30.9777778 Z M11.1264368,46.2148148 C14.9827586,46.2148148 18.0804598,43.1296296 18.0172414,39.3518519 C18.0172414,35.5740741 14.9195402,32.4888889 11.1264368,32.4888889 C7.33333333,32.4888889 4.23563218,35.5740741 4.23563218,39.3518519 C4.23563218,43.1296296 7.33333333,46.2148148 11.1264368,46.2148148 Z" id="Shape" fill="url(#linearGradient-1)"></path>
            </g>
            <g id="Group" transform="translate(80.000000, 3.000000)" fill="#3E396B">
                <path d="M0.064,1.2 L0.064,18 L3.28,18 L3.28,1.2 L0.064,1.2 Z M15.016,5.04 C12.928,5.064 11.32,5.856 10.408,7.56 L10.408,5.16 L7.288,5.16 L7.288,18 L10.408,18 L10.408,11.688 C10.408,9.576 11.656,8.016 13.768,7.992 C15.544,7.992 16.624,9.096 16.624,10.896 L16.624,18 L19.768,18 L19.768,9.984 C19.768,6.936 17.968,5.04 15.016,5.04 Z M30.88,8.64 L32.008,6.384 C30.736,5.52 28.984,5.016 27.304,5.016 C24.712,5.016 22.456,6.24 22.456,8.88 C22.432,13.44 29.128,12.144 29.128,14.52 C29.128,15.36 28.312,15.72 27.232,15.72 C25.84,15.72 24.064,15.144 22.888,14.136 L21.808,16.32 C23.152,17.496 25.168,18.12 27.112,18.12 C29.848,18.12 32.176,16.848 32.176,14.232 C32.176,9.624 25.384,10.752 25.384,8.592 C25.384,7.8 26.104,7.464 27.112,7.464 C28.216,7.464 29.632,7.896 30.88,8.64 Z M41.632,14.856 C40.936,15.192 40.336,15.384 39.808,15.384 C38.968,15.384 38.464,14.976 38.464,13.752 L38.464,7.968 L42.136,7.968 L42.136,5.688 L38.464,5.688 L38.464,2.16 L35.368,2.16 L35.368,5.688 L33.544,5.688 L33.568,7.968 L35.368,7.968 L35.368,14.304 C35.368,16.944 37.048,18.144 39.136,18.144 C40.264,18.144 41.368,17.808 42.352,17.208 L41.632,14.856 Z M55.456,18 L52.384,18 L52.384,16.44 C51.496,17.568 50.056,18.144 48.232,18.144 C45.472,18.144 43.744,16.44 43.744,14.16 C43.744,11.784 45.496,10.32 48.616,10.296 L52.36,10.296 L52.36,9.96 C52.36,8.472 51.376,7.584 49.456,7.584 C48.256,7.584 46.96,7.992 45.64,8.784 L44.512,6.624 C46.36,5.592 47.8,5.04 50.152,5.04 C53.512,5.04 55.408,6.744 55.432,9.6 L55.456,18 Z M48.976,15.744 C50.776,15.744 52.192,14.784 52.36,13.536 L52.36,12.384 L49.12,12.384 C47.464,12.384 46.696,12.84 46.696,13.968 C46.696,15.048 47.56,15.744 48.976,15.744 Z M66.688,5.04 C64.6,5.064 62.992,5.856 62.08,7.56 L62.08,5.16 L58.96,5.16 L58.96,18 L62.08,18 L62.08,11.688 C62.08,9.576 63.328,8.016 65.44,7.992 C67.216,7.992 68.296,9.096 68.296,10.896 L68.296,18 L71.44,18 L71.44,9.984 C71.44,6.936 69.64,5.04 66.688,5.04 Z M81.736,14.856 C81.04,15.192 80.44,15.384 79.912,15.384 C79.072,15.384 78.568,14.976 78.568,13.752 L78.568,7.968 L82.24,7.968 L82.24,5.688 L78.568,5.688 L78.568,2.16 L75.472,2.16 L75.472,5.688 L73.648,5.688 L73.672,7.968 L75.472,7.968 L75.472,14.304 C75.472,16.944 77.152,18.144 79.24,18.144 C80.368,18.144 81.472,17.808 82.456,17.208 L81.736,14.856 Z M95.584,5.616 L96.88,2.832 C95.272,1.776 93.04,1.056 90.808,1.056 C87.04,1.056 84.52,2.928 84.52,5.856 C84.52,11.832 93.544,9.84 93.544,13.344 C93.544,14.52 92.464,15.192 90.664,15.192 C88.864,15.192 86.584,14.256 84.856,12.72 L83.512,15.432 C85.312,17.04 87.928,18.12 90.616,18.12 C94.312,18.12 97.048,16.296 97.048,13.152 C97.072,7.128 88.048,8.976 88.048,5.568 C88.048,4.536 89.032,3.984 90.544,3.984 C91.84,3.984 93.784,4.536 95.584,5.616 Z M105.328,5.064 C109.84,5.064 111.784,8.016 111.472,12.672 L101.992,12.672 C102.4,14.496 103.792,15.6 105.664,15.6 C106.984,15.6 108.208,15.096 109.12,14.16 L110.8,15.912 C109.528,17.304 107.656,18.12 105.4,18.12 C101.416,18.12 98.8,15.48 98.8,11.616 C98.8,7.704 101.488,5.064 105.328,5.064 Z M101.92,10.584 L108.64,10.584 C108.568,8.688 107.296,7.488 105.352,7.488 C103.504,7.488 102.208,8.688 101.92,10.584 Z M124.84,18 L121.768,18 L121.768,16.44 C120.88,17.568 119.44,18.144 117.616,18.144 C114.856,18.144 113.128,16.44 113.128,14.16 C113.128,11.784 114.88,10.32 118,10.296 L121.744,10.296 L121.744,9.96 C121.744,8.472 120.76,7.584 118.84,7.584 C117.64,7.584 116.344,7.992 115.024,8.784 L113.896,6.624 C115.744,5.592 117.184,5.04 119.536,5.04 C122.896,5.04 124.792,6.744 124.816,9.6 L124.84,18 Z M118.36,15.744 C120.16,15.744 121.576,14.784 121.744,13.536 L121.744,12.384 L118.504,12.384 C116.848,12.384 116.08,12.84 116.08,13.968 C116.08,15.048 116.944,15.744 118.36,15.744 Z M131.464,7.632 L131.464,5.16 L128.344,5.16 L128.344,18 L131.464,18 L131.464,11.808 C131.464,9.48 133.12,7.896 135.832,8.064 L135.832,5.04 C133.84,5.064 132.328,5.952 131.464,7.632 Z M146.848,9.216 L148.744,7.416 C147.592,5.928 145.72,5.064 143.368,5.064 C139.504,5.064 136.84,7.704 136.84,11.616 C136.84,15.48 139.48,18.12 143.32,18.12 C145.84,18.12 147.76,17.16 148.888,15.528 L146.944,13.92 C146.176,14.928 144.976,15.432 143.488,15.432 C141.424,15.432 139.984,13.896 139.984,11.592 C139.984,9.336 141.424,7.8 143.488,7.8 C144.904,7.8 146.032,8.328 146.848,9.216 Z M159.424,5.04 C157.312,5.064 155.704,5.856 154.792,7.608 L154.792,0.192 L151.672,0.192 L151.672,18 L154.792,18 L154.792,11.688 C154.792,9.576 156.064,8.016 158.176,7.992 C159.952,7.992 161.032,9.096 161.032,10.896 L161.032,18 L164.176,18 L164.176,9.984 C164.176,6.936 162.376,5.04 159.424,5.04 Z" id="InstantSearch"></path>
            </g>
            <g id="Group" transform="translate(78.000000, 32.000000)" fill="#8995C7">
                <path d="M4.688,2.648 C4.064,2.648 3.536,3 3.536,3.8 L3.536,4.808 L5.76,4.808 L5.76,6.184 L3.536,6.184 L3.536,13 L1.712,13 L1.712,6.184 L0.592,6.184 L0.592,4.808 L1.712,4.808 L1.712,3.976 C1.712,1.992 3.168,1.048 4.64,1.048 C5.328,1.048 6.016,1.24 6.56,1.64 L5.856,3.048 C5.504,2.792 5.072,2.648 4.688,2.648 Z M10.336,4.424 C12.96,4.424 14.768,6.168 14.768,8.728 C14.768,11.304 12.96,13.064 10.336,13.064 C7.696,13.064 5.888,11.304 5.888,8.728 C5.888,6.168 7.696,4.424 10.336,4.424 Z M10.336,5.992 C8.8,5.992 7.728,7.128 7.728,8.76 C7.728,10.408 8.8,11.528 10.336,11.528 C11.856,11.528 12.928,10.408 12.928,8.76 C12.928,7.128 11.856,5.992 10.336,5.992 Z M18.528,6.184 L18.528,4.488 L16.688,4.488 L16.688,13 L18.528,13 L18.528,8.552 C18.672,7.096 19.76,6.088 21.472,6.184 L21.472,4.424 C20.128,4.424 19.104,5.032 18.528,6.184 Z M33.184,9.544 L33.184,1.8 L27.408,1.8 L27.408,3.496 L31.28,3.496 L31.28,9.48 C31.28,10.632 30.688,11.256 29.68,11.256 C28.912,11.256 28.032,10.824 27.296,10.024 L26.4,11.464 C27.232,12.488 28.352,13.08 29.696,13.08 C31.856,13.08 33.184,11.8 33.184,9.544 Z M42.688,13 L40.88,13 L40.88,11.96 C40.272,12.712 39.296,13.08 38.064,13.08 C36.224,13.08 35.072,11.944 35.072,10.44 C35.072,8.888 36.24,7.896 38.288,7.88 L40.864,7.88 L40.864,7.624 C40.864,6.552 40.176,5.912 38.832,5.912 C38.016,5.912 37.168,6.2 36.32,6.776 L35.568,5.496 C36.752,4.792 37.616,4.424 39.232,4.424 C41.424,4.424 42.656,5.544 42.672,7.416 L42.688,13 Z M38.448,11.624 C39.76,11.624 40.768,10.936 40.864,10.008 L40.864,9.224 L38.56,9.224 C37.36,9.224 36.8,9.544 36.8,10.36 C36.8,11.128 37.424,11.624 38.448,11.624 Z M43.552,4.488 L46.848,13 L48.752,13 L52.016,4.488 L50.176,4.488 L47.84,11.192 L45.472,4.488 L43.552,4.488 Z M59.968,13 L58.16,13 L58.16,11.96 C57.552,12.712 56.576,13.08 55.344,13.08 C53.504,13.08 52.352,11.944 52.352,10.44 C52.352,8.888 53.52,7.896 55.568,7.88 L58.144,7.88 L58.144,7.624 C58.144,6.552 57.456,5.912 56.112,5.912 C55.296,5.912 54.448,6.2 53.6,6.776 L52.848,5.496 C54.032,4.792 54.896,4.424 56.512,4.424 C58.704,4.424 59.936,5.544 59.952,7.416 L59.968,13 Z M55.728,11.624 C57.04,11.624 58.048,10.936 58.144,10.008 L58.144,9.224 L55.84,9.224 C54.64,9.224 54.08,9.544 54.08,10.36 C54.08,11.128 54.704,11.624 55.728,11.624 Z M69.36,4.536 L70.144,2.872 C69.104,2.184 67.68,1.72 66.224,1.72 C63.792,1.72 62.144,2.92 62.144,4.84 C62.144,8.824 68.192,7.432 68.192,9.928 C68.192,10.792 67.408,11.288 66.096,11.288 C64.896,11.288 63.456,10.712 62.304,9.656 L61.488,11.288 C62.64,12.344 64.304,13.064 66.064,13.064 C68.528,13.064 70.288,11.832 70.288,9.832 C70.304,5.8 64.256,7.112 64.256,4.664 C64.256,3.912 64.976,3.496 66.08,3.496 C66.928,3.496 68.144,3.8 69.36,4.536 Z M78.384,7 L79.392,5.816 C78.608,4.92 77.408,4.424 75.872,4.424 C73.344,4.424 71.584,6.184 71.584,8.76 C71.584,11.32 73.344,13.064 75.872,13.064 C77.488,13.064 78.72,12.488 79.488,11.48 L78.464,10.456 C77.888,11.128 77.024,11.48 75.952,11.48 C74.48,11.48 73.424,10.376 73.424,8.76 C73.424,7.144 74.48,6.04 75.952,6.04 C76.976,6.024 77.792,6.392 78.384,7 Z M83.248,6.184 L83.248,4.488 L81.408,4.488 L81.408,13 L83.248,13 L83.248,8.552 C83.392,7.096 84.48,6.088 86.192,6.184 L86.192,4.424 C84.848,4.424 83.824,5.032 83.248,6.184 Z M88.624,0.952 C88.016,0.952 87.552,1.416 87.552,2.056 C87.552,2.68 88.016,3.144 88.624,3.144 C89.232,3.144 89.696,2.68 89.696,2.056 C89.696,1.416 89.232,0.952 88.624,0.952 Z M87.712,4.488 L87.712,13 L89.536,13 L89.536,4.488 L87.712,4.488 Z M97.152,4.424 C99.568,4.424 101.216,6.184 101.216,8.776 C101.216,11.32 99.616,13.064 97.184,13.064 C95.824,13.064 94.8,12.52 94.176,11.528 L94.176,16.104 L92.336,16.104 L92.336,4.488 L94.176,4.488 L94.176,5.96 C94.8,4.968 95.824,4.424 97.152,4.424 Z M96.768,11.496 C98.288,11.496 99.36,10.344 99.36,8.712 C99.36,7.128 98.288,5.96 96.768,5.96 C95.248,5.96 94.176,7.112 94.176,8.712 C94.176,10.36 95.248,11.496 96.768,11.496 Z M107.488,11.048 C106.992,11.288 106.592,11.416 106.208,11.416 C105.632,11.416 105.296,11.144 105.296,10.264 L105.296,6.184 L107.808,6.184 L107.808,4.808 L105.296,4.808 L105.296,2.472 L103.472,2.472 L103.472,4.808 L102.272,4.808 L102.272,6.184 L103.472,6.184 L103.472,10.6 C103.472,12.344 104.576,13.08 105.856,13.08 C106.576,13.08 107.28,12.856 107.952,12.456 L107.488,11.048 Z" id="for-JavaScript"></path>
            </g>
        </g>
    </g>
</svg>