<svg width="100" height="67" viewBox="0 0 100 67" xmlns="http://www.w3.org/2000/svg"><title>Combined Shape</title><path d="M86.207 37.3H4.06C1.818 37.3 0 35.48 0 33.24c0-2.244 1.82-4.062 4.06-4.062h82.345l-3.823-3.823c-1.588-1.588-1.586-4.164-.003-5.747 1.585-1.586 4.15-1.59 5.746.003L98.553 29.84c.403.404.704.87.902 1.37.347.598.545 1.292.545 2.03 0 1.012-.37 1.937-.98 2.647-.137.196-.293.383-.467.558L88.326 46.67c-1.595 1.594-4.16 1.59-5.747.003-1.584-1.583-1.586-4.16.002-5.747l3.625-3.625zM0 4.06C0 1.82 1.814 0 4.066 0h50.35c2.245 0 4.066 1.823 4.066 4.06 0 2.245-1.815 4.063-4.066 4.063H4.066C1.82 8.123 0 6.3 0 4.06zm0 14.59c0-2.243 1.814-4.06 4.066-4.06h50.35c2.245 0 4.066 1.822 4.066 4.06 0 2.243-1.815 4.062-4.066 4.062H4.066C1.82 22.712 0 20.89 0 18.65zm0 29.178c0-2.243 1.814-4.06 4.066-4.06h50.35c2.245 0 4.066 1.822 4.066 4.06 0 2.243-1.815 4.062-4.066 4.062H4.066C1.82 51.89 0 50.067 0 47.828zm0 14.59c0-2.244 1.814-4.062 4.066-4.062h50.35c2.245 0 4.066 1.822 4.066 4.06 0 2.244-1.815 4.062-4.066 4.062H4.066C1.82 66.478 0 64.656 0 62.418z" fill="#FFF" fill-rule="evenodd"/></svg>