<svg width="65" height="70" viewBox="0 0 65 70" xmlns="http://www.w3.org/2000/svg"><title>icon-widget-numerical</title><desc>Created with Sketch.</desc><defs><linearGradient x1="42.966%" y1="14.059%" x2="85.153%" y2="110.153%" id="a"><stop stop-color="#2CA5C3" offset="0%"/><stop stop-color="#136B90" offset="100%"/></linearGradient><linearGradient x1="10.934%" y1="-27.347%" x2="73.434%" y2="79.684%" id="b"><stop stop-color="#51C8E5" offset="0%"/><stop stop-color="#2897C5" offset="100%"/></linearGradient></defs><g fill="none" fill-rule="evenodd"><g><g transform="translate(-176 -512) translate(176 512)"><g transform="translate(.613 .335)"><rect fill="url(#a)" y="5" width="64" height="64" rx="4"/><rect fill="url(#b)" width="64" height="64" rx="4"/></g><rect fill="#fff" x="36" y="26" width="17" height="3" rx="2"/><rect fill="#fff" x="36" y="36" width="17" height="3" rx="2"/><path d="M28.87 32.592c.126.525-.04 1.097-.474 1.475L16.26 44.617c-.618.537-1.57.476-2.114-.15-.548-.63-.48-1.57.145-2.113l11.23-9.762-11.23-9.762c-.623-.542-.692-1.484-.144-2.114.543-.625 1.496-.687 2.113-.15l12.136 10.55c.435.378.6.95.475 1.476z" fill="#fff"/></g></g></g></svg>