<svg width="64" height="69" viewBox="0 0 64 69" xmlns="http://www.w3.org/2000/svg"><title>icon-widget-filter</title><desc>Created with Sketch.</desc><defs><linearGradient x1="42.966%" y1="14.059%" x2="85.153%" y2="110.153%" id="a"><stop stop-color="#2CA5C3" offset="0%"/><stop stop-color="#136B90" offset="100%"/></linearGradient><linearGradient x1="10.934%" y1="-27.347%" x2="73.434%" y2="79.684%" id="b"><stop stop-color="#51C8E5" offset="0%"/><stop stop-color="#2897C5" offset="100%"/></linearGradient></defs><g fill="none" fill-rule="evenodd"><g><rect fill="url(#a)" y="5" width="64" height="64" rx="4"/><rect fill="url(#b)" width="64" height="64" rx="4"/></g><path d="M29.358 39.04c.03.032.063.063.097.093.644.56 1.61.485 2.168-.158l13.57-15.61c.56-.644.492-1.612-.147-2.168-.643-.56-1.61-.485-2.168.158l-12.493 14.37-6.232-7.17c-.555-.636-1.517-.707-2.16-.147-.64.555-.71 1.522-.155 2.16l7.046 8.105c.137.158.3.28.474.368z" fill="#fff"/></g></svg>