<svg width="64" height="69" viewBox="0 0 64 69" xmlns="http://www.w3.org/2000/svg"><title>icon-widget-searchbox</title><desc>Created with Sketch.</desc><defs><linearGradient x1="42.966%" y1="14.059%" x2="85.153%" y2="110.153%" id="a"><stop stop-color="#2CA5C3" offset="0%"/><stop stop-color="#136B90" offset="100%"/></linearGradient><linearGradient x1="10.934%" y1="-27.347%" x2="73.434%" y2="79.684%" id="b"><stop stop-color="#51C8E5" offset="0%"/><stop stop-color="#2897C5" offset="100%"/></linearGradient></defs><g fill="none" fill-rule="evenodd"><g><rect fill="url(#a)" y="5" width="64" height="64" rx="4"/><rect fill="url(#b)" width="64" height="64" rx="4"/></g><path d="M40.92 41.936c.072-.41-.027-.84-.255-1.166L37.26 35.9c1.226-1.24 2.043-2.84 2.346-4.553.83-4.696-2.297-9.17-6.988-9.998-4.69-.83-9.162 2.3-9.99 6.997-.83 4.695 2.296 9.17 6.987 9.997 1.713.303 3.493.082 5.076-.646l3.41 4.858c.225.338.594.578 1.004.65.844.15 1.667-.427 1.816-1.272zm-4.4-11.134c-.528 2.98-3.38 4.98-6.36 4.453-2.978-.526-4.973-3.38-4.446-6.362.527-2.982 3.38-4.98 6.358-4.454 2.978.524 4.974 3.38 4.447 6.36z" fill="#fff"/></g></svg>