<svg width="175" height="172" viewBox="0 0 175 172" xmlns="http://www.w3.org/2000/svg"><title>sync</title><desc>Created with Sketch.</desc><defs><linearGradient x1="42.966%" y1="14.059%" x2="85.153%" y2="110.153%" id="a"><stop stop-color="#2CA5C3" offset="0%"/><stop stop-color="#136B90" offset="100%"/></linearGradient><linearGradient x1="10.934%" y1="-27.347%" x2="73.434%" y2="79.684%" id="b"><stop stop-color="#51C8E5" offset="0%"/><stop stop-color="#2897C5" offset="100%"/></linearGradient></defs><g fill="none" fill-rule="evenodd"><path class="sync-path-in" d="M86 32L32 142h117.017L86 32z" stroke="#fff" stroke-width="3"/><path class="sync-path-out" d="M84.69 13.027L15.01 152h151L84.69 13.027z" stroke="#fff" stroke-width="3"/><g id="widget-bg" transform="translate(53)"><rect id="Rectangle-1-Copy" fill="url(#a)" y="5" width="64" height="64" rx="4"/><rect id="Rectangle-1" fill="url(#b)" width="64" height="64" rx="4"/></g><path d="M93.42 42.6c.072-.41-.027-.84-.255-1.166l-3.405-4.87c1.226-1.24 2.043-2.84 2.346-4.553.83-4.694-2.297-9.167-6.988-9.996-4.69-.83-9.162 2.303-9.99 7-.83 4.694 2.296 9.168 6.987 9.996 1.713.302 3.493.08 5.076-.647l3.41 4.86c.225.337.594.577 1.004.65.844.148 1.667-.428 1.816-1.273zm-4.4-11.134c-.528 2.98-3.38 4.98-6.36 4.453-2.978-.528-4.973-3.383-4.446-6.364.527-2.982 3.38-4.98 6.358-4.454 2.978.526 4.974 3.38 4.447 6.363z" fill="#fff"/><g transform="translate(111 103)"><rect fill="url(#a)" y="5" width="64" height="64" rx="4"/><rect fill="url(#b)" width="64" height="64" rx="4"/></g><path d="M123.387 121.83c0-.83.677-1.5 1.495-1.5h37.01c.826 0 1.495.665 1.495 1.5 0 .827-.677 1.5-1.495 1.5h-37.01c-.826 0-1.495-.667-1.495-1.5zm0 13c0-.83.677-1.5 1.495-1.5h37.01c.826 0 1.495.665 1.495 1.5 0 .827-.677 1.5-1.495 1.5h-37.01c-.826 0-1.495-.667-1.495-1.5zm0 13c0-.83.677-1.5 1.495-1.5h37.01c.826 0 1.495.665 1.495 1.5 0 .827-.677 1.5-1.495 1.5h-37.01c-.826 0-1.495-.667-1.495-1.5z" fill="#fff"/><g transform="translate(0 103)"><rect fill="url(#a)" y="5" width="64" height="64" rx="4"/><rect fill="url(#b)" width="64" height="64" rx="4"/></g><path d="M29.358 142.705c.03.03.063.062.097.092.644.56 1.61.485 2.168-.158l13.57-15.61c.56-.646.492-1.614-.147-2.17-.643-.56-1.61-.485-2.168.16l-12.493 14.37-6.232-7.17c-.555-.638-1.517-.71-2.16-.15-.64.556-.71 1.523-.155 2.16l7.046 8.106c.137.158.3.28.474.368z" fill="#fff"/></g></svg>