<svg width="50" height="16" viewBox="0 0 50 16" xmlns="http://www.w3.org/2000/svg" xmlns:xlink="http://www.w3.org/1999/xlink"><title>algolia-logo</title><desc>Created with Sketch.</desc><defs><path d="M30.046 6.24l-.658 2.366 2.118-1.178c-.308-.572-.832-1.005-1.46-1.187zM24.85 8.656c0 2.533 2.023 4.586 4.52 4.586 2.496 0 4.52-2.052 4.52-4.585s-2.024-4.587-4.52-4.587c-2.497 0-4.52 2.054-4.52 4.587zm4.52-3.277c1.78 0 3.228 1.47 3.228 3.277 0 1.806-1.45 3.276-3.23 3.276-1.778 0-3.227-1.47-3.227-3.275 0-1.807 1.45-3.277 3.23-3.277zM30.93 3.5c0-.017.004-.034.004-.053v-.413c0-.457-.363-.827-.81-.827h-1.42c-.45 0-.812.37-.812.827v.406c.452-.13.928-.2 1.42-.2.564 0 1.107.092 1.617.26zm-4.957.81c-.317-.323-.83-.323-1.148 0l-.143.146c-.317.323-.317.847 0 1.17l.153.155c.325-.53.74-1 1.22-1.386l-.082-.084z" id="a"/></defs><g fill="none" fill-rule="evenodd"><g><g><g transform="translate(-432 -160) translate(432 160)"><use fill="#00B7E5" xlink:href="#a"/><use xlink:href="#a"/></g><path d="M8.826 12.138c-.185-.478-.36-.948-.522-1.41-.163-.46-.332-.93-.506-1.41H2.676l-1.028 2.82H0c.435-1.168.843-2.248 1.224-3.24.38-.993.752-1.935 1.117-2.827.365-.89.727-1.742 1.086-2.554.36-.812.734-1.616 1.126-2.413h1.452c.39.797.767 1.6 1.125 2.413.358.812.72 1.663 1.085 2.555.364.893.736 1.835 1.117 2.828.38.992.788 2.072 1.224 3.24h-1.73zM7.342 8.046c-.35-.924-.694-1.818-1.036-2.683-.343-.865-.7-1.696-1.07-2.492-.38.797-.74 1.628-1.084 2.493-.342.865-.683 1.76-1.02 2.683h4.21z" fill="#fff"/><path d="M14.233 12.69c-.93-.022-1.592-.22-1.982-.598-.39-.376-.583-.963-.583-1.76V.26L13.177 0v10.09c0 .248.022.453.065.614.044.16.114.29.21.388.1.096.23.17.392.217.162.048.362.088.6.12l-.21 1.26" fill="#fff"/><path d="M21.834 12.123c-.13.086-.38.195-.75.33-.37.134-.803.2-1.298.2-.505 0-.98-.08-1.426-.24-.446-.162-.836-.41-1.17-.75-.332-.337-.595-.758-.79-1.262-.192-.504-.29-1.104-.29-1.802 0-.61.092-1.172.275-1.682.183-.51.45-.95.798-1.32.35-.37.776-.66 1.282-.868.505-.21 1.074-.314 1.708-.314.7 0 1.31.05 1.83.153.52.102.96.196 1.314.28v7.47c0 1.286-.333 2.22-1 2.8-.666.578-1.676.868-3.03.868-.527 0-1.024-.043-1.49-.13-.47-.085-.875-.186-1.218-.304l.273-1.303c.3.118.67.223 1.104.314.435.092.89.138 1.362.138.89 0 1.533-.177 1.925-.532.393-.353.59-.917.59-1.69v-.353zm-.62-6.333c-.254-.037-.595-.057-1.024-.057-.806 0-1.427.264-1.862.79-.436.525-.653 1.222-.653 2.09 0 .484.06.897.185 1.24.124.344.29.628.5.853.21.226.45.392.725.5.274.107.557.16.847.16.397 0 .763-.056 1.096-.17.333-.112.596-.243.79-.393V5.91c-.15-.042-.352-.082-.605-.12z" fill="#fff"/><path d="M37.567 12.69c-.932-.022-1.592-.22-1.982-.598-.39-.376-.585-.963-.585-1.76V.26L36.51 0v10.09c0 .248.022.452.066.614.043.16.113.29.21.387.098.098.228.17.39.22.163.048.363.088.602.12l-.21 1.26" fill="#fff"/><path d="M40.555 2.564c-.308 0-.57-.09-.786-.272-.218-.182-.326-.426-.326-.734s.108-.553.325-.734c.214-.182.477-.272.785-.272.31 0 .57.09.788.272.215.18.324.426.324.734s-.11.552-.324.734c-.217.18-.48.272-.788.272zm-.85 1.55h1.72v8.576h-1.72V4.114z" fill="#fff"/><path d="M46.708 3.862c.614 0 1.133.084 1.555.25.423.167.763.402 1.02.707.26.304.443.666.552 1.085.11.42.165.882.165 1.388v5.604l-.55.094c-.237.042-.503.08-.8.113-.296.035-.617.066-.963.095-.346.03-.69.043-1.03.043-.482 0-.926-.05-1.332-.154-.406-.103-.757-.267-1.053-.49-.297-.225-.527-.52-.692-.89-.164-.367-.247-.81-.247-1.327 0-.495.096-.92.29-1.277.19-.356.45-.643.78-.862.33-.217.714-.378 1.153-.48.438-.105.9-.157 1.382-.157.154 0 .313.01.478.026.164.016.32.04.47.068l.386.078c.11.023.186.04.23.052v-.45c0-.263-.027-.524-.082-.783-.055-.26-.154-.49-.297-.69-.142-.2-.337-.362-.584-.483-.248-.12-.57-.18-.964-.18-.505 0-.946.037-1.325.112-.377.074-.66.152-.847.232l-.18-1.327c.197-.093.526-.182.987-.27.46-.085.96-.128 1.498-.128zm.132 8.035c.362 0 .683-.01.963-.026.28-.017.513-.048.7-.094V9.103c-.11-.057-.29-.106-.536-.146-.247-.04-.546-.06-.897-.06-.23 0-.475.017-.732.05-.258.036-.494.108-.708.217-.214.11-.393.258-.535.448-.143.19-.214.44-.214.75 0 .575.176.974.527 1.198.352.225.83.337 1.433.337z" fill="#fff"/></g></g></g></svg>