<svg width="64px" height="69px" viewBox="0 0 64 69" version="1.1" xmlns="http://www.w3.org/2000/svg" xmlns:xlink="http://www.w3.org/1999/xlink" xmlns:sketch="http://www.bohemiancoding.com/sketch/ns"><title>icon-widget-toggle</title><desc>Created with Sketch.</desc><defs><linearGradient x1="42.9656982%" y1="14.0594482%" x2="85.1531982%" y2="110.153198%" id="linearGradient-1"><stop stop-color="#2CA5C3" offset="0%"/><stop stop-color="#136B90" offset="100%"/></linearGradient><linearGradient x1="10.9344482%" y1="-27.3468018%" x2="73.4344482%" y2="79.6844482%" id="linearGradient-2"><stop stop-color="#51C8E5" offset="0%"/><stop stop-color="#2897C5" offset="100%"/></linearGradient></defs><g id="Page-1" stroke="none" stroke-width="1" fill="none" fill-rule="evenodd" sketch:type="MSPage"><g id="instansearch-website" sketch:type="MSArtboardGroup" transform="translate(-408.000000, -339.000000)"><g id="icon-widget-toggle" sketch:type="MSLayerGroup" transform="translate(407.387237, 338.664529)"><g id="widget-bg" transform="translate(0.612763, 0.335471)" sketch:type="MSShapeGroup"><rect id="Rectangle-1-Copy" fill="url(#linearGradient-1)" x="0" y="5" width="64" height="64" rx="4"/><rect id="Rectangle-1" fill="url(#linearGradient-2)" x="0" y="0" width="64" height="64" rx="4"/></g><g id="Shape-+-Shape-Copy" transform="translate(17.000000, 24.000000)" fill="#FFFFFF" sketch:type="MSShapeGroup"><path d="M1.72222222,8.5 L1.72222222,8.5 C1.72222222,12.2065245 4.61529575,15.2105263 8.18543513,15.2105263 L22.8145649,15.2105263 C26.3857032,15.2105263 29.2777778,12.2067497 29.2777778,8.5 C29.2777778,4.79347554 26.3847042,1.78947368 22.8145649,1.78947368 L8.18543513,1.78947368 C4.61429679,1.78947368 1.72222222,4.79325026 1.72222222,8.5 L1.72222222,8.5 Z M0,8.5 C0,3.80557963 3.66253457,0 8.18543513,0 L22.8145649,0 C27.3352559,0 31,3.80454745 31,8.5 C31,13.1944204 27.3374654,17 22.8145649,17 L8.18543513,17 C3.66474414,17 0,13.1954525 0,8.5 L0,8.5 Z" id="Shape"/><path d="M8.5,13 L8.5,13 C6.01471863,13 4,10.9852814 4,8.5 C4,6.01471863 6.01471863,4 8.5,4 C10.9852814,4 13,6.01471863 13,8.5 C13,10.9852814 10.9852814,13 8.5,13 L8.5,13 Z" id="Shape-Copy"/></g></g></g></g></svg>