<svg width="64px" height="69px" viewBox="0 0 64 69" version="1.1" xmlns="http://www.w3.org/2000/svg" xmlns:xlink="http://www.w3.org/1999/xlink" xmlns:sketch="http://www.bohemiancoding.com/sketch/ns"><title>icon-widget-filter</title><desc>Created with Sketch.</desc><defs><linearGradient x1="42.9656982%" y1="14.0594482%" x2="85.1531982%" y2="110.153198%" id="linearGradient-1"><stop stop-color="#2CA5C3" offset="0%"/><stop stop-color="#136B90" offset="100%"/></linearGradient><linearGradient x1="10.9344482%" y1="-27.3468018%" x2="73.4344482%" y2="79.6844482%" id="linearGradient-2"><stop stop-color="#51C8E5" offset="0%"/><stop stop-color="#2897C5" offset="100%"/></linearGradient></defs><g id="Page-1" stroke="none" stroke-width="1" fill="none" fill-rule="evenodd" sketch:type="MSPage"><g id="instansearch-website" sketch:type="MSArtboardGroup" transform="translate(-177.000000, -339.000000)"><g id="icon-widget-filter" sketch:type="MSLayerGroup" transform="translate(176.387237, 338.664529)"><g id="widget-bg" transform="translate(0.612763, 0.335471)" sketch:type="MSShapeGroup"><rect id="Rectangle-1-Copy" fill="url(#linearGradient-1)" x="0" y="5" width="64" height="64" rx="4"/><rect id="Rectangle-1" fill="url(#linearGradient-2)" x="0" y="0" width="64" height="64" rx="4"/></g><path d="M29.9712576,39.3755969 C30.0019937,39.4073468 30.0343516,39.438042 30.0683224,39.4675723 C30.7118298,40.0269648 31.6780427,39.9527563 32.2363705,39.3104736 L45.8052699,23.7012404 C46.366424,23.0557064 46.2981578,22.0879471 45.6591058,21.5324277 C45.0155984,20.9730352 44.0493855,21.0472437 43.4910576,21.6895264 L30.9982116,36.0609019 L24.7655866,28.8910869 C24.2114311,28.253604 23.2486006,28.1832865 22.6050932,28.7426789 C21.9660412,29.2981984 21.8969125,30.2649656 22.4513744,30.9028009 L29.4973128,39.0082259 C29.6340561,39.1655311 29.7956839,39.2883014 29.9712576,39.3755969 Z" id="Rectangle-10-Copy" fill="#FFFFFF" sketch:type="MSShapeGroup"/></g></g></g></svg>