<svg width="64" height="64" viewBox="0 0 64 64" xmlns="http://www.w3.org/2000/svg"><title>icon-widget-pagination</title><desc>Created with Sketch.</desc><g fill="none" fill-rule="evenodd"><g><g><g transform="translate(-100 -197) translate(100 197)"><rect stroke="#2897C5" stroke-width="2" fill="#2897C5" width="64" height="64" rx="8"/><circle fill="#147CA7" cx="8" cy="8" r="4"/><circle fill="#147CA7" cx="55" cy="8" r="4"/><circle fill="#147CA7" cx="55" cy="56" r="4"/><circle fill="#147CA7" cx="8" cy="56" r="4"/></g><g transform="translate(14 27)" fill="#fff"><circle cx="5" cy="5" r="5"/><path d="M19 7.222c1.227 0 2.222-.995 2.222-2.222 0-1.227-.995-2.222-2.222-2.222-1.227 0-2.222.995-2.222 2.222 0 1.227.995 2.222 2.222 2.222zM19 9c-2.21 0-4-1.79-4-4s1.79-4 4-4 4 1.79 4 4-1.79 4-4 4zM32 7.222c1.227 0 2.222-.995 2.222-2.222 0-1.227-.995-2.222-2.222-2.222-1.227 0-2.222.995-2.222 2.222 0 1.227.995 2.222 2.222 2.222zM32 9c-2.21 0-4-1.79-4-4s1.79-4 4-4 4 1.79 4 4-1.79 4-4 4z"/></g></g></g></g></svg>