<svg width="33" height="32" viewBox="0 0 33 32" xmlns="http://www.w3.org/2000/svg"><title>icon-theme</title><desc>Created with Sketch.</desc><g fill="none" fill-rule="evenodd"><g><g><path d="M-16-16h64v64h-64z"/><path d="M13.62 29.928C8.58 31.848 2.927 29.353.99 24.353s.58-10.602 5.624-12.52c5.043-1.92 10.695.574 12.63 5.574.708 1.825.847 3.836.38 5.74l-1.447 3.22c-1.114 1.617-2.715 2.86-4.556 3.56zm-.67-1.886c3.95-1.516 5.93-5.963 4.413-9.91-1.516-3.95-5.963-5.93-9.91-4.414-3.95 1.516-5.93 5.963-4.414 9.91 1.515 3.95 5.962 5.93 9.91 4.414zM19.77 19.834c-5.166 1.966-10.956-.59-12.94-5.71C4.85 9 7.426 3.263 12.593 1.296c5.166-1.966 10.955.59 12.94 5.71.723 1.87.865 3.93.386 5.88l-1.48 3.298c-1.142 1.658-2.782 2.93-4.668 3.65zm-.688-1.932c4.045-1.553 6.073-6.108 4.52-10.153-1.552-4.046-6.107-6.074-10.152-4.52C9.405 4.78 7.377 9.336 8.93 13.38c1.552 4.045 6.107 6.073 10.152 4.52zM25.84 30.457c-5.166 1.966-10.956-.59-12.94-5.71-1.982-5.122.596-10.86 5.762-12.827 5.166-1.966 10.956.59 12.94 5.71.723 1.87.866 3.93.386 5.88l-1.48 3.298c-1.142 1.658-2.782 2.93-4.668 3.65zm-.687-1.932c4.045-1.553 6.073-6.108 4.52-10.153-1.553-4.044-6.108-6.072-10.153-4.52-4.044 1.553-6.073 6.108-4.52 10.153 1.553 4.045 6.108 6.073 10.153 4.52z" fill="#fff"/></g></g></g></svg>