<svg width="64" height="64" viewBox="0 0 64 64" xmlns="http://www.w3.org/2000/svg"><title>icon-widget-index</title><desc>Created with Sketch.</desc><g fill="none" fill-rule="evenodd"><g><g><g transform="translate(-20 -197) translate(20 197)"><rect stroke="#2897C5" stroke-width="2" fill="#2897C5" width="64" height="64" rx="8"/><circle fill="#147CA7" cx="8" cy="8" r="4"/><circle fill="#147CA7" cx="55" cy="8" r="4"/><circle fill="#147CA7" cx="55" cy="56" r="4"/><circle fill="#147CA7" cx="8" cy="56" r="4"/></g><path d="M24.443 28.585l6.314 7.717c.69.845 1.798.838 2.484 0l6.314-7.717c.692-.845.37-1.518-.708-1.518H25.15c-1.076 0-1.393.68-.707 1.518zM22.1 29.623c-1.884-2.302-.56-5.142 2.424-5.142h14.95c2.98 0 4.314 2.833 2.424 5.143l-6.892 8.424c-1.604 1.96-4.407 1.965-6.014 0L22.1 29.623z" fill="#fff"/></g></g></g></svg>