<?xml version="1.0" encoding="UTF-8" standalone="no"?>
<svg width="33px" height="31px" viewBox="0 0 33 31" version="1.1" xmlns="http://www.w3.org/2000/svg" xmlns:xlink="http://www.w3.org/1999/xlink" xmlns:sketch="http://www.bohemiancoding.com/sketch/ns">
    <!-- Generator: Sketch 3.4 (15575) - http://www.bohemiancoding.com/sketch -->
    <title>icon-theme</title>
    <desc>Created with Sketch.</desc>
    <defs></defs>
    <g id="Page-1" stroke="none" stroke-width="1" fill="none" fill-rule="evenodd" sketch:type="MSPage">
        <g id="instansearch-website" sketch:type="MSArtboardGroup" transform="translate(-344.000000, -277.000000)">
            <g id="icon-theme" sketch:type="MSLayerGroup" transform="translate(328.387237, 260.664529)">
                <rect id="Rectangle-1" sketch:type="MSShapeGroup" x="0" y="0" width="64" height="64"></rect>
                <path d="M29.6212695,45.9278154 C24.5778825,47.8469172 18.9262141,45.3525632 16.9902392,40.3531322 C15.0542642,35.3537012 17.5705492,29.7512903 22.6139362,27.8321886 C27.6573233,25.9130868 33.3089917,28.4074408 35.2449666,33.4068718 C35.9516721,35.2318569 36.0909288,37.2432752 35.6230488,39.1465674 L34.1771835,42.3657305 C33.0633987,43.9839537 31.4623003,45.2272693 29.6212695,45.9278154 Z M28.9501391,44.0418336 C32.8987382,42.5261084 34.8785263,38.0794316 33.3628011,34.1308324 C31.8470759,30.1822333 27.400399,28.2024452 23.4517999,29.7181704 C19.5032008,31.2338956 17.5234127,35.6805725 19.0391379,39.6291716 C20.5548631,43.5777707 25.0015399,45.5575588 28.9501391,44.0418336 L28.9501391,44.0418336 Z" id="Icons/Search-Copy-2" fill="#FFFFFF" sketch:type="MSShapeGroup"></path>
                <path d="M35.7698587,35.8338784 C30.6035101,37.7997692 24.8140498,35.244601 22.8308743,30.1232802 C20.8476989,25.0019593 23.4253327,19.2629575 28.5916813,17.2970667 C33.7580299,15.3311758 39.5474902,17.886344 41.5306656,23.0076648 C42.2546011,24.8771444 42.397253,26.9376026 41.9179658,28.8872985 L40.4368492,32.1849471 C39.2959094,33.8426238 37.6557751,35.1162524 35.7698587,35.8338784 Z M35.0823655,33.9019149 C39.1272345,32.3492352 41.1552913,27.794145 39.6026116,23.7492761 C38.0499319,19.7044072 33.4948417,17.6763504 29.4499727,19.2290301 C25.4051038,20.7817098 23.377047,25.3368 24.9297267,29.3816689 C26.4824064,33.4265378 31.0374966,35.4545946 35.0823655,33.9019149 L35.0823655,33.9019149 Z" id="Icons/Search-Copy-2" fill="#FFFFFF" sketch:type="MSShapeGroup"></path>
                <path d="M41.8402631,46.4570861 C36.6739145,48.422977 30.8844542,45.8678087 28.9012788,40.7464879 C26.9181033,35.6251671 29.4957371,29.8861653 34.6620857,27.9202744 C39.8284343,25.9543835 45.6178946,28.5095517 47.60107,33.6308726 C48.3250055,35.5003521 48.4676574,37.5608103 47.9883702,39.5105062 L46.5072536,42.8081548 C45.3663139,44.4658315 43.7261795,45.7394601 41.8402631,46.4570861 Z M41.1527699,44.5251227 C45.1976389,42.9724429 47.2256957,38.4173528 45.673016,34.3724838 C44.1203363,30.3276149 39.5652461,28.2995581 35.5203772,29.8522378 C31.4755082,31.4049175 29.4474514,35.9600077 31.0001311,40.0048766 C32.5528108,44.0497455 37.107901,46.0778024 41.1527699,44.5251227 L41.1527699,44.5251227 Z" id="Icons/Search-Copy-2" fill="#FFFFFF" sketch:type="MSShapeGroup"></path>
            </g>
        </g>
    </g>
</svg>