<svg width="64" height="64" viewBox="0 0 64 64" xmlns="http://www.w3.org/2000/svg"><title>icon-widget-toggle</title><desc>Created with Sketch.</desc><g fill="none" fill-rule="evenodd"><g><g><g transform="translate(-331 -122) translate(331 122)"><rect stroke="#2897C5" stroke-width="2" fill="#2897C5" width="64" height="64" rx="8"/><circle fill="#147CA7" cx="8" cy="8" r="4"/><circle fill="#147CA7" cx="55" cy="8" r="4"/><circle fill="#147CA7" cx="55" cy="56" r="4"/><circle fill="#147CA7" cx="8" cy="56" r="4"/></g><path d="M16.778 32.5c0 3.707 2.986 6.71 6.67 6.71h15.103c3.687 0 6.672-3.003 6.672-6.71s-2.986-6.71-6.67-6.71H23.448c-3.687 0-6.672 3.003-6.672 6.71zM15 32.5c0-4.694 3.78-8.5 8.45-8.5h15.1c4.667 0 8.45 3.805 8.45 8.5 0 4.694-3.78 8.5-8.45 8.5h-15.1C18.782 41 15 37.195 15 32.5z" fill="#fff"/><path d="M23.5 37c-2.485 0-4.5-2.015-4.5-4.5s2.015-4.5 4.5-4.5 4.5 2.015 4.5 4.5-2.015 4.5-4.5 4.5z" fill="#fff"/></g></g></g></svg>