<svg width="64px" height="69px" viewBox="0 0 64 69" version="1.1" xmlns="http://www.w3.org/2000/svg" xmlns:xlink="http://www.w3.org/1999/xlink" xmlns:sketch="http://www.bohemiancoding.com/sketch/ns"><title>icon-widget-stats</title><desc>Created with Sketch.</desc><defs><linearGradient x1="42.9656982%" y1="14.0594482%" x2="85.1531982%" y2="110.153198%" id="linearGradient-1"><stop stop-color="#2CA5C3" offset="0%"/><stop stop-color="#136B90" offset="100%"/></linearGradient><linearGradient x1="10.9344482%" y1="-27.3468018%" x2="73.4344482%" y2="79.6844482%" id="linearGradient-2"><stop stop-color="#51C8E5" offset="0%"/><stop stop-color="#2897C5" offset="100%"/></linearGradient></defs><g id="Page-1" stroke="none" stroke-width="1" fill="none" fill-rule="evenodd" sketch:type="MSPage"><g id="instansearch-website" sketch:type="MSArtboardGroup" transform="translate(-254.000000, -414.000000)"><g id="icon-widget-stats" sketch:type="MSLayerGroup" transform="translate(253.387237, 413.664529)"><g id="widget-bg" transform="translate(0.612763, 0.335471)" sketch:type="MSShapeGroup"><rect id="Rectangle-1-Copy" fill="url(#linearGradient-1)" x="0" y="5" width="64" height="64" rx="4"/><rect id="Rectangle-1" fill="url(#linearGradient-2)" x="0" y="0" width="64" height="64" rx="4"/></g><path d="M35.173125,21.71321 C35.7431279,21.71321 36.1824985,21.8736806 36.49125,22.1946267 C36.8000015,22.5155728 36.954375,22.9256645 36.954375,23.4249139 C36.954375,24.0192586 36.7228148,24.542274 36.2596875,24.9939759 C35.7965602,25.4456778 35.2325033,25.6715254 34.5675,25.6715254 C33.9974972,25.6715254 33.5581265,25.5169981 33.249375,25.2079389 C32.9406235,24.8988797 32.7981249,24.470958 32.821875,23.9241609 C32.821875,23.3773639 33.0296854,22.8721785 33.4453125,22.4085897 C33.8609396,21.9450009 34.4368713,21.71321 35.173125,21.71321 Z M31.50375,39.5434596 C30.3162441,39.5434596 29.9956223,38.485542 30.541875,36.3696751 L31.610625,31.8407917 C31.7768758,31.1751258 31.7768758,30.8422978 31.610625,30.8422978 C31.4681243,30.8422978 31.1475025,30.9492782 30.64875,31.1632423 C30.1499975,31.3772063 29.7225018,31.6030539 29.36625,31.8407917 L28.903125,31.0562608 C29.9718803,30.1290831 31.0940566,29.3802202 32.2696875,28.8096493 C33.4453184,28.2390785 34.3418719,27.9537973 34.959375,27.9537973 C35.8856296,27.9537973 36.0993775,28.9166212 35.600625,30.8422978 L34.35375,35.5851441 C34.163749,36.3459053 34.1993737,36.7262801 34.460625,36.7262801 C34.9831276,36.7262801 35.6837456,36.3696787 36.5625,35.6564651 L37.096875,36.3696751 C36.09937,37.3919479 35.0603179,38.176471 33.9796875,38.7232681 C32.8990571,39.2700651 32.0737528,39.5434596 31.50375,39.5434596 Z" id="Icons/Info" fill="#FFFFFF" sketch:type="MSShapeGroup"/></g></g></g></svg>