<svg width="64" height="64" viewBox="0 0 64 64" xmlns="http://www.w3.org/2000/svg"><title>icon-widget-stats</title><desc>Created with Sketch.</desc><g fill="none" fill-rule="evenodd"><g><g><g transform="translate(-177 -197) translate(177 197)"><rect stroke="#2897C5" stroke-width="2" fill="#2897C5" width="64" height="64" rx="8"/><circle fill="#147CA7" cx="8" cy="8" r="4"/><circle fill="#147CA7" cx="55" cy="8" r="4"/><circle fill="#147CA7" cx="55" cy="56" r="4"/><circle fill="#147CA7" cx="8" cy="56" r="4"/></g><path d="M34.173 21.713c.57 0 1.01.16 1.318.482.31.32.464.73.464 1.23 0 .594-.23 1.117-.694 1.57-.463.45-1.027.677-1.692.677-.57 0-1.01-.155-1.32-.464-.307-.31-.45-.737-.426-1.284 0-.547.208-1.052.623-1.515.416-.465.992-.697 1.728-.697zm-3.67 17.83c-1.187 0-1.507-1.057-.96-3.173l1.068-4.53c.167-.665.167-.998 0-.998-.142 0-.462.107-.96.32-.5.215-.927.44-1.284.68l-.463-.786c1.07-.927 2.19-1.676 3.367-2.246 1.175-.57 2.072-.856 2.69-.856.926 0 1.14.963.64 2.888l-1.246 4.743c-.19.76-.155 1.14.107 1.14.523 0 1.224-.355 2.102-1.07l.535.715c-.998 1.022-2.037 1.806-3.117 2.353-1.08.547-1.906.82-2.476.82z" fill="#fff"/></g></g></g></svg>