<svg width="64" height="69" viewBox="0 0 64 69" xmlns="http://www.w3.org/2000/svg"><title>icon-widget-custom</title><desc>Created with Sketch.</desc><defs><linearGradient x1="42.966%" y1="14.059%" x2="85.153%" y2="110.153%" id="a"><stop stop-color="#623E90" offset="0%"/><stop stop-color="#54327F" offset="100%"/></linearGradient><linearGradient x1="10.934%" y1="-27.347%" x2="73.434%" y2="79.684%" id="b"><stop stop-color="#905BD4" offset="0%"/><stop stop-color="#674790" offset="100%"/></linearGradient></defs><g transform="translate(-411 -414) translate(410.387 413.665)" fill="none" fill-rule="evenodd"><g transform="translate(.613 .335)"><rect fill="url(#a)" y="5" width="64" height="64" rx="4"/><rect fill="url(#b)" width="64" height="64" rx="4"/></g><path d="M56.708 32.726c.125.525-.04 1.097-.475 1.475L44.096 44.754c-.617.536-1.57.475-2.113-.15-.548-.63-.48-1.572.145-2.114l11.23-9.763-11.23-9.762c-.624-.542-.693-1.484-.145-2.114.543-.624 1.496-.686 2.113-.15l12.137 10.55c.435.38.6.95.475 1.477zM7.57 33.726c-.125.525.04 1.097.475 1.475l12.137 10.55c.617.54 1.57.478 2.113-.15.548-.627.48-1.57-.145-2.112l-11.23-9.76 11.23-9.763c.624-.543.693-1.485.145-2.114-.543-.624-1.496-.686-2.113-.15L8.045 32.25c-.435.378-.6.95-.475 1.476z" fill="#fff"/><rect fill="#fff" transform="rotate(-72 32.139 32.726)" x="15.789" y="31.226" width="32.7" height="3" rx="2"/></g></svg>