<svg width="64px" height="69px" viewBox="0 0 64 69" version="1.1" xmlns="http://www.w3.org/2000/svg" xmlns:xlink="http://www.w3.org/1999/xlink" xmlns:sketch="http://www.bohemiancoding.com/sketch/ns"><title>icon-widget-refinement</title><desc>Created with Sketch.</desc><defs><linearGradient x1="42.9656982%" y1="14.0594482%" x2="85.1531982%" y2="110.153198%" id="linearGradient-1"><stop stop-color="#2CA5C3" offset="0%"/><stop stop-color="#136B90" offset="100%"/></linearGradient><linearGradient x1="10.9344482%" y1="-27.3468018%" x2="73.4344482%" y2="79.6844482%" id="linearGradient-2"><stop stop-color="#51C8E5" offset="0%"/><stop stop-color="#2897C5" offset="100%"/></linearGradient></defs><g id="Page-1" stroke="none" stroke-width="1" fill="none" fill-rule="evenodd" sketch:type="MSPage"><g id="instansearch-website" sketch:type="MSArtboardGroup" transform="translate(-485.000000, -339.000000)"><g id="icon-widget-refinement" sketch:type="MSLayerGroup" transform="translate(484.387237, 338.664529)"><g id="widget-bg" transform="translate(0.612763, 0.335471)" sketch:type="MSShapeGroup"><rect id="Rectangle-1-Copy" fill="url(#linearGradient-1)" x="0" y="5" width="64" height="64" rx="4"/><rect id="Rectangle-1" fill="url(#linearGradient-2)" x="0" y="0" width="64" height="64" rx="4"/></g><g id="Oval-25-+-Oval-25-Copy" transform="translate(12.000000, 19.000000)" fill="#FFFFFF" sketch:type="MSShapeGroup"><path d="M13,23.4 L13,23.4 C18.7437614,23.4 23.4,18.7437614 23.4,13 C23.4,7.2562386 18.7437614,2.6 13,2.6 C7.2562386,2.6 2.6,7.2562386 2.6,13 C2.6,18.7437614 7.2562386,23.4 13,23.4 L13,23.4 Z M13,26 L13,26 C5.82029825,26 0,20.1797017 0,13 C0,5.82029825 5.82029825,0 13,0 C20.1797017,0 26,5.82029825 26,13 C26,20.1797017 20.1797017,26 13,26 L13,26 Z" id="Shape"/><path d="M29,23.4 L29,23.4 C34.7437614,23.4 39.4,18.7437614 39.4,13 C39.4,7.2562386 34.7437614,2.6 29,2.6 C23.2562386,2.6 18.6,7.2562386 18.6,13 C18.6,18.7437614 23.2562386,23.4 29,23.4 L29,23.4 Z M29,26 L29,26 C21.8202983,26 16,20.1797017 16,13 C16,5.82029825 21.8202983,0 29,0 C36.1797017,0 42,5.82029825 42,13 C42,20.1797017 36.1797017,26 29,26 L29,26 Z" id="Shape"/></g></g></g></g></svg>