<svg width="64" height="69" viewBox="0 0 64 69" xmlns="http://www.w3.org/2000/svg"><title>icon-widget-refinement</title><desc>Created with Sketch.</desc><defs><linearGradient x1="42.966%" y1="14.059%" x2="85.153%" y2="110.153%" id="a"><stop stop-color="#2CA5C3" offset="0%"/><stop stop-color="#136B90" offset="100%"/></linearGradient><linearGradient x1="10.934%" y1="-27.347%" x2="73.434%" y2="79.684%" id="b"><stop stop-color="#51C8E5" offset="0%"/><stop stop-color="#2897C5" offset="100%"/></linearGradient></defs><g fill="none" fill-rule="evenodd"><g><rect fill="url(#a)" y="5" width="64" height="64" rx="4"/><rect fill="url(#b)" width="64" height="64" rx="4"/></g><path d="M24.387 42.065c5.744 0 10.4-4.656 10.4-10.4 0-5.744-4.656-10.4-10.4-10.4-5.744 0-10.4 4.656-10.4 10.4 0 5.744 4.656 10.4 10.4 10.4zm0 2.6c-7.18 0-13-5.82-13-13s5.82-13 13-13 13 5.82 13 13-5.82 13-13 13zm16-2.6c5.744 0 10.4-4.656 10.4-10.4 0-5.744-4.656-10.4-10.4-10.4-5.744 0-10.4 4.656-10.4 10.4 0 5.744 4.656 10.4 10.4 10.4zm0 2.6c-7.18 0-13-5.82-13-13s5.82-13 13-13 13 5.82 13 13-5.82 13-13 13z" fill="#fff"/></g></svg>