<svg width="64" height="64" viewBox="0 0 64 64" xmlns="http://www.w3.org/2000/svg"><title>icon-widget-results</title><desc>Created with Sketch.</desc><g fill="none" fill-rule="evenodd"><g><g><g transform="translate(-254 -122) translate(254 122)"><rect stroke="#2897C5" stroke-width="2" fill="#2897C5" width="64" height="64" rx="8"/><circle fill="#147CA7" cx="8" cy="8" r="4"/><circle fill="#147CA7" cx="55" cy="8" r="4"/><circle fill="#147CA7" cx="55" cy="56" r="4"/><circle fill="#147CA7" cx="8" cy="56" r="4"/></g><path d="M37.937 27.026h-11.79v7.166c0 .346-.14.66-.367.888-.23.226-.548.367-.903.367H13.102c-.7 0-1.27-.56-1.27-1.263 0-.697.56-1.263 1.27-1.263h10.52v-7.164c0-.694.56-1.256 1.263-1.256H39.2c.698 0 1.264.57 1.264 1.255v12.22h10.984c.695 0 1.26.56 1.26 1.262 0 .697-.562 1.263-1.26 1.263h-12.25c-.348 0-.662-.14-.892-.372-.228-.228-.37-.54-.37-.883v-12.22z" fill="#fff"/></g></g></g></svg>