<svg width="64" height="69" viewBox="0 0 64 69" xmlns="http://www.w3.org/2000/svg"><title>icon-widget-pagination</title><desc>Created with Sketch.</desc><defs><linearGradient x1="42.966%" y1="14.059%" x2="85.153%" y2="110.153%" id="a"><stop stop-color="#2CA5C3" offset="0%"/><stop stop-color="#136B90" offset="100%"/></linearGradient><linearGradient x1="10.934%" y1="-27.347%" x2="73.434%" y2="79.684%" id="b"><stop stop-color="#51C8E5" offset="0%"/><stop stop-color="#2897C5" offset="100%"/></linearGradient></defs><g fill="none" fill-rule="evenodd"><g><rect fill="url(#a)" y="5" width="64" height="64" rx="4"/><rect fill="url(#b)" width="64" height="64" rx="4"/></g><g transform="translate(14.387 26.665)" fill="#fff"><circle cx="5" cy="5" r="5"/><path d="M19 7.222c1.227 0 2.222-.995 2.222-2.222 0-1.227-.995-2.222-2.222-2.222-1.227 0-2.222.995-2.222 2.222 0 1.227.995 2.222 2.222 2.222zM19 9c-2.21 0-4-1.79-4-4s1.79-4 4-4 4 1.79 4 4-1.79 4-4 4zm13-1.778c1.227 0 2.222-.995 2.222-2.222 0-1.227-.995-2.222-2.222-2.222-1.227 0-2.222.995-2.222 2.222 0 1.227.995 2.222 2.222 2.222zM32 9c-2.21 0-4-1.79-4-4s1.79-4 4-4 4 1.79 4 4-1.79 4-4 4z"/></g></g></svg>