<svg width="64px" height="69px" viewBox="0 0 64 69" version="1.1" xmlns="http://www.w3.org/2000/svg" xmlns:xlink="http://www.w3.org/1999/xlink" xmlns:sketch="http://www.bohemiancoding.com/sketch/ns"><title>icon-widget-results</title><desc>Created with Sketch.</desc><defs><linearGradient x1="42.9656982%" y1="14.0594482%" x2="85.1531982%" y2="110.153198%" id="linearGradient-1"><stop stop-color="#2CA5C3" offset="0%"/><stop stop-color="#136B90" offset="100%"/></linearGradient><linearGradient x1="10.9344482%" y1="-27.3468018%" x2="73.4344482%" y2="79.6844482%" id="linearGradient-2"><stop stop-color="#51C8E5" offset="0%"/><stop stop-color="#2897C5" offset="100%"/></linearGradient></defs><g id="Page-1" stroke="none" stroke-width="1" fill="none" fill-rule="evenodd" sketch:type="MSPage"><g id="instansearch-website" sketch:type="MSArtboardGroup" transform="translate(-331.000000, -339.000000)"><g id="icon-widget-results" sketch:type="MSLayerGroup" transform="translate(330.387237, 338.664529)"><g id="widget-bg" transform="translate(0.612763, 0.335471)" sketch:type="MSShapeGroup"><rect id="Rectangle-1-Copy" fill="url(#linearGradient-1)" x="0" y="5" width="64" height="64" rx="4"/><rect id="Rectangle-1" fill="url(#linearGradient-2)" x="0" y="0" width="64" height="64" rx="4"/></g><path d="M38.9373088,27.0263158 L27.1478351,27.0263158 L27.1478351,34.1915661 C27.1478351,34.5383463 27.0076673,34.8522969 26.7796886,35.0795524 C26.5495683,35.3060119 26.2319876,35.4473684 25.8774043,35.4473684 L14.1024765,35.4473684 C13.4008369,35.4473684 12.8320457,34.8866971 12.8320457,34.1842105 C12.8320457,33.4865877 13.3932416,32.9210526 14.1024765,32.9210526 L24.6215194,32.9210526 L24.6215194,25.7558024 C24.6215194,25.0622419 25.1821907,24.5 25.8846772,24.5 L40.2004667,24.5 C40.8980896,24.5 41.4636246,25.0694485 41.4636246,25.7554932 L41.4636246,37.9736842 L52.4479269,37.9736842 C53.143404,37.9736842 53.7071995,38.5343556 53.7071995,39.2368421 C53.7071995,39.9344649 53.1462379,40.5 52.4479269,40.5 L40.1965814,40.5 C39.8501076,40.5 39.5363151,40.3608499 39.3060112,40.128253 C39.0781699,39.9002408 38.9373088,39.5868945 38.9373088,39.2445068 L38.9373088,27.0263158 Z" id="Shape" fill="#FFFFFF" sketch:type="MSShapeGroup"/></g></g></g></svg>