<svg width="64" height="64" viewBox="0 0 64 64" xmlns="http://www.w3.org/2000/svg"><title>icon-widget-filter</title><desc>Created with Sketch.</desc><g fill="none" fill-rule="evenodd"><g><g><g transform="translate(-100 -122) translate(100 122)"><rect stroke="#2897C5" stroke-width="2" fill="#2897C5" width="64" height="64" rx="8"/><circle fill="#147CA7" cx="8" cy="8" r="4"/><circle fill="#147CA7" cx="55" cy="8" r="4"/><circle fill="#147CA7" cx="55" cy="56" r="4"/><circle fill="#147CA7" cx="8" cy="56" r="4"/></g><path d="M28.97 39.376c.032.03.064.062.098.092.644.56 1.61.485 2.168-.158l13.57-15.61c.56-.644.492-1.612-.147-2.168-.644-.56-1.61-.485-2.17.158L30 36.06l-6.232-7.17c-.555-.636-1.517-.707-2.16-.147-.64.555-.71 1.522-.155 2.16l7.047 8.105c.137.158.3.28.474.368z" fill="#fff"/></g></g></g></svg>