<svg width="64" height="64" viewBox="0 0 64 64" xmlns="http://www.w3.org/2000/svg"><title>icon-widget-searchbox</title><desc>Created with Sketch.</desc><g fill="none" fill-rule="evenodd"><g><g><g transform="translate(-20 -122) translate(20 122)"><rect stroke="#2897C5" stroke-width="2" fill="#2897C5" width="64" height="64" rx="8"/><circle fill="#147CA7" cx="8" cy="8" r="4"/><circle fill="#147CA7" cx="55" cy="8" r="4"/><circle fill="#147CA7" cx="55" cy="56" r="4"/><circle fill="#147CA7" cx="8" cy="56" r="4"/></g><path d="M40.532 42.27c.073-.41-.026-.838-.254-1.165l-3.405-4.87c1.226-1.24 2.043-2.84 2.346-4.553.83-4.696-2.298-9.17-6.99-9.998-4.69-.83-9.16 2.303-9.99 7-.83 4.694 2.297 9.168 6.988 9.996 1.713.303 3.493.082 5.076-.646l3.407 4.86c.227.337.596.577 1.006.65.844.148 1.667-.428 1.816-1.273zm-4.4-11.133c-.527 2.98-3.38 4.98-6.358 4.453-2.98-.526-4.974-3.38-4.447-6.362.527-2.982 3.38-4.98 6.358-4.454 2.978.526 4.974 3.38 4.447 6.363z" fill="#fff"/></g></g></g></svg>