<?xml version="1.0" encoding="UTF-8" standalone="no"?>
<svg width="39px" height="20px" viewBox="0 0 39 20" version="1.1" xmlns="http://www.w3.org/2000/svg" xmlns:xlink="http://www.w3.org/1999/xlink" xmlns:sketch="http://www.bohemiancoding.com/sketch/ns">
    <!-- Generator: Sketch 3.3.3 (12072) - http://www.bohemiancoding.com/sketch -->
    <title>icon-infinite</title>
    <desc>Created with Sketch.</desc>
    <defs></defs>
    <g id="Page-1" stroke="none" stroke-width="1" fill="none" fill-rule="evenodd" sketch:type="MSPage">
        <g id="Artboard-1" sketch:type="MSArtboardGroup" transform="translate(-109.000000, -66.000000)">
            <g id="icon-infinite" sketch:type="MSLayerGroup" transform="translate(97.000000, 44.000000)">
                <rect id="Rectangle-1" sketch:type="MSShapeGroup" x="0" y="0" width="64" height="64"></rect>
                <g id="Icons/Search-Copy-+-Icons/Search-Copy-2" transform="translate(12.000000, 21.000000)" fill="#FFFFFF" sketch:type="MSShapeGroup">
                    <path d="M19.4183326,5.72160815 C19.8448822,5.07439595 20.3500329,4.47238738 20.9244208,3.9299523 C25.061147,0.0233492342 31.7607292,0.0233492342 35.8974554,3.9299523 C40.0341815,7.83655536 40.0341815,14.1634446 35.8974554,18.0700477 C31.7607292,21.9766508 25.061147,21.9766508 20.9244208,18.0700477 C20.3273929,17.506232 19.8051678,16.878054 19.3682609,16.2016506 L19.1547082,16.6584137 C17.9588192,18.327577 16.2396938,19.6100309 14.2629491,20.3326296 C8.84778228,22.3121427 2.77949382,19.7392689 0.700806028,14.5824608 C-1.37788177,9.42565274 1.32389433,3.64688359 6.73906117,1.66737043 C11.5225843,-0.0812455004 16.8157505,1.7224517 19.4183326,5.72160815 Z M23.7728708,6.49797222 C21.1666188,8.980117 21.1666188,13.019883 23.7728708,15.5020278 C26.3791229,17.9841726 30.6208771,17.9841726 33.2271292,15.5020278 C35.8333812,13.019883 35.8333812,8.980117 33.2271292,6.49797222 C30.6208771,4.01582744 26.3791229,4.01582744 23.7728708,6.49797222 L23.7728708,6.49797222 Z M12.89449,16.9408187 C16.3336671,15.6835079 18.0580361,11.9949401 16.7378597,8.71953334 C15.4176833,5.44412658 11.5446871,3.80187039 8.10551001,5.05918125 C4.66633291,6.31649211 2.94196391,10.0050599 4.26214031,13.2804667 C5.58231671,16.5558734 9.45531289,18.1981296 12.89449,16.9408187 L12.89449,16.9408187 Z" id="Icons/Search-Copy"></path>
                </g>
            </g>
        </g>
    </g>
</svg>