<svg width="64px" height="69px" viewBox="0 0 64 69" version="1.1" xmlns="http://www.w3.org/2000/svg" xmlns:xlink="http://www.w3.org/1999/xlink" xmlns:sketch="http://www.bohemiancoding.com/sketch/ns"><title>icon-widget-menu</title><desc>Created with Sketch.</desc><defs><linearGradient x1="42.9656982%" y1="14.0594482%" x2="85.1531982%" y2="110.153198%" id="linearGradient-1"><stop stop-color="#2CA5C3" offset="0%"/><stop stop-color="#136B90" offset="100%"/></linearGradient><linearGradient x1="10.9344482%" y1="-27.3468018%" x2="73.4344482%" y2="79.6844482%" id="linearGradient-2"><stop stop-color="#51C8E5" offset="0%"/><stop stop-color="#2897C5" offset="100%"/></linearGradient></defs><g id="Page-1" stroke="none" stroke-width="1" fill="none" fill-rule="evenodd" sketch:type="MSPage"><g id="instansearch-website" sketch:type="MSArtboardGroup" transform="translate(-331.000000, -414.000000)"><g id="icon-widget-menu" sketch:type="MSLayerGroup" transform="translate(330.387237, 413.664529)"><g id="widget-bg" transform="translate(0.612763, 0.335471)" sketch:type="MSShapeGroup"><rect id="Rectangle-1-Copy" fill="url(#linearGradient-1)" x="0" y="5" width="64" height="64" rx="4"/><rect id="Rectangle-1" fill="url(#linearGradient-2)" x="0" y="0" width="64" height="64" rx="4"/></g><path d="M16,20.5 C16,19.6715729 16.6791629,19 17.5048079,19 L48.4951921,19 C49.3262745,19 50,19.6657972 50,20.5 C50,21.3284271 49.3208371,22 48.4951921,22 L17.5048079,22 C16.6737255,22 16,21.3342028 16,20.5 Z M16,31.5 C16,30.6715729 16.6791629,30 17.5048079,30 L48.4951921,30 C49.3262745,30 50,30.6657972 50,31.5 C50,32.3284271 49.3208371,33 48.4951921,33 L17.5048079,33 C16.6737255,33 16,32.3342028 16,31.5 Z M16,42.5 C16,41.6715729 16.6791629,41 17.5048079,41 L48.4951921,41 C49.3262745,41 50,41.6657972 50,42.5 C50,43.3284271 49.3208371,44 48.4951921,44 L17.5048079,44 C16.6737255,44 16,43.3342028 16,42.5 Z" id="Rectangle-13-Copy-5" fill="#FFFFFF" sketch:type="MSShapeGroup"/></g></g></g></svg>