<svg width="64px" height="69px" viewBox="0 0 64 69" version="1.1" xmlns="http://www.w3.org/2000/svg" xmlns:xlink="http://www.w3.org/1999/xlink" xmlns:sketch="http://www.bohemiancoding.com/sketch/ns"><title>icon-widget-index</title><desc>Created with Sketch.</desc><defs><linearGradient x1="42.9656982%" y1="14.0594482%" x2="85.1531982%" y2="110.153198%" id="linearGradient-1"><stop stop-color="#2CA5C3" offset="0%"/><stop stop-color="#136B90" offset="100%"/></linearGradient><linearGradient x1="10.9344482%" y1="-27.3468018%" x2="73.4344482%" y2="79.6844482%" id="linearGradient-2"><stop stop-color="#51C8E5" offset="0%"/><stop stop-color="#2897C5" offset="100%"/></linearGradient></defs><g id="Page-1" stroke="none" stroke-width="1" fill="none" fill-rule="evenodd" sketch:type="MSPage"><g id="instansearch-website" sketch:type="MSArtboardGroup" transform="translate(-97.000000, -414.000000)"><g id="icon-widget-index" sketch:type="MSLayerGroup" transform="translate(96.387237, 413.664529)"><g id="widget-bg" transform="translate(0.612763, 0.335471)" sketch:type="MSShapeGroup"><rect id="Rectangle-1-Copy" fill="url(#linearGradient-1)" x="0" y="5" width="64" height="64" rx="4"/><rect id="Rectangle-1" fill="url(#linearGradient-2)" x="0" y="0" width="64" height="64" rx="4"/></g><path d="M25.4430862,28.5847596 L25.4430862,28.5847596 L31.756971,36.3017299 C32.4484559,37.1468782 33.5547553,37.1399686 34.2405869,36.3017299 L40.5544718,28.5847596 C41.2459567,27.7396114 40.9231455,27.0669943 39.8460798,27.0669943 L26.1514781,27.0669943 C25.073817,27.0669943 24.7572545,27.746521 25.4430862,28.5847596 L25.4430862,28.5847596 Z M23.099593,29.6233991 C21.2157176,27.3208847 22.5402505,24.4813579 25.5244607,24.4813579 L40.4728815,24.4813579 C43.4554528,24.4813579 44.7883784,27.3126301 42.8977492,29.6233991 L36.0057921,38.0469022 C34.4024656,40.0065234 31.5992909,40.0119188 29.9915501,38.0469022 L23.099593,29.6233991 Z" id="Shape" fill="#FFFFFF" sketch:type="MSShapeGroup"/></g></g></g></svg>