<svg width="64" height="64" viewBox="0 0 64 64" xmlns="http://www.w3.org/2000/svg"><title>icon-widget-refinement</title><desc>Created with Sketch.</desc><g fill="none" fill-rule="evenodd"><g><g><g transform="translate(-408 -122) translate(408 122)"><rect stroke="#2897C5" stroke-width="2" fill="#2897C5" width="64" height="64" rx="8"/><circle fill="#147CA7" cx="8" cy="8" r="4"/><circle fill="#147CA7" cx="55" cy="8" r="4"/><circle fill="#147CA7" cx="55" cy="56" r="4"/><circle fill="#147CA7" cx="8" cy="56" r="4"/></g><g fill="#fff"><path d="M24 42.4c5.744 0 10.4-4.656 10.4-10.4 0-5.744-4.656-10.4-10.4-10.4-5.744 0-10.4 4.656-10.4 10.4 0 5.744 4.656 10.4 10.4 10.4zm0 2.6c-7.18 0-13-5.82-13-13s5.82-13 13-13 13 5.82 13 13-5.82 13-13 13zM40 42.4c5.744 0 10.4-4.656 10.4-10.4 0-5.744-4.656-10.4-10.4-10.4-5.744 0-10.4 4.656-10.4 10.4 0 5.744 4.656 10.4 10.4 10.4zm0 2.6c-7.18 0-13-5.82-13-13s5.82-13 13-13 13 5.82 13 13-5.82 13-13 13z"/></g></g></g></g></svg>