<svg width="64" height="64" viewBox="0 0 64 64" xmlns="http://www.w3.org/2000/svg"><title>icon-widget-menu</title><desc>Created with Sketch.</desc><g fill="none" fill-rule="evenodd"><g><g><g transform="translate(-254 -197) translate(254 197)"><rect stroke="#2897C5" stroke-width="2" fill="#2897C5" width="64" height="64" rx="8"/><circle fill="#147CA7" cx="8" cy="8" r="4"/><circle fill="#147CA7" cx="55" cy="8" r="4"/><circle fill="#147CA7" cx="55" cy="56" r="4"/><circle fill="#147CA7" cx="8" cy="56" r="4"/></g><path d="M12 18.5c0-.828.677-1.5 1.495-1.5h37.01c.826 0 1.495.666 1.495 1.5 0 .828-.677 1.5-1.495 1.5h-37.01C12.67 20 12 19.334 12 18.5zm0 13c0-.828.677-1.5 1.495-1.5h37.01c.826 0 1.495.666 1.495 1.5 0 .828-.677 1.5-1.495 1.5h-37.01C12.67 33 12 32.334 12 31.5zm0 13c0-.828.677-1.5 1.495-1.5h37.01c.826 0 1.495.666 1.495 1.5 0 .828-.677 1.5-1.495 1.5h-37.01C12.67 46 12 45.334 12 44.5z" fill="#fff"/></g></g></g></svg>