<?xml version="1.0" encoding="UTF-8" standalone="no"?>
<svg width="38px" height="38px" viewBox="0 0 38 38" version="1.1" xmlns="http://www.w3.org/2000/svg" xmlns:xlink="http://www.w3.org/1999/xlink" xmlns:sketch="http://www.bohemiancoding.com/sketch/ns">
    <!-- Generator: Sketch 3.3.3 (12072) - http://www.bohemiancoding.com/sketch -->
    <title>icon-ux</title>
    <desc>Created with Sketch.</desc>
    <defs></defs>
    <g id="Page-1" stroke="none" stroke-width="1" fill="none" fill-rule="evenodd" sketch:type="MSPage">
        <g id="Artboard-1" sketch:type="MSArtboardGroup" transform="translate(-341.000000, -57.000000)">
            <g id="icon-ux" sketch:type="MSLayerGroup" transform="translate(328.000000, 44.000000)">
                <rect id="Rectangle-1" sketch:type="MSShapeGroup" x="0" y="0" width="64" height="64"></rect>
                <g id="Icons/Search-Copy-+-Icons/Search-Copy-2-Copy" transform="translate(12.361147, 12.361147)" fill="#2897C5" sketch:type="MSShapeGroup">
                    <path d="M26.7004523,36.9583251 C17.7936876,40.3475133 5.92086651,35.8406587 2.15943145,26.1271883 C-1.6020036,16.4137179 3.28692457,5.52870874 13.0857979,1.80005678 C22.8846712,-1.92859517 34.257301,3.9298041 37.6268187,12.6311936 C40.9963365,21.332583 35.607217,33.5691369 26.7004523,36.9583251 Z M26.090977,35.077705 C34.7461846,31.7552821 39.085819,22.0083035 35.7633962,13.353096 C32.4409733,4.69788843 22.6939946,0.358253959 14.0387871,3.68067685 C5.38357956,7.00309974 1.04394509,16.7500784 4.36636798,25.4052859 C7.68879087,34.0604934 17.4357695,38.4001279 26.090977,35.077705 L26.090977,35.077705 Z" id="Icons/Search-Copy-2"></path>
                    <path d="M31.0642858,32.0830517 C30.6978207,29.9179823 29.6386633,27.8385066 27.8868136,26.1682034 C23.4563077,21.9439322 16.2809383,21.9439322 11.8504325,26.1682034 C10.233127,27.7102252 9.12834788,29.6974788 8.71832677,31.8476219 L8.71832677,32.0830517 L10.2150956,32.0830517 C10.5898819,30.27202 11.4935531,28.5459304 12.926109,27.1445169 C16.8063802,23.3485994 23.1216395,23.3485994 27.0019107,27.1445169 C28.4344667,28.5459304 29.3381378,30.27202 29.7129241,32.0830517 L31.0642858,32.0830517 Z" id="Icons/Search-Copy-4" transform="translate(19.891306, 27.541526) scale(1, -1) translate(-19.891306, -27.541526) "></path>
                </g>
                <path d="M40.3322312,29.6026477 C40.657661,29.132114 40.8304201,28.5690822 40.8304201,27.9980071 C40.8304201,26.433583 39.5648596,25.1667615 38.0019929,25.1667615 C36.4391262,25.1667615 35.1735658,26.433583 35.1735658,27.9980071 C35.1735658,29.5624311 36.4391262,30.8292526 38.0019929,30.8292526 C38.5724995,30.8292526 39.1349708,30.6563214 39.6050361,30.3305673 L40.3322312,29.6026477 Z M39.8019011,27.9980071 C39.8019011,28.991356 38.994353,29.7997088 38.0019929,29.7997088 C37.0096328,29.7997088 36.2020848,28.991356 36.2020848,27.9980071 C36.2020848,27.0046581 37.0096328,26.1963053 38.0019929,26.1963053 C38.994353,26.1963053 39.8019011,27.0046581 39.8019011,27.9980071 Z" id="Icons/Search-Copy-3" fill="#2897C5" sketch:type="MSShapeGroup" transform="translate(38.001993, 27.998007) scale(-1, 1) rotate(-45.000000) translate(-38.001993, -27.998007) "></path>
                <path d="M24.4410347,25.525456 C24.4410347,25.525456 23.3855305,25.1667466 23.0268211,25.525456 C22.6681118,25.8841653 23.0268211,26.9396695 23.0268211,26.9396695 L26.5623551,30.4752034 C26.5623551,30.4752034 27.6180329,30.823461 27.9765795,30.4752034 C28.335126,30.1269458 27.9765795,29.1015618 27.9765795,29.1015618 L24.4410347,25.525456 Z" id="Path-Copy" fill="#2897C5" sketch:type="MSShapeGroup" transform="translate(25.501664, 27.998007) rotate(-225.000000) translate(-25.501664, -27.998007) "></path>
            </g>
        </g>
    </g>
</svg>