<svg width="296" height="41" viewBox="0 0 296 41" xmlns="http://www.w3.org/2000/svg" xmlns:xlink="http://www.w3.org/1999/xlink"><title>logo-instantsearch</title><desc>Created with Sketch.</desc><defs><path d="M171.626 34c-.725 0-1.476-.054-2.256-.162-.78-.108-1.552-.254-2.32-.438-.77-.184-1.504-.41-2.206-.68-.703-.27-1.317-.57-1.844-.893l2.074-3.503c1.14.65 2.25 1.146 3.325 1.492 1.073.346 2.104.52 3.092.52.768 0 1.355-.12 1.76-.358.407-.237.61-.583.61-1.037 0-.452-.274-.803-.823-1.052-.548-.248-1.49-.545-2.83-.89-1.164-.304-2.15-.607-2.964-.91-.812-.302-1.465-.643-1.96-1.02-.493-.38-.85-.807-1.07-1.282-.218-.476-.328-1.038-.328-1.687 0-.866.18-1.655.54-2.368.363-.713.863-1.32 1.5-1.815.636-.498 1.387-.887 2.254-1.168.867-.28 1.816-.423 2.848-.423 1.207 0 2.442.18 3.704.535 1.262.356 2.496.848 3.704 1.475l-2.074 3.276c-1.075-.582-2.035-1.01-2.88-1.28-.845-.27-1.663-.405-2.453-.405-.657 0-1.2.114-1.63.34-.427.228-.64.59-.64 1.087 0 .24.056.44.166.6.11.164.29.315.543.455.25.14.585.27 1.002.39.417.12.933.254 1.548.405 1.275.324 2.35.65 3.228.973.878.324 1.59.686 2.14 1.086s.944.86 1.185 1.38c.242.52.362 1.134.362 1.847 0 .845-.17 1.607-.51 2.288-.34.68-.828 1.26-1.465 1.735-.637.475-1.406.842-2.306 1.102-.9.26-1.91.39-3.028.39zm17.8 0c-1.45 0-2.75-.232-3.902-.697-1.152-.465-2.13-1.098-2.93-1.898-.8-.8-1.41-1.724-1.827-2.773-.417-1.048-.625-2.146-.625-3.29 0-1.234.208-2.396.625-3.488.417-1.092 1.02-2.05 1.81-2.87.79-.822 1.762-1.47 2.914-1.946 1.156-.476 2.467-.714 3.938-.714 1.47 0 2.776.238 3.917.714 1.142.476 2.107 1.12 2.897 1.93.79.81 1.39 1.746 1.796 2.805.406 1.06.61 2.173.61 3.34 0 .303-.012.6-.034.892-.02.292-.054.546-.098.763H185.74c.088 1.146.51 2.016 1.268 2.61.757.595 1.618.892 2.584.892.768 0 1.51-.184 2.222-.55.714-.37 1.19-.866 1.433-1.493l4.477 1.232c-.68 1.34-1.734 2.43-3.16 3.273-1.427.843-3.14 1.265-5.136 1.265zm3.654-10.443c-.11-1.08-.505-1.935-1.185-2.562-.68-.627-1.526-.94-2.535-.94-1.032 0-1.882.318-2.552.956-.67.64-1.06 1.49-1.168 2.55h7.44zM205.678 34c-.856 0-1.65-.135-2.387-.405-.732-.27-1.363-.65-1.89-1.136-.526-.49-.943-1.06-1.25-1.72-.31-.66-.462-1.38-.462-2.158 0-.843.18-1.61.544-2.303.363-.69.873-1.286 1.53-1.784.66-.497 1.44-.886 2.34-1.167.9-.28 1.897-.423 2.995-.423.724 0 1.426.06 2.107.178.68.12 1.274.298 1.78.536v-.78c0-1.965-1.154-2.95-3.458-2.95-.944 0-1.844.158-2.7.47-.856.315-1.756.785-2.7 1.41l-1.547-3.24c1.14-.736 2.326-1.288 3.555-1.655 1.23-.368 2.536-.552 3.92-.552 2.61 0 4.63.606 6.056 1.817 1.427 1.21 2.14 2.985 2.14 5.32v4.38c0 .52.1.88.297 1.085.197.206.548.33 1.053.373v4.38c-.506.107-.97.177-1.4.21-.428.032-.807.048-1.136.048-.965-.02-1.7-.216-2.205-.584-.507-.366-.825-.896-.956-1.588l-.098-.778c-.768.973-1.685 1.72-2.75 2.238-1.064.52-2.19.778-3.374.778zm1.548-3.73c.57 0 1.124-.097 1.662-.292.538-.194.982-.454 1.333-.778.508-.39.76-.8.76-1.232v-1.622c-.46-.173-.96-.308-1.5-.405-.535-.095-1.034-.143-1.495-.143-.966 0-1.762.216-2.387.648-.626.433-.938.995-.938 1.687 0 .628.24 1.14.723 1.54.483.4 1.097.6 1.844.6zm23.627-9.178c-1.273.022-2.42.227-3.44.616-1.02.39-1.773.973-2.256 1.75v10.218h-5.267V16.65h4.84v3.436c.614-1.145 1.387-2.037 2.32-2.675.933-.635 1.926-.976 2.98-1.02.44 0 .713.01.823.034v4.67zm.976 4.054c0-1.168.206-2.287.623-3.357.417-1.07 1.02-2.014 1.81-2.824s1.762-1.454 2.914-1.93c1.152-.476 2.463-.714 3.934-.714 1.998 0 3.677.417 5.038 1.25 1.36.83 2.38 1.918 3.06 3.258l-5.134 1.526c-.68-1.08-1.68-1.622-2.996-1.622-1.097 0-2.013.4-2.748 1.2-.736.8-1.103 1.87-1.103 3.21 0 .67.096 1.282.294 1.833.2.552.473 1.022.824 1.41.35.39.763.693 1.235.91.47.216.97.324 1.497.324.66 0 1.263-.155 1.81-.47.55-.312.956-.72 1.22-1.215l5.135 1.557c-.636 1.32-1.65 2.4-3.045 3.244-1.394.843-3.09 1.265-5.086 1.265-1.45 0-2.75-.243-3.9-.73-1.153-.486-2.13-1.135-2.93-1.946-.8-.81-1.41-1.75-1.828-2.82-.417-1.072-.626-2.19-.626-3.358zm36.17 8.53h-5.27v-9.568c0-1.103-.225-1.913-.674-2.432-.45-.52-1.06-.78-1.828-.78-.308 0-.643.072-1.005.212s-.713.346-1.053.616c-.34.27-.653.59-.94.957-.284.37-.503.78-.657 1.236v9.762h-5.268V10h5.268v9.503c.636-1.017 1.476-1.8 2.52-2.352 1.04-.55 2.2-.824 3.472-.824 1.163 0 2.1.2 2.815.6.713.4 1.262.908 1.646 1.525.383.616.64 1.308.772 2.075.132.768.198 1.52.198 2.254v10.897z" id="a"/></defs><g fill="none" fill-rule="evenodd"><path d="M31.038 21.053c.074-.418-.024-.853-.252-1.185l-3.4-4.944c1.23-1.264 2.054-2.893 2.36-4.637.844-4.78-2.28-9.32-6.98-10.148-4.7-.83-9.188 2.37-10.03 7.145-.843 4.78 2.28 9.32 6.98 10.148 1.716.303 3.5.073 5.09-.673l3.403 4.933c.223.344.59.586 1.002.66.846.148 1.672-.44 1.824-1.3zM26.65 9.737c-.535 3.035-3.4 5.075-6.384 4.55-2.984-.527-4.977-3.424-4.442-6.46.535-3.033 3.4-5.074 6.383-4.547 2.985.526 4.978 3.423 4.443 6.457zm-6.842 20.508c.3-.3.712-.47 1.115-.473l6-.05c.33-1.734 1.192-3.342 2.444-4.594 3.43-3.43 8.942-3.477 12.317-.102 3.375 3.374 3.33 8.886-.102 12.317-3.43 3.43-8.942 3.476-12.317.102-1.232-1.232-2.067-2.826-2.368-4.556l-5.992.04c-.41.01-.82-.15-1.116-.447-.61-.608-.6-1.622.016-2.24zm11.763-2.88c-2.176 2.18-2.205 5.696-.062 7.84 2.143 2.142 5.66 2.113 7.838-.066 2.178-2.18 2.208-5.698.065-7.84-2.143-2.144-5.66-2.115-7.84.064zM18.467 19.29c.102.414.035.855-.17 1.2l-3.047 5.17c1.316 1.177 2.25 2.743 2.68 4.46 1.173 4.71-1.627 9.458-6.258 10.61-4.63 1.157-9.33-1.72-10.504-6.43-1.173-4.707 1.626-9.454 6.257-10.61 1.69-.42 3.486-.316 5.124.318l3.05-5.158c.2-.36.552-.627.957-.728.833-.208 1.698.322 1.91 1.17zm-3.59 11.598c-.746-2.99-3.745-4.826-6.686-4.093-2.94.734-4.727 3.763-3.98 6.752.743 2.99 3.743 4.826 6.683 4.093 2.94-.734 4.727-3.764 3.98-6.753zM55 33.34V16.556h5.256V33.34H55zm0-18.704V10h5.256v4.636H55zM80.186 33.34H74.93v-9.43c0-1.108-.214-1.913-.64-2.414-.428-.5-.992-.75-1.692-.75-.373 0-.75.074-1.134.223-.383.15-.744.355-1.084.62-.34.268-.65.58-.936.945-.285.362-.504.756-.657 1.183v9.623H63.53V16.557h4.73v2.813c.636-1.004 1.534-1.776 2.695-2.32 1.16-.543 2.497-.815 4.008-.815 1.117 0 2.02.197 2.71.59.69.396 1.22.907 1.593 1.536.373.63.62 1.318.74 2.064s.18 1.47.18 2.175v10.74zm10.37.32c-.722 0-1.472-.053-2.25-.16-.777-.106-1.55-.25-2.316-.43-.766-.182-1.5-.406-2.2-.673-.702-.266-1.315-.56-1.84-.88l2.07-3.452c1.138.64 2.244 1.13 3.317 1.47 1.073.342 2.103.512 3.088.512.767 0 1.352-.117 1.758-.35.405-.236.607-.577.607-1.024 0-.448-.273-.794-.82-1.04-.548-.245-1.49-.538-2.826-.88-1.16-.297-2.146-.596-2.957-.894-.81-.3-1.462-.637-1.954-1.01-.493-.373-.85-.794-1.068-1.263-.22-.47-.33-1.024-.33-1.664 0-.853.182-1.63.543-2.334.362-.704.86-1.3 1.495-1.79.635-.49 1.385-.875 2.25-1.153.866-.277 1.813-.415 2.842-.415 1.205 0 2.437.176 3.696.527 1.26.35 2.494.836 3.7 1.454l-2.07 3.23c-1.074-.576-2.03-.997-2.875-1.263-.844-.266-1.66-.4-2.448-.4-.657 0-1.2.113-1.626.337-.427.223-.64.58-.64 1.07 0 .235.054.432.164.592.11.16.29.31.542.447.252.138.586.266 1.002.384.416.118.93.25 1.544.4 1.27.32 2.345.64 3.22.96.877.32 1.59.676 2.137 1.07.546.395.94.848 1.18 1.36.24.51.36 1.12.36 1.822 0 .83-.17 1.583-.51 2.254-.34.67-.824 1.24-1.46 1.71-.635.47-1.4.83-2.3 1.087-.897.256-1.905.383-3.022.383zm20.555-1.215c-.72.3-1.54.576-2.46.832-.92.256-1.863.383-2.826.383-.657 0-1.276-.08-1.857-.24-.58-.16-1.09-.415-1.527-.767-.44-.35-.784-.815-1.036-1.39-.252-.576-.378-1.27-.378-2.08v-8.76h-2.2v-3.868h2.2v-5.34h5.256v5.34h3.517v3.868h-3.518v7.003c0 .554.15.953.445 1.2.296.244.662.366 1.1.366.373 0 .767-.064 1.183-.192.417-.127.79-.266 1.118-.415l.986 4.06zm6.66 1.215c-.854 0-1.65-.133-2.38-.4-.735-.266-1.364-.64-1.89-1.118-.526-.48-.94-1.045-1.248-1.695-.306-.65-.46-1.36-.46-2.126 0-.83.18-1.585.543-2.27.36-.68.87-1.266 1.527-1.756.656-.49 1.434-.874 2.332-1.15.898-.278 1.894-.417 2.99-.417.722 0 1.423.06 2.102.176.68.12 1.27.294 1.774.53v-.768c0-1.94-1.15-2.91-3.45-2.91-.94 0-1.84.154-2.694.464-.854.31-1.752.77-2.693 1.39l-1.542-3.198c1.14-.725 2.32-1.27 3.55-1.63 1.225-.363 2.53-.544 3.91-.544 2.604 0 4.62.597 6.043 1.79 1.422 1.194 2.134 2.942 2.134 5.244v4.315c0 .512.1.87.296 1.072.197.2.547.324 1.05.366v4.317c-.503.108-.968.178-1.395.21-.427.03-.805.047-1.134.047-.96-.02-1.695-.213-2.2-.575-.502-.36-.82-.884-.95-1.566l-.1-.768c-.766.96-1.68 1.693-2.743 2.205s-2.184.767-3.366.767zm1.545-3.677c.57 0 1.122-.095 1.66-.287.535-.192.98-.448 1.33-.768.503-.383.755-.788.755-1.215v-1.598c-.46-.17-.96-.304-1.496-.4-.537-.096-1.035-.144-1.495-.144-.965 0-1.76.216-2.384.64-.624.43-.936.98-.936 1.665 0 .618.24 1.125.724 1.52.482.393 1.095.59 1.84.59zm29.292 3.358h-5.256v-9.43c0-1.107-.213-1.912-.64-2.413-.43-.5-.99-.75-1.692-.75-.373 0-.75.074-1.134.223-.383.15-.744.356-1.084.622-.34.267-.653.58-.938.944-.285.362-.504.756-.657 1.183v9.622h-5.256V16.556h4.73v2.813c.633-1.004 1.53-1.776 2.692-2.32 1.16-.543 2.497-.815 4.008-.815 1.118 0 2.02.197 2.71.59.69.396 1.22.907 1.595 1.536.372.63.618 1.318.74 2.064.12.746.18 1.47.18 2.175v10.74zm14.28-.893c-.723.3-1.544.576-2.464.832-.92.255-1.86.382-2.824.382-.658 0-1.277-.08-1.857-.24-.58-.16-1.09-.414-1.528-.766-.438-.35-.783-.815-1.035-1.39-.253-.576-.38-1.27-.38-2.08v-8.76h-2.2v-3.868h2.2v-5.34h5.257v5.34h3.515v3.868h-3.514v7.003c0 .553.148.952.443 1.2.297.243.664.365 1.1.365.374 0 .768-.064 1.184-.192.417-.126.79-.265 1.117-.414l.986 4.06zm108.728.896v-2.717h1.446v2.718h-1.446zm2.782 5.66c-.7 0-1.353-.09-1.955-.272-.6-.18-1.143-.484-1.625-.91l.887-1.055c.373.298.778.5 1.216.607.438.107.876.16 1.314.16.416 0 .822-.08 1.216-.24.394-.16.744-.383 1.05-.67.308-.29.56-.63.757-1.024.197-.395.295-.826.295-1.295V16.715h1.643v17.522c0 .703-.136 1.343-.41 1.918-.274.576-.64 1.077-1.1 1.503-.46.426-.975.757-1.544.99-.57.236-1.15.353-1.74.353zm3.153-26.058V10h1.642v2.942h-1.642zm11.88 20.716c-1.314 0-2.574-.212-3.778-.64-1.205-.424-2.256-1.064-3.154-1.916l.82-1.088c.92.81 1.874 1.407 2.86 1.79.985.385 2.07.576 3.252.576 1.49 0 2.688-.3 3.597-.91.91-.606 1.363-1.454 1.363-2.54 0-.51-.115-.944-.345-1.296-.23-.35-.575-.65-1.035-.895-.46-.245-1.03-.463-1.708-.655-.68-.192-1.467-.395-2.365-.608-.964-.213-1.8-.426-2.513-.64-.712-.212-1.298-.468-1.758-.767-.46-.3-.805-.66-1.035-1.088-.23-.425-.342-.97-.342-1.63 0-.83.165-1.555.493-2.174.33-.618.783-1.13 1.364-1.534.58-.405 1.248-.71 2.003-.912.756-.202 1.56-.303 2.415-.303 1.338 0 2.52.216 3.55.653 1.03.437 1.83.997 2.398 1.68l-.92.862c-.57-.64-1.308-1.12-2.217-1.44-.91-.32-1.877-.478-2.906-.478-.636 0-1.232.064-1.79.19-.56.13-1.047.332-1.463.61-.415.276-.743.633-.984 1.07-.24.437-.362.954-.362 1.55 0 .49.082.885.247 1.184.165.3.428.555.79.768.36.212.826.4 1.395.56.57.16 1.25.334 2.037.526 1.074.256 2.027.5 2.86.736.83.234 1.527.522 2.085.863.56.34.986.746 1.282 1.215.294.47.442 1.066.442 1.79 0 1.493-.597 2.68-1.79 3.566-1.194.884-2.787 1.326-4.78 1.326z" fill="#fff"/><g transform="translate(-164 -57) translate(164 57)"><use fill="#00B7E5" xlink:href="#a"/><use xlink:href="#a"/></g></g></svg>