<?xml version="1.0" encoding="UTF-8" standalone="no"?>
<svg width="23px" height="22px" viewBox="0 0 23 22" version="1.1" xmlns="http://www.w3.org/2000/svg" xmlns:xlink="http://www.w3.org/1999/xlink" xmlns:sketch="http://www.bohemiancoding.com/sketch/ns">
    <!-- Generator: Sketch 3.3.3 (12072) - http://www.bohemiancoding.com/sketch -->
    <title>logo-open-source</title>
    <desc>Created with Sketch.</desc>
    <defs></defs>
    <g id="Page-1" stroke="none" stroke-width="1" fill="none" fill-rule="evenodd" sketch:type="MSPage">
        <g id="Artboard-1" sketch:type="MSArtboardGroup" transform="translate(-542.000000, -111.000000)" fill="#FFFFFF">
            <g id="logo-open-source" sketch:type="MSLayerGroup" transform="translate(542.000000, 111.000000)">
                <g id="Page-1" sketch:type="MSShapeGroup">
                    <path d="M15.1145116,21.954385 C19.6950168,20.4706187 23,16.2437089 23,11.2609263 C23,5.04168844 17.8512747,0 11.5,0 C5.14872538,0 0,5.04168844 0,11.2609263 C0,16.2286502 3.28503721,20.4450632 7.84399474,21.9408574 L10.3781187,15.3882236 C8.5134866,14.9034951 7.1394052,13.2393417 7.1394052,11.2609263 C7.1394052,8.90270228 9.09170999,6.99098399 11.5,6.99098399 C13.90829,6.99098399 15.8605948,8.90270228 15.8605948,11.2609263 C15.8605948,13.2726646 14.4398357,14.9594653 12.5272488,15.4117088 L15.1145116,21.954385 L15.1145116,21.954385 Z" id="Oval-2"></path>
                </g>
            </g>
        </g>
    </g>
</svg>