<svg viewBox="0 0 120 18" xmlns="http://www.w3.org/2000/svg" xmlns:xlink="http://www.w3.org/1999/xlink"><title>logo-instantsearch</title><desc>Created with Sketch.</desc><defs><path d="M69.94 14.13c-.287 0-.584-.022-.892-.065-.308-.043-.613-.102-.916-.175-.304-.074-.594-.165-.87-.274-.28-.108-.52-.227-.73-.357l.82-1.405c.45.26.888.46 1.313.598.424.14.832.208 1.222.208.303 0 .535-.047.695-.142.16-.095.24-.234.24-.416 0-.182-.108-.323-.324-.422-.217-.1-.59-.22-1.118-.358-.46-.12-.85-.243-1.17-.364-.32-.12-.58-.258-.774-.41-.195-.15-.336-.322-.422-.513-.087-.19-.13-.416-.13-.676 0-.348.07-.664.214-.95.143-.286.34-.53.592-.728.25-.2.548-.355.89-.468.343-.113.717-.17 1.125-.17.476 0 .964.072 1.462.216.5.143.986.34 1.463.59l-.82 1.314c-.424-.234-.803-.405-1.137-.514-.334-.108-.656-.162-.968-.162-.26 0-.475.045-.644.136-.168.092-.252.237-.252.436 0 .095.02.175.065.24.043.066.114.126.214.182.1.057.232.11.397.157.164.046.368.1.61.16.503.13.928.26 1.275.39.345.13.627.276.844.437.216.16.372.344.468.552.095.207.143.454.143.74 0 .338-.067.643-.202.916-.134.274-.327.505-.578.696-.252.19-.555.338-.91.442-.356.104-.754.156-1.196.156zm7.027 0c-.572 0-1.085-.093-1.54-.28-.455-.186-.84-.44-1.157-.76-.317-.32-.557-.69-.722-1.11-.164-.422-.247-.862-.247-1.32 0-.495.084-.96.248-1.4.165-.436.403-.82.715-1.15.312-.328.696-.588 1.15-.78.456-.19.974-.285 1.554-.285.58 0 1.097.095 1.547.286.45.192.832.45 1.144.774.312.326.548.7.71 1.125.16.424.24.87.24 1.338 0 .12-.005.24-.014.357-.008.118-.02.22-.04.306h-5.043c.036.46.203.81.502 1.047.3.24.64.358 1.02.358.304 0 .596-.074.878-.22.282-.148.47-.348.565-.6l1.768.495c-.268.537-.684.975-1.248 1.313-.563.338-1.24.507-2.028.507zm1.443-4.186c-.043-.433-.2-.776-.468-1.027-.268-.25-.602-.377-1-.377-.408 0-.744.128-1.008.384-.265.255-.418.595-.462 1.02h2.938zm4.975 4.186c-.338 0-.652-.054-.942-.163-.29-.108-.54-.26-.748-.455-.208-.195-.373-.424-.494-.69-.12-.263-.18-.55-.18-.863 0-.34.07-.647.214-.924.143-.277.344-.516.604-.715.26-.198.568-.354.923-.467.356-.113.75-.17 1.184-.17.286 0 .563.025.832.072.27.048.503.12.702.215v-.312c0-.79-.455-1.183-1.365-1.183-.373 0-.728.063-1.066.19-.338.124-.693.313-1.066.564l-.61-1.3c.45-.296.92-.517 1.404-.664.485-.147 1-.22 1.547-.22 1.032 0 1.83.242 2.393.727.563.485.845 1.196.845 2.132v1.755c0 .208.04.353.117.435.078.083.217.133.416.15V14c-.198.043-.382.07-.55.085-.17.013-.32.02-.45.02-.38-.01-.672-.088-.87-.235-.2-.147-.326-.36-.378-.637l-.04-.312c-.302.39-.664.69-1.084.898-.42.208-.865.312-1.333.312zm.61-1.495c.226 0 .445-.04.658-.117.212-.078.387-.182.526-.312.198-.156.298-.32.298-.494v-.65c-.182-.07-.38-.123-.59-.162-.214-.04-.41-.06-.593-.06-.38 0-.695.088-.942.26-.248.174-.37.4-.37.677 0 .25.094.457.285.618.19.16.433.24.728.24zm9.33-3.68c-.502.01-.955.092-1.358.248-.403.156-.7.39-.89.702V14h-2.08V7.175h1.91v1.378c.243-.46.55-.817.917-1.073.37-.255.76-.392 1.177-.41.174 0 .282.005.326.014v1.872zm.386 1.626c0-.467.084-.915.248-1.345.165-.43.403-.805.715-1.13.312-.326.696-.583 1.15-.774.456-.19.974-.285 1.554-.285.79 0 1.452.167 1.99.5.537.334.94.77 1.208 1.307l-2.028.61c-.268-.432-.663-.65-1.183-.65-.433 0-.795.16-1.085.482-.292.32-.437.75-.437 1.287 0 .27.04.514.117.736.078.22.187.41.325.565.14.157.3.278.488.365.186.087.383.13.59.13.26 0 .5-.063.716-.188.216-.126.376-.29.48-.488l2.028.623c-.25.53-.652.962-1.202 1.3-.55.338-1.22.507-2.01.507-.57 0-1.084-.097-1.54-.293-.454-.195-.84-.454-1.156-.78-.317-.325-.557-.7-.722-1.13-.164-.43-.247-.878-.247-1.346zM107.995 14h-2.08v-3.835c0-.442-.09-.767-.267-.975-.177-.208-.418-.312-.72-.312-.122 0-.254.028-.398.085-.144.056-.282.138-.416.247-.135.108-.258.236-.37.383-.114.147-.2.312-.26.494V14h-2.08V4.51h2.08v3.81c.25-.408.582-.722.994-.944.41-.22.868-.33 1.37-.33.46 0 .83.08 1.112.24.282.16.5.363.65.61.152.248.254.525.306.833.052.306.078.607.078.902V14z" id="a"/></defs><g fill="none" fill-rule="evenodd"><g><g><g fill="#fff"><path d="M13.256 9.244c.033-.183-.01-.374-.11-.52l-1.497-2.17c.54-.556.902-1.27 1.037-2.037.37-2.098-1.004-4.092-3.07-4.456C7.546-.303 5.574 1.1 5.204 3.2 4.835 5.296 6.21 7.29 8.277 7.654c.754.133 1.54.033 2.238-.295l1.497 2.165c.1.15.262.258.442.29.372.065.736-.193.802-.57zm-1.93-4.968C11.09 5.608 9.83 6.503 8.517 6.272c-1.312-.23-2.19-1.504-1.954-2.836C6.8 2.104 8.058 1.208 9.37 1.44c1.313.23 2.19 1.504 1.955 2.836zM8.32 13.273c.133-.132.314-.206.49-.208l2.637-.02c.144-.76.523-1.467 1.072-2.017 1.506-1.507 3.927-1.524 5.412-.04 1.484 1.484 1.466 3.906-.04 5.412-1.507 1.506-3.928 1.524-5.413.04-.542-.542-.91-1.243-1.043-2.003l-2.633.016c-.18.005-.36-.067-.49-.196-.267-.267-.264-.713.007-.984zm5.17-1.262c-.957.958-.968 2.503-.026 3.445.942.943 2.488.93 3.444-.025.957-.956.968-2.502.026-3.444-.943-.943-2.488-.93-3.445.025zM7.725 8.468c.045.18.016.375-.074.527l-1.342 2.27c.58.516.99 1.204 1.178 1.96.516 2.066-.716 4.15-2.753 4.658s-4.103-.754-4.62-2.82c-.514-2.068.718-4.153 2.755-4.66.743-.187 1.533-.14 2.253.137l1.343-2.266c.088-.158.243-.275.42-.32.367-.09.748.142.84.513zm-1.58 5.092c-.328-1.313-1.646-2.12-2.94-1.797-1.293.323-2.08 1.653-1.752 2.966.328 1.31 1.646 2.117 2.94 1.794 1.293-.322 2.08-1.652 1.752-2.965z"/></g><path d="M23.702 14V7.175h2.08V14h-2.08zm0-7.605V4.51h2.08v1.885h-2.08zM33.67 14h-2.08v-3.835c0-.45-.086-.778-.255-.98-.17-.205-.392-.307-.67-.307-.147 0-.296.03-.448.09-.152.062-.294.146-.43.255-.133.108-.257.236-.37.383-.112.147-.2.308-.26.48V14h-2.08V7.175h1.873V8.32c.25-.408.606-.722 1.066-.944.46-.22.988-.33 1.586-.33.442 0 .8.08 1.072.24.273.16.483.368.63.624.148.255.245.535.293.838.048.303.072.598.072.884V14zm4.102.13c-.286 0-.582-.022-.89-.065-.308-.043-.613-.102-.917-.175-.303-.074-.593-.165-.87-.274-.278-.108-.52-.227-.73-.357l.82-1.405c.45.26.89.46 1.313.598.425.14.832.208 1.222.208.304 0 .535-.047.696-.142.16-.095.24-.234.24-.416 0-.182-.108-.323-.325-.422-.215-.1-.588-.22-1.117-.358-.46-.12-.85-.243-1.17-.364-.32-.12-.578-.258-.773-.41-.195-.15-.336-.322-.423-.513-.086-.19-.13-.416-.13-.676 0-.348.072-.664.215-.95.143-.286.34-.53.59-.728.253-.2.55-.355.892-.468.342-.113.717-.17 1.124-.17.477 0 .964.072 1.463.216.5.143.987.34 1.463.59l-.82 1.314c-.423-.234-.802-.405-1.136-.514-.334-.108-.657-.162-.97-.162-.26 0-.473.045-.642.136-.17.092-.254.237-.254.436 0 .095.023.175.066.24.044.066.115.126.215.182.1.057.233.11.397.157.165.046.37.1.61.16.504.13.93.26 1.275.39.347.13.63.276.845.437.217.16.373.344.468.552.096.207.143.454.143.74 0 .338-.067.643-.2.916-.136.274-.328.505-.58.696-.25.19-.554.338-.91.442-.355.104-.754.156-1.196.156zm8.134-.494c-.286.12-.61.234-.975.338-.363.104-.736.156-1.117.156-.26 0-.505-.032-.735-.098-.23-.065-.43-.168-.604-.312-.173-.143-.31-.33-.41-.565-.1-.234-.15-.516-.15-.845V8.748h-.87V7.175h.87v-2.17h2.08v2.17h1.392v1.573h-1.39v2.847c0 .225.057.388.174.487.118.1.263.15.436.15.147 0 .303-.026.468-.078.165-.052.312-.108.442-.17l.39 1.652zm2.635.494c-.337 0-.65-.054-.942-.163-.29-.108-.54-.26-.747-.455-.207-.195-.372-.424-.493-.69-.122-.263-.182-.55-.182-.863 0-.34.07-.647.214-.924.142-.277.344-.516.604-.715.26-.198.567-.354.923-.467.355-.113.75-.17 1.183-.17.286 0 .563.025.832.072.268.048.502.12.702.215v-.312c0-.79-.455-1.183-1.365-1.183-.374 0-.73.063-1.067.19-.338.124-.694.313-1.066.564l-.61-1.3c.45-.296.917-.517 1.403-.664.485-.147 1-.22 1.547-.22 1.03 0 1.828.242 2.392.727.562.485.844 1.196.844 2.132v1.755c0 .208.04.353.117.435.08.083.217.133.417.15V14c-.2.043-.384.07-.553.085-.17.013-.318.02-.448.02-.382-.01-.672-.088-.87-.235-.2-.147-.326-.36-.378-.637l-.04-.312c-.303.39-.664.69-1.085.898-.42.208-.864.312-1.332.312zm.612-1.495c.225 0 .444-.04.656-.117.213-.078.388-.182.527-.312.2-.156.3-.32.3-.494v-.65c-.183-.07-.38-.123-.593-.162-.212-.04-.41-.06-.59-.06-.383 0-.697.088-.944.26-.247.174-.37.4-.37.677 0 .25.095.457.286.618.19.16.433.24.728.24zM60.742 14h-2.08v-3.835c0-.45-.083-.778-.252-.98-.17-.205-.392-.307-.67-.307-.147 0-.296.03-.448.09-.152.062-.295.146-.43.255-.134.108-.257.236-.37.383-.112.147-.2.308-.26.48V14h-2.08V7.175h1.872V8.32c.252-.408.607-.722 1.066-.944.46-.22.988-.33 1.586-.33.442 0 .8.08 1.073.24.272.16.482.368.63.624.147.255.244.535.292.838.048.303.07.598.07.884V14zm5.652-.364c-.286.12-.61.234-.975.338-.365.104-.738.156-1.12.156-.26 0-.504-.032-.733-.098-.23-.065-.432-.168-.605-.312-.173-.143-.31-.33-.41-.565-.1-.234-.15-.516-.15-.845V8.748h-.87V7.175h.87v-2.17h2.08v2.17h1.392v1.573h-1.39v2.847c0 .225.057.388.175.487.116.1.26.15.434.15.147 0 .303-.026.468-.078.165-.052.312-.108.442-.17l.39 1.652zM109.42 14v-1.105h.572V14h-.572zm1.1 2.3c-.277 0-.535-.036-.773-.11-.24-.073-.453-.197-.644-.37l.35-.43c.15.122.31.205.482.248.174.043.347.065.52.065.165 0 .325-.032.48-.098.157-.065.296-.155.417-.273.122-.117.22-.255.3-.416.077-.16.116-.335.116-.526V7.24h.65v7.124c0 .286-.054.546-.162.78-.11.234-.254.438-.436.61-.182.174-.385.31-.61.404-.226.095-.456.143-.69.143zm1.248-10.594V4.51h.65v1.196h-.65zm4.702 8.424c-.52 0-1.018-.087-1.495-.26-.477-.173-.893-.433-1.248-.78l.325-.442c.364.33.74.572 1.13.728.39.156.82.234 1.288.234.59 0 1.064-.123 1.424-.37.36-.248.54-.592.54-1.034 0-.208-.046-.383-.138-.526-.09-.144-.227-.265-.41-.364-.18-.1-.406-.19-.675-.267-.268-.08-.58-.16-.935-.248-.38-.087-.713-.173-.995-.26-.28-.087-.513-.19-.695-.312-.182-.12-.318-.27-.41-.442-.09-.173-.136-.394-.136-.663 0-.338.064-.633.194-.884.13-.25.31-.458.54-.623.23-.165.493-.288.793-.37.3-.083.617-.124.955-.124.53 0 .997.09 1.404.266.407.177.724.405.95.682l-.365.35c-.224-.26-.517-.454-.877-.584-.36-.13-.743-.195-1.15-.195-.25 0-.487.026-.71.078-.22.053-.412.135-.577.248-.165.113-.295.258-.39.435-.095.178-.143.388-.143.63 0 .2.032.36.097.482.066.12.17.225.313.312s.327.162.552.228c.225.065.494.136.806.214.426.103.803.203 1.132.298.33.095.604.212.826.35.22.14.39.304.506.495.118.19.176.433.176.728 0 .608-.236 1.09-.708 1.45-.473.36-1.103.54-1.892.54z" fill="#fff"/><g transform="translate(-423 -240) translate(423 240)"><use fill="#00B7E5" xlink:href="#a"/><use xlink:href="#a"/></g></g></g></g></svg>