<?xml version="1.0" encoding="UTF-8" standalone="no"?>
<svg width="21px" height="24px" viewBox="0 0 21 24" version="1.1" xmlns="http://www.w3.org/2000/svg" xmlns:xlink="http://www.w3.org/1999/xlink" xmlns:sketch="http://www.bohemiancoding.com/sketch/ns">
    <!-- Generator: Sketch 3.4 (15575) - http://www.bohemiancoding.com/sketch -->
    <title>logo-algolia-notext</title>
    <desc>Created with Sketch.</desc>
    <defs>
        <path d="M420.249222,611.073515 L418.856969,616.002003 L423.3409,613.547006 C422.689697,612.354182 421.578505,611.452244 420.249222,611.073515 Z M409.246256,616.10382 C409.246256,621.383504 413.530356,625.664529 418.816747,625.664529 C424.103138,625.664529 428.387237,621.383504 428.387237,616.10382 C428.387237,610.824136 424.103138,606.543111 418.816747,606.543111 C413.530356,606.543111 409.246256,610.824136 409.246256,616.10382 Z M418.816747,609.274742 C422.585982,609.274742 425.652812,612.338437 425.652812,616.10382 C425.652812,619.869203 422.585982,622.932898 418.816747,622.932898 C415.047512,622.932898 411.980682,619.869203 411.980682,616.10382 C411.980682,612.338437 415.047512,609.274742 418.816747,609.274742 Z M422.12,605.360574 C422.122576,605.323512 422.130737,605.288174 422.130737,605.25025 L422.130737,604.388343 C422.130307,603.436798 421.361533,602.66496 420.412806,602.664529 L417.405998,602.664529 C416.4577,602.66496 415.688497,603.436367 415.688497,604.388343 L415.688497,605.235167 C416.645813,604.966252 417.65295,604.819297 418.694875,604.819297 C419.889267,604.819297 421.039851,605.01064 422.12,605.360574 Z M411.623873,607.047757 C410.953021,606.374608 409.864712,606.375039 409.19386,607.047757 L408.890215,607.352441 C408.219363,608.02516 408.219793,609.117196 408.890215,609.790346 L409.213616,610.114423 C409.902077,609.00601 410.778651,608.027746 411.797384,607.222294 L411.623873,607.047757 Z" id="path-1"></path>
    </defs>
    <g id="Page-1" stroke="none" stroke-width="1" fill="none" fill-rule="evenodd" sketch:type="MSPage">
        <g id="instansearch-website" sketch:type="MSArtboardGroup" transform="translate(-408.000000, -602.000000)">
            <g id="logo-algolia-notext">
                <use fill="#FFFFFF" fill-rule="evenodd" sketch:type="MSShapeGroup" xlink:href="#path-1"></use>
                <use fill="none" xlink:href="#path-1"></use>
            </g>
        </g>
    </g>
</svg>