<?xml version="1.0" encoding="UTF-8" standalone="no"?>
<svg width="20px" height="23px" viewBox="0 0 20 23" version="1.1" xmlns="http://www.w3.org/2000/svg" xmlns:xlink="http://www.w3.org/1999/xlink" xmlns:sketch="http://www.bohemiancoding.com/sketch/ns">
    <!-- Generator: Sketch 3.3.3 (12072) - http://www.bohemiancoding.com/sketch -->
    <title>logo-algolia</title>
    <desc>Created with Sketch.</desc>
    <defs>
        <path d="M544.861985,119.408986 L543.469731,124.337474 L547.953663,121.882477 C547.30246,120.689653 546.191268,119.787715 544.861985,119.408986 Z M533.859019,124.439291 C533.859019,129.718975 538.143119,134 543.42951,134 C548.7159,134 553,129.718975 553,124.439291 C553,119.159606 548.7159,114.878582 543.42951,114.878582 C538.143119,114.878582 533.859019,119.159606 533.859019,124.439291 Z M543.42951,117.610213 C547.198745,117.610213 550.265574,120.673908 550.265574,124.439291 C550.265574,128.204674 547.198745,131.268369 543.42951,131.268369 C539.660274,131.268369 536.593445,128.204674 536.593445,124.439291 C536.593445,120.673908 539.660274,117.610213 543.42951,117.610213 Z M546.732762,113.696045 C546.735339,113.658983 546.743499,113.623645 546.743499,113.585721 L546.743499,112.723814 C546.74307,111.772269 545.974296,111.000431 545.025569,111 L542.01876,111 C541.070463,111.000431 540.301259,111.771838 540.301259,112.723814 L540.301259,113.570638 C541.258576,113.301723 542.265713,113.154768 543.307638,113.154768 C544.502029,113.154768 545.652613,113.346111 546.732762,113.696045 Z M536.236635,115.383228 C535.565783,114.710079 534.477474,114.71051 533.806622,115.383228 L533.502978,115.687912 C532.832126,116.360631 532.832555,117.452667 533.502978,118.125816 L533.826378,118.449893 C534.514839,117.341481 535.391413,116.363216 536.410146,115.557764 L536.236635,115.383228 Z" id="path-1"></path>
    </defs>
    <g id="Page-1" stroke="none" stroke-width="1" fill="none" fill-rule="evenodd" sketch:type="MSPage">
        <g id="Artboard-1" sketch:type="MSArtboardGroup" transform="translate(-533.000000, -111.000000)">
            <g id="logo-algolia">
                <use fill="#FFFFFF" fill-rule="evenodd" sketch:type="MSShapeGroup" xlink:href="#path-1"></use>
                <use fill="none" xlink:href="#path-1"></use>
            </g>
        </g>
    </g>
</svg>