<svg width="113" height="36" viewBox="0 0 113 36" xmlns="http://www.w3.org/2000/svg"><title>logo-algolia</title><desc>Created with Sketch.</desc><g id="Page-1" fill="none" fill-rule="evenodd"><g><g><g><g><path d="M67.915 13.975l-1.47 5.24 4.738-2.61c-.688-1.268-1.863-2.227-3.268-2.63z" fill="#46AEDA"/><path d="M58.8 9.697c-.71-.716-1.86-.715-2.57 0l-.32.324c-.71.716-.71 1.876 0 2.592l.342.344c.727-1.178 1.654-2.218 2.73-3.074l-.183-.185z" fill="#46AEDA"/><path d="M69.893 7.904c.002-.04.01-.077.01-.118V6.87c0-1.01-.812-1.83-1.815-1.832H64.91c-1.002 0-1.815.82-1.815 1.832v.9c1.012-.285 2.076-.442 3.178-.442 1.262 0 2.478.204 3.62.576" fill="#46AEDA"/><path d="M66.4 12.064c3.985 0 7.226 3.256 7.226 7.258 0 4.002-3.24 7.258-7.225 7.258-3.982 0-7.224-3.256-7.224-7.258 0-4.002 3.242-7.258 7.225-7.258zm-10.114 7.258c0 5.61 4.528 10.16 10.115 10.16 5.59 0 10.117-4.55 10.117-10.16C76.517 13.71 71.99 9.16 66.4 9.16c-5.586 0-10.114 4.55-10.114 10.162z" fill="#46AEDA"/><path d="M20.11 28.933c-.418-1.114-.81-2.208-1.177-3.284-.368-1.077-.748-2.172-1.14-3.285H6.248l-2.316 6.568H.218c.98-2.72 1.9-5.238 2.758-7.55.858-2.313 1.697-4.508 2.52-6.586.82-2.078 1.635-4.062 2.444-5.954.808-1.892 1.654-3.766 2.537-5.62h3.272c.88 1.854 1.727 3.728 2.536 5.62.81 1.892 1.623 3.876 2.445 5.954.822 2.078 1.66 4.273 2.52 6.585.857 2.313 1.777 4.83 2.757 7.55H20.11zm-3.346-9.535c-.785-2.152-1.563-4.236-2.335-6.252-.773-2.016-1.576-3.95-2.41-5.806-.858 1.855-1.672 3.79-2.444 5.806s-1.54 4.1-2.298 6.252h9.486z" fill="#fff"/><path d="M32.978 29.303c-2.108-.05-3.603-.507-4.485-1.373-.883-.865-1.324-2.213-1.324-4.044V.736l3.418-.594V23.33c0 .57.05 1.04.147 1.41.1.37.258.668.478.89.22.223.515.39.883.5.368.113.82.206 1.36.28l-.478 2.893" fill="#fff"/><path d="M49.266 27.003c-.294.2-.864.45-1.71.76-.845.31-1.832.465-2.96.465-1.152 0-2.236-.186-3.253-.557-1.017-.37-1.906-.945-2.666-1.724-.76-.78-1.36-1.75-1.802-2.912-.44-1.163-.662-2.548-.662-4.156 0-1.41.208-2.702.625-3.877.417-1.173 1.024-2.188 1.82-3.04.797-.854 1.77-1.522 2.924-2.004 1.152-.483 2.45-.724 3.897-.724 1.592 0 2.983.118 4.172.353 1.19.235 2.188.45 2.997.65v17.214c0 2.967-.76 5.118-2.28 6.453-1.52 1.336-3.825 2.003-6.913 2.003-1.2 0-2.335-.098-3.4-.295-1.067-.198-1.993-.432-2.777-.704l.625-3.005c.686.272 1.526.514 2.52.724.99.21 2.027.315 3.105.315 2.035 0 3.5-.41 4.394-1.225.895-.816 1.342-2.115 1.342-3.896v-.817zm-1.415-14.6c-.576-.085-1.354-.13-2.334-.13-1.838 0-3.254.608-4.247 1.82-.994 1.21-1.49 2.82-1.49 4.822 0 1.114.14 2.066.423 2.857.282.792.662 1.447 1.14 1.967.478.517 1.03.9 1.654 1.148.625.248 1.27.37 1.93.37.907 0 1.74-.128 2.5-.388s1.36-.563 1.802-.91V12.684c-.344-.1-.803-.192-1.38-.28z" fill="#fff"/><path d="M85.844 29.304c-2.11-.05-3.603-.507-4.486-1.373-.882-.864-1.323-2.213-1.323-4.043V.737l3.42-.594V23.33c0 .57.048 1.04.146 1.41.1.37.258.668.48.89.22.223.513.39.88.502.37.11.822.204 1.362.278l-.478 2.894" fill="#fff"/><path d="M91.837 6.153c-.613 0-1.134-.204-1.562-.612-.43-.407-.644-.957-.644-1.65s.215-1.243.645-1.65c.428-.41.95-.613 1.562-.613.612 0 1.133.204 1.563.612.428.407.643.957.643 1.65s-.215 1.243-.643 1.65c-.43.41-.95.613-1.563.613zm-1.69 3.488h3.418v19.293h-3.42V9.64z" fill="#fff"/><path d="M105.624 9.158c1.373 0 2.53.18 3.475.538.942.36 1.702.866 2.278 1.52.576.657.987 1.436 1.232 2.34.245.902.368 1.897.368 2.985V28.6c-.294.05-.705.116-1.23.203-.53.086-1.123.167-1.785.24-.662.075-1.38.143-2.15.205-.773.06-1.54.093-2.3.093-1.078 0-2.07-.11-2.977-.333-.907-.223-1.69-.576-2.353-1.057-.662-.483-1.177-1.12-1.544-1.91-.37-.793-.553-1.745-.553-2.858 0-1.063.214-1.98.644-2.745.43-.767 1.01-1.385 1.747-1.855.735-.47 1.593-.817 2.574-1.04.98-.222 2.01-.333 3.09-.333.342 0 .698.017 1.065.054.368.037.718.088 1.048.15.33.06.62.116.865.166s.416.087.514.11v-.963c0-.57-.06-1.132-.184-1.69-.123-.555-.343-1.05-.662-1.482-.318-.433-.753-.78-1.305-1.04-.55-.26-1.268-.39-2.15-.39-1.128 0-2.114.082-2.96.243-.845.16-1.476.328-1.893.5l-.404-2.856c.44-.198 1.177-.39 2.206-.575 1.028-.186 2.143-.28 3.344-.28zm.295 17.29c.807 0 1.525-.02 2.15-.057.625-.036 1.145-.103 1.562-.203v-5.75c-.245-.124-.644-.23-1.195-.316-.552-.085-1.22-.13-2.004-.13-.514 0-1.06.04-1.636.113-.576.074-1.103.23-1.58.463-.48.236-.878.557-1.196.965-.317.41-.477.947-.477 1.615 0 1.237.392 2.096 1.177 2.578.784.483 1.85.724 3.2.724z" fill="#fff"/></g></g></g></g></g></svg>