<?xml version="1.0" encoding="UTF-8" standalone="no"?>
<svg width="28px" height="19px" viewBox="0 0 28 19" version="1.1" xmlns="http://www.w3.org/2000/svg" xmlns:xlink="http://www.w3.org/1999/xlink" xmlns:sketch="http://www.bohemiancoding.com/sketch/ns">
    <!-- Generator: Sketch 3.3.3 (12072) - http://www.bohemiancoding.com/sketch -->
    <title>logo-UX</title>
    <desc>Created with Sketch.</desc>
    <defs></defs>
    <g id="Page-1" stroke="none" stroke-width="1" fill="none" fill-rule="evenodd" sketch:type="MSPage">
        <g id="Artboard-1" sketch:type="MSArtboardGroup" transform="translate(-572.000000, -114.000000)" fill="#FFFFFF">
            <path d="M581.432162,114.664529 L585.722094,114.664529 L585.722094,125.405281 C585.722094,126.470349 585.593967,127.476005 585.337708,128.422277 C585.08145,129.368549 584.679668,130.196013 584.132351,130.904693 C583.585034,131.613373 583.010834,132.111081 582.409735,132.39783 C581.574522,132.799279 580.57165,133 579.401087,133 C578.724059,133 577.98535,132.938555 577.184938,132.815662 C576.384527,132.69277 575.715418,132.449036 575.177592,132.084455 C574.639766,131.719874 574.14782,131.201685 573.701741,130.529873 C573.255662,129.858061 572.950371,129.165776 572.785859,128.453 C572.52011,127.306003 572.387237,126.290107 572.387237,125.405281 L572.387237,114.664529 L576.67717,114.664529 L576.67717,125.663354 C576.67717,126.646494 576.887552,127.414561 577.308322,127.967577 C577.729091,128.520593 578.312782,128.797097 579.059411,128.797097 C579.799713,128.797097 580.38024,128.52469 580.80101,127.979866 C581.22178,127.435043 581.432162,126.66288 581.432162,125.663354 L581.432162,114.664529 Z M584.695168,114.664529 L589.431177,114.664529 L591.898838,120.206954 L594.29057,114.664529 L598.979124,114.664529 L594.651228,123.389854 L599.387237,132.680481 L594.556318,132.680481 L591.813419,126.892273 L589.061028,132.680481 L584.258582,132.680481 L589.061028,123.29154 L584.695168,114.664529 Z" id="logo-UX" sketch:type="MSShapeGroup"></path>
        </g>
    </g>
</svg>