<svg width="28" height="19" viewBox="0 0 28 19" xmlns="http://www.w3.org/2000/svg"><title>logo UX</title><desc>Created with Sketch.</desc><g fill="none" fill-rule="evenodd"><g fill="#fff"><path d="M9.432.665h4.29v10.74c0 1.065-.128 2.07-.384 3.017-.257.947-.658 1.774-1.206 2.483-.547.708-1.12 1.206-1.722 1.493-.835.4-1.838.602-3.01.602-.676 0-1.415-.06-2.215-.184-.8-.123-1.47-.367-2.007-.732-.538-.364-1.03-.882-1.476-1.554-.446-.672-.752-1.364-.916-2.077-.266-1.147-.4-2.163-.4-3.048V.665h4.29v10.998c0 .983.212 1.752.632 2.305.42.553 1.005.83 1.75.83.742 0 1.322-.273 1.743-.818.422-.545.632-1.317.632-2.317V.665zm3.263 0h4.736l2.47 5.542L22.29.665h4.69L22.65 9.39l4.737 9.29h-4.83l-2.744-5.788-2.752 5.788h-4.8l4.8-9.388L12.696.665z"/></g></g></svg>