<?xml version="1.0" encoding="UTF-8" standalone="no"?>
<svg viewBox="0 0 120 18" version="1.1" xmlns="http://www.w3.org/2000/svg" xmlns:xlink="http://www.w3.org/1999/xlink" xmlns:sketch="http://www.bohemiancoding.com/sketch/ns">
    <!-- Generator: Sketch 3.3.3 (12072) - http://www.bohemiancoding.com/sketch -->
    <title>logo-instantsearch</title>
    <desc>Created with Sketch.</desc>
    <defs>
        <path d="M69.9386667,14.13 C69.6526653,14.13 69.3558349,14.1083335 69.0481667,14.065 C68.7404985,14.0216664 68.4350016,13.963167 68.1316667,13.8895 C67.8283319,13.815833 67.5380014,13.7248339 67.2606667,13.6165 C66.983332,13.5081661 66.7406678,13.3890006 66.5326667,13.259 L67.3516667,11.855 C67.8023356,12.1150013 68.2399979,12.3143326 68.6646667,12.453 C69.0893355,12.5916674 69.4966648,12.661 69.8866667,12.661 C70.1900016,12.661 70.4218326,12.6133338 70.5821667,12.518 C70.7425008,12.4226662 70.8226667,12.2840009 70.8226667,12.102 C70.8226667,11.9199991 70.7143345,11.7791672 70.4976667,11.6795 C70.280999,11.5798328 69.908336,11.4606674 69.3796667,11.322 C68.9203311,11.2006661 68.530335,11.0793339 68.2096667,10.958 C67.8889984,10.8366661 67.6311677,10.7001674 67.4361667,10.5485 C67.2411657,10.3968326 67.1003338,10.2256676 67.0136667,10.035 C66.9269996,9.84433238 66.8836667,9.6190013 66.8836667,9.359 C66.8836667,9.0123316 66.955166,8.69600143 67.0981667,8.41 C67.2411674,8.12399857 67.4383321,7.88133433 67.6896667,7.682 C67.9410013,7.48266567 68.2378317,7.32666723 68.5801667,7.214 C68.9225018,7.10133277 69.2973313,7.045 69.7046667,7.045 C70.1813358,7.045 70.6688309,7.11649928 71.1671667,7.2595 C71.6655025,7.40250071 72.1529977,7.59966541 72.6296667,7.851 L71.8106667,9.164 C71.3859979,8.92999883 71.006835,8.75883387 70.6731667,8.6505 C70.3394984,8.54216612 70.0166683,8.488 69.7046667,8.488 C69.4446654,8.488 69.2301676,8.53349954 69.0611667,8.6245 C68.8921659,8.71550045 68.8076667,8.86066567 68.8076667,9.06 C68.8076667,9.15533381 68.8293332,9.23549967 68.8726667,9.3005 C68.9160003,9.36550032 68.9874995,9.42616638 69.0871667,9.4825 C69.1868339,9.53883361 69.3189992,9.59083309 69.4836667,9.6385 C69.6483342,9.6861669 69.8519988,9.74033303 70.0946667,9.801 C70.5973359,9.93100065 71.0219983,10.0609993 71.3686667,10.191 C71.7153351,10.3210006 71.996999,10.4661659 72.2136667,10.6265 C72.4303345,10.7868341 72.5863329,10.970999 72.6816667,11.179 C72.7770005,11.387001 72.8246667,11.6339986 72.8246667,11.92 C72.8246667,12.2580017 72.7575007,12.5634986 72.6231667,12.8365 C72.4888327,13.1095014 72.2960013,13.3413324 72.0446667,13.532 C71.7933321,13.7226676 71.4900018,13.8699995 71.1346667,13.974 C70.7793316,14.0780005 70.3806689,14.13 69.9386667,14.13 Z M76.9673334,14.13 C76.3953305,14.13 75.8818357,14.0368343 75.4268334,13.8505 C74.9718311,13.6641657 74.5861683,13.4106683 74.2698334,13.09 C73.9534985,12.7693317 73.7130009,12.3988354 73.5483334,11.9785 C73.3836659,11.5581646 73.3013334,11.1183356 73.3013334,10.659 C73.3013334,10.1649975 73.3836659,9.69916885 73.5483334,9.2615 C73.7130009,8.82383114 73.9513318,8.44033498 74.2633334,8.111 C74.5753349,7.78166502 74.9588311,7.52166762 75.4138334,7.331 C75.8688357,7.14033238 76.3866638,7.045 76.9673334,7.045 C77.548003,7.045 78.0636645,7.14033238 78.5143334,7.331 C78.9650023,7.52166762 79.3463318,7.77949837 79.6583334,8.1045 C79.9703349,8.42950162 80.2064992,8.80433121 80.3668334,9.229 C80.5271675,9.65366879 80.6073334,10.0999977 80.6073334,10.568 C80.6073334,10.6893339 80.6030001,10.8084994 80.5943334,10.9255 C80.5856667,11.0425006 80.5726668,11.1443329 80.5553334,11.231 L75.5113334,11.231 C75.5460002,11.6903356 75.7128319,12.0391655 76.0118334,12.2775 C76.3108349,12.5158345 76.6509981,12.635 77.0323334,12.635 C77.3356682,12.635 77.6281653,12.5613341 77.9098334,12.414 C78.1915015,12.2666659 78.3799996,12.0673346 78.4753334,11.816 L80.2433334,12.31 C79.9746654,12.847336 79.5586695,13.2849983 78.9953334,13.623 C78.4319972,13.9610017 77.756004,14.13 76.9673334,14.13 Z M78.4103334,9.944 C78.3669998,9.5106645 78.2110014,9.16833459 77.9423334,8.917 C77.6736654,8.66566541 77.340002,8.54 76.9413334,8.54 C76.533998,8.54 76.198168,8.66783205 75.9338334,8.9235 C75.6694987,9.17916794 75.5156669,9.51933121 75.4723334,9.944 L78.4103334,9.944 Z M83.3850001,14.13 C83.0469984,14.13 82.7328348,14.0758339 82.4425001,13.9675 C82.1521653,13.8591661 81.9030011,13.707501 81.6950001,13.5125 C81.486999,13.317499 81.322334,13.0878347 81.2010001,12.8235 C81.0796661,12.5591653 81.0190001,12.2710016 81.0190001,11.959 C81.0190001,11.6209983 81.0904993,11.3133347 81.2335001,11.036 C81.3765008,10.7586653 81.5779988,10.5203343 81.8380001,10.321 C82.0980014,10.1216657 82.4056649,9.96566723 82.7610001,9.853 C83.1163352,9.74033277 83.5106646,9.684 83.9440001,9.684 C84.2300015,9.684 84.507332,9.70783309 84.7760001,9.7555 C85.0446681,9.8031669 85.2786657,9.87466619 85.4780001,9.97 L85.4780001,9.658 C85.4780001,8.86932939 85.0230046,8.475 84.1130001,8.475 C83.7403315,8.475 83.3850017,8.5378327 83.0470001,8.6635 C82.7089984,8.78916729 82.3536686,8.97766541 81.9810001,9.229 L81.3700001,7.929 C81.820669,7.63433186 82.2886643,7.41333407 82.7740001,7.266 C83.2593358,7.11866593 83.7749973,7.045 84.3210001,7.045 C85.3523385,7.045 86.1496639,7.28766424 86.7130001,7.773 C87.2763362,8.25833576 87.5580001,8.96899532 87.5580001,9.905 L87.5580001,11.66 C87.5580001,11.868001 87.5969997,12.0131663 87.6750001,12.0955 C87.7530004,12.1778337 87.8916657,12.2276666 88.0910001,12.245 L88.0910001,14 C87.8916657,14.0433335 87.7075009,14.0714999 87.5385001,14.0845 C87.3694992,14.0975001 87.2200007,14.104 87.0900001,14.104 C86.7086648,14.0953333 86.4183344,14.0173341 86.2190001,13.87 C86.0196657,13.7226659 85.8940003,13.5103347 85.8420001,13.233 L85.8030001,12.921 C85.4996652,13.3110019 85.1378355,13.609999 84.7175001,13.818 C84.2971646,14.026001 83.8530024,14.13 83.3850001,14.13 Z M83.9960001,12.635 C84.2213345,12.635 84.4401657,12.5960004 84.6525001,12.518 C84.8648345,12.4399996 85.0403327,12.3360007 85.1790001,12.206 C85.3783344,12.0499992 85.4780001,11.8853342 85.4780001,11.712 L85.4780001,11.062 C85.2959991,10.9926663 85.0988345,10.9385002 84.8865001,10.8995 C84.6741657,10.8604998 84.477001,10.841 84.2950001,10.841 C83.9136648,10.841 83.5995013,10.9276658 83.3525001,11.101 C83.1054988,11.2743342 82.9820001,11.4996653 82.9820001,11.777 C82.9820001,12.0283346 83.0773324,12.2341659 83.2680001,12.3945 C83.4586677,12.5548341 83.7013319,12.635 83.9960001,12.635 Z M93.3256667,8.956 C92.8229976,8.96466671 92.3701687,9.04699922 91.9671667,9.203 C91.5641647,9.35900078 91.2673344,9.59299844 91.0766667,9.905 L91.0766667,14 L88.9966667,14 L88.9966667,7.175 L90.9076667,7.175 L90.9076667,8.553 C91.1503346,8.09366437 91.4558316,7.73616795 91.8241667,7.4805 C92.1925019,7.22483206 92.5846647,7.08833342 93.0006667,7.071 C93.1740009,7.071 93.2823332,7.07533329 93.3256667,7.084 L93.3256667,8.956 Z M93.7113334,10.581 C93.7113334,10.1129977 93.7936659,9.66450214 93.9583334,9.2355 C94.1230009,8.80649785 94.3613318,8.42950162 94.6733334,8.1045 C94.985335,7.77949837 95.3688311,7.52166762 95.8238334,7.331 C96.2788357,7.14033238 96.7966638,7.045 97.3773334,7.045 C98.166004,7.045 98.8289974,7.21183166 99.3663334,7.5455 C99.9036694,7.87916833 100.306665,8.31466398 100.575333,8.852 L98.5473334,9.463 C98.2786654,9.0296645 97.884336,8.813 97.3643334,8.813 C96.9309979,8.813 96.5691682,8.97333173 96.2788334,9.294 C95.9884986,9.61466827 95.8433334,10.043664 95.8433334,10.581 C95.8433334,10.849668 95.882333,11.0944989 95.9603334,11.3155 C96.0383338,11.5365011 96.146666,11.7249992 96.2853334,11.881 C96.4240008,12.0370008 96.5864991,12.1583329 96.7728334,12.245 C96.9591677,12.3316671 97.1563324,12.375 97.3643334,12.375 C97.6243347,12.375 97.8626657,12.3121673 98.0793334,12.1865 C98.2960012,12.0608327 98.4563329,11.8983343 98.5603334,11.699 L100.588333,12.323 C100.336999,12.8516693 99.9361695,13.2849983 99.3858334,13.623 C98.8354973,13.9610017 98.166004,14.13 97.3773334,14.13 C96.8053305,14.13 96.2918357,14.032501 95.8368334,13.8375 C95.3818311,13.642499 94.9961683,13.3825016 94.6798334,13.0575 C94.3634985,12.7324984 94.1230009,12.3555021 93.9583334,11.9265 C93.7936659,11.4974979 93.7113334,11.0490023 93.7113334,10.581 Z M107.994,14 L105.914,14 L105.914,10.165 C105.914,9.72299779 105.825168,9.39800104 105.6475,9.19 C105.469833,8.98199896 105.229335,8.878 104.926,8.878 C104.804666,8.878 104.672501,8.90616638 104.5295,8.9625 C104.386499,9.01883361 104.247834,9.10116612 104.1135,9.2095 C103.979166,9.31783387 103.855667,9.44566593 103.743,9.593 C103.630333,9.74033407 103.543667,9.90499909 103.483,10.087 L103.483,14 L101.403,14 L101.403,4.51 L103.483,4.51 L103.483,8.319 C103.734335,7.91166463 104.065831,7.5975011 104.4775,7.3765 C104.889169,7.15549889 105.346331,7.045 105.849,7.045 C106.308336,7.045 106.678832,7.12516586 106.9605,7.2855 C107.242168,7.44583413 107.458833,7.64949876 107.6105,7.8965 C107.762168,8.14350123 107.864,8.42083179 107.916,8.7285 C107.968,9.0361682 107.994,9.33733186 107.994,9.632 L107.994,14 Z" id="path-1"></path>
    </defs>
    <g id="Page-1" stroke="none" stroke-width="1" fill="none" fill-rule="evenodd" sketch:type="MSPage">
        <g id="Artboard-1" sketch:type="MSArtboardGroup" transform="translate(-423.000000, -240.000000)">
            <g id="logo-instantsearch" sketch:type="MSLayerGroup" transform="translate(423.000000, 240.000000)">
                <g id="icon-widget-copy" fill="#FFFFFF" sketch:type="MSShapeGroup">
                    <path d="M13.256376,9.24412006 C13.2887081,9.0607557 13.245693,8.86966634 13.1453423,8.72407463 L11.6488082,6.5528592 C12.190504,5.99776743 12.5521388,5.28302888 12.6871728,4.517213 C13.0570899,2.41930893 11.6827219,0.425335579 9.61556934,0.0608408137 C7.54841681,-0.303653951 5.57495426,1.10000654 5.20503717,3.19791061 C4.83512008,5.29581468 6.20948811,7.28978803 8.27664064,7.6542828 C9.03123103,7.78733744 9.81608396,7.68661609 10.5148504,7.35940698 L12.0123354,9.52522934 C12.1117351,9.67621411 12.2737845,9.78263823 12.454461,9.81449639 C12.8264422,9.88008671 13.1898099,9.62163493 13.256376,9.24412006 Z M11.3251198,4.2756768 C11.0902367,5.60776499 9.83097967,6.50343406 8.51841753,6.27199394 C7.20585538,6.04055382 6.32887768,4.76820892 6.56376077,3.43612073 C6.79864386,2.10403254 8.05790091,1.20836347 9.37046306,1.43980359 C10.6830252,1.67124371 11.5600029,2.94358861 11.3251198,4.2756768 Z M8.32087732,13.2727234 C8.45253569,13.1410651 8.63373937,13.0666966 8.8105599,13.0653911 L11.4474921,13.0459221 C11.5914928,12.2838033 11.9695471,11.5776122 12.5194144,11.0277449 C14.0257411,9.52141819 16.4474136,9.50353845 17.9316602,10.9877851 C19.4159068,12.4720317 19.3980271,14.8937041 17.8917004,16.4000308 C16.3853737,17.9063575 13.9637012,17.9242372 12.4794546,16.4399906 C11.9376474,15.8981834 11.5699803,15.1974981 11.4372184,14.4374227 L8.80415845,14.4530195 C8.62346562,14.4581973 8.44334039,14.3864966 8.3136119,14.2567681 C8.04652382,13.9896801 8.04981596,13.5437848 8.32087732,13.2727234 Z M13.4894149,12.0112961 C12.5329556,12.9677555 12.5215466,14.5130132 13.463986,15.4554525 C14.4064253,16.3978919 15.951683,16.3864829 16.9081423,15.4300236 C17.8646017,14.4735642 17.8760107,12.9283065 16.9335713,11.9858672 C15.991132,11.0434278 14.4458743,11.0548368 13.4894149,12.0112961 Z M7.72638304,8.46745812 C7.77142722,8.64812045 7.74184663,8.84174491 7.65189636,8.99398207 L6.31046409,11.2643015 C6.88956156,11.7802543 7.30017312,12.4680254 7.4882988,13.2225563 C8.00365718,15.2895459 6.77172959,17.374533 4.7350384,17.8823372 C2.69834722,18.3901413 0.631777521,17.1275619 0.116419139,15.0605723 C-0.398939242,12.9935827 0.832988349,10.9085955 2.86967953,10.4007914 C3.61315035,10.2154233 4.40311739,10.2611507 5.12300658,10.5388193 L6.46576368,8.2738135 C6.55438912,8.11626274 6.70861994,7.99879387 6.88663408,7.95440996 C7.25313378,7.86303132 7.63364503,8.09550627 7.72638304,8.46745812 Z M6.14563783,13.5590579 C5.81840513,12.2465992 4.49973685,11.4409533 3.20651648,11.7633894 C1.91329611,12.0858254 1.12720899,13.4162458 1.45444168,14.7287045 C1.78167438,16.0411632 3.10034267,16.8468091 4.39356304,16.524373 C5.6867834,16.201937 6.47287053,14.8715166 6.14563783,13.5590579 Z" id="Icons/Search"></path>
                </g>
                <path d="M23.702,14 L23.702,7.175 L25.782,7.175 L25.782,14 L23.702,14 Z M23.702,6.395 L23.702,4.51 L25.782,4.51 L25.782,6.395 L23.702,6.395 Z M33.6686667,14 L31.5886667,14 L31.5886667,10.165 C31.5886667,9.71433108 31.5041675,9.38716768 31.3351667,9.1835 C31.1661658,8.97983231 30.9430014,8.878 30.6656667,8.878 C30.5183326,8.878 30.3688341,8.90833303 30.2171667,8.969 C30.0654992,9.02966697 29.9225007,9.11416612 29.7881667,9.2225 C29.6538327,9.33083387 29.5303339,9.45866593 29.4176667,9.606 C29.3049994,9.75333407 29.2183336,9.9136658 29.1576667,10.087 L29.1576667,14 L27.0776667,14 L27.0776667,7.175 L28.9496667,7.175 L28.9496667,8.319 C29.2010013,7.91166463 29.556331,7.5975011 30.0156667,7.3765 C30.4750023,7.15549889 31.0036637,7.045 31.6016667,7.045 C32.0436689,7.045 32.4011653,7.12516586 32.6741667,7.2855 C32.947168,7.44583413 33.1573326,7.65383205 33.3046667,7.9095 C33.4520007,8.16516794 33.5494998,8.44466515 33.5971667,8.748 C33.6448336,9.05133485 33.6686667,9.34599857 33.6686667,9.632 L33.6686667,14 Z M37.7723333,14.13 C37.4863319,14.13 37.1895016,14.1083335 36.8818333,14.065 C36.5741651,14.0216664 36.2686682,13.963167 35.9653333,13.8895 C35.6619985,13.815833 35.3716681,13.7248339 35.0943333,13.6165 C34.8169986,13.5081661 34.5743344,13.3890006 34.3663333,13.259 L35.1853333,11.855 C35.6360023,12.1150013 36.0736646,12.3143326 36.4983333,12.453 C36.9230021,12.5916674 37.3303314,12.661 37.7203333,12.661 C38.0236682,12.661 38.2554992,12.6133338 38.4158333,12.518 C38.5761675,12.4226662 38.6563333,12.2840009 38.6563333,12.102 C38.6563333,11.9199991 38.5480011,11.7791672 38.3313333,11.6795 C38.1146656,11.5798328 37.7420027,11.4606674 37.2133333,11.322 C36.7539977,11.2006661 36.3640016,11.0793339 36.0433333,10.958 C35.7226651,10.8366661 35.4648343,10.7001674 35.2698333,10.5485 C35.0748324,10.3968326 34.9340004,10.2256676 34.8473333,10.035 C34.7606662,9.84433238 34.7173333,9.6190013 34.7173333,9.359 C34.7173333,9.0123316 34.7888326,8.69600143 34.9318333,8.41 C35.0748341,8.12399857 35.2719988,7.88133433 35.5233333,7.682 C35.7746679,7.48266567 36.0714983,7.32666723 36.4138333,7.214 C36.7561684,7.10133277 37.130998,7.045 37.5383333,7.045 C38.0150024,7.045 38.5024975,7.11649928 39.0008333,7.2595 C39.4991692,7.40250071 39.9866643,7.59966541 40.4633333,7.851 L39.6443333,9.164 C39.2196646,8.92999883 38.8405017,8.75883387 38.5068333,8.6505 C38.173165,8.54216612 37.8503349,8.488 37.5383333,8.488 C37.278332,8.488 37.0638342,8.53349954 36.8948333,8.6245 C36.7258325,8.71550045 36.6413333,8.86066567 36.6413333,9.06 C36.6413333,9.15533381 36.6629998,9.23549967 36.7063333,9.3005 C36.7496669,9.36550032 36.8211662,9.42616638 36.9208333,9.4825 C37.0205005,9.53883361 37.1526659,9.59083309 37.3173333,9.6385 C37.4820008,9.6861669 37.6856655,9.74033303 37.9283333,9.801 C38.4310025,9.93100065 38.8556649,10.0609993 39.2023333,10.191 C39.5490017,10.3210006 39.8306656,10.4661659 40.0473333,10.6265 C40.2640011,10.7868341 40.4199995,10.970999 40.5153333,11.179 C40.6106672,11.387001 40.6583333,11.6339986 40.6583333,11.92 C40.6583333,12.2580017 40.5911674,12.5634986 40.4568333,12.8365 C40.3224993,13.1095014 40.1296679,13.3413324 39.8783333,13.532 C39.6269988,13.7226676 39.3236685,13.8699995 38.9683333,13.974 C38.6129982,14.0780005 38.2143356,14.13 37.7723333,14.13 L37.7723333,14.13 Z M45.906,13.636 C45.6199986,13.7573339 45.2950018,13.8699995 44.931,13.974 C44.5669982,14.0780005 44.1943353,14.13 43.813,14.13 C43.5529987,14.13 43.3081678,14.0975003 43.0785,14.0325 C42.8488322,13.9674997 42.6473342,13.8635007 42.474,13.7205 C42.3006658,13.5774993 42.1641672,13.3890012 42.0645,13.155 C41.9648329,12.9209988 41.915,12.639335 41.915,12.31 L41.915,8.748 L41.044,8.748 L41.044,7.175 L41.915,7.175 L41.915,5.004 L43.995,5.004 L43.995,7.175 L45.386,7.175 L45.386,8.748 L43.995,8.748 L43.995,11.595 C43.995,11.8203345 44.0534994,11.9828328 44.1705,12.0825 C44.2875006,12.1821672 44.4326658,12.232 44.606,12.232 C44.7533341,12.232 44.9093325,12.2060003 45.074,12.154 C45.2386675,12.1019997 45.3859994,12.045667 45.516,11.985 L45.906,13.636 Z M48.5406667,14.13 C48.202665,14.13 47.8885015,14.0758339 47.5981667,13.9675 C47.3078319,13.8591661 47.0586677,13.707501 46.8506667,13.5125 C46.6426657,13.317499 46.4780006,13.0878347 46.3566667,12.8235 C46.2353328,12.5591653 46.1746667,12.2710016 46.1746667,11.959 C46.1746667,11.6209983 46.246166,11.3133347 46.3891667,11.036 C46.5321674,10.7586653 46.7336654,10.5203343 46.9936667,10.321 C47.253668,10.1216657 47.5613316,9.96566723 47.9166667,9.853 C48.2720018,9.74033277 48.6663312,9.684 49.0996667,9.684 C49.3856681,9.684 49.6629987,9.70783309 49.9316667,9.7555 C50.2003347,9.8031669 50.4343324,9.87466619 50.6336667,9.97 L50.6336667,9.658 C50.6336667,8.86932939 50.1786712,8.475 49.2686667,8.475 C48.8959982,8.475 48.5406684,8.5378327 48.2026667,8.6635 C47.864665,8.78916729 47.5093352,8.97766541 47.1366667,9.229 L46.5256667,7.929 C46.9763356,7.63433186 47.4443309,7.41333407 47.9296667,7.266 C48.4150025,7.11866593 48.930664,7.045 49.4766667,7.045 C50.5080052,7.045 51.3053305,7.28766424 51.8686667,7.773 C52.4320028,8.25833576 52.7136667,8.96899532 52.7136667,9.905 L52.7136667,11.66 C52.7136667,11.868001 52.7526663,12.0131663 52.8306667,12.0955 C52.9086671,12.1778337 53.0473324,12.2276666 53.2466667,12.245 L53.2466667,14 C53.0473324,14.0433335 52.8631675,14.0714999 52.6941667,14.0845 C52.5251658,14.0975001 52.3756673,14.104 52.2456667,14.104 C51.8643315,14.0953333 51.574001,14.0173341 51.3746667,13.87 C51.1753324,13.7226659 51.049667,13.5103347 50.9976667,13.233 L50.9586667,12.921 C50.6553318,13.3110019 50.2935021,13.609999 49.8731667,13.818 C49.4528313,14.026001 49.008669,14.13 48.5406667,14.13 L48.5406667,14.13 Z M49.1516667,12.635 C49.3770012,12.635 49.5958323,12.5960004 49.8081667,12.518 C50.0205011,12.4399996 50.1959993,12.3360007 50.3346667,12.206 C50.534001,12.0499992 50.6336667,11.8853342 50.6336667,11.712 L50.6336667,11.062 C50.4516658,10.9926663 50.2545011,10.9385002 50.0421667,10.8995 C49.8298323,10.8604998 49.6326676,10.841 49.4506667,10.841 C49.0693315,10.841 48.7551679,10.9276658 48.5081667,11.101 C48.2611655,11.2743342 48.1376667,11.4996653 48.1376667,11.777 C48.1376667,12.0283346 48.2329991,12.2341659 48.4236667,12.3945 C48.6143343,12.5548341 48.8569986,12.635 49.1516667,12.635 L49.1516667,12.635 Z M60.7433334,14 L58.6633334,14 L58.6633334,10.165 C58.6633334,9.71433108 58.5788342,9.38716768 58.4098334,9.1835 C58.2408325,8.97983231 58.0176681,8.878 57.7403334,8.878 C57.5929993,8.878 57.4435008,8.90833303 57.2918334,8.969 C57.1401659,9.02966697 56.9971674,9.11416612 56.8628334,9.2225 C56.7284994,9.33083387 56.6050006,9.45866593 56.4923334,9.606 C56.3796661,9.75333407 56.2930003,9.9136658 56.2323334,10.087 L56.2323334,14 L54.1523334,14 L54.1523334,7.175 L56.0243334,7.175 L56.0243334,8.319 C56.275668,7.91166463 56.6309977,7.5975011 57.0903334,7.3765 C57.549669,7.15549889 58.0783304,7.045 58.6763334,7.045 C59.1183356,7.045 59.475832,7.12516586 59.7488334,7.2855 C60.0218347,7.44583413 60.2319993,7.65383205 60.3793334,7.9095 C60.5266674,8.16516794 60.6241665,8.44466515 60.6718334,8.748 C60.7195003,9.05133485 60.7433334,9.34599857 60.7433334,9.632 L60.7433334,14 Z M66.394,13.636 C66.1079986,13.7573339 65.7830019,13.8699995 65.419,13.974 C65.0549982,14.0780005 64.6823353,14.13 64.301,14.13 C64.0409987,14.13 63.7961679,14.0975003 63.5665,14.0325 C63.3368322,13.9674997 63.1353342,13.8635007 62.962,13.7205 C62.7886658,13.5774993 62.6521672,13.3890012 62.5525,13.155 C62.4528329,12.9209988 62.403,12.639335 62.403,12.31 L62.403,8.748 L61.532,8.748 L61.532,7.175 L62.403,7.175 L62.403,5.004 L64.483,5.004 L64.483,7.175 L65.874,7.175 L65.874,8.748 L64.483,8.748 L64.483,11.595 C64.483,11.8203345 64.5414995,11.9828328 64.6585,12.0825 C64.7755006,12.1821672 64.9206658,12.232 65.094,12.232 C65.2413341,12.232 65.3973325,12.2060003 65.562,12.154 C65.7266675,12.1019997 65.8739994,12.045667 66.004,11.985 L66.394,13.636 Z M109.419667,14 L109.419667,12.895 L109.991667,12.895 L109.991667,14 L109.419667,14 Z M110.520333,16.301 C110.242999,16.301 109.985168,16.264167 109.746833,16.1905 C109.508499,16.116833 109.294001,15.9933342 109.103333,15.82 L109.454333,15.391 C109.601667,15.5123339 109.761999,15.5946665 109.935333,15.638 C110.108668,15.6813336 110.281999,15.703 110.455333,15.703 C110.620001,15.703 110.780333,15.6705003 110.936333,15.6055 C111.092334,15.5404997 111.230999,15.4495006 111.352333,15.3325 C111.473667,15.2154994 111.573333,15.0768341 111.651333,14.9165 C111.729334,14.7561659 111.768333,14.5806676 111.768333,14.39 L111.768333,7.24 L112.418333,7.24 L112.418333,14.364 C112.418333,14.6500014 112.364167,14.9099988 112.255833,15.144 C112.1475,15.3780012 112.002334,15.5816658 111.820333,15.755 C111.638333,15.9283342 111.434668,16.0626662 111.209333,16.158 C110.983999,16.2533338 110.754335,16.301 110.520333,16.301 L110.520333,16.301 Z M111.768333,5.706 L111.768333,4.51 L112.418333,4.51 L112.418333,5.706 L111.768333,5.706 Z M116.47,14.13 C115.949997,14.13 115.451669,14.0433342 114.975,13.87 C114.498331,13.6966658 114.082335,13.4366684 113.727,13.09 L114.052,12.648 C114.416002,12.977335 114.792998,13.2199992 115.183,13.376 C115.573002,13.5320008 116.001998,13.61 116.47,13.61 C117.059336,13.61 117.533832,13.4865012 117.8935,13.2395 C118.253169,12.9924988 118.433,12.6480022 118.433,12.206 C118.433,11.997999 118.387501,11.8225007 118.2965,11.6795 C118.2055,11.5364993 118.069001,11.4151672 117.887,11.3155 C117.704999,11.2158328 117.479668,11.1270004 117.211,11.049 C116.942332,10.9709996 116.630335,10.8886671 116.275,10.802 C115.893665,10.7153329 115.562168,10.6286671 115.2805,10.542 C114.998832,10.4553329 114.767001,10.3513339 114.585,10.23 C114.402999,10.1086661 114.266501,9.9613342 114.1755,9.788 C114.0845,9.6146658 114.039,9.39366801 114.039,9.125 C114.039,8.78699831 114.103999,8.49233459 114.234,8.241 C114.364001,7.98966541 114.543832,7.78166749 114.7735,7.617 C115.003168,7.45233251 115.267499,7.32883375 115.5665,7.2465 C115.865502,7.16416626 116.183998,7.123 116.522,7.123 C117.050669,7.123 117.518665,7.21183245 117.926,7.3895 C118.333335,7.56716756 118.649666,7.79466528 118.875,8.072 L118.511,8.423 C118.285666,8.1629987 117.993169,7.96800065 117.6335,7.838 C117.273832,7.70799935 116.890335,7.643 116.483,7.643 C116.231666,7.643 115.995501,7.66899974 115.7745,7.721 C115.553499,7.77300026 115.360668,7.85533277 115.196,7.968 C115.031333,8.08066723 114.901334,8.22583245 114.806,8.4035 C114.710666,8.58116756 114.663,8.79133212 114.663,9.034 C114.663,9.23333433 114.6955,9.39366606 114.7605,9.515 C114.8255,9.63633394 114.929499,9.7403329 115.0725,9.827 C115.215501,9.9136671 115.399666,9.98949968 115.625,10.0545 C115.850335,10.1195003 116.118999,10.1909996 116.431,10.269 C116.855669,10.3730005 117.232665,10.4726662 117.562,10.568 C117.891335,10.6633338 118.166499,10.7803326 118.3875,10.919 C118.608501,11.0576674 118.7775,11.2223324 118.8945,11.413 C119.011501,11.6036676 119.07,11.8463319 119.07,12.141 C119.07,12.7476697 118.833836,13.2308315 118.3615,13.5905 C117.889164,13.9501685 117.258671,14.13 116.47,14.13 L116.47,14.13 Z" id="instantsearch.js" fill="#FFFFFF" sketch:type="MSShapeGroup"></path>
                <g id="Path">
                    <use fill="#00B7E5" fill-rule="evenodd" sketch:type="MSShapeGroup" xlink:href="#path-1"></use>
                    <use fill="none" xlink:href="#path-1"></use>
                </g>
            </g>
        </g>
    </g>
</svg>