<svg width="175px" height="172px" viewBox="0 0 175 172" version="1.1" xmlns="http://www.w3.org/2000/svg" xmlns:xlink="http://www.w3.org/1999/xlink" xmlns:sketch="http://www.bohemiancoding.com/sketch/ns"><title>sync</title><desc>Created with Sketch.</desc><defs><linearGradient x1="42.9656982%" y1="14.0594482%" x2="85.1531982%" y2="110.153198%" id="linearGradient-1"><stop stop-color="#2CA5C3" offset="0%"/><stop stop-color="#136B90" offset="100%"/></linearGradient><linearGradient x1="10.9344482%" y1="-27.3468018%" x2="73.4344482%" y2="79.6844482%" id="linearGradient-2"><stop stop-color="#51C8E5" offset="0%"/><stop stop-color="#2897C5" offset="100%"/></linearGradient></defs><g id="Page-1" stroke="none" stroke-width="1" fill="none" fill-rule="evenodd" sketch:type="MSPage"><g id="instansearch-website" sketch:type="MSArtboardGroup" transform="translate(-364.000000, -712.000000)"><g id="sync" sketch:type="MSLayerGroup" transform="translate(363.000000, 711.000000)"><path class="sync-path-in" d="M87,33 L33,143 L150.017093,143 L87,33 Z" id="Path-164" stroke="#FFFFFF" stroke-width="3" sketch:type="MSShapeGroup"/><path class="sync-path-out" d="M85.6906741,14.0274625 L16.0085464,153 L167.008546,153 L85.6906741,14.0274625 Z" id="Path-164-Copy" stroke="#FFFFFF" stroke-width="3" sketch:type="MSShapeGroup"/><g id="icon-widget-searchbox-copy-2" transform="translate(53.887237, 0.329058)" sketch:type="MSShapeGroup"><g id="widget-bg" transform="translate(0.112763, 0.670942)"><rect id="Rectangle-1-Copy" fill="url(#linearGradient-1)" x="-2.27373675e-13" y="5" width="64" height="64" rx="4"/><rect id="Rectangle-1" fill="url(#linearGradient-2)" x="-4.54747351e-13" y="0" width="64" height="64" rx="4"/></g><path d="M42.1860684,41.6275695 C42.1860684,41.2108971 42.0146682,40.8064798 41.7330822,40.5246131 L37.5337775,36.321124 C38.5254501,34.8872808 39.0518935,33.171571 39.0518935,31.431351 C39.0518935,26.6641287 35.1953892,22.8037815 30.4329126,22.8037815 C25.6704359,22.8037815 21.8139316,26.6641287 21.8139316,31.431351 C21.8139316,36.1985733 25.6704359,40.0589205 30.4329126,40.0589205 C32.1714002,40.0589205 33.8854021,39.5319524 35.3178179,38.5392918 L39.5171226,42.7305258 C39.7987086,43.0246475 40.2027233,43.1962185 40.6189809,43.1962185 C41.4759819,43.1962185 42.1860684,42.4854244 42.1860684,41.6275695 Z M35.9177186,31.431351 C35.9177186,34.4583534 33.4569016,36.9216225 30.4329126,36.9216225 C27.4089235,36.9216225 24.9481065,34.4583534 24.9481065,31.431351 C24.9481065,28.4043487 27.4089235,25.9410795 30.4329126,25.9410795 C33.4569016,25.9410795 35.9177186,28.4043487 35.9177186,31.431351 Z" id="Icons/Search" fill="#FFFFFF" transform="translate(32.000000, 33.000000) rotate(10.000000) translate(-32.000000, -33.000000) "/></g><g id="icon-widget-menu-copy-2" transform="translate(111.387237, 103.329058)" sketch:type="MSShapeGroup"><g id="widget-bg" transform="translate(0.612763, 0.670942)"><rect id="Rectangle-1-Copy" fill="url(#linearGradient-1)" x="-2.27373675e-13" y="5" width="64" height="64" rx="4"/><rect id="Rectangle-1" fill="url(#linearGradient-2)" x="-4.54747351e-13" y="0" width="64" height="64" rx="4"/></g><path d="M13,19.5 C13,18.6715729 13.6774915,18 14.4950437,18 L51.5049563,18 C52.3306461,18 53,18.6657972 53,19.5 C53,20.3284271 52.3225085,21 51.5049563,21 L14.4950437,21 C13.6693539,21 13,20.3342028 13,19.5 Z M13,32.5 C13,31.6715729 13.6774915,31 14.4950437,31 L51.5049563,31 C52.3306461,31 53,31.6657972 53,32.5 C53,33.3284271 52.3225085,34 51.5049563,34 L14.4950437,34 C13.6693539,34 13,33.3342028 13,32.5 Z M13,45.5 C13,44.6715729 13.6774915,44 14.4950437,44 L51.5049563,44 C52.3306461,44 53,44.6657972 53,45.5 C53,46.3284271 52.3225085,47 51.5049563,47 L14.4950437,47 C13.6693539,47 13,46.3342028 13,45.5 Z" id="Rectangle-13-Copy-5" fill="#FFFFFF"/></g><g id="icon-widget-filter-copy-2" transform="translate(0.387237, 103.329058)" sketch:type="MSShapeGroup"><g id="widget-bg" transform="translate(0.612763, 0.670942)"><rect id="Rectangle-1-Copy" fill="url(#linearGradient-1)" x="-2.27373675e-13" y="5" width="64" height="64" rx="4"/><rect id="Rectangle-1" fill="url(#linearGradient-2)" x="-4.54747351e-13" y="0" width="64" height="64" rx="4"/></g><path d="M29.9712576,40.3755969 C30.0019937,40.4073468 30.0343516,40.438042 30.0683224,40.4675723 C30.7118298,41.0269648 31.6780427,40.9527563 32.2363705,40.3104736 L45.8052699,24.7012404 C46.366424,24.0557064 46.2981578,23.0879471 45.6591058,22.5324277 C45.0155984,21.9730352 44.0493855,22.0472437 43.4910576,22.6895264 L30.9982116,37.0609019 L24.7655866,29.8910869 C24.2114311,29.253604 23.2486006,29.1832865 22.6050932,29.7426789 C21.9660412,30.2981984 21.8969125,31.2649656 22.4513744,31.9028009 L29.4973128,40.0082259 C29.6340561,40.1655311 29.7956839,40.2883014 29.9712576,40.3755969 Z" id="Rectangle-10-Copy" fill="#FFFFFF"/></g></g></g></g></svg>