<svg width="176" height="168" viewBox="0 0 176 168" xmlns="http://www.w3.org/2000/svg"><title>sync</title><desc>Created with Sketch.</desc><g fill="none" fill-rule="evenodd"><g><g><path class="path" d="M86 32L32 142h117.017L86 32z" stroke="#fff" stroke-width="3"/><path class="path2" d="M84.69 13.027L15.01 152h151L84.69 13.027z" stroke="#fff" stroke-width="3"/><g><g id="Group" transform="translate(52.887 .329)"><rect id="Rectangle-1" stroke="#2897C5" stroke-width="2" fill="#2897C5" width="64" height="64" rx="8"/><circle id="Oval-1" fill="#147CA7" cx="8" cy="8" r="4"/><circle id="Oval-1-Copy" fill="#147CA7" cx="55" cy="8" r="4"/><circle id="Oval-1-Copy-2" fill="#147CA7" cx="55" cy="56" r="4"/><circle id="Oval-1-Copy-3" fill="#147CA7" cx="8" cy="56" r="4"/></g><path d="M93.42 42.6c.072-.41-.027-.84-.255-1.166l-3.405-4.87c1.226-1.24 2.043-2.84 2.346-4.553.83-4.695-2.297-9.168-6.988-9.997-4.69-.83-9.162 2.303-9.99 7-.83 4.694 2.296 9.168 6.987 9.996 1.713.302 3.493.08 5.076-.647l3.408 4.86c.226.337.595.577 1.005.65.844.148 1.667-.428 1.816-1.273zm-4.4-11.134c-.528 2.98-3.38 4.98-6.36 4.453-2.978-.527-4.973-3.382-4.446-6.363.527-2.982 3.38-4.98 6.358-4.454 2.978.526 4.974 3.38 4.447 6.363z" fill="#fff"/></g><g><g transform="translate(111.387 103.329)"><rect id="Rectangle-1" stroke="#2897C5" stroke-width="2" fill="#2897C5" width="64" height="64" rx="8"/><circle id="Oval-1" fill="#147CA7" cx="8" cy="8" r="4"/><circle id="Oval-1-Copy" fill="#147CA7" cx="55" cy="8" r="4"/><circle id="Oval-1-Copy-2" fill="#147CA7" cx="55" cy="56" r="4"/><circle id="Oval-1-Copy-3" fill="#147CA7" cx="8" cy="56" r="4"/></g><path d="M123.387 121.83c0-.83.677-1.5 1.495-1.5h37.01c.826 0 1.495.665 1.495 1.5 0 .827-.677 1.5-1.495 1.5h-37.01c-.826 0-1.495-.667-1.495-1.5zm0 13c0-.83.677-1.5 1.495-1.5h37.01c.826 0 1.495.665 1.495 1.5 0 .827-.677 1.5-1.495 1.5h-37.01c-.826 0-1.495-.667-1.495-1.5zm0 13c0-.83.677-1.5 1.495-1.5h37.01c.826 0 1.495.665 1.495 1.5 0 .827-.677 1.5-1.495 1.5h-37.01c-.826 0-1.495-.667-1.495-1.5z" fill="#fff"/></g><g><g transform="translate(.387 103.329)"><rect stroke="#2897C5" stroke-width="2" fill="#2897C5" width="64" height="64" rx="8"/><circle fill="#147CA7" cx="8" cy="8" r="4"/><circle fill="#147CA7" cx="55" cy="8" r="4"/><circle fill="#147CA7" cx="55" cy="56" r="4"/><circle fill="#147CA7" cx="8" cy="56" r="4"/></g><path d="M29.358 142.705c.03.03.063.062.097.092.644.56 1.61.485 2.168-.158l13.57-15.61c.56-.645.492-1.613-.147-2.17-.643-.558-1.61-.484-2.168.16l-12.493 14.37-6.232-7.17c-.555-.637-1.517-.708-2.16-.148-.64.555-.71 1.522-.155 2.16l7.046 8.105c.137.158.3.28.474.368z" fill="#fff"/></g></g></g></g></svg>