<svg xmlns="http://www.w3.org/2000/svg" width="1407" height="448" viewBox="0 0 1407 448">
    <defs>
        <linearGradient id="a" x1="97.305%" x2="0%" y1="100%" y2="100%">
            <stop offset="0%" stop-color="#4DBA87"/>
            <stop offset="100%" stop-color="#4DBA87" stop-opacity=".202"/>
        </linearGradient>
    </defs>
    <g fill="url(#a)" fill-rule="evenodd" transform="translate(0 -279)">
        <path d="M0 631h272.94c8.835 0 15.998 7.162 15.998 16 0 8.837-7.16 16-15.998 16H0v-32zM0 695h91.674c8.84 0 16.005 7.162 16.005 16 0 8.837-7.17 16-16.005 16H0v-32z"/>
        <path d="M0 279h73.742c8.83 0 15.99 7.162 15.99 16 0 8.837-7.154 16-15.99 16H0v-32z" opacity=".2"/>
        <path d="M0 503h1275.24c8.84 0 16.006 7.162 16.006 16 0 8.837-7.163 16-16.006 16H0v-32zM0 471h1347.93c8.836 0 15.999 7.162 15.999 16 0 8.837-7.155 16-15.998 16H0v-32z"/>
        <path d="M0 471h822.996c8.836 0 16 7.162 16 16 0 8.837-7.159 16-16 16H0v-32zM0 439h1202.57c8.832 0 15.993 7.162 15.993 16 0 8.837-7.157 16-15.994 16H0v-32z"/>
        <path d="M0 439h1391.002c8.835 0 15.998 7.162 15.998 16 0 8.837-7.173 16-15.998 16H0v-32z" opacity=".4"/>
        <path d="M0 407h1275.24c8.84 0 16.006 7.162 16.006 16 0 8.837-7.163 16-16.006 16H0v-32z" opacity=".2"/>
        <path d="M0 375h835.565c8.833 0 15.993 7.162 15.993 16 0 8.837-7.17 16-15.993 16H0v-32zM0 439h1053.604c8.838 0 16.003 7.162 16.003 16 0 8.837-7.167 16-16.003 16H0v-32z"/>
        <path d="M0 375h480.218c8.837 0 16 7.162 16 16 0 8.837-7.157 16-16 16H0v-32zM0 407h718.906c8.837 0 16 7.162 16 16 0 8.837-7.155 16-16 16H0v-32zM0 535h630.08c8.832 0 15.991 7.162 15.991 16 0 8.837-7.172 16-15.99 16H0v-32zM0 567h561.873c8.838 0 16.002 7.162 16.002 16 0 8.837-7.163 16-16.002 16H0v-32z"/>
        <path d="M0 567h701.857c8.837 0 16 7.162 16 16 0 8.837-7.163 16-16 16H0v-32zM0 599h163.46c8.839 0 16.004 7.162 16.004 16 0 8.837-7.16 16-16.005 16H0v-32zM0 343h276.526c8.837 0 16 7.162 16 16 0 8.837-7.158 16-16 16H0v-32zM0 311h186.797c8.835 0 15.998 7.162 15.998 16 0 8.837-7.158 16-15.998 16H0v-32zM0 439h415.61c8.837 0 16.002 7.162 16.002 16 0 8.837-7.154 16-16.003 16H0v-32z"/>
        <path d="M0 567h342.926c8.838 0 16.003 7.162 16.003 16 0 8.837-7.17 16-16.003 16H0v-32z"/>
    </g>
</svg>
