<svg width="348" height="320" viewBox="0 0 348 320" xmlns="http://www.w3.org/2000/svg"><title>logo</title><defs><linearGradient x1="0%" y1="0%" x2="106.528%" y2="100%" id="a"><stop stop-color="#FFF" offset="0%"/><stop stop-color="#FFF" stop-opacity="0" offset="100%"/></linearGradient></defs><g transform="translate(-932)" fill-rule="nonzero" fill="url(#a)" opacity=".4"><path d="M1105.4 141.2c8 0 15.6-1.6 23.2-4l12.8 22 8.8 15.2c2.4 4.4 6.8 6.8 11.6 6.8 2.4 0 4.4-.4 6.8-1.6 6.4-3.6 8.4-12 4.8-18.4l-8.8-15.2-12.8-22.4c14.8-12.8 24.4-32 24.4-53.2 0-38.8-31.6-70.4-70.4-70.4-38.8 0-70.8 31.6-70.8 70.8 0 39.2 31.6 70.4 70.4 70.4zm0-114.4c24 0 43.6 19.6 43.6 43.6s-19.6 43.6-43.6 43.6-43.6-19.6-43.6-43.6 19.6-43.6 43.6-43.6zM1209.2 178.778c-34.4 0-62.8 24.8-69.2 57.2h-42.8c-7.2 0-13.2 6-13.2 13.2 0 7.2 6 13.2 13.2 13.2h42.8c6.4 32.4 34.8 57.2 69.2 57.2 38.8 0 70.4-31.6 70.4-70.4 0-38.8-31.6-70.4-70.4-70.4zm0 114.4c-24 0-43.6-19.6-43.6-43.6s19.6-43.6 43.6-43.6 43.6 19.6 43.6 43.6-19.6 43.6-43.6 43.6zm-160.4-96.8c14.8 12.8 24.4 31.6 24 53.2 0 38.8-31.6 70.4-70.4 70.4-38.8 0-70.4-31.2-70.4-70.4s31.6-70.8 70.4-70.8c8.4 0 16 1.6 23.2 4l12.8-22 8.8-15.2c4-6.4 12-8.4 18.4-4.8 6.4 4 8.4 12 4.8 18.4l-8.8 15.2-12.8 22zm-46.4 96.8c24.4 0 44-19.6 43.6-43.6 0-24-19.6-43.6-43.6-43.6s-43.6 19.6-43.6 43.6 19.6 43.6 43.6 43.6z"/></g></svg>