<svg viewBox="0 0 120 120" fill="none" xmlns="http://www.w3.org/2000/svg"> <g clip-path="url(#a)"> <path d="M59.96 0C27.192 0 .48 26.42.006 59.077c-.48 33.167 26.428 60.647 59.597 60.839 10.244.06 20.11-2.446 28.872-7.207a1.404 1.404 0 0 0 .259-2.283l-5.61-4.975a3.954 3.954 0 0 0-4.166-.7c-6.116 2.602-12.762 3.931-19.609 3.847-26.802-.328-48.457-22.629-48.03-49.43.422-26.461 22.08-47.86 48.64-47.86h48.645v86.469l-27.6-24.524c-.892-.793-2.262-.638-2.981.315-4.43 5.866-11.647 9.514-19.662 8.96C47.243 81.76 38.235 72.81 37.4 61.696c-.995-13.258 9.51-24.363 22.562-24.363 11.802 0 21.523 9.085 22.537 20.628a4.026 4.026 0 0 0 1.326 2.67l7.188 6.372c.816.722 2.11.28 2.31-.791.518-2.77.7-5.66.496-8.622-1.158-16.883-14.831-30.462-31.72-31.503-19.362-1.194-35.551 13.954-36.065 32.942-.501 18.503 14.66 34.455 33.165 34.862a33.755 33.755 0 0 0 20.674-6.468l36.062 31.968c1.547 1.369 3.986.273 3.986-1.794V2.276A2.28 2.28 0 0 0 117.642 0H59.959Z" fill="#fff"/> </g> <defs> <clipPath id="a"> <path fill="#fff" d="M0 0h119.918v120H0z"/> </clipPath> </defs></svg>
