<?xml version="1.0" encoding="UTF-8" standalone="no"?>
<svg width="150px" height="173px" viewBox="0 0 150 173" version="1.1" xmlns="http://www.w3.org/2000/svg" xmlns:xlink="http://www.w3.org/1999/xlink">
    <defs></defs>
    <g id="Page-1" stroke="none" stroke-width="1" fill="none" fill-rule="evenodd">
        <path d="M24.2747634,32.9694987 C19.2433739,27.9062446 11.0810557,27.9094862 6.04966618,32.9694987 L3.77233431,35.2612532 C-1.2590552,40.3212658 -1.25583408,48.5352771 3.77233431,53.5985312 L6.19783771,56.0361541 C11.3612931,47.698965 17.9355992,40.3407149 25.5760959,34.2823142 L24.2747634,32.9694987 Z M102.995716,20.2789484 C103.015043,20.0001777 103.076244,19.734373 103.076244,19.4491193 L103.076244,12.9660795 C103.073023,5.80880362 97.3072182,0.00324151988 90.191764,0 L67.6407026,0 C60.5284695,0.00324151988 54.7594435,5.8055621 54.7594435,12.9660795 L54.7594435,19.3356661 C61.9393201,17.3129577 69.4928466,16.2075994 77.3072838,16.2075994 C86.2652187,16.2075994 94.8945993,17.6468342 102.995716,20.2789484 Z M6.44264283,101.086839 C6.44264283,140.799248 38.5733895,173 78.2213214,173 C117.869253,173 150,140.799248 150,101.086839 C150,61.3744309 117.869253,29.1736789 78.2213214,29.1736789 C38.5733895,29.1736789 6.44264283,61.3744309 6.44264283,101.086839 Z M78.2213214,49.7202962 C106.490585,49.7202962 129.491806,72.7646117 129.491806,101.086839 C129.491806,129.409067 106.490585,152.453383 78.2213214,152.453383 C49.9520579,152.453383 26.9508367,129.409067 26.9508367,101.086839 C26.9508367,72.7646117 49.9520579,49.7202962 78.2213214,49.7202962 Z M90.2027661,60.9495968 L78.5229849,102.415119 L116.139225,81.7601544 C110.676205,71.7244089 101.354284,64.1360108 90.2027661,60.9495968 Z" id="algolia-mark" fill="#FFFFFF"></path>
    </g>
</svg>