<svg width="387" height="96" viewBox="0 0 387 96" xmlns="http://www.w3.org/2000/svg"><defs><linearGradient x1="-37.75%" y1="134.936%" x2="130.239%" y2="-27.7%" id="a"><stop stop-color="#00AEFF" offset="0%"/><stop stop-color="#3369E7" offset="100%"/></linearGradient></defs><g fill="none"><path d="M12.722.116h70.523c6.942 0 12.606 5.637 12.606 12.611v70.579c0 6.945-5.635 12.611-12.606 12.611H12.722C5.78 95.917.116 90.28.116 83.306V12.698C.116 5.753 5.751.116 12.722.116z" fill="url(#a)"/><path d="M49.087 24.321c-14.929 0-27.041 12.117-27.041 27.081 0 14.964 12.112 27.052 27.041 27.052s27.041-12.117 27.041-27.081c0-14.964-12.083-27.052-27.041-27.052zm0 46.142c-10.515 0-19.054-8.543-19.054-19.061 0-10.519 8.539-19.061 19.054-19.061 10.515 0 19.054 8.543 19.054 19.061 0 10.519-8.51 19.061-19.054 19.061zm0-34.229v14.209c0 .407.436.697.813.494l12.606-6.538c.29-.145.378-.494.232-.785-2.614-4.591-7.465-7.729-13.071-7.933-.29 0-.581.232-.581.552zm-17.66-10.431l-1.656-1.656a4.136 4.136 0 0 0-5.867 0l-1.975 1.976a4.139 4.139 0 0 0 0 5.869l1.627 1.627c.261.262.639.203.871-.058a31.953 31.953 0 0 1 3.166-3.719 29.926 29.926 0 0 1 3.747-3.196c.29-.174.32-.581.087-.843zm26.519-4.3V18.22a4.154 4.154 0 0 0-4.154-4.155H44.12a4.154 4.154 0 0 0-4.154 4.155v3.371c0 .378.349.639.726.552a30.24 30.24 0 0 1 8.423-1.191c2.759 0 5.49.378 8.133 1.104a.562.562 0 0 0 .697-.552zm181.535 51.894c0 7.758-1.975 13.424-5.954 17.027-3.979 3.603-10.05 5.405-18.241 5.405-2.992 0-9.207-.581-14.174-1.685l1.83-9.008c4.154.872 9.643 1.104 12.519 1.104 4.56 0 7.813-.93 9.759-2.789 1.946-1.86 2.905-4.62 2.905-8.281v-1.86c-1.133.552-2.614 1.104-4.444 1.685-1.83.552-3.95.843-6.332.843-3.137 0-5.983-.494-8.568-1.482s-4.822-2.441-6.651-4.359c-1.83-1.918-3.282-4.329-4.299-7.206-1.017-2.877-1.539-8.02-1.539-11.797 0-3.545.552-7.991 1.627-10.954 1.104-2.964 2.672-5.521 4.793-7.642 2.091-2.121 4.647-3.748 7.639-4.94 2.992-1.191 6.506-1.947 10.311-1.947 3.689 0 7.087.465 10.398 1.017 3.311.552 6.129 1.133 8.423 1.772v45.096zm-31.573-22.432c0 4.765 1.046 10.054 3.137 12.262s4.793 3.312 8.104 3.312a17.29 17.29 0 0 0 5.112-.755c1.598-.494 2.876-1.075 3.892-1.772V35.798c-.813-.174-4.212-.872-7.494-.959-4.124-.116-7.261 1.569-9.469 4.271-2.178 2.702-3.282 7.439-3.282 11.855zm85.481 0c0 3.835-.552 6.741-1.685 9.908s-2.73 5.869-4.793 8.107a21.094 21.094 0 0 1-7.436 5.201c-2.905 1.22-7.378 1.918-9.614 1.918-2.237-.029-6.68-.668-9.556-1.918-2.876-1.249-5.344-2.964-7.407-5.201-2.062-2.237-3.66-4.94-4.822-8.107-1.162-3.167-1.743-6.073-1.743-9.908 0-3.835.523-7.526 1.685-10.664s2.788-5.811 4.88-8.049c2.091-2.237 4.589-3.952 7.436-5.172 2.876-1.22 6.041-1.802 9.469-1.802 3.427 0 6.593.61 9.498 1.802 2.905 1.22 5.402 2.935 7.436 5.172 2.062 2.237 3.66 4.911 4.822 8.049 1.22 3.138 1.83 6.828 1.83 10.664zm-11.618.029c0-4.911-1.075-9.008-3.166-11.855-2.091-2.877-5.025-4.3-8.772-4.3s-6.68 1.424-8.772 4.3c-2.091 2.877-3.108 6.945-3.108 11.855 0 4.969 1.046 8.31 3.137 11.187 2.091 2.906 5.025 4.329 8.772 4.329s6.68-1.453 8.772-4.329c2.091-2.906 3.137-6.218 3.137-11.187zm36.917 25.105c-18.618.087-18.618-15.051-18.618-17.463l-.029-53.697 11.357-1.802v53.348c0 1.366 0 10.025 7.29 10.054v9.56zm20.012 0h-11.415V27.051l11.415-1.802v50.849zm-5.722-56.225c3.805 0 6.913-3.08 6.913-6.886s-3.079-6.886-6.913-6.886-6.913 3.08-6.913 6.886 3.108 6.886 6.913 6.886zm34.1 5.405c3.747 0 6.913.465 9.469 1.395 2.556.93 4.618 2.237 6.129 3.894 1.51 1.656 2.585 3.923 3.224 6.305.668 2.383.988 4.998.988 7.874v29.231c-1.743.378-4.386.814-7.929 1.337-3.544.523-7.523.785-11.938.785-2.934 0-5.635-.291-8.046-.843-2.44-.552-4.502-1.453-6.245-2.702-1.714-1.249-3.05-2.848-4.037-4.823-.959-1.976-1.452-4.765-1.452-7.671 0-2.789.552-4.562 1.627-6.48a13.779 13.779 0 0 1 4.444-4.707c1.888-1.22 4.037-2.092 6.506-2.615a37.263 37.263 0 0 1 7.726-.785c1.249 0 2.556.087 3.95.232 1.394.145 2.846.407 4.415.785v-1.86c0-1.308-.145-2.557-.465-3.719a7.978 7.978 0 0 0-1.627-3.109c-.784-.901-1.801-1.598-3.079-2.092-1.278-.494-2.905-.872-4.851-.872-2.614 0-4.996.32-7.174.697-2.178.378-3.979.814-5.344 1.308l-1.365-9.327c1.423-.494 3.544-.988 6.274-1.482s5.664-.755 8.801-.755zm.959 41.232c3.485 0 6.071-.203 7.871-.552V54.394a23.157 23.157 0 0 0-2.73-.552 27.112 27.112 0 0 0-3.95-.291c-1.249 0-2.527.087-3.805.291-1.278.174-2.44.523-3.456 1.017-1.017.494-1.859 1.191-2.469 2.092-.639.901-.929 1.424-.929 2.789 0 2.673.929 4.213 2.614 5.23 1.714 1.046 3.979 1.54 6.855 1.54zM143.747 25.57c3.747 0 6.913.465 9.469 1.395 2.556.93 4.618 2.237 6.129 3.894 1.539 1.685 2.585 3.923 3.224 6.305.668 2.383.988 4.998.988 7.874v29.231c-1.743.378-4.386.814-7.929 1.337-3.544.523-7.523.785-11.938.785-2.934 0-5.635-.291-8.046-.843-2.44-.552-4.502-1.453-6.245-2.702-1.714-1.249-3.05-2.848-4.037-4.823-.959-1.976-1.452-4.765-1.452-7.671 0-2.789.552-4.562 1.627-6.48a13.779 13.779 0 0 1 4.444-4.707c1.888-1.22 4.037-2.092 6.506-2.615a37.263 37.263 0 0 1 7.726-.785c1.249 0 2.556.087 3.95.232 1.365.145 2.846.407 4.415.785v-1.86c0-1.308-.145-2.557-.465-3.719a7.978 7.978 0 0 0-1.627-3.109c-.784-.901-1.801-1.598-3.079-2.092-1.278-.494-2.905-.872-4.851-.872-2.614 0-4.996.32-7.174.697-2.178.378-3.979.814-5.344 1.308l-1.365-9.327c1.423-.494 3.544-.988 6.274-1.482 2.73-.523 5.664-.755 8.801-.755zm.988 41.261c3.485 0 6.071-.203 7.871-.552V54.714a23.157 23.157 0 0 0-2.73-.552 27.112 27.112 0 0 0-3.95-.291c-1.249 0-2.527.087-3.805.291-1.278.174-2.44.523-3.456 1.017-1.017.494-1.859 1.191-2.469 2.092-.639.901-.929 1.424-.929 2.789 0 2.673.929 4.213 2.614 5.23 1.685 1.017 3.979 1.54 6.855 1.54zm46.037 9.269c-18.618.087-18.618-15.051-18.618-17.463l-.029-53.697 11.357-1.802v53.348c0 1.366 0 10.025 7.29 10.054v9.56z" fill="#fff"/></g></svg>