<svg width="245" height="51" viewBox="0 0 245 51" xmlns="http://www.w3.org/2000/svg"><title>InstantSearch-JavaScript</title><defs><linearGradient x1="42.443%" y1="121.561%" x2="57.523%" y2="8.499%" id="a"><stop stop-color="#201C38" offset="0%"/><stop stop-color="#3E396B" offset="100%"/></linearGradient></defs><g fill="none" fill-rule="evenodd"><g fill-rule="nonzero"><path d="M27.437 22.289c1.264 0 2.465-.252 3.666-.63l2.023 3.463 1.391 2.393c.38.692 1.075 1.07 1.834 1.07.379 0 .695-.063 1.074-.252 1.012-.566 1.328-1.889.759-2.896l-1.39-2.393-2.024-3.525c2.34-2.015 3.856-5.038 3.856-8.375C38.626 5.037 33.632.063 27.5.063S16.31 5.037 16.31 11.207 21.305 22.29 27.437 22.29zm0-18.008c3.793 0 6.89 3.086 6.89 6.863 0 3.778-3.097 6.863-6.89 6.863-3.793 0-6.891-3.085-6.891-6.863 0-3.777 3.098-6.863 6.89-6.863z" fill="#FFD32B"/><path d="M43.81 28.207c-5.436 0-9.925 3.904-10.936 9.004h-6.765c-1.138 0-2.086.945-2.086 2.078s.948 2.078 2.086 2.078h6.765c1.011 5.1 5.5 9.003 10.936 9.003 6.133 0 11.127-4.974 11.127-11.081 0-6.108-4.994-11.082-11.127-11.082zm0 18.008c-3.793 0-6.89-3.085-6.89-6.863 0-3.778 3.097-6.863 6.89-6.863 3.793 0 6.891 3.085 6.891 6.863 0 3.778-3.098 6.863-6.89 6.863zM18.46 30.978c2.339 2.015 3.856 4.974 3.793 8.374 0 6.107-4.994 11.081-11.127 11.081C4.994 50.433 0 45.523 0 39.352c0-6.17 4.994-11.145 11.126-11.145 1.328 0 2.53.252 3.667.63l2.023-3.463 1.39-2.393a2.162 2.162 0 0 1 2.909-.755c1.011.63 1.328 1.889.759 2.896l-1.391 2.393-2.023 3.463zm-7.334 15.237c3.857 0 6.954-3.085 6.891-6.863 0-3.778-3.097-6.863-6.89-6.863-3.794 0-6.891 3.085-6.891 6.863 0 3.778 3.097 6.863 6.89 6.863z" fill="url(#a)"/></g><path d="M80.064 4.2V21h3.216V4.2h-3.216zm14.952 3.84c-2.088.024-3.696.816-4.608 2.52v-2.4h-3.12V21h3.12v-6.312c0-2.112 1.248-3.672 3.36-3.696 1.776 0 2.856 1.104 2.856 2.904V21h3.144v-8.016c0-3.048-1.8-4.944-4.752-4.944zm15.864 3.6l1.128-2.256c-1.272-.864-3.024-1.368-4.704-1.368-2.592 0-4.848 1.224-4.848 3.864-.024 4.56 6.672 3.264 6.672 5.64 0 .84-.816 1.2-1.896 1.2-1.392 0-3.168-.576-4.344-1.584l-1.08 2.184c1.344 1.176 3.36 1.8 5.304 1.8 2.736 0 5.064-1.272 5.064-3.888 0-4.608-6.792-3.48-6.792-5.64 0-.792.72-1.128 1.728-1.128 1.104 0 2.52.432 3.768 1.176zm10.752 6.216c-.696.336-1.296.528-1.824.528-.84 0-1.344-.408-1.344-1.632v-5.784h3.672v-2.28h-3.672V5.16h-3.096v3.528h-1.824l.024 2.28h1.8v6.336c0 2.64 1.68 3.84 3.768 3.84 1.128 0 2.232-.336 3.216-.936l-.72-2.352zM135.456 21h-3.072v-1.56c-.888 1.128-2.328 1.704-4.152 1.704-2.76 0-4.488-1.704-4.488-3.984 0-2.376 1.752-3.84 4.872-3.864h3.744v-.336c0-1.488-.984-2.376-2.904-2.376-1.2 0-2.496.408-3.816 1.2l-1.128-2.16c1.848-1.032 3.288-1.584 5.64-1.584 3.36 0 5.256 1.704 5.28 4.56l.024 8.4zm-6.48-2.256c1.8 0 3.216-.96 3.384-2.208v-1.152h-3.24c-1.656 0-2.424.456-2.424 1.584 0 1.08.864 1.776 2.28 1.776zM146.688 8.04c-2.088.024-3.696.816-4.608 2.52v-2.4h-3.12V21h3.12v-6.312c0-2.112 1.248-3.672 3.36-3.696 1.776 0 2.856 1.104 2.856 2.904V21h3.144v-8.016c0-3.048-1.8-4.944-4.752-4.944zm15.048 9.816c-.696.336-1.296.528-1.824.528-.84 0-1.344-.408-1.344-1.632v-5.784h3.672v-2.28h-3.672V5.16h-3.096v3.528h-1.824l.024 2.28h1.8v6.336c0 2.64 1.68 3.84 3.768 3.84 1.128 0 2.232-.336 3.216-.936l-.72-2.352zm13.848-9.24l1.296-2.784c-1.608-1.056-3.84-1.776-6.072-1.776-3.768 0-6.288 1.872-6.288 4.8 0 5.976 9.024 3.984 9.024 7.488 0 1.176-1.08 1.848-2.88 1.848-1.8 0-4.08-.936-5.808-2.472l-1.344 2.712c1.8 1.608 4.416 2.688 7.104 2.688 3.696 0 6.432-1.824 6.432-4.968.024-6.024-9-4.176-9-7.584 0-1.032.984-1.584 2.496-1.584 1.296 0 3.24.552 5.04 1.632zm9.744-.552c4.512 0 6.456 2.952 6.144 7.608h-9.48c.408 1.824 1.8 2.928 3.672 2.928 1.32 0 2.544-.504 3.456-1.44l1.68 1.752c-1.272 1.392-3.144 2.208-5.4 2.208-3.984 0-6.6-2.64-6.6-6.504 0-3.912 2.688-6.552 6.528-6.552zm-3.408 5.52h6.72c-.072-1.896-1.344-3.096-3.288-3.096-1.848 0-3.144 1.2-3.432 3.096zM204.84 21h-3.072v-1.56c-.888 1.128-2.328 1.704-4.152 1.704-2.76 0-4.488-1.704-4.488-3.984 0-2.376 1.752-3.84 4.872-3.864h3.744v-.336c0-1.488-.984-2.376-2.904-2.376-1.2 0-2.496.408-3.816 1.2l-1.128-2.16c1.848-1.032 3.288-1.584 5.64-1.584 3.36 0 5.256 1.704 5.28 4.56l.024 8.4zm-6.48-2.256c1.8 0 3.216-.96 3.384-2.208v-1.152h-3.24c-1.656 0-2.424.456-2.424 1.584 0 1.08.864 1.776 2.28 1.776zm13.104-8.112V8.16h-3.12V21h3.12v-6.192c0-2.328 1.656-3.912 4.368-3.744V8.04c-1.992.024-3.504.912-4.368 2.592zm15.384 1.584l1.896-1.8c-1.152-1.488-3.024-2.352-5.376-2.352-3.864 0-6.528 2.64-6.528 6.552 0 3.864 2.64 6.504 6.48 6.504 2.52 0 4.44-.96 5.568-2.592l-1.944-1.608c-.768 1.008-1.968 1.512-3.456 1.512-2.064 0-3.504-1.536-3.504-3.84 0-2.256 1.44-3.792 3.504-3.792 1.416 0 2.544.528 3.36 1.416zm12.576-4.176c-2.112.024-3.72.816-4.632 2.568V3.192h-3.12V21h3.12v-6.312c0-2.112 1.272-3.672 3.384-3.696 1.776 0 2.856 1.104 2.856 2.904V21h3.144v-8.016c0-3.048-1.8-4.944-4.752-4.944z" fill="#3E396B"/><path d="M82.688 34.648c-.624 0-1.152.352-1.152 1.152v1.008h2.224v1.376h-2.224V45h-1.824v-6.816h-1.12v-1.376h1.12v-.832c0-1.984 1.456-2.928 2.928-2.928.688 0 1.376.192 1.92.592l-.704 1.408a2.057 2.057 0 0 0-1.168-.4zm5.648 1.776c2.624 0 4.432 1.744 4.432 4.304 0 2.576-1.808 4.336-4.432 4.336-2.64 0-4.448-1.76-4.448-4.336 0-2.56 1.808-4.304 4.448-4.304zm0 1.568c-1.536 0-2.608 1.136-2.608 2.768 0 1.648 1.072 2.768 2.608 2.768 1.52 0 2.592-1.12 2.592-2.768 0-1.632-1.072-2.768-2.592-2.768zm8.192.192v-1.696h-1.84V45h1.84v-4.448c.144-1.456 1.232-2.464 2.944-2.368v-1.76c-1.344 0-2.368.608-2.944 1.76zm14.656 3.36V33.8h-5.776v1.696h3.872v5.984c0 1.152-.592 1.776-1.6 1.776-.768 0-1.648-.432-2.384-1.232l-.896 1.44c.832 1.024 1.952 1.616 3.296 1.616 2.16 0 3.488-1.28 3.488-3.536zM120.688 45h-1.808v-1.04c-.608.752-1.584 1.12-2.816 1.12-1.84 0-2.992-1.136-2.992-2.64 0-1.552 1.168-2.544 3.216-2.56h2.576v-.256c0-1.072-.688-1.712-2.032-1.712-.816 0-1.664.288-2.512.864l-.752-1.28c1.184-.704 2.048-1.072 3.664-1.072 2.192 0 3.424 1.12 3.44 2.992l.016 5.584zm-4.24-1.376c1.312 0 2.32-.688 2.416-1.616v-.784h-2.304c-1.2 0-1.76.32-1.76 1.136 0 .768.624 1.264 1.648 1.264zm5.104-7.136L124.848 45h1.904l3.264-8.512h-1.84l-2.336 6.704-2.368-6.704h-1.92zM137.968 45h-1.808v-1.04c-.608.752-1.584 1.12-2.816 1.12-1.84 0-2.992-1.136-2.992-2.64 0-1.552 1.168-2.544 3.216-2.56h2.576v-.256c0-1.072-.688-1.712-2.032-1.712-.816 0-1.664.288-2.512.864l-.752-1.28c1.184-.704 2.048-1.072 3.664-1.072 2.192 0 3.424 1.12 3.44 2.992l.016 5.584zm-4.24-1.376c1.312 0 2.32-.688 2.416-1.616v-.784h-2.304c-1.2 0-1.76.32-1.76 1.136 0 .768.624 1.264 1.648 1.264zm13.632-7.088l.784-1.664c-1.04-.688-2.464-1.152-3.92-1.152-2.432 0-4.08 1.2-4.08 3.12 0 3.984 6.048 2.592 6.048 5.088 0 .864-.784 1.36-2.096 1.36-1.2 0-2.64-.576-3.792-1.632l-.816 1.632a6.889 6.889 0 0 0 4.576 1.776c2.464 0 4.224-1.232 4.224-3.232.016-4.032-6.032-2.72-6.032-5.168 0-.752.72-1.168 1.824-1.168.848 0 2.064.304 3.28 1.04zM156.384 39l1.008-1.184c-.784-.896-1.984-1.392-3.52-1.392-2.528 0-4.288 1.76-4.288 4.336 0 2.56 1.76 4.304 4.288 4.304 1.616 0 2.848-.576 3.616-1.584l-1.024-1.024c-.576.672-1.44 1.024-2.512 1.024-1.472 0-2.528-1.104-2.528-2.72s1.056-2.72 2.528-2.72c1.024-.016 1.84.352 2.432.96zm4.864-.816v-1.696h-1.84V45h1.84v-4.448c.144-1.456 1.232-2.464 2.944-2.368v-1.76c-1.344 0-2.368.608-2.944 1.76zm5.376-5.232c-.608 0-1.072.464-1.072 1.104 0 .624.464 1.088 1.072 1.088.608 0 1.072-.464 1.072-1.088 0-.64-.464-1.104-1.072-1.104zm-.912 3.536V45h1.824v-8.512h-1.824zm9.44-.064c2.416 0 4.064 1.76 4.064 4.352 0 2.544-1.6 4.288-4.032 4.288-1.36 0-2.384-.544-3.008-1.536v4.576h-1.84V36.488h1.84v1.472c.624-.992 1.648-1.536 2.976-1.536zm-.384 7.072c1.52 0 2.592-1.152 2.592-2.784 0-1.584-1.072-2.752-2.592-2.752s-2.592 1.152-2.592 2.752c0 1.648 1.072 2.784 2.592 2.784zm10.72-.448c-.496.24-.896.368-1.28.368-.576 0-.912-.272-.912-1.152v-4.08h2.512v-1.376h-2.512v-2.336h-1.824v2.336h-1.2v1.376h1.2V42.6c0 1.744 1.104 2.48 2.384 2.48.72 0 1.424-.224 2.096-.624l-.464-1.408z" fill="#8995C7"/></g></svg>