<svg width="245" height="50" viewBox="0 0 245 50" xmlns="http://www.w3.org/2000/svg"><title>InstantSearch-Generic</title><defs><linearGradient x1="-35.604%" y1="134.936%" x2="128.277%" y2="-27.7%" id="a"><stop stop-color="#00AEFF" offset="0%"/><stop stop-color="#3369E7" offset="100%"/></linearGradient></defs><g fill="none" fill-rule="evenodd"><g fill-rule="nonzero"><path d="M6.666 0h37.291c3.67 0 6.666 2.942 6.666 6.582v36.836c0 3.625-2.98 6.582-6.666 6.582H6.666C2.995 50 0 47.058 0 43.418V6.567C0 2.942 2.98 0 6.666 0z" fill="url(#a)"/><path d="M25.335 23.107c.713 0 1.39-.138 2.067-.346l1.14 1.902.784 1.313c.214.38.606.588 1.034.588.213 0 .391-.035.605-.138.57-.312.749-1.037.428-1.59l-.784-1.314-1.14-1.936c1.318-1.106 2.173-2.765 2.173-4.597 0-3.354-2.815-6.084-6.271-6.084s-6.307 2.73-6.307 6.118c0 3.388 2.815 6.084 6.271 6.084zm0-9.886c2.138 0 3.884 1.693 3.884 3.768 0 2.074-1.746 3.767-3.884 3.767s-3.884-1.693-3.884-3.767c0-2.075 1.746-3.768 3.884-3.768zm9.23 13.135c-3.065 0-5.595 2.144-6.165 4.944h-3.813c-.641 0-1.176.518-1.176 1.14 0 .623.535 1.141 1.176 1.141H28.4c.57 2.8 3.1 4.943 6.164 4.943 3.456 0 6.271-2.73 6.271-6.084 0-3.353-2.815-6.084-6.27-6.084zm0 9.887c-2.139 0-3.885-1.694-3.885-3.768s1.746-3.768 3.884-3.768 3.884 1.694 3.884 3.768-1.746 3.768-3.884 3.768zm-14.29-8.366c1.319 1.107 2.174 2.731 2.139 4.598 0 3.353-2.815 6.084-6.272 6.084-3.456 0-6.271-2.696-6.271-6.084 0-3.388 2.815-6.119 6.271-6.119.749 0 1.426.139 2.067.346l1.14-1.901.784-1.314a1.237 1.237 0 0 1 1.64-.415c.57.346.747 1.038.427 1.59l-.784 1.314-1.14 1.901zm-4.133 8.366c2.174 0 3.92-1.694 3.884-3.768 0-2.074-1.746-3.768-3.884-3.768s-3.884 1.694-3.884 3.768 1.746 3.768 3.884 3.768z" fill="#FFF"/></g><path d="M80.064 5.2V22h3.216V5.2h-3.216zm14.952 3.84c-2.088.024-3.696.816-4.608 2.52v-2.4h-3.12V22h3.12v-6.312c0-2.112 1.248-3.672 3.36-3.696 1.776 0 2.856 1.104 2.856 2.904V22h3.144v-8.016c0-3.048-1.8-4.944-4.752-4.944zm15.864 3.6l1.128-2.256c-1.272-.864-3.024-1.368-4.704-1.368-2.592 0-4.848 1.224-4.848 3.864-.024 4.56 6.672 3.264 6.672 5.64 0 .84-.816 1.2-1.896 1.2-1.392 0-3.168-.576-4.344-1.584l-1.08 2.184c1.344 1.176 3.36 1.8 5.304 1.8 2.736 0 5.064-1.272 5.064-3.888 0-4.608-6.792-3.48-6.792-5.64 0-.792.72-1.128 1.728-1.128 1.104 0 2.52.432 3.768 1.176zm10.752 6.216c-.696.336-1.296.528-1.824.528-.84 0-1.344-.408-1.344-1.632v-5.784h3.672v-2.28h-3.672V6.16h-3.096v3.528h-1.824l.024 2.28h1.8v6.336c0 2.64 1.68 3.84 3.768 3.84 1.128 0 2.232-.336 3.216-.936l-.72-2.352zM135.456 22h-3.072v-1.56c-.888 1.128-2.328 1.704-4.152 1.704-2.76 0-4.488-1.704-4.488-3.984 0-2.376 1.752-3.84 4.872-3.864h3.744v-.336c0-1.488-.984-2.376-2.904-2.376-1.2 0-2.496.408-3.816 1.2l-1.128-2.16c1.848-1.032 3.288-1.584 5.64-1.584 3.36 0 5.256 1.704 5.28 4.56l.024 8.4zm-6.48-2.256c1.8 0 3.216-.96 3.384-2.208v-1.152h-3.24c-1.656 0-2.424.456-2.424 1.584 0 1.08.864 1.776 2.28 1.776zM146.688 9.04c-2.088.024-3.696.816-4.608 2.52v-2.4h-3.12V22h3.12v-6.312c0-2.112 1.248-3.672 3.36-3.696 1.776 0 2.856 1.104 2.856 2.904V22h3.144v-8.016c0-3.048-1.8-4.944-4.752-4.944zm15.048 9.816c-.696.336-1.296.528-1.824.528-.84 0-1.344-.408-1.344-1.632v-5.784h3.672v-2.28h-3.672V6.16h-3.096v3.528h-1.824l.024 2.28h1.8v6.336c0 2.64 1.68 3.84 3.768 3.84 1.128 0 2.232-.336 3.216-.936l-.72-2.352zm13.848-9.24l1.296-2.784c-1.608-1.056-3.84-1.776-6.072-1.776-3.768 0-6.288 1.872-6.288 4.8 0 5.976 9.024 3.984 9.024 7.488 0 1.176-1.08 1.848-2.88 1.848-1.8 0-4.08-.936-5.808-2.472l-1.344 2.712c1.8 1.608 4.416 2.688 7.104 2.688 3.696 0 6.432-1.824 6.432-4.968.024-6.024-9-4.176-9-7.584 0-1.032.984-1.584 2.496-1.584 1.296 0 3.24.552 5.04 1.632zm9.744-.552c4.512 0 6.456 2.952 6.144 7.608h-9.48c.408 1.824 1.8 2.928 3.672 2.928 1.32 0 2.544-.504 3.456-1.44l1.68 1.752c-1.272 1.392-3.144 2.208-5.4 2.208-3.984 0-6.6-2.64-6.6-6.504 0-3.912 2.688-6.552 6.528-6.552zm-3.408 5.52h6.72c-.072-1.896-1.344-3.096-3.288-3.096-1.848 0-3.144 1.2-3.432 3.096zM204.84 22h-3.072v-1.56c-.888 1.128-2.328 1.704-4.152 1.704-2.76 0-4.488-1.704-4.488-3.984 0-2.376 1.752-3.84 4.872-3.864h3.744v-.336c0-1.488-.984-2.376-2.904-2.376-1.2 0-2.496.408-3.816 1.2l-1.128-2.16c1.848-1.032 3.288-1.584 5.64-1.584 3.36 0 5.256 1.704 5.28 4.56l.024 8.4zm-6.48-2.256c1.8 0 3.216-.96 3.384-2.208v-1.152h-3.24c-1.656 0-2.424.456-2.424 1.584 0 1.08.864 1.776 2.28 1.776zm13.104-8.112V9.16h-3.12V22h3.12v-6.192c0-2.328 1.656-3.912 4.368-3.744V9.04c-1.992.024-3.504.912-4.368 2.592zm15.384 1.584l1.896-1.8c-1.152-1.488-3.024-2.352-5.376-2.352-3.864 0-6.528 2.64-6.528 6.552 0 3.864 2.64 6.504 6.48 6.504 2.52 0 4.44-.96 5.568-2.592l-1.944-1.608c-.768 1.008-1.968 1.512-3.456 1.512-2.064 0-3.504-1.536-3.504-3.84 0-2.256 1.44-3.792 3.504-3.792 1.416 0 2.544.528 3.36 1.416zm12.576-4.176c-2.112.024-3.72.816-4.632 2.568V4.192h-3.12V22h3.12v-6.312c0-2.112 1.272-3.672 3.384-3.696 1.776 0 2.856 1.104 2.856 2.904V22h3.144v-8.016c0-3.048-1.8-4.944-4.752-4.944z" fill="#3E396B"/><path d="M84.256 37.424c2.416 0 4.064 1.76 4.064 4.352 0 2.544-1.6 4.288-4.032 4.288-1.36 0-2.384-.544-3.008-1.536V46h-1.84V34.128h1.84v4.832c.624-.992 1.648-1.536 2.976-1.536zm-.384 7.072c1.52 0 2.592-1.152 2.592-2.784 0-1.584-1.072-2.752-2.592-2.752s-2.592 1.152-2.592 2.752c0 1.648 1.072 2.784 2.592 2.784zm9.392 2.672l3.872-9.68h-1.84l-2.368 6.448-2.544-6.448H88.48L92 45.872l-.288.64c-.288.64-.736.944-1.296.944-.384 0-.704-.128-1.104-.416l-.784 1.424c.592.496 1.2.72 1.968.72 1.28 0 2.24-.672 2.768-2.016zM111.632 46l-1.072-2.528h-5.648L103.84 46h-1.968l4.944-11.2h1.936l4.896 11.2h-2.016zm-6.016-4.208h4.224l-2.112-4.976-2.112 4.976zm9.488-7.664V46h1.84V34.128h-1.84zm10.496 3.36h1.824v7.68c0 2.448-1.744 3.984-4.416 3.984-1.328 0-2.496-.416-3.536-1.12l.784-1.328c.8.592 1.632.928 2.672.928 1.616 0 2.672-.944 2.672-2.416v-1.072c-.576.928-1.536 1.44-2.816 1.44-2.304 0-3.84-1.664-3.84-4.112 0-2.4 1.52-4.032 3.776-4.048 1.312-.016 2.288.512 2.88 1.44v-1.376zm-2.448 6.656c1.44 0 2.448-1.088 2.448-2.624s-1.008-2.608-2.448-2.608c-1.456 0-2.464 1.088-2.48 2.608.016 1.536 1.008 2.624 2.48 2.624zm10.48-6.72c2.624 0 4.432 1.744 4.432 4.304 0 2.576-1.808 4.336-4.432 4.336-2.64 0-4.448-1.76-4.448-4.336 0-2.56 1.808-4.304 4.448-4.304zm0 1.568c-1.536 0-2.608 1.136-2.608 2.768 0 1.648 1.072 2.768 2.608 2.768 1.52 0 2.592-1.12 2.592-2.768 0-1.632-1.072-2.768-2.592-2.768zm6.432-4.864V46h1.84V34.128h-1.84zm5.552-.176c-.608 0-1.072.464-1.072 1.104 0 .624.464 1.088 1.072 1.088.608 0 1.072-.464 1.072-1.088 0-.64-.464-1.104-1.072-1.104zm-.912 3.536V46h1.824v-8.512h-1.824zM156.16 46h-1.808v-1.04c-.608.752-1.584 1.12-2.816 1.12-1.84 0-2.992-1.136-2.992-2.64 0-1.552 1.168-2.544 3.216-2.56h2.576v-.256c0-1.072-.688-1.712-2.032-1.712-.816 0-1.664.288-2.512.864l-.752-1.28c1.184-.704 2.048-1.072 3.664-1.072 2.192 0 3.424 1.12 3.44 2.992L156.16 46zm-4.24-1.376c1.312 0 2.32-.688 2.416-1.616v-.784h-2.304c-1.2 0-1.76.32-1.76 1.136 0 .768.624 1.264 1.648 1.264z" fill="#8995C7"/></g></svg>