<svg width="137" height="32" viewBox="0 0 137 32" xmlns="http://www.w3.org/2000/svg"><title>Group 3</title><g fill="none" fill-rule="evenodd"><path d="M36.213 15.912c0-.759.117-1.468.352-2.128a5.05 5.05 0 0 1 1.008-1.716 4.62 4.62 0 0 1 1.596-1.137c.627-.274 1.332-.412 2.115-.412.966 0 1.88.177 2.741.53l-.509 1.941a5.372 5.372 0 0 0-.93-.294 4.994 4.994 0 0 0-1.106-.118c-.927 0-1.632.291-2.115.873-.483.582-.724 1.402-.724 2.46 0 1.02.228 1.828.685 2.423.457.594 1.227.892 2.31.892.405 0 .803-.04 1.195-.118a5.608 5.608 0 0 0 1.018-.294l.333 1.96c-.261.132-.656.25-1.185.354a8.406 8.406 0 0 1-1.635.157c-.874 0-1.635-.134-2.28-.402a4.331 4.331 0 0 1-1.606-1.118 4.634 4.634 0 0 1-.95-1.706 7.088 7.088 0 0 1-.313-2.147zm18.856-.02c0 .81-.117 1.55-.352 2.216a4.906 4.906 0 0 1-.999 1.706c-.43.47-.95.837-1.557 1.098a5.022 5.022 0 0 1-2.007.392c-.73 0-1.396-.13-1.997-.392a4.513 4.513 0 0 1-1.547-1.098 5.028 5.028 0 0 1-1.008-1.706c-.242-.667-.363-1.405-.363-2.216 0-.81.121-1.545.363-2.206a4.96 4.96 0 0 1 1.018-1.696c.437-.47.956-.833 1.557-1.088a5.01 5.01 0 0 1 1.977-.383c.718 0 1.38.128 1.988.383a4.381 4.381 0 0 1 1.556 1.088c.431.47.767 1.036 1.009 1.696.241.66.362 1.396.362 2.206zm-2.428 0c0-1.02-.219-1.827-.656-2.422-.437-.594-1.047-.892-1.83-.892-.784 0-1.394.298-1.832.892-.437.595-.656 1.403-.656 2.422 0 1.033.22 1.85.656 2.451.438.602 1.048.902 1.831.902.784 0 1.394-.3 1.831-.902.437-.6.656-1.418.656-2.45zm10.71-.255c0-1.072-.133-1.846-.4-2.323-.268-.478-.768-.716-1.498-.716-.262 0-.549.02-.862.059-.313.039-.548.072-.705.098v8.275h-2.37v-9.922c.458-.131 1.055-.255 1.792-.373a14.853 14.853 0 0 1 2.34-.176c.705 0 1.283.091 1.733.274.45.183.826.425 1.126.726.144-.105.327-.216.548-.334.222-.117.47-.225.744-.323.285-.101.576-.183.872-.245.307-.066.617-.098.93-.098.796 0 1.452.114 1.968.343.515.229.92.549 1.214.96.294.412.496.909.607 1.49.11.583.166 1.22.166 1.913v5.765h-2.369v-5.393c0-1.072-.13-1.846-.392-2.323-.26-.478-.763-.716-1.507-.716-.379 0-.738.062-1.077.186-.34.124-.594.245-.764.363.104.327.176.673.215 1.04.04.365.06.758.06 1.176v5.667h-2.37v-5.393zm16.938 0c0-1.072-.133-1.846-.401-2.323-.268-.478-.767-.716-1.498-.716-.261 0-.548.02-.861.059-.314.039-.549.072-.705.098v8.275h-2.37v-9.922c.457-.131 1.054-.255 1.792-.373a14.853 14.853 0 0 1 2.34-.176c.705 0 1.282.091 1.733.274.45.183.826.425 1.126.726.143-.105.326-.216.548-.334.222-.117.47-.225.744-.323.285-.101.576-.183.871-.245.307-.066.617-.098.93-.098.797 0 1.453.114 1.968.343.516.229.92.549 1.214.96.294.412.496.909.607 1.49.111.583.167 1.22.167 1.913v5.765h-2.37v-5.393c0-1.072-.13-1.846-.391-2.323-.261-.478-.764-.716-1.508-.716-.378 0-.737.062-1.077.186-.34.124-.594.245-.763.363.104.327.176.673.215 1.04.04.365.059.758.059 1.176v5.667h-2.37v-5.393zm19.503 5.079c-.457.118-1.05.239-1.782.363a14.44 14.44 0 0 1-2.408.186c-.823 0-1.511-.118-2.066-.353-.555-.235-.999-.562-1.332-.98a3.857 3.857 0 0 1-.714-1.5 7.975 7.975 0 0 1-.216-1.912v-5.746h2.37v5.373c0 1.098.16 1.883.48 2.353.319.47.877.706 1.674.706.287 0 .59-.013.91-.04.32-.025.558-.058.715-.097v-8.295h2.37v9.942zm3.016-9.608a15.85 15.85 0 0 1 1.781-.373c.731-.118 1.541-.176 2.428-.176.836 0 1.534.114 2.096.343.561.229 1.008.549 1.341.96.333.412.568.909.705 1.49.137.583.205 1.22.205 1.913v5.765h-2.369v-5.393c0-.549-.036-1.016-.108-1.402-.072-.385-.189-.7-.352-.941a1.409 1.409 0 0 0-.666-.53c-.28-.11-.623-.166-1.028-.166-.3 0-.613.02-.94.059-.326.039-.567.072-.724.098v8.275h-2.37v-9.922zm13.843 9.922h-2.37V10.774h2.37V21.03zm.255-13.256c0 .445-.144.797-.431 1.059a1.463 1.463 0 0 1-1.018.392c-.405 0-.75-.13-1.038-.392-.287-.261-.43-.614-.43-1.059 0-.457.143-.817.43-1.078a1.488 1.488 0 0 1 1.038-.393c.391 0 .73.131 1.018.393.287.261.43.62.43 1.078zm2.643.294l2.37-.392v3.098h3.642v1.98h-3.643v4.177c0 .824.131 1.412.392 1.765s.705.53 1.332.53c.43 0 .812-.046 1.145-.138.333-.091.597-.176.793-.254l.392 1.882a8.867 8.867 0 0 1-1.077.363c-.444.124-.966.186-1.567.186-.73 0-1.341-.098-1.83-.294-.49-.196-.878-.48-1.166-.853a3.382 3.382 0 0 1-.607-1.353 8.417 8.417 0 0 1-.176-1.814V8.068zm16.664 2.706c-1.058 3.896-2.285 7.426-3.682 10.59a10.65 10.65 0 0 1-.802 1.509 4.481 4.481 0 0 1-.92 1.04 3.271 3.271 0 0 1-1.136.597c-.418.124-.901.187-1.45.187-.365 0-.727-.04-1.086-.118-.36-.078-.63-.163-.813-.255l.431-1.902c.47.183.933.275 1.39.275.614 0 1.093-.148 1.44-.442.345-.294.649-.748.91-1.363a55.045 55.045 0 0 1-2.144-4.706 51.997 51.997 0 0 1-1.831-5.412h2.526c.13.55.29 1.144.48 1.785a55.367 55.367 0 0 0 1.321 3.921c.232.615.48 1.223.744 1.824a53.44 53.44 0 0 0 1.175-3.716c.353-1.266.686-2.537.999-3.814h2.448z" fill="#FFF"/><path fill="#182359" d="M15.74 0l15.742 15.74L15.74 31.483 0 15.74z"/><path fill="#46AEDA" d="M13.281 4.427l2.46-2.46 2.951 2.952-.984.984-1.967-1.968-1.476 1.476z"/><path fill="#FE336F" d="M18.2 27.055l-2.46 2.459-8.361-8.362.983-.984 7.379 7.378 1.476-1.475z"/><path fill="#F5A623" d="M19.184 26.07l10.33-10.33-9.838-9.837-.984.984 8.854 8.854-9.346 9.346z"/><path fill="#50E3C2" d="M6.395 11.314L1.968 15.74l4.427 4.427.984-.984-3.444-3.443 3.444-3.443z"/><path fill="#BD0FE1" d="M7.379 10.33l4.919-4.92.983.985-4.919 4.919z"/><path d="M15.77 11.542a4.755 4.755 0 0 0-4.753 4.759 4.751 4.751 0 1 0 9.505-.005 4.748 4.748 0 0 0-4.752-4.754zm0 8.109a3.351 3.351 0 0 1-3.349-3.35c0-1.849 1.5-3.35 3.349-3.35a3.351 3.351 0 0 1 3.348 3.35 3.348 3.348 0 0 1-3.348 3.35zm0-6.016v2.497c0 .072.076.123.142.087l2.216-1.149c.05-.025.066-.087.04-.138a2.757 2.757 0 0 0-2.296-1.394c-.051 0-.102.041-.102.097zm-3.104-1.833l-.29-.291a.727.727 0 0 0-1.032 0l-.347.347a.728.728 0 0 0 0 1.032l.286.286c.046.046.112.035.153-.01.168-.23.352-.45.556-.654.21-.21.424-.393.659-.562.05-.03.056-.102.015-.148zm4.66-.756v-.577a.73.73 0 0 0-.73-.73h-1.7a.73.73 0 0 0-.73.73v.593c0 .066.062.112.128.097a5.317 5.317 0 0 1 2.91-.016.099.099 0 0 0 .122-.097z" fill="#FFF"/></g></svg>