<svg width="39" height="20" viewBox="0 0 39 20" xmlns="http://www.w3.org/2000/svg"><title>icon-infinite</title><desc>Created with Sketch.</desc><g fill="none" fill-rule="evenodd"><g><g><path d="M-12-22h64v64h-64z"/><g fill="#fff"><path d="M19.418 4.722c.427-.648.932-1.25 1.506-1.792 4.137-3.907 10.837-3.907 14.973 0 4.137 3.907 4.137 10.233 0 14.14-4.136 3.907-10.836 3.907-14.973 0-.597-.564-1.12-1.192-1.556-1.868l-.213.456c-1.196 1.67-2.915 2.952-4.892 3.675C8.848 21.313 2.78 18.74.7 13.583-1.377 8.425 1.325 2.646 6.74.666c4.783-1.748 10.076.055 12.678 4.055zm4.355.776c-2.606 2.482-2.606 6.522 0 9.004 2.606 2.482 6.848 2.482 9.454 0 2.606-2.482 2.606-6.522 0-9.004-2.606-2.482-6.848-2.482-9.454 0zM12.893 15.94c3.44-1.256 5.165-4.945 3.845-8.22-1.32-3.276-5.193-4.918-8.632-3.66-3.44 1.256-5.164 4.945-3.844 8.22 1.32 3.276 5.193 4.918 8.632 3.66z"/></g></g></g></g></svg>