<svg width="31" height="32" viewBox="0 0 31 32" xmlns="http://www.w3.org/2000/svg"><title>icon-community</title><desc>Created with Sketch.</desc><g fill="none" fill-rule="evenodd"><g><path d="M-16-16h64v64h-64z"/><g fill="#fff"><path d="M30.126 32c-.324-3.454-1.788-6.82-4.392-9.466-5.948-6.045-15.58-6.045-21.53 0C2.035 24.74.55 27.586 0 30.664V32h2.888c.356-2.676 1.52-5.257 3.488-7.31 4.81-5.015 12.635-5.015 17.443 0 1.968 2.053 3.13 4.634 3.487 7.31h2.82z"/><path d="M19.263 20.3C13.848 22.377 7.78 19.675 5.7 14.26 3.623 8.847 6.325 2.78 11.74.702c5.414-2.08 11.483.622 13.56 6.036.76 1.977.91 4.155.407 6.217l-1.552 3.486c-1.196 1.754-2.915 3.1-4.892 3.86zM18.22 17.41c3.78-1.463 5.674-5.754 4.223-9.565-1.45-3.81-5.705-5.722-9.483-4.26-3.778 1.464-5.673 5.755-4.222 9.566 1.45 3.81 5.705 5.722 9.483 4.26z"/></g></g></g></svg>