<svg width="64px" height="69px" viewBox="0 0 64 69" version="1.1" xmlns="http://www.w3.org/2000/svg" xmlns:xlink="http://www.w3.org/1999/xlink" xmlns:sketch="http://www.bohemiancoding.com/sketch/ns"><title>icon-widget-custom</title><desc>Created with Sketch.</desc><defs><linearGradient x1="42.9656982%" y1="14.0594482%" x2="85.1531982%" y2="110.153198%" id="linearGradient-1"><stop stop-color="#623E90" offset="0%"/><stop stop-color="#54327F" offset="100%"/></linearGradient><linearGradient x1="10.9344482%" y1="-27.3468018%" x2="73.4344482%" y2="79.6844482%" id="linearGradient-2"><stop stop-color="#905BD4" offset="0%"/><stop stop-color="#674790" offset="100%"/></linearGradient></defs><g id="Page-1" stroke="none" stroke-width="1" fill="none" fill-rule="evenodd" sketch:type="MSPage"><g id="instansearch-website" sketch:type="MSArtboardGroup" transform="translate(-411.000000, -414.000000)"><g id="icon-widget-custom" sketch:type="MSLayerGroup" transform="translate(410.387237, 413.664529)"><g id="custom-widget-bg" transform="translate(0.612763, 0.335471)" sketch:type="MSShapeGroup"><rect id="Rectangle-1-Copy" fill="url(#linearGradient-1)" x="0" y="5" width="64" height="64" rx="4"/><rect id="Rectangle-1" fill="url(#linearGradient-2)" x="0" y="0" width="64" height="64" rx="4"/></g><path d="M22.0007455,40.7166252 L11.4520787,33.0619917 L11.4520787,31.0162099 L22.0007455,23.4297692 L22.0007455,25.8847073 L13.5392481,32.1243417 L22.0007455,38.2105425 L22.0007455,40.7166252 Z M37.7854676,19.8666992 L29.1406377,44.8422852 L27.0675708,44.8422852 L35.6700932,19.8666992 L37.7854676,19.8666992 Z M54.1201869,33.0619917 L43.5715201,40.7166252 L43.5715201,38.2105425 L52.0330175,32.1243417 L43.5715201,25.8847073 L43.5715201,23.4297692 L54.1201869,31.0162099 L54.1201869,33.0619917 Z" id="&lt;/&gt;" fill="#FFFFFF" sketch:type="MSShapeGroup"/></g></g></g></svg>