<svg width="64px" height="69px" viewBox="0 0 64 69" version="1.1" xmlns="http://www.w3.org/2000/svg" xmlns:xlink="http://www.w3.org/1999/xlink" xmlns:sketch="http://www.bohemiancoding.com/sketch/ns"><title>icon-widget-searchbox</title><desc>Created with Sketch.</desc><defs><linearGradient x1="42.9656982%" y1="14.0594482%" x2="85.1531982%" y2="110.153198%" id="linearGradient-1"><stop stop-color="#2CA5C3" offset="0%"/><stop stop-color="#136B90" offset="100%"/></linearGradient><linearGradient x1="10.9344482%" y1="-27.3468018%" x2="73.4344482%" y2="79.6844482%" id="linearGradient-2"><stop stop-color="#51C8E5" offset="0%"/><stop stop-color="#2897C5" offset="100%"/></linearGradient></defs><g id="Page-1" stroke="none" stroke-width="1" fill="none" fill-rule="evenodd" sketch:type="MSPage"><g id="instansearch-website" sketch:type="MSArtboardGroup" transform="translate(-97.000000, -339.000000)"><g id="icon-widget-searchbox" sketch:type="MSLayerGroup" transform="translate(96.387237, 338.664529)"><g id="widget-bg" transform="translate(0.612763, 0.335471)" sketch:type="MSShapeGroup"><rect id="Rectangle-1-Copy" fill="url(#linearGradient-1)" x="0" y="5" width="64" height="64" rx="4"/><rect id="Rectangle-1" fill="url(#linearGradient-2)" x="0" y="0" width="64" height="64" rx="4"/></g><path d="M43.1860684,40.6275695 C43.1860684,40.2108971 43.0146682,39.8064798 42.7330822,39.5246131 L38.5337775,35.321124 C39.5254501,33.8872808 40.0518935,32.171571 40.0518935,30.431351 C40.0518935,25.6641287 36.1953892,21.8037815 31.4329126,21.8037815 C26.6704359,21.8037815 22.8139316,25.6641287 22.8139316,30.431351 C22.8139316,35.1985733 26.6704359,39.0589205 31.4329126,39.0589205 C33.1714002,39.0589205 34.8854021,38.5319524 36.3178179,37.5392918 L40.5171226,41.7305258 C40.7987086,42.0246475 41.2027233,42.1962185 41.6189809,42.1962185 C42.4759819,42.1962185 43.1860684,41.4854244 43.1860684,40.6275695 Z M36.9177186,30.431351 C36.9177186,33.4583534 34.4569016,35.9216225 31.4329126,35.9216225 C28.4089235,35.9216225 25.9481065,33.4583534 25.9481065,30.431351 C25.9481065,27.4043487 28.4089235,24.9410795 31.4329126,24.9410795 C34.4569016,24.9410795 36.9177186,27.4043487 36.9177186,30.431351 Z" id="Icons/Search" fill="#FFFFFF" sketch:type="MSShapeGroup" transform="translate(33.000000, 32.000000) rotate(10.000000) translate(-33.000000, -32.000000) "/></g></g></g></svg>