<svg width="32" height="8" viewBox="0 0 32 8" xmlns="http://www.w3.org/2000/svg"><title>icon-update</title><desc>Created with Sketch.</desc><g fill="none" fill-rule="evenodd"><g><g><path d="M-16-28h64v64h-64z"/><g fill="#2897C5"><path d="M0 3.275c.147-.796.54-1.53 1.116-2.102C2.692-.39 5.246-.39 6.82 1.17c1.575 1.562 1.573 4.093-.003 5.657C5.24 8.39 2.687 8.39 1.113 6.83.538 6.26.145 5.523 0 4.73V3.274zM2.2 2.2c-.993.993-.994 2.61-.002 3.602.993.992 2.61.99 3.602-.002.993-.993.994-2.61.002-3.602-.993-.992-2.61-.99-3.602.002z"/><path d="M12 3.275c.147-.796.54-1.53 1.116-2.102C14.692-.39 17.246-.39 18.82 1.17c1.575 1.562 1.573 4.093-.003 5.657-1.577 1.563-4.13 1.564-5.704.002-.575-.57-.968-1.306-1.113-2.1V3.274zM14.2 2.2c-.993.993-.994 2.61-.002 3.602.993.992 2.61.99 3.602-.002.993-.993.994-2.61.002-3.602-.993-.992-2.61-.99-3.602.002z"/><path d="M24 3.275c.147-.796.54-1.53 1.116-2.102C26.692-.39 29.246-.39 30.82 1.17c1.575 1.562 1.573 4.093-.003 5.657-1.577 1.563-4.13 1.564-5.704.002-.575-.57-.968-1.306-1.113-2.1V3.274zM26.2 2.2c-.993.993-.994 2.61-.002 3.602.993.992 2.61.99 3.602-.002.993-.993.994-2.61.002-3.602-.993-.992-2.61-.99-3.602.002z"/></g></g></g></g></svg>