<svg width="38" height="38" viewBox="0 0 38 38" xmlns="http://www.w3.org/2000/svg"><title>icon-ux</title><desc>Created with Sketch.</desc><g fill="none" fill-rule="evenodd"><g><g><path d="M-13-13h64v64h-64z"/><g fill="#2897C5"><path d="M26.06 36.32C17.156 39.71 5.283 35.2 1.52 25.487-2.24 15.775 2.648 4.89 12.447 1.16c9.8-3.728 21.17 2.13 24.54 10.832 3.37 8.702-2.02 20.938-10.926 24.327zm-.608-1.88c8.655-3.324 12.995-13.07 9.672-21.726C31.802 4.06 22.054-.28 13.4 3.042 4.745 6.364.405 16.112 3.727 24.766 7.05 33.42 16.797 37.76 25.452 34.44z"/><path d="M30.425 22.362c-.366 2.165-1.425 4.244-3.177 5.915-4.43 4.224-11.606 4.224-16.037 0-1.616-1.542-2.72-3.53-3.13-5.68v-.235h1.496c.375 1.81 1.28 3.537 2.71 4.938 3.88 3.796 10.197 3.796 14.077 0 1.432-1.4 2.336-3.127 2.71-4.938h1.352z"/></g><path d="M22.22 14.485c.103-.563.38-1.083.782-1.487 1.106-1.106 2.897-1.106 4.002-.002 1.105 1.105 1.104 2.896-.002 4.002-1.106 1.106-2.897 1.107-4.002.002-.403-.403-.678-.923-.78-1.486v-1.03zm1.51-.76c-.703.703-.703 1.845-.002 2.547.702.702 1.844.7 2.547 0 .702-.704.702-1.846 0-2.548-.7-.7-1.843-.7-2.546.002z" fill="#2897C5"/><path d="M15 15.996s1-.492 1-1c0-.507-1-1-1-1h-5s-.992.5-1 1c-.007.5.972.972.972.972l5.028.028z" fill="#2897C5"/></g></g></g></svg>