<svg width="21" height="24" viewBox="0 0 21 24" xmlns="http://www.w3.org/2000/svg" xmlns:xlink="http://www.w3.org/1999/xlink"><title>logo-algolia-notext</title><desc>Created with Sketch.</desc><defs><path d="M420.25 611.074l-1.393 4.928 4.484-2.455c-.65-1.193-1.76-2.095-3.09-2.473zm-11.004 5.03c0 5.28 4.284 9.56 9.57 9.56 5.287 0 9.57-4.28 9.57-9.56s-4.283-9.56-9.57-9.56c-5.286 0-9.57 4.28-9.57 9.56zm9.57-6.83c3.77 0 6.837 3.064 6.837 6.83 0 3.765-3.067 6.83-6.836 6.83-3.77 0-6.836-3.065-6.836-6.83 0-3.766 3.068-6.83 6.837-6.83zm3.304-3.913c.003-.036.01-.072.01-.11v-.862c0-.95-.768-1.723-1.717-1.723h-3.007c-.948 0-1.718.77-1.718 1.723v.847c.958-.27 1.965-.416 3.007-.416 1.194 0 2.345.19 3.425.54zm-10.496 1.688c-.67-.673-1.76-.673-2.43 0l-.304.304c-.67.673-.67 1.765 0 2.438l.324.324c.688-1.108 1.565-2.086 2.583-2.892l-.173-.174z" id="a"/></defs><g fill="none" fill-rule="evenodd"><g><g transform="translate(-408 -602)"><use fill="#fff" xlink:href="#a"/><use xlink:href="#a"/></g></g></g></svg>